<?xml version="1.0" encoding="utf-8"?>
<!-- Generator: Adobe Illustrator 24.1.2, SVG Export Plug-In . SVG Version: 6.00 Build 0)  -->
<svg version="1.1" id="Слой_1" xmlns="http://www.w3.org/2000/svg" xmlns:xlink="http://www.w3.org/1999/xlink" x="0px" y="0px"
	 width="93px" height="141.6px" viewBox="0 0 93 141.6" style="enable-background:new 0 0 93 141.6;" xml:space="preserve">
<style type="text/css">
	.st0{fill:#9721D6;}
	.st1{fill:#B7B7B7;}
	.st2{fill:#F9D6B7;}
	.st3{fill:#231F20;}
	.st4{fill:#CECECF;}
	.st5{fill:#3A3436;}
	.st6{fill:#FFFFFF;}
	.st7{fill:#43D6CB;}
	.st8{fill:#FF508F;}
	.st9{fill:#E8E8E8;}
</style>
<g id="Group_20603" transform="translate(-1421.671 -2461)">
	<g id="Group_19102">
		<g id="Group_19014" transform="translate(1454.839 2471.481)">
			
				<rect id="Rectangle_14911" x="-21" y="33.9" transform="matrix(0.1697 -0.9855 0.9855 0.1697 -23.6316 49.1369)" class="st0" width="76.7" height="9.4"/>
			
				<rect id="Rectangle_14912" x="-18.7" y="36.7" transform="matrix(0.1697 -0.9855 0.9855 0.1697 -22.1092 51.7364)" class="st1" width="76.7" height="4.7"/>
			<path id="Path_48526" class="st2" d="M6.2,75.6l2.6,12.5l6.6-10.9l0.5-3.1l-2.2,2.8l-2.4-3.6l-3.1,2.6l-1.5-3.4L6.2,75.6z"/>
			<path id="Path_48527" class="st3" d="M8.8,88.1l2.8-4.6c-0.6-0.1-1.3-0.2-1.9-0.4s-1.3-0.2-2-0.3L8.8,88.1z"/>
		</g>
		<g id="Group_19015" transform="translate(1451.365 2461)">
			<ellipse id="Ellipse_1931" class="st4" cx="12" cy="116.1" rx="0.9" ry="0.9"/>
			<rect id="Rectangle_14913" x="7.3" y="9.7" class="st3" width="9.4" height="94"/>
			<path id="Rectangle_14914" class="st3" d="M8,0h8c1,0,1.8,0.8,1.8,1.8v45l0,0H6.2l0,0v-45C6.2,0.8,7,0,8,0z"/>
			<rect id="Rectangle_14915" x="7.3" y="46.8" class="st1" width="9.4" height="1.3"/>
			<path id="Path_48528" class="st3" d="M17.8,6.6v1.3h1.7v31.6c-0.5,0.1-0.9,0.6-0.9,1.1v4.2c0,0.6,0.5,1.2,1.2,1.2c0,0,0,0,0,0
				h1.1V6.6H17.8z"/>
			<rect id="Rectangle_14916" x="7.3" y="103.8" class="st5" width="9.4" height="3.7"/>
			<path id="Path_48529" class="st3" d="M12.9,116.1l3.8-8.6H7.3l3.8,8.6H12.9z"/>
		</g>
		<g id="Group_19016" transform="translate(1459.428 2465.89)">
			<ellipse id="Ellipse_1932" class="st6" cx="54" cy="0.9" rx="0.9" ry="0.9"/>
			
				<rect id="Rectangle_14917" x="-14.5" y="51.5" transform="matrix(0.3611 -0.9325 0.9325 0.3611 -31.6111 66.2688)" class="st7" width="94" height="9.4"/>
			<path id="Rectangle_14918" class="st7" d="M15.8,110.6l-7.5-2.9c-0.9-0.4-1.4-1.4-1-2.3l16.2-42l0,0l10.8,4.2l0,0l-16.2,42
				C17.8,110.5,16.7,110.9,15.8,110.6z"/>
			
				<rect id="Rectangle_14919" x="28.5" y="60.2" transform="matrix(0.3611 -0.9325 0.9325 0.3611 -41.8709 68.684)" class="st1" width="1.3" height="9.4"/>
			<path id="Path_48530" class="st7" d="M9,100.9l0.5-1.2L8,99.1l11.4-29.4c0.5,0.1,1-0.2,1.2-0.7l1.5-3.9c0.2-0.6-0.1-1.3-0.7-1.5
				l-1-0.4l-0.7,1.8l-1.7,4.3L6.2,99.8L9,100.9z"/>
			
				<rect id="Rectangle_14920" x="48.4" y="6" transform="matrix(0.3611 -0.9325 0.9325 0.3611 22.1414 53.6129)" class="st6" width="3.7" height="9.4"/>
			<path id="Path_48531" class="st7" d="M53.1,0.6l-6.6,6.7l8.7,3.4l-0.4-9.4L53.1,0.6z"/>
		</g>
		<g id="Group_19017" transform="translate(1433.743 2486.357)">
			
				<rect id="Rectangle_14921" x="12.5" y="0.2" transform="matrix(0.9861 -0.1663 0.1663 0.9861 -6.1788 3.4004)" class="st8" width="9.4" height="76.7"/>
			
				<rect id="Rectangle_14922" x="17.2" y="-0.1" transform="matrix(0.9861 -0.1663 0.1663 0.9861 -6.0821 3.7783)" class="st1" width="4.7" height="76.7"/>
			<path id="Path_48532" class="st2" d="M19,77.2l6.6,11l2.6-12.5l-0.5-3.1l-1.2,3.4l-3.4-2.6L21,76.9l-2.5-2.7L19,77.2z"/>
			<path id="Path_48533" class="st3" d="M25.6,88.1l1.1-5.3c-0.6,0.1-1.3,0.2-2,0.3s-1.3,0.2-2,0.4L25.6,88.1z"/>
		</g>
		<g id="Group_19018" transform="translate(1471.452 2480.65)">
			
				<rect id="Rectangle_14923" x="-23.5" y="45.3" transform="matrix(0.104 -0.9946 0.9946 0.104 -36.3928 59.5911)" class="st8" width="76.7" height="9.4"/>
			
				<rect id="Rectangle_14924" x="-21.2" y="47.9" transform="matrix(0.104 -0.9946 0.9946 0.104 -34.5522 62.1198)" class="st1" width="76.7" height="4.7"/>
			<path id="Path_48534" class="st2" d="M14.2,11.3L20.1,0l3.4,12.3l-0.3,3.1l-1.4-3.3l-3.3,2.8l-2.3-3.4l-2.3,2.9L14.2,11.3z"/>
			<path id="Path_48535" class="st3" d="M20.1,0l1.4,5.2c-0.7-0.1-1.3-0.1-2-0.2s-1.3-0.1-2-0.2L20.1,0z"/>
		</g>
		<g transform="matrix(1, 0, 0, 1, 1421.67, 2461)">
			<path id="Rectangle_16090-2" class="st9" d="M17.7,85.4h57.4l0,0V134c0,4.2-3.4,7.6-7.6,7.6H25.3c-4.2,0-7.6-3.4-7.6-7.6V85.4
				L17.7,85.4z"/>
		</g>
	</g>
	<path id="Rectangle_16091" class="st9" d="M1438.5,2538.4h59.3c1.1,0,2,0.9,2,2v4.1c0,1.1-0.9,2-2,2h-59.3c-1.1,0-2-0.9-2-2v-4.1
		C1436.5,2539.3,1437.4,2538.4,1438.5,2538.4z"/>
	<rect id="Rectangle_16092" x="1439.4" y="2546.4" class="st1" width="57.5" height="3.3"/>
</g>
</svg>
