<svg xmlns="http://www.w3.org/2000/svg" width="258.97" height="153.985" viewBox="0 0 258.97 153.985">
  <g id="Group_20594" data-name="Group 20594" transform="translate(-1661.447 -927.766)">
    <path id="Path_52437" data-name="Path 52437" d="M4056-3718v-151.945s6.135-4.283-28.627,20.089c-71.82,50.355-21.31,53.616-49.545,53.708s-66.94-21.952-74.292,0,8.02,39.961-9.76,48.9-57.7-6.01-84.444,0,0,29.252,0,29.252Z" transform="translate(-2136 4798)" fill="#b4d0be"/>
    <g id="Group_15891" data-name="Group 15891" transform="translate(1717 -2909)">
      <g id="Group_15884" data-name="Group 15884" transform="translate(8978 13139.614)">
        <path id="Path_44830" data-name="Path 44830" d="M0,50.276c4.858-9.148,4.853-17.947,10.326-31.158S17.7,2.568,20.027,0" transform="matrix(0.848, -0.53, 0.53, 0.848, -8833.465, -9194.756)" fill="none" stroke="#0e755d" stroke-width="2"/>
        <path id="flower:4" d="M29.489,14.744a2.879,2.879,0,0,0-2.949-2.953,41.018,41.018,0,0,0-4.437.981A42.492,42.492,0,0,0,26.438,11.4a2.881,2.881,0,0,0,1.074-4.032A2.88,2.88,0,0,0,23.48,6.289a42.294,42.294,0,0,0-3.35,3.069A42.285,42.285,0,0,0,23.2,6.008a2.88,2.88,0,0,0-1.083-4.032A2.881,2.881,0,0,0,18.085,3.05a42.68,42.68,0,0,0-1.368,4.331A40.775,40.775,0,0,0,17.7,2.949a2.953,2.953,0,0,0-5.907,0,40.773,40.773,0,0,0,.981,4.433A42.687,42.687,0,0,0,11.4,3.05,2.881,2.881,0,0,0,7.372,1.977,2.88,2.88,0,0,0,6.289,6.008,41.306,41.306,0,0,0,9.353,9.353,41.207,41.207,0,0,0,6,6.289,2.876,2.876,0,0,0,1.977,7.372,2.881,2.881,0,0,0,3.05,11.4a42.682,42.682,0,0,0,4.331,1.368,40.773,40.773,0,0,0-4.433-.981,2.953,2.953,0,0,0,0,5.907,40.772,40.772,0,0,0,4.433-.981A42.681,42.681,0,0,0,3.05,18.085a2.881,2.881,0,0,0-1.074,4.032A2.876,2.876,0,0,0,6,23.2a41.259,41.259,0,0,0,3.354-3.069,42.286,42.286,0,0,0-3.069,3.35,2.881,2.881,0,0,0,1.083,4.032A2.881,2.881,0,0,0,11.4,26.439a42.687,42.687,0,0,0,1.368-4.331,40.773,40.773,0,0,0-.981,4.433,2.953,2.953,0,0,0,5.907,0,41.018,41.018,0,0,0-.981-4.437,42.489,42.489,0,0,0,1.368,4.336A2.954,2.954,0,0,0,23.2,23.48a41.454,41.454,0,0,0-3.069-3.35A42.3,42.3,0,0,0,23.48,23.2a2.954,2.954,0,0,0,2.958-5.114A41.31,41.31,0,0,0,22.1,16.716a41.017,41.017,0,0,0,4.437.981A2.881,2.881,0,0,0,29.489,14.744ZM18.163,9.694a1.153,1.153,0,1,1,0,1.631A1.151,1.151,0,0,1,18.163,9.694ZM14.744,7.6a1.152,1.152,0,1,1-1.152,1.152A1.152,1.152,0,0,1,14.744,7.6ZM7.6,14.744A1.152,1.152,0,1,1,8.754,15.9,1.152,1.152,0,0,1,7.6,14.744Zm3.723,5.05a1.153,1.153,0,1,1,0-1.631A1.151,1.151,0,0,1,11.326,19.794Zm0-8.469a1.153,1.153,0,1,1,0-1.631A1.16,1.16,0,0,1,11.326,11.326Zm3.419,10.561A1.152,1.152,0,1,1,15.9,20.734,1.152,1.152,0,0,1,14.744,21.886Zm0-4.147a2.995,2.995,0,1,1,2.995-2.995A2.995,2.995,0,0,1,14.744,17.739Zm5.05,2.055a1.153,1.153,0,1,1,0-1.631A1.151,1.151,0,0,1,19.794,19.794Zm.94-3.9a1.152,1.152,0,1,1,1.152-1.152A1.152,1.152,0,0,1,20.734,15.9Z" transform="matrix(0.848, -0.53, 0.53, 0.848, -8837.473, -9218.974)" fill="#fff" fill-rule="evenodd"/>
        <circle id="Ellipse_1869" data-name="Ellipse 1869" cx="3.456" cy="3.456" r="3.456" transform="matrix(0.848, -0.53, 0.53, 0.848, -8821.991, -9215.065)" fill="#e4b62c"/>
        <path id="Path_44832" data-name="Path 44832" d="M2.508,10.686A13.828,13.828,0,0,0,4.091,3.525C3.785-1.817-.579-.632.065,4.037.5,6.4,1.425,10.757,2.508,10.686Z" transform="translate(-8812.552 -9160.167) rotate(-16)" fill="#0e755d" fill-rule="evenodd"/>
        <path id="Path_44833" data-name="Path 44833" d="M2.561,10.641a13.9,13.9,0,0,0,1.53-7.116C3.785-1.817-.579-.632.065,4.037A19.768,19.768,0,0,0,2.561,10.641Z" transform="matrix(0.848, 0.53, -0.53, 0.848, -8803.663, -9161.18)" fill="#0e755d" fill-rule="evenodd"/>
        <path id="Path_44834" data-name="Path 44834" d="M2.226,10.708A12.44,12.44,0,0,0,4.091,3.525C3.785-1.817-.579-.632.065,4.037A18.9,18.9,0,0,0,2.226,10.708Z" transform="translate(-8799.385 -9157.977) rotate(59)" fill="#0e755d" fill-rule="evenodd"/>
        <path id="Path_44835" data-name="Path 44835" d="M2.145,9.9S4.131,8.166,4.091,3.525C3.785-1.817-.579-.632.065,4.037A31.744,31.744,0,0,0,2.145,9.9Z" transform="translate(-8816.374 -9155.096) rotate(-51)" fill="#0e755d" fill-rule="evenodd"/>
      </g>
      <g id="Group_15885" data-name="Group 15885" transform="translate(5117.728 15722.966) rotate(21)">
        <path id="Path_44830-2" data-name="Path 44830" d="M0,29.94c2.893-5.448,2.89-10.688,6.149-18.555S10.543,1.529,11.926,0" transform="matrix(0.848, -0.53, 0.53, 0.848, -8835.086, -9210.873)" fill="none" stroke="#0e755d" stroke-width="2"/>
        <path id="flower:4-2" data-name="flower:4" d="M17.561,8.78A1.714,1.714,0,0,0,15.8,7.022a24.427,24.427,0,0,0-2.642.584,25.305,25.305,0,0,0,2.582-.815,1.716,1.716,0,0,0,.639-2.4,1.715,1.715,0,0,0-2.4-.645,25.187,25.187,0,0,0-1.995,1.827,25.181,25.181,0,0,0,1.827-1.995,1.715,1.715,0,0,0-.645-2.4,1.716,1.716,0,0,0-2.4.639A25.416,25.416,0,0,0,9.955,4.4a24.282,24.282,0,0,0,.584-2.64,1.759,1.759,0,0,0-3.518,0A24.281,24.281,0,0,0,7.606,4.4a25.421,25.421,0,0,0-.815-2.579,1.716,1.716,0,0,0-2.4-.639,1.715,1.715,0,0,0-.645,2.4A24.6,24.6,0,0,0,5.57,5.57,24.539,24.539,0,0,0,3.575,3.745a1.712,1.712,0,0,0-2.4.645,1.716,1.716,0,0,0,.639,2.4A25.418,25.418,0,0,0,4.4,7.606a24.281,24.281,0,0,0-2.64-.584,1.759,1.759,0,0,0,0,3.518A24.281,24.281,0,0,0,4.4,9.955a25.417,25.417,0,0,0-2.579.815,1.716,1.716,0,0,0-.639,2.4,1.712,1.712,0,0,0,2.4.645,24.571,24.571,0,0,0,2-1.827,25.182,25.182,0,0,0-1.827,1.995,1.716,1.716,0,0,0,.645,2.4,1.716,1.716,0,0,0,2.4-.639,25.421,25.421,0,0,0,.815-2.579,24.281,24.281,0,0,0-.584,2.64,1.759,1.759,0,0,0,3.518,0,24.427,24.427,0,0,0-.584-2.642,25.3,25.3,0,0,0,.815,2.582,1.759,1.759,0,0,0,3.046-1.762,24.686,24.686,0,0,0-1.827-1.995,25.188,25.188,0,0,0,1.995,1.827,1.759,1.759,0,0,0,1.762-3.046,24.6,24.6,0,0,0-2.582-.815,24.427,24.427,0,0,0,2.642.584A1.716,1.716,0,0,0,17.561,8.78ZM10.816,5.773a.687.687,0,1,1,0,.971A.686.686,0,0,1,10.816,5.773ZM8.78,4.527a.686.686,0,1,1-.686.686A.686.686,0,0,1,8.78,4.527ZM4.527,8.78a.686.686,0,1,1,.686.686A.686.686,0,0,1,4.527,8.78Zm2.217,3.007a.687.687,0,1,1,0-.971A.686.686,0,0,1,6.744,11.788Zm0-5.043a.687.687,0,1,1,0-.971A.691.691,0,0,1,6.744,6.744ZM8.78,13.034a.686.686,0,1,1,.686-.686A.686.686,0,0,1,8.78,13.034Zm0-2.47A1.784,1.784,0,1,1,10.564,8.78,1.783,1.783,0,0,1,8.78,10.564Zm3.007,1.224a.687.687,0,1,1,0-.971A.686.686,0,0,1,11.788,11.788Zm.56-2.321a.686.686,0,1,1,.686-.686A.686.686,0,0,1,12.348,9.466Z" transform="matrix(0.848, -0.53, 0.53, 0.848, -8837.473, -9225.295)" fill="#fff" fill-rule="evenodd"/>
        <circle id="Ellipse_1869-2" data-name="Ellipse 1869" cx="2.058" cy="2.058" r="2.058" transform="matrix(0.848, -0.53, 0.53, 0.848, -8828.253, -9222.967)" fill="#e4b62c"/>
        <path id="Path_44832-2" data-name="Path 44832" d="M1.493,6.364A8.235,8.235,0,0,0,2.436,2.1C2.254-1.082-.345-.376.039,2.4.3,3.81.849,6.406,1.493,6.364Z" transform="translate(-8822.632 -9190.274) rotate(-16)" fill="#0e755d" fill-rule="evenodd"/>
        <path id="Path_44833-2" data-name="Path 44833" d="M1.525,6.337A8.277,8.277,0,0,0,2.436,2.1C2.254-1.082-.345-.376.039,2.4A11.772,11.772,0,0,0,1.525,6.337Z" transform="matrix(0.848, 0.53, -0.53, 0.848, -8817.339, -9190.878)" fill="#0e755d" fill-rule="evenodd"/>
        <path id="Path_44834-2" data-name="Path 44834" d="M1.326,6.377A7.408,7.408,0,0,0,2.436,2.1C2.254-1.082-.345-.376.039,2.4A11.256,11.256,0,0,0,1.326,6.377Z" transform="translate(-8814.791 -9188.97) rotate(59)" fill="#0e755d" fill-rule="evenodd"/>
        <path id="Path_44835-2" data-name="Path 44835" d="M1.277,5.9S2.46,4.863,2.436,2.1C2.254-1.082-.345-.376.039,2.4A18.9,18.9,0,0,0,1.277,5.9Z" transform="translate(-8824.907 -9187.255) rotate(-51)" fill="#0e755d" fill-rule="evenodd"/>
      </g>
      <g id="Group_15886" data-name="Group 15886" transform="translate(11382.166 9987.971) rotate(-18)">
        <path id="Path_44830-3" data-name="Path 44830" d="M0,37.225c3.6-6.773,3.593-13.288,7.645-23.069S13.109,1.9,14.828,0" transform="matrix(0.848, -0.53, 0.53, 0.848, -8834.505, -9205.1)" fill="none" stroke="#0e755d" stroke-width="2"/>
        <path id="flower:4-3" data-name="flower:4" d="M21.834,10.917A2.131,2.131,0,0,0,19.65,8.73a30.37,30.37,0,0,0-3.285.727,31.462,31.462,0,0,0,3.21-1.013,2.133,2.133,0,0,0,.795-2.985,2.132,2.132,0,0,0-2.985-.8A31.315,31.315,0,0,0,14.9,6.929a31.307,31.307,0,0,0,2.272-2.48,2.132,2.132,0,0,0-.8-2.985,2.133,2.133,0,0,0-2.985.795,31.6,31.6,0,0,0-1.013,3.207A30.19,30.19,0,0,0,13.1,2.183a2.187,2.187,0,0,0-4.374,0,30.189,30.189,0,0,0,.727,3.282A31.605,31.605,0,0,0,8.443,2.258a2.133,2.133,0,0,0-2.985-.795,2.132,2.132,0,0,0-.8,2.985A30.583,30.583,0,0,0,6.925,6.925a30.51,30.51,0,0,0-2.48-2.269,2.129,2.129,0,0,0-2.982.8,2.133,2.133,0,0,0,.795,2.985A31.6,31.6,0,0,0,5.465,9.457,30.189,30.189,0,0,0,2.183,8.73a2.187,2.187,0,0,0,0,4.374,30.188,30.188,0,0,0,3.282-.727A31.6,31.6,0,0,0,2.258,13.39a2.133,2.133,0,0,0-.795,2.985,2.129,2.129,0,0,0,2.982.8A30.549,30.549,0,0,0,6.929,14.9a31.309,31.309,0,0,0-2.272,2.48,2.133,2.133,0,0,0,.8,2.985,2.133,2.133,0,0,0,2.985-.795,31.605,31.605,0,0,0,1.013-3.207A30.188,30.188,0,0,0,8.73,19.65a2.187,2.187,0,0,0,4.374,0,30.37,30.37,0,0,0-.727-3.285,31.459,31.459,0,0,0,1.013,3.21,2.187,2.187,0,0,0,3.787-2.19A30.693,30.693,0,0,0,14.9,14.9a31.316,31.316,0,0,0,2.48,2.272,2.187,2.187,0,0,0,2.19-3.787,30.585,30.585,0,0,0-3.21-1.013,30.369,30.369,0,0,0,3.285.727A2.133,2.133,0,0,0,21.834,10.917ZM13.448,7.178a.854.854,0,1,1,0,1.208A.852.852,0,0,1,13.448,7.178ZM10.917,5.629a.853.853,0,1,1-.853.853A.853.853,0,0,1,10.917,5.629ZM5.629,10.917a.853.853,0,1,1,.853.853A.853.853,0,0,1,5.629,10.917Zm2.756,3.739a.854.854,0,1,1,0-1.208A.852.852,0,0,1,8.385,14.656Zm0-6.27a.854.854,0,1,1,0-1.208A.859.859,0,0,1,8.385,8.385ZM10.917,16.2a.853.853,0,1,1,.853-.853A.853.853,0,0,1,10.917,16.2Zm0-3.07a2.217,2.217,0,1,1,2.217-2.217A2.217,2.217,0,0,1,10.917,13.134Zm3.739,1.522a.854.854,0,1,1,0-1.208A.852.852,0,0,1,14.656,14.656Zm.7-2.886a.853.853,0,1,1,.853-.853A.853.853,0,0,1,15.352,11.77Z" transform="matrix(0.848, -0.53, 0.53, 0.848, -8837.473, -9223.03)" fill="#fff" fill-rule="evenodd"/>
        <circle id="Ellipse_1869-3" data-name="Ellipse 1869" cx="2.559" cy="2.559" r="2.559" transform="matrix(0.848, -0.53, 0.53, 0.848, -8826.01, -9220.137)" fill="#e4b62c"/>
        <path id="Path_44832-3" data-name="Path 44832" d="M1.857,7.912a10.238,10.238,0,0,0,1.172-5.3C2.8-1.346-.429-.468.048,2.989.374,4.738,1.055,7.965,1.857,7.912Z" transform="translate(-8819.021 -9179.489) rotate(-16)" fill="#0e755d" fill-rule="evenodd"/>
        <path id="Path_44833-3" data-name="Path 44833" d="M1.9,7.878A10.291,10.291,0,0,0,3.029,2.61C2.8-1.346-.429-.468.048,2.989A14.636,14.636,0,0,0,1.9,7.878Z" transform="matrix(0.848, 0.53, -0.53, 0.848, -8812.44, -9180.24)" fill="#0e755d" fill-rule="evenodd"/>
        <path id="Path_44834-3" data-name="Path 44834" d="M1.648,7.928A9.211,9.211,0,0,0,3.029,2.61C2.8-1.346-.429-.468.048,2.989A13.994,13.994,0,0,0,1.648,7.928Z" transform="translate(-8809.272 -9177.868) rotate(59)" fill="#0e755d" fill-rule="evenodd"/>
        <path id="Path_44835-3" data-name="Path 44835" d="M1.588,7.332S3.059,6.046,3.029,2.61C2.8-1.346-.429-.468.048,2.989A23.5,23.5,0,0,0,1.588,7.332Z" transform="translate(-8821.851 -9175.735) rotate(-51)" fill="#0e755d" fill-rule="evenodd"/>
      </g>
    </g>
  </g>
</svg>
