<svg xmlns="http://www.w3.org/2000/svg" xmlns:xlink="http://www.w3.org/1999/xlink" width="1920" height="586" viewBox="0 0 1920 586">
  <defs>
    <clipPath id="clip-path">
      <rect id="Rectangle_16354" data-name="Rectangle 16354" width="1920" height="586" transform="translate(0 1128)" fill="#fff"/>
    </clipPath>
  </defs>
  <g id="Mask_Group_59" data-name="Mask Group 59" transform="translate(0 -1128)" clip-path="url(#clip-path)">
    <path id="Path_52576" data-name="Path 52576" d="M1666.441,412.625l-88.281-.769-139.718,57.452L1259.3,491.831l-264.364,32.05L724,541.506l-80.786-4.39-66.53-16.342L495.1,503.456,434.156,499.8V606.231l901.805-21.309,487.5-37.775,277.7-19.981,257.861-104.7V345.853l-266-31.853-370.3,78.647Z" transform="translate(-439.156 1107.965)" fill="#e4f5ea" fill-rule="evenodd" opacity="0.565"/>
    <path id="Path_52577" data-name="Path 52577" d="M2190.1,471.2l-29.57,24.932-103.489,6.8-143.622-16.621-80.258,9.066-54.913,27.954-67.585,36.265-57.026,6.044s-4.937-.043-12.467-.039q-5.988-6.447-18.115-14.723a89.4,89.4,0,0,0,13.357,3.461q-12.507-6.04-16.768-11.468a43.835,43.835,0,0,1,11.255,4.338q-2.207-6.364-15.348-17.815l7.553,3.129L1612.668,514.3l0-.216-.065.111-.063-.111-.021.26L1602.11,532.52l7.554-3.129q-13.139,11.449-15.348,17.815a43.862,43.862,0,0,1,11.255-4.338q-4.26,5.427-16.766,11.468a89.457,89.457,0,0,0,13.358-3.461q-13.434,9.168-19.336,16.092c-7.841.533-13.779,1.267-15.884,2.279-8.931,4.291-146.308,2.608-146.308,2.608l-162.192-20.433L748.829,638.015,611.969,609l-177.813-56.21V665.365l1610.4,28.866,314.456-.22V405Zm-598.312,95.276c-2.982.132-5.825.285-8.464.46a43.649,43.649,0,0,1,13.392-4.364Q1594.294,564.61,1591.786,566.474Zm40.516-.85q-1.926-1.475-3.8-3.054a41.434,41.434,0,0,1,10.521,3.031C1636.93,565.6,1634.679,565.611,1632.3,565.624Z" transform="translate(-439.156 1017.477)" fill="#cae6d4" fill-rule="evenodd" opacity="0.565"/>
    <path id="Path_52578" data-name="Path 52578" d="M2186.221,530l-12.1,87.237-17.154-4.168-104.755-26.618-80.276,4.846-23.053,4.987-15.369,9.972-66.6,6.8-61.48,21.3-42.945,5.3q-5.135-3.945-11.526-8.261a122.535,122.535,0,0,0,18.154,4.654q-17-8.123-22.788-15.422a60.022,60.022,0,0,1,15.3,5.834q-3-8.559-20.862-23.959l10.269,4.209-14.187-24.506,0-.291-.085.15-.087-.15-.029.35L1722.5,606.718l10.267-4.209q-17.858,15.4-20.86,23.959a59.991,59.991,0,0,1,15.3-5.834q-5.791,7.3-22.79,15.422a122.546,122.546,0,0,0,18.156-4.654,177.58,177.58,0,0,0-20.477,15.718l-6.8.84-72.249-14.109L1509.568,612.6l-12.553,1.19q-4.712-4.157-10.531-8.69a103.019,103.019,0,0,0,17.059,5.045q-15.972-8.8-21.413-16.717a52.131,52.131,0,0,1,14.373,6.324q-2.821-9.277-19.6-25.968s3.217,1.52,9.648,4.562l-13.328-26.562,0-.314-.081.161-.081-.161-.027.378-13.3,26.5,9.646-4.562q-16.778,16.691-19.6,25.968a52.126,52.126,0,0,1,14.373-6.324q-5.439,7.912-21.411,16.717A103.079,103.079,0,0,0,1459.8,605.1a192.586,192.586,0,0,0-15.986,13.733l-77.7,7.366-40.987,4.986-76.694-7.289s-79.607-3.366-70.5-4.642S989.214,634.93,989.214,634.93h0q-12.789-7.014-17.907-13.467a68.552,68.552,0,0,1,17.462,6.661q-3.426-9.773-23.812-27.348l11.717,4.8-16.191-27.972.006-.332-.1.171-.1-.171-.033.4-16.152,27.9,11.719-4.8q-20.387,17.576-23.814,27.348a68.55,68.55,0,0,1,17.462-6.661q-6.609,8.334-26.013,17.6a139.728,139.728,0,0,0,20.723-5.312q-18.089,12.218-27.38,21.838l-53.633,15.3L774.637,685.4l-77.683-8.132-36.97-3.87-1.749-.183L512.326,656.392l-102.811-9.548v94.725L1849.238,735.5l595.2-1.213L2194,622.066ZM981.5,637.133q-2.364-1.662-4.9-3.377,3.815,1.331,8.06,2.476Z" transform="translate(-428.156 978.499)" fill="#b8d0c0" fill-rule="evenodd" opacity="0.565"/>
    <path id="Path_52579" data-name="Path 52579" d="M2228.652,649.423l-70.938,6.6-51.632,20.457-34.851,17.666-44.353-3.719-175.3-44.321-41.209,17.765-2.059.523q-19.3-7.717-25.947-14.662a79.141,79.141,0,0,1,17.83,5.64q-3.5-8.275-24.315-23.158l11.966,4.068L1771.308,612.6l.006-.281-.1.144-.1-.144-.034.337-16.494,23.63,11.964-4.068q-20.815,14.883-24.313,23.158a79.15,79.15,0,0,1,17.83-5.64q-6.748,7.056-26.562,14.906a167.278,167.278,0,0,0,21.162-4.5q-21.879,12.25-31.149,21.419a81.182,81.182,0,0,1,22.52-6.218q-5.116,3.534-10.468,6.661l-111.089,6-99.643-19.113L1349.113,652.25l-64.883-3.809-54.243,12.326q-6.1-4.015-14.1-8.5a148.117,148.117,0,0,0,18.764,3.988q-17.568-6.961-23.553-13.217a70.227,70.227,0,0,1,15.811,5q-3.1-7.337-21.559-20.533l10.611,3.608-14.662-21,.006-.249-.09.128-.088-.128-.031.3-14.626,20.952,10.611-3.608q-18.457,13.2-21.562,20.533a70.258,70.258,0,0,1,15.811-5q-5.985,6.256-23.552,13.217a148.18,148.18,0,0,0,18.764-3.988q-19.4,10.863-27.62,18.992a72.047,72.047,0,0,1,19.967-5.514,144.291,144.291,0,0,1-18.427,10.817L363.445,700.927s-67.222,41.879-9.728,42.51c577.469,6.329,2005.3-6.724,2005.3-6.724V630.634h-31.742Z" transform="translate(-363.156 975.134)" fill="#b4d0be" fill-rule="evenodd" opacity="0.565"/>
  </g>
</svg>
