<svg xmlns="http://www.w3.org/2000/svg" width="791.166" height="495.115" viewBox="0 0 791.166 495.115">
  <g id="Group_20576" data-name="Group 20576" transform="translate(-982.651 -159)">
    <path id="Path_52583" data-name="Path 52583" d="M1259.474,1145.715c-169.357,0-235.552,52.343-188,75.8s194.427,2.365,378.2,18.022c309.164,26.339,570.5-46.388,254.849-84.687C1380.888,1115.582,1259.474,1145.715,1259.474,1145.715Z" transform="translate(-73.814 -591.038)" fill="#5a867c"/>
    <g id="Group_19098" data-name="Group 19098" transform="translate(1230.035 159)">
      <path id="Path_52156" data-name="Path 52156" d="M0,0H354.143V208.756H0Z" transform="translate(36.077 178.413)" fill="#a5a5a5"/>
      <g id="Group_17089" data-name="Group 17089" transform="translate(162.486 262.838)">
        <path id="Path_48064" data-name="Path 48064" d="M863.722,862.567h89.685V981.349h5.547V857.019H858.174v124.33h5.548Z" transform="translate(-858.174 -857.019)" fill="#e5bf90"/>
        <rect id="Rectangle_14744" data-name="Rectangle 14744" width="1.394" height="118.782" transform="translate(49.693 5.548)" fill="#381500"/>
        <rect id="Rectangle_14745" data-name="Rectangle 14745" width="44.145" height="118.782" transform="translate(5.548 5.548)" fill="#a04019"/>
        <rect id="Rectangle_14746" data-name="Rectangle 14746" width="44.146" height="118.782" transform="translate(51.087 5.548)" fill="#a04019"/>
        <path id="Path_48065" data-name="Path 48065" d="M873.349,872.194V990.976h44.145V872.194Zm41.68,116.317H875.815V874.66h39.214Z" transform="translate(-867.801 -866.646)" fill="#6c2a0d"/>
        <path id="Path_48066" data-name="Path 48066" d="M997.909,872.194V990.976h44.146V872.194Zm41.68,116.317h-39.214V874.66h39.214Z" transform="translate(-946.822 -866.646)" fill="#6c2a0d"/>
        <rect id="Rectangle_14747" data-name="Rectangle 14747" width="28.391" height="21.456" transform="translate(13.425 13.444)" fill="#6c2a0d"/>
        <rect id="Rectangle_14748" data-name="Rectangle 14748" width="19.198" height="12.158" transform="translate(18.022 18.093)" fill="#a04019"/>
        <rect id="Rectangle_14749" data-name="Rectangle 14749" width="28.391" height="21.456" transform="translate(13.425 40.709)" fill="#6c2a0d"/>
        <rect id="Rectangle_14750" data-name="Rectangle 14750" width="19.198" height="12.157" transform="translate(18.022 45.359)" fill="#a04019"/>
        <rect id="Rectangle_14751" data-name="Rectangle 14751" width="28.391" height="21.456" transform="translate(13.425 67.973)" fill="#6c2a0d"/>
        <rect id="Rectangle_14752" data-name="Rectangle 14752" width="19.198" height="12.157" transform="translate(18.022 72.623)" fill="#a04019"/>
        <rect id="Rectangle_14753" data-name="Rectangle 14753" width="28.391" height="21.455" transform="translate(13.425 95.238)" fill="#6c2a0d"/>
        <rect id="Rectangle_14754" data-name="Rectangle 14754" width="19.198" height="12.157" transform="translate(18.022 99.888)" fill="#a04019"/>
        <rect id="Rectangle_14755" data-name="Rectangle 14755" width="28.39" height="21.456" transform="translate(58.965 13.444)" fill="#6c2a0d"/>
        <rect id="Rectangle_14756" data-name="Rectangle 14756" width="19.199" height="12.158" transform="translate(63.561 18.093)" fill="#a04019"/>
        <rect id="Rectangle_14757" data-name="Rectangle 14757" width="28.39" height="21.456" transform="translate(58.965 40.709)" fill="#6c2a0d"/>
        <rect id="Rectangle_14758" data-name="Rectangle 14758" width="19.199" height="12.157" transform="translate(63.561 45.359)" fill="#a04019"/>
        <rect id="Rectangle_14759" data-name="Rectangle 14759" width="28.39" height="21.456" transform="translate(58.965 67.973)" fill="#6c2a0d"/>
        <rect id="Rectangle_14760" data-name="Rectangle 14760" width="19.199" height="12.157" transform="translate(63.561 72.623)" fill="#a04019"/>
        <rect id="Rectangle_14761" data-name="Rectangle 14761" width="28.39" height="21.455" transform="translate(58.965 95.238)" fill="#6c2a0d"/>
        <rect id="Rectangle_14762" data-name="Rectangle 14762" width="19.199" height="12.157" transform="translate(63.561 99.888)" fill="#a04019"/>
        <path id="Rectangle_14763" data-name="Rectangle 14763" d="M2.447,0h0A2.446,2.446,0,0,1,4.893,2.446v9.343a2.447,2.447,0,0,1-2.447,2.447h0A2.446,2.446,0,0,1,0,11.789V2.447A2.447,2.447,0,0,1,2.447,0Z" transform="translate(43.203 69.608)" fill="#f6c24c"/>
        <path id="Rectangle_14764" data-name="Rectangle 14764" d="M2.447,0h0A2.447,2.447,0,0,1,4.893,2.447v9.343a2.446,2.446,0,0,1-2.446,2.446h0A2.446,2.446,0,0,1,0,11.79V2.447A2.447,2.447,0,0,1,2.447,0Z" transform="translate(52.347 69.608)" fill="#f6c24c"/>
      </g>
      <path id="Path_48067" data-name="Path 48067" d="M657.964,236.863H462.908l97.529-49.386,97.527-49.386,97.529,49.386,97.53,49.386Z" transform="translate(-444.93 -138.091)" fill="#d8d8d8"/>
      <path id="Path_48068" data-name="Path 48068" d="M755.492,187.477l-97.528-49.386-97.527,49.386-97.529,49.385H853.023ZM532.27,220.3l35.648-18.051,90.046-45.6,90.049,45.6L783.659,220.3H532.27Z" transform="translate(-444.93 -138.091)" fill="#efefef"/>
      <path id="Path_48069" data-name="Path 48069" d="M688.278,239.644l90.046-45.6,90.049,45.6L893.9,252.569H904.02l-35.647-18.051-90.049-45.6-90.046,45.6-35.648,18.051h10.122Z" transform="translate(-565.29 -170.338)" fill="#313133" opacity="0.1" style="mix-blend-mode: multiply;isolation: isolate"/>
      <rect id="Rectangle_14765" data-name="Rectangle 14765" width="390.968" height="7.331" transform="translate(17.664 171.081)" fill="#d8d8d8"/>
      <rect id="Rectangle_14766" data-name="Rectangle 14766" width="400.526" height="7.332" transform="translate(12.886 163.75)" fill="#b7bec7"/>
      <rect id="Rectangle_14767" data-name="Rectangle 14767" width="410.149" height="64.978" transform="translate(8.073 98.772)" fill="#efefef"/>
      <rect id="Rectangle_14768" data-name="Rectangle 14768" width="406.995" height="20.783" transform="translate(9.38 407.952)" fill="#efefef"/>
      <rect id="Rectangle_14769" data-name="Rectangle 14769" width="406.995" height="8.169" transform="translate(9.38 420.566)" fill="#313133" opacity="0.1" style="mix-blend-mode: multiply;isolation: isolate"/>
      <rect id="Rectangle_14770" data-name="Rectangle 14770" width="390.431" height="20.784" transform="translate(17.662 387.168)" fill="#efefef"/>
      <rect id="Rectangle_14771" data-name="Rectangle 14771" width="56.105" height="16.453" transform="translate(25.731 370.715)" fill="#efefef"/>
      <rect id="Rectangle_14772" data-name="Rectangle 14772" width="56.105" height="16.453" transform="translate(25.731 178.413)" fill="#efefef"/>
      <rect id="Rectangle_14773" data-name="Rectangle 14773" width="43.039" height="175.849" transform="translate(32.265 194.866)" fill="#b7bec7"/>
      <g id="Group_17090" data-name="Group 17090" transform="translate(36.838 194.866)">
        <rect id="Rectangle_14774" data-name="Rectangle 14774" width="3.961" height="175.849" transform="translate(0)" fill="#efefef"/>
        <rect id="Rectangle_14775" data-name="Rectangle 14775" width="3.96" height="175.849" transform="translate(9.908)" fill="#efefef"/>
        <rect id="Rectangle_14776" data-name="Rectangle 14776" width="3.961" height="175.849" transform="translate(19.815)" fill="#efefef"/>
        <rect id="Rectangle_14777" data-name="Rectangle 14777" width="3.961" height="175.849" transform="translate(29.722)" fill="#efefef"/>
      </g>
      <rect id="Rectangle_14778" data-name="Rectangle 14778" width="56.105" height="4.797" transform="translate(25.731 382.371)" fill="#313133" opacity="0.1" style="mix-blend-mode: multiply;isolation: isolate"/>
      <rect id="Rectangle_14779" data-name="Rectangle 14779" width="43.039" height="6.62" transform="translate(32.265 194.866)" fill="#313133" opacity="0.1" style="mix-blend-mode: multiply;isolation: isolate"/>
      <rect id="Rectangle_14780" data-name="Rectangle 14780" width="56.105" height="6.62" transform="translate(25.731 178.413)" fill="#313133" opacity="0.1" style="mix-blend-mode: multiply;isolation: isolate"/>
      <rect id="Rectangle_14781" data-name="Rectangle 14781" width="56.105" height="16.453" transform="translate(100.845 370.715)" fill="#efefef"/>
      <rect id="Rectangle_14782" data-name="Rectangle 14782" width="56.105" height="16.453" transform="translate(100.845 178.413)" fill="#efefef"/>
      <rect id="Rectangle_14783" data-name="Rectangle 14783" width="43.039" height="175.849" transform="translate(107.378 194.866)" fill="#b7bec7"/>
      <rect id="Rectangle_14784" data-name="Rectangle 14784" width="56.105" height="4.797" transform="translate(100.845 382.371)" fill="#313133" opacity="0.1" style="mix-blend-mode: multiply;isolation: isolate"/>
      <rect id="Rectangle_14785" data-name="Rectangle 14785" width="56.105" height="16.453" transform="translate(268.853 370.715)" fill="#efefef"/>
      <rect id="Rectangle_14786" data-name="Rectangle 14786" width="56.105" height="16.453" transform="translate(268.853 178.413)" fill="#efefef"/>
      <rect id="Rectangle_14787" data-name="Rectangle 14787" width="43.039" height="175.849" transform="translate(275.386 194.866)" fill="#b7bec7"/>
      <rect id="Rectangle_14788" data-name="Rectangle 14788" width="56.105" height="4.797" transform="translate(268.853 382.371)" fill="#313133" opacity="0.1" style="mix-blend-mode: multiply;isolation: isolate"/>
      <rect id="Rectangle_14789" data-name="Rectangle 14789" width="56.104" height="16.453" transform="translate(343.967 370.715)" fill="#efefef"/>
      <rect id="Rectangle_14790" data-name="Rectangle 14790" width="56.104" height="16.453" transform="translate(343.967 178.413)" fill="#efefef"/>
      <path id="Path_52157" data-name="Path 52157" d="M0,0H43.04V175.849H0Z" transform="translate(350.499 194.866)" fill="#b7bec7"/>
      <rect id="Rectangle_14792" data-name="Rectangle 14792" width="56.104" height="4.797" transform="translate(343.967 382.371)" fill="#313133" opacity="0.1" style="mix-blend-mode: multiply;isolation: isolate"/>
      <rect id="Rectangle_14793" data-name="Rectangle 14793" width="390.431" height="8.169" transform="translate(17.662 399.783)" fill="#313133" opacity="0.1" style="mix-blend-mode: multiply;isolation: isolate"/>
      <rect id="Rectangle_14794" data-name="Rectangle 14794" width="425.753" height="20.782" transform="translate(0 428.735)" fill="#efefef"/>
      <rect id="Rectangle_14795" data-name="Rectangle 14795" width="425.753" height="8.168" transform="translate(0 441.349)" fill="#313133" opacity="0.1" style="mix-blend-mode: multiply;isolation: isolate"/>
      <rect id="Rectangle_14796" data-name="Rectangle 14796" width="389.89" height="45.263" transform="translate(18.202 108.629)" fill="#d8d8d8"/>
      <path id="Path_48070" data-name="Path 48070" d="M980.793,261.87l.035-.012-4.609-16.681h1.606V243.57H961.286v-1.045h-3.37v1.045H941.378v1.608h1.606l-4.61,16.681.036.012h-.037c.638,2.574,3.521,4.517,6.986,4.517,3.435,0,6.3-1.91,6.967-4.45l.039-.012-4.632-16.748h10.184v31.432h-4.9v3.408h13.17v-3.408h-4.9V245.178h10.183l-4.631,16.748.038.012c.672,2.539,3.532,4.45,6.967,4.45,3.464,0,6.349-1.943,6.987-4.517Zm-29.409,0H939.331l4.614-16.692h2.827Zm16.432,0,4.613-16.692h2.826l4.615,16.692Z" transform="translate(-746.565 -204.344)" fill="#a98767"/>
      <g id="Group_17091" data-name="Group 17091" transform="translate(36.077 118.426)">
        <path id="Path_48071" data-name="Path 48071" d="M533.784,462.355h.952l.306,7.815h-1.257a8.361,8.361,0,0,0-2.888-4.688,8.054,8.054,0,0,0-5.164-1.7,8.174,8.174,0,0,0-3.7.815,7.6,7.6,0,0,0-2.752,2.344,11.164,11.164,0,0,0-1.716,3.738,19.249,19.249,0,0,0-.594,5q0,5.471,2.277,8.409a7.835,7.835,0,0,0,6.592,2.939q6.558,0,8.427-6.965h1.393v8.46h-1.189l-.782-2.684a12.9,12.9,0,0,1-8.631,3.024,14.115,14.115,0,0,1-5.215-.918,11.277,11.277,0,0,1-3.976-2.6,11.505,11.505,0,0,1-2.548-4.094,15.236,15.236,0,0,1-.9-5.369,16.017,16.017,0,0,1,.952-5.64,12.965,12.965,0,0,1,2.667-4.384,11.787,11.787,0,0,1,4.111-2.837,13.565,13.565,0,0,1,5.283-1,12.511,12.511,0,0,1,3.839.578,18.353,18.353,0,0,1,3.907,1.869Z" transform="translate(-512.412 -462.015)" fill="#a98767"/>
        <path id="Path_48072" data-name="Path 48072" d="M619.39,462.015a14.619,14.619,0,0,1,5.572,1.054,14.011,14.011,0,0,1,4.485,2.887,13.415,13.415,0,0,1,2.99,4.315,13.225,13.225,0,0,1,1.087,5.369,12.268,12.268,0,0,1-1.1,5.164,13.251,13.251,0,0,1-3.007,4.2,14.247,14.247,0,0,1-4.485,2.82,15.315,15.315,0,0,1-11.077,0,14.234,14.234,0,0,1-4.485-2.82,13.253,13.253,0,0,1-3.007-4.2,12.261,12.261,0,0,1-1.1-5.164,13.219,13.219,0,0,1,1.087-5.369,13.4,13.4,0,0,1,2.99-4.315,14,14,0,0,1,4.485-2.887A14.618,14.618,0,0,1,619.39,462.015Zm0,24.974a9.928,9.928,0,0,0,4.026-.782,8.56,8.56,0,0,0,3.058-2.243,10.063,10.063,0,0,0,1.954-3.551,15.056,15.056,0,0,0,.679-4.672,16.549,16.549,0,0,0-.679-4.91,11.046,11.046,0,0,0-1.937-3.738,8.484,8.484,0,0,0-3.058-2.379,10.235,10.235,0,0,0-8.086,0,8.48,8.48,0,0,0-3.058,2.379,11.028,11.028,0,0,0-1.937,3.738,16.523,16.523,0,0,0-.68,4.91,15.032,15.032,0,0,0,.68,4.672,10.2,10.2,0,0,0,1.937,3.551,8.359,8.359,0,0,0,3.058,2.243A10.05,10.05,0,0,0,619.39,486.989Z" transform="translate(-571.312 -462.015)" fill="#a98767"/>
        <path id="Path_48073" data-name="Path 48073" d="M731.59,478.574a19.026,19.026,0,0,1-.526,4.723,8.279,8.279,0,0,1-1.7,3.4,7.278,7.278,0,0,1-3.041,2.056,13,13,0,0,1-4.519.7,17.306,17.306,0,0,1-4.382-.493,7.352,7.352,0,0,1-3.126-1.631,6.826,6.826,0,0,1-1.869-2.973,14.432,14.432,0,0,1-.612-4.519v-8.97q0-2.514-.119-3.873a3.413,3.413,0,0,0-.7-2,2.06,2.06,0,0,0-1.1-.595,8.974,8.974,0,0,0-1.852-.153v-1.291H719.63v1.291a10.381,10.381,0,0,0-1.869.136,1.758,1.758,0,0,0-1.121.68,3.847,3.847,0,0,0-.612,1.953q-.137,1.342-.136,3.856V480.1a11.982,11.982,0,0,0,.357,3.075,5.577,5.577,0,0,0,1.172,2.276,5.03,5.03,0,0,0,2.123,1.41,9.444,9.444,0,0,0,3.21.476,6.518,6.518,0,0,0,5.1-1.886,8.051,8.051,0,0,0,1.7-5.555V471.71a32.909,32.909,0,0,0-.238-4.587,3.946,3.946,0,0,0-.883-2.209,2.253,2.253,0,0,0-1.189-.561,11.049,11.049,0,0,0-1.767-.119v-1.291h9.853v1.291a7.747,7.747,0,0,0-1.784.17,1.849,1.849,0,0,0-1.1.748,4.83,4.83,0,0,0-.679,2.225,41.473,41.473,0,0,0-.17,4.332Z" transform="translate(-636.521 -462.604)" fill="#a98767"/>
        <path id="Path_48074" data-name="Path 48074" d="M828.966,469.5a6.478,6.478,0,0,1-1.631,4.519,8.806,8.806,0,0,1-5.2,2.413l7.509,9.038a5.571,5.571,0,0,0,2.021,1.614,10.4,10.4,0,0,0,2.634.73v1.291h-6.558l-8.324-10.669a6.365,6.365,0,0,0-.832-.917,3.269,3.269,0,0,0-.816-.527,3.142,3.142,0,0,0-.985-.238q-.56-.052-1.343-.051v7.067a11.3,11.3,0,0,0,.154,2.055,2.14,2.14,0,0,0,.645,1.24,2.76,2.76,0,0,0,1.427.595,15.915,15.915,0,0,0,2.463.153v1.291H808.138v-1.291a9.983,9.983,0,0,0,1.92-.2,2.306,2.306,0,0,0,1.138-.578,2.13,2.13,0,0,0,.544-1.155,11.3,11.3,0,0,0,.136-1.937V468.108a12.369,12.369,0,0,0-.119-1.919,2.357,2.357,0,0,0-.475-1.155,1.827,1.827,0,0,0-1.037-.577,11.612,11.612,0,0,0-1.766-.221v-1.291h10.669q4.689,0,7.255,1.733A5.507,5.507,0,0,1,828.966,469.5Zm-13.523,5.5h2.413a8.373,8.373,0,0,0,5.045-1.24,4.794,4.794,0,0,0,1.648-4.094,5.112,5.112,0,0,0-1.308-3.941,5.956,5.956,0,0,0-4.094-1.189H816.02a.511.511,0,0,0-.578.578Z" transform="translate(-700.021 -462.604)" fill="#a98767"/>
        <path id="Path_48075" data-name="Path 48075" d="M921.492,469.434H920.1a8.63,8.63,0,0,0-.476-2.447,3.553,3.553,0,0,0-1.069-1.546,4.245,4.245,0,0,0-1.75-.8,11.555,11.555,0,0,0-2.515-.238q-1.257,0-2.021.052a4.928,4.928,0,0,0-1.172.187.978.978,0,0,0-.526.322.9.9,0,0,0-.119.493v18.178a9.867,9.867,0,0,0,.152,1.869,2.538,2.538,0,0,0,.611,1.274,2.877,2.877,0,0,0,1.326.748,9.148,9.148,0,0,0,2.293.289v1.291H901.989v-1.291a9.369,9.369,0,0,0,2.31-.289,2.883,2.883,0,0,0,1.343-.748,2.531,2.531,0,0,0,.611-1.274,9.825,9.825,0,0,0,.153-1.869V465.459a.907.907,0,0,0-.119-.493.944.944,0,0,0-.475-.322,3.759,3.759,0,0,0-1-.187q-.646-.052-1.733-.052-1.325,0-2.464.1a4.625,4.625,0,0,0-1.97.594,3.528,3.528,0,0,0-1.342,1.512,6.681,6.681,0,0,0-.543,2.82H895.5v-6.49h25.653Z" transform="translate(-755.443 -462.604)" fill="#a98767"/>
        <path id="Path_48076" data-name="Path 48076" d="M1058.048,483.7a12.9,12.9,0,0,0,.137,2.09,2.348,2.348,0,0,0,.527,1.223,2.123,2.123,0,0,0,1.121.595,9.978,9.978,0,0,0,1.92.2v1.291h-11.009v-1.291a9.975,9.975,0,0,0,1.92-.2,2.308,2.308,0,0,0,1.139-.578,2.121,2.121,0,0,0,.544-1.155,11.291,11.291,0,0,0,.136-1.937v-7.373H1040.72V483.7a13.015,13.015,0,0,0,.136,2.09,2.339,2.339,0,0,0,.528,1.223,2.124,2.124,0,0,0,1.121.595,9.951,9.951,0,0,0,1.92.2v1.291h-11.01v-1.291a9.961,9.961,0,0,0,1.92-.2,2.311,2.311,0,0,0,1.139-.578,2.13,2.13,0,0,0,.544-1.155,11.2,11.2,0,0,0,.135-1.937V468.108a12.578,12.578,0,0,0-.118-1.919,2.356,2.356,0,0,0-.476-1.155,1.83,1.83,0,0,0-1.036-.577,11.635,11.635,0,0,0-1.766-.221v-1.291h10.328v1.291a8.352,8.352,0,0,0-1.75.2,1.853,1.853,0,0,0-1.019.612,2.525,2.525,0,0,0-.476,1.223,14.3,14.3,0,0,0-.119,2.073v6.524h13.761v-6.762a12.417,12.417,0,0,0-.119-1.919,2.364,2.364,0,0,0-.475-1.155,1.828,1.828,0,0,0-1.037-.577,11.614,11.614,0,0,0-1.767-.221v-1.291h10.329v1.291a8.368,8.368,0,0,0-1.75.2,1.85,1.85,0,0,0-1.018.612,2.516,2.516,0,0,0-.477,1.223,14.351,14.351,0,0,0-.119,2.073Z" transform="translate(-842.937 -462.604)" fill="#a98767"/>
        <path id="Path_48077" data-name="Path 48077" d="M1151.919,462.015a14.619,14.619,0,0,1,5.572,1.054,14.025,14.025,0,0,1,4.486,2.887,13.419,13.419,0,0,1,2.989,4.315,13.216,13.216,0,0,1,1.087,5.369,12.26,12.26,0,0,1-1.1,5.164,13.263,13.263,0,0,1-3.007,4.2,14.231,14.231,0,0,1-4.485,2.82,15.317,15.317,0,0,1-11.077,0A14.241,14.241,0,0,1,1141.9,485a13.253,13.253,0,0,1-3.007-4.2,12.261,12.261,0,0,1-1.1-5.164,13.213,13.213,0,0,1,1.088-5.369,13.414,13.414,0,0,1,2.99-4.315,14,14,0,0,1,4.485-2.887A14.615,14.615,0,0,1,1151.919,462.015Zm0,24.974a9.93,9.93,0,0,0,4.026-.782,8.558,8.558,0,0,0,3.058-2.243,10.044,10.044,0,0,0,1.954-3.551,15.064,15.064,0,0,0,.68-4.672,16.559,16.559,0,0,0-.68-4.91,11.027,11.027,0,0,0-1.937-3.738,8.48,8.48,0,0,0-3.057-2.379,10.237,10.237,0,0,0-8.087,0,8.483,8.483,0,0,0-3.057,2.379,11.011,11.011,0,0,0-1.937,3.738,16.527,16.527,0,0,0-.68,4.91,15.035,15.035,0,0,0,.68,4.672,10.184,10.184,0,0,0,1.937,3.551,8.362,8.362,0,0,0,3.057,2.243A10.05,10.05,0,0,0,1151.919,486.989Z" transform="translate(-909.149 -462.015)" fill="#a98767"/>
        <path id="Path_48078" data-name="Path 48078" d="M1264.121,478.574a19,19,0,0,1-.527,4.723,8.284,8.284,0,0,1-1.7,3.4,7.291,7.291,0,0,1-3.041,2.056,13,13,0,0,1-4.52.7,17.311,17.311,0,0,1-4.383-.493,7.349,7.349,0,0,1-3.125-1.631,6.825,6.825,0,0,1-1.869-2.973,14.423,14.423,0,0,1-.611-4.519v-8.97q0-2.514-.12-3.873a3.409,3.409,0,0,0-.7-2,2.06,2.06,0,0,0-1.1-.595,8.978,8.978,0,0,0-1.852-.153v-1.291h11.586v1.291a10.363,10.363,0,0,0-1.868.136,1.758,1.758,0,0,0-1.122.68,3.851,3.851,0,0,0-.612,1.953q-.136,1.342-.135,3.856V480.1a12.015,12.015,0,0,0,.357,3.075,5.576,5.576,0,0,0,1.172,2.276,5.035,5.035,0,0,0,2.124,1.41,9.443,9.443,0,0,0,3.211.476,6.516,6.516,0,0,0,5.1-1.886,8.054,8.054,0,0,0,1.7-5.555V471.71a32.966,32.966,0,0,0-.238-4.587,3.95,3.95,0,0,0-.883-2.209,2.251,2.251,0,0,0-1.189-.561,11.05,11.05,0,0,0-1.767-.119v-1.291h9.853v1.291a7.746,7.746,0,0,0-1.784.17,1.848,1.848,0,0,0-1.1.748,4.829,4.829,0,0,0-.68,2.225,41.74,41.74,0,0,0-.169,4.332Z" transform="translate(-974.36 -462.604)" fill="#a98767"/>
        <path id="Path_48079" data-name="Path 48079" d="M1341.317,480.533h1.258a8.475,8.475,0,0,0,.9,2.752,7.129,7.129,0,0,0,1.665,2.073,7.228,7.228,0,0,0,2.31,1.308,8.516,8.516,0,0,0,2.837.458,6.113,6.113,0,0,0,3.975-1.189,3.94,3.94,0,0,0,1.461-3.227,3.821,3.821,0,0,0-1.258-2.939,8.854,8.854,0,0,0-1.818-1.309,30.367,30.367,0,0,0-2.871-1.393,31.972,31.972,0,0,1-3.534-1.767,10.154,10.154,0,0,1-2.276-1.767,5.509,5.509,0,0,1-1.207-1.954,7.245,7.245,0,0,1-.357-2.362,7.331,7.331,0,0,1,.561-2.888,6.751,6.751,0,0,1,1.58-2.294,7.1,7.1,0,0,1,2.412-1.5,8.592,8.592,0,0,1,3.058-.526,8.012,8.012,0,0,1,2.786.476,9.585,9.585,0,0,1,2.616,1.529l.884-1.529h.781l.373,6.762H1356.2a8.58,8.58,0,0,0-2.361-4.145,5.443,5.443,0,0,0-3.72-1.359,4.991,4.991,0,0,0-3.3,1.019,3.4,3.4,0,0,0-1.223,2.752,3.85,3.85,0,0,0,.272,1.478,3.741,3.741,0,0,0,.884,1.258,8.825,8.825,0,0,0,1.6,1.189,21.75,21.75,0,0,0,2.446,1.24,44.572,44.572,0,0,1,4.179,2.09,13.437,13.437,0,0,1,2.65,1.936,5.758,5.758,0,0,1,1.392,2.039,6.679,6.679,0,0,1,.409,2.4,7.11,7.11,0,0,1-2.583,5.572,8.817,8.817,0,0,1-2.922,1.58,11.868,11.868,0,0,1-3.738.561,10.462,10.462,0,0,1-3.482-.544,10.7,10.7,0,0,1-3.143-1.835l-.952,1.665h-.782Z" transform="translate(-1038.271 -462.015)" fill="#a98767"/>
        <path id="Path_48080" data-name="Path 48080" d="M1425.945,474.735a17.908,17.908,0,0,0,3.075-.221,5.318,5.318,0,0,0,1.97-.7,2.742,2.742,0,0,0,1.054-1.223,4.432,4.432,0,0,0,.322-1.767h1.19V480.1h-1.19a4.9,4.9,0,0,0-.288-1.767,2.631,2.631,0,0,0-1.019-1.24,5.521,5.521,0,0,0-1.972-.748,16.051,16.051,0,0,0-3.143-.255v7.679a5.338,5.338,0,0,0,.272,1.851,2.466,2.466,0,0,0,.934,1.189,4.337,4.337,0,0,0,1.75.646,16.2,16.2,0,0,0,2.684.187,15.653,15.653,0,0,0,3.058-.255,5.407,5.407,0,0,0,2.107-.867,4.416,4.416,0,0,0,1.359-1.613,10.928,10.928,0,0,0,.849-2.5h1.291l-.51,6.694h-21.1v-1.291a9.975,9.975,0,0,0,1.92-.2,2.312,2.312,0,0,0,1.139-.578,2.128,2.128,0,0,0,.543-1.155,11.289,11.289,0,0,0,.136-1.937V468.108a12.353,12.353,0,0,0-.119-1.919,2.348,2.348,0,0,0-.475-1.155,1.829,1.829,0,0,0-1.036-.577,11.624,11.624,0,0,0-1.767-.221v-1.291h19.64l.306,5.98h-1.189a6.993,6.993,0,0,0-.662-2.225,3.6,3.6,0,0,0-1.258-1.376,5.381,5.381,0,0,0-2.022-.713,18.25,18.25,0,0,0-2.956-.2h-4.315a.511.511,0,0,0-.578.578Z" transform="translate(-1087.325 -462.604)" fill="#a98767"/>
      </g>
      <g id="Group_17092" data-name="Group 17092" transform="translate(112.056 194.866)">
        <rect id="Rectangle_14797" data-name="Rectangle 14797" width="3.96" height="175.849" transform="translate(0)" fill="#efefef"/>
        <rect id="Rectangle_14798" data-name="Rectangle 14798" width="3.96" height="175.849" transform="translate(9.908)" fill="#efefef"/>
        <rect id="Rectangle_14799" data-name="Rectangle 14799" width="3.961" height="175.849" transform="translate(19.814)" fill="#efefef"/>
        <rect id="Rectangle_14800" data-name="Rectangle 14800" width="3.961" height="175.849" transform="translate(29.721)" fill="#efefef"/>
      </g>
      <g id="Group_17093" data-name="Group 17093" transform="translate(280.065 194.866)">
        <rect id="Rectangle_14801" data-name="Rectangle 14801" width="3.96" height="175.849" fill="#efefef"/>
        <rect id="Rectangle_14802" data-name="Rectangle 14802" width="3.96" height="175.849" transform="translate(9.907)" fill="#efefef"/>
        <rect id="Rectangle_14803" data-name="Rectangle 14803" width="3.96" height="175.849" transform="translate(19.815)" fill="#efefef"/>
        <rect id="Rectangle_14804" data-name="Rectangle 14804" width="3.961" height="175.849" transform="translate(29.721)" fill="#efefef"/>
      </g>
      <g id="Group_17094" data-name="Group 17094" transform="translate(355.178 194.866)">
        <rect id="Rectangle_14805" data-name="Rectangle 14805" width="3.961" height="175.849" fill="#efefef"/>
        <rect id="Rectangle_14806" data-name="Rectangle 14806" width="3.96" height="175.849" transform="translate(9.908)" fill="#efefef"/>
        <rect id="Rectangle_14807" data-name="Rectangle 14807" width="3.961" height="175.849" transform="translate(19.814)" fill="#efefef"/>
        <rect id="Rectangle_14808" data-name="Rectangle 14808" width="3.96" height="175.849" transform="translate(29.722)" fill="#efefef"/>
      </g>
      <rect id="Rectangle_14809" data-name="Rectangle 14809" width="43.039" height="6.62" transform="translate(107.378 194.866)" fill="#313133" opacity="0.1" style="mix-blend-mode: multiply;isolation: isolate"/>
      <rect id="Rectangle_14810" data-name="Rectangle 14810" width="56.105" height="6.62" transform="translate(100.845 178.413)" fill="#313133" opacity="0.1" style="mix-blend-mode: multiply;isolation: isolate"/>
      <rect id="Rectangle_14811" data-name="Rectangle 14811" width="43.04" height="6.62" transform="translate(275.385 194.866)" fill="#313133" opacity="0.1" style="mix-blend-mode: multiply;isolation: isolate"/>
      <rect id="Rectangle_14812" data-name="Rectangle 14812" width="56.105" height="6.62" transform="translate(268.853 178.413)" fill="#313133" opacity="0.1" style="mix-blend-mode: multiply;isolation: isolate"/>
      <rect id="Rectangle_14813" data-name="Rectangle 14813" width="43.04" height="6.62" transform="translate(350.499 194.866)" fill="#313133" opacity="0.1" style="mix-blend-mode: multiply;isolation: isolate"/>
      <rect id="Rectangle_14814" data-name="Rectangle 14814" width="56.104" height="6.62" transform="translate(343.967 178.413)" fill="#313133" opacity="0.1" style="mix-blend-mode: multiply;isolation: isolate"/>
      <rect id="Rectangle_14815" data-name="Rectangle 14815" width="389.89" height="1.971" transform="translate(18.202 108.629)" fill="#313133" opacity="0.1" style="mix-blend-mode: multiply;isolation: isolate"/>
      <path id="Path_48081" data-name="Path 48081" d="M657.964,390.46H475.756l-12.848,6.506H853.022l-12.848-6.506Z" transform="translate(-444.93 -298.195)" fill="#313133" opacity="0.1" style="mix-blend-mode: multiply;isolation: isolate"/>
      <rect id="Rectangle_14816" data-name="Rectangle 14816" width="13.135" height="30.474" transform="translate(156.252 201.486)" fill="#412e28"/>
      <rect id="Rectangle_14817" data-name="Rectangle 14817" width="13.135" height="30.474" transform="translate(189.624 201.486)" fill="#412e28"/>
      <rect id="Rectangle_14818" data-name="Rectangle 14818" width="13.134" height="30.474" transform="translate(222.995 201.486)" fill="#412e28"/>
      <rect id="Rectangle_14819" data-name="Rectangle 14819" width="13.135" height="30.474" transform="translate(256.367 201.486)" fill="#412e28"/>
      <rect id="Rectangle_14820" data-name="Rectangle 14820" width="13.136" height="30.474" transform="translate(327.654 201.486)" fill="#412e28"/>
      <rect id="Rectangle_14821" data-name="Rectangle 14821" width="13.135" height="30.474" transform="translate(84.699 201.486)" fill="#412e28"/>
      <path id="Path_48082" data-name="Path 48082" d="M953.405,857.018H858.172v124.33H958.953V857.018Z" transform="translate(-695.686 -594.18)" fill="#313133" opacity="0.2" style="mix-blend-mode: multiply;isolation: isolate"/>
    </g>
    <g id="Group_14532" data-name="Group 14532" transform="translate(1055.134 398.014)">
      <g id="Group_14530" data-name="Group 14530" transform="translate(59.429 0)">
        <path id="Path_40244" data-name="Path 40244" d="M850.3,666.932A29.765,29.765,0,0,0,880.061,696.7h0a29.766,29.766,0,0,0,29.766-29.766v-91.25a29.768,29.768,0,0,0-29.766-29.766h0A29.766,29.766,0,0,0,850.3,575.682Z" transform="translate(-850.297 -545.916)" fill="#4c9181"/>
        <path id="Path_40245" data-name="Path 40245" d="M877.177,545.961a29.766,29.766,0,0,1,28.051,29.714v91.25a29.766,29.766,0,0,1-28.051,29.714Z" transform="translate(-845.698 -545.908)" fill="#0e755d"/>
        <g id="Group_14529" data-name="Group 14529" transform="translate(7.969 91.152)">
          <path id="Path_40246" data-name="Path 40246" d="M891.921,627.773,879.1,653.608V623.749h-2.436v43.9L857.1,649.488v3l19.561,18.438v47.642h2.716V658.753l14.226-28.827Z" transform="translate(-857.102 -623.749)" fill="#241d21"/>
        </g>
      </g>
      <g id="Group_14531" data-name="Group 14531" transform="translate(0 51.909)">
        <path id="Path_40247" data-name="Path 40247" d="M799.551,629.42c0,21.636,14.117,39.181,31.531,39.181s31.528-17.545,31.528-39.181-14.113-39.18-31.528-39.18S799.551,607.778,799.551,629.42Z" transform="translate(-799.551 -590.24)" fill="#0e755d"/>
        <rect id="Rectangle_13640" data-name="Rectangle 13640" width="3.608" height="81.202" transform="translate(33.334 134.059) rotate(180)" fill="#241d21"/>
        <path id="Path_40248" data-name="Path 40248" d="M858,629.42c0,21.636-14.117,39.181-31.528,39.181V590.24C843.886,590.24,858,607.778,858,629.42Z" transform="translate(-794.944 -590.24)" opacity="0.214"/>
      </g>
    </g>
  </g>
</svg>
