<?xml version="1.0" encoding="utf-8"?>
<!-- Generator: Adobe Illustrator 24.1.2, SVG Export Plug-In . SVG Version: 6.00 Build 0)  -->
<svg version="1.1" id="Слой_1" xmlns="http://www.w3.org/2000/svg" xmlns:xlink="http://www.w3.org/1999/xlink" x="0px" y="0px"
	 width="48px" height="48px" viewBox="0 0 48 48" style="enable-background:new 0 0 48 48;" xml:space="preserve">
<style type="text/css">
	.st0{fill:#0E6C75;}
</style>
<g id="Group_13175" transform="translate(218 597)">
	<path id="Path_13" class="st0" d="M-210.8-589.8c4.3-4.7,10.4-7.4,16.8-7.2c6.4-0.2,12.5,2.5,16.8,7.2c4.7,4.3,7.4,10.4,7.2,16.8
		c0.2,6.4-2.5,12.5-7.2,16.8c-4.3,4.7-10.4,7.4-16.8,7.2c-6.4,0.2-12.5-2.5-16.8-7.2c-4.5-4.4-7.1-10.5-7.2-16.8
		C-218.2-579.4-215.5-585.5-210.8-589.8z M-183.2-562.2l2.8-2.8l-10-10l-3.6-16h-4v18c0,1.1,0.4,2.1,1.2,2.8
		c0.2,0.2,0.5,0.4,0.8,0.4L-183.2-562.2z"/>
</g>
</svg>
