<svg xmlns="http://www.w3.org/2000/svg" xmlns:xlink="http://www.w3.org/1999/xlink" width="527.419" height="281.82" viewBox="0 0 527.419 281.82">
  <defs>
    <clipPath id="clip-path">
      <path id="Path_49287" data-name="Path 49287" d="M1294.777,1516.453s258.866-8.615,221.885,83.28c-34.632,86.057-89.811,163.688-200.754,169.431S977.8,1674.4,993.647,1614.092,1136.288,1516.453,1294.777,1516.453Z" transform="translate(-992.859 -1516.238)" fill="none"/>
    </clipPath>
    <radialGradient id="radial-gradient" cx="0.597" cy="0.213" r="0.764" gradientTransform="matrix(-0.625, 0, 0, 0.938, -6.711, 0.149)" gradientUnits="objectBoundingBox">
      <stop offset="0" stop-color="#ffeceb"/>
      <stop offset="1" stop-color="#ffeceb"/>
    </radialGradient>
    <linearGradient id="linear-gradient" x1="0.53" y1="0.793" x2="0.489" y2="0.139" gradientUnits="objectBoundingBox">
      <stop offset="0" stop-color="#0e6c75"/>
      <stop offset="1" stop-color="#40c0cc"/>
    </linearGradient>
    <linearGradient id="linear-gradient-2" x1="0.536" y1="1.001" x2="0.385" y2="-1.022" gradientUnits="objectBoundingBox">
      <stop offset="0" stop-color="#0e6c75"/>
      <stop offset="0.188" stop-color="#1fa4b1"/>
      <stop offset="0.333" stop-color="#54cbd6"/>
      <stop offset="1" stop-color="#ffc2c2"/>
    </linearGradient>
    <linearGradient id="linear-gradient-3" x1="0.555" y1="0.895" x2="0.497" y2="0.177" gradientUnits="objectBoundingBox">
      <stop offset="0" stop-color="#0d6a72"/>
      <stop offset="1" stop-color="#8acad0"/>
    </linearGradient>
  </defs>
  <g id="Group_20600" data-name="Group 20600" transform="translate(-1309 -921.986)">
    <g id="Group_17731" data-name="Group 17731" transform="translate(1309 946.413)">
      <g id="Group_17452" data-name="Group 17452" transform="translate(0 0)">
        <g id="Group_17451" data-name="Group 17451" clip-path="url(#clip-path)">
          <g id="Group_17450" data-name="Group 17450" transform="translate(-4.484 -8.097)">
            <rect id="Rectangle_15336" data-name="Rectangle 15336" width="629.963" height="268.25" fill="url(#radial-gradient)"/>
          </g>
        </g>
      </g>
    </g>
    <g id="Group_17614" data-name="Group 17614" transform="translate(1341.655 921.986)">
      <g id="Group_17613" data-name="Group 17613" transform="translate(0 0)">
        <path id="Path_49921" data-name="Path 49921" d="M309.662,357.271v1.053a16.927,16.927,0,0,1-.927,6.065q-2.653,1.558-8.128,5.138a79.588,79.588,0,0,1-7.96,5.054q-6.106,3.411-10.739,3.243a25.061,25.061,0,0,0-7.96-.421q-1.348.083-6.654,3.116-3.243,1.853-4.633,2.653a11.71,11.71,0,0,1-4.633,1.39q-2.695.083-3.411-1.853l-.168-1.9q-.168-2.484,5.686-7.791a87.341,87.341,0,0,1,13.9-10.15q21.058-12.676,31.712-8.928A31.821,31.821,0,0,1,309.662,357.271ZM325.413,327.5q-3.074,1.222-7.875,3.032-14.4,5.18-16.341,7.623-1.222,2.611-2.358,4.8a10.538,10.538,0,0,0-2.022,1.643,29.879,29.879,0,0,1-3.032,2.99,7.232,7.232,0,0,1-4.211,1.221q-3.749-.085-4.548-2.106-.253-2.063-.253-2.19.168-5.223,6.654-10.4a46.277,46.277,0,0,1,14.151-7.581q8.3-2.821,13.982-2.274Q324.19,324.759,325.413,327.5Zm-9.771-28.175a36.136,36.136,0,0,1-5.6,5.98,14.712,14.712,0,0,1-1.39,1.306q-3.622,3.117-6.149,3.664h-.253q-4.085.589-5.685-2.443-.884-2.991-.884-2.822-.168-1.011,1.685-5.222l.253-.463a.917.917,0,0,1,.168-.337,58.884,58.884,0,0,1,2.99-5.433q.253-.421.59-.927.547-.8,1.137-1.685,8.591-11.624,17.393-7.833,2.906,3.453,9.729,10.908,1.305,1.727,2.443,3.159-.464-.3-.969-.632-5.265-3.749-7.96-3.327Q321.117,293.467,315.642,299.321Zm54.876,32.639h-.548a25.342,25.342,0,0,0-5.643.337q-3.411.673-16.256,17.646-5.77,7.539-9.1,11.876a70.335,70.335,0,0,1,3.748-8.634,131.234,131.234,0,0,1,11.539-18.362q7.413-9.938,12.592-12.508,6.359-3.116,8.128,5.18.421,2.19-.632,3.117a.074.074,0,0,0-.084.084l-2.527,1.053A12.255,12.255,0,0,1,370.518,331.96Zm113.626-33.4q.421-1.516.927-2.822a6.632,6.632,0,0,1,.253-1.011l2.064-5.559a33.9,33.9,0,0,1,3.917-7.244q.505-.716,1.053-1.39.927-.337,1.769-.59-1.263,2.821-1.937,4.422-1.39,2.063-2.653,3.959-2.485,4-2.485,5.222l.253,1.011a2.106,2.106,0,0,0,1.979,1.011q1.347,0,6.065-5.012.59.758,2.737,3.917,2.022,2.821,3.411,2.822.673,0,9.476-8.8.59-.673,7.623-4.38,2.653-1.348,4.169-2.274,1.222.673,2.737,1.6a23.263,23.263,0,0,0-12.971,20.763q0,.884.842,6.7a9.171,9.171,0,0,1-1.558,4.169.245.245,0,0,0-.084.169q-2.274,3.79-5.98,3.79a12.014,12.014,0,0,1-8-3.369,4.792,4.792,0,0,1-.379-.337,11.794,11.794,0,0,0-7.665-3.074,17.121,17.121,0,0,0-5.475.716,14.706,14.706,0,0,1-2.737.59h-.421a5.778,5.778,0,0,1-4.211-1.811,13.2,13.2,0,0,1,1.979-5.054q.758-1.011,1.432-1.853A33.766,33.766,0,0,0,484.144,298.563Zm37.1-55.128a23.738,23.738,0,0,0-4.127-6.907,1.311,1.311,0,0,1-.253-.337,1.394,1.394,0,0,1-.168-.211,30.7,30.7,0,0,0-4-2.906,20.528,20.528,0,0,0-2.822-1.432,2.862,2.862,0,0,1,.674-.758,7.564,7.564,0,0,1,3.664-2.232,9.174,9.174,0,0,1,2.148-.253,8.412,8.412,0,0,1,8.212,7.581v.716a8.2,8.2,0,0,1-2.4,5.9Q521.753,243.013,521.247,243.435Zm7.791,42.073a2.928,2.928,0,0,0-.716.084,1.063,1.063,0,0,1,.421-.253A.9.9,0,0,0,529.038,285.508ZM485.323,333.14a1.987,1.987,0,0,0-.084-.548q-.422-2.022-1.516-6.654v-.084a4.864,4.864,0,0,0-.253-2.99q8.718.169,13.056,1.9,10.108,4,10.108,16.3a20.311,20.311,0,0,1-1.221,6.359q-3.664,1.431-5.307,1.937-10.655,3.328-17.857-1.6a17.71,17.71,0,0,0,3.243-7.033A15.034,15.034,0,0,0,485.323,333.14Z" transform="translate(-254.444 -227.191)" fill="#e4b62c" fill-rule="evenodd"/>
        <path id="Path_49922" data-name="Path 49922" d="M378.829,344.088a34.433,34.433,0,0,1-4.97.59q-3.5,6.022-2.99,14.53.2,2.876.653,7.539l-4.654.8a11.321,11.321,0,0,0-5.054,1.811,9.212,9.212,0,0,0-3.5,4,20.733,20.733,0,0,0-1.811,12.508,21.591,21.591,0,0,0,2.78,7.707q-.318,1.172-.547,2.485-.3,2.442-.716,7.454-.969,8.3-1.558,22.279V427.1q-.126,2.022-.126,4.211a5.873,5.873,0,0,0-.084.969v.505q-1.474.253-3.032.505.083-1.39.168-2.443.085-3.327.084-4.254v-1.306q.168-3.538,1.306-15.33,1.474-13.183.969-15.709-.716-3.159-4.548-8.212-3.749-5.1-4.548-8.591a8.591,8.591,0,0,1,.632-3.5q3.327-4.339,9.1-11.876,12.845-16.972,16.256-17.646a25.346,25.346,0,0,1,5.643-.337Zm-43.547,82.04q.379,2.022.969,4.127.421,1.811.8,3.664l-2.611-.168q-.379-1.684-.8-3.327-.464-2.191-.969-4.127a7.647,7.647,0,0,1-.337-1.39q-7.875-32.134-10.234-39.167-2.906-8.465-4.3-9.434a4.923,4.923,0,0,0-.758.211,16.926,16.926,0,0,0,.927-6.065V369.4a29.6,29.6,0,0,1,6.823,12.592q.8,2.653,2.022,8.591.884,3.581,8.128,34.155A7.656,7.656,0,0,0,335.283,426.127Zm3.5,7.791q-.337-1.853-.674-3.664-.3-2.19-.632-4.211-.168-.758-.253-1.39-5.265-32.68-6.107-36.345-2.359-11.2-4.8-22.91-2.653-11.876-9.981-12.34a14.18,14.18,0,0,0-9.181,2.022q1.137-2.19,2.358-4.8,1.937-2.442,16.34-7.623,4.8-1.81,7.876-3.032a4.88,4.88,0,0,1,.421,2.443q-.085,2.695-2.948,6.654-3.074,4.085-3.074,4.717-.085,1.98,2.906,21.31,1.642,10.909,8.465,49.822a11.155,11.155,0,0,1,.253,1.39q.379,2.106.8,4.212.253,1.9.674,3.748h-2.443Zm4.633-9.265q-.843-47.126-3.5-65.025-3.117-20.468-4.338-28.512-.126-1.305-3.5-7.244a144.857,144.857,0,0,0-8.128-12.424q5.474-5.854,7.5-6.107,2.695-.421,7.96,3.327.505.336.969.632a21.147,21.147,0,0,1,3.832,8.044q.253,2.063-2.19,4.97a8.477,8.477,0,0,0-2.274,6.907q.083,1.9.168,5.306.211,3.411.295,5.1,1.642,15.708,2.527,21.31,1.305,8.128,2.106,20.973.336,4.464,1.558,42.831a12.581,12.581,0,0,0,.084,1.39q0,2.022.084,4.211.085,1.726.168,3.5-1.559,0-3.159.084-.085-1.853-.084-3.664,0-2.19-.084-4.211Z" transform="translate(-262.756 -239.318)" fill="#0e755d" fill-rule="evenodd"/>
        <path id="Path_49923" data-name="Path 49923" d="M340.529,456.249h4.8q1.6-.083,3.159-.084,3.495-.253,6.486-.547,1.558-.253,3.032-.505a.516.516,0,0,1,.295-.084,22.218,22.218,0,0,0,3.2-.632q2.738-.841,3.243-1.727a.643.643,0,0,0,.084-.253v-.295q-.253-1.642-6.528-2.7h-.084v-1.306q1.011.168,1.9.337,6.906,1.516,7.16,3.664v.295a.947.947,0,0,1-.084.421q-.59,1.222-3.58,2.274a34.942,34.942,0,0,1-3.5.969q-1.052.253-2.106.421-1.475.253-3.032.463-3.075.336-6.486.505l-3.159.168h-6.191q-1.305-.085-2.527-.168a71.586,71.586,0,0,1-11.2-1.39,27.391,27.391,0,0,1-3.327-.969q-3.2-1.054-3.748-2.358a1.582,1.582,0,0,1-.084-.505v-.211q.464-2.106,7.16-3.58a65.172,65.172,0,0,1,8.676-1.221,7.651,7.651,0,0,0,.337,1.39,60.332,60.332,0,0,0-7.328.8q-6.023,1.053-6.4,2.611v.211a.741.741,0,0,0,.084.337q.464.969,3.243,1.811a26.864,26.864,0,0,0,3.074.632,86.908,86.908,0,0,0,9.1,1.053l2.611.168Zm-1.306-7.875q-1.137,0-2.19.084a7.655,7.655,0,0,1-.337-1.39q1.052-.085,2.274-.084Q339.054,447.616,339.223,448.374Zm8.928-1.306q3.832.168,7.075.548v1.306q-3.243-.379-6.991-.463A12.581,12.581,0,0,1,348.152,447.068Zm-2.99-.084v1.39q-1.222-.085-2.443-.084H341.5a11.149,11.149,0,0,0-.253-1.39h1.474Q343.94,446.9,345.161,446.984Z" transform="translate(-264.507 -261.649)" fill="#c2edf6" fill-rule="evenodd"/>
        <path id="Path_49924" data-name="Path 49924" d="M363.118,488.721l-.8,6.738q-.253,1.812-5.938,3.032a66.7,66.7,0,0,1-13.645,1.221,77.805,77.805,0,0,1-10.023-.59q-1.853-.253-3.5-.632-5.686-1.22-5.9-3.032l-.758-6.57-4.211-35.04q.547,1.307,3.748,2.358a27.4,27.4,0,0,0,3.327.969,71.58,71.58,0,0,0,11.2,1.39q1.222.085,2.527.168h6.191l3.159-.168q3.411-.169,6.486-.505,1.558-.21,3.032-.463,1.052-.168,2.106-.421a34.934,34.934,0,0,0,3.5-.969q2.991-1.054,3.58-2.274Z" transform="translate(-264.523 -262.745)" fill="#75cc96" fill-rule="evenodd"/>
        <path id="Path_49925" data-name="Path 49925" d="M335.848,453.014a75.268,75.268,0,0,0-8.3.884q-1.685.337-3.074.758-2.78-.841-3.243-1.811a.741.741,0,0,1-.084-.337V452.3q.379-1.558,6.4-2.611a60.32,60.32,0,0,1,7.328-.8Q335.385,450.824,335.848,453.014Zm233.064,37.251q-.609.053-1.263.105-.712.064-1.474.126l-.189.021c-.094.006-.186.013-.274.021q-2.906.168-6.065.168h-1.053a88.416,88.416,0,0,1-16.425-1.306,21,21,0,0,1-3.327-.674q-2.906-.843-3.411-1.811a.642.642,0,0,1-.084-.253v-.337q.253-1.685,6.823-2.822a114.972,114.972,0,0,1,32.85,0q6.317,1.137,6.738,2.737v.253a.748.748,0,0,1-.084.337.978.978,0,0,1-.169.253,2.083,2.083,0,0,1-.674.632,14.96,14.96,0,0,1-2.485,1.011h-.084a22.666,22.666,0,0,1-3.243.674q-2.485.505-5.391.8c-.105.01-.211.017-.316.021ZM361.959,454.657a24.758,24.758,0,0,0-3.2-.758h-.211q0-2.19.126-4.212h.084q6.276,1.053,6.528,2.7v.295a.642.642,0,0,1-.084.253Q364.7,453.814,361.959,454.657Zm-13.266-5.938q3.749.083,6.991.463,0,.926-.084,4.254a62.6,62.6,0,0,0-6.823-.505Q348.693,450.74,348.693,448.718Zm-5.938,4.043q-.421-2.1-.8-4.211h1.221q1.222,0,2.443.084.085,2.021.084,4.211-1.222-.085-2.527-.084Zm-4.3.084q-.59-2.106-.969-4.127,1.052-.083,2.19-.084.336,2.021.632,4.211Z" transform="translate(-264.964 -261.909)" fill="#a7c4e4" fill-rule="evenodd"/>
        <path id="Path_49926" data-name="Path 49926" d="M578.592,470.955l33.945,5.98,1.179,4.8a4.316,4.316,0,0,0,2.148,2.822,4.52,4.52,0,0,0,3.5.59A4.714,4.714,0,0,0,622.265,483a4.2,4.2,0,0,0,.505-3.58l-.168-.674,16.677,2.906q11.876,2.063,6.865,2.906l-70.627,12.466Zm-88.4,3.875,2.4,9.307,4.422,17.773a4.341,4.341,0,0,0,2.148,2.906,4.266,4.266,0,0,0,3.5.505,4.438,4.438,0,0,0,2.906-2.022,4.36,4.36,0,0,0,.505-3.622l-4.085-16.593-1.643-6.57,2.737.421h.084l26.111-4.506,4,34.534q.253,1.853,6.233,3.159a71.256,71.256,0,0,0,14.361,1.263,85.363,85.363,0,0,0,10.529-.59,31.755,31.755,0,0,0,3.664-.674q5.981-1.305,6.233-3.159l.884-6.949c2.443.308-15.344,1.39-13.182,1.9,7.974,1.769,2.4-1.053,2.4,1.39,0,2.5,8.48,1.558.505,3.327-7.974,1.712,2.989-2.232-8.353-2.232-10.655,0-52.657,3.356-59.115,2.232L484.8,504.394a4.418,4.418,0,0,0,.126-1.053q0-6.823-22.026-11.666-21.984-4.843-53.149-4.843-11.2,0-21.226.632l-17.436-3.074q-11.876-2.063-6.823-2.99l25.4-4.464-1.306,2.569a4.625,4.625,0,0,0-.168,3.664,4.314,4.314,0,0,0,2.485,2.569,4.2,4.2,0,0,0,3.58.168,4.046,4.046,0,0,0,2.569-2.358L400.952,475l44.937-7.96L477.9,472.6l5.1.927ZM531.381,297.4q.884,1.052,2.316,2.569a24.118,24.118,0,0,1,3.959,13.772,109.938,109.938,0,0,1-1.643,15.625q-.589,3.285-1.306,7.2a.744.744,0,0,0-.084.337q-1.263,7.118-2.527,14.108a16.682,16.682,0,0,0-5.054-.758q-.169-3.074-.169-6.233,0-1.222.084-3.2,0-2.274.253-5.6.084-2.316.253-5.054.085-1.222.168-2.232a107.585,107.585,0,0,0-.084-11.539A8.212,8.212,0,0,1,523.464,311a7.769,7.769,0,0,1,0-3.411,9.273,9.273,0,0,1,.842-2.906,14.9,14.9,0,0,1,4.254-5.559A11.244,11.244,0,0,1,531.381,297.4Zm7.538,58.582v.674l-.169-.337Zm22.531,110.678q.695-.043,1.39-.042.682-.109,1.348-.19l.4-.042c.105,0,.211-.011.316-.021q2.906-.294,5.391-.8a22.671,22.671,0,0,0,3.243-.674h.084a14.951,14.951,0,0,0,2.485-1.011,2.085,2.085,0,0,0,.674-.632.986.986,0,0,0,.168-.253.746.746,0,0,0,.084-.337v-.253q-.421-1.6-6.738-2.737a114.977,114.977,0,0,0-32.849,0q-6.57,1.137-6.823,2.822v.337a.643.643,0,0,0,.084.253q.505.968,3.411,1.811a21.007,21.007,0,0,0,3.327.674,88.42,88.42,0,0,0,16.425,1.305h1.053q3.159,0,6.064-.168c.088-.008.179-.015.274-.021Zm18.067-3.5a1.258,1.258,0,0,1-.337.548,7.84,7.84,0,0,1-3.58,1.937q-1.473.505-3.5,1.053A81.678,81.678,0,0,1,562,468.049q-3.749.253-7.96.253h-1.263a86.857,86.857,0,0,1-17.183-1.6q-2.148-.547-3.706-1.053-3.158-1.1-3.748-2.4a.945.945,0,0,1-.084-.421v-.337q.253-2.231,7.539-3.832a86.866,86.866,0,0,1,18.278-1.643,87.744,87.744,0,0,1,18.236,1.643q6.991,1.516,7.5,3.748v.253A1.605,1.605,0,0,1,579.519,463.164Z" transform="translate(-260.241 -238.072)" fill="#bdd8e6" fill-rule="evenodd"/>
        <path id="Path_49927" data-name="Path 49927" d="M356.054,456.667q-2.991.294-6.486.547-.085-1.769-.168-3.5a62.6,62.6,0,0,1,6.823.505Q356.138,455.278,356.054,456.667Zm3.116-1.979h.211a24.757,24.757,0,0,1,3.2.758,22.21,22.21,0,0,1-3.2.632.516.516,0,0,0-.295.084v-.505A5.869,5.869,0,0,1,359.171,454.687ZM346.41,457.3h-2.358q-.421-1.853-.674-3.748h.421q1.305,0,2.527.084Q346.326,455.445,346.41,457.3Zm-21.31-1.853q1.39-.421,3.074-.758a75.279,75.279,0,0,1,8.3-.884q.421,1.642.8,3.327a86.872,86.872,0,0,1-9.1-1.053A26.854,26.854,0,0,1,325.1,455.445Zm16.509,1.853h-1.727q-.379-1.853-.8-3.664h1.853Q341.271,455.445,341.609,457.3Z" transform="translate(-265.587 -262.698)" fill="#89abd0" fill-rule="evenodd"/>
        <path id="Path_49929" data-name="Path 49929" d="M490.456,359.671,484.1,343.836a26.442,26.442,0,0,1,10.192-7.159,26.964,26.964,0,0,1,4.3-1.179l3.243-.463a2.761,2.761,0,0,0,.674-.084l.169.168q.083.085.927.8a16.98,16.98,0,0,0,1.474,1.264.242.242,0,0,0,.168.084,9.378,9.378,0,0,1,1.516,1.727c.112.225.239.449.379.674a4.863,4.863,0,0,1,.253,2.99v.084a51.526,51.526,0,0,0-.632,6.823v.463A2.6,2.6,0,0,1,504.9,353.1q-1.39.253-2.064.421a6.277,6.277,0,0,0-1.9.842q-5.1,2.738-8.381,4.3Q491.468,359.166,490.456,359.671Zm149.592,24.974a7.654,7.654,0,0,0-7.707-3.5l-56.813,9.981q-.462-2.991-.969-6.738-.422-2.148-.758-4.548-3.328-21.437-5.222-29.986-.758-2.653-1.516-4.885l18.783,3.243,1.053.168,23.163,4,7.581,1.306q1.429.668,2.758,1.39a40.289,40.289,0,0,1,12.592,10.086A32.531,32.531,0,0,1,640.048,384.645ZM510.293,450.218,409.47,432.783l-4.97-15.835c.421.056.857.113,1.306.168L514.8,436.026ZM463.756,472.96l-38.03-6.612-1.179-.168-9.1-28.554,88.483,15.33-8.17,25.564Z" transform="translate(-278.109 -243.994)" fill="#127d88" fill-rule="evenodd"/>
        <path id="Path_49930" data-name="Path 49930" d="M556.9,407.307l15.877-2.822,26.785-4.717,56.813-9.981a7.654,7.654,0,0,1,7.707,3.5l22.995-3.5a16.481,16.481,0,0,1,2.99,3.917,24.022,24.022,0,0,1,1.9,4.97l.674,4.169a21.094,21.094,0,0,1-1.011,8.128,14.065,14.065,0,0,1-4.8,6.57l-122.175,21.31a15.017,15.017,0,0,0,5.559-9.434,32.8,32.8,0,0,0-.421-9.307v-.084a7.725,7.725,0,0,1-.337-1.432q-.168-.632-.337-1.306a14.317,14.317,0,0,0-4.464-7.244,10.449,10.449,0,0,0-2.106-1.306c0-.056-.042-.084-.126-.084q-.843-.336-1.937-.674A7.477,7.477,0,0,0,556.9,407.307Z" transform="translate(-302.142 -252.632)" fill-rule="evenodd" fill="url(#linear-gradient)"/>
        <path id="Path_49931" data-name="Path 49931" d="M617.254,341.522l22.91,3.917,9.5,1.643,19.9,3.411c.138.066.278.129.421.189q20.062,9.739,21.647,29.207a14.276,14.276,0,0,0,.084,1.474l-22.995,3.5a32.532,32.532,0,0,0-7.054-19.478,40.29,40.29,0,0,0-12.592-10.086q-1.331-.72-2.759-1.39l-7.581-1.306-23.163-4-1.053-.168-18.783-3.243-3.875-.674-5.559-.969.084-1.516q.253-2.991.505-5.728l5.559.927,23.205,3.917Z" transform="translate(-306.779 -244.207)" fill-rule="evenodd" fill="url(#linear-gradient-2)"/>
        <path id="Path_49932" data-name="Path 49932" d="M638.1,493.065a13.328,13.328,0,0,1-9.139,2.316l-1.727-6.738L636.538,487Zm-210.911-2.737-4.717,9.855a16.5,16.5,0,0,1-8.718-3.411l3.79-8.044,2.99.505,2.022.337,3.453.59Zm92.484,16.088,1.643,6.57a4.96,4.96,0,0,1-3.832,1.727,20.623,20.623,0,0,1-5.559-.674l-2.4-9.307Z" transform="translate(-279.567 -267.973)" fill="#726a4e" fill-rule="evenodd"/>
        <path id="Path_49933" data-name="Path 49933" d="M519.331,484.426,539,431.783l122.175-21.31-19.668,52.686-8.044,1.432-9.307,1.642L595.77,471.2v-.547a1.6,1.6,0,0,0,.084-.505V469.9q-.505-2.233-7.5-3.748a87.745,87.745,0,0,0-18.236-1.643,86.867,86.867,0,0,0-18.278,1.643q-7.286,1.6-7.539,3.832v.337a.944.944,0,0,0,.084.421l1.137,9.181-26.111,4.506ZM573.912,392.7l-26.785,4.717a43.023,43.023,0,0,0-2.822-14.909q-1.263-3.579-1.769-5.349-.126-.253-1.053-3.369,7.539-1.011,9.6-1.937,4.843-2.148,4.085-7.707v-.674l.842-18.573,5.559.969,3.875.674q.758,2.231,1.516,4.885,1.9,8.55,5.222,29.986.337,2.4.758,4.548Q573.449,389.709,573.912,392.7ZM446.936,407.735l-45.063,7.791-7.623-24.174q2.063-.462,4.211-.8,13.266-2.191,32.555-5.391.336.168.8.463a121.012,121.012,0,0,1,12.129,7.665q.083.085,11.455,8.634-4.8,1.811-5.306,2.064l-2.737,2.653A6.366,6.366,0,0,0,446.936,407.735Zm93.116-46.411a44.066,44.066,0,0,1,3.074-9.813q0,3.159.169,6.233a3.921,3.921,0,0,1-.253,2.485,1.346,1.346,0,0,1-.253.337A2.891,2.891,0,0,1,540.052,361.325Zm39.04,112.783q-.695,0-1.39.042.762-.061,1.474-.126Z" transform="translate(-276.492 -245.563)" fill="#0e6c75" fill-rule="evenodd"/>
        <path id="Path_49934" data-name="Path 49934" d="M630.64,507.254,627.734,495.8a13.328,13.328,0,0,0,9.139-2.316l3.832,15.582.168.674a4.2,4.2,0,0,1-.505,3.58,4.714,4.714,0,0,1-2.906,2.148,4.521,4.521,0,0,1-3.5-.59,4.316,4.316,0,0,1-2.148-2.822ZM412.527,497.189a16.494,16.494,0,0,0,8.718,3.411l-2.19,4.717-4.127,8.549a4.046,4.046,0,0,1-2.569,2.358,4.2,4.2,0,0,1-3.58-.168,4.315,4.315,0,0,1-2.485-2.569,4.625,4.625,0,0,1,.168-3.664l1.306-2.569ZM520.088,513.4,524.173,530a4.36,4.36,0,0,1-.505,3.622,4.438,4.438,0,0,1-2.906,2.022,4.266,4.266,0,0,1-3.5-.505,4.341,4.341,0,0,1-2.148-2.906L510.7,514.456a20.619,20.619,0,0,0,5.559.674A4.961,4.961,0,0,0,520.088,513.4ZM420.15,489.734l1.179.253-2.022-.337Z" transform="translate(-278.344 -268.391)" fill="#a89d80" fill-rule="evenodd"/>
        <path id="Path_49935" data-name="Path 49935" d="M378.05,377.268l4.654-.8,54.77-9.518,2.022,1.6a.946.946,0,0,1-.421-.084,16.969,16.969,0,0,0-7.075-.337,9.5,9.5,0,0,0-6.191,3.411l-.421.548a8.878,8.878,0,0,0-1.853,3.748l-.168.758a11.027,11.027,0,0,0,.168,4.464c.056.225.112.478.168.758a11.294,11.294,0,0,0,4.759,6.823q-19.289,3.2-32.555,5.391-2.148.336-4.211.8l-2.274-7.2q-.253-.843-.421-1.516a1.138,1.138,0,0,1-.211-.295q-1.433-4.169-2.611-5.1a18.007,18.007,0,0,0-3.264-2.085A13.949,13.949,0,0,0,378.05,377.268Z" transform="translate(-273.937 -249.041)" fill-rule="evenodd" fill="url(#linear-gradient-3)"/>
        <path id="Path_49936" data-name="Path 49936" d="M492.932,517.294q-1.594,6.19-21.9,10.655-21.984,4.844-53.149,4.843t-53.149-4.843q-21.984-4.843-21.984-11.708,0-6.823,21.984-11.666a209.81,209.81,0,0,1,31.923-4.212q10.023-.632,21.226-.632,31.164,0,53.149,4.843,22.026,4.844,22.026,11.666A4.415,4.415,0,0,1,492.932,517.294Zm5.391-29.565-7.2-1.306,9.434-29.228L505.061,443l2.4-7.707,2.064-6.233,1.6-5.138,3.159-9.981a14.553,14.553,0,0,1,3.032-5.222h.084a8.89,8.89,0,0,1,4.927-2.99,3.363,3.363,0,0,1,.8-.084,7.478,7.478,0,0,1,3.58.674q1.1.337,1.937.674c.084,0,.126.028.126.084a10.447,10.447,0,0,1,2.106,1.306,14.316,14.316,0,0,1,4.464,7.244q.168.673.337,1.306a7.738,7.738,0,0,0,.337,1.432v.084a32.789,32.789,0,0,1,.421,9.307,15.016,15.016,0,0,1-5.559,9.434l-19.668,52.644-2.737-.421ZM386.128,396.762l7.623,24.174,1.011,2.99,4.97,15.835,10.445,32.555-.842-.084-2.99-.505L387.265,468.4l-19.583-59.508a20.849,20.849,0,0,1-2.78-3.664,21.589,21.589,0,0,1-2.78-7.707,20.733,20.733,0,0,1,1.811-12.508,9.212,9.212,0,0,1,3.5-4,11.32,11.32,0,0,1,5.054-1.811,13.95,13.95,0,0,1,4.864,1.369,18.007,18.007,0,0,1,3.264,2.085q1.179.926,2.611,5.1a1.136,1.136,0,0,0,.211.295q.168.673.421,1.516Z" transform="translate(-268.37 -250.973)" fill="#11646c" fill-rule="evenodd"/>
        <path id="Path_49937" data-name="Path 49937" d="M426.441,312.544l50.706,8.97a2.7,2.7,0,0,1,2.064,1.9l15.877,39.462a.642.642,0,0,1,.084.253,1.433,1.433,0,0,1,.084.8c-.112.224-.393.309-.842.253h-.084l-50.79-8.97h-.169a3.115,3.115,0,0,1-1.979-1.811l-15.877-39.5q-.632-1.6.842-1.348Zm27.964,21.6a4.767,4.767,0,0,0-.674,4.548,8.476,8.476,0,0,0,3.243,4.506,8.144,8.144,0,0,0,5.138,1.9,4.768,4.768,0,0,0,4.169-1.9,4.671,4.671,0,0,0,.674-4.506,8.676,8.676,0,0,0-3.243-4.548,8.365,8.365,0,0,0-5.222-1.853A4.718,4.718,0,0,0,454.405,334.148Z" transform="translate(-281.393 -240.455)" fill="#7792aa" fill-rule="evenodd"/>
        <path id="Path_49938" data-name="Path 49938" d="M495.38,362.991a.642.642,0,0,0-.084-.253l-15.877-39.462a2.7,2.7,0,0,0-2.064-1.9l-50.706-8.97q-.085-.884,1.011-.716l50.79,9.013a2.6,2.6,0,0,1,2.064,1.769l7.075,17.688L493.948,356l2.274,5.728.211.421q.253,1.137-.969.842Zm.084.8a6.594,6.594,0,0,1,2.148,1.011l4.8,3.748,4.59,3.622a19.824,19.824,0,0,0-2.569,0l-7.412-5.812a1.314,1.314,0,0,0-.337-.253,7.407,7.407,0,0,0-2.148-.884h-.084l-48.9-8.634-1.642-1.263a2.565,2.565,0,0,1-.337-.253h.168l50.79,8.97h.084C495.072,364.1,495.353,364.015,495.465,363.791Zm-40.851-29.775a4.718,4.718,0,0,1,4.085-1.853,8.365,8.365,0,0,1,5.222,1.853,8.676,8.676,0,0,1,3.243,4.548,4.671,4.671,0,0,1-.674,4.506,4.768,4.768,0,0,1-4.169,1.9,8.144,8.144,0,0,1-5.138-1.9,8.476,8.476,0,0,1-3.243-4.506A4.767,4.767,0,0,1,454.613,334.016Z" transform="translate(-281.601 -240.322)" fill="#bdd8e6" fill-rule="evenodd"/>
        <path id="Path_49939" data-name="Path 49939" d="M432.05,382.02l.168.505v.253C432.162,382.5,432.106,382.245,432.05,382.02Zm1.853-8.97a12.447,12.447,0,0,0-.927,1.432,9.08,9.08,0,0,0-.926,2.316A8.877,8.877,0,0,1,433.9,373.05Z" transform="translate(-282.453 -250.003)" fill="#9e7c5c" fill-rule="evenodd"/>
        <path id="Path_49940" data-name="Path 49940" d="M481.39,418.507q-1.011-.59-5.475-2.822a.245.245,0,0,1-.169-.084q-3.5-2.106-7.539-4.506-1.094-.675-2.274-1.474h-.21v-.084a7.9,7.9,0,0,1-1.011-.674l-2.99-1.979a1.061,1.061,0,0,1-.421-.253q-11.371-8.55-11.455-8.634a121.01,121.01,0,0,0-12.129-7.665q-.464-.294-.8-.463a11.294,11.294,0,0,1-4.759-6.823l.084-.084a.252.252,0,0,1-.084-.168l-.168-.505a11.027,11.027,0,0,1-.168-4.464l.168-.758a9.078,9.078,0,0,1,.926-2.316,10.217,10.217,0,0,1,1.264,1.095q2.821,2.738,8.3,8.465,10.108,9.1,16.172,13.6,6.317,4.8,24.469,15.33a113.145,113.145,0,0,1,11.455,7.412c-.112.225-.239.477-.379.758-.056.253-.112.52-.168.8a3.235,3.235,0,0,0,.884,2.906A30.752,30.752,0,0,1,489.1,422.3a44.924,44.924,0,0,0-5.812-2.906Zm71.637-16.383-15.877,2.822a3.359,3.359,0,0,0-.8.084,8.89,8.89,0,0,0-4.927,2.99,2.237,2.237,0,0,1-.463-.337,127.62,127.62,0,0,0-9.9-8.381q-1.473-1.054-2.99-1.979a54.065,54.065,0,0,0-11.034-5.306q-5.98-.59-8.634,1.811l-.674.674a6.975,6.975,0,0,0-1.474,4.548,11.338,11.338,0,0,0,.421,2.022,9.815,9.815,0,0,1,.463,1.979L493.1,412.99q-.841-.464-1.516-.884a1.387,1.387,0,0,0-.211-.168l-.084-.084a.976.976,0,0,1-.253-.169l-.084-.084-.169-.168-.253-.253a6.033,6.033,0,0,1-1.6-2.4l.169-.842a7.251,7.251,0,0,1,.253-1.221l.253-1.516a1.369,1.369,0,0,0,.084-.337v-.084a9.348,9.348,0,0,0-.337-4.043.742.742,0,0,1-.084-.337l-.505-2.569a10.045,10.045,0,0,1,.084-3.664c.056-.28.113-.533.168-.758a4.624,4.624,0,0,1,.337-1.221,9.864,9.864,0,0,1,.758-2.022,13.619,13.619,0,0,1,7.623-7.286l3.832-.505a26.485,26.485,0,0,1,3.664-.253,19.8,19.8,0,0,1,2.569,0,43.142,43.142,0,0,1,14.193,3.327,49.005,49.005,0,0,1,5.054,2.316l9.307,5.475q1.726,1.011,3.538,2.274,2.906-2.821,2.906-5.728a18.886,18.886,0,0,0-1.727-7.833q-.841-1.473-1.306-2.316,2.233-.168,3.79-.337a1.862,1.862,0,0,1,.59-.084q.421-.085.758-.168l2.485-.547q.926,3.117,1.053,3.369.505,1.769,1.769,5.349A43.021,43.021,0,0,1,553.027,402.125Z" transform="translate(-282.393 -250.271)" fill="#00558c" fill-rule="evenodd"/>
        <path id="Path_49941" data-name="Path 49941" d="M447.622,368.644l5.054,3.875a5.56,5.56,0,0,0,.842.505q1.812.927,6.78,2.99,8.8,3.664,12.045,8.044,1.263,1.769,2.99,4.59,1.98,3.242,4.59,7.791a60.48,60.48,0,0,0,5.938,8.128q.675.758,1.432,1.516a23.651,23.651,0,0,0,1.727,1.643,6.032,6.032,0,0,0,1.6,2.4l.253.253.168.168.084.084a.978.978,0,0,0,.253.169l.084.084a1.389,1.389,0,0,1,.211.168q.673.422,1.516.884L497.233,402a9.813,9.813,0,0,0-.463-1.979,11.339,11.339,0,0,1-.421-2.022,6.975,6.975,0,0,1,1.474-4.548l.674-.674q2.653-2.4,8.634-1.811a54.06,54.06,0,0,1,11.034,5.306q1.516.926,2.99,1.979a127.627,127.627,0,0,1,9.9,8.381,2.239,2.239,0,0,0,.463.337h-.084a14.549,14.549,0,0,0-3.032,5.222l-3.159,9.981a24.433,24.433,0,0,1-6.654-.421q-.337-4.3-1.979-6.233l-.674-.674a2.6,2.6,0,0,0-.926-.547c-.393-.113-.8-.224-1.221-.337a4.187,4.187,0,0,0-1.432.084l-1.474.421a.658.658,0,0,0-.253.084l-.084-.084-.421-.59q-.673-.843-.842-1.1l-.084-.084a11.547,11.547,0,0,0-1.811-1.642,6.552,6.552,0,0,0-3.159.969,2.119,2.119,0,0,0-.505.253q-2.991,1.769-3.411,1.937l1.263,2.232a2.863,2.863,0,0,0-2.99-.505A5.362,5.362,0,0,0,495.675,418a.986.986,0,0,0-.168.253l-.253.253a6.757,6.757,0,0,0-.59,1.1,113.128,113.128,0,0,0-11.455-7.412q-18.151-10.53-24.469-15.33-6.065-4.505-16.172-13.6-5.476-5.728-8.3-8.465a10.215,10.215,0,0,0-1.263-1.095,12.429,12.429,0,0,1,.927-1.432l.421-.548a9.5,9.5,0,0,1,6.191-3.411A16.97,16.97,0,0,1,447.622,368.644Zm-15.372,13.1a.252.252,0,0,0,.084.168l-.084.084Zm43.589,32.807q-.926-.505-1.979-1.011-1.685-1.094-3.832-2.316l-2.822-1.769q-.59-.422-1.179-.884,1.179.8,2.274,1.474Q472.343,412.443,475.839,414.549Z" transform="translate(-282.485 -249.219)" fill="#003151" fill-rule="evenodd"/>
        <path id="Path_49942" data-name="Path 49942" d="M491.592,390.574l-14.109-2.485q-1.727-2.821-2.99-4.591-3.243-4.38-12.045-8.044-4.97-2.064-6.781-2.99l-5.475-4.3-2.022-1.6-1.811-1.39q-1.1-.841.337-.59l1.9.337,48.9,8.634h.084a7.4,7.4,0,0,1,2.148.884,1.312,1.312,0,0,1,.337.253l7.412,5.812a26.485,26.485,0,0,0-3.664.253l-3.832.505a13.619,13.619,0,0,0-7.623,7.286A9.874,9.874,0,0,0,491.592,390.574Z" transform="translate(-284.635 -248.659)" fill="#7792aa" fill-rule="evenodd"/>
        <path id="Path_49943" data-name="Path 49943" d="M450.921,368.834l5.475,4.3a5.561,5.561,0,0,1-.842-.505L450.5,368.75A.946.946,0,0,0,450.921,368.834Zm57.908,48.853a6.874,6.874,0,0,1-4.38-1.137l-1.263-2.232q.422-.168,3.411-1.937a2.114,2.114,0,0,1,.505-.253,6.552,6.552,0,0,1,3.159-.969,11.539,11.539,0,0,1,1.811,1.642l.084.084q.168.253.842,1.095l.421.59.084.084a17.164,17.164,0,0,0-2.569,1.221A6.416,6.416,0,0,0,508.829,417.687Zm12.55,7.412.084-3.243a24.433,24.433,0,0,0,6.654.421l-1.6,5.138A19.953,19.953,0,0,1,521.379,425.1Zm-43.168-36.345,14.109,2.485a4.626,4.626,0,0,0-.337,1.221c-.056.225-.113.478-.168.758a10.048,10.048,0,0,0-.084,3.664l.505,2.569a.744.744,0,0,0,.084.337,9.347,9.347,0,0,1,.337,4.043v.084a1.37,1.37,0,0,1-.084.337l-.253,1.516a7.251,7.251,0,0,0-.253,1.221l-.169.842a23.624,23.624,0,0,1-1.727-1.642q-.758-.758-1.432-1.516a60.488,60.488,0,0,1-5.938-8.128Q480.19,392,478.211,388.754Z" transform="translate(-285.363 -249.324)" fill="#001522" fill-rule="evenodd"/>
        <path id="Path_49944" data-name="Path 49944" d="M518.6,250.494q5.476-23.374,28.385-20.257a9.4,9.4,0,0,1,2.485.421q-5.054,3.074-11.539,7.665A210.228,210.228,0,0,1,518.6,250.494Zm45.568,7.244a72.56,72.56,0,0,1-10.4-1.011q-5.938-1.39-5.938-6.781,0-2.359,4.633-7.412,1.979-2.232,4.8-4.885a16.4,16.4,0,0,1,1.516-1.348,23.741,23.741,0,0,1,4.127,6.907q.253.758.505,1.727.294,1.263.505,2.611A34.43,34.43,0,0,1,564.168,257.738Zm26.322.59q-.253.969-.59,1.9a59.277,59.277,0,0,0-3.664-10.065q-6.485-13.013-20-14.4a8.412,8.412,0,0,0-8.212-7.581,9.172,9.172,0,0,0-2.148.253,26.512,26.512,0,0,1,13.561-1.011,27.63,27.63,0,0,1,13.308,5.643,19.824,19.824,0,0,1,7.328,11.034A32.887,32.887,0,0,1,590.49,258.328Z" transform="translate(-296.103 -226.964)" fill="#6f361d" fill-rule="evenodd"/>
        <path id="Path_49945" data-name="Path 49945" d="M564.107,258.43q-.169.716-.379,1.474a13.615,13.615,0,0,1-6.38,8.339,6.409,6.409,0,0,1-4.106-.59q-.59-.337-1.095-.674a40.461,40.461,0,0,1-7.791-6.738,38.179,38.179,0,0,1-2.822-3.959,31.04,31.04,0,0,1-2.653-6.149,31.185,31.185,0,0,1-8.634,6.065q-2.568,1.264-4.969,2.653a4.257,4.257,0,0,0-2.021,2.569q-6.332-2.3-4.717-10.234a210.234,210.234,0,0,0,19.331-12.171q6.486-4.59,11.539-7.665,1.011.337,2.064.758a20.519,20.519,0,0,1,2.822,1.432,30.7,30.7,0,0,1,4,2.906,1.377,1.377,0,0,0,.168.211,1.31,1.31,0,0,0,.253.337,16.4,16.4,0,0,0-1.516,1.348q-2.821,2.653-4.8,4.885-4.632,5.054-4.633,7.412,0,5.391,5.938,6.781A72.567,72.567,0,0,0,564.107,258.43Zm-.758-12.8q-.253-.969-.505-1.727.505-.421.927-.842a8.2,8.2,0,0,0,2.4-5.9v-.716q13.519,1.39,20,14.4a59.3,59.3,0,0,1,3.664,10.065q.337-.926.59-1.9a15.51,15.51,0,0,1-3.074,6.528,25.706,25.706,0,0,1-11.792,8.212q-6.99,2.359-10.4.084Q571.224,258.767,563.349,245.627Z" transform="translate(-296.041 -227.656)" fill="#773b20" fill-rule="evenodd"/>
        <path id="Path_49946" data-name="Path 49946" d="M567.13,293.222h.084q.505.337,1.137.674l2.022,1.221a1.061,1.061,0,0,0-.421.253,9.576,9.576,0,0,0-2.737.927,11.248,11.248,0,0,0-2.822,1.727,14.9,14.9,0,0,0-4.254,5.559,9.271,9.271,0,0,0-.842,2.906,7.769,7.769,0,0,0,0,3.411,8.211,8.211,0,0,0,4.085,5.391,107.617,107.617,0,0,1,.084,11.539q-.085,1.011-.168,2.232-.169,2.738-.253,5.054-.253,3.328-.253,5.6-.085,1.98-.084,3.2a44.07,44.07,0,0,0-3.074,9.813q-1.052.253-2.316.674a60.341,60.341,0,0,0-5.812,2.064,5.972,5.972,0,0,0-.758.253l-2.569,1.011a10.855,10.855,0,0,1-1.137.463,20.308,20.308,0,0,0,1.221-6.359q0-12.3-10.108-16.3-4.337-1.726-13.056-1.9c-.14-.225-.267-.449-.379-.674a9.388,9.388,0,0,0-1.516-1.727.242.242,0,0,1-.168-.084,16.98,16.98,0,0,1-1.474-1.264q-.843-.716-.927-.8l-.168-.168a6.446,6.446,0,0,1-.927-1.348h-.084a2.987,2.987,0,0,1-.379-1.053.075.075,0,0,1-.084-.084.342.342,0,0,1-.084-.253,7.4,7.4,0,0,1-.421-3.664,5.778,5.778,0,0,0,4.211,1.811h.421a14.705,14.705,0,0,0,2.737-.59,17.12,17.12,0,0,1,5.475-.716A11.794,11.794,0,0,1,539,325.1a4.8,4.8,0,0,0,.379.337,12.014,12.014,0,0,0,8,3.369q3.706,0,5.98-3.79a.246.246,0,0,1,.084-.168A9.17,9.17,0,0,0,555,320.681q-.841-5.812-.842-6.7a23.262,23.262,0,0,1,12.971-20.763Zm-2.737-1.6q-1.516.926-4.169,2.274-7.034,3.706-7.623,4.38-8.8,8.8-9.476,8.8-1.39,0-3.411-2.822-2.148-3.159-2.737-3.917-4.717,5.012-6.065,5.012a2.106,2.106,0,0,1-1.979-1.011l-.253-1.011q0-1.222,2.485-5.222,1.263-1.9,2.653-3.959c-.113.253-.211.463-.295.632a51.093,51.093,0,0,0-1.853,5.1q1.016-.57,2.885-1.579t3.517-2a14.058,14.058,0,0,1,2.569,3.074q1.011,1.39,2.822,4.211a42.88,42.88,0,0,0,4.464-3.875q3.243-2.991,4.338-3.917,5.222-4.548,10.276-5.391Q563.3,290.905,564.392,291.621Z" transform="translate(-296.074 -236.968)" fill="#e4b62c" fill-rule="evenodd"/>
        <path id="Path_49947" data-name="Path 49947" d="M565.02,288.7q-5.054.843-10.276,5.391-1.1.926-4.338,3.917a42.843,42.843,0,0,1-4.464,3.875q-1.811-2.822-2.822-4.211a14.052,14.052,0,0,0-2.569-3.074q-1.647.991-3.516,2t-2.885,1.579a51.047,51.047,0,0,1,1.853-5.1c.084-.168.182-.379.295-.632q.673-1.6,1.937-4.422l1.642,1.516q1.011,3.538,1.179,4.212a79.011,79.011,0,0,0,8.549-4.97,69.7,69.7,0,0,1,8.465-5.054,2.527,2.527,0,0,0,1.643-1.685,14.331,14.331,0,0,0,.253-2.4A10.793,10.793,0,0,1,565.1,283.9Q567.757,287.609,565.02,288.7Z" transform="translate(-298.555 -235.273)" fill="#d1e7f4" fill-rule="evenodd"/>
        <path id="Path_49948" data-name="Path 49948" d="M535.165,290.3q-.547.673-1.053,1.39a33.89,33.89,0,0,0-3.917,7.244l-2.064,5.559a6.615,6.615,0,0,0-.253,1.011q-.506,1.306-.927,2.822-.085-.758-.168-1.516a8.383,8.383,0,0,1-.084-1.179l.253-6.612a.944.944,0,0,1,.084-.421.747.747,0,0,1,.084-.337.346.346,0,0,1,.084-.253.933.933,0,0,1,.084-.421v-.168a.745.745,0,0,1,.084-.337q1.6-5.77,6.654-6.612A3.591,3.591,0,0,1,535.165,290.3Zm33.229,5.98a9.575,9.575,0,0,1,2.737-.927,2.927,2.927,0,0,1,.716-.084q5.516,1.516,7.412,7.623a21.823,21.823,0,0,1,.168,11.287q-1.263,6.823-2.064,14.867-.253,2.738-.505,5.728l-.084,1.516-.842,18.573-.168.337a10.79,10.79,0,0,0-4.8-4.548l-.337-.168q-.758-.337-1.516-.59,1.263-6.991,2.527-14.108a.744.744,0,0,1,.084-.337q.715-3.917,1.306-7.2a109.939,109.939,0,0,0,1.643-15.625,24.118,24.118,0,0,0-3.959-13.771Q569.279,297.333,568.394,296.28ZM526.532,335.7q1.1,4.632,1.516,6.654a1.988,1.988,0,0,1,.084.547l-2.232.084v-.463A51.5,51.5,0,0,1,526.532,335.7Z" transform="translate(-297.254 -236.953)" fill="#bfd1ea" fill-rule="evenodd"/>
        <path id="Path_49949" data-name="Path 49949" d="M542.478,259.8a55.245,55.245,0,0,1-5.559,3.2,80.84,80.84,0,0,1-11.455,4.843q-.59-1.179-1.1-2.485a3.236,3.236,0,0,0-.168-.421,4.257,4.257,0,0,1,2.021-2.569q2.4-1.39,4.97-2.653a31.185,31.185,0,0,0,8.634-6.065A31.037,31.037,0,0,0,542.478,259.8Zm-4.169,25.648a21.257,21.257,0,0,0,9.644-5.18,23.589,23.589,0,0,0,6.233-9.1,6.409,6.409,0,0,0,4.106.59q.053,1.529.105,3.79a14.331,14.331,0,0,1-.253,2.4,2.528,2.528,0,0,1-1.643,1.685,69.673,69.673,0,0,0-8.465,5.054,79,79,0,0,1-8.549,4.969Q539.32,288.985,538.308,285.447Zm25.227,60.393a3.922,3.922,0,0,0,.253-2.485,16.686,16.686,0,0,1,5.054.758q.758.253,1.516.59l.337.168a10.788,10.788,0,0,1,4.8,4.548l.169.337q.758,5.559-4.085,7.707-2.065.927-9.6,1.937l-2.485.548c-.225.056-.478.112-.758.168q1.18-.969,2.99-2.232,6.234-4.548,6.233-6.149,0-1.39-3.327-4.8Z" transform="translate(-296.986 -231.173)" fill="#ed9870" fill-rule="evenodd"/>
        <path id="Path_49950" data-name="Path 49950" d="M551.26,272.321a23.592,23.592,0,0,1-6.233,9.1,21.258,21.258,0,0,1-9.644,5.18l-1.642-1.516a46.95,46.95,0,0,1-11.2-16.088,80.856,80.856,0,0,0,11.455-4.843,55.264,55.264,0,0,0,5.559-3.2,38.154,38.154,0,0,0,2.822,3.959,40.455,40.455,0,0,0,7.791,6.738Q550.67,271.985,551.26,272.321ZM513.146,399.55a6.875,6.875,0,0,0,4.38,1.137,7.27,7.27,0,0,0-3.706,5.264,5.11,5.11,0,0,0,2.737,5.559,5.609,5.609,0,0,1-5.391-1.011,30.252,30.252,0,0,0-4.59-3.327,3.234,3.234,0,0,1-.884-2.906c.056-.28.112-.547.168-.8.14-.281.267-.533.379-.758a6.753,6.753,0,0,1,.59-1.1l.253-.253a.991.991,0,0,1,.168-.253,5.362,5.362,0,0,1,2.906-2.064A2.863,2.863,0,0,1,513.146,399.55Zm-5.222-43.757a1.433,1.433,0,0,0-.084-.8h.084q1.22.294.969-.842a9.2,9.2,0,0,1,4.506-1.432,77.643,77.643,0,0,1,8.465.168q7.2,4.928,17.857,1.6,1.642-.505,5.307-1.937a10.839,10.839,0,0,0,1.137-.463l2.569-1.011a5.975,5.975,0,0,1,.758-.253,60.341,60.341,0,0,1,5.812-2.064q1.263-.422,2.316-.674a2.891,2.891,0,0,0,2.737-.758,1.345,1.345,0,0,0,.253-.337l1.1,1.095q3.327,3.411,3.327,4.8,0,1.6-6.233,6.149-1.812,1.264-2.99,2.232a1.861,1.861,0,0,0-.59.084q-1.558.168-3.79.337-2.989.169-7.5.505a57.947,57.947,0,0,0-12.508,2.064,23.744,23.744,0,0,1-9.223-1.221,67.3,67.3,0,0,1-7.328-2.485l-4.8-3.748A6.594,6.594,0,0,0,507.923,355.793Zm7.96,52.812a4.854,4.854,0,0,1,.253-4.422q.758.505,1.474,3.327a20.031,20.031,0,0,0,1.432,4.169A4.352,4.352,0,0,1,515.883,408.6Z" transform="translate(-294.06 -232.324)" fill="#ffaa83" fill-rule="evenodd"/>
        <path id="Path_49951" data-name="Path 49951" d="M522.848,352.834l2.232-.084a15.032,15.032,0,0,1,.169,7.581,17.71,17.71,0,0,1-3.243,7.033,77.631,77.631,0,0,0-8.465-.168,9.2,9.2,0,0,0-4.506,1.432l-.211-.421-2.274-5.728q1.011-.505,2.106-1.011,3.285-1.559,8.381-4.3a6.282,6.282,0,0,1,1.9-.842q.674-.169,2.064-.421A2.6,2.6,0,0,0,522.848,352.834Z" transform="translate(-294.202 -246.801)" fill="#ce7c56" fill-rule="evenodd"/>
        <path id="Path_49952" data-name="Path 49952" d="M553.156,380.337q.462.843,1.305,2.316a18.886,18.886,0,0,1,1.727,7.833q0,2.906-2.906,5.728-1.811-1.263-3.538-2.274l-9.307-5.475a49.017,49.017,0,0,0-5.054-2.316,43.142,43.142,0,0,0-14.193-3.327L516.6,379.2a67.309,67.309,0,0,0,7.328,2.485,23.745,23.745,0,0,0,9.223,1.221,57.939,57.939,0,0,1,12.508-2.064Q550.166,380.506,553.156,380.337Z" transform="translate(-295.787 -250.973)" fill="#1771ac" fill-rule="evenodd"/>
        <path id="Path_49953" data-name="Path 49953" d="M623.88,494.747l-.927,7.244-3.074,26.069-.337,2.99L618.658,538q-.253,1.853-6.233,3.159a31.766,31.766,0,0,1-3.664.674,85.365,85.365,0,0,1-10.529.59,71.255,71.255,0,0,1-14.361-1.264q-5.98-1.305-6.233-3.159l-4-34.534-1.137-9.181q.59,1.305,3.748,2.4,1.559.505,3.706,1.053a86.868,86.868,0,0,0,17.183,1.6H598.4q4.211,0,7.96-.253a81.677,81.677,0,0,0,10.108-1.348q2.021-.547,3.5-1.053a7.841,7.841,0,0,0,3.58-1.937,1.259,1.259,0,0,0,.337-.547Z" transform="translate(-304.603 -269.108)" fill="#75cc96" fill-rule="evenodd"/>
        <path id="Path_49954" data-name="Path 49954" d="M520.715,440.733a.978.978,0,0,1-.253.168l-1.348.421a1.371,1.371,0,0,1-.421.084,1.4,1.4,0,0,1-.421.084A63.747,63.747,0,0,0,519.62,431q0-.083-1.011-6.233a3.469,3.469,0,0,0-3.453-3.117,2.794,2.794,0,0,1-.674-.084.656.656,0,0,1,.253-.084l1.474-.421a4.186,4.186,0,0,1,1.432-.084c.421.113.828.224,1.221.337a2.6,2.6,0,0,1,.926.548l.674.674q1.642,1.938,1.979,6.233l-.084,3.243a32.2,32.2,0,0,0-.084,5.559v.253l-.505,1.727A3.324,3.324,0,0,1,520.715,440.733Zm-33.481-15.372q-1.475.083-11.034,2.316-6.7,1.433-11.034.505a11.3,11.3,0,0,1-5.98-3.159,7.7,7.7,0,0,1-2.485-5.306v-.884a.936.936,0,0,1,.084-.421,6.373,6.373,0,0,1,.421-1.095l2.737-2.653q.505-.253,5.306-2.064a1.062,1.062,0,0,0,.421.253l2.99,1.979a7.9,7.9,0,0,0,1.011.674v.084h.211q.589.464,1.179.884-2.989,2.274-1.011,5.98,1.854,3.664,5.475,3.327-.8-2.569-1.053-3.664a21.747,21.747,0,0,1-.59-3.875q2.148,1.222,3.832,2.316-.085,3.411,2.4,4.633,2.4,1.1,5.222-.716Z" transform="translate(-286.341 -256.24)" fill="#595959" fill-rule="evenodd"/>
        <path id="Path_49955" data-name="Path 49955" d="M515.055,433.348a19.958,19.958,0,0,0,5.138,2.316L518.13,441.9q-2.232.084-4.717.169a3.322,3.322,0,0,0,1.053-1.179l.505-1.727v-.253A32.208,32.208,0,0,1,515.055,433.348Zm-6.57,8.718q-31.629-.253-49.274-7.16-12.634-5.054-12.634-9.434,0-2.653,2.822-4.422a7.7,7.7,0,0,0,2.485,5.306,11.294,11.294,0,0,0,5.98,3.159q4.339.926,11.034-.505,9.56-2.232,11.034-2.316a44.925,44.925,0,0,1,5.812,2.906,30.748,30.748,0,0,0,5.812,2.822,30.254,30.254,0,0,1,4.59,3.327,5.609,5.609,0,0,0,5.391,1.011,4.878,4.878,0,0,1,2.737,1.306q.589.505,2.232,2.316A7.3,7.3,0,0,0,508.486,442.065Zm-87.641,36.85L410.4,446.361,511.223,463.8l-9.434,29.228-5.1-.927,8.17-25.564L416.38,451.2l9.1,28.554-3.453-.59Z" transform="translate(-279.039 -257.572)" fill="#0e6c75" fill-rule="evenodd"/>
        <path id="Path_49956" data-name="Path 49956" d="M527.5,443.17a4.168,4.168,0,0,1-1.474-.253l-.505-.253a2.113,2.113,0,0,1-.505-.253,7.3,7.3,0,0,1-1.979-1.685q-1.642-1.812-2.232-2.316a4.877,4.877,0,0,0-2.738-1.306,5.11,5.11,0,0,1-2.737-5.559,7.271,7.271,0,0,1,3.706-5.264,6.415,6.415,0,0,1,2.106-1.811,17.167,17.167,0,0,1,2.569-1.221,2.791,2.791,0,0,0,.674.084,3.469,3.469,0,0,1,3.453,3.117q1.011,6.149,1.011,6.233A63.753,63.753,0,0,1,527.5,443.17ZM517.4,434.2a4.352,4.352,0,0,0,3.159,3.074,20.043,20.043,0,0,1-1.432-4.169q-.716-2.821-1.474-3.327A4.854,4.854,0,0,0,517.4,434.2Z" transform="translate(-295.573 -257.919)" fill="gray" fill-rule="evenodd"/>
        <path id="Path_49957" data-name="Path 49957" d="M403.3,427.291l45.063-7.791a.934.934,0,0,0-.084.421v.884q-2.821,1.769-2.822,4.422,0,4.38,12.634,9.434,17.645,6.907,49.274,7.16a2.112,2.112,0,0,0,.505.253l.505.253a4.165,4.165,0,0,0,1.474.253,1.4,1.4,0,0,0,.421-.084,1.374,1.374,0,0,0,.421-.084l1.348-.421a.975.975,0,0,0,.253-.168q2.485-.083,4.717-.168l-2.4,7.707L405.616,430.45c-.449-.056-.884-.113-1.305-.169Z" transform="translate(-277.919 -257.328)" fill="#0f6871" fill-rule="evenodd"/>
        <path id="Path_49958" data-name="Path 49958" d="M482.047,422.3a.245.245,0,0,0,.168.084q4.464,2.231,5.475,2.822-2.821,1.812-5.222.716-2.485-1.222-2.4-4.633Q481.12,421.791,482.047,422.3Zm-8.634-5.1,2.822,1.769a21.746,21.746,0,0,0,.59,3.875q.253,1.1,1.053,3.664-3.621.337-5.475-3.327Q470.423,419.473,473.413,417.2Z" transform="translate(-288.693 -256.965)" fill="#f18d69" fill-rule="evenodd"/>
        <g id="Group_17612" data-name="Group 17612" transform="translate(242.418 238.442)">
          <path id="Path_49959" data-name="Path 49959" d="M542.755,510.892h-.084a.421.421,0,0,1,0-.842.459.459,0,0,1,.463.421A.387.387,0,0,1,542.755,510.892Z" transform="translate(-542.25 -510.05)"/>
        </g>
      </g>
    </g>
  </g>
</svg>
