<?xml version="1.0" encoding="utf-8"?>
<!-- Generator: Adobe Illustrator 24.1.2, SVG Export Plug-In . SVG Version: 6.00 Build 0)  -->
<svg version="1.1" id="Слой_1" xmlns="http://www.w3.org/2000/svg" xmlns:xlink="http://www.w3.org/1999/xlink" x="0px" y="0px"
	 width="360.4px" height="336.3px" viewBox="0 0 360.4 336.3" enable-background="new 0 0 360.4 336.3" xml:space="preserve">
<g id="newspaper-154444" transform="matrix(0.899, -0.438, 0.438, 0.899, -370.39, 1198.98)">
	
		<linearGradient id="Path_45153_1_" gradientUnits="userSpaceOnUse" x1="1300.0234" y1="-235.3546" x2="1300.0273" y2="-234.3926" gradientTransform="matrix(254.3271 105.9942 123.9102 -217.5544 -300521.4063 -189567.1094)">
		<stop  offset="0" style="stop-color:#000000"/>
		<stop  offset="1" style="stop-color:#000000;stop-opacity:0"/>
	</linearGradient>
	<path id="Path_45153" opacity="0.75" fill="url(#Path_45153_1_)" enable-background="new    " d="M806.1-808.8v242H1089l0-83.8
		c-0.2-12.9-1.6-25.7-4.3-38.2c0.1-37.7,0.6-75.6,1.3-115.7c-22.4-1.1-49.1-1.5-75.5-1.4c-2.2-1.1-4.4-2-6.7-2.9L806.1-808.8z"/>
	
		<linearGradient id="Path_45154_1_" gradientUnits="userSpaceOnUse" x1="1300.4447" y1="-232.8951" x2="1298.1278" y2="-234.2831" gradientTransform="matrix(174.9032 101.7258 85.2142 -208.7935 -206132.9688 -181950.9844)">
		<stop  offset="0" style="stop-color:#F5F5F2"/>
		<stop  offset="0.104" style="stop-color:#F6F6F4"/>
		<stop  offset="0.884" style="stop-color:#F6F6F4"/>
		<stop  offset="0.916" style="stop-color:#FCFBF7"/>
		<stop  offset="1" style="stop-color:#D7D7CF"/>
	</linearGradient>
	<path id="Path_45154" fill="url(#Path_45154_1_)" d="M1086-804.6c-1.3,80.3-2,152-0.4,230.8l-166.6-25l-27.6-204.9
		C891.4-803.7,1012.2-808.2,1086-804.6L1086-804.6z"/>
	<path id="Path_45155" opacity="0.75" fill="#EFEFEF" enable-background="new    " d="M1018.3-792.8l56.1,0.7l-1.2,93.9l-56.1-0.7
		L1018.3-792.8z"/>
	
		<linearGradient id="Path_45156_1_" gradientUnits="userSpaceOnUse" x1="1299.5861" y1="-234.4618" x2="1299.5911" y2="-235.4668" gradientTransform="matrix(254.3271 105.996 123.9102 -217.558 -300521.3438 -189570.25)">
		<stop  offset="0" style="stop-color:#F5F5F2"/>
		<stop  offset="0.104" style="stop-color:#F6F6F4"/>
		<stop  offset="0.884" style="stop-color:#F6F6F4"/>
		<stop  offset="0.916" style="stop-color:#FCFBF7"/>
		<stop  offset="1" style="stop-color:#D7D7CF"/>
	</linearGradient>
	<path id="Path_45156" fill="url(#Path_45156_1_)" d="M806.1-808.9v242H1089v-83.2c-4.9-81.4-51.4-136.6-85.3-158.8L806.1-808.9z"/>
	
		<linearGradient id="Path_45157_1_" gradientUnits="userSpaceOnUse" x1="1293.9219" y1="-232.079" x2="1293.9348" y2="-232.31" gradientTransform="matrix(95.4432 75.1218 46.5007 -154.1884 -111695.7266 -134501.7656)">
		<stop  offset="0" style="stop-color:#E5E5E0"/>
		<stop  offset="1" style="stop-color:#FFFFFF;stop-opacity:0"/>
	</linearGradient>
	<path id="Path_45157" fill="url(#Path_45157_1_)" d="M982.8-808.9l103.7,171.5l2.5-1.5v-11.2c-0.9-15-3.3-29.9-7.2-44.5
		l-61.2-101.2c-5.3-4.8-11-9.2-16.9-13.1L982.8-808.9L982.8-808.9z"/>
	
		<radialGradient id="Path_45158_1_" cx="1296.9462" cy="-235.9845" r="0.521" gradientTransform="matrix(103.3694 71.2755 73.5641 -95.216 -115786.5156 -115738.8281)" gradientUnits="userSpaceOnUse">
		<stop  offset="0" style="stop-color:#DCDCD5"/>
		<stop  offset="1" style="stop-color:#FFFFFF;stop-opacity:0"/>
	</radialGradient>
	<path id="Path_45158" fill="url(#Path_45158_1_)" d="M1007.9-806c-16.8,5.7-29.5,19.8-32.9,39.6c-5.7,33.7,17.6,71,51.9,83.4
		c21.3,7.7,41.9,4,55.8-7.9C1068.7-747.1,1035.1-786.6,1007.9-806L1007.9-806z"/>
	<path id="Path_45159" fill="none" stroke="#716C61" stroke-width="1.385" stroke-linecap="round" stroke-miterlimit="4.0001" d="
		M1020.7-737.4h38.4"/>
	<path id="Path_45161" opacity="0.35" enable-background="new    " d="M1010.2-781.7h20.2v31.8h-20.2V-781.7z"/>
	<path id="Path_45162" fill="#716C61" d="M818.8-745.7h224.8v4.3H818.8V-745.7z"/>
	<path id="Path_45163" fill="#716C61" d="M819.8-750.6v-2c0.9-0.1,1.7-0.3,2.5-0.7c0.5-0.3,0.7-0.6,0.7-0.8v-22.8
		c-0.5-0.5-1-0.9-1.6-1.2c-0.5-0.3-1.1-0.5-1.6-0.6v-2h7.2c0.2,0,0.4,0,0.6,0.1c0.2,0.1,0.3,0.1,0.5,0.3c0.2,0.2,0.4,0.4,0.5,0.6
		l0.7,1l14.2,19.7v-18.1c0-0.1-0.1-0.2-0.1-0.3c-0.1-0.2-0.3-0.3-0.5-0.4c-0.3-0.2-0.6-0.3-1-0.4c-0.5-0.1-1-0.3-1.6-0.3v-2h10.2v2
		c-0.9,0.1-1.7,0.3-2.5,0.7c-0.5,0.3-0.8,0.6-0.8,0.8v27.3c-0.8-0.1-1.6-0.2-2.4-0.4c-0.6-0.2-1.3-0.4-1.9-0.7
		c-0.5-0.2-1-0.5-1.4-0.9c-0.4-0.3-0.7-0.6-1-1l-13.8-19.1v17.9c0,0.1,0.1,0.2,0.2,0.3c0.1,0.2,0.3,0.3,0.5,0.4
		c0.3,0.2,0.6,0.3,1,0.4c0.5,0.1,1,0.3,1.5,0.3v2L819.8-750.6z"/>
	<path id="Path_45164" fill="#716C61" d="M876.5-758.3c-0.1,0.7-0.1,1.4-0.2,2.2c-0.1,0.8-0.2,1.6-0.3,2.3c-0.1,0.7-0.2,1.4-0.3,2
		s-0.2,1-0.2,1.2h-23.2v-2c0.8-0.1,1.6-0.4,2.4-0.7c0.5-0.3,0.8-0.5,0.8-0.7v-23.1c0-0.2-0.3-0.4-0.8-0.7c-0.8-0.4-1.6-0.6-2.5-0.8
		v-2h21.6l1,0.8c0,0.4-0.1,1-0.1,1.6c-0.1,0.7-0.1,1.3-0.2,2c-0.1,0.7-0.2,1.4-0.3,2c-0.1,0.5-0.2,0.9-0.3,1.4h-2
		c0-1.2-0.2-2.4-0.6-3.5c-0.3-0.8-0.8-1.3-1.4-1.3h-7.8v9.4h9.4l0.9,0.9c-0.1,0.2-0.3,0.5-0.5,0.8c-0.2,0.3-0.4,0.6-0.6,0.9
		c-0.2,0.3-0.4,0.6-0.6,0.8c-0.2,0.2-0.3,0.4-0.6,0.6c-0.2-0.2-0.5-0.4-0.8-0.6c-0.3-0.2-0.6-0.3-1-0.4c-0.4-0.1-0.8-0.2-1.3-0.2
		c-0.5,0-1.1-0.1-1.7-0.1h-3.4v10.2c0,0.2,0.1,0.4,0.2,0.6c0.2,0.2,0.4,0.4,0.7,0.5c0.5,0.2,1,0.3,1.5,0.3c0.8,0.1,1.7,0.1,2.5,0.1
		h2.1c0.6,0,1.3-0.1,1.9-0.3c0.5-0.2,1-0.5,1.4-0.9c0.4-0.5,0.8-1,1.1-1.6c0.4-0.8,0.7-1.6,1-2.4L876.5-758.3z"/>
	<path id="Path_45165" fill="#716C61" d="M918.9-778.6c-0.7,0.1-1.3,0.3-1.7,0.4c-0.4,0.1-0.7,0.2-1.1,0.4c-0.2,0.1-0.4,0.2-0.6,0.3
		c-0.1,0.1-0.2,0.2-0.2,0.4l-5.5,25.1c-0.1,0.3-0.3,0.6-0.5,0.9c-0.3,0.3-0.6,0.5-1,0.6c-0.4,0.2-0.7,0.3-1.1,0.4
		c-0.4,0.1-0.7,0.2-0.9,0.2l-8.2-21l-6.8,18.9c-0.1,0.3-0.3,0.6-0.6,0.9c-0.3,0.2-0.6,0.4-1,0.6c-0.4,0.2-0.8,0.3-1.2,0.4
		c-0.4,0.1-0.8,0.2-1.1,0.3l-6.2-27.1c-0.1-0.4-0.4-0.8-0.9-1c-0.8-0.3-1.6-0.6-2.4-0.7v-2h12.1v2c-0.6,0.1-1.2,0.2-1.8,0.3
		c-0.3,0.1-0.6,0.2-0.9,0.4c-0.2,0.1-0.3,0.3-0.3,0.5c0,0.2,0,0.3,0,0.5l3.9,16.1l6.7-19.7h2.7l7.8,19.8l3.6-16.3
		c0-0.2-0.1-0.4-0.2-0.5c-0.2-0.2-0.5-0.3-0.8-0.4c-0.4-0.1-0.8-0.2-1.2-0.3l-1.5-0.3v-2h10.8L918.9-778.6z"/>
	<path id="Path_45166" fill="#716C61" d="M942.6-759.6c0,0.7-0.1,1.5-0.3,2.2c-0.2,0.8-0.6,1.5-1,2.2c-0.5,0.8-1,1.4-1.7,2
		c-0.7,0.7-1.5,1.2-2.4,1.7c-1,0.5-2,0.9-3.1,1.1c-1.2,0.3-2.5,0.4-3.8,0.4c-0.7,0-1.4-0.1-2-0.2c-0.8-0.1-1.6-0.3-2.4-0.5
		c-0.8-0.2-1.6-0.4-2.4-0.7c-0.7-0.2-1.4-0.6-2-1c-0.1,0-0.1-0.2-0.2-0.5c-0.1-0.4-0.1-0.7-0.1-1.1c0-0.4,0-0.9,0-1.5
		c0-0.6,0-1.1,0.1-1.7c0-0.6,0.1-1.1,0.2-1.7c0.1-0.5,0.2-1,0.3-1.5l1.9,0.1c0.4,0.9,0.8,1.8,1.3,2.6c0.5,0.8,1.1,1.5,1.7,2.1
		c0.6,0.6,1.3,1,2.1,1.4c0.7,0.3,1.5,0.5,2.3,0.5c0.7,0,1.4-0.1,2-0.3c0.6-0.2,1.2-0.4,1.7-0.8c0.5-0.4,0.9-0.8,1.2-1.4
		c0.3-0.6,0.4-1.3,0.4-2c0-0.9-0.2-1.7-0.6-2.5c-0.4-0.7-1-1.4-1.7-1.9c-0.8-0.6-1.6-1.1-2.4-1.5c-0.9-0.4-1.8-0.9-2.8-1.3
		c-0.9-0.4-1.9-0.9-2.8-1.4c-0.9-0.5-1.7-1-2.4-1.7c-0.7-0.6-1.3-1.4-1.7-2.2c-0.4-0.9-0.7-2-0.6-3c0-0.6,0.1-1.1,0.3-1.6
		c0.2-0.6,0.5-1.2,0.9-1.8c0.4-0.6,1-1.2,1.5-1.7c0.7-0.6,1.4-1.1,2.2-1.5c0.9-0.4,1.9-0.8,2.9-1c1.2-0.3,2.4-0.4,3.6-0.4
		c0.9,0,1.8,0.1,2.6,0.2c0.8,0.1,1.6,0.3,2.4,0.5c0.7,0.2,1.3,0.4,2,0.7c0.5,0.2,0.9,0.5,1.3,0.9c0.1,0.1,0.1,0.2,0.1,0.5
		c-0.1,0.3-0.1,0.6-0.2,0.9c-0.1,0.3-0.3,0.7-0.4,1.1c-0.2,0.4-0.3,0.8-0.5,1.1c-0.2,0.4-0.4,0.7-0.5,1c-0.1,0.2-0.3,0.4-0.5,0.6
		l-1.8-0.1c-0.3-0.7-0.7-1.4-1.1-2c-0.4-0.5-0.9-1-1.4-1.3c-0.5-0.3-1-0.6-1.5-0.7c-0.5-0.1-1-0.2-1.4-0.2c-0.7,0-1.3,0.1-2,0.3
		c-0.5,0.2-0.9,0.4-1.3,0.8c-0.3,0.3-0.6,0.7-0.8,1.1c-0.2,0.4-0.2,0.9-0.2,1.3c0,0.7,0.2,1.4,0.7,2c0.5,0.6,1.1,1.2,1.7,1.6
		c0.8,0.5,1.6,1,2.4,1.4l2.8,1.4c1,0.5,1.9,1,2.8,1.5c0.9,0.5,1.7,1.2,2.4,1.9c0.7,0.7,1.3,1.5,1.7,2.4
		C942.4-761.7,942.6-760.7,942.6-759.6L942.6-759.6z"/>
	<path id="Path_45171" fill="none" stroke="#716C61" stroke-width="2.2471" stroke-linecap="round" stroke-miterlimit="4.0001" d="
		M887.5-639.9h82.7"/>
	<path id="Path_45172" fill="#A3C093" d="M885.9-725h123.4v81H885.9V-725z"/>
	<path id="Path_45173" fill="#BEDAAE" d="M885.9-725h123.4v53.3c0,0-25.3,5-32.9,2.7c-7.6-2.2-30.9,17.7-41.5,14.2
		s-12.7-14.9-24.6-15.7s-24.4,11-24.4,11V-725z"/>
	<path id="Path_45174" fill="#B3B3B3" d="M885.9-725h123.4v44c0,0-17.6-13.5-27.9-13.6c-14.3,0-24.4,16.6-38.6,18.5
		c-13.2,1.8-26.1-7-39.4-7.3c-5.9-0.1-17.5,2.4-17.5,2.4L885.9-725z"/>
	<path id="Path_45175" fill="#F2F2F2" d="M885.9-725h123.4v31.8c0,0-1.3-11.8-5.9-13.8c-7.3-3.2-15.3,4.9-22.7,7.9
		c-6.3,2.5-11.7,7.9-18.5,8.4c-6.3,0.5-12.2-7.1-18.2-5.2c-4.2,1.3-4.1,8.7-8.2,10.2c-7.6,2.7-16-2.6-23.7-5
		c-7.2-2.3-13.4-9.7-20.9-8.8c-2.2,0.3-5.4,3.9-5.4,3.9V-725z"/>
	<path id="Path_45176" fill="#DAE5EB" d="M885.9-725h123.4v26.9c0,0-1.8-10-5.9-11.4c-7.9-2.7-14.9,7.3-22.7,10.3
		c-6,2.3-12,6.2-18.5,6c-6.6-0.3-11.8-9.2-18.2-7.6c-4.2,1.1-4.3,8.3-8.2,10.2c-7.1,3.4-16,1.8-23.7-0.2c-7.7-2-20.9-11.3-20.9-11.3
		l-5.4,1.5V-725z"/>
	<path id="Path_45177" fill="none" stroke="#716C61" stroke-width="1.385" stroke-linecap="round" stroke-miterlimit="4.0001" d="
		M821.9-737.4h38.4"/>
	<path id="Path_45213" fill="none" stroke="#716C61" stroke-width="1.385" stroke-linecap="round" stroke-miterlimit="4.0001" d="
		M835.1-722.8h38.4"/>
	<path id="Path_45250" fill="none" stroke="#716C61" stroke-width="1.385" stroke-linecap="round" stroke-miterlimit="4.0001" d="
		M1036.9-722.8h32.7"/>
	<path id="Path_45214" fill="none" stroke="#716C61" stroke-width="1.385" stroke-linecap="round" stroke-miterlimit="4.0001" d="
		M835.1-716.3h38.4"/>
	<path id="Path_45249" fill="none" stroke="#716C61" stroke-width="1.385" stroke-linecap="round" stroke-miterlimit="4.0001" d="
		M1036.9-716.3h38.4"/>
	<path id="Path_45215" fill="none" stroke="#716C61" stroke-width="1.385" stroke-linecap="round" stroke-miterlimit="4.0001" d="
		M835.1-709.7h38.4"/>
	<path id="Path_45248" fill="none" stroke="#716C61" stroke-width="1.385" stroke-linecap="round" stroke-miterlimit="4.0001" d="
		M1036.9-709.7h38.4"/>
	<path id="Path_45216" fill="none" stroke="#716C61" stroke-width="1.385" stroke-linecap="round" stroke-miterlimit="4.0001" d="
		M816.6-701.7h56.9"/>
	<path id="Path_45247" fill="none" stroke="#716C61" stroke-width="1.385" stroke-linecap="round" stroke-miterlimit="4.0001" d="
		M1018.5-701.7h56.9"/>
	<path id="Path_45217" fill="none" stroke="#716C61" stroke-width="1.385" stroke-linecap="round" stroke-miterlimit="4.0001" d="
		M816.6-693.8h56.9"/>
	<path id="Path_45246" fill="none" stroke="#716C61" stroke-width="1.385" stroke-linecap="round" stroke-miterlimit="4.0001" d="
		M1018.5-693.8h56.9"/>
	<path id="Path_45218" fill="none" stroke="#716C61" stroke-width="1.385" stroke-linecap="round" stroke-miterlimit="4.0001" d="
		M816.6-685.9h56.9"/>
	<path id="Path_45245" fill="none" stroke="#716C61" stroke-width="1.385" stroke-linecap="round" stroke-miterlimit="4.0001" d="
		M1018.5-685.9h56.9"/>
	<path id="Path_45219" fill="none" stroke="#716C61" stroke-width="1.385" stroke-linecap="round" stroke-miterlimit="4.0001" d="
		M816.6-678h56.9"/>
	<path id="Path_45244" fill="none" stroke="#716C61" stroke-width="1.385" stroke-linecap="round" stroke-miterlimit="4.0001" d="
		M1018.5-678h56.9"/>
	<path id="Path_45220" fill="none" stroke="#716C61" stroke-width="1.385" stroke-linecap="round" stroke-miterlimit="4.0001" d="
		M816.6-670.1h56.9"/>
	<path id="Path_45243" fill="none" stroke="#716C61" stroke-width="1.385" stroke-linecap="round" stroke-miterlimit="4.0001" d="
		M1018.5-670.1h56.9"/>
	<path id="Path_45221" fill="none" stroke="#716C61" stroke-width="1.385" stroke-linecap="round" stroke-miterlimit="4.0001" d="
		M816.6-662.2h56.9"/>
	<path id="Path_45242" fill="none" stroke="#716C61" stroke-width="1.385" stroke-linecap="round" stroke-miterlimit="4.0001" d="
		M1018.5-662.2h56.9"/>
	<path id="Path_45222" fill="none" stroke="#716C61" stroke-width="1.385" stroke-linecap="round" stroke-miterlimit="4.0001" d="
		M816.6-654.2h56.9"/>
	<path id="Path_45241" fill="none" stroke="#716C61" stroke-width="1.385" stroke-linecap="round" stroke-miterlimit="4.0001" d="
		M1018.5-654.2h56.9"/>
	<path id="Path_45223" fill="none" stroke="#716C61" stroke-width="1.385" stroke-linecap="round" stroke-miterlimit="4.0001" d="
		M816.6-646.3h56.9"/>
	<path id="Path_45240" fill="none" stroke="#716C61" stroke-width="1.385" stroke-linecap="round" stroke-miterlimit="4.0001" d="
		M1018.5-646.3h56.9"/>
	<path id="Path_45224" fill="none" stroke="#716C61" stroke-width="1.385" stroke-linecap="round" stroke-miterlimit="4.0001" d="
		M816.6-638.4h56.9"/>
	<path id="Path_45239" fill="none" stroke="#716C61" stroke-width="1.385" stroke-linecap="round" stroke-miterlimit="4.0001" d="
		M1018.5-638.4h56.9"/>
	<path id="Path_45251" fill="none" stroke="#716C61" stroke-width="1.385" stroke-linecap="round" stroke-miterlimit="4.0001" d="
		M1018.5-630.5h56.9"/>
	<path id="Path_45252" fill="none" stroke="#716C61" stroke-width="1.385" stroke-linecap="round" stroke-miterlimit="4.0001" d="
		M1018.5-622.6h56.9"/>
	<path id="Path_45253" fill="none" stroke="#716C61" stroke-width="1.385" stroke-linecap="round" stroke-miterlimit="4.0001" d="
		M1018.5-614.7h56.9"/>
	<path id="Path_45254" fill="none" stroke="#716C61" stroke-width="1.385" stroke-linecap="round" stroke-miterlimit="4.0001" d="
		M1034.3-604.6h41"/>
	<path id="Path_45255" fill="none" stroke="#716C61" stroke-width="1.385" stroke-linecap="round" stroke-miterlimit="4.0001" d="
		M1034.3-598h41"/>
	<path id="Path_45256" fill="none" stroke="#716C61" stroke-width="1.385" stroke-linecap="round" stroke-miterlimit="4.0001" d="
		M1034.3-591.4h41"/>
	<path id="Path_45257" fill="none" stroke="#716C61" stroke-width="1.385" stroke-linecap="round" stroke-miterlimit="4.0001" d="
		M1018.7-584.8h56.6"/>
	<path id="Path_45225" fill="none" stroke="#716C61" stroke-width="1.385" stroke-linecap="round" stroke-miterlimit="4.0001" d="
		M816.6-630.5h56.9"/>
	<path id="Path_45226" fill="none" stroke="#716C61" stroke-width="1.385" stroke-linecap="round" stroke-miterlimit="4.0001" d="
		M816.6-622.6h56.9"/>
	<path id="Path_45227" fill="none" stroke="#716C61" stroke-width="1.385" stroke-linecap="round" stroke-miterlimit="4.0001" d="
		M816.6-614.7h56.9"/>
	<path id="Path_45228" fill="none" stroke="#716C61" stroke-width="1.385" stroke-linecap="round" stroke-miterlimit="4.0001" d="
		M816.6-606.7h56.9"/>
	<path id="Path_45229" fill="none" stroke="#716C61" stroke-width="1.385" stroke-linecap="round" stroke-miterlimit="4.0001" d="
		M816.6-598.8h56.9"/>
	<path id="Path_45230" fill="none" stroke="#716C61" stroke-width="1.385" stroke-linecap="round" stroke-miterlimit="4.0001" d="
		M816.6-590.9h56.9"/>
	<path id="Path_45231" fill="none" stroke="#716C61" stroke-width="1.385" stroke-linecap="round" stroke-miterlimit="4.0001" d="
		M816.6-583h56.9"/>
	<path id="Path_45232" fill="none" stroke="#716C61" stroke-width="1.385" stroke-linecap="round" stroke-miterlimit="4.0001" d="
		M886.5-633.1h122.7"/>
	<path id="Path_45233" fill="none" stroke="#716C61" stroke-width="1.385" stroke-linecap="round" stroke-miterlimit="4.0001" d="
		M886.5-625.2h122.7"/>
	<path id="Path_45234" fill="none" stroke="#716C61" stroke-width="1.385" stroke-linecap="round" stroke-miterlimit="4.0001" d="
		M886.5-617.3h122.7"/>
	<path id="Path_45235" fill="none" stroke="#716C61" stroke-width="1.385" stroke-linecap="round" stroke-miterlimit="4.0001" d="
		M886.5-609.4h122.7"/>
	<path id="Path_45236" fill="none" stroke="#716C61" stroke-width="1.385" stroke-linecap="round" stroke-miterlimit="4.0001" d="
		M886.5-601.5h122.7"/>
	<path id="Path_45237" fill="none" stroke="#716C61" stroke-width="1.385" stroke-linecap="round" stroke-miterlimit="4.0001" d="
		M886.5-593.6h122.7"/>
	<path id="Path_45238" fill="none" stroke="#716C61" stroke-width="1.385" stroke-linecap="round" stroke-miterlimit="4.0001" d="
		M886.5-585.6h122.7"/>
	<path id="Path_45178" fill="none" stroke="#716C61" stroke-width="1.385" stroke-linecap="round" stroke-miterlimit="4.0001" d="
		M821.9-733.1h19.8"/>
	<path id="Path_45179" fill="none" stroke="#716C61" stroke-width="2.2471" stroke-linecap="round" stroke-miterlimit="4.0001" d="
		M1000.6-639.9h7.2"/>
	<path id="Path_45182" fill="#716C61" d="M833.6-716.4c0,1-0.1,2-0.3,3c-0.2,0.8-0.5,1.6-1,2.4c-0.4,0.7-0.9,1.2-1.4,1.7
		c-0.5,0.5-1.1,0.9-1.7,1.2c-0.6,0.3-1.3,0.5-1.9,0.7c-0.6,0.1-1.3,0.2-2,0.2h-8.2v-1.1c0.5-0.1,0.9-0.2,1.4-0.4
		c0.3-0.1,0.5-0.3,0.5-0.4v-13.7l-1.8,0.3l-0.2-1.4c0.5-0.1,1-0.2,1.7-0.3s1.3-0.2,2-0.3c0.7-0.1,1.4-0.1,2.1-0.2
		c0.7,0,1.4-0.1,2-0.1c1.3,0,2.6,0.2,3.8,0.6c1,0.3,2,0.9,2.8,1.6c0.8,0.7,1.4,1.6,1.7,2.6C833.5-718.8,833.7-717.6,833.6-716.4
		L833.6-716.4z M823.7-723.2l-0.5,0c-0.2,0-0.3,0-0.5,0v13.4c0,0.1,0,0.3,0,0.4c0,0.1,0.1,0.3,0.2,0.3c0.2,0.1,0.4,0.2,0.6,0.2
		c0.4,0.1,0.7,0.1,1.1,0.1c0.6,0,1.1-0.1,1.6-0.4c0.6-0.3,1.1-0.7,1.6-1.3c0.5-0.7,0.9-1.4,1.2-2.2c0.3-1.1,0.5-2.2,0.5-3.3
		c0.1-1.9-0.4-3.9-1.5-5.5C827-722.6,825.4-723.3,823.7-723.2L823.7-723.2z"/>
	<path id="Path_45184" fill="#716C61" d="M1018.1-588.8v-1.1c0.5-0.1,0.9-0.2,1.4-0.4c0.3-0.1,0.5-0.3,0.5-0.4V-604
		c0-0.1-0.1-0.2-0.4-0.4c-0.4-0.2-0.9-0.4-1.4-0.4v-1.1h12.5l0.6,0.5c0,0.2,0,0.5-0.1,0.9s-0.1,0.8-0.1,1.2
		c-0.1,0.4-0.1,0.8-0.2,1.1c0,0.3-0.1,0.5-0.2,0.8h-1.2c0-0.7-0.1-1.4-0.3-2c-0.2-0.5-0.5-0.7-0.8-0.7h-4.5v5.4h5l0.5,0.5
		c-0.1,0.2-0.2,0.3-0.3,0.5c-0.1,0.2-0.2,0.3-0.3,0.5c-0.1,0.2-0.2,0.3-0.3,0.5c-0.1,0.1-0.2,0.2-0.3,0.3c-0.1-0.1-0.3-0.2-0.4-0.3
		c-0.2-0.1-0.4-0.2-0.5-0.2c-0.2-0.1-0.5-0.1-0.7-0.1c-0.3,0-0.6,0-1,0h-1.5v6.5c0,0.1,0,0.1,0.1,0.2c0.1,0.1,0.2,0.2,0.4,0.2
		c0.2,0.1,0.5,0.2,0.7,0.2c0.3,0.1,0.7,0.2,1.1,0.2v1.1L1018.1-588.8z"/>
	
		<linearGradient id="Path_45186_1_" gradientUnits="userSpaceOnUse" x1="1295.0521" y1="-236.3953" x2="1294.4851" y2="-236.6213" gradientTransform="matrix(76.6876 70.7296 37.3628 -145.1732 -89405.6172 -126667.5781)">
		<stop  offset="0" style="stop-color:#E3E3D9"/>
		<stop  offset="0.5" style="stop-color:#FFFFFF"/>
		<stop  offset="1" style="stop-color:#F9F9F4"/>
	</linearGradient>
	<path id="Path_45186" fill="url(#Path_45186_1_)" d="M1003.7-808.9c46.9,16.9,85.7,94.2,85.3,161.5c-9.2-61.8-26.7-96.1-75.7-91.4
		C1020.3-768.5,1017.9-795.6,1003.7-808.9L1003.7-808.9z"/>
	<path id="Path_45187" fill="#716C61" d="M1033.2-724.4c0,0,0,0.1,0,0.3c-0.1,0.2-0.1,0.4-0.2,0.6c-0.1,0.2-0.2,0.5-0.3,0.7
		s-0.3,0.5-0.4,0.7c-0.1,0.2-0.3,0.4-0.4,0.6c-0.1,0.1-0.2,0.3-0.3,0.4l-1-0.2c-0.3-0.4-0.6-0.9-0.9-1.2c-0.3-0.3-0.6-0.6-0.9-0.8
		c-0.3-0.2-0.6-0.3-1-0.4c-0.4-0.1-0.7-0.1-1.1-0.1c-0.3,0-0.5,0.1-0.8,0.1c-0.3,0.1-0.6,0.3-0.9,0.5c-0.3,0.2-0.6,0.5-0.9,0.8
		c-0.3,0.4-0.6,0.8-0.8,1.3c-0.3,0.6-0.4,1.2-0.6,1.9c-0.1,0.8-0.2,1.7-0.2,2.5c0,1,0.1,2.1,0.4,3.1c0.2,0.8,0.6,1.5,1.1,2.1
		c0.4,0.5,0.9,0.9,1.5,1.2c0.6,0.3,1.2,0.4,1.8,0.4c0.4,0,0.8,0,1.2-0.1c0.3-0.1,0.6-0.2,0.9-0.3v-4c0-0.1,0-0.2,0-0.3
		c0-0.1-0.1-0.2-0.2-0.3c-0.2-0.1-0.4-0.2-0.6-0.3c-0.4-0.1-0.8-0.2-1.2-0.3v-1.1h7v1.1c-0.2,0-0.4,0.1-0.6,0.2
		c-0.1,0.1-0.3,0.2-0.4,0.3c-0.1,0.1-0.2,0.2-0.2,0.3c0,0.1-0.1,0.2-0.1,0.3v4c-0.6,0.5-1.2,1-1.9,1.4c-0.5,0.3-1.1,0.6-1.7,0.9
		c-0.9,0.4-1.9,0.6-2.8,0.6c-0.7,0-1.3-0.1-2-0.2c-0.7-0.1-1.3-0.4-1.9-0.7c-0.6-0.3-1.2-0.7-1.6-1.2c-0.5-0.5-1-1-1.3-1.6
		c-0.4-0.7-0.7-1.4-0.9-2.1c-0.2-0.8-0.3-1.7-0.3-2.6c0-1.4,0.2-2.8,0.7-4.1c0.5-1.1,1.1-2.2,2-3c0.9-0.8,1.9-1.5,3.1-1.9
		c1.2-0.4,2.5-0.7,3.8-0.7c0.4,0,0.7,0,1.1,0.1c0.4,0.1,0.9,0.2,1.3,0.3c0.5,0.1,0.9,0.3,1.3,0.4
		C1032.5-724.8,1032.8-724.6,1033.2-724.4L1033.2-724.4z"/>
	<path id="Path_45188" fill="none" stroke="#716C61" stroke-width="0.462" stroke-miterlimit="4.0001" d="M889-738.5
		c-0.2,0-0.4,0-0.6,0.1c-0.2,0-0.3,0.1-0.5,0.2c-0.1,0-0.1,0.1-0.2,0.1c-0.1,0-0.2,0.1-0.3,0.2l-0.2,0.1c-0.1,0-0.1,0.1-0.2,0.1
		c-0.1,0.1-0.1,0.1-0.2,0.2c-0.1,0.1-0.1,0.1-0.2,0.2c-0.1,0.1-0.1,0.2-0.2,0.3c-0.1,0.1-0.2,0.3-0.2,0.4c0,0.1-0.1,0.2-0.1,0.2
		l0,0.1c0,0.1-0.1,0.3-0.1,0.4v0c0,0.2-0.1,0.4-0.1,0.6c0,0.8,0.3,1.5,0.8,2.1l0.1,0.1c0,0.1,0.1,0.1,0.2,0.2
		c0.1,0.1,0.2,0.2,0.3,0.2c0.1,0.1,0.2,0.1,0.3,0.2l0.2,0.1c0.1,0,0.3,0.1,0.4,0.1l0.2,0.1c0.2,0,0.4,0.1,0.6,0.1
		c0.2,0,0.4,0,0.6-0.1c0.4-0.1,0.8-0.2,1.1-0.5c0,0,0-0.1,0.1-0.1c1.1-0.8,1.6-2.3,1.1-3.6c0-0.1-0.1-0.2-0.1-0.2
		c-0.2-0.5-0.6-0.9-1-1.2l-0.2-0.1c-0.1-0.1-0.2-0.1-0.3-0.2c-0.2-0.1-0.4-0.2-0.7-0.3C889.4-738.5,889.2-738.5,889-738.5L889-738.5
		z M920.6-738.5c-0.2,0-0.4,0-0.6,0.1c-1.7,0.4-2.8,2-2.4,3.7c0.3,1.4,1.6,2.5,3.1,2.5c0.3,0,0.5,0,0.8-0.1c0.2-0.1,0.5-0.2,0.7-0.3
		c1.5-0.8,2.1-2.7,1.3-4.2c-0.3-0.6-0.7-1-1.3-1.3c0,0,0,0,0,0c-0.2-0.1-0.4-0.1-0.5-0.2c-0.1,0-0.1-0.1-0.2-0.1
		C921.1-738.5,920.8-738.5,920.6-738.5L920.6-738.5z M953.6-738.5c-0.2,0-0.4,0-0.6,0.1c-0.2,0-0.3,0.1-0.5,0.2
		c-0.1,0-0.1,0.1-0.2,0.1c-0.1,0-0.2,0.1-0.3,0.2l-0.2,0.1c-0.1,0-0.1,0.1-0.2,0.1c-0.1,0.1-0.1,0.1-0.2,0.2s-0.1,0.1-0.2,0.2
		c-0.1,0.1-0.1,0.2-0.2,0.3c-0.1,0.1-0.2,0.3-0.2,0.4c0,0.1-0.1,0.2-0.1,0.2l0,0.1c0,0.1-0.1,0.3-0.1,0.4v0c0,0.2-0.1,0.4-0.1,0.6
		c0,0.8,0.3,1.5,0.8,2.1l0.1,0.1c0,0.1,0.1,0.1,0.2,0.2c0.1,0.1,0.2,0.2,0.3,0.2c0.1,0.1,0.2,0.1,0.3,0.2l0.2,0.1
		c0.1,0,0.3,0.1,0.4,0.1l0.2,0.1c0.2,0,0.4,0.1,0.6,0.1c0.2,0,0.4,0,0.6-0.1c0.4-0.1,0.8-0.2,1.1-0.5c0,0,0-0.1,0.1-0.1
		c1.1-0.8,1.6-2.3,1.1-3.6c0-0.1-0.1-0.2-0.1-0.2c-0.2-0.5-0.6-0.9-1-1.2l-0.2-0.1c-0.1-0.1-0.2-0.1-0.3-0.2
		c-0.2-0.1-0.4-0.2-0.7-0.3C954-738.5,953.8-738.5,953.6-738.5L953.6-738.5z M985.2-738.5c-1.7,0-3.1,1.4-3.1,3.1s1.4,3.1,3.1,3.1
		l0,0c0.3,0,0.5,0,0.8-0.1c1.7-0.4,2.7-2.1,2.3-3.7c-0.2-0.9-0.8-1.6-1.6-2c-0.2-0.1-0.4-0.1-0.6-0.2c-0.1,0-0.1-0.1-0.2-0.1
		C985.7-738.5,985.4-738.5,985.2-738.5L985.2-738.5z"/>
	<path id="Path_45189" fill="none" stroke="#716C61" stroke-width="1.385" stroke-linecap="round" stroke-miterlimit="4.0001" d="
		M896.5-735.8h14"/>
	<path id="Path_45190" opacity="0.25" fill="#330080" enable-background="new    " d="M923.7-735.4c0,1.7-1.4,3.1-3.1,3.1
		c-1.7,0-3.1-1.4-3.1-3.1c0-1.7,1.4-3.1,3.1-3.1c0,0,0,0,0,0C922.3-738.5,923.7-737.1,923.7-735.4z"/>
	<path id="Path_45191" opacity="0.25" fill="#D4AA00" enable-background="new    " d="M920.6-738.5c-1.7,0-3.1,1.3-3.2,3.1
		s1.3,3.1,3.1,3.2c0.5,0,1.1-0.1,1.5-0.4c-1.5,0-2.7-1.2-2.7-2.8c0-1.5,1.2-2.7,2.8-2.7C921.6-738.4,921.1-738.5,920.6-738.5
		L920.6-738.5z"/>
	<path id="Path_45192" opacity="0.25" fill="#FAE17A" enable-background="new    " d="M923.5-735.7l-0.9-0.1l-0.4,0.8l-0.2-0.9
		l-0.9-0.1l0.8-0.4l-0.2-0.9l0.7,0.6l0.8-0.4l-0.4,0.8L923.5-735.7z"/>
	<path id="Path_45193" opacity="0.25" fill="#FAE17A" enable-background="new    " d="M921.2-733.8l-0.3-0.3l-0.4,0.2l0.2-0.4
		l-0.3-0.4l0.4,0.1l0.3-0.4l0,0.5l0.4,0.1l-0.4,0.2L921.2-733.8z"/>
	<path id="Path_45194" fill="none" stroke="#716C61" stroke-width="1.385" stroke-linecap="round" stroke-miterlimit="4.0001" d="
		M928.2-735.8h10.2"/>
	<path id="Path_45195" fill="none" stroke="#716C61" stroke-width="1.385" stroke-linecap="round" stroke-miterlimit="4.0001" d="
		M941-735.8h2.7"/>
	<path id="Path_45196" opacity="0.25" fill="#5F8DD3" enable-background="new    " d="M892.1-735.4c0,1.7-1.4,3.1-3.1,3.1
		c-1.7,0-3.1-1.4-3.1-3.1c0-1.7,1.4-3.1,3.1-3.1c0,0,0,0,0,0C890.7-738.5,892.1-737.1,892.1-735.4z"/>
	<path id="Path_45197" opacity="0.25" fill="#FFCC00" enable-background="new    " d="M889-738.5c-1.5,0-2.8,1.1-3,2.5h6.1
		C891.8-737.4,890.5-738.5,889-738.5L889-738.5z"/>
	<path id="Path_45198" opacity="0.25" fill="#FFF6D5" enable-background="new    " d="M891.1-735.7c0,0.8-0.6,1.4-1.4,1.4
		c-0.8,0-1.4-0.6-1.4-1.4c0-0.8,0.6-1.4,1.4-1.4c0,0,0,0,0,0C890.4-737.1,891.1-736.5,891.1-735.7z"/>
	<path id="Path_45199" opacity="0.25" fill="#2CA02C" enable-background="new    " d="M886.7-733.3c0.6,0.7,1.4,1,2.3,1
		c0.9,0,1.7-0.4,2.3-1C891.3-733.3,886.7-733.3,886.7-733.3z"/>
	<path id="Path_45200" fill="none" stroke="#716C61" stroke-width="1.385" stroke-linecap="round" stroke-miterlimit="4.0001" d="
		M961.1-735.8h14"/>
	<path id="Path_45201" fill="none" stroke="#716C61" stroke-width="1.385" stroke-linecap="round" stroke-miterlimit="4.0001" d="
		M992.8-735.8h10.2"/>
	<path id="Path_45202" fill="none" stroke="#716C61" stroke-width="1.385" stroke-linecap="round" stroke-miterlimit="4.0001" d="
		M1005.6-735.8h2.7"/>
	<path id="Path_45203" opacity="0.25" fill="#5F8DD3" enable-background="new    " d="M956.7-735.4c0,1.7-1.4,3.1-3.1,3.1
		c-1.7,0-3.1-1.4-3.1-3.1c0-1.7,1.4-3.1,3.1-3.1l0,0C955.3-738.5,956.7-737.1,956.7-735.4z"/>
	<path id="Path_45204" opacity="0.25" fill="#FFCC00" enable-background="new    " d="M953.6-738.5c-1.5,0-2.8,1.1-3,2.5h6.1
		C956.4-737.4,955.1-738.5,953.6-738.5L953.6-738.5z"/>
	<path id="Path_45205" opacity="0.25" fill="#FFF6D5" enable-background="new    " d="M955.6-735.7c0,0.8-0.6,1.4-1.4,1.4
		c-0.8,0-1.4-0.6-1.4-1.4c0-0.8,0.6-1.4,1.4-1.4c0,0,0,0,0,0C955-737.1,955.6-736.5,955.6-735.7z"/>
	<path id="Path_45206" opacity="0.25" fill="#2CA02C" enable-background="new    " d="M951.3-733.3c0.6,0.7,1.4,1,2.3,1
		c0.9,0,1.7-0.4,2.3-1H951.3z"/>
	<path id="Path_45207" opacity="0.25" fill="#330080" enable-background="new    " d="M988.3-735.4c0,1.7-1.4,3.1-3.1,3.1
		c-1.7,0-3.1-1.4-3.1-3.1c0-1.7,1.4-3.1,3.1-3.1l0,0C986.9-738.5,988.3-737.1,988.3-735.4z"/>
	<path id="Path_45208" opacity="0.25" fill="#D4AA00" enable-background="new    " d="M985.2-738.5c-1.7,0-3.1,1.3-3.2,3.1
		s1.3,3.1,3.1,3.2c0.5,0,1.1-0.1,1.5-0.4c-1.5,0-2.7-1.2-2.7-2.8c0-1.5,1.2-2.7,2.8-2.7C986.2-738.4,985.7-738.5,985.2-738.5
		L985.2-738.5z"/>
	<path id="Path_45209" opacity="0.25" fill="#FAE17A" enable-background="new    " d="M988-735.7l-0.9-0.1l-0.4,0.8l-0.2-0.9
		l-0.9-0.1l0.8-0.4l-0.2-0.9l0.7,0.6l0.8-0.4l-0.4,0.8L988-735.7z"/>
	<path id="Path_45210" opacity="0.25" fill="#FAE17A" enable-background="new    " d="M985.8-733.8l-0.3-0.3l-0.4,0.2l0.2-0.4
		l-0.3-0.4l0.4,0.1l0.3-0.4l0,0.5l0.4,0.1l-0.4,0.2L985.8-733.8z"/>
	<path id="Path_45211" opacity="0.75" fill="#716C61" enable-background="new    " d="M1034.3-788.6c1.9,12.9,1.8,17.2,1.8,20.5
		c-0.1,0.8,0.5,1.6,1.3,1.6s1.6-0.5,1.6-1.3c0,0,0-0.1,0-0.1c0.3-3.7,0.1-5.3-1.3-17.2C1036.6-786.2,1035.4-787.5,1034.3-788.6
		L1034.3-788.6z M1041.8-780.6c1.2,11,0.8,7.8,0.8,13.7c-0.2,0.8,0.3,1.6,1.1,1.8c0.8,0.2,1.6-0.3,1.8-1.1c0-0.1,0-0.2,0-0.3
		c1-9.3,0.4-0.3-0.4-10C1044-777.9,1042.9-779.3,1041.8-780.6L1041.8-780.6z M1049.1-771.4c0.5,5.3,0.3,5.3-0.2,7.1
		c-0.3,0.8,0,1.6,0.8,1.9c0.8,0.3,1.6,0,1.9-0.8c0-0.1,0.1-0.2,0.1-0.3c0.2-1.3,1.1-1.5,0.7-3.2
		C1051.3-768.2,1050.2-769.8,1049.1-771.4L1049.1-771.4z M1055.8-761.4c0,6.2-0.6,12.3-1.8,18.4c-0.2,0.8,0.2,1.6,1,1.8
		c0.8,0.2,1.6-0.2,1.8-1c0-0.1,0-0.2,0.1-0.3c0.9-4.7,1.5-9.5,1.7-14.3C1057.7-758.3,1056.8-759.8,1055.8-761.4L1055.8-761.4z
		 M1061.2-752.3c0,4.5-0.4,9-1.3,13.4c-0.2,0.8,0.3,1.6,1.1,1.8c0.8,0.2,1.6-0.3,1.8-1.1c0-0.1,0-0.1,0-0.2c0.6-2.9,1-5.8,1.2-8.8
		C1063.1-748.9,1062.2-750.6,1061.2-752.3L1061.2-752.3z M1066-743.2c0.1,3.4,0,6.7-0.3,10.1c-0.1,0.8,0.5,1.5,1.3,1.6
		c0.8,0.1,1.5-0.5,1.6-1.3c0,0,0,0,0,0c0.1-1.4,0.2-2.8,0.3-4.2C1068-739.1,1067-741.1,1066-743.2L1066-743.2z M1071.1-732.1
		c-0.1,1.3-0.1,2.7-0.2,4c0.1,0.9,0.8,1.5,1.7,1.5c0.2,0,0.5-0.1,0.7-0.2C1072.6-728.6,1071.9-730.3,1071.1-732.1L1071.1-732.1z"/>
	<path id="Path_45212" opacity="0.75" fill="#716C61" enable-background="new    " d="M1050.3-742.6l-1.1-0.2c0-0.5-0.1-1-0.2-1.4
		c-0.1-0.3-0.2-0.5-0.3-0.5c-4-1.9-8.3-3.6-13.1-2.7c-0.1,0-0.3,0.1-0.5,0.4c-0.3,0.4-0.5,0.9-0.6,1.3l-1.1-0.2
		c0.6-2.4,0.9-4.9,1.1-7.4l1.1,0.2c0,0.5,0.1,1,0.2,1.4c0.1,0.3,0.2,0.5,0.4,0.5c1.9-0.1,3.7,0.6,5.6,0.7l1-6.6
		c-1.9-0.2-3.7-0.8-5.6-0.7c-0.1,0-0.3,0.1-0.5,0.4c-0.3,0.4-0.5,0.9-0.6,1.3l-1.1-0.2c0.8-1.6,1.1-4.1,1.1-7.4l1.1,0.2
		c0,0.5,0.1,1,0.2,1.4c0.1,0.3,0.2,0.5,0.4,0.5c4.2-0.3,8.6,1,13.1,2.7c0.1,0,0.3-0.1,0.5-0.4c0.3-0.4,0.5-0.9,0.6-1.3l1.1,0.2
		c-0.4,3.2-0.6,4.7-1.1,7.4l-1.1-0.2c0-0.5-0.1-1-0.2-1.4c-0.1-0.3-0.2-0.5-0.3-0.5c-1.8-0.9-3.8-1.4-5.8-1.7l-1,6.6
		c2,0.2,4,0.8,5.8,1.7c0.1,0,0.3-0.1,0.5-0.4c0.3-0.4,0.5-0.9,0.6-1.3l1.1,0.2C1051.4-749,1050.8-745.2,1050.3-742.6L1050.3-742.6z"
		/>
</g>
</svg>
