<svg xmlns="http://www.w3.org/2000/svg" width="40" height="48" viewBox="0 0 40 48">
  <path id="Shape" d="M20,48h0a21.666,21.666,0,0,0-6.611-4.481A35.015,35.015,0,0,1,7.809,40.2a20.857,20.857,0,0,1-5.271-5.974L0,37.824V26l10.1,6.264H5.438A17.522,17.522,0,0,0,10.6,37.358,15.636,15.636,0,0,0,18,40V32.138a9.277,9.277,0,0,1-6.15-2.528,6.816,6.816,0,0,1,.664-10.116A15.791,15.791,0,0,1,18,16.906V15.794a7.375,7.375,0,0,0-2.036-5.028A6.975,6.975,0,0,1,14,6,6,6,0,1,1,26,6a7.034,7.034,0,0,1-1.964,4.767A7.435,7.435,0,0,0,22,15.794v.072c3.518-.853,7.507-1.82,8.067-3.94.375-1.429-.443-2.556-2.5-3.446a7.5,7.5,0,0,0,.246-4.17,10.122,10.122,0,0,1,5.061,3.233,6,6,0,0,1,1.061,5.406c-1.171,4.429-6.278,5.665-11.217,6.859l-.009,0L22,19.986V27.6a11.664,11.664,0,0,0,5.264-4.112L30.49,25.85A15.114,15.114,0,0,1,22,31.776v8.192a17.788,17.788,0,0,0,12.562-7.7H29.9L40,26V37.822l-2.538-3.6A20.864,20.864,0,0,1,32.19,40.2a35.009,35.009,0,0,1-5.579,3.32A21.672,21.672,0,0,0,20,48ZM18,21.12c-2.767.964-3.989,2.049-4.086,3.628-.135,2.187,2.117,3.2,4.086,3.4V21.12ZM20,4a2,2,0,1,0,2,2A2,2,0,0,0,20,4Z" fill="#333"/>
</svg>
