<svg id="Material_icons-08-28" data-name="Material icons-08-28" xmlns="http://www.w3.org/2000/svg" width="55" height="55" viewBox="0 0 55 55">
  <circle id="Ellipse_543" data-name="Ellipse 543" cx="4.57" cy="4.57" r="4.57" transform="translate(43.576 4.57)" fill="#0e6c75"/>
  <path id="Path_33790" data-name="Path 33790" d="M36.472,16.333a4.574,4.574,0,0,0-4.57-4.57H26l-8.479-8.47L14.293,6.526l8.47,8.461V41.466h4.57V27.757h2.285V41.466h4.57V27.757h2.285Z" transform="translate(18.528 4.231)" fill="#0e6c75"/>
  <path id="Path_33791" data-name="Path 33791" d="M13.709,24.57A4.571,4.571,0,0,0,9.139,20H4.57A4.571,4.571,0,0,0,0,24.57v4.57H13.709Z" transform="translate(0 25.861)" fill="#0e6c75"/>
  <circle id="Ellipse_544" data-name="Ellipse 544" cx="4.57" cy="4.57" r="4.57" transform="translate(2.285 34.396)" fill="#0e6c75"/>
  <path id="Path_33792" data-name="Path 33792" d="M7,24.57v4.57H20.709V24.57A4.571,4.571,0,0,0,16.139,20H11.57A4.571,4.571,0,0,0,7,24.57Z" transform="translate(9.058 25.861)" fill="#0e6c75"/>
  <circle id="Ellipse_545" data-name="Ellipse 545" cx="4.57" cy="4.57" r="4.57" transform="translate(18.344 34.396)" fill="#0e6c75"/>
  <rect id="Rectangle_12163" data-name="Rectangle 12163" width="22.848" height="4.57" transform="translate(32.152 48.146)" fill="#0e6c75"/>
  <path id="Path_33793" data-name="Path 33793" d="M36.557,27.418H4.57V4.57H38.842V0H0V31.988H36.557Z" fill="#0e6c75"/>
</svg>
