<?xml version="1.0" encoding="utf-8"?>
<!-- Generator: Adobe Illustrator 24.1.2, SVG Export Plug-In . SVG Version: 6.00 Build 0)  -->
<svg version="1.1" id="Слой_1" xmlns="http://www.w3.org/2000/svg" xmlns:xlink="http://www.w3.org/1999/xlink" x="0px" y="0px"
	 viewBox="0 0 1920.6 395.3" enable-background="new 0 0 1920.6 395.3" xml:space="preserve">
<g id="Group_20855" transform="translate(0.563 -885)">
	<g id="Group_15007" transform="translate(58 960.999)">
		<path id="Path_42860" fill-rule="evenodd" clip-rule="evenodd" fill="#69493B" d="M96.9-68.2h-2.3c-2.4,0-4.3,2.8-4.3,6.3v373.3
			c0,3.5,1.9,6.3,4.3,6.3h2.3c2.4,0,4.3-2.9,4.3-6.3V-61.9C101.1-65.4,99.2-68.2,96.9-68.2"/>
		<path id="Path_42861" fill-rule="evenodd" clip-rule="evenodd" fill="#5A867C" d="M180.4-54H38.9c2,2.8,3.9,5.7,5.7,8.7
			c1.3,2.2,2.7,4.3,4,6.5c14.8,5,28.6,12.5,40.8,22.2h91c0.7,0,1.3-0.1,1.9-0.3c0.8-0.2,1.5-0.5,2.2-1l21.2-14.4
			c2.5-1.7,2.5-4.4,0-6.1l-21.2-14.4c-0.8-0.5-1.6-0.9-2.6-1.1C181.5-53.9,181-54,180.4-54"/>
		<path id="Path_42862" fill-rule="evenodd" clip-rule="evenodd" fill="#5A867C" d="M27.2-4.2h145c3.5,0,6.3,2.8,6.3,6.3v24.6
			c0,3.5-2.8,6.3-6.3,6.3h-145c-0.7,0-1.3-0.1-1.9-0.3c-0.8-0.2-1.5-0.5-2.2-1L1.8,17.5c-2.5-1.7-2.5-4.4,0-6.1L23.1-2.9
			c0.8-0.5,1.6-0.9,2.6-1.1C26.1-4.1,26.7-4.2,27.2-4.2"/>
		<path id="Path_42863" fill-rule="evenodd" clip-rule="evenodd" fill="#D1C38E" d="M27.2-4.2h26l67.7,37.3H27.2
			c-0.7,0-1.3-0.1-1.9-0.3c-0.8-0.2-1.5-0.5-2.2-1L1.8,17.5c-2.5-1.7-2.5-4.4,0-6.1L23.1-2.9c0.8-0.5,1.6-0.9,2.6-1.1
			C26.1-4.1,26.7-4.2,27.2-4.2"/>
		<path id="Path_42864" fill-rule="evenodd" clip-rule="evenodd" fill="#D1C38E" d="M49.4-54H35.4c-3.5,0-6.3,2.8-6.3,6.3V-23
			c0,3.5,2.8,6.3,6.3,6.3h78.2L49.4-54z"/>
		<path id="Path_42865" fill-rule="evenodd" clip-rule="evenodd" fill="#5A867C" d="M63.6,33.1H27.2c-0.7,0-1.3-0.1-1.9-0.3
			c-0.8-0.2-1.5-0.5-2.2-1L1.8,17.5c-2.5-1.7-2.5-4.4,0-6.1l11-7.5L63.6,33.1z"/>
		<path id="Path_42866" fill-rule="evenodd" clip-rule="evenodd" fill="#5A867C" d="M29.1-40.6V-23c0,3.5,2.8,6.3,6.3,6.3h36
			L29.1-40.6z"/>
	</g>
	<g id="Sun" transform="translate(1670 1157.587)">
		
			<ellipse id="Ellipse_1739" transform="matrix(0.9732 -0.2298 0.2298 0.9732 1.1375 16.5468)" fill="#E4B62C" cx="71.6" cy="3.4" rx="54.3" ry="54.3"/>
	</g>
</g>
</svg>
