<svg xmlns="http://www.w3.org/2000/svg" width="97.84" height="82.659" viewBox="0 0 97.84 82.659">
  <g id="Leaves_bough" transform="matrix(0.966, -0.259, 0.259, 0.966, -11.023, 8.735)">
    <path id="Path_42684" data-name="Path 42684" d="M55,54.994A45,45,0,0,0,10,10l0,.005A45,45,0,0,0,55,55Z" fill="#29cb97" stroke="#75cc96" stroke-linecap="round" stroke-linejoin="round" stroke-miterlimit="10" stroke-width="2"/>
    <path id="Path_42685" data-name="Path 42685" d="M23.845,23.847,55,55Z" fill="none" stroke="#75cc96" stroke-linecap="round" stroke-linejoin="round" stroke-miterlimit="10" stroke-width="2"/>
    <path id="Path_42686" data-name="Path 42686" d="M32.5,41.152h0Z" fill="none" stroke="#75cc96" stroke-linecap="round" stroke-linejoin="round" stroke-miterlimit="10" stroke-width="2"/>
    <path id="Path_42687" data-name="Path 42687" d="M34.23,34.231v0Z" fill="none" stroke="#75cc96" stroke-linecap="round" stroke-linejoin="round" stroke-miterlimit="10" stroke-width="2"/>
    <path id="Path_42688" data-name="Path 42688" d="M55.006,80A35,35,0,0,0,90,45l0,0A35,35,0,0,0,55,80Z" fill="#29cb97" stroke="#75cc96" stroke-linecap="round" stroke-linejoin="round" stroke-miterlimit="10" stroke-width="2"/>
    <path id="Path_42689" data-name="Path 42689" d="M65,35A20,20,0,0,0,85,15h0A20,20,0,0,0,65,35Z" fill="#29cb97" stroke="#75cc96" stroke-linecap="round" stroke-linejoin="round" stroke-miterlimit="10" stroke-width="2"/>
    <path id="Path_42690" data-name="Path 42690" d="M79.23,55.77,55,80Z" fill="none" stroke="#75cc96" stroke-linecap="round" stroke-linejoin="round" stroke-miterlimit="10" stroke-width="2"/>
    <path id="Path_42691" data-name="Path 42691" d="M55,90V55.355a24.926,24.926,0,0,1,7.324-17.678L65,35l-2.678,2.679A24.921,24.921,0,0,0,55,55.355V90Z" fill="none" stroke="#75cc96" stroke-linecap="round" stroke-linejoin="round" stroke-miterlimit="10" stroke-width="2"/>
  </g>
</svg>
