<svg xmlns="http://www.w3.org/2000/svg" width="47.077" height="43.155" viewBox="0 0 47.077 43.155">
  <g id="Group_14913" data-name="Group 14913" transform="translate(10369 -4849.79)">
    <g id="Group_14912" data-name="Group 14912" transform="translate(195.765 31.285)">
      <path id="Material_icons-07-38" data-name="Material icons-07-38" d="M39.232,28.462a7.743,7.743,0,0,0-3.407.812L28.037,15.257a8.081,8.081,0,0,0,2.378-2.646,7.634,7.634,0,0,0,.97-3.764,7.846,7.846,0,1,0-12.344,6.411L11.254,29.275a7.743,7.743,0,0,0-3.407-.812,7.846,7.846,0,1,0,7.566,9.808H31.664a7.833,7.833,0,1,0,7.568-9.808ZM23.539,4.923a3.923,3.923,0,1,1-3.923,3.923A3.927,3.927,0,0,1,23.539,4.923Zm0,11.77a7.016,7.016,0,0,0,.765-.078l8.472,15.25a7.75,7.75,0,0,0-1.11,2.481H15.412a7.793,7.793,0,0,0-1.11-2.481l8.472-15.25A7.016,7.016,0,0,0,23.539,16.693ZM7.846,40.232a3.923,3.923,0,1,1,3.923-3.923A3.927,3.927,0,0,1,7.846,40.232Zm31.386,0a3.923,3.923,0,1,1,3.923-3.923A3.927,3.927,0,0,1,39.232,40.232Z" transform="translate(-10564.765 4817.505)" fill="#2e4354"/>
      <path id="Path_42768" data-name="Path 42768" d="M14.281,3.641h-.728V2.913a2.913,2.913,0,0,0-5.825,0v.728H7V9.466h7.281Zm-5.1-.728a1.456,1.456,0,1,1,2.913,0v.728H9.184Zm3.641,5.1H8.456V5.1h4.369Z" transform="translate(-10551.871 4840.064)" fill="#2e4354"/>
    </g>
  </g>
</svg>
