<svg xmlns="http://www.w3.org/2000/svg" width="33.849" height="30.052" viewBox="0 0 33.849 30.052">
  <g id="Group_20485" data-name="Group 20485" transform="translate(-12135.591 8275.169)">
    <g id="Material_icons-06-26" data-name="Material icons-06-26" transform="translate(12135.591 -8275.169)">
      <path id="Path_33380" data-name="Path 33380" d="M17.086,0H15.516A15.173,15.173,0,0,0,0,15.027C0,23.31,7.121,30.048,15.876,30.052h1.33ZM8.713,15.027a20.406,20.406,0,0,1,.347-3.756h5.5v7.512H9.06A20.4,20.4,0,0,1,8.713,15.027ZM14.559,2.74V8.768H9.716C10.758,5.706,12.517,3.437,14.559,2.74Zm0,18.548v6.03c-2.042-.7-3.8-2.967-4.843-6.03ZM8.865,4.432A16.721,16.721,0,0,0,6.937,8.767h-2.5A12.914,12.914,0,0,1,8.865,4.432ZM3.257,11.271H6.374a23.03,23.03,0,0,0,0,7.512H3.257a11.867,11.867,0,0,1,0-7.512ZM4.439,21.288h2.5a16.648,16.648,0,0,0,1.928,4.336A12.9,12.9,0,0,1,4.439,21.288Zm12.767-.124c.022.009-.009-12.289,0-12.269Z" transform="translate(0 0)" fill="#4d6882"/>
    </g>
    <g id="Material_icons-06-28" data-name="Material icons-06-28" transform="translate(12150.384 -8275.169)">
      <path id="Path_33383" data-name="Path 33383" d="M3,0V30.05H22.056V5.742L17.2,0ZM16.763,3.022,19.5,6.26H16.763Zm3.176,24.523H5.117V2.5h9.528v6.26h5.293Z" transform="translate(-3)" fill="#4d6882"/>
      <rect id="Rectangle_12037" data-name="Rectangle 12037" width="11.577" height="2.504" transform="translate(3.65 17.982)" fill="#4d6882"/>
      <rect id="Rectangle_16250" data-name="Rectangle 16250" width="11.577" height="2.504" transform="translate(3.65 21.604)" fill="#4d6882"/>
      <rect id="Rectangle_16248" data-name="Rectangle 16248" width="11.577" height="2.504" transform="translate(3.65 14.359)" fill="#4d6882"/>
      <rect id="Rectangle_16249" data-name="Rectangle 16249" width="11.577" height="2.504" transform="translate(3.65 10.737)" fill="#4d6882"/>
      <rect id="Rectangle_16251" data-name="Rectangle 16251" width="6.775" height="2.504" transform="translate(3.65 7.114)" fill="#4d6882"/>
    </g>
  </g>
</svg>
