<svg xmlns="http://www.w3.org/2000/svg" width="55" height="55" viewBox="0 0 55 55">
  <g id="Group_20816" data-name="Group 20816" transform="translate(8087.105 9056.188)">
    <ellipse id="Ellipse_2087" data-name="Ellipse 2087" cx="27.5" cy="27.5" rx="27.5" ry="27.5" transform="translate(-8087.105 -9056.188)" fill="#e4b62c"/>
    <g id="Group_20806" data-name="Group 20806" transform="translate(-8075.387 -9047.692)">
      <path id="Path_54467" data-name="Path 54467" d="M74.513,374.637a3.144,3.144,0,0,0-2.539,1.292,3.14,3.14,0,0,0-5.077,0,3.138,3.138,0,0,0-4.474-.624v-8.574a3.144,3.144,0,0,0-6.288,0V388.9a5.448,5.448,0,0,0,5.443,5.443H72.214a5.448,5.448,0,0,0,5.443-5.443V377.781a3.147,3.147,0,0,0-3.144-3.144ZM76.448,388.9a4.238,4.238,0,0,1-4.234,4.234H61.578a4.237,4.237,0,0,1-4.232-4.234V366.732a1.934,1.934,0,1,1,3.868,0v12.26a.6.6,0,0,0,1.209,0v-1.21a1.934,1.934,0,0,1,3.868,0v1.21a.6.6,0,0,0,1.209,0v-1.21a1.934,1.934,0,0,1,3.868,0v1.21a.605.605,0,0,0,1.21,0v-1.21a1.934,1.934,0,0,1,3.868,0V388.9Zm0,0" transform="translate(-48.88 -356.333)" fill="#fff"/>
      <path id="Path_54468" data-name="Path 54468" d="M65.945,367.836a5.518,5.518,0,0,1-1.09,3.308.6.6,0,0,0,.972.72,6.772,6.772,0,1,0-10.887,0,.6.6,0,1,0,.97-.72,5.562,5.562,0,1,1,10.034-3.308Zm0,0" transform="translate(-49.984 -357.437)" fill="#fff"/>
      <path id="Path_54469" data-name="Path 54469" d="M56.837,375.719a9.236,9.236,0,0,1-4.54-7.928,9.1,9.1,0,0,1,1.939-5.647.6.6,0,0,0-.955-.743,10.406,10.406,0,0,0-.778,11.631,10.469,10.469,0,0,0,3.719,3.729.611.611,0,0,0,.306.083.6.6,0,0,0,.308-1.126Zm0,0" transform="translate(-51.088 -357.391)" fill="#fff"/>
      <path id="Path_54470" data-name="Path 54470" d="M54.691,361.689a9.1,9.1,0,0,1,5.647-1.939,9.19,9.19,0,0,1,6.8,15.375.6.6,0,1,0,.894.814,10.4,10.4,0,0,0-14.082-15.2.6.6,0,0,0,.743.955Zm0,0" transform="translate(-49.939 -358.541)" fill="#fff"/>
    </g>
  </g>
</svg>
