<?xml version="1.0" encoding="utf-8"?>
<!-- Generator: Adobe Illustrator 24.1.2, SVG Export Plug-In . SVG Version: 6.00 Build 0)  -->
<svg version="1.1" id="Слой_1" xmlns="http://www.w3.org/2000/svg" xmlns:xlink="http://www.w3.org/1999/xlink" x="0px" y="0px"
	 viewBox="0 0 300 200" enable-background="new 0 0 300 200" xml:space="preserve">
<g>
	<rect fill="none" width="300" height="200"/>
	<g>
		<rect x="0" y="33" fill="#D1C38E" width="300" height="134"/>
	</g>
</g>
<g id="Group_19846" transform="translate(-558.855 -3146.807)">
	
		<linearGradient id="Path_53179_1_" gradientUnits="userSpaceOnUse" x1="560.7579" y1="3347.9749" x2="560.9239" y2="3346.8767" gradientTransform="matrix(154.9089 0 0 -107.1474 -86160.2031 361856.7188)">
		<stop  offset="0" style="stop-color:#E4B62C"/>
		<stop  offset="1" style="stop-color:#643E0A"/>
	</linearGradient>
	<path id="Path_53179" fill="url(#Path_53179_1_)" d="M745.8,3243.5c-4.4,4.1-9.5,7.4-15.2,9.6c-7.7,3-18.1,5.2-26.4,0.2
		c-15.4-9.2-28.3-8.1-34.4-9.5s-7.3-10.1-8.7-22.4c-1.4-12.3-9.3-14.1-12-23.5c-2.4-8.5-3.3-28.3,23.3-33.1
		c7.2-1.3,13.9-4.3,19.7-8.8c7.1-5.3,13.6-8.6,23-5.8c13.4,3.9,16.6,10.3,23.9,28.4c7.3,18.1,18.1,19.2,33,14
		c14.9-5.2,19.5,11.6,14.6,23.5c-2.8,6.9-3.9,19.9,11.4,22.4c15.7,2.6-9.9,27.8-27.6,10.8C754.4,3234.1,756.5,3233.6,745.8,3243.5z"
		/>
	
		<linearGradient id="Path_53180_1_" gradientUnits="userSpaceOnUse" x1="561.0319" y1="3347.7827" x2="561.0519" y2="3346.8826" gradientTransform="matrix(117.2183 0 0 -92.4969 -65065.4023 312892.0313)">
		<stop  offset="0" style="stop-color:#0E755D"/>
		<stop  offset="1" style="stop-color:#B4D0BE"/>
	</linearGradient>
	<path id="Path_53180" fill="url(#Path_53180_1_)" d="M700.1,3231.8c-60.7,12.9-58.6,82.5-58.6,82.5c5.2,14.8,58.6,8.8,58.6,8.8
		s53.4,6,58.6-8.8C758.7,3314.3,760.8,3244.7,700.1,3231.8z"/>
	
		<linearGradient id="Path_53181_1_" gradientUnits="userSpaceOnUse" x1="561.8227" y1="3346.6492" x2="561.7776" y2="3348.4243" gradientTransform="matrix(56.292 0 0 -54.892 -30926.916 186948.1719)">
		<stop  offset="0" style="stop-color:#FDE7D2"/>
		<stop  offset="0.995" style="stop-color:#D17573"/>
	</linearGradient>
	<path id="Path_53181" fill="url(#Path_53181_1_)" d="M724.7,3200.2c-0.7-3.6-2.4-3.6-14.3-3.9s-16.5-14.4-16.5-14.4
		c-3.7,15.8-16.3,21.5-23.8,23.6c0,0,0,0.1,0,0.1c0,17.2,12.6,31.2,28.1,31.2s28.1-14,28.1-31.2c0-0.1,0-0.2,0-0.2
		C725.5,3203.7,724.9,3201.9,724.7,3200.2z"/>
	<g id="Group_19845" transform="translate(579.073 3274.982)">
		<path id="Rectangle_14962" fill="#E5E7E9" d="M88.6,2.4h63.5c3.3,0,6,2.7,6,6v45.3l0,0H82.6l0,0V8.4C82.6,5.1,85.3,2.4,88.6,2.4z"
			/>
		<rect id="Rectangle_14963" x="82.6" y="53.7" fill="#D5D9DD" width="75.5" height="4.2"/>
		<ellipse id="Ellipse_1941" fill="#D5D9DD" cx="120.4" cy="21.3" rx="8.2" ry="8.2"/>
	</g>
</g>
</svg>
