<svg xmlns="http://www.w3.org/2000/svg" width="28" height="27" viewBox="0 0 28 27">
    <defs>
        <clipPath id="prefix__clip-path">
            <path id="prefix__Shape" d="M2.8 27A2.812 2.812 0 0 1 0 24.158L.014 8.527A2.8 2.8 0 0 1 2.8 5.684h5.6V2.842A2.812 2.812 0 0 1 11.2 0h5.6a2.812 2.812 0 0 1 2.8 2.842v2.842h5.6A2.812 2.812 0 0 1 28 8.527v15.631A2.812 2.812 0 0 1 25.2 27z" class="prefix__cls-1"/>
        </clipPath>
        <style>
            .prefix__cls-1{fill:#4d6882}
        </style>
    </defs>
    <g id="prefix__Mask_Group_24" data-name="Mask Group 24">
        <g id="prefix__Symbols">
            <g id="prefix__Icon_Case" data-name="Icon/Case">
                <g id="prefix__Shape-2" data-name="Shape">
                    <path id="prefix__Path_17" d="M27.2 7.684h-5.6V4.842A2.812 2.812 0 0 0 18.8 2h-5.6a2.812 2.812 0 0 0-2.8 2.842v2.842H4.8a2.8 2.8 0 0 0-2.786 2.842L2 26.158A2.812 2.812 0 0 0 4.8 29h22.4a2.812 2.812 0 0 0 2.8-2.842V10.526a2.812 2.812 0 0 0-2.8-2.842zm-8.4 0h-5.6V4.842h5.6v2.842z" class="prefix__cls-1" data-name="Path 17" transform="translate(-2 -2)"/>
                </g>
            </g>
        </g>
    </g>
</svg>
