<svg xmlns="http://www.w3.org/2000/svg" width="32" height="26.971" viewBox="0 0 32 26.971">
  <g id="Group_21032" data-name="Group 21032" transform="translate(-1349.585 -1079.659)">
    <g id="Material_icons-04-37" data-name="Material icons-04-37" transform="translate(1349.585 1079.659)">
      <path id="Path_33054" data-name="Path 33054" d="M28,0H4A4,4,0,0,0,0,4V16a4,4,0,0,0,4,4H5.333v6.971L13.173,20H16V17.333H12.16L8,21.031v-3.7H4A1.335,1.335,0,0,1,2.667,16V4A1.335,1.335,0,0,1,4,2.667H28A1.335,1.335,0,0,1,29.333,4V14.667H32V4A4,4,0,0,0,28,0Z" fill="#4d6882"/>
    </g>
    <path id="Path_42801" data-name="Path 42801" d="M12.319,4A5.271,5.271,0,0,0,7.053,9.266v1.053H6V19.8H18.637V10.319H17.584V9.266A5.271,5.271,0,0,0,12.319,4ZM9.159,9.266a3.159,3.159,0,0,1,6.319,0v1.053H9.159Zm7.372,8.425H8.106V12.425h8.425Z" transform="translate(1360.639 1086.723)" fill="#4d6882"/>
  </g>
</svg>
