<svg id="Material_icons-06-46" data-name="Material icons-06-46" xmlns="http://www.w3.org/2000/svg" width="48" height="40" viewBox="0 0 48 40">
  <path id="Path_33421" data-name="Path 33421" d="M7.97,42H31.882V38H27.9V31.172L18.758,22,27.9,12.828V6h3.985V2H0V6H3.985v6.828L13.123,22,3.985,31.172V38H0v4H7.97Zm0-30.828V6H23.911v5.172l-7.97,8Zm0,21.656,7.97-8,7.97,8V38H7.97Z" transform="translate(0 -2)" fill="#2e4354"/>
  <path id="Path_33422" data-name="Path 33422" d="M21.978,12.015h3.985a2,2,0,0,1,1.993,2h3.985A6,6,0,0,0,25.963,8V6H21.978V8a6.015,6.015,0,0,0,0,12.03h3.985a2,2,0,0,1,0,4.01H21.978a2,2,0,0,1-1.993-2H16a6,6,0,0,0,5.978,6.015v2h3.985v-2a6.015,6.015,0,0,0,0-12.03H21.978a2,2,0,0,1,0-4.01Z" transform="translate(16.059 1.97)" fill="#2e4354"/>
</svg>
