<svg xmlns="http://www.w3.org/2000/svg" width="27" height="31" viewBox="0 0 27 31">
  <g id="Group_20928" data-name="Group 20928" transform="translate(-1398 -157)">
    <rect id="Rectangle_13764" data-name="Rectangle 13764" width="17" height="25" rx="1" transform="translate(1398 163)" fill="#4d6882"/>
    <path id="Rectangle_13767" data-name="Rectangle 13767" d="M1,0h9a1,1,0,0,1,1,1V18a0,0,0,0,1,0,0H0a0,0,0,0,1,0,0V1A1,1,0,0,1,1,0Z" transform="translate(1414 170)" fill="#4d6882"/>
    <path id="Path_42783" data-name="Path 42783" d="M19.412,15h-2.73a.682.682,0,1,0,0,1.365h2.73a.682.682,0,1,0,0-1.365Z" transform="translate(1384.937 151.247)" fill="#fff"/>
    <path id="Path_42791" data-name="Path 42791" d="M18.338,15h-1.87a.468.468,0,1,0,0,.935h1.87a.468.468,0,1,0,0-.935Z" transform="translate(1399.937 157.247)" fill="#fff"/>
    <path id="Path_42784" data-name="Path 42784" d="M26.682,15a.682.682,0,1,0,0,1.365h2.73a.682.682,0,1,0,0-1.365Z" transform="translate(1381.762 151.247)" fill="#fff"/>
    <path id="Path_42792" data-name="Path 42792" d="M26.468,15a.468.468,0,1,0,0,.935h1.87a.468.468,0,1,0,0-.935Z" transform="translate(1394.612 157.247)" fill="#fff"/>
    <path id="Path_42785" data-name="Path 42785" d="M19.412,21h-2.73a.682.682,0,1,0,0,1.365h2.73a.682.682,0,1,0,0-1.365Z" transform="translate(1384.937 149.341)" fill="#fff"/>
    <path id="Path_42790" data-name="Path 42790" d="M18.338,21h-1.87a.468.468,0,1,0,0,.935h1.87a.468.468,0,1,0,0-.935Z" transform="translate(1399.937 154.052)" fill="#fff"/>
    <path id="Path_42786" data-name="Path 42786" d="M29.412,21h-2.73a.682.682,0,1,0,0,1.365h2.73a.682.682,0,1,0,0-1.365Z" transform="translate(1381.762 149.341)" fill="#fff"/>
    <path id="Path_42789" data-name="Path 42789" d="M28.338,21h-1.87a.468.468,0,1,0,0,.935h1.87a.468.468,0,1,0,0-.935Z" transform="translate(1394.612 154.052)" fill="#fff"/>
    <path id="Path_42787" data-name="Path 42787" d="M19.412,27h-2.73a.682.682,0,1,0,0,1.365h2.73a.682.682,0,1,0,0-1.365Z" transform="translate(1384.937 147.436)" fill="#fff"/>
    <path id="Path_42794" data-name="Path 42794" d="M18.338,27h-1.87a.468.468,0,1,0,0,.935h1.87a.468.468,0,1,0,0-.935Z" transform="translate(1399.937 150.857)" fill="#fff"/>
    <path id="Path_42796" data-name="Path 42796" d="M18.338,27h-1.87a.468.468,0,1,0,0,.935h1.87a.468.468,0,1,0,0-.935Z" transform="translate(1399.937 153.857)" fill="#fff"/>
    <path id="Path_42788" data-name="Path 42788" d="M29.412,27h-2.73a.682.682,0,1,0,0,1.365h2.73a.682.682,0,1,0,0-1.365Z" transform="translate(1381.762 147.436)" fill="#fff"/>
    <path id="Path_42793" data-name="Path 42793" d="M28.338,27h-1.87a.468.468,0,1,0,0,.935h1.87a.468.468,0,1,0,0-.935Z" transform="translate(1394.612 150.857)" fill="#fff"/>
    <path id="Path_42795" data-name="Path 42795" d="M28.338,27h-1.87a.468.468,0,1,0,0,.935h1.87a.468.468,0,1,0,0-.935Z" transform="translate(1394.612 153.857)" fill="#fff"/>
    <path id="Rectangle_13765" data-name="Rectangle 13765" d="M1,0H4A1,1,0,0,1,5,1V7A0,0,0,0,1,5,7H0A0,0,0,0,1,0,7V1A1,1,0,0,1,1,0Z" transform="translate(1404 181)" fill="#fff"/>
    <path id="Rectangle_13768" data-name="Rectangle 13768" d="M1,0H2A1,1,0,0,1,3,1V5A0,0,0,0,1,3,5H0A0,0,0,0,1,0,5V1A1,1,0,0,1,1,0Z" transform="translate(1418 183)" fill="#fff"/>
    <rect id="Rectangle_13766" data-name="Rectangle 13766" width="9" height="3" transform="translate(1402 161)" fill="#4d6882"/>
    <line id="Line_286" data-name="Line 286" y2="4" transform="translate(1406.5 157.5)" fill="none" stroke="#4d6882" stroke-linecap="round" stroke-width="1"/>
  </g>
</svg>
