<svg id="Material_icons-08-69" data-name="Material icons-08-69" xmlns="http://www.w3.org/2000/svg" width="40" height="40" viewBox="0 0 40 40">
  <path id="Path_33898" data-name="Path 33898" d="M28.95,24.515A8.524,8.524,0,0,0,20.436,16H8.515A8.524,8.524,0,0,0,0,24.515v5.109H28.95Zm-3.406,1.7H3.406v-1.7a5.115,5.115,0,0,1,5.109-5.109H20.436a5.115,5.115,0,0,1,5.109,5.109Z" transform="translate(0 10.376)" fill="#2e4354"/>
  <path id="Path_33899" data-name="Path 33899" d="M11.663,21.327A7.663,7.663,0,1,0,4,13.663,7.672,7.672,0,0,0,11.663,21.327Zm0-11.921a4.257,4.257,0,1,1-4.257,4.257A4.261,4.261,0,0,1,11.663,9.406Z" transform="translate(2.58 3.869)" fill="#2e4354"/>
  <path id="Path_33900" data-name="Path 33900" d="M31.841,0H11.406A3.408,3.408,0,0,0,8,3.406V8.515h3.406V3.406H31.841V15.327H26.028L23.32,18.034l-.005-2.708h-5.1v3.406h1.7l.012,7.51,7.51-7.51h4.4a3.409,3.409,0,0,0,3.406-3.406V3.406A3.408,3.408,0,0,0,31.841,0Z" transform="translate(4.753)" fill="#2e4354"/>
</svg>
