<?xml version="1.0" encoding="utf-8"?>
<!-- Generator: Adobe Illustrator 24.1.2, SVG Export Plug-In . SVG Version: 6.00 Build 0)  -->
<svg version="1.1" id="Icon" xmlns="http://www.w3.org/2000/svg" xmlns:xlink="http://www.w3.org/1999/xlink" x="0px" y="0px"
	 viewBox="0 0 19.5 28" style="enable-background:new 0 0 19.5 28;" xml:space="preserve">
<style type="text/css">
	.st0{fill:#4D6882;}
</style>
<path id="Mask-2" class="st0" d="M9.7,0C4.4,0,0,4.4,0,9.8l0,0C0,17.1,9.7,28,9.7,28s9.8-10.9,9.8-18.2C19.5,4.4,15.2,0,9.7,0
	C9.8,0,9.8,0,9.7,0z M9.7,13.3c-1.9,0-3.5-1.5-3.5-3.5c0-1.9,1.5-3.5,3.5-3.5s3.5,1.5,3.5,3.5l0,0C13.2,11.7,11.7,13.3,9.7,13.3z"/>
</svg>
