<svg id="Group_20837" data-name="Group 20837" xmlns="http://www.w3.org/2000/svg" width="90.003" height="90.003" viewBox="0 0 90.003 90.003">
  <g id="Group_20821" data-name="Group 20821" transform="translate(0 0)">
    <ellipse id="Ellipse_2081" data-name="Ellipse 2081" cx="45.002" cy="45.002" rx="45.002" ry="45.002" transform="translate(0 0)" fill="#4d6882"/>
  </g>
  <g id="Material_icons-08-70" data-name="Material icons-08-70" transform="translate(21.92 21.382)">
    <path id="Path_33901" data-name="Path 33901" d="M15.1,11.67v-6.1h3.048L13.573,1,9,5.573h3.048v6.1Z" transform="translate(10.035 20.562)" fill="#fff"/>
    <path id="Path_33902" data-name="Path 33902" d="M3.514,4.515v6.466L5.671,8.824l3.6,3.6,2.155-2.155-3.6-3.6L9.981,4.515Z" transform="translate(7.159 22.405)" fill="#fff"/>
    <path id="Path_33903" data-name="Path 33903" d="M23.1,10v3.048H17V16.1h6.1v3.048l4.573-4.573Z" transform="translate(14.228 25.28)" fill="#fff"/>
    <path id="Path_33904" data-name="Path 33904" d="M4.573,19.145V16.1h6.1V13.048h-6.1V10L0,14.573Z" transform="translate(5.317 25.28)" fill="#fff"/>
    <path id="Path_33905" data-name="Path 33905" d="M23.207,10.981V4.515H16.739L18.895,6.67l-3.6,3.6,2.155,2.155,3.6-3.6Z" transform="translate(13.334 22.405)" fill="#fff"/>
    <path id="Path_33906" data-name="Path 33906" d="M13.573,19.145A4.573,4.573,0,1,0,9,14.573,4.578,4.578,0,0,0,13.573,19.145Zm0-6.1a1.524,1.524,0,1,1-1.524,1.524A1.526,1.526,0,0,1,13.573,13.048Z" transform="translate(10.035 25.28)" fill="#fff"/>
    <path id="Path_42760" data-name="Path 42760" d="M13.573,19.145A4.573,4.573,0,1,0,9,14.573,4.578,4.578,0,0,0,13.573,19.145Zm0-6.1a1.524,1.524,0,1,1-1.524,1.524A1.526,1.526,0,0,1,13.573,13.048Z" transform="translate(-5.952 -10)" fill="#fff"/>
    <path id="Path_42762" data-name="Path 42762" d="M13.573,19.145A4.573,4.573,0,1,0,9,14.573,4.578,4.578,0,0,0,13.573,19.145Zm0-6.1a1.524,1.524,0,1,1-1.524,1.524A1.526,1.526,0,0,1,13.573,13.048Z" transform="translate(10.035 -10)" fill="#fff"/>
    <path id="Path_42764" data-name="Path 42764" d="M13.573,19.145A4.573,4.573,0,1,0,9,14.573,4.578,4.578,0,0,0,13.573,19.145Zm0-6.1a1.524,1.524,0,1,1-1.524,1.524A1.526,1.526,0,0,1,13.573,13.048Z" transform="translate(26.021 -10)" fill="#fff"/>
    <path id="Path_33907" data-name="Path 33907" d="M22.242,26.145V21.573A4.578,4.578,0,0,0,17.67,17h-6.1A4.578,4.578,0,0,0,7,21.573v4.573h3.048V21.573a1.526,1.526,0,0,1,1.524-1.524h6.1a1.526,1.526,0,0,1,1.524,1.524v4.573Z" transform="translate(8.986 28.949)" fill="#fff"/>
    <path id="Path_42759" data-name="Path 42759" d="M22.242,26.145V21.573A4.578,4.578,0,0,0,17.67,17h-6.1A4.578,4.578,0,0,0,7,21.573v4.573h3.048V21.573a1.526,1.526,0,0,1,1.524-1.524h6.1a1.526,1.526,0,0,1,1.524,1.524v4.573Z" transform="translate(-7 -6.33)" fill="#fff"/>
    <path id="Path_42761" data-name="Path 42761" d="M22.242,26.145V21.573A4.578,4.578,0,0,0,17.67,17h-6.1A4.578,4.578,0,0,0,7,21.573v4.573h3.048V21.573a1.526,1.526,0,0,1,1.524-1.524h6.1a1.526,1.526,0,0,1,1.524,1.524v4.573Z" transform="translate(8.986 -6.33)" fill="#fff"/>
    <path id="Path_42763" data-name="Path 42763" d="M22.242,26.145V21.573A4.578,4.578,0,0,0,17.67,17h-6.1A4.578,4.578,0,0,0,7,21.573v4.573h3.048V21.573a1.526,1.526,0,0,1,1.524-1.524h6.1a1.526,1.526,0,0,1,1.524,1.524v4.573Z" transform="translate(24.972 -6.33)" fill="#fff"/>
  </g>
</svg>
