<?xml version="1.0" encoding="utf-8"?>
<!-- Generator: Adobe Illustrator 24.1.2, SVG Export Plug-In . SVG Version: 6.00 Build 0)  -->
<svg version="1.1" id="Слой_1" xmlns="http://www.w3.org/2000/svg" xmlns:xlink="http://www.w3.org/1999/xlink" x="0px" y="0px"
	 viewBox="0 0 300 200" enable-background="new 0 0 300 200" xml:space="preserve">
<g>
	<rect x="0" fill="none" width="300" height="200"/>
	<g>
		<rect y="33" fill="#D1C38E" width="300" height="134"/>
	</g>
</g>
<g id="Group_20855" transform="translate(-541.287 -3147)">
	<g id="Design_Doc_Group" transform="translate(556.337 3238.254) rotate(-30)">
		<g id="Doc_Background" transform="translate(1.201 1.203)">
			<path fill="#FFFFFF" d="M136.3,146.4l-89.1,0l0-123l68,0l21.1,21L136.3,146.4z"/>
			<path fill="#E1E1E1" d="M48.4,24.7l0,120.5l86.6,0l0-100.2l-20.3-20.3L48.4,24.7 M45.9,22.2l69.8,0L137.6,44l0,103.7l-91.6,0
				L45.9,22.2z"/>
		</g>
		<g id="Holes_Group" transform="translate(7.099 21.9)">
			
				<ellipse id="Hole_4" transform="matrix(-0.866 -0.5 0.5 -0.866 35.5993 225.6689)" fill="#E8E8E9" cx="48" cy="108.1" rx="2.1" ry="2.1"/>
			
				<ellipse id="Hole_3" transform="matrix(-0.866 -0.5 0.5 -0.866 48.5377 177.3817)" fill="#E8E8E9" cx="48" cy="82.2" rx="2.1" ry="2.1"/>
			
				<ellipse id="Hole_2" transform="matrix(-0.866 -0.5 0.5 -0.866 64.8292 116.581)" fill="#E8E8E9" cx="48" cy="49.6" rx="2.1" ry="2.1"/>
			
				<ellipse id="Hole_1" transform="matrix(-0.866 -0.5 0.5 -0.866 77.4836 69.3537)" fill="#E8E8E9" cx="48" cy="24.3" rx="2.1" ry="2.1"/>
		</g>
		<g id="Lines_Group" transform="translate(9.983 10.73)">
			<path id="Line_9" fill="#DFDEDE" d="M117.6,125.7l-71.1,0c-0.3,0-0.5-0.2-0.5-0.5c0,0,0,0,0,0c0-0.3,0.2-0.5,0.5-0.5l71.1,0
				c0.3,0,0.5,0.2,0.5,0.5C118,125.4,117.8,125.7,117.6,125.7C117.6,125.7,117.6,125.7,117.6,125.7L117.6,125.7z"/>
			<path id="Line_8" fill="#DFDEDE" d="M117.6,113.7l-71.1,0c-0.3,0-0.5-0.2-0.5-0.5c0,0,0,0,0,0c0-0.3,0.2-0.5,0.5-0.5l71.1,0
				c0.3,0,0.5,0.2,0.5,0.5C118,113.5,117.8,113.7,117.6,113.7C117.6,113.7,117.6,113.7,117.6,113.7L117.6,113.7z"/>
			<path id="Line_7" fill="#DFDEDE" d="M117.6,101.7l-71.1,0c-0.3,0-0.5-0.2-0.5-0.5c0,0,0,0,0,0c0-0.3,0.2-0.5,0.5-0.5c0,0,0,0,0,0
				l71.1,0c0.3,0,0.5,0.2,0.5,0.5c0,0,0,0,0,0C118,101.5,117.8,101.7,117.6,101.7C117.6,101.7,117.6,101.7,117.6,101.7L117.6,101.7z
				"/>
			<path id="Line_6" fill="#DFDEDE" d="M117.6,89.7l-71.1,0c-0.3,0-0.5-0.2-0.5-0.5c0,0,0,0,0,0c0-0.3,0.2-0.5,0.5-0.5l71.1,0
				c0.3,0,0.5,0.2,0.5,0.5C118,89.5,117.8,89.7,117.6,89.7C117.6,89.7,117.6,89.7,117.6,89.7L117.6,89.7z"/>
			<path id="Line_5" fill="#DFDEDE" d="M117.6,77.8l-71.1,0c-0.3,0-0.5-0.2-0.5-0.5c0,0,0,0,0,0c0-0.3,0.2-0.5,0.5-0.5l71.1,0
				c0.3,0,0.5,0.2,0.5,0.5C118,77.5,117.8,77.8,117.6,77.8C117.6,77.8,117.6,77.8,117.6,77.8L117.6,77.8z"/>
			<path id="Line_4" fill="#DFDEDE" d="M117.6,65.8l-71.1,0c-0.3,0-0.5-0.2-0.5-0.5c0,0,0,0,0,0c0-0.3,0.2-0.5,0.5-0.5c0,0,0,0,0,0
				l71.1,0c0.3,0,0.5,0.2,0.5,0.5c0,0,0,0,0,0C118,65.5,117.8,65.8,117.6,65.8C117.6,65.8,117.6,65.8,117.6,65.8L117.6,65.8z"/>
			<path id="Line_3" fill="#DFDEDE" d="M117.6,53.8l-71.1,0c-0.3,0-0.5-0.2-0.5-0.5c0,0,0,0,0,0c0-0.3,0.2-0.5,0.5-0.5l71.1,0
				c0.3,0,0.5,0.2,0.5,0.5C118,53.6,117.8,53.8,117.6,53.8C117.6,53.8,117.6,53.8,117.6,53.8L117.6,53.8z"/>
			<path id="Line_2" fill="#DFDEDE" d="M117.6,41.8l-71.1,0c-0.3,0-0.5-0.2-0.5-0.5c0,0,0,0,0,0c0-0.3,0.2-0.5,0.5-0.5l71.1,0
				c0.3,0,0.5,0.2,0.5,0.5C118,41.6,117.8,41.8,117.6,41.8C117.6,41.8,117.6,41.8,117.6,41.8L117.6,41.8z"/>
			<path id="Line_1" fill="#DFDEDE" d="M117.6,29.9l-71.1,0c-0.3,0-0.5-0.2-0.5-0.5c0,0,0,0,0,0c0-0.3,0.2-0.5,0.5-0.5l71.1,0
				c0.3,0,0.5,0.2,0.5,0.5C118,29.6,117.8,29.8,117.6,29.9C117.6,29.9,117.6,29.9,117.6,29.9z"/>
			<path id="Vertical_Line" fill="#EE969D" d="M52.4,130.1l0-107.5c0-0.2,0.2-0.4,0.5-0.4c0.3,0,0.5,0.2,0.5,0.4l0,107.5
				c0,0.2-0.2,0.4-0.5,0.4S52.4,130.3,52.4,130.1z"/>
		</g>
		<path id="Fold_Background" fill="#E8E8E8" d="M116.8,23.6v21.8l21.8,0L116.8,23.6z"/>
		<path id="Fold" fill="#B7BEC7" d="M138.4,46.4l-21.5,0c-0.7,0-1.2-0.5-1.2-1.2c0,0,0,0,0,0V23.8c0-0.7,0.5-1.2,1.2-1.2
			c0.7,0,1.2,0.5,1.2,1.2V44l20.3,0c0.7,0,1.2,0.5,1.2,1.2C139.6,45.8,139.1,46.4,138.4,46.4C138.4,46.4,138.4,46.4,138.4,46.4z"/>
		<path id="Document" fill="#B7BEC7" d="M138.8,150.1l-91.6,0c-0.7,0-1.2-0.5-1.2-1.2l0-125.5c0-0.7,0.5-1.2,1.2-1.2c0,0,0,0,0,0
			l69.8,0c0.3,0,0.6,0.1,0.8,0.4l21.8,21.8c0.2,0.2,0.4,0.5,0.4,0.9l0,103.7C140,149.5,139.4,150.1,138.8,150.1L138.8,150.1z
			 M48.3,147.7l89.2,0l0-102l-21.1-21.1l-68.1,0L48.3,147.7z"/>
	</g>
	<g id="Group_17736" transform="translate(537.072 3219.242) rotate(-39)">
		<g id="Group_16261" transform="translate(0 0)" opacity="0.4">
			<path id="Path_45474" d="M142.3,170.8c-0.6,3.9-4.3,6.5-8.2,5.9l-86.2-14c-3.9-0.6-6.5-4.3-5.9-8.2L60.3,41.8
				c0.6-3.9,4.3-6.5,8.2-5.9l86.2,14c3.9,0.6,6.5,4.3,5.9,8.2L142.3,170.8z"/>
			
				<rect id="Rectangle_14172" x="56.9" y="50.1" transform="matrix(-0.9871 -0.1601 0.1601 -0.9871 185.8539 231.6179)" width="90.6" height="116.4"/>
			
				<rect id="Rectangle_14173" x="55.9" y="48.8" transform="matrix(-0.9871 -0.1601 0.1601 -0.9871 183.985 228.7724)" width="90.6" height="116.4"/>
			
				<rect id="Rectangle_14174" x="68" y="123.9" transform="matrix(-0.9871 -0.1601 0.1601 -0.9871 175.6609 262.6159)" width="60.8" height="0.7"/>
			
				<rect id="Rectangle_14175" x="66.9" y="130.8" transform="matrix(-0.9871 -0.1601 0.1601 -0.9871 172.3027 276.2754)" width="60.8" height="0.7"/>
			
				<rect id="Rectangle_14176" x="65.7" y="137.8" transform="matrix(-0.9871 -0.1601 0.1601 -0.9871 168.9449 289.9309)" width="60.8" height="0.7"/>
			
				<rect id="Rectangle_14177" x="64.6" y="144.8" transform="matrix(-0.9871 -0.1601 0.1601 -0.9871 165.5856 303.5905)" width="60.8" height="0.7"/>
			
				<rect id="Rectangle_14178" x="63.7" y="149.2" transform="matrix(-0.9871 -0.16 0.16 -0.9871 131.2381 309.6256)" width="28.8" height="0.7"/>
			
				<rect id="Rectangle_14179" x="69.1" y="117.3" transform="matrix(-0.9871 -0.1601 0.1601 -0.9871 178.8385 249.696)" width="60.8" height="0.7"/>
			
				<rect id="Rectangle_14180" x="78.3" y="92.9" transform="matrix(-0.9868 -0.162 0.162 -0.9868 148.5203 207.9351)" width="8.9" height="10"/>
			
				<rect id="Rectangle_14181" x="92.3" y="88.5" transform="matrix(-0.9869 -0.1616 0.1616 -0.9869 176.4677 207.9583)" width="8.9" height="16.7"/>
			
				<rect id="Rectangle_14182" x="120.3" y="80.4" transform="matrix(-0.9869 -0.1616 0.1616 -0.9869 232.4294 208.9392)" width="8.9" height="29.3"/>
			
				<rect id="Rectangle_14183" x="106.2" y="83.7" transform="matrix(-0.9869 -0.1616 0.1616 -0.9869 204.4424 207.7428)" width="8.9" height="23.7"/>
			
				<rect id="Rectangle_14184" x="80.3" y="77.9" transform="matrix(-0.9555 0.2949 -0.2949 -0.9555 229.9857 123.2139)" width="50.8" height="2.1"/>
			<path id="Path_45475" d="M125.8,69.8l6.7,0.5l-5.1,4.8L125.8,69.8z"/>
			<path id="Path_45476" d="M130.7,111.8l-59.3-9.3L77.7,64l2.1,0.3l-5.9,36.3l57.2,9L130.7,111.8z"/>
			<path id="Path_45477" d="M130.1,48l-5.5-0.9c-3.9-0.6-6.5-4.3-5.9-8.2l0.3-1.7c0.6-3.9-1.7-7.5-5.2-8.1s-6.8,2.2-7.5,6l-0.3,1.7
				c-0.6,3.9-4.3,6.5-8.2,5.9l-5.5-0.9c-3.9-0.6-7.4,1.1-7.9,3.8s-0.8,4.9-0.8,4.9c0,0,0,0,0,0l7.1,1.1l37.6,6.1l7.1,1.1
				c0,0,0,0,0,0s0.4-2.2,0.8-4.9C136.8,51.4,134,48.7,130.1,48z M112.3,38.4c-1.4-0.2-2.4-1.6-2.2-3c0.2-1.4,1.6-2.4,3-2.2
				c1.4,0.2,2.4,1.6,2.2,3c0,0,0,0,0,0C115.1,37.7,113.8,38.7,112.3,38.4z"/>
			<path id="Path_45478" d="M84.1,48.6l-0.3,2.1c0,0,0,0,0,0l7.1,1.1l37.6,6.1l7.1,1.1c0,0,0,0,0,0l0.3-2L84.1,48.6z"/>
		</g>
		<g id="Group_16286" transform="translate(10.526 5.079)">
			<g id="Group_16285" transform="translate(0 0)">
				<g id="Group_16262" transform="translate(0 6.698)">
					<path id="Path_45479" fill="#A67C52" d="M142.3,164.1c-0.6,3.9-4.3,6.5-8.2,5.9l-86.2-14c-3.9-0.6-6.5-4.3-5.9-8.2L60.3,35.1
						c0.6-3.9,4.3-6.5,8.2-5.9l86.2,14c3.9,0.6,6.5,4.3,5.9,8.2L142.3,164.1z"/>
				</g>
				<g id="Group_16263" transform="translate(6.306 14.501)" opacity="0.5">
					
						<rect id="Rectangle_14185" x="50.6" y="35.6" transform="matrix(-0.9871 -0.1601 0.1601 -0.9871 175.6443 201.7916)" width="90.6" height="116.4"/>
				</g>
				<g id="Group_16264" transform="translate(5.257 13.154)">
					
						<rect id="Rectangle_14186" x="50.6" y="35.6" transform="matrix(-0.9871 -0.1601 0.1601 -0.9871 175.644 201.7925)" fill="#FFFFFF" width="90.6" height="116.4"/>
					<g id="Group_13004" transform="translate(-1315.149 -154.509) rotate(9)">
						<g id="Group_12949" transform="translate(1355.477 41.134)">
							
								<path id="Path_34118" fill="#29CB97" stroke="#29CB97" stroke-linecap="round" stroke-linejoin="round" stroke-miterlimit="10" d="
								M59,28.8c-0.3,0.6-1,0.8-1.5,1.1c-0.8,0.4-1.7,0.8-2.6,1.1c-0.7,0.3-1.4,0.5-2.1,0.7c-0.4,0.1-0.4,0.4-0.1,0.7
								c0.7,0.8,2,1.1,3,0.6c1.5-0.4,2.9-1.2,4-2.3c0.1-0.1,0.2-0.2,0.3-0.1c0.1,0.1,0.2,0.1,0.1,0.4c-0.2,0.4-0.6,0.8-0.1,1.3
								c0.5,0.5,1.2,0.3,1.8,0.1c0.6-0.1,1.1-0.4,1.6-0.7c0.3-0.1,0.4-0.1,0.7,0.1c0.4,0.7,0.9,0.6,1.3-0.1c0.1-0.3,0.4-0.2,0.7,0
								c0.5,0.4,1.2,0.5,1.9,0.2c-1.3-1.3-1.3-3.4,0-4.8c0.4-0.6,1.3-0.8,1.9-0.4c0.2,0.2,0.4,0.4,0.5,0.6l0.4,0.9
								c1.2-1,2.1-2.3,2.7-3.8c0.1-0.1,0.4-0.4-0.1-0.6c-0.2-0.1,0-0.3,0.1-0.4c0.1-0.2,0.4-0.4,0.6-0.3c0.2,0.1,0.3,0.3,0.2,0.4
								C74,24.2,74,24.6,73.8,25c0.3-0.1,0.4-0.6,0.8-0.3c0.3,0.2,0.2,0.6,0.1,1c-0.5,1.3-1.1,2.6-1.9,3.8c-0.4,0.7-0.8,1.4-1.3,2.2
								c0.4,0,0.8-0.2,1.1-0.5c0.1-0.1,0.2-0.2,0.4-0.1c0.2,0.1,0.2,0.3,0.2,0.4c-0.1,0.4,0.1,0.5,0.4,0.5h0.7
								c0.7,0,1.3-0.3,1.9,0.4c0.2,0.3,1,0.1,1.3-0.4c0.1-0.2,0.3-0.4,0.5-0.3c0.7,0.5-0.8,0.8-1.7,1.2c-0.1,0.1-0.2,0.1-0.3,0
								c-0.6-0.7-1.5-0.4-2.2-0.4c-0.4,0-0.7,0-1-0.4c-0.2-0.4-0.7-0.1-0.9,0c-0.9,0.5-2,0.7-3,0.5c-0.3-0.1-0.4,0.1-0.6,0.4
								c-0.2,0.4-0.5,0.3-0.6-0.1c0-0.4-0.1-0.4-0.3-0.2c-0.3,0.1-0.6,0.2-0.9,0.1c-0.6-0.2-1.3-0.1-1.8,0.2c-0.3,0.2-0.7,0.1-1-0.2
								c-0.3-0.4-0.6-0.2-1-0.1C62,33,61.1,33.2,60.1,33c-0.4-0.1-0.7-0.3-0.7-0.7c-0.1-0.7-0.5-0.5-0.8-0.3c-1,0.7-2.1,1.2-3.3,1.4
								c-1.3,0.3-2.5,0.2-3-1.2c-0.1-0.4-0.3-0.3-0.6-0.1c-1.6,0.5-3.3,0.8-5,0.7h-0.4c-0.1,0-0.3-0.1-0.2-0.3
								c0-0.1,0.1-0.2,0.4-0.2c1.8,0.2,3.7-0.1,5.3-0.7c0.2-0.1,0.4-0.1,0.4-0.4c0.1-1.8,0.8-3.5,2-4.8c1.5-1.9,3.6-3.3,5.9-3.9
								c1.1-0.4,2.2-0.4,3.3,0c0.6,0.2,1,0.9,0.7,1.5c0,0,0,0,0,0c-0.4,1.3-1.2,2.4-2.2,3.2c0.1-0.4,0.1-0.4,0.4-0.8
								c0.6-0.5,1.1-1.2,1.3-2c0.4-1.1-0.1-1.7-1.3-1.8c-2,0-4,0.6-5.6,1.9c-1.8,1.3-3.2,3.1-3.9,5.1c-0.2,0.5-0.3,1.1-0.2,1.7
								c1.2-0.3,2.4-0.6,3.5-1.2C57,29.8,58,29.3,59,28.8L59,28.8z M70.4,28.8c0.1-0.6-0.3-1.2-0.9-1.4c-0.5-0.2-0.9,0.1-1.2,0.5
								c-0.5,0.6-0.7,1.3-0.8,2c-0.1,0.6,0.1,1.2,0.5,1.6c0.2,0.3,0.4,0.3,0.7,0c0.4-0.7,0.9-1.3,1.4-2
								C70.3,29.4,70.4,29.1,70.4,28.8z M71.1,31.7c1-2.2,3-3.9,3.3-6.5c-1.3,1.4-2.4,2.9-3.5,4.5c-0.1,0.1-0.1,0.2-0.1,0.4
								C71,30.6,71,31.1,71.1,31.7L71.1,31.7z M70.5,30.3c-0.4,0.5-0.7,1-1,1.5c-0.1,0.1-0.4,0.3-0.1,0.4c0.4,0.4,0.8,0.1,1.2,0
								c0.1,0,0.3-0.1,0.2-0.2C70.6,31.4,70.5,30.9,70.5,30.3L70.5,30.3z"/>
							
								<path id="Path_34119" fill="#29CB97" stroke="#29CB97" stroke-linecap="round" stroke-linejoin="round" stroke-miterlimit="10" d="
								M59,28.8c0.6-0.4,1.2-0.7,1.8-0.9C60.2,28.3,59.8,29,59,28.8z"/>
						</g>
					</g>
				</g>
				<g id="Group_16271" transform="translate(24.654 68.797)">
					<g id="Group_16265" transform="translate(4.517 6.588)">
						
							<rect id="Rectangle_14187" x="41.6" y="34" transform="matrix(-0.9871 -0.1601 0.1601 -0.9871 137.5292 79.7566)" fill="#B8BABC" width="60.8" height="0.7"/>
					</g>
					<g id="Group_16266" transform="translate(3.388 13.553)">
						
							<rect id="Rectangle_14188" x="41.6" y="34" transform="matrix(-0.9871 -0.1601 0.1601 -0.9871 137.5292 79.7566)" fill="#B8BABC" width="60.8" height="0.7"/>
					</g>
					<g id="Group_16267" transform="translate(2.259 20.517)">
						
							<rect id="Rectangle_14189" x="41.6" y="34" transform="matrix(-0.9871 -0.1601 0.1601 -0.9871 137.5293 79.7566)" fill="#B8BABC" width="60.8" height="0.7"/>
					</g>
					<g id="Group_16268" transform="translate(1.129 27.481)">
						
							<rect id="Rectangle_14190" x="41.6" y="34" transform="matrix(-0.9871 -0.1601 0.1601 -0.9871 137.5302 79.7568)" fill="#B8BABC" width="60.8" height="0.7"/>
					</g>
					<g id="Group_16269" transform="translate(0 34.445)">
						
							<rect id="Rectangle_14191" x="41.8" y="31.4" transform="matrix(-0.9871 -0.16 0.16 -0.9871 106.5386 72.1345)" fill="#B8BABC" width="28.8" height="0.7"/>
					</g>
					<g id="Group_16270" transform="translate(5.585 0)">
						
							<rect id="Rectangle_14192" x="41.6" y="34" transform="matrix(-0.9871 -0.1601 0.1601 -0.9871 137.5302 79.7568)" fill="#B8BABC" width="60.8" height="0.7"/>
					</g>
				</g>
				<g id="Group_19847" transform="translate(30.174 33.378)">
					<g id="Group_16265-2" transform="translate(4.517 6.588)">
						
							<rect id="Rectangle_14187-2" x="41.6" y="34" transform="matrix(-0.9871 -0.1601 0.1601 -0.9871 137.5292 79.7566)" fill="#B8BABC" width="60.8" height="0.7"/>
					</g>
					<g id="Group_16266-2" transform="translate(3.388 13.553)">
						
							<rect id="Rectangle_14188-2" x="41.6" y="34" transform="matrix(-0.9871 -0.1601 0.1601 -0.9871 137.5292 79.7566)" fill="#B8BABC" width="60.8" height="0.7"/>
					</g>
					<g id="Group_16267-2" transform="translate(2.259 20.517)">
						
							<rect id="Rectangle_14189-2" x="41.6" y="34" transform="matrix(-0.9871 -0.1601 0.1601 -0.9871 137.5292 79.7566)" fill="#B8BABC" width="60.8" height="0.7"/>
					</g>
					<g id="Group_16268-2" transform="translate(1.129 27.481)">
						
							<rect id="Rectangle_14190-2" x="41.6" y="34" transform="matrix(-0.9871 -0.1601 0.1601 -0.9871 137.5302 79.7568)" fill="#B8BABC" width="60.8" height="0.7"/>
					</g>
					<g id="Group_16270-2" transform="translate(5.585 0)">
						
							<rect id="Rectangle_14192-2" x="41.6" y="34" transform="matrix(-0.9871 -0.1601 0.1601 -0.9871 137.5302 79.7568)" fill="#B8BABC" width="60.8" height="0.7"/>
					</g>
				</g>
				<g id="Group_16283" transform="translate(41.852 0)">
					<g id="Group_16282" transform="translate(0)">
						<path id="Path_45482" fill="#999999" d="M88.2,48l-5.5-0.9c-3.9-0.6-6.5-4.3-5.9-8.2l0.3-1.7c0.6-3.9-1.7-7.5-5.2-8.1
							s-6.8,2.2-7.5,6l-0.3,1.7c-0.6,3.9-4.3,6.5-8.2,5.9l-5.5-0.9c-3.9-0.6-7.4,1.1-7.9,3.8s-0.8,4.9-0.8,4.9c0,0,0,0,0,0l7.1,1.1
							l37.6,6.1l7.1,1.1c0,0,0,0,0,0c0,0,0.4-2.2,0.8-4.9C94.9,51.4,92.1,48.7,88.2,48z M70.5,38.4c-1.4-0.2-2.4-1.6-2.2-3
							c0.2-1.4,1.6-2.4,3-2.2s2.4,1.6,2.2,3c0,0,0,0,0,0C73.3,37.7,71.9,38.7,70.5,38.4z"/>
					</g>
				</g>
				<g id="Group_16284" transform="translate(41.852 19.465)">
					<path id="Path_45483" fill="#808080" d="M42.2,29.1l-0.3,2.1c0,0,0,0,0,0l7.1,1.1l37.6,6.1l7.1,1.1c0,0,0,0,0,0l0.3-2
						L42.2,29.1z"/>
				</g>
			</g>
		</g>
	</g>
	<g id="Group_18962" transform="matrix(0.946, 0.326, -0.326, 0.946, 676.89, 3223.598)">
		<path id="Path_51903" fill-rule="evenodd" clip-rule="evenodd" fill="#2E4354" d="M51,6.9c0,0.3,0,0.6,0,0.9l0.8,15
			c0,0.3,0.1,0.6,0.1,0.9s0.1,0.7,0.1,1c0.4,3.2,1,8.9,1.7,12c0.1,0.4,0.2,0.8,0.5,1.1l0.4,0.4c0.1,0.1,0.3,0.1,0.5,0.1
			c1.3,0.1,1.5-2.3,1.6-3.5l0.6-4c0.4-2.9,0.6-5.2,1-8l0.3-4c0-0.4,0-0.7,0.1-1l0.4-10l0-1L51,6.9z"/>
		<path id="Path_51904" fill-rule="evenodd" clip-rule="evenodd" fill="#D2D6D3" d="M59-9.3l0-2.6h1.2c0.1,0,0.1-0.1,0.2,0.1
			l0.2,0.8c0.1,0.7,0.1,1.5,0,2.2V9.3c0,0.5,0,1,0,1.5c-0.2,1.2-0.7,0.7-0.7-0.5V-3.2c0-0.9,0-5.6,0-6L59-9.3z"/>
		<path id="Path_51905" fill-rule="evenodd" clip-rule="evenodd" fill="#2E4354" d="M57.7-17.4l-5.4,0c-0.5,0.2-1.1,0.3-1.3,1
			c-0.1,0.5,0.1,1-0.1,1.5v2.7L51-9.3l8.1,0l0-2.2V-16L57.7-17.4z"/>
		<path id="Path_51906" fill-rule="evenodd" clip-rule="evenodd" fill="#8A939F" d="M52.2-17.4c1.8,0.1,3.6,0.1,5.4,0
			c0.2-0.7,0.1-1.5-0.3-2.2l-0.2-0.2c-0.7-0.3-1.5-0.5-2.2-0.3c-0.7-0.1-1.5,0-2.1,0.3l-0.3,0.3c-0.2,0.3-0.2,0.6-0.2,0.9l0,0.6
			C52.3-17.8,52.3-17.6,52.2-17.4z"/>
		<path id="Path_53182" fill="#0E6C75" d="M51-9.3L59-9.3l0,16.2H51V-9.3z"/>
	</g>
</g>
</svg>
