<?xml version="1.0" encoding="utf-8"?>
<!-- Generator: Adobe Illustrator 24.1.2, SVG Export Plug-In . SVG Version: 6.00 Build 0)  -->
<svg version="1.1" id="Слой_1" xmlns="http://www.w3.org/2000/svg" xmlns:xlink="http://www.w3.org/1999/xlink" x="0px" y="0px"
	 width="1500px" height="1805.2px" viewBox="0 0 1500 1805.2" style="enable-background:new 0 0 1500 1805.2;" xml:space="preserve"
	>
<style type="text/css">
	.st0{fill:#FFFFFF;}
</style>
<path class="st0" d="M1500,0v1799.1c-59.9,5.4-112.1,6.5-154,5.9c-97.9-1.5-168.1-12.4-195-17c-16.6-2.8-90.7-15.8-155-44
	c-6.6-2.9-36.5-16.3-68-41c-17.4-13.7-25.4-23.1-30-29c-7-9.1-12-18.4-22-37c-8.3-15.4-8.5-17.1-18-35c-9.1-17.2-13.7-25.7-19-33
	c-2-2.7-11.3-15.4-27-29c-2-1.7-11.6-10-26-19c-5.5-3.5-18.8-11.4-38-19c-22.7-9-41.9-12.3-55-15c-44.8-9.4-80.7-10.1-109-10
	c-104.8,0.4-199.2,13-214,15c-63.8,8.7-116,19-181,34c-28.5,6.6-56.7,14.4-85,22c-25.1,6.7-48.1,13.1-80,15c-9,0.5-17,0.6-24,0.5V0
	H1500z"/>
</svg>
