<svg xmlns="http://www.w3.org/2000/svg" width="1122.627" height="581.606" viewBox="0 0 1122.627 581.606">
  <g id="Group_20609" data-name="Group 20609" transform="translate(-797.092 -677.704)">
    <g id="Group_19563" data-name="Group 19563" transform="translate(416.863 351.608)">
      <path id="Path_45695" data-name="Path 45695" d="M380.229,587.58H1502.856V519.943H490.844Z" transform="translate(0 296.109)" fill="#2e4354"/>
      <rect id="Rectangle_14320" data-name="Rectangle 14320" width="1122.627" height="24.012" transform="translate(1502.856 907.702) rotate(-180)" fill="#213240"/>
      <g id="Group_16425" data-name="Group 16425" transform="translate(417.424 630.209)">
        <ellipse id="Ellipse_1873" data-name="Ellipse 1873" cx="83.155" cy="5.649" rx="83.155" ry="5.649" transform="translate(0 242.482)" fill="#848484" style="mix-blend-mode: multiply;isolation: isolate"/>
        <g id="Group_16421" data-name="Group 16421" transform="translate(13.185 60.243)">
          <path id="Path_45702" data-name="Path 45702" d="M455.564,473.353c3.068,10.842-11.577,43.111-4.375,64.439s19.341,30.889,19.341,30.889l15.461-5.223,15.463-5.221s3.856-14.963-3.346-36.291S459.7,483.837,455.564,473.353Z" transform="translate(-449.172 -473.353)" fill="#29cb97"/>
          <path id="Path_45703" data-name="Path 45703" d="M481.988,563.458l15.463-5.221s3.856-14.963-3.346-36.291-38.412-38.11-42.544-48.594Z" transform="translate(-445.17 -473.353)" fill="#b7b7b7" style="mix-blend-mode: multiply;isolation: isolate"/>
        </g>
        <g id="Group_16422" data-name="Group 16422" transform="translate(102.353 90.862)">
          <path id="Path_45704" data-name="Path 45704" d="M514.685,484.8c-2.851,7.106-24.12,18.386-29.1,32.849s-2.415,24.642-2.415,24.642l10.483,3.608,10.486,3.61s8.283-6.451,13.262-20.911S512.559,492.157,514.685,484.8Z" transform="translate(-482.513 -484.802)" fill="#29cb97"/>
          <path id="Path_45705" data-name="Path 45705" d="M486.68,545.9l10.486,3.61s8.282-6.451,13.259-20.911-4.843-36.444-2.717-43.8Z" transform="translate(-475.537 -484.802)" fill="#b7b7b7" style="mix-blend-mode: multiply;isolation: isolate"/>
        </g>
        <g id="Group_16423" data-name="Group 16423" transform="translate(115.496 102.977)">
          <path id="Path_45706" data-name="Path 45706" d="M514.295,489.332c-2.38,5.935-20.143,15.354-24.3,27.431s-2.016,20.577-2.016,20.577l8.756,3.014,8.756,3.014s6.916-5.386,11.075-17.464S512.519,495.472,514.295,489.332Z" transform="translate(-487.428 -489.332)" fill="#29cb97"/>
          <path id="Path_45707" data-name="Path 45707" d="M490.908,540.354l8.756,3.014s6.916-5.386,11.075-17.464-4.046-30.432-2.271-36.572Z" transform="translate(-481.602 -489.332)" fill="#b7b7b7" style="mix-blend-mode: multiply;isolation: isolate"/>
        </g>
        <g id="Group_16424" data-name="Group 16424" transform="translate(44.759)">
          <path id="Path_45708" data-name="Path 45708" d="M499.374,450.827c-.872,17.453-38.4,57.593-38.4,92.5S474.069,598.3,474.069,598.3h50.613s13.088-20.071,13.088-54.974S500.246,468.28,499.374,450.827Z" transform="translate(-460.978 -450.827)" fill="#29cb97"/>
          <path id="Path_45709" data-name="Path 45709" d="M475.335,598.3h25.308s13.088-20.069,13.088-54.974-37.524-75.046-38.4-92.5Z" transform="translate(-436.939 -450.827)" fill="#b7b7b7" style="mix-blend-mode: multiply;isolation: isolate"/>
        </g>
        <path id="Path_45710" data-name="Path 45710" d="M449.9,502.729c17,0,17,5.154,34.007,5.154s17-5.154,34.007-5.154,17.006,5.154,34.013,5.154,17.009-5.154,34.015-5.154V515.4H449.9Z" transform="translate(-434.766 -363.923)" fill="#8b5e3c"/>
        <path id="Rectangle_14323" data-name="Rectangle 14323" d="M18.819,0h98.405a18.819,18.819,0,0,1,18.819,18.819V96.657a0,0,0,0,1,0,0H0a0,0,0,0,1,0,0V18.819A18.819,18.819,0,0,1,18.819,0Z" transform="translate(151.177 248.131) rotate(-180)" fill="#e0e0e0"/>
        <rect id="Rectangle_14324" data-name="Rectangle 14324" width="136.043" height="8.336" transform="translate(15.134 151.475)" fill="#b7b7b7" style="mix-blend-mode: multiply;isolation: isolate"/>
      </g>
      <g id="Group_16426" data-name="Group 16426" transform="translate(639.03 326.096)">
        <ellipse id="Ellipse_1874" data-name="Ellipse 1874" cx="83.155" cy="5.649" rx="83.155" ry="5.649" transform="translate(254.814 492.275)" fill="#848484" style="mix-blend-mode: multiply;isolation: isolate"/>
        <path id="Path_45711" data-name="Path 45711" d="M723.365,578.453h-94.7l4.727-91.771h85.242Z" transform="translate(-338.048 -102.679)" fill="#e0e0e0"/>
        <path id="Path_45712" data-name="Path 45712" d="M741.212,515.618l-47.347,2.632-47.35-2.632c0,8.529-12.72,20.232-22.615,25.449a10.868,10.868,0,0,0-5.892,9.58v.323H769.721v-.323a10.868,10.868,0,0,0-5.892-9.58C753.934,535.85,741.212,524.147,741.212,515.618Z" transform="translate(-355.896 -54.229)" fill="#e0e0e0"/>
        <path id="Path_45713" data-name="Path 45713" d="M629.85,505.988h88.376l-.652-12.671H630.5Z" transform="translate(-336.069 -91.568)" fill="#b7b7b7" style="mix-blend-mode: multiply;isolation: isolate"/>
        <path id="Path_45714" data-name="Path 45714" d="M532.893,461.543v53.445a31.531,31.531,0,0,0,31.531,31.534h543.915a31.531,31.531,0,0,0,31.531-31.534V461.543Z" transform="translate(-498.412 -144.771)" fill="#e0e0e0"/>
        <path id="Path_45715" data-name="Path 45715" d="M1108.512,343.1H564.25a31.358,31.358,0,0,0-31.357,31.36V659.868H1139.87V374.456A31.358,31.358,0,0,0,1108.512,343.1Z" transform="translate(-498.412 -343.096)"/>
        <circle id="Ellipse_1875" data-name="Ellipse 1875" cx="12.864" cy="12.864" r="12.864" transform="translate(321.365 346.397)" fill="#b7b7b7"/>
        <path id="Path_52739" data-name="Path 52739" d="M1079.131,343.1H562.649c-16.435,0-29.756,13.02-29.756,29.08V636.846h575.994V372.177C1108.887,356.116,1095.566,343.1,1079.131,343.1Z" transform="translate(-482.225 -331.858)" fill="#bdd8e6"/>
      </g>
      <g id="Group_16429" data-name="Group 16429" transform="translate(730.177 847.134)">
        <ellipse id="Ellipse_1876" data-name="Ellipse 1876" cx="246.613" cy="5.649" rx="246.613" ry="5.649" transform="translate(0 25.206)" fill="#848484" style="mix-blend-mode: multiply;isolation: isolate"/>
        <g id="Group_16428" data-name="Group 16428">
          <path id="Path_45716" data-name="Path 45716" d="M1006.272,533.435H576.5l-31.4,23.721h492.559Z" transform="translate(-545.108 -533.435)" fill="#e0e0e0"/>
          <path id="Path_45717" data-name="Path 45717" d="M548.5,548.951h485.771a8.933,8.933,0,0,0,3.394-6.646H545.108A8.925,8.925,0,0,0,548.5,548.951Z" transform="translate(-545.107 -518.583)" fill="#e0e0e0"/>
          <g id="Group_16427" data-name="Group 16427" transform="translate(12.485 4.186)">
            <path id="Path_45718" data-name="Path 45718" d="M596.781,541.977h16.765L616.807,535H600.695Z" transform="translate(-471.072 -535)" fill="#231f20"/>
            <path id="Path_45719" data-name="Path 45719" d="M589.937,541.977h16.7L610.553,535H594.5Z" transform="translate(-482.531 -535)" fill="#231f20"/>
            <path id="Path_45720" data-name="Path 45720" d="M641.745,535H625.473l-1.3,6.977H641.1Z" transform="translate(-425.211 -535)" fill="#231f20"/>
            <path id="Path_45721" data-name="Path 45721" d="M603.626,541.977h16.819L623.053,535H606.887Z" transform="translate(-459.611 -535)" fill="#231f20"/>
            <path id="Path_45722" data-name="Path 45722" d="M610.472,541.977h16.866L629.293,535H613.08Z" transform="translate(-448.147 -535)" fill="#231f20"/>
            <path id="Path_45723" data-name="Path 45723" d="M635.524,535H619.275l-1.955,6.977h16.9Z" transform="translate(-436.681 -535)" fill="#231f20"/>
            <path id="Path_45724" data-name="Path 45724" d="M576.254,541.977h16.553L598.028,535h-15.9Z" transform="translate(-505.441 -535)" fill="#231f20"/>
            <path id="Path_45725" data-name="Path 45725" d="M562.575,541.977h16.379L585.48,535H569.755Z" transform="translate(-528.345 -535)" fill="#231f20"/>
            <path id="Path_45726" data-name="Path 45726" d="M583.1,541.977h16.631L604.293,535H588.316Z" transform="translate(-493.987 -535)" fill="#231f20"/>
            <path id="Path_45727" data-name="Path 45727" d="M559.354,545.108h17.163l6.526-6.977h-16.51Z" transform="translate(-533.739 -529.759)" fill="#231f20"/>
            <path id="Path_45728" data-name="Path 45728" d="M631.024,541.977h16.937l0-6.977H631.673Z" transform="translate(-413.736 -535)" fill="#231f20"/>
            <path id="Path_45729" data-name="Path 45729" d="M569.414,541.977h16.467L591.755,535H575.941Z" transform="translate(-516.893 -535)" fill="#231f20"/>
            <path id="Path_45730" data-name="Path 45730" d="M666.864,541.977h16.82L680.423,535H664.256Z" transform="translate(-358.092 -535)" fill="#231f20"/>
            <path id="Path_45731" data-name="Path 45731" d="M688.692,541.977h16.631L700.1,535H684.125Z" transform="translate(-324.825 -535)" fill="#231f20"/>
            <path id="Path_45732" data-name="Path 45732" d="M695.971,541.977h16.552L706.65,535h-15.9Z" transform="translate(-313.73 -535)" fill="#231f20"/>
            <path id="Path_45733" data-name="Path 45733" d="M703.251,541.977h16.468L713.193,535H697.378Z" transform="translate(-302.634 -535)" fill="#231f20"/>
            <path id="Path_45734" data-name="Path 45734" d="M681.415,541.977h16.7L693.549,535H677.5Z" transform="translate(-335.916 -535)" fill="#231f20"/>
            <path id="Path_45735" data-name="Path 45735" d="M726.911,541.977,719.732,535H704.006l6.527,6.977Z" transform="translate(-291.536 -535)" fill="#231f20"/>
            <path id="Path_45736" data-name="Path 45736" d="M645.053,541.977h16.926l-1.3-6.977H644.4Z" transform="translate(-391.333 -535)" fill="#231f20"/>
            <path id="Path_45737" data-name="Path 45737" d="M652.321,541.977h16.9L667.269,535h-16.25Z" transform="translate(-380.257 -535)" fill="#231f20"/>
            <path id="Path_45738" data-name="Path 45738" d="M637.881,541.977h16.7L653.931,535H637.877Z" transform="translate(-402.261 -535)" fill="#231f20"/>
            <path id="Path_45739" data-name="Path 45739" d="M659.592,541.977h16.865L673.849,535H657.637Z" transform="translate(-369.176 -535)" fill="#231f20"/>
            <path id="Path_45740" data-name="Path 45740" d="M674.139,541.977H690.9L686.989,535H670.878Z" transform="translate(-347.006 -535)" fill="#231f20"/>
            <path id="Path_45741" data-name="Path 45741" d="M589.61,538.131h-16.6l-6.526,6.977h17.251Z" transform="translate(-521.797 -529.759)" fill="#231f20"/>
            <path id="Path_45742" data-name="Path 45742" d="M716.612,538.131h-16.6l5.874,6.977h17.252Z" transform="translate(-298.221 -529.759)" fill="#231f20"/>
            <path id="Path_45743" data-name="Path 45743" d="M696.089,538.131H679.257l3.914,6.977h17.486Z" transform="translate(-332.976 -529.759)" fill="#231f20"/>
            <path id="Path_45744" data-name="Path 45744" d="M702.936,538.131H686.174l4.567,6.977h17.415Z" transform="translate(-321.393 -529.759)" fill="#231f20"/>
            <path id="Path_45745" data-name="Path 45745" d="M689.236,538.131H672.341l3.261,6.977H693.15Z" transform="translate(-344.556 -529.759)" fill="#231f20"/>
            <path id="Path_45746" data-name="Path 45746" d="M682.377,538.131h-16.95l2.608,6.977h17.6Z" transform="translate(-356.133 -529.759)" fill="#231f20"/>
            <path id="Path_45747" data-name="Path 45747" d="M709.776,538.131H693.093l5.221,6.977h17.336Z" transform="translate(-309.808 -529.759)" fill="#231f20"/>
            <path id="Path_45748" data-name="Path 45748" d="M733.3,538.1v.078h-19.44l7.179,6.977h21.6Z" transform="translate(-275.043 -529.807)" fill="#231f20"/>
            <path id="Path_45749" data-name="Path 45749" d="M575.067,541.977l7.18-6.977H563.153l-9.234,6.977Z" transform="translate(-542.838 -535)" fill="#231f20"/>
            <path id="Path_45750" data-name="Path 45750" d="M580.568,538.131H559.01l-9.234,6.977h23.613Z" transform="translate(-549.776 -529.759)" fill="#231f20"/>
            <path id="Path_45751" data-name="Path 45751" d="M675.51,538.131h-17l1.955,6.977h17.649Z" transform="translate(-367.707 -529.759)" fill="#231f20"/>
            <path id="Path_45752" data-name="Path 45752" d="M723.444,538.131H706.935l6.527,6.977h17.162Z" transform="translate(-286.633 -529.759)" fill="#231f20"/>
            <path id="Path_45753" data-name="Path 45753" d="M717.814,541.977h19.132L727.713,535H710.635Z" transform="translate(-280.437 -535)" fill="#231f20"/>
            <path id="Path_45754" data-name="Path 45754" d="M596.176,538.131H579.492l-5.873,6.977h17.337Z" transform="translate(-509.854 -529.759)" fill="#231f20"/>
            <path id="Path_45755" data-name="Path 45755" d="M622.373,538.131h-16.95l-3.261,6.977h17.6Z" transform="translate(-462.061 -529.759)" fill="#231f20"/>
            <path id="Path_45756" data-name="Path 45756" d="M615.834,538.131h-16.9l-3.914,6.977h17.549Z" transform="translate(-474.013 -529.759)" fill="#231f20"/>
            <path id="Path_45757" data-name="Path 45757" d="M628.907,538.131h-17l-2.608,6.977h17.65Z" transform="translate(-450.107 -529.759)" fill="#231f20"/>
            <path id="Path_45758" data-name="Path 45758" d="M609.288,538.131H592.455l-4.568,6.977h17.486Z" transform="translate(-485.963 -529.759)" fill="#231f20"/>
            <path id="Path_45759" data-name="Path 45759" d="M602.734,538.131H585.973l-5.22,6.977h17.414Z" transform="translate(-497.909 -529.759)" fill="#231f20"/>
            <path id="Path_45760" data-name="Path 45760" d="M635.43,538.131H618.4l-1.955,6.977h17.685Z" transform="translate(-438.149 -529.759)" fill="#231f20"/>
            <path id="Path_45761" data-name="Path 45761" d="M661.751,538.131H644.7l.649,6.977h17.709Z" transform="translate(-390.845 -529.759)" fill="#231f20"/>
            <path id="Path_45762" data-name="Path 45762" d="M654.706,538.131H637.879l0,6.977h17.472Z" transform="translate(-402.258 -529.759)" fill="#231f20"/>
            <path id="Path_45763" data-name="Path 45763" d="M641.945,538.131H624.889l-1.3,6.977H641.3Z" transform="translate(-426.189 -529.759)" fill="#231f20"/>
            <path id="Path_45764" data-name="Path 45764" d="M668.637,538.131H651.6l1.3,6.977h17.686Z" transform="translate(-379.278 -529.759)" fill="#231f20"/>
            <path id="Path_45765" data-name="Path 45765" d="M648.449,538.131H631.381l-.649,6.977h17.721Z" transform="translate(-414.224 -529.759)" fill="#231f20"/>
          </g>
          <path id="Path_45766" data-name="Path 45766" d="M548.5,548.951h485.771a8.933,8.933,0,0,0,3.394-6.646H545.108A8.925,8.925,0,0,0,548.5,548.951Z" transform="translate(-545.107 -518.583)" fill="#b7b7b7" style="mix-blend-mode: multiply;isolation: isolate"/>
        </g>
      </g>
      <g id="Group_16430" data-name="Group 16430" transform="translate(1280.26 829.447)">
        <ellipse id="Ellipse_1877" data-name="Ellipse 1877" cx="34.011" cy="3.64" rx="34.011" ry="3.64" transform="translate(0 31.415)" fill="#848484" style="mix-blend-mode: multiply;isolation: isolate"/>
        <path id="Rectangle_14328" data-name="Rectangle 14328" d="M12.077,0H55.944A12.077,12.077,0,0,1,68.022,12.077V34.753a0,0,0,0,1,0,0H0a0,0,0,0,1,0,0V12.077A12.077,12.077,0,0,1,12.077,0Z" fill="#e0e0e0"/>
      </g>
    </g>
    <g id="Group_19592" data-name="Group 19592" transform="translate(868.444 497.603)">
      <g id="Group_19568" data-name="Group 19568" transform="translate(429.955 276.397)">
        <path id="Path_52740" data-name="Path 52740" d="M410.2,452.039a.534.534,0,0,1-.534-.534V276.931a.534.534,0,1,1,1.068,0V451.5A.534.534,0,0,1,410.2,452.039Z" transform="translate(-409.67 -276.397)" fill="#d4ada6"/>
      </g>
      <g id="Group_19569" data-name="Group 19569" transform="translate(470.852 276.397)">
        <path id="Path_52741" data-name="Path 52741" d="M439.147,452.039a.534.534,0,0,1-.534-.534V276.931a.534.534,0,0,1,1.068,0V451.5A.534.534,0,0,1,439.147,452.039Z" transform="translate(-438.613 -276.397)" fill="#d4ada6"/>
      </g>
      <g id="Group_19570" data-name="Group 19570" transform="translate(511.747 276.397)">
        <path id="Path_52742" data-name="Path 52742" d="M468.088,452.039a.533.533,0,0,1-.533-.534V276.931a.533.533,0,1,1,1.067,0V451.5A.534.534,0,0,1,468.088,452.039Z" transform="translate(-467.555 -276.397)" fill="#d4ada6"/>
      </g>
      <g id="Group_19571" data-name="Group 19571" transform="translate(552.643 276.397)">
        <path id="Path_52743" data-name="Path 52743" d="M497.031,452.039a.534.534,0,0,1-.534-.534V276.931a.534.534,0,1,1,1.068,0V451.5A.534.534,0,0,1,497.031,452.039Z" transform="translate(-496.497 -276.397)" fill="#d4ada6"/>
      </g>
      <g id="Group_19572" data-name="Group 19572" transform="translate(593.538 276.397)">
        <path id="Path_52744" data-name="Path 52744" d="M525.973,452.039a.534.534,0,0,1-.534-.534V276.931a.534.534,0,1,1,1.068,0V451.5A.534.534,0,0,1,525.973,452.039Z" transform="translate(-525.439 -276.397)" fill="#d4ada6"/>
      </g>
      <g id="Group_19573" data-name="Group 19573" transform="translate(634.434 276.397)">
        <path id="Path_52745" data-name="Path 52745" d="M554.915,452.039a.534.534,0,0,1-.534-.534V276.931a.534.534,0,0,1,1.068,0V451.5A.534.534,0,0,1,554.915,452.039Z" transform="translate(-554.381 -276.397)" fill="#d4ada6"/>
      </g>
      <g id="Group_19574" data-name="Group 19574" transform="translate(675.329 276.397)">
        <path id="Path_52746" data-name="Path 52746" d="M583.857,452.039a.534.534,0,0,1-.534-.534V276.931a.534.534,0,1,1,1.068,0V451.5A.534.534,0,0,1,583.857,452.039Z" transform="translate(-583.323 -276.397)" fill="#d4ada6"/>
      </g>
      <g id="Group_19575" data-name="Group 19575" transform="translate(389.059 276.397)">
        <path id="Path_52747" data-name="Path 52747" d="M381.262,452.039a.534.534,0,0,1-.534-.534V276.931a.534.534,0,0,1,1.068,0V451.5A.534.534,0,0,1,381.262,452.039Z" transform="translate(-380.728 -276.397)" fill="#794d58"/>
      </g>
      <g id="Group_19583" data-name="Group 19583" transform="translate(387.933 459.895)">
        <g id="Group_19576" data-name="Group 19576">
          <path id="Path_52748" data-name="Path 52748" d="M383.866,409.2c0,1.974-.732,3.062-2.018,3.062-1.133,0-1.9-1.063-1.917-2.98,0-1.947.838-3.018,2.016-3.018C383.17,406.26,383.866,407.349,383.866,409.2Zm-3.151.09c0,1.508.465,2.365,1.178,2.365.8,0,1.188-.938,1.188-2.419,0-1.429-.367-2.365-1.178-2.365C381.215,406.868,380.715,407.707,380.715,409.287Z" transform="translate(-379.931 -406.26)" fill="#794d58"/>
        </g>
        <g id="Group_19577" data-name="Group 19577" transform="translate(36.049)">
          <path id="Path_52749" data-name="Path 52749" d="M406.622,407.062H406.6l-1.009.544-.151-.6,1.267-.68h.67v5.8h-.759Z" transform="translate(-405.443 -406.232)" fill="#794d58"/>
          <path id="Path_52750" data-name="Path 52750" d="M412.188,409.2c0,1.974-.732,3.062-2.016,3.062-1.135,0-1.9-1.063-1.919-2.98,0-1.947.839-3.018,2.018-3.018C411.493,406.26,412.188,407.349,412.188,409.2Zm-3.151.09c0,1.508.465,2.365,1.178,2.365.8,0,1.188-.938,1.188-2.419,0-1.429-.367-2.365-1.178-2.365C409.537,406.868,409.037,407.707,409.037,409.287Z" transform="translate(-404.282 -406.26)" fill="#794d58"/>
          <path id="Path_52751" data-name="Path 52751" d="M415.429,409.2c0,1.974-.732,3.062-2.018,3.062-1.133,0-1.9-1.063-1.919-2.98,0-1.947.839-3.018,2.018-3.018C414.732,406.26,415.429,407.349,415.429,409.2Zm-3.151.09c0,1.508.463,2.365,1.178,2.365.8,0,1.187-.938,1.187-2.419,0-1.429-.366-2.365-1.178-2.365C412.778,406.868,412.278,407.707,412.278,409.287Z" transform="translate(-402.945 -406.26)" fill="#794d58"/>
        </g>
        <g id="Group_19578" data-name="Group 19578" transform="translate(76.17)">
          <path id="Path_52752" data-name="Path 52752" d="M433.837,412.161v-.482l.616-.6c1.481-1.41,2.151-2.159,2.16-3.034a1.036,1.036,0,0,0-1.152-1.135,1.977,1.977,0,0,0-1.232.492l-.25-.554a2.544,2.544,0,0,1,1.642-.589,1.632,1.632,0,0,1,1.776,1.687c0,1.071-.776,1.937-2,3.116l-.463.428v.018h2.606v.651Z" transform="translate(-433.837 -406.26)" fill="#794d58"/>
          <path id="Path_52753" data-name="Path 52753" d="M440.956,409.2c0,1.974-.732,3.062-2.018,3.062-1.133,0-1.9-1.063-1.919-2.98,0-1.947.839-3.018,2.018-3.018C440.259,406.26,440.956,407.349,440.956,409.2Zm-3.151.09c0,1.508.465,2.365,1.178,2.365.8,0,1.187-.938,1.187-2.419,0-1.429-.366-2.365-1.178-2.365C438.3,406.868,437.8,407.707,437.8,409.287Z" transform="translate(-432.523 -406.26)" fill="#794d58"/>
          <path id="Path_52754" data-name="Path 52754" d="M444.194,409.2c0,1.974-.732,3.062-2.016,3.062-1.135,0-1.9-1.063-1.919-2.98,0-1.947.838-3.018,2.016-3.018C443.5,406.26,444.194,407.349,444.194,409.2Zm-3.151.09c0,1.508.465,2.365,1.178,2.365.8,0,1.188-.938,1.188-2.419,0-1.429-.367-2.365-1.178-2.365C441.543,406.868,441.043,407.707,441.043,409.287Z" transform="translate(-431.185 -406.26)" fill="#794d58"/>
        </g>
        <g id="Group_19579" data-name="Group 19579" transform="translate(116.79)">
          <path id="Path_52755" data-name="Path 52755" d="M462.8,411.259a2.631,2.631,0,0,0,1.286.366c1.009,0,1.321-.643,1.313-1.125-.01-.812-.742-1.16-1.5-1.16h-.438v-.589h.438c.571,0,1.294-.3,1.294-.983,0-.463-.294-.875-1.017-.875a2.125,2.125,0,0,0-1.16.386l-.2-.571a2.738,2.738,0,0,1,1.516-.448c1.143,0,1.662.68,1.662,1.385a1.441,1.441,0,0,1-1.073,1.365v.017a1.513,1.513,0,0,1,1.294,1.492c0,.927-.722,1.739-2.115,1.739a2.962,2.962,0,0,1-1.509-.391Z" transform="translate(-462.584 -406.26)" fill="#794d58"/>
          <path id="Path_52756" data-name="Path 52756" d="M469.723,409.2c0,1.974-.732,3.062-2.018,3.062-1.133,0-1.9-1.063-1.919-2.98,0-1.947.839-3.018,2.018-3.018C469.026,406.26,469.723,407.349,469.723,409.2Zm-3.151.09c0,1.508.463,2.365,1.178,2.365.8,0,1.187-.938,1.187-2.419,0-1.429-.366-2.365-1.178-2.365C467.072,406.868,466.572,407.707,466.572,409.287Z" transform="translate(-461.262 -406.26)" fill="#794d58"/>
          <path id="Path_52757" data-name="Path 52757" d="M472.962,409.2c0,1.974-.732,3.062-2.018,3.062-1.133,0-1.9-1.063-1.919-2.98,0-1.947.839-3.018,2.018-3.018C472.265,406.26,472.962,407.349,472.962,409.2Zm-3.151.09c0,1.508.465,2.365,1.178,2.365.8,0,1.187-.938,1.187-2.419,0-1.429-.366-2.365-1.179-2.365C470.311,406.868,469.811,407.707,469.811,409.287Z" transform="translate(-459.924 -406.26)" fill="#794d58"/>
        </g>
        <g id="Group_19580" data-name="Group 19580" transform="translate(157.196)">
          <path id="Path_52758" data-name="Path 52758" d="M493.876,412.132v-1.58h-2.7v-.517l2.589-3.706h.849v3.607h.811v.616h-.811v1.58Zm0-2.2V408q0-.456.027-.91h-.027c-.178.339-.321.589-.482.856l-1.419,1.973v.018Z" transform="translate(-491.18 -406.232)" fill="#794d58"/>
          <path id="Path_52759" data-name="Path 52759" d="M498.489,409.2c0,1.974-.732,3.062-2.018,3.062-1.133,0-1.9-1.063-1.919-2.98,0-1.947.839-3.018,2.018-3.018C497.792,406.26,498.489,407.349,498.489,409.2Zm-3.151.09c0,1.508.465,2.365,1.178,2.365.8,0,1.187-.938,1.187-2.419,0-1.429-.366-2.365-1.178-2.365C495.838,406.868,495.338,407.707,495.338,409.287Z" transform="translate(-489.787 -406.26)" fill="#794d58"/>
          <path id="Path_52760" data-name="Path 52760" d="M501.727,409.2c0,1.974-.732,3.062-2.016,3.062-1.135,0-1.9-1.063-1.919-2.98,0-1.947.838-3.018,2.016-3.018C501.032,406.26,501.727,407.349,501.727,409.2Zm-3.151.09c0,1.508.465,2.365,1.178,2.365.8,0,1.188-.938,1.188-2.419,0-1.429-.367-2.365-1.178-2.365C499.076,406.868,498.576,407.707,498.576,409.287Z" transform="translate(-488.449 -406.26)" fill="#794d58"/>
        </g>
        <g id="Group_19581" data-name="Group 19581" transform="translate(198.086)">
          <path id="Path_52761" data-name="Path 52761" d="M523.61,406.99H521.4l-.223,1.491a3.044,3.044,0,0,1,.473-.035,2.459,2.459,0,0,1,1.249.312,1.652,1.652,0,0,1,.831,1.491,2.013,2.013,0,0,1-2.16,1.981,2.837,2.837,0,0,1-1.447-.357l.2-.6a2.593,2.593,0,0,0,1.239.322,1.281,1.281,0,0,0,1.376-1.259c-.01-.75-.51-1.286-1.67-1.286a5.961,5.961,0,0,0-.8.064l.375-2.786h2.777Z" transform="translate(-520.118 -406.232)" fill="#794d58"/>
          <path id="Path_52762" data-name="Path 52762" d="M527.257,409.2c0,1.974-.732,3.062-2.018,3.062-1.133,0-1.9-1.063-1.919-2.98,0-1.947.839-3.018,2.018-3.018C526.56,406.26,527.257,407.349,527.257,409.2Zm-3.151.09c0,1.508.464,2.365,1.179,2.365.8,0,1.187-.938,1.187-2.419,0-1.429-.366-2.365-1.178-2.365C524.606,406.868,524.106,407.707,524.106,409.287Z" transform="translate(-518.796 -406.26)" fill="#794d58"/>
          <path id="Path_52763" data-name="Path 52763" d="M530.5,409.2c0,1.974-.732,3.062-2.018,3.062-1.133,0-1.9-1.063-1.919-2.98,0-1.947.839-3.018,2.018-3.018C529.8,406.26,530.5,407.349,530.5,409.2Zm-3.151.09c0,1.508.465,2.365,1.178,2.365.8,0,1.187-.938,1.187-2.419,0-1.429-.366-2.365-1.178-2.365C527.845,406.868,527.345,407.707,527.345,409.287Z" transform="translate(-517.458 -406.26)" fill="#794d58"/>
        </g>
        <g id="Group_19582" data-name="Group 19582" transform="translate(238.664)">
          <path id="Path_52764" data-name="Path 52764" d="M552.245,406.909a2.89,2.89,0,0,0-.589.035,2.36,2.36,0,0,0-2.018,2.063h.027a1.768,1.768,0,0,1,3.151,1.205,1.939,1.939,0,0,1-1.927,2.043c-1.242,0-2.053-.962-2.053-2.473a3.641,3.641,0,0,1,.982-2.614,3.16,3.16,0,0,1,1.857-.858,3.8,3.8,0,0,1,.571-.044Zm-.223,3.347a1.179,1.179,0,0,0-1.2-1.33,1.29,1.29,0,0,0-1.123.715.648.648,0,0,0-.09.348c.018.955.455,1.66,1.277,1.66C551.566,411.649,552.021,411.087,552.021,410.256Z" transform="translate(-548.835 -406.257)" fill="#794d58"/>
          <path id="Path_52765" data-name="Path 52765" d="M556.022,409.2c0,1.974-.732,3.062-2.016,3.062-1.135,0-1.9-1.063-1.919-2.98,0-1.947.838-3.018,2.016-3.018C555.327,406.26,556.022,407.349,556.022,409.2Zm-3.151.09c0,1.508.465,2.365,1.178,2.365.8,0,1.188-.938,1.188-2.419,0-1.429-.367-2.365-1.178-2.365C553.371,406.868,552.871,407.707,552.871,409.287Z" transform="translate(-547.492 -406.26)" fill="#794d58"/>
          <path id="Path_52766" data-name="Path 52766" d="M559.263,409.2c0,1.974-.732,3.062-2.018,3.062-1.133,0-1.9-1.063-1.919-2.98,0-1.947.839-3.018,2.018-3.018C558.566,406.26,559.263,407.349,559.263,409.2Zm-3.151.09c0,1.508.464,2.365,1.178,2.365.8,0,1.187-.938,1.187-2.419,0-1.429-.366-2.365-1.179-2.365C556.612,406.868,556.112,407.707,556.112,409.287Z" transform="translate(-546.154 -406.26)" fill="#794d58"/>
        </g>
      </g>
      <g id="Group_19588" data-name="Group 19588" transform="translate(368.164 308.364)">
        <g id="Group_19584" data-name="Group 19584" transform="translate(0.268 110.609)">
          <path id="Path_52767" data-name="Path 52767" d="M366.13,383.2v-.482l.616-.6c1.481-1.41,2.151-2.159,2.16-3.034a1.036,1.036,0,0,0-1.152-1.135,1.977,1.977,0,0,0-1.232.492l-.25-.554a2.544,2.544,0,0,1,1.642-.589,1.633,1.633,0,0,1,1.776,1.689c0,1.07-.776,1.936-2,3.114l-.463.428v.018h2.606v.651Z" transform="translate(-366.13 -377.299)" fill="#794d58"/>
          <path id="Path_52768" data-name="Path 52768" d="M373.249,380.235c0,1.974-.732,3.062-2.018,3.062-1.133,0-1.9-1.063-1.919-2.98,0-1.947.839-3.018,2.018-3.018C372.552,377.3,373.249,378.388,373.249,380.235Zm-3.151.09c0,1.508.465,2.365,1.178,2.365.8,0,1.187-.937,1.187-2.419,0-1.429-.366-2.365-1.178-2.365C370.6,377.907,370.1,378.746,370.1,380.326Z" transform="translate(-364.816 -377.299)" fill="#794d58"/>
          <path id="Path_52769" data-name="Path 52769" d="M376.487,380.235c0,1.974-.732,3.062-2.016,3.062-1.135,0-1.9-1.063-1.919-2.98,0-1.947.838-3.018,2.016-3.018C375.792,377.3,376.487,378.388,376.487,380.235Zm-3.151.09c0,1.508.465,2.365,1.178,2.365.8,0,1.188-.937,1.188-2.419,0-1.429-.367-2.365-1.178-2.365C373.836,377.907,373.336,378.746,373.336,380.326Z" transform="translate(-363.478 -377.299)" fill="#794d58"/>
        </g>
        <g id="Group_19585" data-name="Group 19585" transform="translate(0 73.74)">
          <path id="Path_52770" data-name="Path 52770" d="M368.636,357.078V355.5h-2.7v-.517l2.589-3.7h.848v3.606h.812v.616h-.812v1.58Zm0-2.2v-1.937q0-.454.027-.91h-.027c-.178.339-.322.589-.482.856l-1.419,1.974v.017Z" transform="translate(-365.94 -351.177)" fill="#794d58"/>
          <path id="Path_52771" data-name="Path 52771" d="M373.249,354.144c0,1.973-.732,3.062-2.018,3.062-1.133,0-1.9-1.063-1.919-2.981,0-1.947.839-3.018,2.018-3.018C372.552,351.206,373.249,352.3,373.249,354.144Zm-3.151.089c0,1.508.465,2.365,1.178,2.365.8,0,1.187-.937,1.187-2.419,0-1.429-.366-2.365-1.178-2.365C370.6,351.814,370.1,352.653,370.1,354.233Z" transform="translate(-364.547 -351.206)" fill="#794d58"/>
          <path id="Path_52772" data-name="Path 52772" d="M376.487,354.144c0,1.973-.732,3.062-2.016,3.062-1.135,0-1.9-1.063-1.919-2.981,0-1.947.838-3.018,2.016-3.018C375.792,351.206,376.487,352.3,376.487,354.144Zm-3.151.089c0,1.508.465,2.365,1.178,2.365.8,0,1.188-.937,1.188-2.419,0-1.429-.367-2.365-1.178-2.365C373.836,351.814,373.336,352.653,373.336,354.233Z" transform="translate(-363.209 -351.206)" fill="#794d58"/>
        </g>
        <g id="Group_19586" data-name="Group 19586" transform="translate(0.17 36.871)">
          <path id="Path_52773" data-name="Path 52773" d="M369.47,325.763a2.9,2.9,0,0,0-.589.035,2.358,2.358,0,0,0-2.016,2.063h.027a1.768,1.768,0,0,1,3.151,1.205,1.939,1.939,0,0,1-1.927,2.043c-1.242,0-2.055-.964-2.055-2.473a3.651,3.651,0,0,1,.982-2.615,3.158,3.158,0,0,1,1.857-.856,3.618,3.618,0,0,1,.571-.044Zm-.222,3.347a1.18,1.18,0,0,0-1.2-1.331,1.294,1.294,0,0,0-1.125.715.669.669,0,0,0-.089.348c.017.955.455,1.66,1.277,1.66C368.793,330.5,369.248,329.941,369.248,329.11Z" transform="translate(-366.06 -325.111)" fill="#794d58"/>
          <path id="Path_52774" data-name="Path 52774" d="M373.249,328.05c0,1.973-.732,3.062-2.018,3.062-1.133,0-1.9-1.063-1.919-2.981,0-1.946.839-3.017,2.018-3.017C372.552,325.114,373.249,326.2,373.249,328.05Zm-3.151.089c0,1.509.465,2.365,1.178,2.365.8,0,1.187-.937,1.187-2.419,0-1.427-.366-2.365-1.178-2.365C370.6,325.72,370.1,326.56,370.1,328.139Z" transform="translate(-364.717 -325.114)" fill="#794d58"/>
          <path id="Path_52775" data-name="Path 52775" d="M376.487,328.05c0,1.973-.732,3.062-2.016,3.062-1.135,0-1.9-1.063-1.919-2.981,0-1.946.838-3.017,2.016-3.017C375.792,325.114,376.487,326.2,376.487,328.05Zm-3.151.089c0,1.509.465,2.365,1.178,2.365.8,0,1.188-.937,1.188-2.419,0-1.427-.367-2.365-1.178-2.365C373.836,325.72,373.336,326.56,373.336,328.139Z" transform="translate(-363.379 -325.114)" fill="#794d58"/>
        </g>
        <g id="Group_19587" data-name="Group 19587" transform="translate(0.196)">
          <path id="Path_52776" data-name="Path 52776" d="M366.079,303.448a1.659,1.659,0,0,1,1.152-1.554l-.008-.025a1.439,1.439,0,0,1-.92-1.3,1.625,1.625,0,0,1,1.795-1.544,1.5,1.5,0,0,1,1.687,1.429,1.475,1.475,0,0,1-.955,1.357v.027a1.61,1.61,0,0,1,1.169,1.5,1.785,1.785,0,0,1-1.973,1.686C366.812,305.018,366.079,304.295,366.079,303.448Zm3.124-.037c0-.705-.49-1.044-1.276-1.267a1.262,1.262,0,0,0-1.044,1.2,1.072,1.072,0,0,0,1.16,1.106A1.05,1.05,0,0,0,369.2,303.412Zm-2.159-2.9c0,.581.437.893,1.106,1.071a1.143,1.143,0,0,0,.883-1.054.9.9,0,0,0-.982-.945A.922.922,0,0,0,367.044,300.511Z" transform="translate(-366.079 -299.02)" fill="#794d58"/>
          <path id="Path_52777" data-name="Path 52777" d="M373.249,301.956c0,1.974-.732,3.062-2.018,3.062-1.133,0-1.9-1.063-1.919-2.98,0-1.947.839-3.018,2.018-3.018C372.552,299.02,373.249,300.108,373.249,301.956Zm-3.151.09c0,1.508.465,2.364,1.178,2.364.8,0,1.187-.937,1.187-2.419,0-1.427-.366-2.364-1.178-2.364C370.6,299.628,370.1,300.466,370.1,302.047Z" transform="translate(-364.744 -299.02)" fill="#794d58"/>
          <path id="Path_52778" data-name="Path 52778" d="M376.487,301.956c0,1.974-.732,3.062-2.016,3.062-1.135,0-1.9-1.063-1.919-2.98,0-1.947.838-3.018,2.016-3.018C375.792,299.02,376.487,300.108,376.487,301.956Zm-3.151.09c0,1.508.465,2.364,1.178,2.364.8,0,1.188-.937,1.188-2.419,0-1.427-.367-2.364-1.178-2.364C373.836,299.628,373.336,300.466,373.336,302.047Z" transform="translate(-363.406 -299.02)" fill="#794d58"/>
        </g>
      </g>
      <rect id="Rectangle_16161" data-name="Rectangle 16161" width="10.162" height="50.769" transform="translate(425.408 400.736)" fill="#a05967"/>
      <rect id="Rectangle_16162" data-name="Rectangle 16162" width="10.162" height="59.052" transform="translate(466.304 392.454)" fill="#a05967"/>
      <rect id="Rectangle_16163" data-name="Rectangle 16163" width="10.162" height="80.326" transform="translate(507.2 371.179)" fill="#a05967"/>
      <rect id="Rectangle_16164" data-name="Rectangle 16164" width="10.162" height="87.501" transform="translate(548.095 364.004)" fill="#a05967"/>
      <rect id="Rectangle_16165" data-name="Rectangle 16165" width="10.162" height="96.287" transform="translate(588.991 355.218)" fill="#a05967"/>
      <rect id="Rectangle_16166" data-name="Rectangle 16166" width="10.162" height="103.32" transform="translate(629.887 348.185)" fill="#a05967"/>
      <path id="Path_52792" data-name="Path 52792" d="M0-15.752l10.162,2.146V117.555H0Z" transform="translate(670.782 333.95)" fill="#a05967"/>
      <rect id="Rectangle_16168" data-name="Rectangle 16168" width="10.162" height="17.148" transform="translate(425.408 434.357)" fill="#d18c99"/>
      <rect id="Rectangle_16169" data-name="Rectangle 16169" width="10.162" height="15.892" transform="translate(466.304 435.613)" fill="#d18c99"/>
      <rect id="Rectangle_16170" data-name="Rectangle 16170" width="10.162" height="27.131" transform="translate(507.2 424.374)" fill="#d18c99"/>
      <rect id="Rectangle_16171" data-name="Rectangle 16171" width="10.162" height="21.448" transform="translate(548.095 430.057)" fill="#d18c99"/>
      <rect id="Rectangle_16172" data-name="Rectangle 16172" width="10.162" height="29.482" transform="translate(588.991 422.023)" fill="#d18c99"/>
      <rect id="Rectangle_16173" data-name="Rectangle 16173" width="10.162" height="32.196" transform="translate(629.887 419.31)" fill="#d18c99"/>
      <rect id="Rectangle_16174" data-name="Rectangle 16174" width="10.162" height="39.706" transform="translate(670.782 411.8)" fill="#d18c99"/>
      <g id="Group_19590" data-name="Group 19590" transform="translate(386.743 326.604)">
        <g id="Group_19589" data-name="Group 19589" transform="translate(0 5.487)">
          <path id="Path_52779" data-name="Path 52779" d="M380.95,410.454a1.859,1.859,0,0,1-.93-3.47l41.886-24.137a1.841,1.841,0,0,1,1.075-.243l39.187,3.114,41.853-15.171c.526-.407,1.783-1.39,2.4-1.142l40.038-13.344,39.026-9.729a1.84,1.84,0,0,1,.576-.218l40.617-7.979,40.477-25.51c.9-.489,1.453.676,1.943,1.578s-.488,1.188-1.391,1.68l-39.5,25.655a1.844,1.844,0,0,1-.53.191L587.082,349.7l-39.66,9.685a7.156,7.156,0,0,1-3.273,0l-38.822,13.57-41.418,15.562c-.366.284-1.279.03-1.74,0l-38.906-2.166-41.387,23.85A1.851,1.851,0,0,1,380.95,410.454Z" transform="translate(-378.089 -328.812)" fill="#794d58"/>
        </g>
        <path id="Path_52780" data-name="Path 52780" d="M419.541,366.539a7.346,7.346,0,1,1-7.346-7.345A7.345,7.345,0,0,1,419.541,366.539Z" transform="translate(-368.449 -292.408)" fill="#794d58"/>
        <path id="Path_52781" data-name="Path 52781" d="M448.483,369.171a7.346,7.346,0,1,1-7.345-7.346A7.344,7.344,0,0,1,448.483,369.171Z" transform="translate(-356.496 -305.321)" fill="#794d58"/>
        <path id="Path_52782" data-name="Path 52782" d="M477.425,345.622a7.346,7.346,0,1,1-7.345-7.345A7.346,7.346,0,0,1,477.425,345.622Z" transform="translate(-344.543 -299.047)" fill="#794d58"/>
        <path id="Path_52783" data-name="Path 52783" d="M506.367,357.529a7.346,7.346,0,1,1-7.345-7.346A7.346,7.346,0,0,1,506.367,357.529Z" transform="translate(-332.589 -322.13)" fill="#794d58"/>
        <path id="Path_52784" data-name="Path 52784" d="M535.309,340.424a7.346,7.346,0,1,1-7.345-7.346A7.344,7.344,0,0,1,535.309,340.424Z" transform="translate(-320.636 -315.194)" fill="#794d58"/>
        <path id="Path_52785" data-name="Path 52785" d="M564.253,334.372a7.346,7.346,0,1,1-7.346-7.346A7.347,7.347,0,0,1,564.253,334.372Z" transform="translate(-308.682 -316.694)" fill="#794d58"/>
        <path id="Path_52786" data-name="Path 52786" d="M593.195,319.275a7.346,7.346,0,1,1-7.346-7.346A7.346,7.346,0,0,1,593.195,319.275Z" transform="translate(-296.729 -329.929)" fill="#794d58"/>
      </g>
      <g id="Group_19591" data-name="Group 19591" transform="translate(360.556 450.971)">
        <path id="Path_52787" data-name="Path 52787" d="M681.565,401.012H361.09a.534.534,0,0,1,0-1.068H681.565a.534.534,0,1,1,0,1.068Z" transform="translate(-360.556 -399.944)" fill="#794d58"/>
      </g>
    </g>
    <g id="character5" transform="translate(837.617 513.539)">
      <path id="Path_52718" data-name="Path 52718" d="M354.534,302.977c.843.962-2.075,4.37-6.409,6.948s-10.39,22.6-10.39,22.6l-3.021-2.985s.145,7.776-1.735,7.648-1.416-3.779-1.97-5.83-10.318-9.656-6.376-19.865C329.391,299.167,353.172,301.425,354.534,302.977Z" transform="translate(18.427 4.45)" fill="#403338"/>
      <path id="Path_52719" data-name="Path 52719" d="M332.484,322.284c2.1,15.482-3.665,23.986-6.906,25.427s37.8,3.867,34.2,2.52-10.081-6.1-10.441-21.594c-.271-11.623-9.2-7.638-13.624-4.1-1.056.847-3.124-6.36-3.3-4.579A10.042,10.042,0,0,0,332.484,322.284Z" transform="translate(18.922 9.671)" fill="#de9c86"/>
      <path id="Path_52720" data-name="Path 52720" d="M418.807,353.488c1.587-2.955,1.813-10.2,4.369-11.861.99-.646,9.635-4.724,10.716-4.364s3.933,12.6,2.673,14.762-10.046,8.526-12.447,8.109c-1.647-.287-4.229,6.676-4.229,6.676s-4.321-7.381-3.241-8.822S417.422,356.071,418.807,353.488Z" transform="translate(45.43 14.783)" fill="#e5b48f"/>
      <path id="Path_52721" data-name="Path 52721" d="M425.089,358.7l34.432-71.962a.5.5,0,0,1,.909.427L427.037,359.61a1.076,1.076,0,0,1-1.955-.9Z" transform="translate(47.907 0)" fill="#292f54"/>
      <path id="Path_52722" data-name="Path 52722" d="M278.326,556.348c-.78,3.381-4.942,9.08-5.2,12.474s32.559,7.421,34.381,7.161-12.284-9.09-17.092-12.692c-4.677-3.5.4-11.41.4-11.41Z" transform="translate(3.708 77.253)" fill="#403338"/>
      <path id="Path_52723" data-name="Path 52723" d="M354.292,560.084c-.323,3.456-3.479,9.652-3.494,13.056-.008,1.921,31.917,5.4,35.468,2.648,1.653-1.283-14.292-6.564-19.2-10.259-4.671-3.513-.992-11.537-.992-11.537Z" transform="translate(26.315 77.868)" fill="#403338"/>
      <path id="Path_52724" data-name="Path 52724" d="M385.419,448.685c.94,28.171-.585,53.842,0,62.035S383.726,545,390.4,602.162c.315,2.7-15.744,6.676-17.217,2.714-7.038-18.923-21.575-62.4-19.339-78.425,1.074-7.705,3.381-23.142,3.966-26.694s-5.18-46-5.18-46S339.977,502.1,334.71,510.183A311.906,311.906,0,0,0,305,566.9c-4.83,12.367-10.062,27.325-12.238,35.411-1.34,4.978-19.65-.008-18.892-5.107,3.685-24.8,9.241-67.123,18.892-84.012,5.027-8.8,18.922-20.614,18.922-20.614l4.681-43.255,9.5-43.8,53.129,2.463Z" transform="translate(3.918 34.656)" fill="#69493b"/>
      <path id="Path_52725" data-name="Path 52725" d="M333.333,332.175c-.549-.6-1.771,4.405-3.163,6.889s-5.5,8.251-5.5,8.251l-2.692,86.219L361,434.883l-1.726-90.815s-4.474-3.661-5.309-5-2.493-8.778-3.159-7.948-5.052,5.482-7.111,5.771S333.99,332.889,333.333,332.175Z" transform="translate(17.928 12.982)" fill="#f5f5f0"/>
      <path id="Path_52726" data-name="Path 52726" d="M339.175,344.386c.883,3.532,2.33,5.307,1.711,7.655s-12.318,64.5-12.4,66.33,16.479,11.077,16.479,11.077,4.821-46.577,3.073-60.81c-.612-4.973-4.738-16.281-4.248-17.673s2.539-5.435,2.539-5.435-3.157-8.431-3.929-8.34S339.175,344.386,339.175,344.386Z" transform="translate(19.821 14.768)" fill="#d57872"/>
      <g id="Group_19564" data-name="Group 19564" transform="translate(347.949 351.596)">
        <path id="Path_52727" data-name="Path 52727" d="M336.534,350.782a.53.53,0,0,1-.1-.01c-1.108-.2-6.725-8.709-8.18-11.31a.358.358,0,1,1,.625-.35c1.943,3.469,6.511,9.99,7.591,10.878a58.317,58.317,0,0,0,2.719-6.335c2.448-6.216,2.794-6.793,3.326-6.743s1.082,1.154,3.548,6.968c.892,2.1,1.978,4.661,2.437,5.416a73.091,73.091,0,0,0,4.51-9.5.358.358,0,0,1,.713.074c-.035.421-3.9,9.308-4.92,10.148a.5.5,0,0,1-.376.129c-.417-.047-.723-.567-3.024-5.989a67.76,67.76,0,0,0-2.923-6.4,63.713,63.713,0,0,0-2.623,6.157C337.5,349.908,337.042,350.782,336.534,350.782Z" transform="translate(-328.209 -336.91)" fill="#c3c0aa"/>
      </g>
      <path id="Path_52728" data-name="Path 52728" d="M284.062,434.524c-2.594.533-14.2,6.131-16.314,8.349-3.618,3.792-8.9,10.034-6.946,10.034,2.5,0,17.39-9.24,18.2-8.438,2.164,2.13-2.157,4.769-3.066,6.586s.021,4.2.635,4.315,2.825-3.18,3.082-3.407,9.228-5.31,9.569-7.026S290.7,434.7,290.7,434.7Z" transform="translate(0 43.097)" fill="#e5b48f"/>
      <path id="Path_52729" data-name="Path 52729" d="M342.583,338.146c-16.993,8.007-31.015,16.941-34.029,22.326S273.588,461.41,273.588,461.41l16.092,7.381s26.495-68.107,29.194-68.138c1.078-.013,2.2,12.752-1.043,26.358-4.879,20.473-12.907,40.995-12.856,45.987.083,8.312,34.369,8.729,34.369,8.729S351.214,355.2,342.583,338.146Z" transform="translate(3.843 15.046)" fill="#5a867c"/>
      <path id="Path_52730" data-name="Path 52730" d="M354.939,340s16.129,7.843,17.487,9.644,24.18,23.009,30.3,22.6,40.414-19.621,40.414-19.621,3.712,6.972,5.456,9.967-32,31.823-42.046,34.3c-9.412,2.324-33.108-14.835-33.108-14.835a142.387,142.387,0,0,0-4.151,41.679c1.295,21.466,5.493,43.454,5.81,49.124.537,9.649-42.962,7.523-42.962,7.523s4.653-37.019,10.593-72.7c2.3-13.835,5.947-26.893,7.878-38.374C353.351,353.021,353.917,340.815,354.939,340Z" transform="translate(20.885 15.585)" fill="#5a867c"/>
      <path id="Path_52731" data-name="Path 52731" d="M349.159,306.727a28.716,28.716,0,0,1,3.752,7.467c.646,2.316,1.951,10.69,1.951,10.69s2.32,7.369,1.083,8.308c-5.3,4.019-16.671,4.427-19.79,1.445-1.7-1.62-3.175-8.747-3.175-8.747a2.285,2.285,0,0,1-2.009-.12c-.84-.611-3.911-6.543-2.5-6.951,3.328-.961,4.515,4.117,5.615,6.108.315.571,1.366.3,1.534.314.755.067-3.754-12.086,1.217-15.947C339.522,307.21,348.334,306.018,349.159,306.727Z" transform="translate(19.711 5.842)" fill="#e5b48f"/>
      <path id="Path_52732" data-name="Path 52732" d="M332.034,334.819c.111-2.867-10.989,7.3-11.306,8.269s-.411,19.08,0,20.529c.391,1.385,8.774,5.648,8.357,6.692s-7.533-1.365-7.793-.556c-.664,2.07,9.382,37.926,9.7,39.536.29,1.474,2.254-35.234,2.314-44.814C333.375,353.333,331.968,336.53,332.034,334.819Z" transform="translate(17.483 13.93)" fill="#447167"/>
      <path id="Path_52733" data-name="Path 52733" d="M347.3,334.164c-.11-2.867,10.97,8.975,10.97,10.393,0,1.983.618,17.424-.1,18.661-1.268,2.186-8.775,5.648-8.357,6.693s7.533-1.366,7.793-.556c.664,2.068-16.915,42.25-17.26,40.152-.243-1.483,5.976-35.909,7.3-42.97C350.113,353.413,347.367,335.874,347.3,334.164Z" transform="translate(23.271 13.757)" fill="#447167"/>
      <path id="Path_52736" data-name="Path 52736" d="M425.505,338.648c.684-.536,1.579-.576,2.088-1,1.526-1.27,2.017-2.351,2.416-1.513.531,1.118.059,3.718-2.11,5.085a8.613,8.613,0,0,0-3.061,4.214l-2.98-3.548S424.545,339.4,425.505,338.648Z" transform="translate(46.997 14.375)" fill="#e5b48f"/>
      <path id="Path_52737" data-name="Path 52737" d="M432.566,352.669a9.913,9.913,0,0,1-2.853.609c-.9-.087-4.036-2.975-4.1-4.923s2.574-3.627,2.574-3.627-3.062.913-3.091-.657,3.717-4.135,5.039-5.806Z" transform="translate(47.938 15.081)" fill="#e5b48f"/>
      <g id="Group_19567" data-name="Group 19567" transform="translate(472.742 353.061)">
        <path id="Path_52738" data-name="Path 52738" d="M430.14,353.65a3.144,3.144,0,0,1-.4-.023c-1.384-.168-4.281-3.087-4.357-5.2a4.389,4.389,0,0,1,1.721-3.118,2.692,2.692,0,0,1-1.795-.279,1.087,1.087,0,0,1-.443-.892c-.021-1.15,1.576-2.61,3.122-4.023a19.907,19.907,0,0,0,1.979-1.965.287.287,0,0,1,.451.355,19.937,19.937,0,0,1-2.042,2.033c-1.316,1.2-2.951,2.7-2.935,3.589a.507.507,0,0,0,.207.439c.555.405,2,.1,2.515-.052a.287.287,0,0,1,.236.516c-.026.017-2.5,1.615-2.441,3.375.063,1.8,2.691,4.507,3.852,4.648a5.86,5.86,0,0,0,2.692-.582.287.287,0,0,1,.252.516A6.894,6.894,0,0,1,430.14,353.65Z" transform="translate(-424.869 -338.044)" fill="#d58970"/>
      </g>
    </g>
    <g id="Group_19603" data-name="Group 19603" transform="translate(858.856 572.901)">
      <path id="Path_52788" data-name="Path 52788" d="M661.059,210.01A27.852,27.852,0,0,0,624.034,179a38.588,38.588,0,0,0-42.176-22.68,54.959,54.959,0,0,0-100.8-.355,39.217,39.217,0,0,0-4.283-.241,38.625,38.625,0,0,0-35.312,54.281Z" transform="translate(0 0)" fill="#fff"/>
      <path id="Path_52789" data-name="Path 52789" d="M443.53,210.292a35.74,35.74,0,0,1,33.382-48.5,36.583,36.583,0,0,1,3.966.224l2.108.233.853-1.942a52.071,52.071,0,0,1,95.506.336l.9,2.1,2.25-.395a35.693,35.693,0,0,1,39.025,20.984l1.086,2.5,2.562-.943a24.968,24.968,0,0,1,33.572,23.425c0,.654-.027,1.316-.081,1.98Z" transform="translate(-0.141 -0.282)" fill="#fff"/>
      <path id="Path_52791" data-name="Path 52791" d="M516.891,176.748V219.5h28.888V176.748h7.361L542.237,165l-10.9-11.748L520.432,165l-10.9,11.748Z" transform="translate(-3.321 -1.403)" fill="#d57872"/>
    </g>
  </g>
</svg>
