<svg xmlns="http://www.w3.org/2000/svg" width="20" height="24" viewBox="0 0 20 24">
  <path id="Shape" d="M10,24h0a10.834,10.834,0,0,0-3.3-2.24,11.594,11.594,0,0,1-5.425-4.648L0,18.912V13l5.051,3.132H2.719A8.765,8.765,0,0,0,5.3,18.679,7.817,7.817,0,0,0,9,20V16.069A4.639,4.639,0,0,1,5.925,14.8a3.308,3.308,0,0,1-.964-2.554C5.1,9.925,7.082,9.026,9,8.453V7.9A3.686,3.686,0,0,0,7.982,5.384,3.489,3.489,0,0,1,7,3a3,3,0,0,1,6,0,3.518,3.518,0,0,1-.982,2.384A3.718,3.718,0,0,0,11,7.9v.036c1.759-.426,3.753-.908,4.033-1.969.188-.714-.221-1.278-1.25-1.723a3.745,3.745,0,0,0,.123-2.085,5.066,5.066,0,0,1,2.53,1.617,3,3,0,0,1,.53,2.7c-.585,2.214-3.137,2.832-5.6,3.43l-.008,0L11,9.993V13.8a5.834,5.834,0,0,0,2.633-2.056l1.613,1.183A7.55,7.55,0,0,1,11,15.888v4.1a8.891,8.891,0,0,0,6.281-3.852H14.949L20,13v5.911l-1.269-1.8a11.594,11.594,0,0,1-5.425,4.649A10.834,10.834,0,0,0,10,24ZM9,10.56c-1.384.482-1.995,1.025-2.043,1.814-.042.683.468,1.539,2.043,1.7V10.56ZM10,2a1,1,0,1,0,1,1A1,1,0,0,0,10,2Z" fill="#333"/>
</svg>
