<svg xmlns="http://www.w3.org/2000/svg" width="142.099" height="85.524" viewBox="0 0 142.099 85.524">
  <path id="Path_52433" data-name="Path 52433" d="M1234.955,1140.284s2.215-29-14.11-38.522c0,0-5.378-1.224-4.053,5.5s-2.661,24.158-8.756,23.948c0,0-2.372.332-1.15-2.567s6.2-41.069-16.517-56.718c0,0-7.146-5.067-5.189,3.289s5.037,21.734-1.414,29.382c0,0-4.381,4.89-3.906-1.74s2.6-36.536-20.413-45.318c0,0-8.828-2.907-3.968,7.316s.735,24.738-2.932,25.185,6.382-21.138-23.208-32.677c0,0-12.553-4.635-18.838-1.249,0,0-14.686,25.6,15.739,40.365,0,0,1.555,1.674-.858,2.418s-17.29-.4-24.4-10.238-7.675,13.025-2.233,20.654,14.136,15.506,36.551,19.177c0,0,2.954,2.437-1.462,3.19s-17.411,4.256-31.163-9c-12.4-11.953-11.878,7.793-4.332,17.72" transform="translate(1235.056 1140.4) rotate(180)" fill="#6ba9a3"/>
</svg>
