<?xml version="1.0" encoding="utf-8"?>
<!-- Generator: Adobe Illustrator 24.1.2, SVG Export Plug-In . SVG Version: 6.00 Build 0)  -->
<svg version="1.1" id="Group_19199" xmlns="http://www.w3.org/2000/svg" xmlns:xlink="http://www.w3.org/1999/xlink" x="0px"
	 y="0px" viewBox="0 0 1920.2 566" style="enable-background:new 0 0 1920.2 566;" xml:space="preserve">
<style type="text/css">
	.st0{fill:#FFFFFF;}
</style>
<g id="Group_19198_2_" transform="translate(0 0)">
	<path class="st0" d="M1920.2,0v566h-699.6c-26.4-43.9-70.1-89.8-157-56.7c-27.9,10.6-51,12.7-82,8.5c-14.3-2-34.9-23.5-33.4-42.5
		c1.1-14.5,10.4-29.3,20.6-34.4c5.3-2.7,10.9-4.8,16.7-6.4c24.5-6.3,18.6-34.3,9.6-41.7c-32.9-26.9-117.9,8.5-137-75
		c-6.8-29.8-0.9-69.1,14.9-92c15.8-22.9,41.7-36.2,64.6-42.5c22.9-6.3,46.3-8.1,69-15.4c18.2-5.9,37.5-17.9,43.9-41.3
		c4.8-17.5,0.9-37-4.7-54c-7.2-22.4-18-43.4-31.9-62.3c-2-2.7-4.7-6.4-7.1-10.2H1920.2z"/>
</g>
</svg>
