<?xml version="1.0" encoding="utf-8"?>
<!-- Generator: Adobe Illustrator 24.1.2, SVG Export Plug-In . SVG Version: 6.00 Build 0)  -->
<svg version="1.1" id="Слой_1" xmlns="http://www.w3.org/2000/svg" xmlns:xlink="http://www.w3.org/1999/xlink" x="0px" y="0px"
	 width="157.2px" height="144.4px" viewBox="0 0 157.2 144.4" enable-background="new 0 0 157.2 144.4" xml:space="preserve">
<g id="Group_16671" transform="translate(-9889 708.223)">
	<g id="Group_16667" transform="translate(9889 -677.203)">
		
			<linearGradient id="Path_45504_1_" gradientUnits="userSpaceOnUse" x1="-167.2504" y1="282.704" x2="-167.4294" y2="284.978" gradientTransform="matrix(78.58 0 0 -23.044 13267.1816 6551.3916)">
			<stop  offset="0" style="stop-color:#BD947B"/>
			<stop  offset="1" style="stop-color:#AD8770"/>
		</linearGradient>
		<path id="Path_45504" fill-rule="evenodd" clip-rule="evenodd" fill="url(#Path_45504_1_)" d="M78.6,0.6l52.8,19l25.7,3.5v-0.6
			l-52.8-19L78.6,0V0.6z"/>
		
			<linearGradient id="Path_45505_1_" gradientUnits="userSpaceOnUse" x1="-167.4078" y1="282.956" x2="-167.2588" y2="284.722" gradientTransform="matrix(78.579 0 0 -23.047 13188.4365 6552.2617)">
			<stop  offset="0" style="stop-color:#9C7A64"/>
			<stop  offset="1" style="stop-color:#8E715E"/>
		</linearGradient>
		<path id="Path_45505" fill-rule="evenodd" clip-rule="evenodd" fill="url(#Path_45505_1_)" d="M78.6,0.6l-52.8,19L0,23v-0.6
			l52.8-19L78.6,0V0.6z"/>
		
			<linearGradient id="Path_45549_1_" gradientUnits="userSpaceOnUse" x1="-167.9623" y1="287.2067" x2="-167.7883" y2="286.2516" gradientTransform="matrix(105.661 0 0 -37.948 17818.1211 10903.0557)">
			<stop  offset="0" style="stop-color:#BD947B"/>
			<stop  offset="1" style="stop-color:#A8846E"/>
		</linearGradient>
		<path id="Path_45549" fill-rule="evenodd" clip-rule="evenodd" fill="url(#Path_45549_1_)" d="M78.6,0l52.8,19l-52.8,19L25.7,19
			L78.6,0z"/>
		
			<linearGradient id="Path_45550_1_" gradientUnits="userSpaceOnUse" x1="-166.3" y1="287.0146" x2="-166.668" y2="285.9626" gradientTransform="matrix(52.831 0 0 -37.948 8889.8477 10903.0557)">
			<stop  offset="0" style="stop-color:#9C7A64"/>
			<stop  offset="1" style="stop-color:#8E715E"/>
		</linearGradient>
		<path id="Path_45550" fill-rule="evenodd" clip-rule="evenodd" fill="url(#Path_45550_1_)" d="M78.6,0l52.8,19l-52.8,19V0z"/>
		<path id="Path_45551" fill-rule="evenodd" clip-rule="evenodd" fill="#E6B89A" d="M52.8,3.5L78.6,0L25.7,19L0,22.4L52.8,3.5z"/>
		<path id="Path_45620" fill-rule="evenodd" clip-rule="evenodd" fill="#FFFFFF" d="M25.7,19.3V19l52.8,19l52.8-19v0.3L78.6,38.5
			L25.7,19.3z"/>
		<path id="Path_45624" fill-rule="evenodd" clip-rule="evenodd" fill="#E6B89A" d="M104.3,3.5L78.6,0l52.8,19l25.7,3.5L104.3,3.5z"
			/>
	</g>
	<g id="Group_16668" transform="translate(9938.638 -708.345) rotate(14)">
		<g id="Group_16021" transform="translate(1.138 1.138)" opacity="0.4">
			<path id="Path_45258" d="M76.9,16.2l-0.5-0.8l-0.8,0.5l-0.5-0.8l-0.8,0.5l-0.5-0.8l-0.8,0.5l-0.5-0.8l-0.8,0.5L71,14.1l-0.8,0.5
				l-0.5-0.8l-0.8,0.5l-0.5-0.8L67.5,14L67,13.1l-0.8,0.5l-0.5-0.8l-0.8,0.5l-0.5-0.8L63.5,13L63,12.2l-0.8,0.5l-0.5-0.8l-0.8,0.5
				l-0.5-0.8L59.5,12L59,11.2l-0.8,0.5l-0.5-0.8l-0.8,0.5l-0.5-0.8l-0.8,0.5l-0.5-0.8l-0.8,0.5l-0.5-0.8l-0.8,0.5l-0.5-0.8l-0.8,0.5
				l-0.5-0.8l-0.8,0.5L49.6,9l-0.8,0.5l-0.5-0.8l-0.8,0.5l-0.5-0.8l-0.8,0.5L45.6,8l-0.8,0.5l-0.5-0.8l-0.8,0.5l-0.5-0.8L42,7.9
				l-0.5-0.8l-0.8,0.5l-0.5-0.8l-0.8,0.5l-0.5-0.8L38,6.9l-0.5-0.8l-0.8,0.5l-0.5-0.8l-0.8,0.5l-0.5-0.8L34,6l-0.5-0.8l-0.8,0.5
				l-0.5-0.8l-0.8,0.5l-0.5-0.8L30,5l-0.5-0.8l-0.8,0.5l-0.5-0.8l-0.8,0.5l-0.5-0.8L25.9,4l-0.5-0.8l-0.8,0.5l-0.5-0.8l-0.8,0.5
				l-0.5-0.8l-0.8,0.5l-0.5-0.8l-0.8,0.5l-0.5-0.8l-0.8,0.5l-0.5-0.8l-0.8,0.5l-0.5-0.8l-0.8,0.5L16,1l-0.8,0.5l-0.5-0.8l-0.8,0.5
				l-0.5-0.8l-0.8,0.5L12,0c0,0.1-0.2,0.7-0.4,1.5L0.5,48c-0.2,0.8,0.3,1.6,1.1,1.8l62.7,15c0.8,0.2,1.6-0.3,1.8-1.1l11.1-46.6
				c0.2-0.6,0.3-1.2,0.3-1.4L76.9,16.2z"/>
			<path id="Path_45259" d="M77.8,21.9L77.4,21l-0.9,0.5L76,20.6l-0.9,0.5l-0.5-0.9l-0.9,0.5l-0.5-0.9l-0.9,0.5l-0.5-0.9l-0.9,0.5
				l-0.5-0.9l-0.9,0.5l-0.5-0.9l-0.9,0.5l-0.5-0.9l-0.9,0.5L66.7,18l-0.9,0.5l-0.5-0.9L64.6,18l-0.5-0.9l-0.9,0.5l-0.5-0.9l-0.9,0.5
				l-0.5-0.9l-0.9,0.5L60.1,16l-0.9,0.5l-0.5-0.9l-0.9,0.5l-0.5-0.9l-0.9,0.5l-0.5-0.9l-0.9,0.5l-0.5-0.9L54,15l-0.5-0.9l-0.9,0.5
				l-0.5-0.9l-0.9,0.5l-0.5-0.9L50,13.8L49.5,13l-0.9,0.5l-0.5-0.9l-0.9,0.5l-0.5-0.9L46,12.7l-0.5-0.9l-0.9,0.5l-0.5-0.9l-0.9,0.5
				l-0.5-0.9L42,11.6l-0.5-0.9l-0.9,0.5l-0.5-0.9l-0.9,0.5l-0.5-0.9l-0.9,0.5l-0.5-0.9L36.7,10l-0.5-0.9l-0.9,0.5l-0.5-0.9l-0.9,0.5
				l-0.5-0.9l-0.9,0.5L32.3,8l-0.9,0.5L31,7.7l-0.9,0.5l-0.5-0.8l-0.9,0.5l-0.5-0.9l-0.9,0.5L27,6.5L26.1,7l-0.5-0.9l-0.9,0.5
				l-0.5-0.9l-0.9,0.5L23,5.4l-0.9,0.5L21.7,5l-0.9,0.5l-0.5-0.9l-0.9,0.5L19,4.2l-0.9,0.5l-0.5-0.9l-0.9,0.5l-0.5-0.9l-0.9,0.5
				l-0.5-0.9l-0.9,0.5l-0.5-0.9c0,0.1-0.2,0.7-0.4,1.5l-13.2,46c-0.2,0.8,0.2,1.6,1,1.9l62,17.8c0.8,0.2,1.6-0.2,1.9-1l13.2-46
				c0.2-0.6,0.3-1.2,0.4-1.4L77.8,21.9z"/>
			
				<rect id="Rectangle_13999" x="42" y="-4.9" transform="matrix(-0.277 0.9609 -0.9609 -0.277 78.5379 -8.1599)" width="0.8" height="60.7"/>
			
				<rect id="Rectangle_14000" x="44.9" y="-15" transform="matrix(-0.2765 0.961 -0.961 -0.2765 72.5199 -23.8621)" width="0.8" height="60.6"/>
			
				<rect id="Rectangle_14001" x="18.4" y="16.5" transform="matrix(-0.2765 0.961 -0.961 -0.2765 74.1026 19.5646)" width="22.6" height="42.4"/>
			
				<rect id="Rectangle_14002" x="56.4" y="33.3" transform="matrix(-0.277 0.9609 -0.9609 -0.277 118.2234 -7.3098)" width="10.9" height="15.1"/>
			
				<rect id="Rectangle_14003" x="57.7" y="42" transform="matrix(-0.2765 0.961 -0.961 -0.2765 123.3679 6.1973)" width="3.2" height="15.1"/>
			
				<rect id="Rectangle_14004" x="25.5" y="29.7" transform="matrix(-0.277 0.9609 -0.9609 -0.277 81.9482 40.0863)" width="0.8" height="42.4"/>
			
				<rect id="Rectangle_14005" x="24.9" y="31.9" transform="matrix(-0.2765 0.961 -0.961 -0.2765 83.269 43.5444)" width="0.8" height="42.4"/>
			
				<rect id="Rectangle_14006" x="24.2" y="34.2" transform="matrix(-0.2765 0.961 -0.961 -0.2765 84.6031 47.0342)" width="0.8" height="42.4"/>
			
				<rect id="Rectangle_14007" x="23.6" y="36.4" transform="matrix(-0.2765 0.961 -0.961 -0.2765 85.9388 50.5285)" width="0.8" height="42.4"/>
			
				<rect id="Rectangle_14008" x="56.1" y="52.1" transform="matrix(-0.277 0.9609 -0.9609 -0.277 129.4334 21.9365)" width="0.8" height="15.1"/>
			
				<rect id="Rectangle_14009" x="55.4" y="54.4" transform="matrix(-0.2765 0.961 -0.961 -0.2765 130.7497 25.3941)" width="0.8" height="15.1"/>
			
				<rect id="Rectangle_14010" x="54.8" y="56.6" transform="matrix(-0.2765 0.961 -0.961 -0.2765 132.0841 28.8856)" width="0.8" height="15.1"/>
			
				<rect id="Rectangle_14011" x="54.1" y="58.9" transform="matrix(-0.277 0.9609 -0.9609 -0.277 133.4379 32.4172)" width="0.8" height="15.1"/>
			
				<rect id="Rectangle_14012" x="58.7" y="43.1" transform="matrix(-0.2765 0.961 -0.961 -0.2765 124.0362 7.8342)" width="0.8" height="15.1"/>
			
				<rect id="Rectangle_14013" x="58" y="45.3" transform="matrix(-0.277 0.9609 -0.9609 -0.277 125.3943 11.3618)" width="0.8" height="15.1"/>
			
				<rect id="Rectangle_14014" x="57.4" y="47.6" transform="matrix(-0.2765 0.961 -0.961 -0.2765 126.7079 14.8209)" width="0.8" height="15.1"/>
			
				<rect id="Rectangle_14015" x="56.7" y="49.8" transform="matrix(-0.2765 0.961 -0.961 -0.2765 128.0408 18.3094)" width="0.8" height="15.1"/>
			<text transform="matrix(0.961 0.2765 -0.2765 0.961 21.3988 13.791)" font-family="'TimesNewRomanPSMT'" font-size="5px">The Newspaper</text>
		</g>
		<g id="Group_16047" transform="translate(0 0)">
			<g id="Group_16046" transform="translate(0 0)">
				<g id="Group_16045">
					<g id="Group_16023" transform="translate(0.504 0)">
						<g id="Group_16022">
							<path id="Path_45260" fill="#D0D6D8" d="M76.4,16.2l-0.5-0.8l-0.8,0.5l-0.5-0.8l-0.8,0.5l-0.5-0.8l-0.8,0.5l-0.5-0.8
								l-0.8,0.5l-0.5-0.8l-0.8,0.5l-0.5-0.8l-0.8,0.5l-0.5-0.8L67,14l-0.5-0.8l-0.8,0.5l-0.5-0.8l-0.8,0.5l-0.5-0.8L63,13l-0.5-0.8
								l-0.8,0.5l-0.5-0.8l-0.8,0.5l-0.5-0.8L59,12.1l-0.5-0.8l-0.8,0.5l-0.5-0.8l-0.8,0.5l-0.5-0.8L55,11.1l-0.5-0.8l-0.8,0.5
								l-0.5-0.8l-0.8,0.5l-0.5-0.8l-0.8,0.5l-0.5-0.8l-0.8,0.5L49.1,9l-0.8,0.5l-0.5-0.8l-0.8,0.5l-0.5-0.8l-0.8,0.5L45.1,8
								l-0.8,0.5l-0.5-0.8l-0.8,0.5l-0.5-0.8l-0.8,0.5L41,7.1l-0.8,0.5l-0.5-0.8l-0.8,0.5l-0.5-0.8l-0.8,0.5L37,6.1l-0.8,0.5
								l-0.5-0.8l-0.8,0.5l-0.5-0.8L33.5,6L33,5.1l-0.8,0.5l-0.5-0.8l-0.8,0.5l-0.5-0.8L29.5,5L29,4.2l-0.8,0.5l-0.5-0.8l-0.8,0.5
								l-0.5-0.8L25.4,4l-0.5-0.8l-0.8,0.5l-0.5-0.8l-0.8,0.5l-0.5-0.8l-0.8,0.5l-0.5-0.8l-0.8,0.5l-0.5-0.8l-0.8,0.5l-0.5-0.8
								l-0.8,0.5l-0.5-0.8l-0.8,0.5L15.5,1l-0.8,0.5l-0.5-0.8l-0.8,0.5l-0.5-0.8L12,0.9L11.5,0c0,0.1-0.2,0.7-0.4,1.5L0,48
								c-0.2,0.8,0.3,1.6,1.1,1.8l62.7,15c0.8,0.2,1.6-0.3,1.8-1.1l11.1-46.6c0.2-0.6,0.3-1.2,0.3-1.4L76.4,16.2z"/>
						</g>
					</g>
					<g id="Group_16044" transform="translate(0 2.675)">
						<g id="Group_16024">
							<path id="Path_45261" fill="#F2F6F7" d="M77.8,19.2l-0.5-0.9l-0.9,0.5L76,17.9l-0.9,0.5l-0.5-0.9L73.8,18l-0.5-0.9l-0.9,0.5
								l-0.5-0.9l-0.9,0.5l-0.5-0.9l-0.9,0.5L69.4,16l-0.9,0.5l-0.5-0.9l-0.9,0.5l-0.5-0.9l-0.9,0.5l-0.5-0.9l-0.9,0.5l-0.5-0.9
								L63.2,15l-0.5-0.9l-0.9,0.5l-0.5-0.9l-0.9,0.5l-0.5-0.9l-0.9,0.5L58.8,13l-0.9,0.5l-0.5-0.9l-0.9,0.5l-0.5-0.9l-0.9,0.5
								l-0.5-0.9L54,12.3l-0.5-0.9l-0.9,0.5l-0.5-0.9l-0.9,0.5l-0.5-0.9L50,11.2l-0.5-0.9l-0.9,0.5l-0.5-0.9l-0.9,0.5l-0.5-0.9
								L46,10l-0.5-0.9l-0.9,0.5l-0.5-0.9l-0.9,0.5l-0.5-0.9L42,8.9L41.6,8l-0.9,0.5l-0.5-0.9l-0.9,0.5l-0.5-0.9l-0.9,0.5l-0.5-0.9
								l-0.9,0.5l-0.5-0.9L35.4,7l-0.5-0.9l-0.9,0.5l-0.5-0.9l-0.9,0.5l-0.5-0.9l-0.9,0.5L31,5l-0.9,0.5l-0.5-0.8l-0.9,0.5l-0.5-0.9
								l-0.9,0.5L27,3.8l-0.9,0.5l-0.5-0.9l-0.9,0.5l-0.5-0.9l-0.9,0.5L23,2.7l-0.9,0.5l-0.5-0.9l-0.9,0.5l-0.5-0.9l-0.9,0.5L19,1.5
								L18.2,2l-0.5-0.9l-0.9,0.5l-0.5-0.9l-0.9,0.5l-0.5-0.9l-0.9,0.5L13.7,0c0,0.1-0.2,0.7-0.4,1.5l-13.2,46
								c-0.2,0.8,0.2,1.6,1,1.9l62,17.8c0.8,0.2,1.6-0.2,1.9-1l13.2-46l0.4-1.4L77.8,19.2z"/>
						</g>
						<g id="Group_16025" transform="translate(13.093 14.03)">
							
								<rect id="Rectangle_14016" x="28.9" y="-21.6" transform="matrix(-0.277 0.9609 -0.9609 -0.277 45.7681 -16.9095)" fill="#D0D6D8" width="0.8" height="60.7"/>
						</g>
						<g id="Group_16026" transform="translate(15.996 3.941)">
							
								<rect id="Rectangle_14017" x="28.9" y="-21.6" transform="matrix(-0.2765 0.961 -0.961 -0.2765 45.7424 -16.9355)" fill="#D0D6D8" width="0.8" height="60.6"/>
						</g>
						<g id="Group_16027" transform="translate(6.192 18.262)">
							
								<rect id="Rectangle_14018" x="12.2" y="-4.5" transform="matrix(-0.2765 0.961 -0.961 -0.2765 46.0788 -1.2101)" fill="#D0D6D8" width="22.6" height="42.4"/>
						</g>
						<g id="Group_16028" transform="translate(53.079 30.819)">
							
								<rect id="Rectangle_14019" x="3.3" y="-0.2" transform="matrix(-0.277 0.9609 -0.9609 -0.277 18.2607 0.9235)" fill="#D0D6D8" width="10.9" height="15.1"/>
						</g>
						<g id="Group_16029" transform="translate(51.632 43.218)">
							
								<rect id="Rectangle_14020" x="6.1" y="-3.9" transform="matrix(-0.2765 0.961 -0.961 -0.2765 13.3543 -2.7686)" fill="#D0D6D8" width="3.2" height="15.1"/>
						</g>
						<g id="Group_16030" transform="translate(5.423 41.966)">
							
								<rect id="Rectangle_14021" x="20.1" y="-15" transform="matrix(-0.277 0.9609 -0.9609 -0.277 32.1286 -11.7078)" fill="#D0D6D8" width="0.8" height="42.4"/>
						</g>
						<g id="Group_16031" transform="translate(4.775 44.215)">
							
								<rect id="Rectangle_14022" x="20.1" y="-15" transform="matrix(-0.2765 0.961 -0.961 -0.2765 32.1122 -11.7239)" fill="#D0D6D8" width="0.8" height="42.4"/>
						</g>
						<g id="Group_16032" transform="translate(4.128 46.464)">
							
								<rect id="Rectangle_14023" x="20.1" y="-15" transform="matrix(-0.2765 0.961 -0.961 -0.2765 32.1107 -11.7259)" fill="#D0D6D8" width="0.8" height="42.4"/>
						</g>
						<g id="Group_16033" transform="translate(3.481 48.713)">
							
								<rect id="Rectangle_14024" x="20.1" y="-15" transform="matrix(-0.2765 0.961 -0.961 -0.2765 32.1112 -11.7251)" fill="#D0D6D8" width="0.8" height="42.4"/>
						</g>
						<g id="Group_16038" transform="translate(47.168 54.537)">
							<g id="Group_16034" transform="translate(1.941 0)">
								
									<rect id="Rectangle_14025" x="7" y="-5.1" transform="matrix(-0.277 0.9609 -0.9609 -0.277 11.7491 -3.9333)" fill="#D0D6D8" width="0.8" height="15.1"/>
							</g>
							<g id="Group_16035" transform="translate(1.294 2.249)">
								
									<rect id="Rectangle_14026" x="7" y="-5.1" transform="matrix(-0.2765 0.961 -0.961 -0.2765 11.7428 -3.9394)" fill="#D0D6D8" width="0.8" height="15.1"/>
							</g>
							<g id="Group_16036" transform="translate(0.647 4.498)">
								
									<rect id="Rectangle_14027" x="7" y="-5.1" transform="matrix(-0.2765 0.961 -0.961 -0.2765 11.7428 -3.9394)" fill="#D0D6D8" width="0.8" height="15.1"/>
							</g>
							<g id="Group_16037" transform="translate(0 6.747)">
								
									<rect id="Rectangle_14028" x="7" y="-5.1" transform="matrix(-0.277 0.9609 -0.9609 -0.277 11.7491 -3.9333)" fill="#D0D6D8" width="0.8" height="15.1"/>
							</g>
						</g>
						<g id="Group_16043" transform="translate(49.774 45.48)">
							<g id="Group_16039" transform="translate(1.941 0)">
								
									<rect id="Rectangle_14029" x="7" y="-5.1" transform="matrix(-0.2765 0.961 -0.961 -0.2765 11.7428 -3.9394)" fill="#D0D6D8" width="0.8" height="15.1"/>
							</g>
							<g id="Group_16040" transform="translate(1.294 2.249)">
								
									<rect id="Rectangle_14030" x="7" y="-5.1" transform="matrix(-0.277 0.9609 -0.9609 -0.277 11.7492 -3.9333)" fill="#D0D6D8" width="0.8" height="15.1"/>
							</g>
							<g id="Group_16041" transform="translate(0.647 4.498)">
								
									<rect id="Rectangle_14031" x="7" y="-5.1" transform="matrix(-0.2765 0.961 -0.961 -0.2765 11.7428 -3.9394)" fill="#D0D6D8" width="0.8" height="15.1"/>
							</g>
							<g id="Group_16042" transform="translate(0 6.747)">
								
									<rect id="Rectangle_14032" x="7" y="-5.1" transform="matrix(-0.2765 0.961 -0.961 -0.2765 11.7424 -3.94)" fill="#D0D6D8" width="0.8" height="15.1"/>
							</g>
						</g>
					</g>
				</g>
				
					<text transform="matrix(0.961 0.2765 -0.2765 0.961 19.7571 13.3191)" fill="#666666" font-family="'TimesNewRomanPSMT'" font-size="5px">DocuWalk News</text>
			</g>
		</g>
	</g>
	<g transform="matrix(1, 0, 0, 1, 9889, -708.22)">
		<path id="Path_47089-2" fill-rule="evenodd" clip-rule="evenodd" fill="#B48D75" d="M131.4,113.4V50L78.6,69v63.4L131.4,113.4z"/>
	</g>
	
		<linearGradient id="Path_47090_1_" gradientUnits="userSpaceOnUse" x1="9959.2793" y1="-389.0184" x2="9959.2793" y2="-387.9174" gradientTransform="matrix(0.709 0 0 -63.683 2906.9604 -25348.6621)">
		<stop  offset="0" style="stop-color:#B18C73"/>
		<stop  offset="1" style="stop-color:#F3CAAE"/>
	</linearGradient>
	<path id="Path_47090" fill-rule="evenodd" clip-rule="evenodd" fill="url(#Path_47090_1_)" d="M9968.3-639.5l-0.7,0.3v63.4l0.7-0.3
		V-639.5z"/>
	<g id="Group_16669" transform="translate(9967.61 -658.229)">
		<path id="Path_45554" fill-rule="evenodd" clip-rule="evenodd" fill="#B48D75" d="M52.8,39.3V0L25.1,10L0,19l6.8,35.6
			c0.2,0.9,1,1.4,1.9,1.3c0.1,0,0.2,0,0.3-0.1L52.8,39.3z"/>
		
			<linearGradient id="Path_45555_1_" gradientUnits="userSpaceOnUse" x1="-244.8904" y1="268.8411" x2="-244.8904" y2="269.5771" gradientTransform="matrix(52.796 0 0 -55.5919 12955.6367 14999.9102)">
			<stop  offset="0" style="stop-color:#B28C74"/>
			<stop  offset="1" style="stop-color:#B08A73"/>
		</linearGradient>
		<path id="Path_45555" fill-rule="evenodd" clip-rule="evenodd" fill="url(#Path_45555_1_)" d="M25.1,10L0,19l6.9,35.4
			c0.1,0.5,0.4,0.9,0.8,1.1c0.4,0.2,0.9,0.2,1.3,0.1l43.7-16.4V0L25.1,10z"/>
		
			<linearGradient id="Path_45556_1_" gradientUnits="userSpaceOnUse" x1="-244.8904" y1="268.8244" x2="-244.8904" y2="269.5604" gradientTransform="matrix(52.796 0 0 -55.3018 12955.6221 14920.7109)">
			<stop  offset="0" style="stop-color:#B18B73"/>
			<stop  offset="1" style="stop-color:#AD8871"/>
		</linearGradient>
		<path id="Path_45556" fill-rule="evenodd" clip-rule="evenodd" fill="url(#Path_45556_1_)" d="M25.1,10L0,19l7.1,35.1
			c0.1,0.5,0.4,0.8,0.8,1c0.4,0.2,0.9,0.2,1.3,0.1l43.5-16.3V0L25.1,10z"/>
		
			<linearGradient id="Path_45557_1_" gradientUnits="userSpaceOnUse" x1="-244.8906" y1="268.8077" x2="-244.8906" y2="269.5437" gradientTransform="matrix(52.799 0 0 -55.0149 12956.3809 14842.3945)">
			<stop  offset="0" style="stop-color:#B08A73"/>
			<stop  offset="1" style="stop-color:#AA856F"/>
		</linearGradient>
		<path id="Path_45557" fill-rule="evenodd" clip-rule="evenodd" fill="url(#Path_45557_1_)" d="M25.1,10L0,19l7.3,34.9
			c0.1,0.4,0.4,0.8,0.8,1c0.4,0.2,0.9,0.2,1.3,0l43.4-16.2V0L25.1,10z"/>
		
			<linearGradient id="Path_45558_1_" gradientUnits="userSpaceOnUse" x1="-244.8909" y1="268.7903" x2="-244.8909" y2="269.5263" gradientTransform="matrix(52.804 0 0 -54.72 12957.625 14761.8789)">
			<stop  offset="0" style="stop-color:#AF8972"/>
			<stop  offset="1" style="stop-color:#A7836D"/>
		</linearGradient>
		<path id="Path_45558" fill-rule="evenodd" clip-rule="evenodd" fill="url(#Path_45558_1_)" d="M25.1,10L0,19l7.5,34.7
			c0.1,0.4,0.4,0.8,0.8,1c0.4,0.2,0.9,0.2,1.3,0l43.2-16.1V0L25.1,10z"/>
		
			<linearGradient id="Path_45559_1_" gradientUnits="userSpaceOnUse" x1="-244.8907" y1="268.7733" x2="-244.8907" y2="269.5093" gradientTransform="matrix(52.8 0 0 -54.4338 12956.6387 14683.7637)">
			<stop  offset="0" style="stop-color:#AE8871"/>
			<stop  offset="1" style="stop-color:#A4816B"/>
		</linearGradient>
		<path id="Path_45559" fill-rule="evenodd" clip-rule="evenodd" fill="url(#Path_45559_1_)" d="M25.1,10L0,19l7.6,34.4
			c0.1,0.4,0.4,0.8,0.8,1c0.4,0.1,0.9,0.1,1.3,0l43-16V0L25.1,10z"/>
		
			<linearGradient id="Path_45560_1_" gradientUnits="userSpaceOnUse" x1="-244.8907" y1="268.7561" x2="-244.8907" y2="269.4921" gradientTransform="matrix(52.801 0 0 -54.1465 12956.8662 14605.332)">
			<stop  offset="0" style="stop-color:#AD8871"/>
			<stop  offset="1" style="stop-color:#A17E69"/>
		</linearGradient>
		<path id="Path_45560" fill-rule="evenodd" clip-rule="evenodd" fill="url(#Path_45560_1_)" d="M25.1,10L0,19l7.8,34.2
			c0.1,0.4,0.4,0.8,0.9,0.9c0.4,0.1,0.9,0.1,1.3,0l42.8-15.9V0L25.1,10z"/>
		
			<linearGradient id="Path_45561_1_" gradientUnits="userSpaceOnUse" x1="-244.8907" y1="268.7387" x2="-244.8907" y2="269.4747" gradientTransform="matrix(52.8 0 0 -53.8608 12956.623 14527.3311)">
			<stop  offset="0" style="stop-color:#AC8770"/>
			<stop  offset="1" style="stop-color:#9E7C67"/>
		</linearGradient>
		<path id="Path_45561" fill-rule="evenodd" clip-rule="evenodd" fill="url(#Path_45561_1_)" d="M25.1,10L0,19l8,34
			c0.1,0.4,0.4,0.8,0.9,0.9c0.4,0.1,0.9,0.1,1.3-0.1l42.7-15.8V0L25.1,10z"/>
		
			<linearGradient id="Path_45562_1_" gradientUnits="userSpaceOnUse" x1="-244.8907" y1="268.7213" x2="-244.8907" y2="269.4573" gradientTransform="matrix(52.8 0 0 -53.576 12956.6387 14449.5654)">
			<stop  offset="0" style="stop-color:#AB866F"/>
			<stop  offset="1" style="stop-color:#9B7A65"/>
		</linearGradient>
		<path id="Path_45562" fill-rule="evenodd" clip-rule="evenodd" fill="url(#Path_45562_1_)" d="M25.1,10L0,19l8.1,33.7
			c0.1,0.4,0.5,0.7,0.9,0.9c0.4,0.1,0.9,0,1.3-0.1l42.5-15.7V0L25.1,10z"/>
		
			<linearGradient id="Path_45563_1_" gradientUnits="userSpaceOnUse" x1="-244.8907" y1="268.7038" x2="-244.8907" y2="269.4398" gradientTransform="matrix(52.8 0 0 -53.2938 12956.6387 14372.5322)">
			<stop  offset="0" style="stop-color:#AA856F"/>
			<stop  offset="1" style="stop-color:#987864"/>
		</linearGradient>
		<path id="Path_45563" fill-rule="evenodd" clip-rule="evenodd" fill="url(#Path_45563_1_)" d="M25.1,10L0,19l8.3,33.5
			c0.1,0.4,0.5,0.7,0.9,0.8c0.4,0.1,0.9,0,1.3-0.1l42.3-15.6V0L25.1,10z"/>
		
			<linearGradient id="Path_45564_1_" gradientUnits="userSpaceOnUse" x1="-244.8907" y1="268.687" x2="-244.8907" y2="269.423" gradientTransform="matrix(52.8 0 0 -53.0259 12956.623 14299.3984)">
			<stop  offset="0" style="stop-color:#A9846E"/>
			<stop  offset="1" style="stop-color:#967562"/>
		</linearGradient>
		<path id="Path_45564" fill-rule="evenodd" clip-rule="evenodd" fill="url(#Path_45564_1_)" d="M25.1,10L0,19l8.5,33.2
			C8.6,52.6,9,52.9,9.4,53c0.4,0.1,0.9,0,1.3-0.1l42.1-15.5V0L25.1,10z"/>
		
			<linearGradient id="Path_45565_1_" gradientUnits="userSpaceOnUse" x1="-244.8906" y1="268.6693" x2="-244.8906" y2="269.4052" gradientTransform="matrix(52.799 0 0 -52.7454 12956.3652 14222.8154)">
			<stop  offset="0" style="stop-color:#A8836D"/>
			<stop  offset="1" style="stop-color:#937360"/>
		</linearGradient>
		<path id="Path_45565" fill-rule="evenodd" clip-rule="evenodd" fill="url(#Path_45565_1_)" d="M25.1,10L0,19l8.7,33
			c0.1,0.4,0.5,0.7,0.9,0.8c0.4,0,0.9,0,1.3-0.2l42-15.4V0L25.1,10z"/>
		
			<linearGradient id="Path_45566_1_" gradientUnits="userSpaceOnUse" x1="-244.8907" y1="268.6518" x2="-244.8907" y2="269.3878" gradientTransform="matrix(52.8 0 0 -52.4722 12956.6387 14148.2158)">
			<stop  offset="0" style="stop-color:#A7836D"/>
			<stop  offset="1" style="stop-color:#90715E"/>
		</linearGradient>
		<path id="Path_45566" fill-rule="evenodd" clip-rule="evenodd" fill="url(#Path_45566_1_)" d="M25.1,10L0,19l8.8,32.8
			c0.1,0.4,0.5,0.7,0.9,0.7c0.4,0,0.8,0,1.2-0.2l41.8-15.3V0L25.1,10z"/>
		
			<linearGradient id="Path_45567_1_" gradientUnits="userSpaceOnUse" x1="-244.8906" y1="268.6342" x2="-244.8906" y2="269.3702" gradientTransform="matrix(52.799 0 0 -52.2011 12956.3809 14074.2158)">
			<stop  offset="0" style="stop-color:#A6826C"/>
			<stop  offset="1" style="stop-color:#8D6F5D"/>
		</linearGradient>
		<path id="Path_45567" fill-rule="evenodd" clip-rule="evenodd" fill="url(#Path_45567_1_)" d="M25.1,10L0,19l9,32.5
			c0.1,0.4,0.5,0.7,0.9,0.7c0.4,0,0.8-0.1,1.2-0.2l41.6-15.2V0L25.1,10z"/>
		
			<linearGradient id="Path_45568_1_" gradientUnits="userSpaceOnUse" x1="-244.8909" y1="268.6169" x2="-244.8909" y2="269.3529" gradientTransform="matrix(52.804 0 0 -51.935 12957.625 14001.5654)">
			<stop  offset="0" style="stop-color:#A5816B"/>
			<stop  offset="1" style="stop-color:#8B6D5B"/>
		</linearGradient>
		<path id="Path_45568" fill-rule="evenodd" clip-rule="evenodd" fill="url(#Path_45568_1_)" d="M25.1,10L0,19l9.2,32.3
			c0.1,0.4,0.5,0.7,0.9,0.7c0.4,0,0.8-0.1,1.2-0.2l41.4-15.1V0L25.1,10z"/>
		
			<linearGradient id="Path_45569_1_" gradientUnits="userSpaceOnUse" x1="-244.8907" y1="268.5995" x2="-244.8907" y2="269.3354" gradientTransform="matrix(52.8 0 0 -51.6708 12956.623 13929.4473)">
			<stop  offset="0" style="stop-color:#A4806B"/>
			<stop  offset="1" style="stop-color:#886B5A"/>
		</linearGradient>
		<path id="Path_45569" fill-rule="evenodd" clip-rule="evenodd" fill="url(#Path_45569_1_)" d="M25.1,10L0,19L9.4,51
			c0.1,0.4,0.5,0.7,1,0.6c0.4,0,0.8-0.1,1.2-0.3l41.3-15V0L25.1,10z"/>
		
			<linearGradient id="Path_45570_1_" gradientUnits="userSpaceOnUse" x1="-244.8904" y1="268.582" x2="-244.8904" y2="269.318" gradientTransform="matrix(52.796 0 0 -51.409 12955.6367 13857.9639)">
			<stop  offset="0" style="stop-color:#A37F6A"/>
			<stop  offset="1" style="stop-color:#866958"/>
		</linearGradient>
		<path id="Path_45570" fill-rule="evenodd" clip-rule="evenodd" fill="url(#Path_45570_1_)" d="M25.1,10L0,19l9.5,31.8
			c0.1,0.4,0.5,0.7,1,0.6c0.4-0.1,0.8-0.2,1.2-0.3l41.1-14.9V0L25.1,10z"/>
		
			<linearGradient id="Path_45571_1_" gradientUnits="userSpaceOnUse" x1="-244.8906" y1="268.5644" x2="-244.8906" y2="269.3004" gradientTransform="matrix(52.799 0 0 -51.1468 12956.3652 13786.3799)">
			<stop  offset="0" style="stop-color:#A27E69"/>
			<stop  offset="1" style="stop-color:#836756"/>
		</linearGradient>
		<path id="Path_45571" fill-rule="evenodd" clip-rule="evenodd" fill="url(#Path_45571_1_)" d="M25.1,10L0,19l9.7,31.6
			c0.1,0.4,0.5,0.7,1,0.6c0.4-0.1,0.8-0.2,1.2-0.3L52.8,36V0L25.1,10z"/>
		
			<linearGradient id="Path_45572_1_" gradientUnits="userSpaceOnUse" x1="-244.8906" y1="268.5467" x2="-244.8906" y2="269.2827" gradientTransform="matrix(52.799 0 0 -50.8873 12956.3809 13715.5449)">
			<stop  offset="0" style="stop-color:#A17E69"/>
			<stop  offset="1" style="stop-color:#816655"/>
		</linearGradient>
		<path id="Path_45572" fill-rule="evenodd" clip-rule="evenodd" fill="url(#Path_45572_1_)" d="M25.1,10L0,19l9.9,31.3
			c0.1,0.4,0.6,0.7,1,0.6c0.4-0.1,0.8-0.2,1.2-0.3l40.7-14.7V0L25.1,10z"/>
		
			<linearGradient id="Path_45573_1_" gradientUnits="userSpaceOnUse" x1="-244.8906" y1="268.5293" x2="-244.8906" y2="269.2653" gradientTransform="matrix(52.799 0 0 -50.6335 12956.3652 13646.2568)">
			<stop  offset="0" style="stop-color:#A07D68"/>
			<stop  offset="1" style="stop-color:#7E6453"/>
		</linearGradient>
		<path id="Path_45573" fill-rule="evenodd" clip-rule="evenodd" fill="url(#Path_45573_1_)" d="M25.1,10L0,19l10.1,31.1
			c0.1,0.4,0.6,0.6,1,0.5c0,0,1.1-0.3,1.2-0.4l40.6-14.6V0L25.1,10z"/>
		
			<linearGradient id="Path_45574_1_" gradientUnits="userSpaceOnUse" x1="-244.8907" y1="268.5109" x2="-244.8907" y2="269.2469" gradientTransform="matrix(52.8 0 0 -50.3685 12956.6387 13573.915)">
			<stop  offset="0" style="stop-color:#9F7C67"/>
			<stop  offset="1" style="stop-color:#7C6252"/>
		</linearGradient>
		<path id="Path_45574" fill-rule="evenodd" clip-rule="evenodd" fill="url(#Path_45574_1_)" d="M25.1,10L0,19l10.2,30.9
			c0.1,0.4,0.6,0.6,1,0.5c0,0,1.1-0.4,1.2-0.4l40.4-14.5V0L25.1,10z"/>
		
			<linearGradient id="Path_45575_1_" gradientUnits="userSpaceOnUse" x1="-244.8906" y1="268.4931" x2="-244.8906" y2="269.2292" gradientTransform="matrix(52.799 0 0 -50.1155 12956.3818 13504.8418)">
			<stop  offset="0" style="stop-color:#9E7B67"/>
			<stop  offset="1" style="stop-color:#796050"/>
		</linearGradient>
		<path id="Path_45575" fill-rule="evenodd" clip-rule="evenodd" fill="url(#Path_45575_1_)" d="M52.8,35.2V0L25.1,10L0,19
			l10.4,30.6c0.2,0.4,0.6,0.6,1,0.5c0,0,0,0,0,0L52.8,35.2z"/>
	</g>
	
		<linearGradient id="Path_47091_1_" gradientUnits="userSpaceOnUse" x1="9721.8008" y1="-389.6718" x2="9721.6113" y2="-391.0128" gradientTransform="matrix(77.132 0 0 -38.1979 -739847.875 -15549.9629)">
		<stop  offset="0" style="stop-color:#9C7A64"/>
		<stop  offset="1" style="stop-color:#8E715E"/>
	</linearGradient>
	<path id="Path_47091" fill-rule="evenodd" clip-rule="evenodd" fill="url(#Path_47091_1_)" d="M9967.6-638.7l24.3,18.6l52.8-19
		v-0.6l-24.3-18.6l-52.8,19L9967.6-638.7z"/>
	
		<linearGradient id="Path_47092_1_" gradientUnits="userSpaceOnUse" x1="9722.7715" y1="-390.8794" x2="9722.5732" y2="-389.8494" gradientTransform="matrix(52.83 0 0 -38.201 -503633.0313 -15551.1396)">
		<stop  offset="0" style="stop-color:#BD947B"/>
		<stop  offset="1" style="stop-color:#AD8770"/>
	</linearGradient>
	<path id="Path_47092" fill-rule="evenodd" clip-rule="evenodd" fill="url(#Path_47092_1_)" d="M9991.9-620.6l0,0.6l52.8-19v-0.6
		l-24.3-18.6l-28,36.2L9991.9-620.6z"/>
	<path id="Path_47093" fill-rule="evenodd" clip-rule="evenodd" fill="#E6B89A" d="M9967.6-639.3l24.3,18.6l52.8-19l-24.3-18.6
		L9967.6-639.3z"/>
	<g transform="matrix(1, 0, 0, 1, 9889, -708.22)">
		
			<linearGradient id="Path_47094-2_1_" gradientUnits="userSpaceOnUse" x1="-166.122" y1="320.7079" x2="-166.45" y2="319.9729" gradientTransform="matrix(52.83 0 0 -82.402 8836.8516 26488.5801)">
			<stop  offset="0" style="stop-color:#9C7A64"/>
			<stop  offset="1" style="stop-color:#8E715E"/>
		</linearGradient>
		<path id="Path_47094-2" fill-rule="evenodd" clip-rule="evenodd" fill="url(#Path_47094-2_1_)" d="M25.7,113.4V50l52.8,19v63.4
			L25.7,113.4z"/>
	</g>
	<g id="Group_16670" transform="translate(9914.812 -658.207)">
		
			<linearGradient id="Path_45577_1_" gradientUnits="userSpaceOnUse" x1="-191.9864" y1="270.0031" x2="-192.3154" y2="269.0431" gradientTransform="matrix(52.768 0 0 -63.0106 10162.584 17023.8848)">
			<stop  offset="0" style="stop-color:#9C7A64"/>
			<stop  offset="1" style="stop-color:#8E715E"/>
		</linearGradient>
		<path id="Path_45577" fill-rule="evenodd" clip-rule="evenodd" fill="url(#Path_45577_1_)" d="M0,0l52.8,19v40.7
			C52,61.7,50.1,63,48,63c-2.2,0.1-4.3,0-6.5-0.2L0,48.3V0z"/>
		
			<linearGradient id="Path_45578_1_" gradientUnits="userSpaceOnUse" x1="-191.9928" y1="269.972" x2="-192.3178" y2="269.012" gradientTransform="matrix(52.772 0 0 -62.3209 10163.3564 16835.6074)">
			<stop  offset="0" style="stop-color:#9B7964"/>
			<stop  offset="1" style="stop-color:#8D715E"/>
		</linearGradient>
		<path id="Path_45578" fill-rule="evenodd" clip-rule="evenodd" fill="url(#Path_45578_1_)" d="M0,0l52.8,19v0.2l-0.5,40
			c-0.8,1.9-2.6,3.1-4.7,3.2c-2.1,0.1-4.3,0-6.4-0.2L0,47.7L0,0z"/>
		
			<linearGradient id="Path_45579_1_" gradientUnits="userSpaceOnUse" x1="-191.9988" y1="269.94" x2="-192.3198" y2="268.98" gradientTransform="matrix(52.768 0 0 -61.6314 10162.584 16647.3809)">
			<stop  offset="0" style="stop-color:#9A7863"/>
			<stop  offset="1" style="stop-color:#8D715E"/>
		</linearGradient>
		<path id="Path_45579" fill-rule="evenodd" clip-rule="evenodd" fill="url(#Path_45579_1_)" d="M0,0l52.8,19v0.2l-1.1,39.4
			c-0.8,1.8-2.6,3-4.6,3c-2.1,0.1-4.2,0-6.3-0.2L0,47.1L0,0z"/>
		
			<linearGradient id="Path_45580_1_" gradientUnits="userSpaceOnUse" x1="-192.0049" y1="269.9075" x2="-192.3219" y2="268.9485" gradientTransform="matrix(52.768 0 0 -60.9409 10162.584 16458.8711)">
			<stop  offset="0" style="stop-color:#987762"/>
			<stop  offset="1" style="stop-color:#8C705D"/>
		</linearGradient>
		<path id="Path_45580" fill-rule="evenodd" clip-rule="evenodd" fill="url(#Path_45580_1_)" d="M0,0l52.8,19v0.2L51.1,58
			c-0.8,1.8-2.6,2.9-4.5,2.9c-2.1,0.1-4.2,0-6.3-0.2L0,46.6L0,0z"/>
		
			<linearGradient id="Path_45581_1_" gradientUnits="userSpaceOnUse" x1="-192.0108" y1="269.8742" x2="-192.3248" y2="268.9152" gradientTransform="matrix(52.769 0 0 -60.2517 10162.7734 16270.7451)">
			<stop  offset="0" style="stop-color:#977662"/>
			<stop  offset="1" style="stop-color:#8C705D"/>
		</linearGradient>
		<path id="Path_45581" fill-rule="evenodd" clip-rule="evenodd" fill="url(#Path_45581_1_)" d="M0,0l52.8,19v0.2l-2.2,38.3
			c-0.9,1.7-2.6,2.8-4.4,2.8c-2.1,0.1-4.2,0-6.2-0.2L0,46L0,0z"/>
		
			<linearGradient id="Path_45582_1_" gradientUnits="userSpaceOnUse" x1="-192.0169" y1="269.8401" x2="-192.3269" y2="268.8811" gradientTransform="matrix(52.768 0 0 -59.5583 10162.584 16081.4531)">
			<stop  offset="0" style="stop-color:#967561"/>
			<stop  offset="1" style="stop-color:#8B6F5D"/>
		</linearGradient>
		<path id="Path_45582" fill-rule="evenodd" clip-rule="evenodd" fill="url(#Path_45582_1_)" d="M0,0l52.8,19v0.2l-2.7,37.7
			c-0.9,1.6-2.5,2.6-4.4,2.7c-2.1,0.1-4.1,0-6.2-0.2L0,45.4L0,0z"/>
		
			<linearGradient id="Path_45583_1_" gradientUnits="userSpaceOnUse" x1="-192.0233" y1="269.8055" x2="-192.3293" y2="268.8475" gradientTransform="matrix(52.7729 0 0 -58.8731 10163.5469 15894.4092)">
			<stop  offset="0" style="stop-color:#957560"/>
			<stop  offset="1" style="stop-color:#8B6F5C"/>
		</linearGradient>
		<path id="Path_45583" fill-rule="evenodd" clip-rule="evenodd" fill="url(#Path_45583_1_)" d="M0,0l52.8,19v0.2l-3.2,37.1
			c-0.9,1.5-2.5,2.5-4.3,2.6c-2,0.1-4.1,0-6.1-0.2L0,44.9L0,0z"/>
		
			<linearGradient id="Path_45584_1_" gradientUnits="userSpaceOnUse" x1="-192.0289" y1="269.7697" x2="-192.3318" y2="268.8118" gradientTransform="matrix(52.768 0 0 -58.1819 10162.584 15705.7168)">
			<stop  offset="0" style="stop-color:#937460"/>
			<stop  offset="1" style="stop-color:#8A6E5C"/>
		</linearGradient>
		<path id="Path_45584" fill-rule="evenodd" clip-rule="evenodd" fill="url(#Path_45584_1_)" d="M0,0l52.8,19v0.2L49,55.7
			c-0.1,0.5-1.9,2.4-4.2,2.5c-2,0.1-4,0-6-0.2L0,44.3V0z"/>
		
			<linearGradient id="Path_45585_1_" gradientUnits="userSpaceOnUse" x1="-192.035" y1="269.7333" x2="-192.334" y2="268.7754" gradientTransform="matrix(52.768 0 0 -57.4929 10162.584 15517.624)">
			<stop  offset="0" style="stop-color:#92735F"/>
			<stop  offset="1" style="stop-color:#8A6E5C"/>
		</linearGradient>
		<path id="Path_45585" fill-rule="evenodd" clip-rule="evenodd" fill="url(#Path_45585_1_)" d="M0,0l52.8,19v0.2l-4.3,36
			c-0.1,0.5-1.9,2.2-4.1,2.4c-2,0.1-4,0-6-0.2L0,43.7V0z"/>
		
			<linearGradient id="Path_45586_1_" gradientUnits="userSpaceOnUse" x1="-192.0411" y1="269.6951" x2="-192.3371" y2="268.7391" gradientTransform="matrix(52.769 0 0 -56.8055 10162.7852 15329.9805)">
			<stop  offset="0" style="stop-color:#91725E"/>
			<stop  offset="1" style="stop-color:#896D5B"/>
		</linearGradient>
		<path id="Path_45586" fill-rule="evenodd" clip-rule="evenodd" fill="url(#Path_45586_1_)" d="M0,0l52.8,19v0.2l-4.9,35.4
			c-0.1,0.5-2,2.1-4,2.3c-2,0.1-4,0-5.9-0.2L0,43.2L0,0z"/>
		
			<linearGradient id="Path_45587_1_" gradientUnits="userSpaceOnUse" x1="-192.0473" y1="269.657" x2="-192.3394" y2="268.701" gradientTransform="matrix(52.771 0 0 -56.1191 10163.166 15142.6201)">
			<stop  offset="0" style="stop-color:#90715E"/>
			<stop  offset="1" style="stop-color:#886D5B"/>
		</linearGradient>
		<path id="Path_45587" fill-rule="evenodd" clip-rule="evenodd" fill="url(#Path_45587_1_)" d="M0,0l52.8,19v0.2l-5.4,34.8
			c-0.1,0.5-2,2-3.9,2.1c-2,0.1-3.9,0.1-5.9-0.2L0,42.6L0,0z"/>
		
			<linearGradient id="Path_45588_1_" gradientUnits="userSpaceOnUse" x1="-192.0535" y1="269.6176" x2="-192.3415" y2="268.6617" gradientTransform="matrix(52.7709 0 0 -55.4264 10163.1543 14953.5117)">
			<stop  offset="0" style="stop-color:#8E705D"/>
			<stop  offset="1" style="stop-color:#886C5A"/>
		</linearGradient>
		<path id="Path_45588" fill-rule="evenodd" clip-rule="evenodd" fill="url(#Path_45588_1_)" d="M0,0l52.8,19v0.2l-5.9,34.2
			c-0.1,0.5-2.1,1.9-3.9,2c-1.9,0.1-3.9,0.1-5.8-0.2L0,42L0,0z"/>
		
			<linearGradient id="Path_45589_1_" gradientUnits="userSpaceOnUse" x1="-192.0595" y1="269.5772" x2="-192.3435" y2="268.6222" gradientTransform="matrix(52.768 0 0 -54.7369 10162.584 14765.3018)">
			<stop  offset="0" style="stop-color:#8D6F5D"/>
			<stop  offset="1" style="stop-color:#876C5A"/>
		</linearGradient>
		<path id="Path_45589" fill-rule="evenodd" clip-rule="evenodd" fill="url(#Path_45589_1_)" d="M0,0l52.8,19v0.2l-6.5,33.7
			c-0.1,0.5-2.2,1.8-3.8,1.9c-1.9,0.1-3.8,0.1-5.7-0.2L0,41.5V0z"/>
		
			<linearGradient id="Path_45590_1_" gradientUnits="userSpaceOnUse" x1="-192.0657" y1="269.5361" x2="-192.3457" y2="268.5811" gradientTransform="matrix(52.769 0 0 -54.0494 10162.7852 14577.625)">
			<stop  offset="0" style="stop-color:#8C6E5C"/>
			<stop  offset="1" style="stop-color:#876B5A"/>
		</linearGradient>
		<path id="Path_45590" fill-rule="evenodd" clip-rule="evenodd" fill="url(#Path_45590_1_)" d="M0,0l52.8,19v0.2l-7,33.1
			c-0.1,0.5-2.2,1.6-3.7,1.8c-1.9,0.1-3.8,0.1-5.7-0.2L0,40.9L0,0z"/>
		
			<linearGradient id="Path_45591_1_" gradientUnits="userSpaceOnUse" x1="-192.0715" y1="269.4935" x2="-192.3486" y2="268.5385" gradientTransform="matrix(52.768 0 0 -53.3557 10162.584 14388.249)">
			<stop  offset="0" style="stop-color:#8B6D5B"/>
			<stop  offset="1" style="stop-color:#866B59"/>
		</linearGradient>
		<path id="Path_45591" fill-rule="evenodd" clip-rule="evenodd" fill="url(#Path_45591_1_)" d="M0,0l52.8,19v0.2l-7.6,32.5
			c-0.1,0.5-2.3,1.5-3.6,1.7c-1.9,0.1-3.8,0.1-5.6-0.2L0,40.4V0z"/>
		
			<linearGradient id="Path_45592_1_" gradientUnits="userSpaceOnUse" x1="-192.0776" y1="269.4505" x2="-192.3506" y2="268.4965" gradientTransform="matrix(52.768 0 0 -52.673 10162.584 14201.8887)">
			<stop  offset="0" style="stop-color:#896D5B"/>
			<stop  offset="1" style="stop-color:#866A59"/>
		</linearGradient>
		<path id="Path_45592" fill-rule="evenodd" clip-rule="evenodd" fill="url(#Path_45592_1_)" d="M0,0l52.8,19v0.2L44.7,51
			c-0.1,0.5-2.3,1.4-3.5,1.6c-1.9,0.1-3.7,0.1-5.6-0.2L0,39.8V0z"/>
		
			<linearGradient id="Path_45593_1_" gradientUnits="userSpaceOnUse" x1="-192.0841" y1="269.4048" x2="-192.3531" y2="268.4518" gradientTransform="matrix(52.771 0 0 -51.98 10163.166 14012.7129)">
			<stop  offset="0" style="stop-color:#886C5A"/>
			<stop  offset="1" style="stop-color:#856A59"/>
		</linearGradient>
		<path id="Path_45593" fill-rule="evenodd" clip-rule="evenodd" fill="url(#Path_45593_1_)" d="M0,0l52.8,19v0.2l-8.7,31.3
			c-0.1,0.5-2.4,1.3-3.5,1.5C38.8,52,37,52,35.2,51.7L0,39.2L0,0z"/>
		
			<linearGradient id="Path_45594_1_" gradientUnits="userSpaceOnUse" x1="-192.0868" y1="269.3581" x2="-192.3518" y2="268.4061" gradientTransform="matrix(52.768 0 0 -51.2919 10162.584 13824.8535)">
			<stop  offset="0" style="stop-color:#876B59"/>
			<stop  offset="1" style="stop-color:#856958"/>
		</linearGradient>
		<path id="Path_45594" fill-rule="evenodd" clip-rule="evenodd" fill="url(#Path_45594_1_)" d="M0,0l52.8,19v0.2l-9.2,30.8
			c-0.1,0.5-2.4,1.1-3.4,1.3c-1.8,0.1-3.6,0.1-5.4-0.2L0,38.7L0,0z"/>
		
			<linearGradient id="Path_45595_1_" gradientUnits="userSpaceOnUse" x1="-192.0867" y1="269.3091" x2="-192.3486" y2="268.3571" gradientTransform="matrix(52.768 0 0 -50.6029 10162.584 13636.7773)">
			<stop  offset="0" style="stop-color:#866A59"/>
			<stop  offset="1" style="stop-color:#846958"/>
		</linearGradient>
		<path id="Path_45595" fill-rule="evenodd" clip-rule="evenodd" fill="url(#Path_45595_1_)" d="M0,0l52.8,19v0.2L43,49.3
			c-0.2,0.5-2.5,1-3.3,1.2c-1.8,0.1-3.6,0.1-5.4-0.2L0,38.1V0z"/>
		
			<linearGradient id="Path_45596_1_" gradientUnits="userSpaceOnUse" x1="-192.0865" y1="269.2588" x2="-192.3445" y2="268.3078" gradientTransform="matrix(52.768 0 0 -49.9146 10162.584 13448.8838)">
			<stop  offset="0" style="stop-color:#856958"/>
			<stop  offset="1" style="stop-color:#836958"/>
		</linearGradient>
		<path id="Path_45596" fill-rule="evenodd" clip-rule="evenodd" fill="url(#Path_45596_1_)" d="M0,0l52.8,19v0.2L42.5,48.7
			c-0.2,0.5-2.5,0.9-3.2,1.1c-1.8,0.1-3.6,0.1-5.3-0.2L0,37.5L0,0z"/>
		
			<linearGradient id="Path_45597_1_" gradientUnits="userSpaceOnUse" x1="-192.0864" y1="269.2072" x2="-192.3404" y2="268.2562" gradientTransform="matrix(52.768 0 0 -49.2262 10162.584 13260.957)">
			<stop  offset="0" style="stop-color:#846858"/>
			<stop  offset="1" style="stop-color:#836857"/>
		</linearGradient>
		<path id="Path_45597" fill-rule="evenodd" clip-rule="evenodd" fill="url(#Path_45597_1_)" d="M0,0l52.8,19v0.2L42,48.1
			c-0.2,0.5-2.6,0.8-3.1,1c-1.8,0.1-3.5,0.1-5.3-0.2L0,37L0,0z"/>
		<path id="Path_45598" fill-rule="evenodd" clip-rule="evenodd" fill="#826857" d="M0,0l52.8,19v0.2L41.4,47.6
			c-0.2,0.5-2.6,0.7-3,0.9c-1.7,0.1-3.5,0.1-5.2-0.2L0,36.4L0,0z"/>
		<path id="Path_45599" fill-rule="evenodd" clip-rule="evenodd" fill="#826756" d="M0,0l52.8,19v0.2l-11.6,28
			c-0.2,0.5-2.5,0.7-2.9,0.9c-1.7,0.2-3.4,0.1-5-0.1L0,35.9L0,0z"/>
		<path id="Path_45600" fill-rule="evenodd" clip-rule="evenodd" fill="#816656" d="M0,0l52.8,19v0.2L40.8,46.6
			c-0.2,0.4-2.4,0.7-2.8,0.9c-1.6,0.2-3.2,0.1-4.8-0.1L0,35.5V0z"/>
		<path id="Path_45601" fill-rule="evenodd" clip-rule="evenodd" fill="#806655" d="M0,0l52.8,19v0.2l-12.2,27
			c-0.2,0.4-2.3,0.7-2.7,0.9c-1.5,0.2-3.1,0.1-4.6-0.1L0,35V0z"/>
		<path id="Path_45602" fill-rule="evenodd" clip-rule="evenodd" fill="#806555" d="M0,0l52.8,19v0.2L40.3,45.6
			c-0.2,0.4-2.2,0.7-2.6,0.9c-1.5,0.2-3,0.1-4.5-0.1L0,34.5V0z"/>
		<path id="Path_45603" fill-rule="evenodd" clip-rule="evenodd" fill="#7F6554" d="M0,0l52.8,19v0.2L40,45.1
			c-0.2,0.4-2.1,0.7-2.5,0.9c-1.4,0.2-2.9,0.1-4.3-0.1L0,34L0,0z"/>
		<path id="Path_45604" fill-rule="evenodd" clip-rule="evenodd" fill="#7E6454" d="M0,0l52.8,19v0.2L39.7,44.6
			c-0.2,0.4-2,0.7-2.4,1c-1.4,0.2-2.7,0.1-4.1-0.1L0,33.6L0,0z"/>
		<path id="Path_45605" fill-rule="evenodd" clip-rule="evenodd" fill="#7D6353" d="M0,0l52.8,19v0.2l-13.4,25
			c-0.2,0.4-1.9,0.7-2.3,1c-1.3,0.2-2.6,0.2-3.9-0.1L0,33.1V0z"/>
		<path id="Path_45606" fill-rule="evenodd" clip-rule="evenodd" fill="#7D6352" d="M0,0l52.8,19v0.2L39.1,43.6
			c-0.2,0.4-1.8,0.7-2.2,1c-1.2,0.2-2.5,0.2-3.7-0.1L0,32.6L0,0z"/>
		<path id="Path_45607" fill-rule="evenodd" clip-rule="evenodd" fill="#7C6252" d="M0,0l52.8,19v0.2l-14,24c-0.3,0.4-1.6,0.7-2.1,1
			c-1.2,0.2-2.4,0.2-3.6,0L0,32.1V0z"/>
		<path id="Path_45608" fill-rule="evenodd" clip-rule="evenodd" fill="#7B6251" d="M0,0l52.8,19v0.2L38.5,42.6
			c-0.3,0.4-1.5,0.8-2,1c-1.1,0.2-2.3,0.2-3.4,0L0,31.7V0z"/>
		<path id="Path_45609" fill-rule="evenodd" clip-rule="evenodd" fill="#7B6151" d="M0,0l52.8,19v0.2l-14.5,23
			c-0.3,0.4-1.4,0.8-1.9,1c-1.1,0.2-2.1,0.2-3.2,0L0,31.2V0z"/>
		<path id="Path_45610" fill-rule="evenodd" clip-rule="evenodd" fill="#7A6150" d="M0,0l52.8,19v0.2L37.9,41.6
			c-0.3,0.4-1.3,0.8-1.8,1c-1,0.2-2,0.2-3,0L0,30.7L0,0z"/>
		<path id="Path_45611" fill-rule="evenodd" clip-rule="evenodd" fill="#796050" d="M0,0l52.8,19v0.2l-15.1,22c-0.5,0.4-1,0.8-1.6,1
			c-0.9,0.2-1.9,0.2-2.8,0L0,30.2V0z"/>
		<path id="Path_45612" fill-rule="evenodd" clip-rule="evenodd" fill="#795F4F" d="M0,0l52.8,19v0.2L37.3,40.6
			c-1.1,1.2-2.7,1.6-4.2,1L0,29.8V0z"/>
		<path id="Path_45613" fill-rule="evenodd" clip-rule="evenodd" fill="#785F4F" d="M0,0l52.8,19v0.2l-15.7,21
			c-0.4,0.4-0.9,0.8-1.4,1c-0.8,0.2-1.6,0.2-2.5,0L0,29.3L0,0z"/>
		<path id="Path_45614" fill-rule="evenodd" clip-rule="evenodd" fill="#775E4E" d="M0,0l52.8,19v0.2l-16,20.5
			c-0.4,0.4-0.8,0.8-1.3,1.1c-0.7,0.2-1.5,0.2-2.3,0L0,28.8V0z"/>
		<path id="Path_45615" fill-rule="evenodd" clip-rule="evenodd" fill="#765E4D" d="M0,0l52.8,19v0.2l-16.3,20
			c-0.3,0.4-0.8,0.8-1.2,1.1c-0.7,0.2-1.4,0.2-2.1,0.1L0,28.4V0z"/>
		<path id="Path_45616" fill-rule="evenodd" clip-rule="evenodd" fill="#765D4D" d="M0,0l52.8,19v0.2L36.2,38.6
			c-0.3,0.4-0.7,0.8-1.1,1.1c-0.6,0.2-1.3,0.2-1.9,0.1L0,27.9L0,0z"/>
		<path id="Path_45617" fill-rule="evenodd" clip-rule="evenodd" fill="#755C4C" d="M0,0l52.8,19v0.2l-16.9,19
			c-0.3,0.4-0.6,0.8-1,1.1c-0.5,0.2-1.2,0.3-1.7,0.1L0,27.4V0z"/>
		<path id="Path_45618" fill-rule="evenodd" clip-rule="evenodd" fill="#745C4C" d="M0,0l52.8,19v0.2L35.6,37.7
			c-0.3,0.4-0.5,0.9-0.9,1.1c-0.5,0.2-1,0.3-1.5,0.1L0,26.9L0,0z"/>
		<path id="Path_45619" fill-rule="evenodd" clip-rule="evenodd" fill="#745B4B" d="M0,0l52.8,19v0.2L35.3,37.2
			C35,37.5,35,38,34.5,38.3c-0.4,0.2-0.9,0.3-1.4,0.1L0,26.5V0z"/>
	</g>
	
		<linearGradient id="Path_47095_1_" gradientUnits="userSpaceOnUse" x1="9721.6064" y1="-389.6328" x2="9721.793" y2="-391.0428" gradientTransform="matrix(77.196 0 0 -38.1979 -740547.9375 -15549.9629)">
		<stop  offset="0" style="stop-color:#BD947B"/>
		<stop  offset="1" style="stop-color:#AD8770"/>
	</linearGradient>
	<path id="Path_47095" fill-rule="evenodd" clip-rule="evenodd" fill="url(#Path_47095_1_)" d="M9967.6-638.7l-24.4,18.6l-52.8-19
		v-0.6l24.3-18.6l52.9,19L9967.6-638.7z"/>
	
		<linearGradient id="Path_47096_1_" gradientUnits="userSpaceOnUse" x1="9722.6611" y1="-390.8726" x2="9722.8701" y2="-389.8696" gradientTransform="matrix(52.831 0 0 -38.2 -503744 -15550.7383)">
		<stop  offset="0" style="stop-color:#9C7A64"/>
		<stop  offset="1" style="stop-color:#8E715E"/>
	</linearGradient>
	<path id="Path_47096" fill-rule="evenodd" clip-rule="evenodd" fill="url(#Path_47096_1_)" d="M9943.2-620.6l0,0.6l-52.8-19v-0.6
		l24.3-18.6l28,36.2L9943.2-620.6z"/>
	<path id="Path_47097" fill-rule="evenodd" clip-rule="evenodd" fill="#E6B89A" d="M9967.5-639.3l-24.3,18.6l-52.8-19l24.3-18.6
		L9967.5-639.3z"/>
</g>
</svg>
