<?xml version="1.0" encoding="utf-8"?>
<!-- Generator: Adobe Illustrator 24.1.2, SVG Export Plug-In . SVG Version: 6.00 Build 0)  -->
<svg version="1.1" id="Слой_1" xmlns="http://www.w3.org/2000/svg" xmlns:xlink="http://www.w3.org/1999/xlink" x="0px" y="0px"
	 viewBox="0 0 5466 696.9" style="enable-background:new 0 0 5466 696.9;" xml:space="preserve">
<style type="text/css">
	.st0{fill:#FFFFFF;}
</style>
<path class="st0" d="M5466,0v696.9H3600v0h-823.5c0-0.1,0.1-0.2,0.1-0.3c5.2-21.3,21.1-42.1,38.9-61.1c26.2-28,57.5-55.4,67.3-87.1
	c2.8-8.9,3.7-17.8,3-26.6c-1.2,3.7-2.2,7.6-3.1,11.9c-21.7,98.9-144.5,25.5-83.2-32.3c17.9-16.9,38.9-30,59.3-39.1
	c-20.2-24.7-49.8-47.5-82.2-66.8c-34.7-20.7-73.4-39.1-104.1-62c-30.8-22.8-53.5-51.4-49.2-80.7c5.1-34.2,46.2-65.6,37.6-99.6
	c-8.1-31.8-56.4-53.3-86.5-79.9c-24-21.2-36.2-47-35.7-72.6h1061.2v695.9L3600,0.7V0H5466z"/>
<path id="Path_44844" class="st0" d="M2513.9,137.8c-21.6,16.4-83.2-15.5-70.9-48.5s58.8-16,73.6,2.1
	C2528.6,106.3,2531.4,124.5,2513.9,137.8z"/>
<path id="Path_44846" class="st0" d="M2617.7,177.7c-19.5-5.6-40.2-37-18.5-42s23.9,30.9,24.5,34.7
	C2624.7,177.1,2617.7,177.7,2617.7,177.7z"/>
</svg>
