<svg xmlns="http://www.w3.org/2000/svg" width="826.329" height="540.367" viewBox="0 0 826.329 540.367">
  <g id="Group_16540" data-name="Group 16540" transform="translate(-722.767 -1128.036)">
    <g id="Group_16529" data-name="Group 16529" transform="translate(1035.939 1307.792)">
      <rect id="Rectangle_14388" data-name="Rectangle 14388" width="199.457" height="281.497" transform="translate(4.77 35.546)" fill="#232f63"/>
      <rect id="Rectangle_14389" data-name="Rectangle 14389" width="199.457" height="281.497" transform="translate(0 30.776)" fill="#7badc9"/>
      <path id="Path_46119" data-name="Path 46119" d="M2207.05,2056.641h199.457l-83.23,281.5H2207.05Z" transform="translate(-2207.05 -2025.865)" fill="#6197aa"/>
      <rect id="Rectangle_14390" data-name="Rectangle 14390" width="144.611" height="221.737" transform="translate(28.181 48.574)" fill="#fff"/>
      <rect id="Rectangle_14391" data-name="Rectangle 14391" width="100.857" height="31.362" transform="translate(48.204 26.535)" fill="#b7bec7"/>
      <path id="Path_46120" data-name="Path 46120" d="M2583.695,1920.9a18.54,18.54,0,1,0,18.54,18.54A18.54,18.54,0,0,0,2583.695,1920.9Zm0,29.293a10.753,10.753,0,1,1,10.753-10.753A10.753,10.753,0,0,1,2583.695,1950.188Z" transform="translate(-2483.966 -1920.895)" fill="#b7bec7"/>
      <rect id="Rectangle_14392" data-name="Rectangle 14392" width="86.396" height="6.674" transform="translate(42.642 84.912)" fill="#7badc9"/>
      <rect id="Rectangle_14393" data-name="Rectangle 14393" width="114.329" height="6.674" transform="translate(42.642 104.034)" fill="#c1dee8"/>
      <rect id="Rectangle_14394" data-name="Rectangle 14394" width="114.329" height="6.674" transform="translate(42.642 115.689)" fill="#c1dee8"/>
      <rect id="Rectangle_14395" data-name="Rectangle 14395" width="114.329" height="6.674" transform="translate(42.642 127.343)" fill="#c1dee8"/>
      <rect id="Rectangle_14396" data-name="Rectangle 14396" width="114.329" height="6.674" transform="translate(42.642 138.997)" fill="#c1dee8"/>
      <rect id="Rectangle_14397" data-name="Rectangle 14397" width="114.329" height="6.674" transform="translate(42.642 150.652)" fill="#c1dee8"/>
      <rect id="Rectangle_14398" data-name="Rectangle 14398" width="114.329" height="6.674" transform="translate(42.642 170.761)" fill="#c1dee8"/>
      <rect id="Rectangle_14399" data-name="Rectangle 14399" width="114.329" height="6.674" transform="translate(42.642 183.174)" fill="#c1dee8"/>
      <rect id="Rectangle_14400" data-name="Rectangle 14400" width="43.136" height="6.674" transform="translate(113.093 215.696)" fill="#7badc9"/>
      <rect id="Rectangle_14401" data-name="Rectangle 14401" width="100.857" height="13.154" transform="translate(48.204 44.743)" fill="#8a939f"/>
    </g>
    <path id="Path_46121" data-name="Path 46121" d="M1121.259,1235.511V1697.85l209.762-19.117V1250.672Z" transform="translate(-331.488 -83.108)" fill="#fff"/>
    <path id="Path_46122" data-name="Path 46122" d="M1100.3,1253.73l218.875,17.957v-34.749s9.386-14.617-36.037-19.643-182.838-8.726-182.838-8.726Z" transform="translate(-315.284 -62.274)" fill="#a3cfe2"/>
    <path id="Path_46123" data-name="Path 46123" d="M1135.246,1879.925l209.761-206.934v331.7l-209.761,31.457Z" transform="translate(-342.304 -421.404)" fill="#e3f6ff"/>
    <path id="Path_46124" data-name="Path 46124" d="M1135.246,2645.233,1345.008,2539.1v135.336l-209.761,31.457Z" transform="translate(-342.304 -1091.147)" fill="#c8e3ed"/>
    <rect id="Rectangle_14402" data-name="Rectangle 14402" width="14.259" height="433.431" transform="translate(985.398 1167.563)" fill="#053c52"/>
    <ellipse id="Ellipse_1886" data-name="Ellipse 1886" cx="4.751" cy="8.144" rx="4.751" ry="8.144" transform="translate(765.581 1247.233)" fill="#0f1a42"/>
    <ellipse id="Ellipse_1887" data-name="Ellipse 1887" cx="4.751" cy="8.144" rx="4.751" ry="8.144" transform="translate(780.269 1240.397)" fill="#bad4e8"/>
    <ellipse id="Ellipse_1888" data-name="Ellipse 1888" cx="4.751" cy="8.144" rx="4.751" ry="8.144" transform="translate(795.249 1234.144)" fill="#fff"/>
    <path id="Path_46125" data-name="Path 46125" d="M1002.429,1588.335c.3,14.876,1.1,29.763.768,44.625-.346,15.323,5.215,26.82,18.722,34.281l5.65,1.1,2.26-.019c47.178-5.13,94.1-12.47,141.449-16.139,15.234-1.942,30.437-4.193,45.711-5.745,18.275-1.858,25.924-8.064,28.251-26.7,1.363-10.912.394-22.115.475-33.188l-10.68-3.182c-1.843.406-186.128,16.564-192.366,17.112-6.133,1.786-9.412.246-9.2-6.9.241-8.128-.182-16.276-.316-24.415-9.619,3.1-12.138-.7-12.088-10.3.314-59.953.065-119.91.041-179.865-.029-72.18.346-144.364-.31-216.539-.146-16.069,5.636-26.646,19.548-33.507-22.225-4.122-35.408,5.734-36.852,28.092-2.855,44.2-.255,88.473-1.336,132.7m131.576,343.525c-16.471.953-19.126-.369-19.824-7.935-.785-8.505,3.789-12.443,15.2-13.32,7.113-.547,14.21-1.3,21.313-1.977,6.816-.653,12.348.507,12.55,9,.185,7.761-3.439,11.906-11.411,12.423C1144.441,1631.926,1137.36,1632.893,1133.732,1633.273ZM1009.3,1442.3h-2.13v-68.62h2.13Z" transform="translate(-239.344)" fill="#053c52"/>
    <path id="Path_46126" data-name="Path 46126" d="M1541.623,3294.725c-16.471.953-19.126-.369-19.824-7.935-.785-8.505,3.788-12.443,15.2-13.32,7.113-.546,14.21-1.3,21.312-1.977,6.816-.653,12.348.507,12.55,9,.185,7.761-3.439,11.906-11.411,12.423C1552.332,3293.378,1545.25,3294.346,1541.623,3294.725Z" transform="translate(-641.152 -1657.379)" fill="#eaf2f9"/>
    <path id="Path_46127" data-name="Path 46127" d="M1310.5,1567.867q.091-45.628.183-91.255l.168.03-.107-30.154q.054-26.722.107-53.444l-.3-.091-.244-68.584-.006.009q.074-52.2.107-104.4-.077-15.494-.156-30.989c-.167-24.844-10.284-35.535-35.141-37.647-15.577-1.324-31.123-3.012-46.67-4.665-2.074-.22-4.069-1.2-6.1-1.821-28.674-1.719-57.042-6.152-85.525-9.573-10.876-1.306-21.807-2.153-32.713-3.209-13.911,6.862-19.693,17.438-19.548,33.507.656,72.175.281,144.359.31,216.539.024,59.955.273,119.911-.041,179.865-.006,1.095.024,2.11.092,3.052v91.792s-2.337,18.253,24.359,12.835l178.308-21.119s19.488-1.274,21.294-24.782l.784-35.683q.43-3.664.86-7.328a10.233,10.233,0,0,1-.661-1.744l.183-8.327C1310.213,1569.746,1310.381,1568.806,1310.5,1567.867Zm-24.9,19.885-179.165,15.856s-9.119,2.764-9.124-4.558l-.157-55.579q.394-48.468.789-96.931c.033-1.252.063-2.512.093-3.772q-.105-20.454-.211-40.908.027-1.3.054-2.609.021-50.964.041-101.929-.062-29.023-.124-58.046c-.027-21.768.022-43.536-.13-65.3-.044-6.257,1.233-10.764,8.905-9.641,1.784.011,3.582-.119,5.35.054q54.774,5.377,109.542,10.827c20.916,2.09,41.814,4.354,62.736,6.387,8.859.861,14.422,3.536,13.772,14.376-.743,12.411.245,24.941.765,37.408.891,21.39,1.441,42.768-.171,64.147,1.091,18.438.963,36.88.211,55.325q.086,1.1.173,2.207c.05.069.1.131.155.2l-.659,119.2h0q-.223,15.405-.447,30.811c.047,7.367,2.015,14.748-.152,22.1a11.784,11.784,0,0,1,.008,7.968,184.288,184.288,0,0,1,1.237,23.677l-.584,12.9q-.269,3.425-.652,6.849l.25,2.04h0l.037.305C1298.2,1582.307,1297.6,1586.668,1285.6,1587.752Z" transform="translate(-303.107 -3.125)" fill="#0e6c75"/>
    <path id="Path_46128" data-name="Path 46128" d="M1528.782,3276.758c-16.471.953-19.126-.369-19.824-7.936-.785-8.505,3.789-12.443,15.2-13.32,7.113-.547,14.21-1.3,21.313-1.977,6.816-.654,12.347.507,12.55,9,.185,7.762-3.439,11.906-11.411,12.423C1539.491,3275.411,1532.41,3276.377,1528.782,3276.758Z" transform="translate(-631.222 -1643.485)" fill="#eaf2f9"/>
    <ellipse id="Ellipse_1889" data-name="Ellipse 1889" cx="5.914" cy="7.369" rx="5.914" ry="7.369" transform="translate(809.21 1171.891)" fill="#232f63"/>
    <ellipse id="Ellipse_1890" data-name="Ellipse 1890" cx="5.914" cy="7.369" rx="5.914" ry="7.369" transform="translate(827.244 1173.83)" fill="#01567a"/>
    <ellipse id="Ellipse_1891" data-name="Ellipse 1891" cx="5.914" cy="7.369" rx="5.914" ry="7.369" transform="translate(844.889 1175.769)" fill="#fff"/>
    <g id="Group_16530" data-name="Group 16530" transform="translate(1273.855 1128.097)">
      <path id="Path_46129" data-name="Path 46129" d="M4253.433,1267.128q.057,1.443.043,2.949-.245,27.066-.321,54.132.086-27.067.321-54.132Q4253.489,1268.57,4253.433,1267.128Z" transform="translate(-4027.182 -1235.654)" fill="none"/>
      <path id="Path_46130" data-name="Path 46130" d="M4225.315,1177.038c-.352-.509-.725-1.005-1.112-1.493C4224.59,1176.033,4224.963,1176.529,4225.315,1177.038Z" transform="translate(-4004.794 -1164.834)" fill="none"/>
      <path id="Path_46131" data-name="Path 46131" d="M4252.87,1686.426h0q-.018,35.13.042,70.259Q4252.871,1721.556,4252.87,1686.426Z" transform="translate(-4026.959 -1559.89)" fill="none"/>
      <path id="Path_46132" data-name="Path 46132" d="M4253.323,3028.581q0,.813-.018,1.568c.014-.5.021-1.026.018-1.568Z" transform="translate(-4027.298 -2597.754)" fill="none"/>
      <path id="Path_46133" data-name="Path 46133" d="M4239.163,1199.618c-.236-.559-.494-1.1-.761-1.643C4238.669,1198.513,4238.927,1199.059,4239.163,1199.618Z" transform="translate(-4015.774 -1182.179)" fill="none"/>
      <path id="Path_46134" data-name="Path 46134" d="M4252.93,2235.24q-.013,33.725-.081,67.45.047-33.725.081-67.45Z" transform="translate(-4026.946 -1984.277)" fill="none"/>
      <path id="Path_46135" data-name="Path 46135" d="M4244.537,1212.551q-.353-1.2-.785-2.344Q4244.185,1211.35,4244.537,1212.551Z" transform="translate(-4019.911 -1191.637)" fill="none"/>
      <path id="Path_46136" data-name="Path 46136" d="M4253.751,1257.5q-.057-1.443-.185-2.823Q4253.7,1256.057,4253.751,1257.5Z" transform="translate(-4027.5 -1226.026)" fill="none"/>
      <path id="Path_46137" data-name="Path 46137" d="M4252.691,2654.4q0-11.242.01-22.483Q4252.692,2643.156,4252.691,2654.4Z" transform="translate(-4026.823 -2291.019)" fill="none"/>
      <path id="Path_46138" data-name="Path 46138" d="M4305.259,2280.408h2.13v-68.62h-2.13Z" transform="translate(-4067.473 -1966.143)" fill="none"/>
      <path id="Path_46139" data-name="Path 46139" d="M4252.98,3037.054c.034-.469.059-.956.073-1.463Q4253.031,3036.349,4252.98,3037.054Z" transform="translate(-4027.046 -2603.175)" fill="none"/>
      <path id="Path_46140" data-name="Path 46140" d="M4249.246,1228.427q-.238-1.289-.554-2.519Q4249.008,1227.138,4249.246,1228.427Z" transform="translate(-4023.731 -1203.779)" fill="none"/>
      <path id="Path_46141" data-name="Path 46141" d="M4252.441,1245.47q-.129-1.381-.331-2.7Q4252.313,1244.09,4252.441,1245.47Z" transform="translate(-4026.375 -1216.819)" fill="none"/>
      <path id="Path_46142" data-name="Path 46142" d="M3369,1487.928l187.477,184.949q-.042-5.1-.083-10.194c-.032-1.252-.063-2.512-.093-3.772q.1-20.454.21-40.908l-.054-2.608q-.02-50.965-.041-101.929.062-29.023.124-58.046c.019-14.636.007-29.271.04-43.907L3369,1426.9Z" transform="translate(-3343.481 -1347.305)" fill="#fff"/>
      <path id="Path_46143" data-name="Path 46143" d="M3547.765,1274.031c-1.784.011-3.583-.119-5.35.054q-54.775,5.377-109.542,10.827c-20.915,2.09-41.814,4.354-62.735,6.387-.387.037-.764.08-1.137.125v29.033l187.58-15.389q.025-10.7.09-21.4C3556.713,1277.414,3555.438,1272.907,3547.765,1274.031Zm-47.342,29.3c-3.267,0-5.914-3.3-5.914-7.369s2.647-7.369,5.914-7.369,5.914,3.3,5.914,7.369S3503.689,1303.328,3500.423,1303.328Zm17.646-1.939c-3.266,0-5.914-3.3-5.914-7.369s2.648-7.369,5.914-7.369,5.914,3.3,5.914,7.369S3521.335,1301.389,3518.069,1301.389Zm18.034-1.939c-3.267,0-5.914-3.3-5.914-7.369s2.647-7.369,5.914-7.369,5.914,3.3,5.914,7.369S3539.369,1299.45,3536.1,1299.45Z" transform="translate(-3343.481 -1240.858)" fill="#a3cfe2"/>
      <path id="Path_46144" data-name="Path 46144" d="M3369,1936.6l188.15,95.2.032-11.562q-.352-43.37-.706-86.737L3369,1748.559Z" transform="translate(-3343.481 -1607.936)" fill="#fccdd3"/>
      <path id="Path_46145" data-name="Path 46145" d="M3369,2705.929l178.9,15.832c.145.042.279.073.42.111,1.283.313,5.206,1.054,7.319-.912a6.721,6.721,0,0,0,1.384-3.778l.015-5.361c-.022-1.926-.011-3.853.016-5.78l.093-32.855-188.15-95.2Z" transform="translate(-3343.481 -2249.315)" fill="#fc9fa8"/>
      <path id="Path_46146" data-name="Path 46146" d="M3320.367,1441.393v-90.058c-8.193.986-13.257,3.884-12.635,14.251.743,12.411-.245,24.941-.764,37.408-.891,21.389-1.441,42.768.171,64.147-1.092,18.438-.963,36.88-.211,55.325q-.087,1.1-.173,2.207c-.05.069-.1.131-.156.2l.659,119.2q.224,15.405.448,30.811c-.047,7.368-2.015,14.748.152,22.1a11.785,11.785,0,0,0-.008,7.968,184.307,184.307,0,0,0-1.237,23.677l.583,12.9q.268,3.425.652,6.849-.126,1.02-.25,2.04c-.013.1-.025.2-.037.3-.064,1.192.54,5.552,12.543,6.637l.263.023v-315.99Z" transform="translate(-3294.848 -1300.77)" fill="#4d7a8e"/>
      <path id="Path_46147" data-name="Path 46147" d="M4252.886,1638.289q-.007,5.457,0,10.913h0Q4252.884,1643.746,4252.886,1638.289Z" transform="translate(-4026.97 -1522.666)" fill="#bad4e8"/>
      <path id="Path_46148" data-name="Path 46148" d="M4175.332,1133.482a33.312,33.312,0,0,1,2.876,2.448q.891.852,1.7,1.754c.387.433.753.879,1.109,1.329.387.489.761.984,1.113,1.493q.677.98,1.271,2.013c.3.515.571,1.044.836,1.579s.524,1.084.761,1.643q.237.558.453,1.13.431,1.144.786,2.344.177.6.334,1.216.315,1.23.554,2.519.119.645.221,1.3.2,1.319.33,2.7t.185,2.823q.056,1.443.042,2.949-.246,27.066-.32,54.132-.044,13.534-.058,27.067-.007,5.457,0,10.913-.019,35.13.042,70.26.031,27.083.031,54.166h0q-.012,33.725-.08,67.45-.015,11.241-.026,22.483t-.01,22.483q0,33.725.157,67.448h0c0,.542,0,1.063-.018,1.569,0,.007,0,.014,0,.021q-.022.761-.073,1.463h0v91.792s1.789,13.969-15.638,13.839q3.483.394,6.966.777l2.261.019,5.649-1.1c13.507-7.461,19.067-18.957,18.722-34.281-.335-14.862.466-29.749.769-44.625l.272-298.587c-1.082-44.229,1.518-88.5-1.336-132.7-1.443-22.358-14.626-32.213-36.852-28.092a44.009,44.009,0,0,1,5.933,3.5Q4174.82,1133.093,4175.332,1133.482Zm26.188,309.087h-2.13v-68.62h2.13Z" transform="translate(-3961.604 -1128.303)" fill="#4d7a8e"/>
      <path id="Path_46149" data-name="Path 46149" d="M3359.064,3410.378a68.385,68.385,0,0,0,6.836,1.015c15.273,1.554,30.476,3.8,45.71,5.746q8.385.649,16.755,1.447l-69.3-8.208Z" transform="translate(-3335.797 -2892.991)" fill="#053c52"/>
      <path id="Path_46150" data-name="Path 46150" d="M3284.425,3363.811a19.61,19.61,0,0,0,6.543,6.706A22.66,22.66,0,0,1,3284.425,3363.811Z" transform="translate(-3278.081 -2856.981)" fill="#053c52"/>
      <path id="Path_46151" data-name="Path 46151" d="M3262.1,3202.574c.038.3.081.6.122.893l-.628-28.606C3261.446,3184.138,3260.959,3193.458,3262.1,3202.574Z" transform="translate(-3260.247 -2710.87)" fill="#053c52"/>
      <path id="Path_46152" data-name="Path 46152" d="M4135.229,3502.307l-1.292-.152Z" transform="translate(-3934.993 -2963.96)" fill="#053c52"/>
      <path id="Path_46153" data-name="Path 46153" d="M4198.368,3148.6l.016-5.78C4198.357,3144.743,4198.348,3146.67,4198.368,3148.6Z" transform="translate(-3984.808 -2686.09)" fill="#053c52"/>
      <path id="Path_46154" data-name="Path 46154" d="M4158.518,3212.263c-.141-.038-.276-.069-.421-.111C4158.1,3212.152,4158.251,3212.2,4158.518,3212.263Z" transform="translate(-3953.676 -2739.706)" fill="#053c52"/>
      <path id="Path_46155" data-name="Path 46155" d="M4193.62,3191.977v-.022a6.73,6.73,0,0,1-1.384,3.778A4.861,4.861,0,0,0,4193.62,3191.977Z" transform="translate(-3980.075 -2724.088)" fill="#053c52"/>
      <path id="Path_46156" data-name="Path 46156" d="M3256.609,1476.879q.092,45.627.184,91.255c.121.939.289,1.878.455,2.818l.183,8.327a10.229,10.229,0,0,1-.661,1.744q.43,3.664.86,7.328l.156,7.069.629,28.606v.008a30.265,30.265,0,0,0,4.372,14.224,22.665,22.665,0,0,0,6.543,6.706,23.468,23.468,0,0,0,10.379,3.852h0l69.3,8.208,106.377,12.6,1.291.153,1.339.159a45.814,45.814,0,0,0,8.721,1c17.426.13,15.638-13.839,15.638-13.839v-91.791h0q.05-.7.073-1.463c0-.007,0-.014,0-.021q.022-.756.018-1.568h0q-.177-33.723-.158-67.448,0-11.242.01-22.483t.026-22.483q.046-33.725.08-67.45h0q.01-27.082-.031-54.166-.041-35.13-.042-70.26,0-5.456,0-10.913.016-13.534.057-27.067.086-27.067.321-54.133.014-1.507-.042-2.949t-.185-2.823q-.129-1.381-.33-2.7-.1-.66-.221-1.3-.239-1.289-.554-2.519-.157-.615-.334-1.215-.354-1.2-.785-2.344-.216-.572-.453-1.13c-.236-.559-.493-1.1-.76-1.643s-.541-1.064-.837-1.579q-.593-1.033-1.27-2.013c-.352-.509-.726-1.005-1.112-1.493-.357-.451-.723-.9-1.109-1.33q-.805-.9-1.7-1.754a33.627,33.627,0,0,0-2.876-2.447q-.513-.39-1.048-.768a44.036,44.036,0,0,0-5.934-3.5h0c-10.905,1.056-21.837,1.9-32.712,3.209-28.484,3.421-56.851,7.854-85.526,9.573-2.032.625-4.026,1.6-6.1,1.821-15.547,1.653-31.093,3.342-46.67,4.665-24.856,2.113-34.973,12.8-35.141,37.647q-.1,15.494-.156,30.989.047,52.2.107,104.4l-.007-.009-.244,68.583-.3.091.107,53.444-.107,30.154ZM3369.8,1636.664c-3.628-.38-10.709-1.347-17.823-1.808-7.972-.517-11.6-4.662-11.411-12.423.2-8.493,5.734-9.653,12.55-9,7.1.681,14.2,1.43,21.312,1.977,11.408.877,15.982,4.815,15.2,13.32C3388.925,1636.3,3386.27,1637.617,3369.8,1636.664Zm99.831-462.424q-.074,10.7-.091,21.4c-.033,14.636-.021,29.271-.04,43.907q-.061,29.023-.123,58.046.02,50.964.041,101.929l.054,2.608q-.105,20.454-.211,40.908c.03,1.26.061,2.52.093,3.772q.041,5.1.083,10.194.354,43.365.706,86.737l-.032,11.562-.093,32.855-.017,5.78-.015,5.361v.021a4.863,4.863,0,0,1-1.384,3.757c-2.114,1.966-6.036,1.225-7.32.912-.265-.065-.42-.111-.42-.111l-178.9-15.833-.263-.023c-12-1.084-12.606-5.445-12.542-6.636l.037-.3q.125-1.02.25-2.04-.387-3.425-.651-6.85l-.584-12.9a184.223,184.223,0,0,1,1.237-23.677,11.782,11.782,0,0,1,.008-7.968c-2.167-7.352-.2-14.733-.152-22.1q-.223-15.405-.447-30.811l-.659-119.2c.051-.067.105-.129.155-.2q.087-1.1.173-2.207c-.751-18.445-.88-36.887.211-55.325-1.612-21.378-1.063-42.757-.172-64.147.52-12.467,1.508-25,.765-37.408-.621-10.367,4.442-13.264,12.635-14.251.374-.045.751-.087,1.137-.125,20.921-2.033,41.82-4.3,62.736-6.387q54.765-5.472,109.542-10.827c1.768-.174,3.565-.043,5.35-.054C3468.4,1163.476,3469.674,1167.984,3469.63,1174.24Z" transform="translate(-3256.441 -1131.428)" fill="#4d6882"/>
      <path id="Path_46157" data-name="Path 46157" d="M3676.528,3269.089c.785-8.505-3.789-12.443-15.2-13.32-7.113-.547-14.209-1.3-21.312-1.977-6.816-.653-12.347.507-12.55,9-.185,7.762,3.439,11.906,11.411,12.423,7.114.462,14.2,1.428,17.823,1.808C3673.175,3277.977,3675.83,3276.655,3676.528,3269.089Z" transform="translate(-3543.345 -2771.787)" fill="#eaf2f9"/>
      <path id="Path_46158" data-name="Path 46158" d="M3571.423,1362.788c-3.267,0-5.914,3.3-5.914,7.368s2.647,7.369,5.914,7.369,5.914-3.3,5.914-7.369S3574.69,1362.788,3571.423,1362.788Z" transform="translate(-3495.438 -1309.626)" fill="#232f63"/>
      <path id="Path_46159" data-name="Path 46159" d="M3491.881,1371.341c-3.266,0-5.914,3.3-5.914,7.369s2.648,7.369,5.914,7.369,5.915-3.3,5.915-7.369S3495.147,1371.341,3491.881,1371.341Z" transform="translate(-3433.929 -1316.24)" fill="#01567a"/>
      <path id="Path_46160" data-name="Path 46160" d="M3414.049,1379.894c-3.267,0-5.914,3.3-5.914,7.369s2.648,7.369,5.914,7.369,5.914-3.3,5.914-7.369S3417.315,1379.894,3414.049,1379.894Z" transform="translate(-3373.743 -1322.854)" fill="#fff"/>
    </g>
    <path id="Path_46161" data-name="Path 46161" d="M2685.6,2481.87s11.247-5.915,18.518-5.43,25.4,4.459,25.4,4.459l-1.745,19.1a121.825,121.825,0,0,0-21.427,1.551c-10.18,1.842-34.322-6.205-32.867-10.568S2685.6,2481.87,2685.6,2481.87Z" transform="translate(-1531.747 -1042.675)" fill="#fac2ae"/>
    <path id="Path_46162" data-name="Path 46162" d="M2768.5,2533.706s8.829-.121,10.719-1.26c0,0,3.054-.121,2.908,2.788s16.095,3.938,16.095,3.938l-.536,4.156s-18.685.851-20.14,1.433S2768.5,2533.706,2768.5,2533.706Z" transform="translate(-1605.272 -1086.004)" fill="#f1a080"/>
    <path id="Path_46163" data-name="Path 46163" d="M2864.627,2469.392h-3.3s7.708,20.108,4.581,26.631l5.381.938-1.284-22.507Z" transform="translate(-1677.052 -1037.246)" fill="#fff"/>
    <path id="Path_46164" data-name="Path 46164" d="M3381.509,2184.455l-7.756,9.114,20.105,41.594,15.574-42.854-18.615-6.5S3382.257,2187.44,3381.509,2184.455Z" transform="translate(-2073.301 -816.91)" fill="#ededed"/>
    <path id="Path_46165" data-name="Path 46165" d="M3576.549,2764.912l5.105,80.622,63.023,5.577s2.843-40.1,6.77-57.112-2.617-41.448-2.617-41.448Z" transform="translate(-2230.12 -1256.208)" fill="#132147"/>
    <path id="Path_46166" data-name="Path 46166" d="M3658.351,2800.865l4.229,74.035,64.439,5.7s2.3-33.635,6.23-50.651-2.618-41.448-2.618-41.448Z" transform="translate(-2293.376 -1284.009)" fill="#192654"/>
    <path id="Path_46167" data-name="Path 46167" d="M3665.835,2859.693l.45,9.607s59.347,1.146,74-15.526c0,0-.28-14.442-1.637-16.866S3665.835,2859.693,3665.835,2859.693Z" transform="translate(-2299.163 -1321.313)" fill="#132147"/>
    <path id="Path_46168" data-name="Path 46168" d="M3824.563,2970.21s-1.96,8.726,1.821,13.574c0,0,.969,3.1,2.618,3.1s11.828.1,13.962-2.812,2.327-15.318,2.327-15.318Z" transform="translate(-2421.512 -1423.396)" fill="#fac2ae"/>
    <path id="Path_46169" data-name="Path 46169" d="M3833.792,2978.394s2.352,9.919.122,10.6c0,0,.848,3.114,2.617,3.1s-1.369-16.6-1.369-16.6Z" transform="translate(-2429.042 -1428.603)" fill="#f1a080"/>
    <path id="Path_46170" data-name="Path 46170" d="M3109.715,1685.208s-7.562,13.962-5.526,26.178c0,0,1.163,3.2-8.727,13.816,0,0-3.926,3.927,10.907,4.945,0,0,4.364,1.745,3.345,14.107s18.033,17.452,41.739,9.6c0,0,8.144-4.509,13.817,24.141,0,0,1.066,9.017-1.648,12.12s21.524.582,28.893-22.687c0,0-22.494-15.707-16.87-42.466s-34.128-51.968-34.128-51.968Z" transform="translate(-1857.74 -421.404)" fill="#fac2ae"/>
    <path id="Path_46171" data-name="Path 46171" d="M3378.287,1844.362s6.34,9.722,5.323,18.3,21.22,35.485,21.22,35.485l1.176-3.927s-13.439-9.5-12.173-29.618S3378.287,1844.362,3378.287,1844.362Z" transform="translate(-2076.808 -553.922)" fill="#f1a080"/>
    <path id="Path_46172" data-name="Path 46172" d="M3117.33,1663.063s-25.015-7.756-5.624-19.973,29.28-3.49,29.28-3.49S3127.8,1661.318,3117.33,1663.063Z" transform="translate(-1864.968 -393.248)" fill="#364777"/>
    <path id="Path_46173" data-name="Path 46173" d="M3154.88,1624.318s-28.311-18.615,4.848-33.159,49.446,8.144,53.132,22.3S3181.059,1603.569,3154.88,1624.318Z" transform="translate(-1895.344 -354.503)" fill="#232f63"/>
    <path id="Path_46174" data-name="Path 46174" d="M3225.318,1651.389s-30.25-28.311,22.3-24.238,25.014,72.91,25.014,72.91l-12.542-40.77Z" transform="translate(-1951.82 -385.646)" fill="#1e2b59"/>
    <path id="Path_46175" data-name="Path 46175" d="M3275.268,1720.507s-9.2-15.332,17.359-8.975,31.6,46,20.791,56.5c0,0-9.723-28.927-21.053-29.726a4.753,4.753,0,0,0-4.979,4.579c-.177,3.765-.881,10.014-3.537,12.67C3283.848,1755.556,3284.7,1735.8,3275.268,1720.507Z" transform="translate(-1995.952 -450.013)" fill="#0f1b42"/>
    <path id="Path_46176" data-name="Path 46176" d="M2989.43,2190.442s-9.986,17.064-13.477,27.729-10.665,15.125-10.665,15.125-9.114,3.393-35.97,12.992-51.58,3.587-53.228,6.3,6.69,16.87,4.945,25.693c0,0,.582,2.036-1.164,2.036s-.582,2.521,7.563,1.842,62.148.969,83.672-10.665c0,0,14.834-8.435,25.014-28.8,0,0,24.239,61.081,26.953,84.932s4.751,37.231,4.751,37.231h14.543l-1.745-65.154Z" transform="translate(-1688.3 -821.539)" fill="#232f63"/>
    <path id="Path_46177" data-name="Path 46177" d="M3381.633,2199.873l44.684,118.8-.621,12.406-52.7-124.2S3376.909,2197.227,3381.633,2199.873Z" transform="translate(-2072.719 -828.477)" fill="#192654"/>
    <path id="Path_46178" data-name="Path 46178" d="M3476.651,2070.4s-14.132,58.616-14.216,68.682,32.638,70.71,36.128,90.489,6.981,40.43,6.981,40.43,70.1,5.817,81.442-24.433c0,0-9.017-34.322-18.324-52.355,0,0-16.289-41.012-33.159-69.807s-24.432-42.757-33.449-44.066S3477.136,2076.879,3476.651,2070.4Z" transform="translate(-2141.877 -728.715)" fill="#232f63"/>
    <path id="Path_46179" data-name="Path 46179" d="M3879.977,2565.914l4.654,3.142,3.006,7.33,5.264,66.649s-6.331,6.261-14.669,6.261S3879.977,2565.914,3879.977,2565.914Z" transform="translate(-2460.853 -1111.885)" fill="#192654"/>
    <path id="Path_46180" data-name="Path 46180" d="M3612.42,2306.845s-10.471-22.87,1.454-15.689,46.775,67.011,43.748,82.655,3.663,63.123,3.663,63.123a33.06,33.06,0,0,1-11.635,2.258s-7.041-81.756-12.247-88.388S3612.42,2306.845,3612.42,2306.845Z" transform="translate(-2254.571 -898.34)" fill="#192654"/>
    <path id="Path_46181" data-name="Path 46181" d="M2500,2504.761" transform="translate(-1397.644 -1064.597)" fill="none"/>
    <path id="Path_46182" data-name="Path 46182" d="M2542.418,2493.811s11.708.872,17.524-1.309,8-4.484,11.125-4.1,11.562-1.72,12.362-2.739,3.563,1.939.582,4.169-12.362,5.866-9.889,7.684,3.043,2.4,11.241-.315,21.19,10.568,21.19,10.568.195,4.682-6.108,3.456c0,0-1.455,2.847-6.5,2.362,0,0,.194,3.49-12.507,1.648,0,0-1.157,3.3-4.266,3.3-4,0-4.04-1.5-9.526-2.181-11.707-1.454-27.37-7.792-28.286-10.108C2537.982,2502.755,2542.418,2493.811,2542.418,2493.811Z" transform="translate(-1427.877 -1049.671)" fill="#fac2ae"/>
    <path id="Path_46183" data-name="Path 46183" d="M2666.91,2557.885s13.179-16.677,23.672-18.789c0,0,7.244,2.25,14.807,10.152,0,0-.291,4.779-6.108,3.456,0,0-1.26,2.8-6.5,2.362,0,0,.727,3.49-12.507,1.648,0,0-1.959,5.072-7.888,2.682C2672.389,2559.4,2667.765,2558,2666.91,2557.885Z" transform="translate(-1526.712 -1091.147)" fill="#eaa48f" opacity="0.26"/>
    <path id="Path_46184" data-name="Path 46184" d="M2546.339,2522.983s-5.156,13.7,5.057,19.5l-16.255-6.348,7.958-13.151Z" transform="translate(-1424.819 -1078.687)" fill="#f1a080"/>
    <path id="Path_46185" data-name="Path 46185" d="M2708.633,2535.559s-4.2-1.284-9.864,1.092-7.506-1.809-7.506-1.809-.73.889.724,2.246,4.7,1.415,9.55-.291a17.812,17.812,0,0,1,9.952-.132Z" transform="translate(-1545.402 -1087.857)" fill="#f1a080"/>
    <path id="Path_46186" data-name="Path 46186" d="M2738.185,2553.167l16.222,9.864.862.131S2737.515,2549.151,2738.185,2553.167Z" transform="translate(-1581.814 -1101.468)" fill="#f1a080"/>
    <path id="Path_46187" data-name="Path 46187" d="M2731.393,2578.231s-10.87-8.872-14.139-9.105,13.772,9.911,13.772,9.911Z" transform="translate(-1565.321 -1114.365)" fill="#f1a080"/>
    <path id="Path_46188" data-name="Path 46188" d="M2696.482,2601.54s-7.68-5.037-8.557-4.593,8.142,5.146,8.142,5.146Z" transform="translate(-1542.917 -1135.86)" fill="#f1a080"/>
    <path id="Path_46189" data-name="Path 46189" d="M3602.971,2268.576s38.151,53.446,38.588,64.3,8.289,93.675,8.289,93.675,17.307,6.174,28.165,0c0,0,1.648-93.649-6.787-108.076s-32.663-56.618-32.663-56.618" transform="translate(-2250.552 -876.767)" fill="#232f63"/>
    <path id="Path_46190" data-name="Path 46190" d="M3369.67,2139.985l3.117,12.317a54.348,54.348,0,0,0-6.789,6.879c-2.327,3.1-6.785,12.216-6.785,12.216S3359.184,2140.956,3369.67,2139.985Z" transform="translate(-2062.059 -782.522)" fill="#fff"/>
    <path id="Path_46191" data-name="Path 46191" d="M3436.377,2056.851s-2.75,14.747-17.293,30.061c0,0,9.889.48,21.233,14.151,0,0,5.721-26.856,5.721-39.655C3446.038,2061.409,3436.219,2051.905,3436.377,2056.851Z" transform="translate(-2108.355 -717.133)" fill="#fff"/>
    <g id="Group_16531" data-name="Group 16531" transform="translate(833.854 1242.181)">
      <path id="Path_46192" data-name="Path 46192" d="M1725.947,2500.912l-26.722,89.78-11.247-36.843,18.984-43.048Z" transform="translate(-1603.576 -2303.801)" fill="#78adc4"/>
      <path id="Path_46193" data-name="Path 46193" d="M1739.287,2535.8s-29.343,10.67-19.372,65.086l-3.7,11.95s-18.034-60.791,10.762-84.351l14.675-.629Z" transform="translate(-1621.099 -2324.638)" fill="#669eb2"/>
      <path id="Path_46194" data-name="Path 46194" d="M1650.553,1894.94s4.654,4.654-15.416,32.286-17.8,80.342-17.8,80.342l47.756-57.073,21.233-54.1Z" transform="translate(-1548.894 -1835.213)" fill="#0f1a42"/>
      <path id="Path_46195" data-name="Path 46195" d="M1850.018,1662.728s33.449,6.69,23.851,38.394c0,0,1.494,13.934,7.712,20.852a2.093,2.093,0,0,1-.283,3.105,21.461,21.461,0,0,1-7.387,3.482l.415,8.642a21.1,21.1,0,0,1-.953,7.588c-3.914,11.939-15.48,8.749-34.7,9.268,0,0-22.979-2.618-21.233,22.106s-.094,24.432-.094,24.432l-30.155-27.341s24.432-23.56,18.033-60.791S1850.018,1662.728,1850.018,1662.728Z" transform="translate(-1680.296 -1655.648)" fill="#fac2ae"/>
      <path id="Path_46196" data-name="Path 46196" d="M1822.142,2092.283s20.024,35.835,21.074,23.179l3.959,12.358-15.634-11.78-11.634-20.579Z" transform="translate(-1705.594 -1987.815)" fill="#f1a080"/>
      <path id="Path_46197" data-name="Path 46197" d="M1935.124,1688.084s-14.307-1.458-23.033,20.648-23.9,41.839-43.123,36.062l.948-31.408S1922.089,1652.892,1935.124,1688.084Z" transform="translate(-1743.532 -1666.748)" fill="#f1a080"/>
      <path id="Path_46198" data-name="Path 46198" d="M1609.013,2127.754a121.944,121.944,0,0,0-17.452,10.48c-11.635,8.871-40.43,88.277-40.43,88.277s23.428,19.488,45.6,13.671a70.645,70.645,0,0,1,25.953-23.851c17.743-9.6,37.667-48.865,24.724-69.08-3.6-5.616-13.525-18.929-12.547-15.966,9.744,29.523-11.159,17.275-11.159,17.275Z" transform="translate(-1497.755 -2015.245)" fill="#7badc9"/>
      <path id="Path_46199" data-name="Path 46199" d="M1564.965,2487.953s3.866,28.585,44.68,23.373l-2.978,3.388s-29.813,6.006-45.948-18.167Z" transform="translate(-1505.169 -2293.78)" fill="#669eb2"/>
      <path id="Path_46200" data-name="Path 46200" d="M1787.191,2134.18s22.493,36.285,23.463,37.061,8.435-13.961,8.435-13.961,1.335-3.348,11.247,9.211c0,0,5.429,4.459,0-8.048l-11.247-8.2s4.027,6.65-9.792,1.22c-18.066-7.1-19.972-18.324-19.972-18.324Z" transform="translate(-1680.296 -2019.407)" fill="#669eb2"/>
      <path id="Path_46201" data-name="Path 46201" d="M1759.822,2403.409s18.515,17.149,33.375,18.779c0,0,8.316-9.423,8.752-11.313S1759.822,2403.409,1759.822,2403.409Z" transform="translate(-1659.132 -2228.403)" fill="#669eb2"/>
      <path id="Path_46202" data-name="Path 46202" d="M1373.367,2512.925s8.666,23.662,45.721,19c0,0-16.27,15.118-9.871,43.042s13.221,84.557,13.221,84.557l-101.409,8.975s-15.941-84.224,7.328-115.929S1358.75,2534.36,1373.367,2512.925Z" transform="translate(-1315.701 -2313.09)" fill="#e6515b"/>
      <path id="Path_46203" data-name="Path 46203" d="M1795.64,2096.257s9.533,19.88,22.5,27.414l-7.1,14.806-23.851-36.939S1796.527,2090.979,1795.64,2096.257Z" transform="translate(-1680.296 -1989.746)" fill="#8cbdd3"/>
      <path id="Path_46204" data-name="Path 46204" d="M1921.418,2158.069s9.77,6.807,13.7,12.624c0,0,.172-11.881-3.55-17.071s-10.818-14.359-10.818-14.359Z" transform="translate(-1783.573 -2024.144)" fill="#8cbdd3"/>
      <path id="Path_46205" data-name="Path 46205" d="M1760.357,2234.134s46.151,19.2,66.123,31.219,28.893,14.156,28.893,14.156a88.82,88.82,0,0,0,17.258,3.1c7.95.388,52.743,14.552,52.743,14.552l-1.551,16.086s-67.481-3.49-90.75-12.023-81.442-28.893-81.442-28.893S1742.324,2230.45,1760.357,2234.134Z" transform="translate(-1650.941 -2097.329)" fill="#83b6cc"/>
      <path id="Path_46206" data-name="Path 46206" d="M2423.486,2501.173s-.123,17.538-19.022,16.908l24.682,1.794-1.842-17.6Z" transform="translate(-2157.622 -2304.003)" fill="#669eb2"/>
      <path id="Path_46207" data-name="Path 46207" d="M2487.517,2499.883s1.672,4.63-.582,11.61-1.732,5.907-1.732,5.907-2.055,1.655-.052,2.528,12.837,2.109,14.8.727,4.436-17.016,3.854-18.251S2484.391,2495.98,2487.517,2499.883Z" transform="translate(-2219.338 -2301.899)" fill="#8cbdd3"/>
      <path id="Path_46208" data-name="Path 46208" d="M1843.136,1650.4s-11.84-10.948-27.983,29.627-62.652,21.51-62.652,21.51-6.574-62.958,48.981-69.357C1843.994,1627.285,1843.136,1650.4,1843.136,1650.4Z" transform="translate(-1653.284 -1631.5)" fill="#232f63"/>
      <path id="Path_46209" data-name="Path 46209" d="M1477.076,2560.76s-33.984,25.31-24.095,54.978-14.107,87.785-14.107,87.785l78.811-7.009s-8.672-69.769-14.437-91.9c0,0-2.7-20.761,11.087-35.7C1514.334,2568.916,1493.023,2573.175,1477.076,2560.76Z" transform="translate(-1410.948 -2350.081)" fill="#d3404e"/>
    </g>
    <path id="Path_46210" data-name="Path 46210" d="M3396.015,1862.2a50.021,50.021,0,0,1,7.7,17.166c2.472,10.326,9.587,12.943,9.587,12.943s-3.032-6.026-.783-15.884S3396.015,1862.2,3396.015,1862.2Z" transform="translate(-2090.516 -567.719)" fill="#0f1b42"/>
    <g id="Group_16533" data-name="Group 16533" transform="translate(722.767 1246.85)">
      <path id="Path_46211" data-name="Path 46211" d="M1002.788,1677.6c-2.615-1.151-5.68-4.113-7.95-6.6v-12.8c0-3.358-3.677-6.106-8.172-6.106H833.892c-4.495,0-8.172,2.748-8.172,6.106v29.424c0,3.358,3.677,6.106,8.172,6.106H986.666c4.494,0,8.172-2.748,8.172-6.106v-10.439Z" transform="translate(-825.72 -1652.095)" fill="#7badc9"/>
      <g id="Group_16532" data-name="Group 16532" transform="translate(10.774 11.486)">
        <rect id="Rectangle_14404" data-name="Rectangle 14404" width="132.918" height="3.969" rx="1.984" fill="#fff"/>
        <rect id="Rectangle_14405" data-name="Rectangle 14405" width="132.918" height="3.969" rx="1.984" transform="translate(0 7.585)" fill="#fff"/>
        <rect id="Rectangle_14406" data-name="Rectangle 14406" width="81.652" height="3.969" rx="1.984" transform="translate(0 15.17)" fill="#fff"/>
      </g>
    </g>
    <g id="Group_16535" data-name="Group 16535" transform="translate(1372.028 1242.703)">
      <path id="Path_46212" data-name="Path 46212" d="M3689.463,1659.308c2.615-1.151,5.68-4.113,7.95-6.6v-12.8c0-3.358,3.677-6.105,8.172-6.105h152.774c4.494,0,8.172,2.747,8.172,6.105v29.424c0,3.358-3.678,6.105-8.172,6.105H3705.584c-4.494,0-8.172-2.747-8.172-6.105V1658.9Z" transform="translate(-3689.463 -1633.806)" fill="#232f63"/>
      <g id="Group_16534" data-name="Group 16534" transform="translate(33.376 11.486)">
        <rect id="Rectangle_14407" data-name="Rectangle 14407" width="132.918" height="3.969" rx="1.984" transform="translate(132.918 3.969) rotate(180)" fill="#fff"/>
        <rect id="Rectangle_14408" data-name="Rectangle 14408" width="132.918" height="3.969" rx="1.984" transform="translate(132.918 11.554) rotate(180)" fill="#fff"/>
        <rect id="Rectangle_14409" data-name="Rectangle 14409" width="81.652" height="3.969" rx="1.984" transform="translate(81.652 19.139) rotate(180)" fill="#fff"/>
      </g>
    </g>
    <g id="Group_16538" data-name="Group 16538" transform="translate(842.483 1297.012)">
      <path id="Path_46219" data-name="Path 46219" d="M1392.34,1893.776a19.3,19.3,0,1,1-18.553-20.412A19.456,19.456,0,0,1,1392.34,1893.776Z" transform="translate(-1353.761 -1873.35)" fill="#29cb97"/>
      <path id="Path_46220" data-name="Path 46220" d="M1405.927,1948.974a.779.779,0,0,1-.568-.248l-7.315-7.8a.814.814,0,0,1,.025-1.135.776.776,0,0,1,1.113.025l6.694,7.14,10.1-12.855a.777.777,0,0,1,1.105-.124.812.812,0,0,1,.122,1.127l-10.66,13.57a.78.78,0,0,1-.579.3Z" transform="translate(-1387.835 -1920.095)" fill="#fff"/>
    </g>
    <g id="Group_16539" data-name="Group 16539" transform="translate(1393.863 1293.332)">
      <path id="Path_46221" data-name="Path 46221" d="M3824.351,1877.542a19.3,19.3,0,1,1-18.552-20.412A19.456,19.456,0,0,1,3824.351,1877.542Z" transform="translate(-3785.772 -1857.116)" fill="#4d6882"/>
      <path id="Path_46222" data-name="Path 46222" d="M3837.939,1932.739a.78.78,0,0,1-.569-.248l-7.315-7.8a.814.814,0,0,1,.025-1.135.776.776,0,0,1,1.113.025l6.694,7.141,10.1-12.855a.776.776,0,0,1,1.1-.125.811.811,0,0,1,.122,1.127l-10.659,13.57a.781.781,0,0,1-.58.3Z" transform="translate(-3819.847 -1903.861)" fill="#fff"/>
    </g>
  </g>
</svg>
