<?xml version="1.0" encoding="utf-8"?>
<!-- Generator: Adobe Illustrator 24.1.2, SVG Export Plug-In . SVG Version: 6.00 Build 0)  -->
<svg version="1.1" id="Слой_1" xmlns="http://www.w3.org/2000/svg" xmlns:xlink="http://www.w3.org/1999/xlink" x="0px" y="0px"
	 width="108px" height="54px" viewBox="0 0 108 54" style="enable-background:new 0 0 108 54;" xml:space="preserve">
<style type="text/css">
	.st0{fill:#FFECEB;}
</style>
<path class="st0" d="M51,21.6l-16.7-2.3L27,4.2l-7.3,15.1L3,21.6l12.1,11.7l-3,16.6L27,41.9l14.8,7.9l-3-16.6L51,21.6z M27,37.3
	l-9.4,5l1.9-10.5l-7.7-7.4L22.3,23l4.7-9.6l4.7,9.6l10.6,1.5l-7.7,7.4l1.9,10.5L27,37.3z"/>
<polygon class="st0" points="92.9,33.3 95.8,49.8 81,41.9 66.2,49.8 69.1,33.3 57,21.6 73.7,19.3 81,4.2 88.3,19.3 105,21.6 "/>
</svg>
