<?xml version="1.0" encoding="utf-8"?>
<!-- Generator: Adobe Illustrator 24.1.2, SVG Export Plug-In . SVG Version: 6.00 Build 0)  -->
<svg version="1.1" id="Слой_1" xmlns="http://www.w3.org/2000/svg" xmlns:xlink="http://www.w3.org/1999/xlink" x="0px" y="0px"
	 viewBox="0 0 720 360" style="enable-background:new 0 0 720 360;" xml:space="preserve">
<style type="text/css">
	.st0{fill-rule:evenodd;clip-rule:evenodd;fill:#814611;}
	.st1{fill-rule:evenodd;clip-rule:evenodd;fill:#0E755D;}
	.st2{fill-rule:evenodd;clip-rule:evenodd;fill:#1B9F74;}
	.st3{fill:#0E755D;}
	.st4{fill:#69493B;}
	.st5{fill:#4E3428;}
	.st6{fill:#503529;}
	.st7{fill-rule:evenodd;clip-rule:evenodd;fill:#979696;}
	.st8{fill:#0E6C75;}
	.st9{fill-rule:evenodd;clip-rule:evenodd;fill:#0B626A;}
	.st10{fill:#7E7E7E;}
	.st11{fill:#979696;}
	.st12{fill-rule:evenodd;clip-rule:evenodd;fill:#696969;}
	.st13{fill:#192834;}
	.st14{fill:#2E4354;}
	.st15{fill-rule:evenodd;clip-rule:evenodd;fill:#69493B;}
	.st16{fill:#583B2E;}
	.st17{fill-rule:evenodd;clip-rule:evenodd;fill:#006174;}
	.st18{fill:#FFFFFF;}
	.st19{fill-rule:evenodd;clip-rule:evenodd;fill:#0E6C75;}
	.st20{fill-rule:evenodd;clip-rule:evenodd;fill:#0D656E;}
	.st21{fill-rule:evenodd;clip-rule:evenodd;fill:#FFFFFF;}
	.st22{fill:#1F303E;}
	.st23{fill:#CFCFCF;}
	.st24{fill-rule:evenodd;clip-rule:evenodd;fill:#00A100;}
	.st25{fill:#1B9F74;}
</style>
<g id="Group_20516" transform="translate(990.611 1955.079)">
	<g id="Group_20514" transform="translate(429.873 397.854)">
		<path id="Path_53805" class="st0" d="M-1264.3-2094h-7.3v83.9h10.7L-1264.3-2094z"/>
		<path id="Path_53806" class="st0" d="M-1249.6-2091.9l-1.8-1.3l-14.8,21l2.7,2L-1249.6-2091.9z"/>
		<path id="Path_53807" class="st0" d="M-1287.6-2081.7l-2.4,3.2l20.3,15.5l3.4-4.7L-1287.6-2081.7z"/>
	</g>
	<g id="Group_20515" transform="translate(405.389 338.207)">
		<path id="Path_53808" class="st1" d="M-1241.8-2094c23,0,41.6,15.5,41.6,34.5s-18.7,34.5-41.6,34.5c-23,0-41.6-15.5-41.6-34.5
			C-1283.4-2078.5-1264.7-2094-1241.8-2094z"/>
		<path id="Path_53809" class="st2" d="M-1225.2-2051.5c9.2,0,16.6,6.2,16.6,13.9c0,7.7-7.4,13.9-16.6,13.9
			c-9.2,0-16.6-6.2-16.6-13.9S-1234.3-2051.5-1225.2-2051.5z"/>
		<path id="Path_53810" class="st2" d="M-1269.2-2051.5c11.8-0.5,21.7,7.2,22.1,17.1c0.4,9.9-8.9,18.3-20.8,18.7
			c-11.8,0.5-21.7-7.2-22.1-17.1C-1290.4-2042.6-1281.1-2051-1269.2-2051.5z"/>
	</g>
</g>
<path id="Path_53804" class="st1" d="M96.6,315.7c0-0.2,0-0.4,0-0.6c0-7.7,6.8-13.9,15.2-13.9c4.4,0,8.6,1.7,11.6,4.9
	c1.7-0.9,3.6-1.4,5.5-1.4c5.8,0,10.5,4.3,10.5,9.6v0.1c5.6,2.1,9.5,7,9.5,12.8c0,0.1,0,0.2,0,0.3c4.4,0.9,7.7,4.7,7.8,9.2
	c0,5.3-4.7,9.5-10.5,9.5h-25.7c-3.3,0-6.5-1-9.2-2.8c-1.3,0.6-2.7,0.8-4.2,0.8c-3.6,0-13.9,2-18.3,2c-2,0-4-0.6-5.7-1.7
	c-1.7,1.1-3.7,1.7-5.7,1.7c-5.4,0.3-10-3.9-10.3-9.3c-0.3-5.4,3.9-10,9.3-10.3c0.3,0,0.6,0,1,0c2,0,4,0.6,5.7,1.7
	c0.5-0.3,1-0.6,1.6-0.8c-0.2-0.7-0.3-1.5-0.3-2.2c0.1-5.5,4.7-9.9,10.3-9.8C95.3,315.6,95.9,315.6,96.6,315.7z"/>
<g id="Mask_Group_48">
	<g id="Group_20513" transform="translate(1439.189 2129.617)">
		<g id="Group_20512" transform="translate(26.811 34.228)">
			<g id="Group_20488" transform="translate(319.439)">
				<g id="Group_20486" transform="translate(62.545 113.319)">
					<path id="Path_53781" class="st0" d="M-1253.5-2094h18.3v159.4h-26.7L-1253.5-2094z"/>
					<path id="Path_53782" class="st0" d="M-1290-2089.9l4.6-2.6l37,39.8l-6.7,3.7L-1290-2089.9z"/>
					<path id="Path_53783" class="st0" d="M-1195.1-2070.7l5.9,6.1l-50.6,29.5l-8.6-8.9L-1195.1-2070.7z"/>
				</g>
				<g id="Group_20487">
					<ellipse id="Ellipse_2070" class="st3" cx="-1186" cy="-2028.5" rx="104" ry="65.5"/>
					<path id="Path_53784" class="st1" d="M-1227.5-2013.2c-22.9,0-41.5,11.8-41.5,26.4c0,14.6,18.6,26.4,41.5,26.4
						s41.5-11.8,41.5-26.4C-1186-2001.4-1204.6-2013.2-1227.5-2013.2z"/>
					<path id="Path_53785" class="st1" d="M-1117.4-2013.2c-29.6-0.9-54.3,13.6-55.2,32.4c-0.9,18.8,22.3,34.7,51.9,35.6
						c29.6,0.9,54.3-13.6,55.2-32.4S-1087.8-2012.3-1117.4-2013.2z"/>
				</g>
			</g>
			<g id="Group_20511" transform="translate(0 37.094)">
				<g id="Group_20495" transform="translate(90.639)">
					<g id="Group_20490" transform="translate(101.03 87.006)">
						<rect id="Rectangle_16253" x="-1290" y="-2094" class="st4" width="111.5" height="148.7"/>
						<g id="Group_20489" transform="translate(5.977 4.277)">
							<path id="Path_53811" class="st5" d="M-1290-2089.3h86.3v22h-86.3V-2089.3z"/>
							<rect id="Rectangle_16255" x="-1216.9" y="-2094" class="st6" width="32.5" height="144.4"/>
							<rect id="Rectangle_16256" x="-1290" y="-2094" class="st5" width="13.4" height="144.4"/>
						</g>
					</g>
					<g id="Group_20493" transform="translate(127.562 162.425)">
						<path id="Path_53786" class="st7" d="M-1290-2079.2c0.2-8.2,10-14.8,21.9-14.8s21.7,6.6,21.9,14.8l0,0v58.4h-43.9
							L-1290-2079.2L-1290-2079.2z"/>
						<g id="Group_20491" transform="translate(4.411 3.029)">
							<ellipse id="Ellipse_2071" class="st8" cx="-1272.5" cy="-2082" rx="17.5" ry="12"/>
							<path id="Path_53787" class="st9" d="M-1276.9-2070.3c-3.3-2.2-5.3-5.2-5.3-8.6c0-6.6,7.9-12,17.5-12c1.5,0,2.9,0.1,4.4,0.4
								c3.3,2.2,5.3,5.2,5.3,8.6c0,6.7-7.9,12-17.5,12C-1273.9-2069.9-1275.4-2070-1276.9-2070.3z"/>
						</g>
						<g id="Group_20492" transform="translate(2.811 15.074)">
							<rect id="Rectangle_16257" x="-1288.4" y="-2090.9" class="st10" width="35.1" height="55.1"/>
							<rect id="Rectangle_16258" x="-1290" y="-2094" class="st11" width="36.7" height="3.2"/>
							<path id="Path_53788" class="st12" d="M-1288.4-2084.7l35.1,23.9v25h-35.1V-2084.7z"/>
						</g>
					</g>
					<g id="Group_20494">
						<path id="Path_53789" class="st13" d="M-1290-2001.4h323.3l-169.2-92.6L-1290-2001.4z"/>
						<rect id="Rectangle_16259" x="-1216.5" y="-2005.7" class="st14" width="239.7" height="15.3"/>
					</g>
				</g>
				<g id="Group_20506" transform="translate(0 23.681)">
					<g id="Group_20496" transform="translate(31.745 9.107)">
						<path id="Path_53790" class="st15" d="M-1124.1-1891.1v-149.7l-81.8-53.2l-84.1,53.2v149.7H-1124.1z"/>
						<path id="Path_53791" class="st16" d="M-1290-2052.1v27.7l82.9-44.4l82.9,41.3v-16.2l-82.9-50.2L-1290-2052.1z"/>
					</g>
					<g id="Group_20502" transform="translate(73.825 185)">
						<g id="Group_20499">
							<g id="Group_20497" transform="translate(0.696 1.546)">
								<rect id="Rectangle_16260" x="-1290" y="-2094" class="st8" width="36.6" height="19.8"/>
								<path id="Path_53792" class="st17" d="M-1255.1-2091.9l-32.1,17.7h32.1V-2091.9z"/>
							</g>
							<g id="Group_20498">
								<path id="Path_53793" class="st18" d="M-1260.6-2073.1h5.6v-18.9h-5.6V-2073.1z M-1279.7-2073.1h16.8v-18.9h-16.8V-2073.1z
									 M-1287.7-2073.1h5.7v-18.9h-5.7L-1287.7-2073.1z M-1252.7-2071.1h-37.3v-22.9h37.3L-1252.7-2071.1z"/>
								<path id="Path_53794" class="st18" d="M-1260.6-2073.1h5.6v-18.9h-5.6V-2073.1z M-1279.7-2073.1h16.8v-18.9h-16.8V-2073.1z
									 M-1287.7-2073.1h5.7v-18.9h-5.7L-1287.7-2073.1z M-1252.7-2071.1h-37.3v-22.9h37.3L-1252.7-2071.1z"/>
							</g>
						</g>
						<g id="Group_20501" transform="translate(44.414)">
							<g id="Group_20500" transform="translate(0.696 1.546)">
								<rect id="Rectangle_16261" x="-1290" y="-2094" class="st8" width="36.6" height="19.8"/>
								<path id="Path_53795" class="st17" d="M-1255.1-2091.9l-32.1,17.7h32.1V-2091.9z"/>
							</g>
							<path id="Path_53796" class="st18" d="M-1260.6-2073.1h5.6v-18.9h-5.6V-2073.1z M-1279.7-2073.1h16.8v-18.9h-16.8V-2073.1z
								 M-1287.7-2073.1h5.7v-18.9h-5.7L-1287.7-2073.1z M-1252.7-2071.1h-37.3v-22.9h37.3L-1252.7-2071.1z"/>
						</g>
					</g>
					<g id="Group_20505" transform="translate(67.338 57.055)">
						<g id="Group_20503" transform="translate(1.768 2.657)">
							<path id="Path_53797" class="st19" d="M-1290-2059.6c0-0.3,0-0.6,0-0.8c0-18.5,20-33.5,44.5-33.5c24.6,0,44.5,15,44.5,33.5
								c0,0.3,0,0.6,0,0.8h3.9v50.2h-92.9L-1290-2059.6L-1290-2059.6z"/>
							<path id="Path_53798" class="st20" d="M-1220.7-2084.9l-62.3,75.5h81.5v-64.1L-1220.7-2084.9z"/>
						</g>
						<g id="Group_20504">
							<path id="Path_53799" class="st21" d="M-1290-2059.8c0-18.9,21.2-34.2,47.4-34.2c26.1,0,47.4,15.3,47.4,34.2h-6.1
								c-1.8-16.2-19.6-28.9-41.2-28.9c-21.7,0-39.5,12.7-41.2,28.9H-1290z"/>
							<path id="Path_53800" class="st18" d="M-1215.3-2008h14.3v-47.8h-14.3V-2008z M-1264-2008h42.7v-47.8h-42.7V-2008z
								 M-1284.3-2008h14.3v-47.8h-14.3V-2008z M-1195.3-2002.9h-94.7v-58h94.7L-1195.3-2002.9z"/>
						</g>
					</g>
					<path id="Path_53801" class="st22" d="M-1290-2026.4h32.4l82.3-45.8l84.2,45.8h38.9l-123.1-67.6L-1290-2026.4z"/>
				</g>
				<g id="Group_20510" transform="translate(277.828 30.406)">
					<g id="Group_20507" transform="translate(6.071 73.906)">
						<rect id="Rectangle_16262" x="-1290" y="-2094" class="st4" width="228.6" height="131.3"/>
						<rect id="Rectangle_16263" x="-1289.9" y="-2090" class="st5" width="228.5" height="12.7"/>
					</g>
					<g id="Group_20508" transform="translate(41.45 103.088)">
						<rect id="Rectangle_16264" x="-1289.8" y="-2094" class="st18" width="156.7" height="102.2"/>
						<rect id="Rectangle_16265" x="-1290" y="-2003.8" class="st23" width="156.7" height="12"/>
						<rect id="Rectangle_16266" x="-1290" y="-2033.6" class="st23" width="156.7" height="12"/>
						<rect id="Rectangle_16267" x="-1290" y="-2063.4" class="st23" width="156.7" height="12"/>
						<rect id="Rectangle_16268" x="-1289.4" y="-2094" class="st23" width="156.7" height="12"/>
					</g>
					<g id="Group_20509">
						<rect id="Rectangle_16269" x="-1290" y="-2028.4" class="st14" width="239.7" height="15.3"/>
						<path id="Path_53802" class="st22" d="M-1290-2027.1h239.7L-1176-2094L-1290-2027.1z"/>
					</g>
				</g>
			</g>
			<path id="Path_53803" class="st24" d="M-805.6-1840.2c0-0.1,0-0.3,0-0.5c0-5.8,5.2-10.5,11.6-10.5c3.3,0,6.5,1.3,8.8,3.7
				c1.3-0.7,2.7-1.1,4.2-1.1c4.4,0,8,3.2,8,7.3v0.1c4.2,1.4,7.1,5.3,7.2,9.8c0,0.1,0,0.2,0,0.2c3.4,0.7,5.8,3.6,5.9,7
				c0,4-3.6,7.3-8,7.3h-19.5c-2.5,0-4.9-0.7-7-2.1c-1,0.4-2.1,0.6-3.2,0.6c-2.7,0-10.5,1.5-13.9,1.5c-1.5,0-3.1-0.4-4.4-1.3
				c-1.3,0.8-2.8,1.3-4.4,1.3c-4.1,0.2-7.6-3-7.8-7.1c-0.2-4.1,3-7.6,7.1-7.8c0.2,0,0.5,0,0.7,0c1.5,0,3.1,0.4,4.4,1.3
				c0.4-0.2,0.8-0.5,1.2-0.6c-0.1-0.6-0.2-1.1-0.2-1.7c0.1-4.2,3.6-7.5,7.8-7.4C-806.6-1840.4-806.1-1840.3-805.6-1840.2z"/>
		</g>
		<rect id="Rectangle_16270" x="-1367.7" y="-1787" class="st25" width="635.5" height="17.2"/>
	</g>
</g>
</svg>
