<?xml version="1.0" encoding="utf-8"?>
<!-- Generator: Adobe Illustrator 24.1.2, SVG Export Plug-In . SVG Version: 6.00 Build 0)  -->
<svg version="1.1" id="Слой_1" xmlns="http://www.w3.org/2000/svg" xmlns:xlink="http://www.w3.org/1999/xlink" x="0px" y="0px"
	 width="539px" height="334.7px" viewBox="0 0 539 334.7" style="enable-background:new 0 0 539 334.7;" xml:space="preserve">
<style type="text/css">
	.st0{fill:#282C35;}
	.st1{fill:#3E434F;}
	.st2{fill:#F1F2F2;}
	.st3{fill:#E6E7E8;}
	.st4{fill:#E3E4E4;}
	.st5{fill:#D1D3D4;}
	.st6{fill:#393E49;}
	.st7{fill:#0C8B90;}
	.st8{fill:#FFFFFF;}
	.st9{fill:#27576D;}
	.st10{fill:#2B5D74;}
	.st11{fill:#2F647D;}
	.st12{fill:#403F44;}
	.st13{fill:#353439;}
	.st14{fill:#3E3D42;}
	.st15{fill:#FBFBFB;}
	.st16{fill:#BCBEC0;}
	.st17{fill:#FF876C;}
	.st18{fill:#F3796A;}
	.st19{fill:#F37368;}
	.st20{fill:#D9DADB;}
	.st21{fill:#C2C4C5;}
	.st22{fill:#2B2F38;}
	.st23{fill:#00B5AC;}
	.st24{fill:#343943;}
	.st25{fill:#262A33;}
	.st26{fill:#C3EBF3;}
	.st27{opacity:0.3;fill:#FF876C;enable-background:new    ;}
	.st28{opacity:0.3;fill:#A7A9AC;enable-background:new    ;}
	.st29{opacity:0.2;fill:#FF876C;enable-background:new    ;}
	.st30{opacity:0.2;fill:#C85B55;enable-background:new    ;}
	.st31{fill:#1F232C;}
</style>
<g id="Group_18800" transform="translate(154.663 1884.031)">
	<g id="Group_18756" transform="translate(152.832 63.178)">
		<g id="Group_18754" transform="translate(0)">
			<path id="Path_51505" class="st0" d="M102.2-1902.7c0-5.6-4-10.2-8.9-10.2h-281.3c-4.9,0-8.9,4.6-8.9,10.2v165h299.2
				L102.2-1902.7z"/>
			<path id="Path_51506" class="st1" d="M82.5-1887.2c0-4.7-3.5-8.5-7.8-8.5h-244.3c-4.3,0-7.8,3.8-7.8,8.5v136.6H82.5V-1887.2z"/>
			<path id="Path_51507" class="st2" d="M-197-1737.7v55.9c0,5.7,4,10.2,8.9,10.2H93.3c4.9,0,8.9-4.6,8.9-10.2v-55.9H-197z"/>
			<path id="Path_51508" class="st3" d="M-7.4-1671.6h-78.5l-4,42.6h86.4L-7.4-1671.6z"/>
			<path id="Path_51509" class="st4" d="M-6.9-1666.6h-79.4l0.5-4.9h78.5L-6.9-1666.6z"/>
			<g id="Group_18753" transform="translate(94.249 283.411)">
				<path id="Path_51510" class="st5" d="M-86.8-1905.1c0.3-0.7,0.5-1.5,0.5-2.2c0-3.1-2.5-5.6-5.6-5.6h-99.5
					c-3.1,0-5.6,2.5-5.6,5.6c0,0,0,0,0,0c0,0.8,0.2,1.5,0.5,2.2H-86.8z"/>
			</g>
			<path id="Path_51511" class="st3" d="M-34.6-1707.5c0,6.6-5.4,12-12,12c-6.6,0-12-5.4-12-12c0-6.6,5.4-12,12-12
				C-40-1719.5-34.6-1714.2-34.6-1707.5C-34.6-1707.5-34.6-1707.5-34.6-1707.5z"/>
		</g>
		<g id="Group_18755" transform="translate(19.693 17.284)">
			<path id="Path_51512" class="st6" d="M62.8-1902.4v-2.1c0-4.7-3.5-8.5-7.8-8.5h-244.3c-4.3,0-7.8,3.8-7.8,8.5v135
				C-162.6-1834-63.3-1884.8,62.8-1902.4z"/>
		</g>
	</g>
	<g id="Group_18758" transform="translate(49.653 91.714)">
		<path id="Rectangle_15842" class="st7" d="M-188.4-1912.9h56.5c4.8,0,8.6,3.9,8.6,8.6v18.5c0,4.8-3.9,8.6-8.6,8.6h-56.5
			c-4.8,0-8.6-3.9-8.6-8.6v-18.5C-197-1909.1-193.1-1912.9-188.4-1912.9z"/>
		<g id="Group_18757" transform="translate(13.68 12.108)">
			<path id="Path_51513" class="st8" d="M-189.3-1901.6v-4.6h-5.6v4.6h-2.1v-11.3h2.1v4.8h5.6v-4.8h2.1v11.3H-189.3z"/>
			<path id="Path_51514" class="st8" d="M-181-1911h-3.6v-1.9h9.3v1.9h-3.6v9.4h-2.1V-1911z"/>
			<path id="Path_51515" class="st8" d="M-162.9-1909.8l-3.7,4.9h-0.4l-3.6-4.9v8.2h-2.1v-11.3h2.5l3.5,4.9l3.5-4.9h2.4v11.3h-2.1
				V-1909.8z"/>
			<path id="Path_51516" class="st8" d="M-155.4-1912.9v9.3h5.8v2h-8v-11.3H-155.4z"/>
		</g>
	</g>
	<g id="Group_18760" transform="translate(507.63 147.22)">
		<path id="Rectangle_15843" class="st7" d="M-188.4-1912.9h56.5c4.8,0,8.6,3.9,8.6,8.6v18.5c0,4.8-3.9,8.6-8.6,8.6h-56.5
			c-4.8,0-8.6-3.9-8.6-8.6v-18.5C-197-1909.1-193.1-1912.9-188.4-1912.9z"/>
		<g id="Group_18759" transform="translate(15.198 10.607)">
			<path id="Path_51517" class="st8" d="M-184.9-1900.9c-1.3,1.3-3.2,2-5,2c-4.9,0-7-3.4-7-6.8c-0.2-3.7,2.7-6.8,6.3-7
				c0.2,0,0.5,0,0.7,0c1.8,0,3.6,0.7,4.9,2l-1.7,1.6c-0.9-0.8-2-1.3-3.2-1.3c-2.4-0.1-4.4,1.7-4.6,4.1c0,0.2,0,0.3,0,0.5
				c-0.1,2.3,1.7,4.4,4,4.5c0.2,0,0.4,0,0.6,0c1.2,0,2.4-0.5,3.3-1.3L-184.9-1900.9z"/>
			<path id="Path_51518" class="st8" d="M-173.7-1909.3c-0.7-1-1.9-1.5-3.1-1.5c-1.9,0-2.7,0.8-2.7,1.8c0,1.2,1.4,1.5,3,1.7
				c2.8,0.3,5.3,1.1,5.3,4.2c0,3-2.6,4.2-5.6,4.2c-2.7,0-4.8-0.8-5.8-3.3l2.1-1.1c0.7,1.4,2.2,2.2,3.7,2.1c1.6,0,3-0.5,3-2
				c0-1.3-1.3-1.8-3.1-2c-2.7-0.3-5.2-1-5.2-4c0-2.7,2.7-3.8,5.1-3.9c2.1,0,4.2,0.6,5.2,2.6L-173.7-1909.3z"/>
			<path id="Path_51519" class="st8" d="M-159.8-1909.3c-0.7-1-1.9-1.5-3.1-1.5c-1.9,0-2.7,0.8-2.7,1.8c0,1.2,1.4,1.5,3,1.7
				c2.8,0.3,5.3,1.1,5.3,4.2c0,3-2.6,4.2-5.6,4.2c-2.7,0-4.8-0.8-5.8-3.3l2.1-1.1c0.7,1.4,2.2,2.2,3.7,2.1c1.6,0,3.1-0.5,3.1-2
				c0-1.3-1.3-1.8-3.1-2c-2.7-0.3-5.2-1-5.2-4c0-2.7,2.7-3.8,5.1-3.9c2.1,0,4.2,0.6,5.2,2.6L-159.8-1909.3z"/>
		</g>
	</g>
	<g id="Group_18762" transform="translate(469.871 45.307)">
		<path id="Rectangle_15844" class="st7" d="M-188.4-1912.9h56.5c4.8,0,8.6,3.9,8.6,8.6v18.5c0,4.8-3.9,8.6-8.6,8.6h-56.5
			c-4.8,0-8.6-3.9-8.6-8.6v-18.5C-197-1909.1-193.1-1912.9-188.4-1912.9z"/>
		<g id="Group_18761" transform="translate(12.109 11.864)">
			<path id="Path_51520" class="st8" d="M-187.1-1906.4c0.2,2.6-1.8,4.9-4.4,5.1c-0.2,0-0.4,0-0.6,0c-2.5,0.2-4.8-1.7-5-4.2
				c0-0.2,0-0.5,0-0.7h2.1c0,1.9,0.9,2.9,2.9,2.9c1.9,0,2.8-1.3,2.8-3.1v-4.5h-3.4v-2h5.6L-187.1-1906.4z"/>
			<path id="Path_51521" class="st8" d="M-175.8-1903.7h-5.9l-1,2.1h-2.3l5.1-11.3h2.3l5.1,11.3h-2.3L-175.8-1903.7z M-178.8-1910.6
				l-2.1,4.8h4.2L-178.8-1910.6z"/>
			<path id="Path_51522" class="st8" d="M-166-1901.6h-2.2l-4.7-11.4h2.4l3.4,8.8l3.4-8.8h2.4L-166-1901.6z"/>
			<path id="Path_51523" class="st8" d="M-150.8-1903.7h-5.9l-1,2.1h-2.3l5.1-11.3h2.3l5.1,11.3h-2.3L-150.8-1903.7z M-153.7-1910.6
				l-2.1,4.8h4.2L-153.7-1910.6z"/>
		</g>
	</g>
	<g id="Group_18777" transform="translate(506.724 248.801)">
		<g id="Group_18775" transform="translate(11.889)">
			<g id="Group_18766" transform="translate(10.209 1.386)">
				<g id="Group_18765">
					<g id="Group_18763" transform="translate(0 14.473)">
						<path id="Path_51524" class="st9" d="M-189.9-1912.9l14.6,81.5l-2.3,0.3l-14.6-81.4L-189.9-1912.9z"/>
						<path id="Path_51525" class="st10" d="M-192.2-1912.6l14.6,81.4l-2.4,0.3l-14.6-81.5L-192.2-1912.6z"/>
						<path id="Path_51526" class="st11" d="M-197-1911.9l2.3-0.3l14.6,81.5l-2.3,0.3L-197-1911.9z"/>
					</g>
					<g id="Group_18764" transform="translate(0)">
						<path id="Path_51527" class="st12" d="M-196.5-1906.9l0.3-6.1l2.4,5.7C-194.5-1906.7-195.5-1906.6-196.5-1906.9z"/>
						<path id="Path_51528" class="st8" d="M-193.7-1907.3l3.8,8.8l-7.1,1l0.5-9.4C-195.5-1906.6-194.5-1906.7-193.7-1907.3z"/>
					</g>
					<path id="Path_51529" class="st8" d="M-182-1813.8l7.1-1l-0.4-2.2l-7.1,1L-182-1813.8z"/>
					<path id="Path_51530" class="st13" d="M-180.5-1805.5l7.1-1l-1.5-8.3l-7.1,1L-180.5-1805.5z"/>
				</g>
				<path id="Path_51531" class="st14" d="M-173.4-1806.5l-1.5-8.3l-2.2,0.3l1.5,8.3L-173.4-1806.5z"/>
				<path id="Path_51532" class="st15" d="M-175.3-1817l0.4,2.2l-2.2,0.3l-0.4-2.2L-175.3-1817z"/>
			</g>
			<g id="Group_18770" transform="translate(16.085 0.353)">
				<g id="Group_18769">
					<g id="Group_18767" transform="translate(0.914 14.875)">
						<path id="Path_51533" class="st3" d="M-182.8-1912.4l-7.1,82.2l-2.4-0.2l7.1-82.2L-182.8-1912.4z"/>
						<path id="Path_51534" class="st5" d="M-185.1-1912.6l-7.1,82.2l-2.5-0.2l7.1-82.2L-185.1-1912.6z"/>
						<path id="Path_51535" class="st16" d="M-189.9-1912.9l2.4,0.2l-7.1,82.2l-2.4-0.2L-189.9-1912.9z"/>
					</g>
					<g id="Group_18768" transform="translate(7.989)">
						<path id="Path_51536" class="st12" d="M-194-1907.1l1.9-5.8l0.9,6C-192.1-1906.6-193.2-1906.6-194-1907.1z"/>
						<path id="Path_51537" class="st8" d="M-191.2-1906.9l1.4,9.4l-7.2-0.5l3-9.1C-193.2-1906.6-192.1-1906.6-191.2-1906.9z"/>
					</g>
					<path id="Path_51538" class="st8" d="M-196.3-1813.6l7.2,0.5l0.2-2.3l-7.2-0.5L-196.3-1813.6z"/>
					<path id="Path_51539" class="st13" d="M-197-1805.2l7.2,0.5l0.7-8.4l-7.2-0.5L-197-1805.2z"/>
				</g>
				<path id="Path_51540" class="st14" d="M-189.8-1804.7l0.7-8.4l-2.2-0.1l-0.7,8.4L-189.8-1804.7z"/>
				<path id="Path_51541" class="st15" d="M-188.9-1815.3l-0.2,2.3l-2.2-0.1l0.2-2.2L-188.9-1815.3z"/>
			</g>
			<g id="Group_18774">
				<g id="Group_18773">
					<g id="Group_18771" transform="translate(0 14.347)">
						<path id="Path_51542" class="st17" d="M-189.9-1912.9l16.6,81.1l-2.3,0.4l-16.6-81.1L-189.9-1912.9z"/>
						<path id="Path_51543" class="st18" d="M-192.3-1912.6l16.6,81.1l-2.4,0.4l-16.6-81.1L-192.3-1912.6z"/>
						<path id="Path_51544" class="st19" d="M-197-1911.8l2.3-0.4l16.6,81.1l-2.3,0.4L-197-1911.8z"/>
					</g>
					<g id="Group_18772">
						<path id="Path_51545" class="st12" d="M-196.7-1906.9l0.2-6.1l2.6,5.6C-194.8-1906.8-195.8-1906.6-196.7-1906.9z"/>
						<path id="Path_51546" class="st8" d="M-193.9-1907.3l4,8.7l-7.1,1.1l0.3-9.4C-195.8-1906.6-194.8-1906.8-193.9-1907.3z"/>
					</g>
					<path id="Path_51547" class="st8" d="M-179.9-1814.1l7.1-1.1l-0.5-2.2l-7.1,1.1L-179.9-1814.1z"/>
					<path id="Path_51548" class="st13" d="M-178.2-1805.8l7.1-1.1l-1.7-8.3l-7.1,1.1L-178.2-1805.8z"/>
				</g>
				<path id="Path_51549" class="st14" d="M-171.1-1807l-1.7-8.3l-2.2,0.3l1.7,8.3L-171.1-1807z"/>
				<path id="Path_51550" class="st15" d="M-173.3-1817.4l0.5,2.2l-2.2,0.3l-0.5-2.2L-173.3-1817.4z"/>
			</g>
		</g>
		<g id="Group_18776" transform="translate(0 56.122)">
			<rect id="Rectangle_15845" x="-197" y="-1912.9" class="st2" width="60.9" height="7.9"/>
			<rect id="Rectangle_15846" x="-191.6" y="-1905" class="st4" width="50.2" height="49.6"/>
			<rect id="Rectangle_15847" x="-191.6" y="-1905" class="st20" width="50.2" height="2.3"/>
		</g>
	</g>
	<g id="Group_18786" transform="translate(199.047 28.9)">
		<g id="Group_18781" transform="translate(0)">
			<g id="Group_18780">
				<g id="Group_18779">
					<g id="Group_18778">
						<rect id="Rectangle_15848" x="-197" y="-1888.3" class="st8" width="203.8" height="172"/>
						<path id="Path_51551" class="st5" d="M6.8-1902.7c0-5.6-4.6-10.2-10.2-10.2c0,0,0,0,0,0h-183.3c-5.6,0-10.2,4.6-10.2,10.2v0.4
							H6.8V-1902.7z"/>
						<rect id="Rectangle_15849" x="-197" y="-1902.3" class="st3" width="203.8" height="14"/>
					</g>
					<path id="Path_51552" class="st8" d="M-173.9-1892.9c0.1,0.6,0.6,1,1.2,0.9h154.9c0.6,0.1,1.1-0.4,1.2-0.9v-4.9
						c-0.1-0.6-0.6-1-1.2-0.9h-154.9c-0.6-0.1-1.1,0.4-1.2,0.9L-173.9-1892.9z"/>
					<path id="Path_51553" class="st21" d="M-188-1907.6c0,0.8-0.7,1.5-1.5,1.5s-1.5-0.7-1.5-1.5s0.7-1.5,1.5-1.5
						C-188.6-1909.1-188-1908.5-188-1907.6z"/>
					<path id="Path_51554" class="st21" d="M-183.8-1907.6c0,0.8-0.7,1.5-1.5,1.5s-1.5-0.7-1.5-1.5s0.7-1.5,1.5-1.5
						C-184.5-1909.1-183.8-1908.5-183.8-1907.6z"/>
					<path id="Path_51555" class="st21" d="M-179.6-1907.6c0,0.8-0.7,1.5-1.5,1.5c-0.8,0-1.5-0.7-1.5-1.5c0-0.8,0.7-1.5,1.5-1.5
						C-180.3-1909.1-179.6-1908.5-179.6-1907.6z"/>
					<path id="Rectangle_15850" class="st5" d="M-191.5-1897.9h4c0.5,0,0.9,0.4,0.9,0.9v3.4c0,0.5-0.4,0.9-0.9,0.9l0,0h-4
						c-0.5,0-0.9-0.4-0.9-0.9c0,0,0,0,0,0v-3.4C-192.4-1897.5-192-1897.9-191.5-1897.9z"/>
					<path id="Rectangle_15851" class="st5" d="M-182.6-1898.1h4c0.5,0,0.9,0.4,0.9,0.9c0,0,0,0,0,0v3.4c0,0.5-0.4,0.9-0.9,0.9
						c0,0,0,0,0,0h-4c-0.5,0-0.9-0.4-0.9-0.9c0,0,0,0,0,0v-3.4C-183.5-1897.7-183.1-1898.1-182.6-1898.1z"/>
					<path id="Rectangle_15852" class="st5" d="M-11.8-1897.9h4c0.5,0,0.9,0.4,0.9,0.9v3.4c0,0.5-0.4,0.9-0.9,0.9l0,0h-4
						c-0.5,0-0.9-0.4-0.9-0.9c0,0,0,0,0,0v-3.4C-12.7-1897.5-12.3-1897.9-11.8-1897.9z"/>
					<path id="Rectangle_15853" class="st5" d="M-3.1-1897.9h4c0.5,0,0.9,0.4,0.9,0.9c0,0,0,0,0,0v3.4c0,0.5-0.4,0.9-0.9,0.9l0,0h-4
						c-0.5,0-0.9-0.4-0.9-0.9c0,0,0,0,0,0v-3.4C-4-1897.5-3.6-1897.9-3.1-1897.9z"/>
				</g>
			</g>
		</g>
		<g id="Group_18870" transform="translate(11.461 36.417)">
			<g id="Group_18834" transform="translate(107.178 131.836)">
				<path id="Path_51625" class="st17" d="M-175.7-1911h-19.4c-1,0-1.9-0.4-1.9-1c0-0.5,0.8-1,1.9-1h19.4c1,0,1.9,0.4,1.9,1
					C-173.8-1911.4-174.7-1911-175.7-1911z"/>
			</g>
			<g id="Group_18835" transform="translate(137.343 131.836)">
				<path id="Path_51626" class="st22" d="M-173.2-1911h-21.9c-1,0-1.9-0.4-1.9-1c0-0.5,0.8-1,1.9-1h21.9c1,0,1.9,0.4,1.9,1
					C-171.3-1911.4-172.2-1911-173.2-1911z"/>
			</g>
			<g id="Group_18836" transform="translate(107.178 139.84)">
				<path id="Path_51627" class="st22" d="M-120.6-1911h-74.6c-1,0-1.9-0.4-1.9-1c0-0.5,0.8-1,1.9-1h74.6c1,0,1.9,0.4,1.9,1
					C-118.7-1911.4-119.5-1911-120.6-1911z"/>
			</g>
			<g id="Group_18837" transform="translate(107.178 148.374)">
				<path id="Path_51628" class="st23" d="M-157.8-1911h-37.3c-1,0-1.9-0.4-1.9-1s0.8-1,1.9-1h37.3c1,0,1.9,0.4,1.9,1
					S-156.8-1911-157.8-1911z"/>
			</g>
			<g id="Group_18838" transform="translate(155.711 148.374)">
				<path id="Path_51629" class="st17" d="M-183.9-1911h-11.2c-1,0-1.9-0.4-1.9-1s0.8-1,1.9-1h11.2c1,0,1.9,0.4,1.9,1
					S-182.9-1911-183.9-1911z"/>
			</g>
			<g id="Group_18839" transform="translate(63.654 149.082)">
				<path id="Path_51630" class="st22" d="M-195.1-1912.9h19.4c1,0,1.9,0.4,1.9,1s-0.8,1-1.9,1h-19.4c-1,0-1.9-0.4-1.9-1
					S-196.2-1912.9-195.1-1912.9z"/>
			</g>
			<g id="Group_18840" transform="translate(30.987 149.082)">
				<path id="Path_51631" class="st17" d="M-195.1-1912.9h21.9c1,0,1.9,0.4,1.9,1s-0.8,1-1.9,1h-21.9c-1,0-1.9-0.4-1.9-1
					S-196.2-1912.9-195.1-1912.9z"/>
			</g>
			<g id="Group_18841" transform="translate(8.526 141.078)">
				<path id="Path_51632" class="st23" d="M-195.1-1912.9h74.6c1,0,1.9,0.4,1.9,1c0,0.5-0.8,1-1.9,1h-74.6c-1,0-1.9-0.4-1.9-1
					C-197-1912.5-196.2-1912.9-195.1-1912.9z"/>
			</g>
			<g id="Group_18842" transform="translate(45.811 132.547)">
				<path id="Path_51633" class="st22" d="M-195.1-1912.9h37.3c1,0,1.9,0.4,1.9,1s-0.8,1-1.9,1h-37.3c-1,0-1.9-0.4-1.9-1
					S-196.2-1912.9-195.1-1912.9z"/>
			</g>
			<g id="Group_18843" transform="translate(23.328 132.547)">
				<path id="Path_51634" class="st22" d="M-195.1-1912.9h11.2c1,0,1.9,0.4,1.9,1s-0.8,1-1.9,1h-11.2c-1,0-1.9-0.4-1.9-1
					S-196.2-1912.9-195.1-1912.9z"/>
			</g>
			<g id="Group_18844" transform="translate(15.576 86.099)">
				<path id="Path_51635" class="st17" d="M-133.6-1911h-61.5c-1,0-1.9-0.4-1.9-1c0-0.5,0.8-1,1.9-1h61.5c1,0,1.9,0.4,1.9,1
					S-132.6-1911-133.6-1911z"/>
			</g>
			<g id="Group_18845" transform="translate(87.066 86.099)">
				<path id="Path_51636" class="st22" d="M-114.2-1911h-80.9c-1,0-1.9-0.4-1.9-1c0-0.5,0.8-1,1.9-1h80.9c1,0,1.9,0.4,1.9,1
					S-113.2-1911-114.2-1911z"/>
			</g>
			<g id="Group_18846" transform="translate(0.004 96.525)">
				<path id="Path_51637" class="st22" d="M-78.2-1911h-116.9c-1,0-1.9-0.4-1.9-1s0.8-1,1.9-1h116.9c1,0,1.9,0.4,1.9,1
					S-77.2-1911-78.2-1911z"/>
			</g>
			<g id="Group_18847" transform="translate(127.52 96.525)">
				<path id="Path_51638" class="st23" d="M-140.9-1911h-54.2c-1,0-1.9-0.4-1.9-1s0.8-1,1.9-1h54.2c1,0,1.9,0.4,1.9,1
					S-139.9-1911-140.9-1911z"/>
			</g>
			<g id="Group_18848" transform="translate(0.004 108.171)">
				<path id="Path_51639" class="st22" d="M-151.2-1911h-43.9c-1,0-1.9-0.4-1.9-1s0.8-1,1.9-1h43.9c1,0,1.9,0.4,1.9,1
					C-149.3-1911.4-150.2-1911-151.2-1911z"/>
			</g>
			<g id="Group_18849" transform="translate(56.195 108.171)">
				<path id="Path_51640" class="st17" d="M-112.5-1911h-82.7c-1,0-1.9-0.4-1.9-1s0.8-1,1.9-1h82.7c1,0,1.9,0.4,1.9,1
					C-110.6-1911.4-111.4-1911-112.5-1911z"/>
			</g>
			<g id="Group_18850" transform="translate(149.079 108.171)">
				<path id="Path_51641" class="st22" d="M-179.3-1911h-15.8c-1,0-1.9-0.4-1.9-1s0.8-1,1.9-1h15.8c1,0,1.9,0.4,1.9,1
					C-177.4-1911.4-178.3-1911-179.3-1911z"/>
			</g>
			<g id="Group_18851" transform="translate(15.576)">
				<path id="Path_51642" class="st17" d="M-133.6-1911h-61.5c-1,0-1.9-0.4-1.9-1s0.8-1,1.9-1h61.5c1,0,1.9,0.4,1.9,1
					S-132.6-1911-133.6-1911z"/>
			</g>
			<g id="Group_18852" transform="translate(87.066)">
				<path id="Path_51643" class="st22" d="M-114.2-1911h-80.9c-1,0-1.9-0.4-1.9-1s0.8-1,1.9-1h80.9c1,0,1.9,0.4,1.9,1
					S-113.2-1911-114.2-1911z"/>
			</g>
			<g id="Group_18853" transform="translate(0 11.466)">
				<path id="Path_51644" class="st22" d="M-78.2-1911h-116.9c-1,0-1.9-0.4-1.9-1s0.8-1,1.9-1h116.9c1,0,1.9,0.4,1.9,1
					C-76.3-1911.4-77.2-1911-78.2-1911z"/>
			</g>
			<g id="Group_18854" transform="translate(127.516 11.466)">
				<path id="Path_51645" class="st23" d="M-140.9-1911h-54.2c-1,0-1.9-0.4-1.9-1s0.8-1,1.9-1h54.2c1,0,1.9,0.4,1.9,1
					C-139-1911.4-139.9-1911-140.9-1911z"/>
			</g>
			<g id="Group_18855" transform="translate(0 24.27)">
				<path id="Path_51646" class="st22" d="M-151.2-1911h-43.9c-1,0-1.9-0.4-1.9-1c0-0.5,0.8-1,1.9-1h43.9c1,0,1.9,0.4,1.9,1
					S-150.2-1911-151.2-1911z"/>
			</g>
			<g id="Group_18856" transform="translate(56.192 24.27)">
				<path id="Path_51647" class="st17" d="M-112.5-1911h-82.7c-1,0-1.9-0.4-1.9-1c0-0.5,0.8-1,1.9-1h82.7c1,0,1.9,0.4,1.9,1
					S-111.4-1911-112.5-1911z"/>
			</g>
			<g id="Group_18857" transform="translate(149.079 24.27)">
				<path id="Path_51648" class="st22" d="M-179.3-1911h-15.8c-1,0-1.9-0.4-1.9-1c0-0.5,0.8-1,1.9-1h15.8c1,0,1.9,0.4,1.9,1
					S-178.3-1911-179.3-1911z"/>
			</g>
			<g id="Group_18858" transform="translate(0.004 119.812)">
				<path id="Path_51649" class="st23" d="M-185.4-1911h-9.7c-1,0-1.9-0.4-1.9-1c0-0.5,0.8-1,1.9-1h9.7c1,0,1.9,0.4,1.9,1
					C-183.5-1911.4-184.4-1911-185.4-1911z"/>
			</g>
			<g id="Group_18859" transform="translate(21.974 119.812)">
				<path id="Path_51650" class="st22" d="M-98.1-1911h-97c-1,0-1.9-0.4-1.9-1c0-0.5,0.8-1,1.9-1h97c1,0,1.9,0.4,1.9,1
					C-96.3-1911.4-97.1-1911-98.1-1911z"/>
			</g>
			<g id="Group_18860" transform="translate(130.704 119.812)">
				<path id="Path_51651" class="st17" d="M-144.1-1911h-51c-1,0-1.9-0.4-1.9-1c0-0.5,0.8-1,1.9-1h51c1,0,1.9,0.4,1.9,1
					C-142.2-1911.4-143.1-1911-144.1-1911z"/>
			</g>
			<g id="Group_18861" transform="translate(140.611 72.755)">
				<path id="Path_51652" class="st22" d="M-195.1-1912.9h25.6c1,0,1.9,0.4,1.9,1c0,0.5-0.8,1-1.9,1h-25.6c-1,0-1.9-0.4-1.9-1
					C-197-1912.5-196.2-1912.9-195.1-1912.9z"/>
			</g>
			<g id="Group_18862" transform="translate(13.781 72.755)">
				<path id="Path_51653" class="st23" d="M-195.1-1912.9h115.9c1,0,1.9,0.4,1.9,1c0,0.5-0.8,1-1.9,1h-115.9c-1,0-1.9-0.4-1.9-1
					C-197-1912.5-196.2-1912.9-195.1-1912.9z"/>
			</g>
			<g id="Group_18863" transform="translate(2.042 49.469)">
				<path id="Path_51654" class="st17" d="M-176.5-1911h-18.6c-1,0-1.9-0.4-1.9-1c0-0.5,0.8-1,1.9-1h18.6c1,0,1.9,0.4,1.9,1
					C-174.6-1911.4-175.5-1911-176.5-1911z"/>
			</g>
			<g id="Group_18864" transform="translate(30.401 49.469)">
				<path id="Path_51655" class="st22" d="M-120.3-1911h-74.8c-1,0-1.9-0.4-1.9-1c0-0.5,0.8-1,1.9-1h74.8c1,0,1.9,0.4,1.9,1
					C-118.5-1911.4-119.3-1911-120.3-1911z"/>
			</g>
			<g id="Group_18865" transform="translate(118.974 49.469)">
				<path id="Path_51656" class="st23" d="M-132.4-1911h-62.8c-1,0-1.9-0.4-1.9-1c0-0.5,0.8-1,1.9-1h62.8c1,0,1.9,0.4,1.9,1
					C-130.5-1911.4-131.3-1911-132.4-1911z"/>
			</g>
			<g id="Group_18866" transform="translate(2.042 61.841)">
				<path id="Path_51657" class="st22" d="M-50.1-1911h-145c-1,0-1.9-0.4-1.9-1c0-0.5,0.8-1,1.9-1h145c1,0,1.9,0.4,1.9,1
					S-49.1-1911-50.1-1911z"/>
			</g>
			<g id="Group_18867" transform="translate(158.274 61.841)">
				<path id="Path_51658" class="st17" d="M-171.7-1911h-23.5c-1,0-1.9-0.4-1.9-1c0-0.5,0.8-1,1.9-1h23.5c1,0,1.9,0.4,1.9,1
					S-170.6-1911-171.7-1911z"/>
			</g>
			<g id="Group_18868" transform="translate(149.03 36.617)">
				<path id="Path_51659" class="st17" d="M-195.1-1912.9h32.7c1,0,1.9,0.4,1.9,1c0,0.5-0.8,1-1.9,1h-32.7c-1,0-1.9-0.4-1.9-1
					S-196.2-1912.9-195.1-1912.9z"/>
			</g>
			<g id="Group_18869" transform="translate(2.042 36.617)">
				<path id="Path_51660" class="st23" d="M-195.1-1912.9h135.8c1,0,1.9,0.4,1.9,1c0,0.5-0.8,1-1.9,1h-135.8c-1,0-1.9-0.4-1.9-1
					S-196.2-1912.9-195.1-1912.9z"/>
			</g>
		</g>
	</g>
	<g id="Group_18792" transform="translate(417.806 201.053)">
		<g id="Group_18790" transform="translate(0 0)">
			<g id="Group_18789">
				<g id="Group_18788">
					<g id="Group_18787">
						<path id="Path_51556" class="st24" d="M-101.8-1908.8c0-2.3-1.9-4.2-4.2-4.2c0,0,0,0,0,0h-86.8c-2.3,0-4.2,1.9-4.2,4.2v22.6
							h95.2L-101.8-1908.8z"/>
						<path id="Path_51557" class="st24" d="M-197-1754.5c0,2.3,1.9,4.2,4.1,4.2c0,0,0,0,0,0h86.8c2.3,0,4.2-1.9,4.2-4.2
							c0,0,0,0,0,0v-29.6H-197V-1754.5z"/>
						<rect id="Rectangle_15877" x="-197" y="-1886.1" class="st8" width="95.2" height="102.1"/>
					</g>
					<path id="Path_51558" class="st25" d="M-141.6-1766.5c0,3.8-3.1,6.9-6.9,6.9c-3.8,0-6.9-3.1-6.9-6.9s3.1-6.9,6.9-6.9
						c0,0,0,0,0,0C-144.7-1773.4-141.6-1770.3-141.6-1766.5z"/>
					<path id="Path_51559" class="st25" d="M-130.5-1900.7c0,1.4-1.1,2.5-2.5,2.5h-33.7c-1.4,0-2.5-1.1-2.5-2.5l0,0
						c0-1.4,1.1-2.5,2.5-2.5h33.7C-131.6-1903.2-130.5-1902.1-130.5-1900.7z"/>
				</g>
			</g>
		</g>
		<rect id="Rectangle_15878" x="-192.7" y="-1882.5" class="st26" width="85.9" height="29.3"/>
		<rect id="Rectangle_15879" x="-197" y="-1849.4" class="st27" width="95.1" height="35.6"/>
		<rect id="Rectangle_15880" x="-192.7" y="-1810.6" class="st28" width="40.4" height="22.6"/>
		<rect id="Rectangle_15881" x="-147.2" y="-1810.6" class="st28" width="40.4" height="22.6"/>
		<g id="Group_18791" transform="translate(5.494 75.717)">
			<rect id="Rectangle_15882" x="-197" y="-1912.9" class="st29" width="24.7" height="2.8"/>
			<rect id="Rectangle_15883" x="-197" y="-1908.7" class="st30" width="29" height="1.5"/>
			<rect id="Rectangle_15884" x="-197" y="-1905.6" class="st30" width="17.8" height="1.5"/>
			<rect id="Rectangle_15885" x="-177.7" y="-1905.6" class="st30" width="8" height="1.5"/>
		</g>
		<rect id="Rectangle_15886" x="-115.4" y="-1835.4" class="st29" width="8.7" height="7.6"/>
	</g>
	<g id="Group_18797" transform="translate(42.337 158.343)">
		<g id="Group_18795" transform="translate(0 0)">
			<g id="Group_18793">
				<path id="Path_51560" class="st24" d="M-197-1724.2c0,4.8,3.9,8.8,8.8,8.8c0,0,0,0,0,0h119.1c4.8,0,8.8-3.9,8.8-8.8v-22.5H-197
					V-1724.2z"/>
				<rect id="Rectangle_15887" x="-197" y="-1889.7" class="st8" width="136.6" height="143"/>
				<path id="Path_51561" class="st24" d="M-60.4-1904.2c0-4.8-3.9-8.8-8.8-8.8h-119.1c-4.8,0-8.8,3.9-8.8,8.8v14.5h136.6V-1904.2z"
					/>
			</g>
			<g id="Group_18794" transform="translate(55.282 9.832)">
				<path id="Path_51562" class="st25" d="M-172.7-1909.4h-22.5c-1,0-1.8-0.8-1.8-1.8c0-1,0.8-1.8,1.8-1.8l0,0h22.5
					c1,0,1.8,0.8,1.8,1.8C-170.9-1910.2-171.7-1909.4-172.7-1909.4z"/>
			</g>
			<path id="Path_51563" class="st25" d="M-122.6-1732.5c0,3.4-2.7,6.1-6.1,6.1s-6.1-2.7-6.1-6.1c0-3.4,2.7-6.1,6.1-6.1c0,0,0,0,0,0
				C-125.3-1738.6-122.6-1735.8-122.6-1732.5z"/>
		</g>
		<rect id="Rectangle_15888" x="-190.8" y="-1885.5" class="st26" width="123.7" height="42.2"/>
		<rect id="Rectangle_15889" x="-197" y="-1837.9" class="st27" width="136.6" height="51.2"/>
		<rect id="Rectangle_15890" x="-190.8" y="-1782" class="st28" width="58.2" height="32.6"/>
		<rect id="Rectangle_15891" x="-125.3" y="-1782" class="st28" width="58.2" height="32.6"/>
		<g id="Group_18796" transform="translate(7.906 92.584)">
			<rect id="Rectangle_15892" x="-197" y="-1912.9" class="st29" width="35.5" height="4.1"/>
			<rect id="Rectangle_15893" x="-197" y="-1906.9" class="st30" width="41.8" height="2.1"/>
			<rect id="Rectangle_15894" x="-197" y="-1902.3" class="st30" width="25.7" height="2.1"/>
			<rect id="Rectangle_15895" x="-169.2" y="-1902.3" class="st30" width="11.5" height="2.1"/>
		</g>
		<rect id="Rectangle_15896" x="-79.6" y="-1817.7" class="st29" width="12.5" height="11"/>
	</g>
	<g id="Group_18798" transform="translate(178.957 225.538)">
		<rect id="Rectangle_15897" x="-197" y="-1912.9" class="st31" width="4.3" height="12.9"/>
		<rect id="Rectangle_15898" x="-197" y="-1900.1" class="st4" width="4.3" height="66.2"/>
	</g>
	<g id="Group_18799" transform="translate(413.506 225.483)">
		<rect id="Rectangle_15899" x="-197" y="-1912.9" class="st31" width="4.3" height="12.9"/>
		<rect id="Rectangle_15900" x="-197" y="-1900.1" class="st4" width="4.3" height="66.2"/>
	</g>
</g>
</svg>
