<svg xmlns="http://www.w3.org/2000/svg" width="498.368" height="224.632" viewBox="0 0 498.368 224.632">
  <g id="Group_18746" data-name="Group 18746" transform="translate(-1310.359 -673.824)">
    <path id="Path_51486" data-name="Path 51486" d="M1388.576,1227.3s21.55-73.674.6-96.865c0,0-7.86-4.625-9.148,6.638s-16.31,36.739-25.812,33.35c0,0-3.9-.666-.524-4.623s30.368-61.614,2.419-97.672c0,0-8.72-11.569-9.827,2.581s-2.964,36.78-16.968,45.6c0,0-9.355,5.508-5.281-4.7s22.429-56.273-9.442-81.657c0,0-12.453-9.011-9.924,9.538s-11.249,39.356-17.251,38.22,20.662-30.112-20.185-63.138c0,0-17.458-13.6-29.063-11.417,0,0-35.986,32.978,4.557,71.508,0,0,1.612,3.417-2.566,3.382s-27.048-9.3-33.32-28.375-18.629,16.678-13.878,31.43,14.5,31.528,47.983,48.554c0,0,3.434,5.324-3.9,4.294s-29.574-2.025-44.6-29.813-24.517,18.777-12.255,35.035c43.165,57.229-8.2,39.565-3.755,87.823" transform="translate(273.384 -329.084)" fill="#0e6c75"/>
    <path id="Path_51487" data-name="Path 51487" d="M1320.046,1191.464s3.542-46.383-22.565-61.606c0,0-8.6-1.958-6.483,8.8s-4.255,38.634-14,38.3c0,0-3.793.531-1.839-4.105s9.912-65.679-26.414-90.706c0,0-11.427-8.1-8.3,5.26s8.056,34.758-2.261,46.988c0,0-7.007,7.819-6.247-2.784s4.163-58.429-32.646-72.474c0,0-14.119-4.65-6.346,11.7s1.175,39.561-4.689,40.276,10.207-33.805-37.115-52.259c0,0-20.075-7.413-30.127-2,0,0-23.486,40.941,25.17,64.553,0,0,2.487,2.677-1.372,3.868s-27.65-.637-39.022-16.373-12.274,20.83-3.571,33.03,22.607,24.8,58.453,30.668c0,0,4.724,3.9-2.339,5.1s-27.844,6.806-49.838-14.391c-19.836-19.116-19,12.463-6.928,28.338" transform="translate(217.402 -293.435)" fill="#29cb97"/>
    <path id="Path_51488" data-name="Path 51488" d="M1261.684,1210.224s-13.909-60.7,9.273-80.084c0,0,8.148-3.372,7.868,7.587s10.677,37.373,20.232,35.406c0,0,3.827-.113,1.123-4.355s-20.793-63.084,10.819-93.853c0,0,9.905-9.905,9.062,3.793s-2.107,35.616,10.116,45.943c0,0,8.219,6.533,5.69-3.793s-13.909-56.9,20.021-76.923c0,0,13.137-6.955,8.219,10.467s5.479,39.2,11.38,38.919-15.735-31.612,27.819-57.745c0,0,18.546-10.679,29.365-7.026,0,0,.421,16.157,7.305,18.406s13.277,30.487-21.286,49.455c0,0-2,3.057,2,3.583s27.151-5.269,35.721-22.69,15.6,18.475,9.062,31.963-18.124,28.24-52.476,40.042c0,0-4,4.636,3.161,4.636s28.591,2.037,46.715-22.55,20.3,20.653,7.026,35.195-22.55,24.025-68.072,31.823c0,0-8.851,6.218.739,6.322s26.448,7.305,55.671-12.5c0,0,17.141-14.331,14.191,6.744a14.9,14.9,0,0,1-6.462,11.24" transform="translate(330.308 -312.01)" fill="#29cb97"/>
    <path id="Path_51489" data-name="Path 51489" d="M1301.5,1199.8s79.29-143.968,85.7-156.8" transform="translate(360.46 -301.582)" fill="none" stroke="#2e4354" stroke-miterlimit="10" stroke-width="1"/>
    <path id="Path_51490" data-name="Path 51490" d="M1331.221,1085.488s37.281,19.277,62.57-8.821" transform="translate(380.848 -276.487)" fill="none" stroke="#2e4354" stroke-miterlimit="10" stroke-width="1"/>
    <path id="Path_51491" data-name="Path 51491" d="M1337.205,1114.963S1307,1089.53,1312.617,1053" transform="translate(367.608 -292.722)" fill="none" stroke="#2e4354" stroke-miterlimit="10" stroke-width="1"/>
    <path id="Path_51492" data-name="Path 51492" d="M1314.912,1114.443s60.844,29.305,98.5-6.943" transform="translate(369.66 -255.336)" fill="none" stroke="#2e4354" stroke-miterlimit="10" stroke-width="1"/>
    <path id="Path_51493" data-name="Path 51493" d="M1328.14,1146.782s-42.033-25.271-41.47-70.115" transform="translate(350.283 -276.487)" fill="none" stroke="#2e4354" stroke-miterlimit="10" stroke-width="1"/>
    <path id="Path_51495" data-name="Path 51495" d="M1209.973,1178.444s-64.074-49.14-84.306-104.777" transform="translate(236.841 -281.545)" fill="none" stroke="#2e4354" stroke-miterlimit="10" stroke-width="1"/>
    <path id="Path_51496" data-name="Path 51496" d="M1152.292,1139.718s25.359-28.77,19.178-63.051" transform="translate(258.106 -276.487)" fill="none" stroke="#2e4354" stroke-miterlimit="10" stroke-width="1"/>
    <path id="Path_51497" data-name="Path 51497" d="M1169.523,1106.244s-33.413,25.777-59.19,0" transform="translate(229.322 -256.198)" fill="none" stroke="#2e4354" stroke-miterlimit="10" stroke-width="1"/>
    <path id="Path_51498" data-name="Path 51498" d="M1170.233,1157.407s35.574-15.18,33.327-64.074" transform="translate(270.413 -265.054)" fill="none" stroke="#2e4354" stroke-miterlimit="10" stroke-width="1"/>
    <path id="Path_51499" data-name="Path 51499" d="M1190.321,1127.647s-40.546,14.083-59.654,14.083" transform="translate(237.271 -247.516)" fill="none" stroke="#2e4354" stroke-miterlimit="10" stroke-width="1"/>
  </g>
</svg>
