<?xml version="1.0" encoding="utf-8"?>
<!-- Generator: Adobe Illustrator 24.1.2, SVG Export Plug-In . SVG Version: 6.00 Build 0)  -->
<svg version="1.1" id="Слой_1" xmlns="http://www.w3.org/2000/svg" xmlns:xlink="http://www.w3.org/1999/xlink" x="0px" y="0px"
	 width="1920.2px" height="230px" viewBox="0 0 1920.2 230" style="enable-background:new 0 0 1920.2 230;" xml:space="preserve">
<style type="text/css">
	.st0{fill:#EFBD7B;}
	.st1{display:none;fill:#FFE13C;}
	.st2{fill-rule:evenodd;clip-rule:evenodd;fill:#66B82B;}
	.st3{fill-rule:evenodd;clip-rule:evenodd;fill:#FFFFFF;}
</style>
<g id="Surfing" transform="translate(1145.057 1199.092)">
	<g id="Group_17582" transform="translate(209.969 608.621)">
		<path id="Path_49842" class="st0" d="M288.6-1641.3c-111.4,0-288.4,63.5-288.4,63.5H553C553-1577.7,401.3-1641.3,288.6-1641.3z"/>
	</g>
</g>
<path id="Path_49864" class="st1" d="M1920.2-231.2v55.4c0,0-13.4,6.1-25.3,5.2c-55.5-4.4-59.9-60.6-59.9-60.6H1920.2z"/>
<path id="Path_42568" class="st2" d="M1810,139.9c-2.8,5.5-4.1,8.2-4.1,8.2l0.5-13.8c-23.4-28.7-34.7-29.7-34-3l8.8,5.2l-10.1,0.2
	c0.6,10.6,0.9,15.9,0.9,15.9l13.1,7.6l-10.6,0.5l5,20.6l12.3,1.6l-11,4.7l40.9,11.5c0,0,2.1-8.3,6.2-25L1810,139.9z"/>
<path id="Path_42569" class="st3" d="M1788.3,129.3c-0.4-0.1-0.8,0.2-0.9,0.6c0,0.1,0,0.3,0,0.4l23.2,65.4l4,0.9l-25.7-66.8
	C1788.8,129.5,1788.6,129.3,1788.3,129.3z"/>
<path id="Path_42570" class="st3" d="M1814.4,155.9c-0.3,0.1-0.5,0.3-0.6,0.5l-8.1,18.6l1.5,2.7c5.4-13.8,8.1-20.7,8.1-20.7
	c0.2-0.4-0.1-0.9-0.5-1C1814.7,155.9,1814.5,155.9,1814.4,155.9L1814.4,155.9z"/>
<path id="Path_42571" class="st3" d="M1779.9,150.3c-0.4-0.2-0.9-0.1-1.1,0.3s-0.1,0.9,0.3,1.1l19.9,10l-0.7-3L1779.9,150.3z"/>
<path id="Path_42572" class="st3" d="M1801.3,131.2c-0.3-0.3-0.8-0.3-1.1,0c-0.1,0.1-0.2,0.2-0.2,0.4c-3.7,12.1-5.5,18.2-5.5,18.2
	l1.7,2.3c3.5-13.5,5.3-20.2,5.3-20.2C1801.6,131.7,1801.5,131.4,1801.3,131.2z"/>
<path id="Path_51500" class="st2" d="M1859.6,155.1c-0.8,6.1-1.2,9.1-1.2,9.1l7.3-11.8c35.4-10.7,45.4-5.2,29.9,16.5l-10.2-0.6
	l8.2,5.8c-6.4,8.5-9.6,12.7-9.6,12.7l-15.1-1l8.5,6.3l-15.6,14.2l-11.1-5.6l6.5,10.1l-40.4-13.3c0,0,2.9-8.1,8.8-24.2L1859.6,155.1z
	"/>
<path id="Path_51501" class="st3" d="M1884.9,159.2c0.4,0.2,0.6,0.6,0.4,1c-0.1,0.1-0.1,0.2-0.3,0.3l-55.9,41.2l-3.8-1.5l58.7-41
	C1884.4,159.1,1884.7,159,1884.9,159.2z"/>
<path id="Path_51502" class="st3" d="M1848.5,166.7c0.2,0.2,0.3,0.5,0.2,0.8l-3.7,19.9l-2.8,1.4c3.3-14.5,4.9-21.7,4.9-21.7
	c0.1-0.4,0.6-0.7,1-0.6C1848.2,166.5,1848.4,166.6,1848.5,166.7z"/>
<path id="Path_51503" class="st3" d="M1880.1,181.3c0.4,0,0.8,0.4,0.7,0.9c0,0.4-0.4,0.8-0.9,0.7l-22.1-2.8l2.2-2.1L1880.1,181.3z"
	/>
<path id="Path_51504" class="st3" d="M1873.1,153.5c0.4-0.1,0.8,0.2,0.9,0.6c0,0.1,0,0.3,0,0.4c-3.7,12.1-5.6,18.1-5.6,18.1l-2.7,1
	c4.6-13.1,6.9-19.7,6.9-19.7C1872.6,153.7,1872.8,153.6,1873.1,153.5z"/>
</svg>
