<?xml version="1.0" encoding="utf-8"?>
<!-- Generator: Adobe Illustrator 24.1.2, SVG Export Plug-In . SVG Version: 6.00 Build 0)  -->
<svg version="1.1" id="Слой_1" xmlns="http://www.w3.org/2000/svg" xmlns:xlink="http://www.w3.org/1999/xlink" x="0px" y="0px"
	 width="573.3px" height="364px" viewBox="0 0 573.3 364" style="enable-background:new 0 0 573.3 364;" xml:space="preserve">
<style type="text/css">
	.st0{fill:#69493B;}
	.st1{fill:#FFECEB;}
	.st2{fill:#D3DDEF;}
	.st3{fill:#8A939F;}
	.st4{fill:#0E755D;}
	.st5{fill:#E4B62C;}
	.st6{fill:#EDF1F7;}
	.st7{fill:#B4D0BE;}
	.st8{fill:#0E6C75;}
	.st9{fill:#D3A09D;}
	.st10{fill:#163F59;}
	.st11{fill:#E9D6B8;}
	.st12{fill:#E2C59C;}
	.st13{fill:#3BB6D5;}
	.st14{fill:url(#Path_38848_1_);}
	.st15{fill:#FFFFFF;}
	.st16{fill:url(#Path_38850_1_);}
</style>
<rect id="Rectangle_15901" x="28.8" y="360.5" class="st0" width="529.2" height="3.5"/>
<path id="Path_51564" class="st1" d="M46,360.5h485.4c0,0,71.3-190.5-6.1-230.4C456.1,94.5,481.4-11.2,384.1,1
	c-97.3,12.2-103.3,48-201.1,40.5C37.5,30.4-52,128.6,33,264.3C54.5,298.6,56.2,333.4,46,360.5z"/>
<g id="Group_18801" transform="translate(4.373 45.445)">
	<path id="Path_51565" class="st2" d="M160.9,287.7c0,0.5-2.2,1-5,1s-5-0.4-5-1s2.2-1,5-1S160.9,287.1,160.9,287.7z"/>
	<path id="Path_51566" class="st2" d="M160.9,315.5c0,0.5-2.2,1-5,1s-5-0.4-5-1s2.2-1,5-1S160.9,315,160.9,315.5z"/>
	<path id="Path_51718" class="st3" d="M151,287.7h10v27.9h-10V287.7z"/>
</g>
<g id="Group_18802" transform="translate(5.8 26.816)">
	<path id="Path_51567" class="st2" d="M154.6,306.4h-0.3c0-0.1,0.1-12.1-3.3-19.5l0.3-0.1C154.7,294.1,154.6,306.2,154.6,306.4z"/>
</g>
<path id="Path_51568" class="st4" d="M155.7,306.3l1.7-1.4c-0.7-2.1-1.6-4-2.8-5.9h-0.9l0.4-0.7c-1-1.4-2-2.8-3.2-4.1
	c0.1,2.6,0.4,5.1,0.9,7.7h1.4l-1.3,0.7c0.2,0.9,0.3,1.8,0.6,2.8l1.6-0.4l-1.4,1.4c1,4.1,2.7,8.2,5.2,10.1c1-3.4,0.9-7-0.1-10.3
	L155.7,306.3z"/>
<g id="Group_18803" transform="translate(9.379 23.326)">
	<path id="Path_51569" class="st2" d="M151,309.9c0-0.1-0.1-14.4,4-23.2l0.3,0.1c-4.1,8.7-4,22.9-4,23L151,309.9z"/>
	<path id="Path_51719" class="st2" d="M152,308.9c0-0.1,3.4-14.4-0.7-23.2l-0.3,0.1c4.1,8.7,0.7,22.9,0.7,23H152z"/>
</g>
<path id="Path_51570" class="st4" d="M165.9,301.3l-2.1-1.7c0.8-2.5,2-4.9,3.4-7.1h1l-0.5-0.9c1.2-1.7,2.5-3.4,3.9-4.9
	c-0.2,3.1-0.5,6.2-1,9.3H169l1.5,0.8c-0.2,1.1-0.4,2.2-0.7,3.4l-2-0.4l1.7,1.7c-1.2,5-3.2,9.9-6.2,12.1c0,0-1.9-5.1,0.1-12.5
	L165.9,301.3z"/>
<path id="Path_51720" class="st4" d="M159.4,303.1l1.3-1c-0.5-1.5-1.2-3-2-4.3H158l0.3-0.5c-0.7-1.1-1.5-2.1-2.4-3
	c0.1,1.9,0.3,3.8,0.6,5.6h1l-0.9,0.5c0.1,0.7,0.3,1.4,0.4,2l1.2-0.3l-1,1c0.8,3,1.9,6,3.8,7.4c0.7-2.5,0.7-5.1-0.1-7.6L159.4,303.1z
	"/>
<path id="Path_51576" class="st5" d="M321.8,81.5h-0.2c-2,0-3.8-1.3-4.5-3.2c-0.3-0.7-0.6-1.4-0.9-2.1c-0.9-1.8-0.5-4,0.9-5.4
	l0.1-0.1c1.9-1.9,1.9-4.9,0-6.7l-3.1-3.1c-1.9-1.9-4.9-1.9-6.7,0c0,0,0,0,0,0l-0.1,0.1c-1.4,1.4-3.6,1.8-5.4,0.9
	c-0.7-0.3-1.4-0.6-2.1-0.9c-1.9-0.7-3.2-2.5-3.2-4.5v-0.2c0-2.6-2.1-4.7-4.7-4.7h-4.4c-2.6,0-4.7,2.1-4.7,4.7c0,0,0,0,0,0v0.2
	c0,2-1.3,3.8-3.2,4.5c-0.7,0.3-1.4,0.6-2.1,0.9c-1.8,0.9-4,0.5-5.4-0.9l-0.1-0.1c-1.9-1.9-4.9-1.9-6.7,0c0,0,0,0,0,0L262,64
	c-1.9,1.9-1.9,4.9,0,6.7c0,0,0,0,0,0l0.1,0.1c1.4,1.4,1.8,3.6,0.9,5.4c-0.3,0.7-0.6,1.4-0.9,2.1c-0.7,1.9-2.5,3.2-4.5,3.2h-0.2
	c-2.6,0-4.7,2.1-4.7,4.7l0,0v4.4c0,2.6,2.1,4.7,4.7,4.7l0,0h0.2c2,0,3.8,1.3,4.5,3.2c0.3,0.7,0.6,1.4,0.9,2.1c0.9,1.8,0.5,4-0.9,5.4
	l-0.1,0.1c-1.9,1.9-1.9,4.9,0,6.7c0,0,0,0,0,0l3.1,3.1c1.9,1.9,4.9,1.9,6.7,0c0,0,0,0,0,0l0.1-0.1c1.4-1.4,3.6-1.8,5.4-0.9
	c0.7,0.3,1.4,0.6,2.1,0.9c1.9,0.7,3.2,2.5,3.2,4.5v0.2c0,2.6,2.1,4.7,4.7,4.7l0,0h4.4c2.6,0,4.7-2.1,4.7-4.7v-0.2
	c0-2,1.3-3.8,3.2-4.5c0.7-0.3,1.4-0.6,2.1-0.9c1.8-0.9,4-0.5,5.4,0.9l0.1,0.1c1.9,1.9,4.9,1.9,6.7,0c0,0,0,0,0,0l3.1-3.1
	c1.9-1.9,1.9-4.9,0-6.7l-0.1-0.1c-1.4-1.4-1.8-3.6-0.9-5.4c0.3-0.7,0.6-1.4,0.9-2.1c0.7-1.9,2.5-3.2,4.5-3.2h0.2
	c2.6,0,4.7-2.1,4.7-4.7l0,0v-4.4C326.5,83.7,324.4,81.5,321.8,81.5L321.8,81.5z M289.6,107.7c-10.6,0-19.2-8.6-19.2-19.2
	s8.6-19.2,19.2-19.2s19.2,8.6,19.2,19.2l0,0C308.8,99.1,300.2,107.7,289.6,107.7L289.6,107.7z"/>
<g id="Group_18813" transform="translate(246.839 110.348)">
	<rect id="Rectangle_15915" x="0" y="0" class="st6" width="13.2" height="2.6"/>
	<rect id="Rectangle_15916" x="42.7" y="6" class="st6" width="10" height="2.6"/>
	<rect id="Rectangle_15917" x="0" y="6" class="st6" width="38.3" height="2.6"/>
	<rect id="Rectangle_15918" x="0" y="12.1" class="st6" width="52.7" height="2.6"/>
	<rect id="Rectangle_15919" x="35.9" y="18.1" class="st6" width="16.7" height="2.6"/>
	<rect id="Rectangle_15920" x="0" y="18.1" class="st6" width="31.8" height="2.6"/>
	<rect id="Rectangle_15921" x="17.5" y="0" class="st6" width="35.2" height="2.6"/>
</g>
<g id="Group_18812" transform="translate(138.449 92.428)">
	<path id="Rectangle_15904" class="st7" d="M14,0h114c7.7,0,14,6.3,14,14v117c0,7.7-6.3,14-14,14H14c-7.7,0-14-6.3-14-14V14
		C0,6.3,6.3,0,14,0z"/>
	<rect id="Rectangle_15905" x="26.6" y="78" class="st8" width="6" height="42.4"/>
	<rect id="Rectangle_15906" x="36.3" y="63.2" class="st8" width="6" height="57.2"/>
	<rect id="Rectangle_15907" x="46" y="45.4" class="st8" width="6" height="74.9"/>
	<rect id="Rectangle_15908" x="55.7" y="39.4" class="st8" width="6" height="81"/>
	<rect id="Rectangle_15909" x="65.5" y="49.6" class="st8" width="6" height="70.8"/>
	<rect id="Rectangle_15910" x="75.2" y="64.3" class="st8" width="6" height="56.1"/>
	<rect id="Rectangle_15911" x="84.9" y="51.5" class="st8" width="6" height="68.9"/>
	<rect id="Rectangle_15912" x="94.6" y="35.7" class="st8" width="6" height="84.7"/>
	<rect id="Rectangle_15913" x="104.3" y="17" class="st8" width="6" height="103.4"/>
	<rect id="Rectangle_15914" x="114" y="11.2" class="st8" width="6" height="109.2"/>
	<path id="Path_51577" class="st9" d="M125.2,130.7H18.6V17h0.9v112.9h105.8L125.2,130.7z"/>
</g>
<g id="Group_13494" transform="translate(0 0)">
	<path id="Path_35571" class="st10" d="M367,110.7l1.2-14c2.5-2.8,6.1-4.4,9.9-4.2c7.2,0.5,12.4,7.9,11.7,16.5s-7.2,15.2-14.4,14.7
		c-5-0.4-9.1-4.1-10.9-9.2C365.9,113.7,366.8,112.3,367,110.7z"/>
	<path id="Path_35572" class="st10" d="M395.9,117.1c0.4,2.2-2,4.4-5.5,5l-7.9,1.3c-3.5,0.5-6.6-0.8-7.1-3l-4-20
		c-0.4-2.2,2-4.4,5.5-5l7.9-1.3c3.5-0.6,6.6,0.8,7.1,3L395.9,117.1z"/>
	<path id="Path_35573" class="st11" d="M375.8,127c-4.6,2.1-7,1.7-3.3,2.8c1.9,1.8,23.8-2.2,24.8-4.7c0.2-0.4-8.9-1.1-9-1.4
		c-1-3.4-1.1-7.1-0.4-10.6c-0.1-0.3-0.3-0.5-0.6-0.5c-1.7,0.1-3.4,0.3-5.1,0.4c-0.3,0-3.5,0.9-2.7,2.2
		C380.3,119.1,380.7,124.7,375.8,127z"/>
	<path id="Path_35574" class="st11" d="M373.5,115.3c-0.1-0.1-0.2-0.3-0.3-0.4c0,0,0-0.1-0.1-0.1c-0.1-0.2-0.2-0.4-0.3-0.5
		c0,0,0-0.1-0.1-0.1c-0.1-0.1-0.1-0.3-0.2-0.4c0-0.1-0.1-0.2-0.1-0.2c-0.1-0.1-0.1-0.2-0.2-0.4c0-0.1-0.1-0.2-0.1-0.3
		c-0.1-0.2-0.1-0.3-0.2-0.5c0-0.1-0.1-0.2-0.1-0.4c0-0.1-0.1-0.2-0.1-0.3s-0.1-0.2-0.1-0.4c0-0.1-0.1-0.2-0.1-0.3
		c0-0.1,0-0.2-0.1-0.2v0c-0.4-3.9-0.2-7.7,0.7-11.5c0.2-0.5,0.7-0.8,1.2-0.7c3.9,0.2,15.7-1,13.4,8.8v0c0,0-0.1,0.9-0.2,1.3
		c0,0,0,0.1,0,0.1c-0.1,0.4-0.1,0.8-0.2,1.1c0,0,0,0,0,0.1c-0.1,0.4-0.2,0.8-0.3,1.1c0,0,0,0,0,0c-1.4,4.7-4.1,7.8-7.3,7.8
		c-2-0.1-3.8-1.2-4.9-2.9l0,0c0,0,0,0,0,0c-0.1-0.1-0.2-0.3-0.3-0.4C373.5,115.4,373.5,115.4,373.5,115.3z"/>
	<path id="Path_35575" class="st12" d="M330.7,127.9c0,0-0.8,0.4-1.2-0.1c-0.6-1.2-1-2.4-1.1-3.7c-0.1-0.8,0.2-4.9,0.2-4.9
		c0.6,0.8,0.9,1.8,0.9,2.8C329.5,124,329.9,126,330.7,127.9z"/>
	<path id="Path_35576" class="st12" d="M330.5,127.4c-0.8-1.3-0.6-3.1,0.3-5c0.5-0.9,0.5-2,0-3c-0.7,1.3-1.2,2.8-1.6,4.2
		c-0.3,0.9-0.4,1.8-0.4,2.7C329.2,128.9,332.7,130.8,330.5,127.4z"/>
	<path id="Path_35577" class="st11" d="M375.6,353.4c2.2-0.7,4.4-1.2,6.6-1.5c2.9-0.5,5-0.5,6.1-1.4c1.7-1.6,0.6-6.6,1.4-6.4
		c4,0.8,5.6,9.4,3.2,10.5s-15.7,0.7-16.8,0.6S375.3,353.2,375.6,353.4z"/>
	<path id="Path_35578" class="st11" d="M405,257.7c-0.6-2.1-1.1-4.2-1.7-6.3c-1.9-3-3.6-4.7-4.9-4.5c-4.8,0.8-9.1,17.7,6.3,58.5
		c0.8,2.1,10.9,37.6,11.1,36.7C417.7,331.7,413.3,289.3,405,257.7z"/>
	<path id="Path_35579" class="st11" d="M400,195.7c-3.9-0.6-3.9,1.4-6.5,6.4c-5.2,9.8-8,24.2-5.7,39.5c2.6,18,8.1,33.6,14.6,43.4
		c3.7-8.4,5.5-18.6,6.8-29.8C413.5,220.3,411.8,197.4,400,195.7z"/>
	<path id="Path_35580" class="st12" d="M396.1,235.7c4.9-1.1,9.9-1.6,15-1.5c-0.3,5.9-0.9,12.4-1.7,19.3c-5.7-5.5-16.9-2.5-19.4,0.3
		c-0.9-3.9-1.7-7.9-2.3-12.1c-0.2-1.2-0.3-2.4-0.4-3.6C390.1,237.2,393,236.4,396.1,235.7z"/>
	<path id="Path_35581" class="st11" d="M422.3,149.2c-5.7,4.7-10.9,25.9-10.9,25.9s0.7,8.4,13.4-18.2
		C428.6,148.9,423.7,148,422.3,149.2z"/>
	<path id="Path_35582" class="st11" d="M363.5,142.3c-4.1,3.1-7.2,13.3-9.7,19.8c-0.9,2-1.1,4.2-0.6,6.3c0,0,2.1,8.3,11.6-15.2
		C367.1,147.4,365,141.1,363.5,142.3z"/>
	<path id="Path_35583" class="st11" d="M356.7,167.9c-0.7-8.4-19.1-29.7-19.1-29.7s-9.3-6.2,9.2,25.6
		C352.3,173.3,356.8,170,356.7,167.9z"/>
	<path id="Path_35584" class="st11" d="M330.5,125.7l-0.7,0.4l-0.3,2.6c0,0,1.6,4.5,2.9,6s3.6,8.5,4.1,9.2s5.2,0.4,5.2,0.4
		s-4.2-6.5-5.7-9.2s-2-7.2-2.5-8.3c-0.5-0.9-0.9-1.9-1.2-2.8c0,0-1,0.6,0.2,3.5c0.3,0.8-0.8,0.7-0.8,0.7L330.5,125.7z"/>
	<path id="Path_35585" class="st11" d="M376.4,209.5c4.8,8.8,8.2,22.1,8,36.5c-0.3,16.9-2.9,31.8-6.9,41.3
		c-3.6-7.6-5.3-17.1-7.9-27.3C361.4,228.2,373.9,205,376.4,209.5z"/>
	<path id="Path_35586" class="st12" d="M368.4,243.5c-1.2-5.6-0.4-15.6,3.3-18.4c0.9-1,1.5-0.5,3.1,0.1c3.2,1,6.5,3.9,8.8,8.6
		c0.2,3.2,0.3,6.5,0.3,9.9c0,3.7-0.2,4.3-0.3,7.8C382.3,250.2,376.8,244.6,368.4,243.5z"/>
	<path id="Path_35587" class="st11" d="M377.5,260.7c1.9-0.9,5.3,1.3,7.7,5.5c4.7,8.3,6.1,19.7,7,33.8c0.9,14.9,0.9,26,0.7,35.2
		c-0.2,9.1,4,21.7-3.6,20.5c0.9-12.5-1.4-30.9-5.5-40.6C369.7,282,371.7,263.4,377.5,260.7z"/>
	<path id="Path_35588" class="st13" d="M372.6,156.3l29.5-1.9l1.5-30.5l-34.9,5L372.6,156.3z"/>
	<path id="Path_35589" class="st9" d="M415.2,260.5c-16.9-1.5-33.7-2.9-50.6-4.3c-1.9,0.2,8.8-32.9,7.9-99.9
		c9.9-0.9,19.8-1.7,29.8-2.6C400.8,167,427.3,188.9,415.2,260.5z"/>
	<path id="Path_35590" class="st13" d="M418.6,153.6l-16.2-18.1l-4.2-8.5c0.3-0.8,0.9-1.5,1.7-2l0.5-0.4c2.1-1.4,4.9-0.9,6.6,1
		l18.5,23.2L418.6,153.6z"/>
	<path id="Path_35591" class="st13" d="M361.3,164.3l8.8-19.9l3.1-13.8c-0.6-0.7-1.4-1.2-2.3-1.4l-0.6-0.2c-2.4-0.7-4.9,0.5-5.9,2.8
		L354,159.2L361.3,164.3z"/>
	<path id="Path_35592" class="st11" d="M411.3,180.8c0.2,0.5,0.8,0.8,1.3,0.6l1.3-0.4c0.5-0.1,0.8-0.6,0.7-1.1c0,0,0,0,0-0.1
		l-1.8-5.2c-0.2-0.5-0.8-0.8-1.3-0.6l-1.3,0.4c-0.5,0.1-0.8,0.6-0.7,1.1c0,0,0,0.1,0,0.1L411.3,180.8z"/>
	<path id="Path_35593" class="st13" d="M416.3,345.8c3,5.7,6.8,9.7,8.5,9s0.6-5.9-2.4-11.6s-6.8-9.7-8.5-9S413.2,340.1,416.3,345.8z
		"/>
	<path id="Path_35594" class="st11" d="M415.4,342.4c1.5,4.4,4.9,7.7,6.5,7s1.1-4.5-1.3-8.6c-3.1-5.2-4.3-6.7-4.5-10.4
		C415.9,326.9,409.6,325.7,415.4,342.4z"/>
	<path id="Path_35595" class="st11" d="M392.5,348.5c0,0.1-0.1,0.2-0.2,0.2H392c-0.1,0-0.2-0.1-0.2-0.2l0,0c0-0.1,0.1-0.2,0.2-0.2
		h0.3C392.4,348.3,392.5,348.4,392.5,348.5z"/>
	<path id="Path_35596" class="st13" d="M378.4,352.6c-0.8,2.8,9,1.7,11.5,1c1.3-0.4,2.6-0.7,4-0.9c0.1,0,0.2,0,0.3,0
		c0,0.1,0,0.1,0,0.2c0,1.6,0.8,3.6-2,3.6h-17.5C360.4,356.5,378.4,352.5,378.4,352.6z"/>
	<path id="Path_35597" class="st11" d="M330.5,129c0,0-1-2.3-0.7-3.4c0.2-0.8,2-4.5,2-4.5c0.3,1,0.2,2-0.2,2.9
		C330.9,125.6,330.5,127.3,330.5,129z"/>
	<path id="Path_35598" class="st12" d="M331.7,128.4c0,0,0.8,0.1,1-0.1c0,0.2,0,0.4,0,0.6c0,0.4,0.4,3.1,0.4,3.1
		c-0.3-0.8-0.7-1.6-1.1-2.4c-0.3-0.6-0.5-1.2-0.7-1.8c0-0.1,0-0.3,0-0.4L331.7,128.4z"/>
	<path id="Path_35599" class="st12" d="M332.5,127.7c-0.8-2-0.6-2.9-0.4-3.3c0.2,0.5,0.5,1.2,1,2.3c0.3,0.7,0.5,1.4,0.6,2.1
		c-0.5,0.6-0.9,1.3-0.9,2.1c0,0.3-0.8-1.4-0.9-2.5C332.1,128.4,332.7,128.3,332.5,127.7z"/>
	<path id="Path_35600" class="st10" d="M380.6,112.2c1.4-0.8,2.3-2.2,2.4-3.7l1.2-14c0.1-0.1,0.3-0.3,0.4-0.4l0.3,0
		c3.5-0.6,6.6,0.8,7.1,3l4,20c0.3,1.7-1.1,3.4-3.3,4.3c-0.4,0-0.8,0-1.2,0C386.4,121,382.3,117.3,380.6,112.2z"/>
</g>
<g id="Group_14150" transform="translate(19.433 0)">
	
		<linearGradient id="Path_38848_1_" gradientUnits="userSpaceOnUse" x1="245.4733" y1="201.0799" x2="244.6703" y2="200.1999" gradientTransform="matrix(-55.6184 12.8405 34.3242 148.6743 7252.3687 -32687.0781)">
		<stop  offset="0" style="stop-color:#1F909A"/>
		<stop  offset="2.000000e-03" style="stop-color:#1F9099"/>
		<stop  offset="0.179" style="stop-color:#3F9C8C"/>
		<stop  offset="0.362" style="stop-color:#57A582"/>
		<stop  offset="0.554" style="stop-color:#69AB7A"/>
		<stop  offset="0.759" style="stop-color:#73AF76"/>
		<stop  offset="1" style="stop-color:#77B175"/>
	</linearGradient>
	<path id="Path_38848" class="st14" d="M545.7,342.3l-10.3,0.2l10.2,3c-0.5,4.6-2.4,10-6.1,16.4c0,0-23.6,3.8-39.2-5.7
		c-2.1-1.3-4.1-2.8-5.8-4.5l11.6-17.1l-15.3,12.7c-5.3-8-6.8-20.6-6.3-30.8l12.8-5.9l-11.7,0.6c0.8-9,1.9-17.8,1.3-25.2l6-1.4
		l-6.1,0.1c-0.6-4.8-2-8.9-4.8-12.1c-2.8-3.2-5.1-6.7-6.8-10.6l11.1-2.6l-12.4-0.6c-1.5-4.2-2.4-8.6-2.7-13.1l9.7-2.2l-9.8-0.8
		c0.3-12,5.6-22.3,14.4-25c0.2-0.1,0.4-0.1,0.6-0.2l5.3,14.4l0.1-15.2c5.9-0.1,11.4,2.4,16.2,6.7l-2.2,11.4l5-8.7
		c4.3,4.7,7.7,10.1,10.2,15.9l-6.1,10.8l8-6.1c2.9,8,4.5,16.3,4.8,24.8l-9.3,5l9.3-0.8c-0.1,4.8-0.8,9.5-1.9,14.1
		c-0.6,2.4-1,4.8-1.1,7.3l-9.1,0.5l9.1,2.2c0.4,7.4,3.9,12.8,7.8,17.8l-11.4,4.1l14-1C540.2,327.2,545.5,333.3,545.7,342.3z"/>
	<path class="st15" d="M524.4,361.8c-14.6-14.6-17.4-39.6-20.1-63.7c-1.8-16.4-3.7-33.3-9.3-46.2l1.8-0.8
		c5.8,13.2,7.7,30.3,9.5,46.8c2.6,23.8,5.4,48.4,19.5,62.5L524.4,361.8z"/>
</g>
<g id="Group_14151" transform="translate(0 9.837)">
	
		<linearGradient id="Path_38850_1_" gradientUnits="userSpaceOnUse" x1="267.3918" y1="189.4958" x2="266.7638" y2="188.8248" gradientTransform="matrix(-41.8103 9.6527 17.1071 74.0992 8484.0244 -16273.4014)">
		<stop  offset="0" style="stop-color:#1F909A"/>
		<stop  offset="2.000000e-03" style="stop-color:#1F9099"/>
		<stop  offset="0.179" style="stop-color:#3F9C8C"/>
		<stop  offset="0.362" style="stop-color:#57A582"/>
		<stop  offset="0.554" style="stop-color:#69AB7A"/>
		<stop  offset="0.759" style="stop-color:#73AF76"/>
		<stop  offset="1" style="stop-color:#77B175"/>
	</linearGradient>
	<path id="Path_38850" class="st16" d="M566.8,333.5l-4.9-1.8l4.3,3.3c-1.5,2.6-3.5,4.9-5.9,6.7c0,0-11.9-2.5-17.5-9.8
		c-0.8-1-1.4-2.1-1.9-3.2l8.6-6l-9.5,3.2c-1.1-4.7,0.5-11,2.6-15.7l7.1-0.5l-5.6-1.8c2-4.1,4.1-8.1,5.2-11.7l3.1,0.4l-2.9-1.1
		c0.7-2.1,0.6-4.4,0-6.6c-0.7-2-1.2-4.1-1.3-6.2l5.7,0.8L548,281c0-2.3,0.4-4.5,1.1-6.7l5,0.7l-4.4-2.2c2.3-5.6,6.7-9.5,11.3-9.2
		c0.1,0,0.2,0,0.3,0l-0.1,7.8l2.8-7.1c2.8,1.2,5.1,3.3,6.5,6.1l-3.1,5l3.9-3.2c1.2,3,1.8,6.2,1.9,9.4l-4.8,4l4.9-1.4
		c-0.1,4.3-0.8,8.5-2.2,12.6l-5.3,0.7l4.5,1.3c-0.9,2.2-2.1,4.4-3.5,6.3c-0.7,1-1.4,2.1-1.9,3.2l-4.4-1.4l3.9,2.7
		c-1.1,3.6-0.5,6.8,0.5,9.8l-6.1-0.1l6.8,2.1C567,325.4,568.4,329.2,566.8,333.5z"/>
	<path class="st15" d="M552.8,339c-4.3-9.7-1.1-22.1,2.1-34.1c2.1-8,4.3-16.3,4-23.4l2-0.1c0.3,7.4-1.9,15.8-4,24
		c-3.1,11.6-6.2,23.7-2.2,32.7L552.8,339z"/>
</g>
</svg>
