<?xml version="1.0" encoding="utf-8"?>
<!-- Generator: Adobe Illustrator 24.1.2, SVG Export Plug-In . SVG Version: 6.00 Build 0)  -->
<svg version="1.1" id="Слой_1" xmlns="http://www.w3.org/2000/svg" xmlns:xlink="http://www.w3.org/1999/xlink" x="0px" y="0px"
	 viewBox="0 0 1920.4 617.5" enable-background="new 0 0 1920.4 617.5" xml:space="preserve">
<g id="Group_20567" transform="translate(0 -74.356)">
	<g id="Group_20566">
		<g id="Group_13024" transform="translate(0 -2086)">
			
				<linearGradient id="Ellipse_9_1_" gradientUnits="userSpaceOnUse" x1="831.4963" y1="2542.1069" x2="831.4963" y2="2543.4319" gradientTransform="matrix(828.95 0 0 -10.914 -688684.75 30087.2051)">
				<stop  offset="0" style="stop-color:#FFFFFF;stop-opacity:0"/>
				<stop  offset="1" style="stop-color:#FFFFFF"/>
			</linearGradient>
			<ellipse id="Ellipse_9" fill="url(#Ellipse_9_1_)" cx="584.2" cy="2337.4" rx="414.5" ry="5.5"/>
			
				<linearGradient id="Ellipse_10_1_" gradientUnits="userSpaceOnUse" x1="830.1392" y1="2541.8108" x2="830.1392" y2="2543.1357" gradientTransform="matrix(352.42 0 0 -11.052 -292360.9688 30345.7598)">
				<stop  offset="0" style="stop-color:#FFFFFF;stop-opacity:0"/>
				<stop  offset="1" style="stop-color:#FFFFFF"/>
			</linearGradient>
			<ellipse id="Ellipse_10" fill="url(#Ellipse_10_1_)" cx="196.7" cy="2248.4" rx="176.2" ry="5.5"/>
		</g>
	</g>
	<g id="Group_17173" transform="translate(0.039 -123.151)">
		<g id="Group_17145" transform="translate(-0.039 252.401)">
			<g id="Group_17144" transform="translate(1310.717 57.318)">
				
					<linearGradient id="Path_48351_1_" gradientUnits="userSpaceOnUse" x1="-479.5826" y1="247.3006" x2="-479.5826" y2="246.3006" gradientTransform="matrix(609.2842 0 0 -505.2629 292506.7188 124951.8281)">
					<stop  offset="0" style="stop-color:#4D6882"/>
					<stop  offset="1" style="stop-color:#C1E6FA"/>
				</linearGradient>
				<path id="Path_48351" fill="url(#Path_48351_1_)" d="M609.3,505.2V54.8c-19.5,0-26.4,0.4-45.7,0.4c-8.5,0-9.6,5.3-9.6,14
					c0,7.5,0.2,61.8,0.2,80.8c0,3.6-1.3,6.2-4.7,6.2c-10.4,0-14,0.2-18.8,0.2c-6.3,0-6.4-3.4-6.4-9.9c0-10.1-1.7-123-1.7-134.1
					c0-9.1-1.4-12.4-9.2-12.4h-81c-6.1,0-7.6,6.4-7.6,9.7c0,15.2,2.1,96.9,2.1,110.2c0,3.7-2.7,5.3-5.6,5.3c-5.7,0-12.7,0-19.8,0
					c-2.6,0-4.8-2.1-4.9-4.7L395.8,50c0-2.9-2.4-5.1-5.2-5.1c0,0,0,0,0,0l-59.3,1.2c-3.5,0.1-6.2,2.9-6.2,6.3
					c0,27.9-0.2,141.1-0.2,163.9c0,3.7-0.9,5.2-4.4,5.2c-2,0-12.7,0-18.2,0c-1.8,0-3.2-0.6-3.2-2.6c0-4.4,0-8.3,0-13.6
					c0-4.4-1.8-4.8-6.8-4.8c-3.2,0-13.6,0-19.6,0c-2.5,0-4.5-2-4.6-4.5c-0.2-7.2-0.4-20.9-0.4-25.3c0-1.1-0.7-4.5-4-4.5
					c-16.8,0-51.1,0.3-69.8,0.3c-4.8,0-6.3,2-6.3,7.8c0,25.2,0.1,106.2,0.1,116.2c0,3.3-3.7,6.2-6.4,6.2c-12.5,0-39.9,0.4-51.5,0.4
					c-4,0-5.3-4.1-5.3-5.6c0-9.4,0-28.3,0-39c0-3.8,0.1-6.9-6.1-6.9c-21.3,0-54.3,0.2-74.9,0.4c-6,0.1-13.2-0.7-13.2,6.5
					c0,6.8,0.1,19.4,0.1,24.9c0,4.6-0.4,8.8-6.9,8.8c-6.1,0-5-0.1-13.9-0.1c-7.5,0-9.6,3.7-9.6,10.6c0,22-0.3,166.7,0,208.5
					L609.3,505.2z"/>
				
					<linearGradient id="Path_48352_1_" gradientUnits="userSpaceOnUse" x1="-516.92" y1="247.5521" x2="-516.92" y2="246.5521" gradientTransform="matrix(21.4971 0 0 -338.966 11369.6309 84078.0234)">
					<stop  offset="0" style="stop-color:#3C5C79"/>
					<stop  offset="1" style="stop-color:#C4E7FA"/>
				</linearGradient>
				<path id="Path_48352" fill="url(#Path_48352_1_)" d="M268.1,196.2v309.1h-17V171c0-1.9-0.4-4.6-4-4.6
					c-3.4-0.1,14.1-0.2,16.7-0.1c3.2,0.1,4,3.4,4,4.5C267.7,175.2,268,189,268.1,196.2z"/>
				
					<linearGradient id="Path_48353_1_" gradientUnits="userSpaceOnUse" x1="-504.4983" y1="247.7861" x2="-504.4983" y2="246.7861" gradientTransform="matrix(31.6576 0 0 -259.498 16079.9902 64545.7539)">
					<stop  offset="0" style="stop-color:#3C5C79"/>
					<stop  offset="1" style="stop-color:#C4E7FA"/>
				</linearGradient>
				<path id="Path_48353" fill="url(#Path_48353_1_)" d="M124.6,252.3v252.9H97.4V252.6c0-4.2,0.1-6.7-4.4-6.8c-0.7,0,18.7,0,25.6,0
					C124.5,245.7,124.6,248.7,124.6,252.3z"/>
				
					<linearGradient id="Path_48354_1_" gradientUnits="userSpaceOnUse" x1="-513.9943" y1="247.3006" x2="-513.9943" y2="246.3006" gradientTransform="matrix(23.255 0 0 -505.241 12465.6582 124946.4297)">
					<stop  offset="0" style="stop-color:#3C5C79"/>
					<stop  offset="1" style="stop-color:#C4E7FA"/>
				</linearGradient>
				<path id="Path_48354" fill="url(#Path_48354_1_)" d="M524.3,146.5v358.8h-23.3V0h12.3c7.8,0,9.2,3.3,9.2,12.4
					C522.6,23.4,524.3,136.4,524.3,146.5z"/>
				
					<linearGradient id="Rectangle_14885_1_" gradientUnits="userSpaceOnUse" x1="-494.5407" y1="247.701" x2="-494.5407" y2="246.701" gradientTransform="matrix(50.969 0 0 -283.688 25628.3379 70491.3516)">
					<stop  offset="0" style="stop-color:#3C5C79"/>
					<stop  offset="1" style="stop-color:#C4E7FA"/>
				</linearGradient>
				<rect id="Rectangle_14885" x="396.6" y="221.6" fill="url(#Rectangle_14885_1_)" width="51" height="283.7"/>
				<path id="Rectangle_14886" fill="#FFFFFF" d="M300.3,221.6h95.1c0.7,0,1.2,0.5,1.2,1.2v2c0,0.7-0.5,1.2-1.2,1.2h-95.1
					c-0.7,0-1.2-0.5-1.2-1.2v-2C299.1,222.1,299.6,221.6,300.3,221.6z"/>
				<path id="Rectangle_14887" fill="#FFFFFF" d="M189.1,180h38.5c0.8,0,1.5,0.7,1.5,1.5v5.8c0,0.8-0.7,1.5-1.5,1.5h-38.5
					c-0.8,0-1.5-0.7-1.5-1.5v-5.8C187.6,180.6,188.3,180,189.1,180z"/>
				<path id="Rectangle_14888" fill="#A6ADE9" d="M189,216.8h55.9c0.7,0,1.3,0.6,1.3,1.3v6.1c0,0.7-0.6,1.3-1.3,1.3H189
					c-0.7,0-1.3-0.6-1.3-1.3v-6.1C187.6,217.4,188.2,216.8,189,216.8z"/>
				<path id="Rectangle_14889" fill="#EDEDFC" d="M200.8,253.6H245c0.6,0,1.2,0.5,1.2,1.2v6.4c0,0.6-0.5,1.2-1.2,1.2h-44.2
					c-0.6,0-1.2-0.5-1.2-1.2v-6.4C199.6,254.1,200.2,253.6,200.8,253.6z"/>
				<g id="Group_17138" transform="translate(49.262 252.86)">
					<g id="Group_17133" transform="translate(15.783)">
						<path id="Rectangle_14890" fill="#CEDEF7" d="M1.1,0H11c0.6,0,1.1,0.5,1.1,1.1v17.7c0,0.6-0.5,1.1-1.1,1.1H1.1
							c-0.6,0-1.1-0.5-1.1-1.1V1.1C0,0.5,0.5,0,1.1,0z"/>
					</g>
					<g id="Group_17134" transform="translate(31.567 59.906)">
						<path id="Rectangle_14891" fill="#EDEDFC" d="M1.1,0H11c0.6,0,1.1,0.5,1.1,1.1v17.7c0,0.6-0.5,1.1-1.1,1.1H1.1
							c-0.6,0-1.1-0.5-1.1-1.1V1.1C0,0.5,0.5,0,1.1,0z"/>
					</g>
					<g id="Group_17135" transform="translate(0 89.86)">
						<path id="Rectangle_14892" fill="#96C7F5" d="M1.1,0H11c0.6,0,1.1,0.5,1.1,1.1v17.7c0,0.6-0.5,1.1-1.1,1.1H1.1
							c-0.6,0-1.1-0.5-1.1-1.1V1.1C0,0.5,0.5,0,1.1,0z"/>
					</g>
					<g id="Group_17136" transform="translate(15.783 119.813)">
						<path id="Rectangle_14893" fill="#EDEDFC" d="M1.1,0H11c0.6,0,1.1,0.5,1.1,1.1v17.7c0,0.6-0.5,1.1-1.1,1.1H1.1
							c-0.6,0-1.1-0.5-1.1-1.1V1.1C0,0.5,0.5,0,1.1,0z"/>
						<path id="Rectangle_14894" fill="#96C7F5" d="M16.9,0h9.9c0.6,0,1.1,0.5,1.1,1.1v17.7c0,0.6-0.5,1.1-1.1,1.1h-9.9
							c-0.6,0-1.1-0.5-1.1-1.1V1.1C15.8,0.5,16.3,0,16.9,0z"/>
					</g>
					<g id="Group_17137" transform="translate(0 149.766)">
						<path id="Rectangle_14895" fill="#EDEDFC" d="M1.1,0H11c0.6,0,1.1,0.5,1.1,1.1v17.7c0,0.6-0.5,1.1-1.1,1.1H1.1
							c-0.6,0-1.1-0.5-1.1-1.1V1.1C0,0.5,0.5,0,1.1,0z"/>
						<path id="Rectangle_14896" fill="#EDEDFC" d="M32.7,0h9.9c0.6,0,1.1,0.5,1.1,1.1v17.7c0,0.6-0.5,1.1-1.1,1.1h-9.9
							c-0.6,0-1.1-0.5-1.1-1.1V1.1C31.6,0.5,32.1,0,32.7,0z"/>
					</g>
				</g>
				<g id="Group_17143" transform="translate(301.187 244.019)">
					<g id="Group_17139" transform="translate(38.562)">
						<path id="Rectangle_14897" fill="#91BFEB" d="M1.1,0h12.1c0.6,0,1.1,0.5,1.1,1.1v17.7c0,0.6-0.5,1.1-1.1,1.1H1.1
							c-0.6,0-1.1-0.5-1.1-1.1V1.1C0,0.5,0.5,0,1.1,0z"/>
						<path id="Rectangle_14898" fill="#EDEDFC" d="M39.6,0h12.1c0.6,0,1.1,0.5,1.1,1.1v17.7c0,0.6-0.5,1.1-1.1,1.1H39.6
							c-0.6,0-1.1-0.5-1.1-1.1V1.1C38.6,0.5,39,0,39.6,0z"/>
					</g>
					<g id="Group_17140" transform="translate(0 62.057)">
						<path id="Rectangle_14899" fill="#91BFEB" d="M1.1,0h12.1c0.6,0,1.1,0.5,1.1,1.1v17.7c0,0.6-0.5,1.1-1.1,1.1H1.1
							c-0.6,0-1.1-0.5-1.1-1.1V1.1C0,0.5,0.5,0,1.1,0z"/>
						<path id="Rectangle_14900" fill="#EDEDFC" d="M39.6,0h12.1c0.6,0,1.1,0.5,1.1,1.1v17.7c0,0.6-0.5,1.1-1.1,1.1H39.6
							c-0.6,0-1.1-0.5-1.1-1.1V1.1C38.6,0.5,39,0,39.6,0z"/>
						<path id="Rectangle_14901" fill="#96C7F5" d="M78.2,0h12.1c0.6,0,1.1,0.5,1.1,1.1v17.7c0,0.6-0.5,1.1-1.1,1.1H78.2
							c-0.6,0-1.1-0.5-1.1-1.1V1.1C77.1,0.5,77.6,0,78.2,0z"/>
					</g>
					<g id="Group_17141" transform="translate(57.843 93.085)">
						<path id="Rectangle_14902" fill="#EDEDFC" d="M1.1,0h12.1c0.6,0,1.1,0.5,1.1,1.1v17.7c0,0.6-0.5,1.1-1.1,1.1H1.1
							c-0.6,0-1.1-0.5-1.1-1.1V1.1C0,0.5,0.5,0,1.1,0z"/>
					</g>
					<g id="Group_17142" transform="translate(38.562 124.114)">
						<path id="Rectangle_14903" fill="#96C7F5" d="M1.1,0h12.1c0.6,0,1.1,0.5,1.1,1.1v17.7c0,0.6-0.5,1.1-1.1,1.1H1.1
							c-0.6,0-1.1-0.5-1.1-1.1V1.1C0,0.5,0.5,0,1.1,0z"/>
					</g>
				</g>
				
					<linearGradient id="Rectangle_14904_1_" gradientUnits="userSpaceOnUse" x1="-490.5721" y1="225.0628" x2="-491.0221" y2="292.8378" gradientTransform="matrix(64.947 0 0 -5.469 32250.8066 1664.8365)">
					<stop  offset="0" style="stop-color:#777FE0"/>
					<stop  offset="0.203" style="stop-color:#91A3E9"/>
					<stop  offset="0.407" style="stop-color:#A6C0F0"/>
					<stop  offset="0.609" style="stop-color:#B5D5F5"/>
					<stop  offset="0.808" style="stop-color:#BEE1F8"/>
					<stop  offset="1" style="stop-color:#C1E6FA"/>
				</linearGradient>
				<rect id="Rectangle_14904" x="327.6" y="56.2" fill="url(#Rectangle_14904_1_)" width="64.9" height="5.5"/>
				
					<linearGradient id="Rectangle_14905_1_" gradientUnits="userSpaceOnUse" x1="-497.9946" y1="240.4028" x2="-498.5756" y2="295.4698" gradientTransform="matrix(40.906 0 0 -5.469 20741.9707 1680.6495)">
					<stop  offset="0" style="stop-color:#777FE0"/>
					<stop  offset="0.203" style="stop-color:#91A3E9"/>
					<stop  offset="0.407" style="stop-color:#A6C0F0"/>
					<stop  offset="0.609" style="stop-color:#B5D5F5"/>
					<stop  offset="0.808" style="stop-color:#BEE1F8"/>
					<stop  offset="1" style="stop-color:#C1E6FA"/>
				</linearGradient>
				<rect id="Rectangle_14905" x="327.6" y="72" fill="url(#Rectangle_14905_1_)" width="40.9" height="5.5"/>
				<rect id="Rectangle_14906" x="338.1" y="87.8" fill="#FFFFFF" width="54.5" height="5.5"/>
				
					<linearGradient id="Rectangle_14907_1_" gradientUnits="userSpaceOnUse" x1="-503.3399" y1="256.1711" x2="-504.0119" y2="306.781" gradientTransform="matrix(32.474 0 0 -5.469 16737.9023 1759.7146)">
					<stop  offset="0" style="stop-color:#777FE0"/>
					<stop  offset="0.203" style="stop-color:#91A3E9"/>
					<stop  offset="0.407" style="stop-color:#A6C0F0"/>
					<stop  offset="0.609" style="stop-color:#B5D5F5"/>
					<stop  offset="0.808" style="stop-color:#BEE1F8"/>
					<stop  offset="1" style="stop-color:#C1E6FA"/>
				</linearGradient>
				<rect id="Rectangle_14907" x="360" y="151" fill="url(#Rectangle_14907_1_)" width="32.5" height="5.5"/>
				
					<linearGradient id="Rectangle_14908_1_" gradientUnits="userSpaceOnUse" x1="-496.0584" y1="253.6447" x2="-496.6024" y2="311.2277" gradientTransform="matrix(45.666 0 0 -5.469 23020.6641 1775.5276)">
					<stop  offset="0" style="stop-color:#777FE0"/>
					<stop  offset="0.203" style="stop-color:#91A3E9"/>
					<stop  offset="0.407" style="stop-color:#A6C0F0"/>
					<stop  offset="0.609" style="stop-color:#B5D5F5"/>
					<stop  offset="0.808" style="stop-color:#BEE1F8"/>
					<stop  offset="1" style="stop-color:#C1E6FA"/>
				</linearGradient>
				<rect id="Rectangle_14908" x="327.6" y="166.8" fill="url(#Rectangle_14908_1_)" width="45.7" height="5.5"/>
				
					<linearGradient id="Rectangle_14909_1_" gradientUnits="userSpaceOnUse" x1="-494.3049" y1="257.2535" x2="-494.8179" y2="317.5175" gradientTransform="matrix(50.739 0 0 -5.469 25449.1953 1807.1536)">
					<stop  offset="0" style="stop-color:#777FE0"/>
					<stop  offset="0.203" style="stop-color:#91A3E9"/>
					<stop  offset="0.407" style="stop-color:#A6C0F0"/>
					<stop  offset="0.609" style="stop-color:#B5D5F5"/>
					<stop  offset="0.808" style="stop-color:#BEE1F8"/>
					<stop  offset="1" style="stop-color:#C1E6FA"/>
				</linearGradient>
				<rect id="Rectangle_14909" x="327.6" y="198.5" fill="url(#Rectangle_14909_1_)" width="50.7" height="5.5"/>
			</g>
			
				<linearGradient id="Path_48355_1_" gradientUnits="userSpaceOnUse" x1="831.6285" y1="305.2017" x2="832.5596" y2="305.2827" gradientTransform="matrix(1886.9158 0 0 -157.1874 -1569048.875 48466.0195)">
				<stop  offset="0" style="stop-color:#C1DFFA"/>
				<stop  offset="1" style="stop-color:#7792AA"/>
				<stop  offset="1" style="stop-color:#4878BF"/>
			</linearGradient>
			<path id="Path_48355" fill="url(#Path_48355_1_)" d="M1920,455.5c-30.8-0.4-40,14.3-77.9,10.2c-33.3-3.6-56.3-21.7-97.4-17.3
				c-81.9,8.6-124,36.1-171.1,37.2c-54.5,1.3-76.9-23.4-138.7-23.4c-133.9,0-306.5,48.2-306.5,38.2c0-18.4-66.7-6.4-66.7-6.4
				s89.9-47.8,0-44.9c-84.6,2.7-90.7-5.2-77.8-15.8c14.8-12.2-48.3-24.5-153.4-15.5c-76.1,6.5-98.5,11.2-117.1,3.3
				c-8.8-3.8-39.1-28.1-77.9-7.3c-30.3,16.2-108.8,3.1-129.6,38.6c-10.6,18-101.5-7.5-122.5,21.9c-21.5,30-60.1,23.5-132.5,14.1
				c-116.3-15-219.2,41-217.9,74.3H1920L1920,455.5z"/>
			
				<linearGradient id="Path_48356_1_" gradientUnits="userSpaceOnUse" x1="831.3022" y1="306.9023" x2="832.3022" y2="306.9023" gradientTransform="matrix(1192.359 0 0 -78.5727 -990483.0625 24637.4199)">
				<stop  offset="0" style="stop-color:#2E4354"/>
				<stop  offset="0.29" style="stop-color:#B4D0BE"/>
				<stop  offset="1" style="stop-color:#4D6882"/>
			</linearGradient>
			<path id="Path_48356" fill="url(#Path_48356_1_)" d="M1920,562.6H727.6c30.8-25.9,135.8-58.3,241.6-58.3
				c102.2,0,109.3,26.6,217.5,26.6c23.3,0,72.9-16.9,102-16.9c43.2-0.1,81.2,17.7,111.5,17c32.2-0.8,42.3-19.6,68.6-23.1
				c18.3-2.5,32.2,11.8,50.1,13.8c16.2,1.9,54-6.3,75.2-9.3c76.7-10.9,45.2,37.5,117.5-1.7c21.2-11.5,18.7,33.1,51.5,27.2
				c19.3-3.5,47-50.6,67.4-30.9c25.4,24.5,50.8-32.2,89.4-21.7L1920,562.6z"/>
			
				<linearGradient id="Path_48357_1_" gradientUnits="userSpaceOnUse" x1="830.8782" y1="305.4564" x2="832.8292" y2="305.4564" gradientTransform="matrix(1290.405 0 0 -139.972 -1072785 43247.9141)">
				<stop  offset="0" style="stop-color:#BDD8E6"/>
				<stop  offset="1" style="stop-color:#7792AA"/>
			</linearGradient>
			<path id="Path_48357" fill="url(#Path_48357_1_)" d="M0,562.6h1290.4c-10-35.9-83.4-92.3-176.4-78.6
				c-58.1,8.6-117.1-30.1-181.5-24.3c-91,8.3-81.7,32.8-182.5,32.6c-114.8-0.2-182.2-58.4-288.2-53.1c-92.4,4.6-114.2,36.6-228,38.7
				c-75.6,1.4-149.5-55.4-207.8-55.4c-8.7,0-17.4,0.4-26,1L0,562.6z"/>
			
				<linearGradient id="Path_48358_1_" gradientUnits="userSpaceOnUse" x1="830.9722" y1="307.6626" x2="831.5822" y2="307.6626" gradientTransform="matrix(809.482 0 0 -63.8468 -672657 20173.916)">
				<stop  offset="0" style="stop-color:#4D6882"/>
				<stop  offset="1" style="stop-color:#7792AA"/>
			</linearGradient>
			<path id="Path_48358" fill="url(#Path_48358_1_)" d="M0,562.6h809.5c-20.9-23.5-88.4-48.8-160-43.9
				c-66.9,4.6-83.8,15.1-157.2,15.1c-73.3,0-116.5-37.2-184.2-35c-59,1.9-86.1,28.2-158.8,29.1c-48.2,0.6-95.4-22.7-132.7-22.7
				c-5.6,0-11.1,0.2-16.6,0.4L0,562.6z"/>
		</g>
	</g>
</g>
</svg>
