<svg xmlns="http://www.w3.org/2000/svg" width="678.124" height="600.205" viewBox="0 0 678.124 600.205">
  <g id="Group_16702" data-name="Group 16702" transform="translate(-624.46 -295.989)">
    <path id="Path_47203" data-name="Path 47203" d="M726.748,1094.953c3.946,19.188,12.6,37.856,25.99,52.816,26.422,29.515,71.283,44.6,140.9,39.216s163.99-31.231,229.961-41.358,103.542-4.531,132.829-13.775q1.017-.321,2.021-.669l-181.734-68.507Z" transform="translate(-41.873 -291.866)" fill="#f5d3d0" fill-rule="evenodd"/>
    <path id="Path_47204" data-name="Path 47204" d="M629.273,628.205c.932,3.116,1.934,6.089,3.007,8.888,5.906,15.4,13.888,25.662,22.8,33.506l452.408-23.459V631.288l-196.727-14.1Z" transform="translate(-4.813 -122.49)" fill="#f9be40" fill-rule="evenodd"/>
    <path id="Path_47205" data-name="Path 47205" d="M1336.712,938.327l-56.767-21.376V676.722l56.767-2.6Z" transform="translate(-252.202 -144.134)" fill="#798a64" fill-rule="evenodd"/>
    <path id="Path_47206" data-name="Path 47206" d="M672.255,686.522l443.032-23.385v-23.2L649.792,664.508a84.317,84.317,0,0,0,22.463,22.014" transform="translate(-12.614 -131.138)" fill="#f99d40" fill-rule="evenodd"/>
    <rect id="Rectangle_14572" data-name="Rectangle 14572" width="14.267" height="261.915" transform="translate(1083.113 532.278)" fill="#899e70"/>
    <path id="Path_47207" data-name="Path 47207" d="M1383.349,677.819h0l-14.591.77v4.121l14.592-.772Z" transform="translate(-285.969 -145.541)" fill="#798a64" fill-rule="evenodd"/>
    <path id="Path_47208" data-name="Path 47208" d="M1267.142,928.944v-2.4l-13.573-37.869a137.073,137.073,0,0,1-46.286,0q-14.442,41.13-13.523,37.588-.05,2.681-.05,2.681a140.715,140.715,0,0,0,73.431,0" transform="translate(-219.414 -225.71)" fill="#588282" fill-rule="evenodd"/>
    <path id="Path_47209" data-name="Path 47209" d="M1261.17,883.792h.728v3.028c0,1.85-10.362,3.35-23.143,3.35s-23.143-1.5-23.143-3.35v-3.028h.728c2.568,1.445,11.63,2.513,22.414,2.513s19.846-1.068,22.415-2.513" transform="translate(-227.743 -223.853)" fill="#78b3b3" fill-rule="evenodd"/>
    <path id="Path_47210" data-name="Path 47210" d="M1238.756,878.388c12.781,0,23.143,1.5,23.143,3.349s-10.362,3.349-23.143,3.349-23.143-1.5-23.143-3.349,10.362-3.349,23.143-3.349" transform="translate(-227.743 -221.799)" fill="#588282" fill-rule="evenodd"/>
    <path id="Path_47211" data-name="Path 47211" d="M1238.854,848.429h17.477v20.758h0c0,.855-3.912,1.547-8.738,1.547s-8.738-.692-8.738-1.547Z" transform="translate(-236.579 -210.408)" fill="#f9be40" fill-rule="evenodd"/>
    <path id="Path_47212" data-name="Path 47212" d="M1238.854,848.429h17.477v7.341h0c0,.855-3.912,1.547-8.738,1.547s-8.738-.692-8.738-1.547Z" transform="translate(-236.579 -210.408)" fill="#f99d40" fill-rule="evenodd"/>
    <path id="Path_47213" data-name="Path 47213" d="M1276.374,828.962h1.749v7.27c0,4.441-24.878,8.042-55.565,8.042s-55.565-3.6-55.565-8.042v-7.27h1.748c6.168,3.469,27.924,6.033,53.817,6.033s47.649-2.564,53.816-6.033" transform="translate(-209.257 -203.007)" fill="#78b3b3" fill-rule="evenodd"/>
    <path id="Path_47214" data-name="Path 47214" d="M1222.558,815.986c30.687,0,55.565,3.6,55.565,8.042s-24.878,8.042-55.565,8.042-55.565-3.6-55.565-8.042,24.878-8.042,55.565-8.042" transform="translate(-209.257 -198.073)" fill="#588282" fill-rule="evenodd"/>
    <path id="Path_47215" data-name="Path 47215" d="M1158.731,1085.859l41.813-123.881-18.757-2.666s-11.664,41.116-34.993,123.348a8.563,8.563,0,0,0,11.937,3.2" transform="translate(-201.577 -252.567)" fill="#f9be40" fill-rule="evenodd"/>
    <path id="Path_47216" data-name="Path 47216" d="M1165.5,1086.495l41.813-123.881-11.464-1.629-31.254,125.987a8.492,8.492,0,0,0,.9-.476" transform="translate(-208.345 -253.202)" fill="#f99d40" fill-rule="evenodd"/>
    <path id="Path_47217" data-name="Path 47217" d="M1203.126,962.65q9.572.577,19.148,1.083l-27.97,145.708a8.608,8.608,0,0,1-13.79-2.838s7.623-48.672,22.612-143.953" transform="translate(-214.398 -253.836)" fill="#f9be40" fill-rule="evenodd"/>
    <path id="Path_47218" data-name="Path 47218" d="M1278.386,961.539a105.917,105.917,0,0,0,19.147-3.351L1346.2,1095.3a7.051,7.051,0,0,1-12.374,2.615s-19.123-46.1-55.435-136.381" transform="translate(-251.609 -252.139)" fill="#f9be40" fill-rule="evenodd"/>
    <path id="Path_47219" data-name="Path 47219" d="M1278.386,963.15q3.253-.334,6.125-.725l33.995,99.8q-13.938-34.139-40.12-99.072" transform="translate(-251.609 -253.75)" fill="#f99d40" fill-rule="evenodd"/>
    <path id="Path_47220" data-name="Path 47220" d="M1265.989,949.772h1.156v4.8c0,2.935-16.439,5.315-36.716,5.315s-36.715-2.379-36.715-5.315v-4.8h1.156c4.074,2.291,18.45,3.985,35.559,3.985s31.485-1.694,35.559-3.985" transform="translate(-219.417 -248.939)" fill="#78b3b3" fill-rule="evenodd"/>
    <path id="Path_47221" data-name="Path 47221" d="M925.454,526.079l66.192-1.45a3.874,3.874,0,0,1,3.458,2.657l18.6,59.208a1.951,1.951,0,0,1-1.854,2.657L946.72,596.5a3.684,3.684,0,0,1-3.458-2.657L923.6,528.736a1.916,1.916,0,0,1,1.854-2.657" transform="translate(-116.673 -87.297)" fill="#699" fill-rule="evenodd"/>
    <path id="Path_47222" data-name="Path 47222" d="M946.72,597.389a3.684,3.684,0,0,1-3.458-2.657L923.6,529.626a1.916,1.916,0,0,1,1.854-2.657l21.266,70.42" transform="translate(-116.673 -88.187)" fill="#78b3b3" fill-rule="evenodd"/>
    <path id="Path_47223" data-name="Path 47223" d="M1024.593,642.376l1.883,1.646,46.261-8.634v-3.009l-46.635-3.646-65.127,7.347v1.5l63.618,4.791" transform="translate(-130.928 -126.878)" fill="#588282" fill-rule="evenodd"/>
    <path id="Path_47224" data-name="Path 47224" d="M1066.657,646.258l46.261-8.634v-3.009l-46.261,8.634v3.01" transform="translate(-171.109 -129.115)" fill="#406161" fill-rule="evenodd"/>
    <path id="Path_47225" data-name="Path 47225" d="M960.974,640.587l65.5,4.932v3.01l-65.5-4.933Z" transform="translate(-130.928 -131.385)" fill="#699" fill-rule="evenodd"/>
    <path id="Path_47226" data-name="Path 47226" d="M935.893,534.371l57.547-1.184a3.345,3.345,0,0,1,3.006,2.171l16.169,48.367c.4,1.188-.351,2.037-1.611,2.17l-56.622,6a3.18,3.18,0,0,1-3.006-2.171l-17.093-53.184a1.583,1.583,0,0,1,1.612-2.171" transform="translate(-120.739 -90.551)" fill="#fff" fill-rule="evenodd"/>
    <path id="Path_47227" data-name="Path 47227" d="M1210.914,365.965c.7,4.254,1.985,12.193,2.527,19.823a134.078,134.078,0,0,1-.078,19.8c-.413,4.846-1.031,7.218-.9,9.177s1.005,3.506,3.222,3.842,5.774-.541,10.723-2.526a145.81,145.81,0,0,0,15.442-7.424c4.151-2.347,6.109-3.945,6.908-5.543a4.728,4.728,0,0,0-.412-4.666,4.96,4.96,0,0,0-4.537-2.783c-2.345.026-5.7,1.417-9.434-.748s-7.862-7.887-11.162-13.944a128.524,128.524,0,0,1-7.115-16.035c-1.339-3.583-1.546-4.357-2.372-4.614a4.412,4.412,0,0,0-2.938.413c-.67.413-.567.98.129,5.233" transform="translate(-225.736 -24.787)" fill="#212121" fill-rule="evenodd"/>
    <path id="Path_47228" data-name="Path 47228" d="M1272.535,342.355a35.085,35.085,0,1,0-69.914-4.753q4.479,25.49,16.27,44.623a11.036,11.036,0,0,0,12.042,4.52l7.886-2.163q.927,15.466.928,15.466,25.117,1.238,33.1-14.849-.31-42.844-.31-42.844" transform="translate(-222.803 -3.061)" fill="#f9ba91" fill-rule="evenodd"/>
    <path id="Path_47229" data-name="Path 47229" d="M1261.024,431.383q.927,15.466.928,15.466a53.5,53.5,0,0,0,15.056-1.152l6.242-16.559a5.945,5.945,0,0,0-6.264-2.86l-15.962,5.1" transform="translate(-245.008 -49.864)" fill="#cf8263" fill-rule="evenodd"/>
    <path id="Path_47230" data-name="Path 47230" d="M997.954,934.378q-20.854,6.461-30.242-1.054l4.665-24.523a51.581,51.581,0,0,0,29.79,10.531l-4.213,15.045" transform="translate(-133.489 -233.362)" fill="#f9ba91" fill-rule="evenodd"/>
    <path id="Path_47231" data-name="Path 47231" d="M972.77,916.845l1.53-8.044a51.581,51.581,0,0,0,29.79,10.531l-1.293,4.617a43.523,43.523,0,0,1-30.028-7.1" transform="translate(-135.412 -233.362)" fill="#cf8263" fill-rule="evenodd"/>
    <path id="Path_47232" data-name="Path 47232" d="M909.447,994.272a91.419,91.419,0,0,0,22.71-3.6c12.077-3.271,34.373-11.1,45.172-17.6q5-3.011,6.843-6.254l-6.2-21.009c-5.5-4.978-16.534,6.05-28.75-.263a10.343,10.343,0,0,0-6.5-4.485q-16.811,27.079-26.8,38.421a11.824,11.824,0,0,0-6.477,14.791" transform="translate(-111.08 -245.627)" fill="#78b3b3" fill-rule="evenodd"/>
    <path id="Path_47233" data-name="Path 47233" d="M942.464,991.323q1.237-.311,2.5-.654c12.077-3.271,34.373-11.1,45.172-17.6q5-3.011,6.843-6.254l-6.2-21.009c-5.5-4.978-16.534,6.05-28.75-.263a10.343,10.343,0,0,0-6.5-4.485q-1.084,1.748-2.14,3.428Z" transform="translate(-123.89 -245.627)" fill="#699" fill-rule="evenodd"/>
    <path id="Path_47234" data-name="Path 47234" d="M909.447,1007.124a91.425,91.425,0,0,0,22.71-3.6c12.077-3.271,34.373-11.1,45.172-17.6q5-3.011,6.843-6.254l-1.418-4.807c-6.515,6.5-16.709,11.072-24.238,13.753-21.159,7.532-35.69,10.6-49.383,11.688a11.774,11.774,0,0,0,.314,6.82" transform="translate(-111.08 -258.479)" fill="#333" fill-rule="evenodd"/>
    <path id="Path_47235" data-name="Path 47235" d="M942.464,1004.176q1.237-.311,2.5-.654c12.077-3.271,34.373-11.1,45.172-17.6q5-3.011,6.843-6.254l-1.418-4.807c-6.515,6.5-16.709,11.072-24.238,13.753a250.7,250.7,0,0,1-27.139,8.177Z" transform="translate(-123.89 -258.479)" fill="#212121" fill-rule="evenodd"/>
    <path id="Path_47236" data-name="Path 47236" d="M1121.361,716.408q30.721,36.08,89.7,45.624,1.23,56.507-170.654-5.233l-33.955,86.721a55.917,55.917,0,0,1-37.7-13.864q13.228-44.027,33.383-109.2,7.492-19.031,34.156-18.045a537.468,537.468,0,0,1,85.064,13.994" transform="translate(-133.887 -154.874)" fill="#a5bc88" fill-rule="evenodd"/>
    <path id="Path_47237" data-name="Path 47237" d="M1067.349,771.469a4.895,4.895,0,0,1-4.635,2.732q-11.97-11.989-10.349-18.314a66.384,66.384,0,0,0,14.984,15.582" transform="translate(-165.601 -175.223)" fill="#899e70" fill-rule="evenodd"/>
    <path id="Path_47238" data-name="Path 47238" d="M1208.3,723.432q30.721,36.08,89.7,45.624a29.044,29.044,0,0,1-1.019,8.632h0q-6.568,23.055-55.5,17.171,24.4-1.065,43.951-12.865a4.1,4.1,0,0,0-2.377-6.375h.01q-58.268-10.838-85.649-54.777,5.466,1.237,10.886,2.591" transform="translate(-220.821 -161.898)" fill="#899e70" fill-rule="evenodd"/>
    <path id="Path_47239" data-name="Path 47239" d="M1127.373,623.943q1.172-9.319-.286-14.472a37.2,37.2,0,0,1-7.061-1.491l-11.536-4.833a7.722,7.722,0,0,0-4.769-.258l-6.057.387a7.162,7.162,0,0,0-4.382,1.224,25.107,25.107,0,0,0-10.054,7.154.918.918,0,0,0-.065,1.352,3.488,3.488,0,0,0,4.125,1l-3.675,3.611a1.275,1.275,0,0,0-.1,1.289q3.147,2.49,6.154-.483l3.9-2.191-1.418,2.158a1.172,1.172,0,0,0,.064,1.483q4.546,1.6,7.283-1.514a33.591,33.591,0,0,0,4.7.938,36.1,36.1,0,0,0,16.3,2.964,6.4,6.4,0,0,0,6.866,1.682" transform="translate(-177.283 -116.954)" fill="#f9ba91" fill-rule="evenodd"/>
    <path id="Path_47240" data-name="Path 47240" d="M1151.98,627.889q1.172-9.319-.286-14.472-1.43-.2-2.63-.41a16.826,16.826,0,0,0,.811,15.241,7.774,7.774,0,0,0,2.105-.359" transform="translate(-201.89 -120.899)" fill="#cf8263" fill-rule="evenodd"/>
    <path id="Path_47241" data-name="Path 47241" d="M1109.684,626.643l1.027.234,1.711-1.7a.445.445,0,0,0-.627-.632Z" transform="translate(-187.468 -125.237)" fill="#cf8263" fill-rule="evenodd"/>
    <path id="Path_47242" data-name="Path 47242" d="M1093.7,620.551l1-.558,1.405-1.8a4.707,4.707,0,0,1,1.216-.723,2.736,2.736,0,0,1,1.146-.193.612.612,0,0,0,.437-.15l.643-.425.138-.091.136-.09.134-.087.131-.087.13-.085.127-.084.125-.082.123-.081.12-.079.12-.078.115-.078.115-.075.112-.074.11-.073.107-.07.105-.071.1-.068.1-.066.1-.066.1-.065.095-.062.092-.061.09-.06.089-.059.085-.056.084-.056.082-.053.079-.053.078-.051.075-.049.073-.049.071-.047.067-.045.059-.038.523-.345h0l.028-.018.042-.028.041-.027.037-.026.036-.024.033-.022.032-.021.029-.019.027-.019.025-.017.024-.015.021-.013.017-.012.017-.01.015-.009.012-.009.009-.006.008,0,0,0,0,0h0l.223-.146a.616.616,0,0,0-.753-.975l-.794.522-7.388-.408a2.191,2.191,0,0,0-1.009.049l-8.418,5.054a3.4,3.4,0,0,0,2.556-.1l6.337-3.8,6.188.343-2.645,1.737q-2.69.6-4.569,4.46l-.006.012,0,.009,0,.008,0,.007,0,.006,0,0v0Z" transform="translate(-178.409 -120.713)" fill="#cf8263" fill-rule="evenodd"/>
    <path id="Path_47243" data-name="Path 47243" d="M1141.3,649.964a115.381,115.381,0,0,0-2.389,17.893,11.163,11.163,0,0,1-7.84-.161l-13.6-6.445a13.706,13.706,0,0,1-5.929-7.347l-3.935-4.927-4.383-1.965q-3.1.191-4-2.159a2.963,2.963,0,0,1-3.48-.451q-1.289-.982,0-1.836l2.319-1.32a4.411,4.411,0,0,1,2.707-3l6.737-3.672c2.073-.575,3.6-.224,5.991,1.287,1.656-.333,4.195-.238,8.311,1.033l3.835,1.227a12.391,12.391,0,0,1,5.864,2.385q5.293,5.083,9.786,9.454" transform="translate(-181.927 -129.001)" fill="#f9ba91" fill-rule="evenodd"/>
    <path id="Path_47244" data-name="Path 47244" d="M1165.079,658.983a115.366,115.366,0,0,0-2.389,17.893,13.4,13.4,0,0,1-4.932.583,25.565,25.565,0,0,1,6.349-19.422Z" transform="translate(-205.702 -138.02)" fill="#cf8263" fill-rule="evenodd"/>
    <path id="Path_47245" data-name="Path 47245" d="M1114.2,636.715a9.647,9.647,0,0,1,2.288-.154l6.875,3.768a.617.617,0,0,1-.594,1.083Zm-15.435,5.381a4.687,4.687,0,0,1,.834-1.643l5.781-2.2a.56.56,0,0,1,.108-.029,6.628,6.628,0,0,1,2.428-.182,9.215,9.215,0,0,1,2.741.806l.048.023,8.557,4.785a.616.616,0,0,1-.6,1.078l-8.54-4.775a7.963,7.963,0,0,0-2.344-.69,5.422,5.422,0,0,0-1.985.144Zm.609,3.838a2.826,2.826,0,0,1-2.451-.338l1.245-.495,4.7-1.888a4.5,4.5,0,0,1,1.842-.431,6.507,6.507,0,0,1,1.966.307l.017,0,3.384,1.112.034.012a6.129,6.129,0,0,1,2.6,1.945l3.636,3.348a.617.617,0,0,1-.835.907l-3.667-3.379a.485.485,0,0,1-.079-.084,4.967,4.967,0,0,0-2.1-1.585l-3.357-1.1a5.347,5.347,0,0,0-1.583-.252,3.3,3.3,0,0,0-1.351.322h0l-.032.014-3.415,1.354Z" transform="translate(-182.615 -129.851)" fill="#cf8263" fill-rule="evenodd"/>
    <path id="Path_47246" data-name="Path 47246" d="M1189.358,612.357c-15.281-1.071-23.717-1.586-22.529-1.547a2.583,2.583,0,0,0-2.19,1.546l-9.087-.516a2.29,2.29,0,0,0-2.061.741q-2.431,8.209.286,14.472a2.12,2.12,0,0,0,.961.875l9.778.985a6.338,6.338,0,0,0,2.062,2.964l23.392,3.77Z" transform="translate(-203.687 -120.063)" fill="#588282" fill-rule="evenodd"/>
    <path id="Path_47247" data-name="Path 47247" d="M1189.556,613.135l-4.032-.281q-1.635,5.367-1.9,15.4l-12.954-2.127q-.272-8.563-6.09-9.57a32.754,32.754,0,0,0-.484,8.264l-11.232-.617a17.1,17.1,0,0,0,1.112,3.629,2.121,2.121,0,0,0,.961.875l9.778.985a6.336,6.336,0,0,0,2.062,2.964l23.392,3.77Z" transform="translate(-203.884 -120.841)" fill="#406161" fill-rule="evenodd"/>
    <path id="Path_47248" data-name="Path 47248" d="M1169.775,631.828l1.284.13a48.381,48.381,0,0,1,.4-12.447.616.616,0,0,0-1.223-.154,50.289,50.289,0,0,0-.459,12.472" transform="translate(-210.23 -123.108)" fill="#333" fill-rule="evenodd"/>
    <path id="Path_47249" data-name="Path 47249" d="M1289.589,637.742q-2.5-107.643-5-148.629.119-38.79-20.366-55.168l-4.64-8.7a1.142,1.142,0,0,0-1.31-.581q-10.752,10.406-33.494,14.174a2.043,2.043,0,0,0-1.382,1.357q-.451,7.8-.45,7.8-8.955,5.121-9.249,21.4l-21.266,35.057c-6.01,11.169-5.176,21.892.49,31.861l1.063,26.712q-8.079,2.956-14.305,4.772a2.367,2.367,0,0,0-1.483,1.869q-6.362.492-8.6-.1a2.269,2.269,0,0,0-2,.744,23.048,23.048,0,0,0-2.323,17.822,1.505,1.505,0,0,0,1.256,1.21l12.343,1.613a3.015,3.015,0,0,0,1.74,2.514q11.559,1.645,19.142-.128-2.061,7.222-2.06,7.222a5.855,5.855,0,0,0,0,5.09q-1.612,3.028-1.611,3.029a1.886,1.886,0,0,0-.324,2.128q36.945,45.926,89.7,45.624a1.765,1.765,0,0,0,1.87-1.288q-.146-7.154-.195-12.5a5.77,5.77,0,0,0,2.453-4.9" transform="translate(-208.283 -49.275)" fill="#78b3b3" fill-rule="evenodd"/>
    <path id="Path_47250" data-name="Path 47250" d="M1184.729,685.307l1.238.162a95.614,95.614,0,0,1,.416-11.375.616.616,0,0,0-1.228-.112,97.5,97.5,0,0,0-.426,11.324" transform="translate(-215.991 -143.869)" fill="#333" fill-rule="evenodd"/>
    <path id="Path_47251" data-name="Path 47251" d="M1290.5,429.721q-10.648,7.881-29.8,11.054a2.043,2.043,0,0,0-1.382,1.357l-.415,7.174h0q19.785-.245,32.277-15.6a19.388,19.388,0,0,0-.682-3.989" transform="translate(-244.202 -51.213)" fill="#588282" fill-rule="evenodd"/>
    <path id="Path_47252" data-name="Path 47252" d="M1324.021,442.57a45.287,45.287,0,0,0-3.637-3.244l-.292-.548h0l-7.955,4.676q4.534,3.97,11.886-.883" transform="translate(-264.441 -54.656)" fill="#588282" fill-rule="evenodd"/>
    <path id="Path_47253" data-name="Path 47253" d="M1216.447,717.74l-1.268,2.386a1.886,1.886,0,0,0-.324,2.128q10.728,11.661,17.727,6.324-6.84-4.774-16.135-10.838" transform="translate(-227.381 -160.719)" fill="#588282" fill-rule="evenodd"/>
    <path id="Path_47254" data-name="Path 47254" d="M1276.554,771.205a104.5,104.5,0,0,0,51.537,12.7,1.765,1.765,0,0,0,1.87-1.288q-.135-6.672-.187-11.772-25.579-4.377-41.584-10.957a15.878,15.878,0,0,0-11.635,11.322" transform="translate(-250.913 -176.742)" fill="#588282" fill-rule="evenodd"/>
    <path id="Path_47255" data-name="Path 47255" d="M1211.257,603.055l.5,12.607,18.441-10.013.4-40.469-9.455,31.706c-.2.13-.4.255-.606.377Z" transform="translate(-226.086 -102.715)" fill="#588282" fill-rule="evenodd"/>
    <path id="Path_47256" data-name="Path 47256" d="M1219.481,630.779l-1.742,6.108a5.438,5.438,0,0,0-.459,3.615l22.2.1c21.847.1,42.947,1.691,43.77-29.263t.712-87.73a4.487,4.487,0,0,0-8.651-.287l-9.641,72.743q-2.166,23.815-19.408,27.9-7.8,2.559-26.786,6.812" transform="translate(-228.33 -85.601)" fill="#588282" fill-rule="evenodd"/>
    <path id="Path_47257" data-name="Path 47257" d="M1241.113,451.786l-.072,1.252c1.738-.2,3.518-.455,5.326-.751q3.053-.5,6.23-1.17a.617.617,0,0,0-.25-1.209q-3.153.665-6.179,1.161-2.568.419-5.055.717m64.129,197.36-.014-1.459a194.971,194.971,0,0,1-19.629-4.016,211.618,211.618,0,0,1-21.024-6.634.719.719,0,0,0-.5,1.347,213.221,213.221,0,0,0,21.167,6.678h0A197.174,197.174,0,0,0,1305.242,649.146Zm-89.459-38.45-.685,1.287q3.4,2.533,6.995,4.963,4.069,2.75,8.514,5.445a.718.718,0,1,0,.744-1.228q-4.3-2.606-8.452-5.411Q1219.23,613.272,1215.782,610.7Zm2.06-12.312-.459,1.607.87-.223c13.59-3.476,32.532-3.926,40.664-16.3,3.158-4.805,4.009-10.276,5.3-17.536l.006-.029.473-2.649h0l.005-.033,9.28-70.373a.719.719,0,1,0-1.426-.187L1263.276,563h0l-.474,2.649-.006.032c-1.233,6.942-2.046,12.2-4.983,16.79C1251.081,593,1229.326,595.446,1217.843,598.384Zm-5.765-30.318,18.693-10.129a19.7,19.7,0,0,1,7.7,2.2,23.5,23.5,0,0,1,6.8,5.523.719.719,0,0,0,1.087-.94,24.946,24.946,0,0,0-7.214-5.858,21.051,21.051,0,0,0-7.79-2.322l.438-82.107-1.455,2.394-.435,79.95-17.889,9.684Zm70.239-129.078-.586-1.1q-1.165.823-2.819,1.815-1.973,1.182-4.59,2.576a.616.616,0,1,0,.58,1.087q2.678-1.427,4.644-2.6C1280.615,440.124,1281.543,439.53,1282.317,438.989Z" transform="translate(-226.374 -54.319)" fill="#333" fill-rule="evenodd"/>
    <path id="Path_47258" data-name="Path 47258" d="M1207.83,307.084a37.151,37.151,0,0,0-9.258,16.76,69.518,69.518,0,0,0-2.133,19.3c.247,4.322,1.278,4.838,4.629,5.1a76.646,76.646,0,0,0,14.338-.434,95.435,95.435,0,0,0,13.08-2.85c2.8-.774,3.448-.938,3.9-1.678a9.035,9.035,0,0,0,.791-4.153c.068-2.1-.066-4.97-.134-6.868s-.075-2.821.494-.716,1.716,7.234,3.372,13.305,3.82,13.081,4.98,20.557a129.34,129.34,0,0,1,1.262,20.133c-.051,4.717-.308,6.212.1,7.424s1.495,2.138,5.671.489,11.446-5.878,18.483-10.362,13.843-9.229,17.219-12.3,3.326-4.459,2.372-9.228-2.81-12.915-5.208-20.88a105.629,105.629,0,0,0-9.074-22.194,45.034,45.034,0,0,0-13.481-15.055,40.884,40.884,0,0,0-17.25-6.3,46.014,46.014,0,0,0-18.55.86,34.756,34.756,0,0,0-15.61,9.092" transform="translate(-220.432 -0.592)" fill="#333" fill-rule="evenodd"/>
    <path id="Path_47259" data-name="Path 47259" d="M1093.92,1012.759a76.9,76.9,0,0,0,30.547-8.507l3.578,17.593a21.693,21.693,0,0,1-24.942,12.567s-3.061-7.219-9.183-21.654" transform="translate(-181.474 -269.653)" fill="#f9ba91" fill-rule="evenodd"/>
    <path id="Path_47260" data-name="Path 47260" d="M1093.92,1012.759a76.9,76.9,0,0,0,30.547-8.507l1.387,6.818a54.348,54.348,0,0,1-29.215,8.1Z" transform="translate(-181.474 -269.653)" fill="#cf8263" fill-rule="evenodd"/>
    <path id="Path_47261" data-name="Path 47261" d="M1112.9,1088.62c-8.373-30.933-10.965-49.057-10.965-49.057a9.48,9.48,0,0,1,10.638,1.932c7.036-.543,9.164-11.337,18.273-14.694q11.8,6.94,18.947,10.44,1.5,7.861-4.171,17.787c-9.41,25.648-15.709,41.131-15.709,41.131a24.485,24.485,0,0,1-13.147,14.887l-4.639-4.639q.773-17.788.773-17.787" transform="translate(-184.522 -278.226)" fill="#78b3b3" fill-rule="evenodd"/>
    <path id="Path_47262" data-name="Path 47262" d="M1112.9,1088.62c-8.373-30.933-10.965-49.057-10.965-49.057a9.48,9.48,0,0,1,10.638,1.932c7.036-.543,9.164-11.337,18.273-14.694l.8,65.011c-1.125,2.844-1.737,4.348-1.737,4.348a24.485,24.485,0,0,1-13.147,14.887l-4.639-4.639q.773-17.788.773-17.787" transform="translate(-184.522 -278.226)" fill="#699" fill-rule="evenodd"/>
    <path id="Path_47263" data-name="Path 47263" d="M1151.427,1039.832q2.513,1.331,4.621,2.364,1.5,7.861-4.171,17.788c-9.41,25.648-15.708,41.131-15.708,41.131A24.486,24.486,0,0,1,1123.021,1116l-4.639-4.639c10.969.457,15.973-20.815,27.487-51.867q4.921-12.6,5.558-19.662" transform="translate(-190.775 -283.181)" fill="#333" fill-rule="evenodd"/>
    <path id="Path_47264" data-name="Path 47264" d="M1137.905,1122.793c-1.125,2.844-1.737,4.348-1.737,4.348a24.485,24.485,0,0,1-13.147,14.887l-4.639-4.639c8.008.333,12.838-10.918,19.343-29.1Z" transform="translate(-190.775 -309.207)" fill="#212121" fill-rule="evenodd"/>
    <path id="Path_47265" data-name="Path 47265" d="M1087.522,827.611q14.923-11.43,31.391-22.652c-30.083-10.2-51.3-18.69-60.554-23.932l-18.685,11.013q-14.786,9.735-9.958,28.227l35.354,108.91a65.967,65.967,0,0,0,39.028-10.225Z" transform="translate(-156.612 -184.782)" fill="#899e70" fill-rule="evenodd"/>
    <path id="Path_47266" data-name="Path 47266" d="M1124.453,811.833q4.885-3.448,9.917-6.874c-30.083-10.2-51.3-18.69-60.554-23.932l-4.635,2.732q12.445,13.818,55.273,28.074" transform="translate(-172.068 -184.782)" fill="#798a64" fill-rule="evenodd"/>
    <path id="Path_47267" data-name="Path 47267" d="M1108.549,854.465l-.3-1.636a44.037,44.037,0,0,1-10.823-1,67.344,67.344,0,0,1-13.221-4.4.824.824,0,0,0-.664,1.508,69,69,0,0,0,13.545,4.5,45.473,45.473,0,0,0,11.461,1.029" transform="translate(-177.342 -210)" fill="#333" fill-rule="evenodd"/>
    <path id="Path_47268" data-name="Path 47268" d="M1091.243,779.722c9.567,3.754,21.8,8.985,34.917,13.353l-1.7,1.162c-12.741-4.311-24.557-9.348-33.817-12.982-22.248-8.732-27.641-8.766-42.9-30.185a.823.823,0,0,1,1.34-.954c14.922,20.942,19.812,20.827,42.162,29.605" transform="translate(-163.859 -172.898)" fill="#333"/>
    <path id="Path_47269" data-name="Path 47269" d="M1683.407,934.285q-11.915,20.921-29.877,26.635a160.7,160.7,0,0,1,37.12-144.767,230.283,230.283,0,0,1-7.243,118.132" transform="translate(-392.595 -198.137)" fill="#a5bc88" fill-rule="evenodd"/>
    <path id="Path_47270" data-name="Path 47270" d="M1683.408,976.786q-11.914,20.921-29.877,26.635a160.615,160.615,0,0,1,.34-75.485,121.013,121.013,0,0,1,34.872,30.224q-2.272,9.4-5.335,18.625" transform="translate(-392.596 -240.637)" fill="#899e70" fill-rule="evenodd"/>
    <path id="Path_47271" data-name="Path 47271" d="M1682.181,856.572a1.441,1.441,0,0,1,2.685,1.048,330.361,330.361,0,0,0-15.831,53.879,395.954,395.954,0,0,0-7.428,59.235,1.44,1.44,0,1,1-2.876-.148,398.865,398.865,0,0,1,7.484-59.663,333.171,333.171,0,0,1,15.965-54.352" transform="translate(-396.218 -213.155)" fill="#fff" fill-rule="evenodd"/>
    <path id="Path_47272" data-name="Path 47272" d="M1669.67,939.742q-.323,1.509-.635,3.021a395.954,395.954,0,0,0-7.428,59.235,1.44,1.44,0,1,1-2.876-.148,398.864,398.864,0,0,1,7.484-59.662q.444-2.159.913-4.3,1.284.912,2.542,1.858" transform="translate(-396.218 -244.42)" fill="#e6e6e6" fill-rule="evenodd"/>
    <path id="Path_47273" data-name="Path 47273" d="M1586.371,825.633c-26.365,34.927-23.6,85.663,1.147,114.494,21.347-30.029,17.934-87.351-1.147-114.494" transform="translate(-361.627 -201.741)" fill="#a5bc88" fill-rule="evenodd"/>
    <path id="Path_47274" data-name="Path 47274" d="M1568.233,902.088c-2.437,24.825,4.5,49.878,19.287,67.108,11.051-15.544,15.464-38.4,14.506-60.6a120.9,120.9,0,0,0-33.792-6.5" transform="translate(-361.629 -230.81)" fill="#899e70" fill-rule="evenodd"/>
    <path id="Path_47275" data-name="Path 47275" d="M1585.311,937.97q1.543,2.754,3.288,5.351-1.87-23.3-1.474-44.255A314.2,314.2,0,0,1,1591.1,853.6a1.439,1.439,0,1,0-2.841-.463,317.13,317.13,0,0,0-4.011,45.883q-.351,18.568,1.062,38.949" transform="translate(-367.874 -211.739)" fill="#fff" fill-rule="evenodd"/>
    <path id="Path_47276" data-name="Path 47276" d="M1585.311,957.615q1.543,2.754,3.288,5.351-1.87-23.3-1.474-44.255.142-7.493.574-14.69-1.423-.227-2.856-.421-.449,7.378-.594,15.067-.351,18.568,1.062,38.948" transform="translate(-367.874 -231.385)" fill="#e6e6e6" fill-rule="evenodd"/>
    <path id="Path_47277" data-name="Path 47277" d="M1399.5,972q16.538-29.858,30.972-26.134a127.177,127.177,0,0,0-51.134-56.753A95.838,95.838,0,0,0,1399.5,972" transform="translate(-289.092 -225.876)" fill="#a5bc88" fill-rule="evenodd"/>
    <path id="Path_47278" data-name="Path 47278" d="M1405.887,992.185q16.539-29.858,30.972-26.134a127.131,127.131,0,0,0-14.219-23.845,121.106,121.106,0,0,0-28.87,31.688,95.834,95.834,0,0,0,12.117,18.291" transform="translate(-295.479 -246.063)" fill="#899e70" fill-rule="evenodd"/>
    <path id="Path_47279" data-name="Path 47279" d="M1425.306,956.934a22.863,22.863,0,0,1,2.467-1.487q-3.5-6.024-6.993-11.754-10.783-17.681-21.512-32.507a1.441,1.441,0,0,0-2.333,1.691q10.681,14.761,21.388,32.315,3.488,5.72,6.983,11.743" transform="translate(-296.578 -234.042)" fill="#fff" fill-rule="evenodd"/>
    <path id="Path_47280" data-name="Path 47280" d="M1436.012,972.77a22.86,22.86,0,0,1,2.467-1.487q-3.5-6.024-6.993-11.754-2.26-3.707-4.517-7.286c-.725.653-1.442,1.319-2.15,1.99q2.1,3.343,4.21,6.8,3.488,5.721,6.983,11.743" transform="translate(-307.284 -249.879)" fill="#e6e6e6" fill-rule="evenodd"/>
    <path id="Path_47281" data-name="Path 47281" d="M1403.224,1087.622h0c48.079-4.906,78.471-2.222,103.032-9.974,29.288-9.242,50.292-33.324,64.845-68.144a218.65,218.65,0,0,0,11.414-35.693,106.3,106.3,0,1,0-179.291,113.81" transform="translate(-291.703 -237.664)" fill="#a5bc88" fill-rule="evenodd"/>
    <path id="Path_47282" data-name="Path 47282" d="M1530.011,995.135a2.062,2.062,0,1,1-2.062,2.062,2.063,2.063,0,0,1,2.062-2.062m-8.12-23.457a3.222,3.222,0,1,1-3.222,3.222A3.222,3.222,0,0,1,1521.891,971.678Zm-92.157,48.2a4.639,4.639,0,1,1-4.639,4.639A4.64,4.64,0,0,1,1429.734,1019.883Zm8.765-6.7a2.32,2.32,0,1,1-2.32,2.32A2.319,2.319,0,0,1,1438.5,1013.18Zm34.024,55.681a10.311,10.311,0,1,1-10.311,10.31A10.31,10.31,0,0,1,1472.524,1068.861Zm8.119-7.734a2.964,2.964,0,1,1-2.964,2.964A2.964,2.964,0,0,1,1480.643,1061.127Zm-12.373-6.444a2.706,2.706,0,1,1-2.707,2.707A2.706,2.706,0,0,1,1468.27,1054.683Zm-11.343,31.706a1.933,1.933,0,1,1-1.932,1.933A1.933,1.933,0,0,1,1456.927,1086.389Zm87.646-30.16a1.934,1.934,0,1,1-1.934,1.934A1.935,1.935,0,0,1,1544.573,1056.229Zm-2.449-11.859a3.867,3.867,0,1,1-3.866,3.866A3.867,3.867,0,0,1,1542.124,1044.371Zm-67.281-44.595a2.835,2.835,0,1,1-2.835,2.835A2.835,2.835,0,0,1,1474.843,999.776Zm-61.6,101.838c46.523-4.539,76.236-2.1,100.335-9.7,29.288-9.242,50.292-33.324,64.845-68.144a218.556,218.556,0,0,0,7.8-21.892,100.056,100.056,0,0,0-39.749-34.394,8.5,8.5,0,1,1-12.6-5.031,100.07,100.07,0,0,0-111.391,36.042,7.586,7.586,0,1,1-6.378,9.863A100.069,100.069,0,0,0,1413.24,1101.614Z" transform="translate(-299.021 -251.923)" fill="#899e70" fill-rule="evenodd"/>
    <path id="Path_47283" data-name="Path 47283" d="M1575.2,1113.441q1.816-.983,3.581-2.053l-5.929-11.657,7.329-30.652a2.053,2.053,0,0,0-3.994-.949l-6.205,25.956-14.316-28.151,4.82-26.346a2.055,2.055,0,0,0-4.043-.741l-3.85,21.044-14.331-28.182a2.061,2.061,0,0,0-3.674,1.868l9.925,19.517-15.37-3.509a2.055,2.055,0,0,0-.9,4.01l18.7,4.269,11.619,22.849-25.4-7.888a2.056,2.056,0,0,0-1.209,3.931l29.2,9.071,10.641,20.926-26.248-3.076a2.059,2.059,0,1,0-.467,4.092l28.958,3.393Z" transform="translate(-345.994 -279.664)" fill="#fff" fill-rule="evenodd"/>
    <path id="Path_47284" data-name="Path 47284" d="M740.151,934.485a119.387,119.387,0,0,1,50.588-1.775c-.808-42.1-16.2-90.749-41.184-124.65-14.757,35.039-17.7,80.286-10.944,118.6q.7,3.969,1.541,7.827" transform="translate(-45.073 -195.06)" fill="#a5bc88" fill-rule="evenodd"/>
    <path id="Path_47285" data-name="Path 47285" d="M741.27,997.161a119.387,119.387,0,0,1,50.588-1.775,202.875,202.875,0,0,0-1.584-21.38,118.027,118.027,0,0,0-52.166,4.56q.685,5.46,1.621,10.768.7,3.969,1.541,7.827" transform="translate(-46.192 -257.736)" fill="#899e70" fill-rule="evenodd"/>
    <path id="Path_47286" data-name="Path 47286" d="M783.794,951.643q1.541,0,3.085.044-.582-14.329-2.214-29.451a569.2,569.2,0,0,0-9.531-58.169,1.544,1.544,0,1,0-3.021.64,565.989,565.989,0,0,1,9.484,57.853q1.615,14.943,2.2,29.082" transform="translate(-59.108 -215.888)" fill="#fff" fill-rule="evenodd"/>
    <path id="Path_47287" data-name="Path 47287" d="M790.153,993.5q1.541,0,3.085.044-.41-10.109-1.343-20.614-1.545.021-3.09.084.933,10.445,1.349,20.485" transform="translate(-65.467 -257.743)" fill="#e6e6e6" fill-rule="evenodd"/>
    <path id="Path_47288" data-name="Path 47288" d="M733.886,997.157A119.3,119.3,0,0,1,872.1,1161.678c-58.33,1.242-97.09-13.632-120.89-40.216-26.422-29.515-34.406-73.462-24.159-107.36a108.06,108.06,0,0,1,6.831-16.944" transform="translate(-40.349 -265.559)" fill="#a5bc88" fill-rule="evenodd"/>
    <path id="Path_47289" data-name="Path 47289" d="M749.424,1110.5a6.476,6.476,0,1,1-6.476,6.476,6.476,6.476,0,0,1,6.476-6.476m67.959,30.74a3.479,3.479,0,1,1-3.479,3.479A3.479,3.479,0,0,1,817.382,1141.242Zm16.24,12.567a2.127,2.127,0,1,1-2.127,2.127A2.126,2.126,0,0,1,833.623,1153.809Zm-11.5-1.546a7.637,7.637,0,1,1-7.637,7.636A7.636,7.636,0,0,1,822.12,1152.262Zm-2.415-92.218a1.934,1.934,0,1,1-1.934,1.934A1.935,1.935,0,0,1,819.7,1060.045Zm23.2,24.747a2.514,2.514,0,1,1-2.514,2.514A2.514,2.514,0,0,1,842.9,1084.792Zm-10.537,4.06a14.4,14.4,0,1,1-14.4,14.4A14.4,14.4,0,0,1,832.368,1088.852Zm-94.638-34.993a2.514,2.514,0,1,1-2.514,2.514A2.514,2.514,0,0,1,737.73,1053.859Zm3.774-11.794a4.157,4.157,0,1,1-4.156,4.156A4.157,4.157,0,0,1,741.5,1042.065Zm20.733,37.45a1.987,1.987,0,1,1-1.988,1.988A1.987,1.987,0,0,1,762.237,1079.515Zm4.4-28.749a2.417,2.417,0,1,1-2.417,2.417A2.416,2.416,0,0,1,766.642,1050.767Zm-5.123,6.767a8.12,8.12,0,1,1-8.119,8.119A8.119,8.119,0,0,1,761.519,1057.534Zm103.735,118.314c-54.53-.03-91.186-14.755-114.04-40.285-23.57-26.328-32.465-64.139-26.84-96.058a106.008,106.008,0,0,1,98.6,7.068,6.09,6.09,0,0,0,9.884,6.986q3.609,2.873,7.015,6.1a105.667,105.667,0,0,1,32.968,75.609,6.283,6.283,0,1,0-1.612,12.356,6.192,6.192,0,0,0,1.041-.087A105.468,105.468,0,0,1,865.255,1175.848ZM747.1,1102.189a2.224,2.224,0,1,1-2.224,2.223A2.225,2.225,0,0,1,747.1,1102.189Z" transform="translate(-40.35 -279.66)" fill="#899e70" fill-rule="evenodd"/>
    <path id="Path_47290" data-name="Path 47290" d="M801.644,1189.928q-1.921-1.07-3.766-2.2l2.612-13.307-15.857-19.372a2.06,2.06,0,1,1,3.189-2.609l13.7,16.734,5.027-25.607-12.341-15.454a2.058,2.058,0,0,1,3.222-2.56l10.159,12.721,3.841-19.568a2.059,2.059,0,0,1,4.042.79l-6.378,32.494,18.4-7.869a2.057,2.057,0,1,1,1.612,3.786l-20.971,8.969-3.4,17.344-.021.107-1.283,6.533,23.545-8.629a2.059,2.059,0,1,1,1.417,3.866l-25.889,9.486Z" transform="translate(-63.705 -312.536)" fill="#fff" fill-rule="evenodd"/>
  </g>
</svg>
