<svg id="Group_20390" data-name="Group 20390" xmlns="http://www.w3.org/2000/svg" width="141.61" height="317.471" viewBox="0 0 141.61 317.471">
  <path id="Path_44112" data-name="Path 44112" d="M3740.4,417.7c8.626-2.45,18.3-11.919,17.857-31.109-.352-15.271-4.226-22.541-12.876-23.852-8.489-1.287-11.545,15.554-6.6,26.191s-2.63-26.976-14.146-24.278c-6.328,1.482-11.709,13.647-4.391,26.841s-2.786-17.594-14.277-15.347S3711.293,425.962,3740.4,417.7Z" transform="translate(-3679.261 -362.666)" fill="#e4b62c"/>
  <path id="Path_44113" data-name="Path 44113" d="M3853.137,565.69c5.612,1.448,14.9,4.453,25.862-7.879s14.387-25.35,7.537-28.775-18.5,4.8-20.554,15.76,15.756-21.24,5.48-23.981-15.756,10.277-16.442,21.239,9.592-15.072-.684-17.812S3837.208,561.579,3853.137,565.69Z" transform="translate(-3763.97 -457.208)" fill="#e4b62c"/>
  <path id="Path_44114" data-name="Path 44114" d="M3696.106,584.625c5.359-7.524,6.167-25.349-6.85-36.31s-28.091-13.018-21.241,6.166,2.742-4.8-7.535-2.742-11.648,13.7,10.276,23.979S3655,553.8,3646.094,568.183,3676.255,612.485,3696.106,584.625Z" transform="translate(-3644.793 -468.95)" fill="#e4b62c"/>
  <path id="Path_44115" data-name="Path 44115" d="M3831.24,726.91c4.672,4.056,17.037,5.261,23.979,2.055,20.041-9.249,29.29-27.747,17.813-30.144-10.5-2.194-21.923,9.59-30.144,19.867s34.941-17.984,23.636-39.565c-6.3-12.026-26.719,2.055-28.434,16.956-1.731,15.067,15.93-8.393,4.284-15.929S3810.517,708.926,3831.24,726.91Z" transform="translate(-3751.153 -549.574)" fill="#e4b62c"/>
  <path id="Path_44116" data-name="Path 44116" d="M3882.37,873.238c5.236,4.273,13.7,7.536,26.72,4.11s23.3-13.015,8.221-15.757-19.868,7.537-11.646,6.852,32.2-22.611,15.071-21.925-31.517,8.221-28.774,12.332,25.351-15.073,17.814-20.554S3868.438,861.866,3882.37,873.238Z" transform="translate(-3785.155 -647.258)" fill="#e4b62c"/>
  <path id="Path_44117" data-name="Path 44117" d="M3705.914,781.432c5.653-2.569,7.194-12.332,6.851-20.553-.715-17.127-13.019-32.2-14.387-2.056s8.346-3.771-4.795-13.7c-7.708-5.825-11.648,2.053-5.482,15.071s3.424-7.536-8.22-3.426S3684.734,791.058,3705.914,781.432Z" transform="translate(-3663.507 -589.708)" fill="#e4b62c"/>
  <path id="Path_44118" data-name="Path 44118" d="M3850.4,613.675c-2.636-1.625-4.282-4.113-4.968-9.594-.574-4.6,7.4-5.929,6.68.858s-2.652-2.6.857-2.742,8.7,4.237,2.368,9.309,2.77-7.6,8.251-1.429C3867.351,614.313,3858.447,618.641,3850.4,613.675Z" transform="translate(-3764.997 -505.021)" fill="#494546"/>
  <path id="Path_44119" data-name="Path 44119" d="M3789.7,492.308s13.017,35.627,8.221,60.292-26.032,125.375,9.593,204.164" transform="translate(-3730.165 -440.348)" fill="none" stroke="#494546" stroke-miterlimit="10" stroke-width="5.128"/>
  <path id="Path_44120" data-name="Path 44120" d="M3830.644,625.641s-10.277,15.416-21.924,17.471" transform="translate(-3743.018 -520.242)" fill="none" stroke="#494546" stroke-miterlimit="10" stroke-width="5.128"/>
  <path id="Path_44121" data-name="Path 44121" d="M3771.114,641.026s32.542,21.24,7.535,62.69" transform="translate(-3720.486 -529.461)" fill="none" stroke="#494546" stroke-miterlimit="10" stroke-width="5.128"/>
  <path id="Path_44122" data-name="Path 44122" d="M3812.852,789.744s-24.321,23.636-22.266,66.115" transform="translate(-3732.079 -618.574)" fill="none" stroke="#494546" stroke-miterlimit="10" stroke-width="5.128"/>
  <path id="Path_44123" data-name="Path 44123" d="M3750.6,827.353a252.791,252.791,0,0,1,17.812,70.567" transform="translate(-3708.193 -641.109)" fill="none" stroke="#494546" stroke-miterlimit="10" stroke-width="5.128"/>
  <path id="Path_44124" data-name="Path 44124" d="M3840.974,912.821s-37.684,9.591-32.885,63.716" transform="translate(-3742.388 -692.322)" fill="none" stroke="#494546" stroke-miterlimit="10" stroke-width="5.128"/>
  <path id="Path_44125" data-name="Path 44125" d="M3757.252,472.554c2.2-1.2,4.987-.3,6.743,1.367-.156-2.011.386-4.153,2.754-4.8,2.414-.659,5.939.277,7.174,2.794a5.063,5.063,0,0,1,3.439-3.667c5.513-1.632,8.205,12.3-6.3,15.854-4.3,1.052-10.543.707-14.408-3.733C3753.58,476.838,3753.736,474.464,3757.252,472.554Z" transform="translate(-3710.515 -425.852)" fill="#494546"/>
  <path id="Path_44126" data-name="Path 44126" d="M3742.988,624.817a6.619,6.619,0,0,1,2.893-1.882c-1.711-1.53-2.78-3.879-2.076-7.364.847-4.182,4.561-5.551,7.4-4.441a7.225,7.225,0,0,1,.639-1.524c3.335-5.945,12.454,2.615,6.83,14.948-1.269,2.78-5.267,6.5-7.773,7.1C3743.665,633.391,3739.365,628.754,3742.988,624.817Z" transform="translate(-3702.848 -509.476)" fill="#494546"/>
  <path id="Path_44127" data-name="Path 44127" d="M3831.133,765.917a7.419,7.419,0,0,1,1.981,5.38c1.33-.791,2.859-.988,4.028.523,1.875,2.419,1.694,4.372.578,5.728a3.866,3.866,0,0,1,2.284,1.493c3.209,4.141-7.667,8.588-12.6,2.165-1.737-2.263-4.8-5.983-3.483-11.014S3828.5,763.221,3831.133,765.917Z" transform="translate(-3751.939 -603.568)" fill="#494546"/>
  <path id="Path_44128" data-name="Path 44128" d="M3732.033,817.687a3.874,3.874,0,0,1-1.21-2.843c-.008-3.417,2.96-4.5,5.527-1.75a5.129,5.129,0,0,1,1.494-2.974c4.118-4.5,9.8,4.891,1.628,12.893-2.182,2.135-5.676,1.958-8.224,1.128C3726.334,822.538,3724.381,816.956,3732.033,817.687Z" transform="translate(-3694.002 -630.083)" fill="#494546"/>
  <path id="Path_44129" data-name="Path 44129" d="M3881.489,897.531c2.72-.089,5.748,1.1,4.038,4.042a14.121,14.121,0,0,1-2.233,2.933,3.232,3.232,0,0,1,2.6,2.758c.212,3.86-11.587,3.951-12.276-3.579a10.3,10.3,0,0,1,2.893-8.763C3879.179,892.424,3882.884,892.617,3881.489,897.531Z" transform="translate(-3781.869 -680.653)" fill="#494546"/>
</svg>
