<?xml version="1.0" encoding="utf-8"?>
<!-- Generator: Adobe Illustrator 24.1.2, SVG Export Plug-In . SVG Version: 6.00 Build 0)  -->
<svg version="1.1" id="Слой_1" xmlns="http://www.w3.org/2000/svg" xmlns:xlink="http://www.w3.org/1999/xlink" x="0px" y="0px"
	 width="848px" height="594.5px" viewBox="0 0 848 594.5" enable-background="new 0 0 848 594.5" xml:space="preserve">
<pattern  y="594.5" width="484.9" height="484.9" patternUnits="userSpaceOnUse" id="Screen_Shot_2020-03-27_at_5.41." viewBox="0 -484.9 484.9 484.9" overflow="visible">
	<g>
		<rect y="-484.9" fill="none" width="484.9" height="484.9"/>
		<g>
			<rect y="-484.9" fill="none" width="484.9" height="484.9"/>
		</g>
	</g>
</pattern>
<g id="Group_17209" transform="translate(3.041 3)">
	<rect x="-3" y="408.4" fill="#D1C38E" width="848" height="76.7"/>
	<ellipse id="Ellipse_1933" fill="#848484" cx="711.3" cy="422.8" rx="123.6" ry="4.9"/>
	<g id="Group_17196" transform="translate(592.408 386.217)">
		<path id="Path_48590" fill="#D57872" d="M8.8,0h223.1c1.6,0,3.1,0.5,4.4,1.3l3.9,2.6c2.2,1.5,3.6,4,3.6,6.7v18.7c0,4.4-3.6,8-8,8
			l0,0H4.9c-4.4,0-8-3.6-8-8l0,0V10.5c0-2.7,1.4-5.2,3.6-6.7l3.9-2.6C5.8,0.5,7.3,0,8.8,0z"/>
		<path id="Path_48591" fill="#B7B7B7" d="M240.2,3.9c0.9,0.6,1.7,1.4,2.3,2.4H-1.8c0.6-0.9,1.4-1.7,2.3-2.4l3.9-2.6
			C5.8,0.5,7.3,0,8.9,0H232c1.6,0,3.1,0.5,4.4,1.3L240.2,3.9z"/>
	</g>
	<g id="Group_17197" transform="translate(601.895 349.039)">
		<path fill="#75CC96" d="M243.1,7.3c-0.6-1.4-1.6-2.6-2.9-3.4l-3.9-2.6C235,0.5,233.5,0,231.9,0H8.8c-1.5,0-3,0.5-4.4,1.2L0.5,3.8
			c-2.2,1.5-3.6,4-3.6,6.7v18.8c0,4.4,3.6,8,8,8h230.9c3.2,0,6-1.9,7.3-4.7V7.3z"/>
		<path id="Path_48593" fill="#B7B7B7" d="M240.2,3.9c0.9,0.6,1.7,1.4,2.3,2.4H-1.8c0.6-0.9,1.4-1.7,2.3-2.4l3.9-2.6
			C5.8,0.5,7.3,0,8.8,0h223.1c1.6,0,3.1,0.5,4.4,1.3L240.2,3.9z"/>
	</g>
	<g id="Group_17198" transform="translate(582.503 312.419)">
		<path id="Path_48594" fill="#4D6882" d="M8.8,0h223.1c1.6,0,3.1,0.5,4.4,1.3l3.9,2.6c2.2,1.5,3.6,4,3.6,6.7v18.7c0,4.4-3.6,8-8,8
			l0,0H4.9c-4.4,0-8-3.6-8-8l0,0V10.5c0-2.7,1.4-5.2,3.6-6.7l3.9-2.6C5.8,0.5,7.3,0,8.8,0z"/>
		<path id="Path_48595" fill="#B7B7B7" d="M240.2,3.9c0.9,0.6,1.7,1.4,2.3,2.4H-1.8c0.6-0.9,1.4-1.7,2.3-2.4l3.9-2.6
			C5.8,0.5,7.3,0,8.8,0h223.1c1.6,0,3.1,0.5,4.4,1.3L240.2,3.9z"/>
	</g>
	<rect x="-3" y="485.1" fill="#938A66" width="848" height="32.8"/>
	<rect x="-3" y="517.9" fill="#938A66" width="848" height="73.6"/>
	<rect x="-3" y="517.9" fill="#695454" width="848" height="18.4"/>
	<g id="Group_17203" transform="translate(-3.041 251.788)">
		<ellipse id="Ellipse_1934" fill="#848484" cx="71.8" cy="214.3" rx="71.8" ry="4.9"/>
		<g id="Group_17199" transform="translate(86.189 52.02)">
			<path id="Path_48596" fill="#B4D0BE" d="M40.5,0c-2.6,9.4,10,37.2,3.8,55.6S27.6,82.3,27.6,82.3l-13.4-4.5L0.9,73.3
				c0,0-3.3-12.9,2.9-31.3S36.9,9,40.5,0z"/>
			<path id="Path_48597" fill="#B7B7B7" d="M14.2,77.8L0.9,73.3c0,0-3.3-12.9,2.9-31.3S36.9,9,40.5,0L14.2,77.8z"/>
		</g>
		<g id="Group_17200" transform="translate(23.868 78.46)">
			<path id="Path_48598" fill="#B4D0BE" d="M3.6,0C6,6.1,24.4,15.9,28.7,28.4s2.1,21.3,2.1,21.3l-9.1,3.1l-9.1,3.1
				c0,0-7.2-5.6-11.5-18.1S5.4,6.3,3.6,0z"/>
			<path id="Path_48599" fill="#B7B7B7" d="M21.7,52.8l-9.1,3.1c0,0-7.2-5.6-11.5-18.1S5.4,6.3,3.6,0L21.7,52.8z"/>
		</g>
		<g id="Group_17201" transform="translate(17.69 88.921)">
			<path id="Path_48600" fill="#B4D0BE" d="M3,0c2,5.1,17.4,13.3,21,23.7s1.7,17.8,1.7,17.8l-7.6,2.6l-7.6,2.6c0,0-6-4.7-9.6-15.1
				S4.5,5.3,3,0z"/>
			<path id="Path_48601" fill="#B7B7B7" d="M18.2,44.1l-7.6,2.6c0,0-6-4.7-9.6-15.1S4.5,5.3,3,0L18.2,44.1z"/>
		</g>
		<g id="Group_17202" transform="translate(38.65)">
			<path id="Path_48602" fill="#B4D0BE" d="M33.2,0C34,15.1,66.4,49.7,66.4,79.9c0,30.1-11.3,47.5-11.3,47.5H11.3
				c0,0-11.3-17.3-11.3-47.5S32.4,15.1,33.2,0z"/>
			<path id="Path_48603" fill="#B7B7B7" d="M33.2,127.3H11.3c0,0-11.3-17.3-11.3-47.5S32.4,15.1,33.2,0V127.3z"/>
		</g>
		<path id="Path_48604" fill="#8B5E3C" d="M130.5,119.9c-14.7,0-14.7,4.5-29.4,4.5s-14.7-4.5-29.4-4.5s-14.7,4.5-29.4,4.5
			s-14.7-4.5-29.4-4.5v10.9h117.5v-10.9H130.5z"/>
		<path id="Rectangle_14937" fill="#E0E0E0" d="M13.1,130.8h117.5l0,0v64.6c0,10.4-8.4,18.8-18.8,18.8H31.9
			c-10.4,0-18.8-8.4-18.8-18.8V130.8L13.1,130.8z"/>
		<rect id="Rectangle_14938" x="13.1" y="130.8" fill="#B7B7B7" width="117.5" height="7.2"/>
	</g>
	<g id="Group_17204" transform="translate(135.713 -3)">
		<ellipse id="Ellipse_1935" fill="#848484" cx="259" cy="430" rx="71.8" ry="4.9"/>
		<path id="Path_48605" fill="#E0E0E0" d="M218.1,410.8h81.8l-4.1-79.2h-73.6L218.1,410.8z"/>
		<path id="Path_48606" fill="#E0E0E0" d="M218.1,398.4l40.9,2.3l40.9-2.3c0,7.4,11,17.5,19.5,22c3.1,1.6,5.1,4.8,5.1,8.3v0.3h-131
			v-0.3c0-3.5,2-6.7,5.1-8.3C207.2,415.9,218.1,405.8,218.1,398.4z"/>
		<path id="Path_48607" fill="#B7B7B7" d="M297.2,357.9h-76.3l0.6-10.9h75.2L297.2,357.9z"/>
		<path id="Path_48608" fill="#E0E0E0" d="M521.1,273.5v46.1c0,15-12.2,27.2-27.2,27.2l0,0H24.2c-15,0-27.2-12.2-27.2-27.2l0,0
			v-46.1H521.1z"/>
		<path id="Path_48609" fill="#231F20" d="M24,0h470c15,0,27.1,12.1,27.1,27.1l0,0v246.5H-3V27.1C-3,12.1,9.1,0,24,0z"/>
		
			<pattern  id="Screen_Shot_2020-03-27_at_5.41.55_PM_1_" xlink:href="#Screen_Shot_2020-03-27_at_5.41." patternTransform="matrix(1 0 0 1 25.138 16844.3672)">
		</pattern>
		
			<rect id="Screen_Shot_2020-03-27_at_5.41.55_PM" x="16.6" y="22" fill="url(#Screen_Shot_2020-03-27_at_5.41.55_PM_1_)" width="484.9" height="231.5"/>
		<ellipse id="Ellipse_1936" fill="#B7B7B7" cx="262.3" cy="310.2" rx="11.1" ry="11.1"/>
	</g>
	<g id="Group_17207" transform="translate(184.731 439.559)">
		<ellipse id="Ellipse_1937" fill="#848484" cx="209.9" cy="26.6" rx="213" ry="4.9"/>
		<g id="Group_17206" transform="translate(0.575)">
			<path id="Path_48610" fill="#E0E0E0" d="M24.1,0h371.1l27.1,20.5H-3L24.1,0z"/>
			<path id="Path_48611" fill="#E0E0E0" d="M419.4,26.2H-0.1c-1.8-1.4-2.8-3.5-2.9-5.7h425.3C422.2,22.7,421.1,24.8,419.4,26.2z"/>
			<g id="Group_17205" transform="translate(10.781 3.615)">
				<path id="Path_48612" fill="#231F20" d="M292.2,6h-14.5l-2.8-6h13.9L292.2,6z"/>
				<path id="Path_48613" fill="#231F20" d="M308,6h-14.4l-3.4-6H304L308,6z"/>
				<path id="Path_48614" fill="#231F20" d="M213.7,0h14.1l1.1,6h-14.6L213.7,0z"/>
				<path id="Path_48615" fill="#231F20" d="M276.4,6h-14.5l-2.3-6h14L276.4,6z"/>
				<path id="Path_48616" fill="#231F20" d="M260.6,6H246l-1.7-6h14L260.6,6z"/>
				<path id="Path_48617" fill="#231F20" d="M229,0h14l1.7,6h-14.6L229,0z"/>
				<path id="Path_48618" fill="#231F20" d="M339.6,6h-14.3l-4.5-6h13.7L339.6,6z"/>
				<path id="Path_48619" fill="#231F20" d="M371.2,6H357l-5.6-6H365L371.2,6z"/>
				<path id="Path_48620" fill="#231F20" d="M323.8,6h-14.4l-3.9-6h13.8L323.8,6z"/>
				<path id="Path_48621" fill="#231F20" d="M378.6,13.3h-14.8l-5.6-6h14.3L378.6,13.3z"/>
				<path id="Path_48622" fill="#231F20" d="M213.1,6h-14.6V0h14.1L213.1,6z"/>
				<path id="Path_48623" fill="#231F20" d="M355.4,6h-14.2l-5.1-6h13.7L355.4,6z"/>
				<path id="Path_48624" fill="#231F20" d="M134.1,6h-14.5l2.8-6h14L134.1,6z"/>
				<path id="Path_48625" fill="#231F20" d="M86.5,6H72.2l4.5-6h13.8L86.5,6z"/>
				<path id="Path_48626" fill="#231F20" d="M70.7,6H56.4l5.1-6h13.7L70.7,6z"/>
				<path id="Path_48627" fill="#231F20" d="M54.8,6H40.6l5.6-6h13.7L54.8,6z"/>
				<path id="Path_48628" fill="#231F20" d="M102.4,6H88l3.9-6h13.9L102.4,6z"/>
				<path id="Path_48629" fill="#231F20" d="M24.8,6L31,0h13.6L39,6H24.8z"/>
				<path id="Path_48630" fill="#231F20" d="M181.6,6H167l1.1-6h14.1L181.6,6z"/>
				<path id="Path_48631" fill="#231F20" d="M165.8,6h-14.6l1.7-6h14L165.8,6z"/>
				<path id="Path_48632" fill="#231F20" d="M197.3,6h-14.4l0.6-6h13.9v6H197.3z"/>
				<path id="Path_48633" fill="#231F20" d="M150,6h-14.6l2.3-6h14L150,6z"/>
				<path id="Path_48634" fill="#231F20" d="M118.2,6h-14.5l3.4-6H121L118.2,6z"/>
				<path id="Path_48635" fill="#231F20" d="M342.2,7.2h14.3l5.6,6h-14.9L342.2,7.2z"/>
				<path id="Path_48636" fill="#231F20" d="M39.4,7.2h14.3l-5.1,6H33.8L39.4,7.2z"/>
				<path id="Path_48637" fill="#231F20" d="M87.2,7.2h14.5l-3.4,6H83.2L87.2,7.2z"/>
				<path id="Path_48638" fill="#231F20" d="M71.3,7.2h14.5l-3.9,6h-15L71.3,7.2z"/>
				<path id="Path_48639" fill="#231F20" d="M103.1,7.2h14.6l-2.8,6H99.7L103.1,7.2z"/>
				<path id="Path_48640" fill="#231F20" d="M119,7.2h14.6l-2.3,6h-15.2L119,7.2z"/>
				<path id="Path_48641" fill="#231F20" d="M55.4,7.2h14.4l-4.5,6h-15L55.4,7.2z"/>
				<path id="Path_48642" fill="#231F20" d="M5,7.2L5,7.2l16.8,0.1l-6.2,6H-3L5,7.2z"/>
				<path id="Path_48643" fill="#231F20" d="M372.9,6l-6.2-6h16.5l8,6H372.9z"/>
				<path id="Path_48644" fill="#231F20" d="M374.1,7.2h18.6l8,6h-20.4L374.1,7.2z"/>
				<path id="Path_48645" fill="#231F20" d="M134.9,7.2h14.7l-1.7,6h-15.2L134.9,7.2z"/>
				<path id="Path_48646" fill="#231F20" d="M23.5,7.2h14.3l-5.6,6H17.3L23.5,7.2z"/>
				<path id="Path_48647" fill="#231F20" d="M23,6H6.5l8-6h14.7L23,6z"/>
				<path id="Path_48648" fill="#231F20" d="M326.2,7.2h14.4l5.1,6h-15L326.2,7.2z"/>
				<path id="Path_48649" fill="#231F20" d="M262.3,7.2h14.6l2.8,6h-15.2L262.3,7.2z"/>
				<path id="Path_48650" fill="#231F20" d="M278.3,7.2h14.6l3.4,6h-15.2L278.3,7.2z"/>
				<path id="Path_48651" fill="#231F20" d="M246.3,7.2H261l2.3,6H248L246.3,7.2z"/>
				<path id="Path_48652" fill="#231F20" d="M294.2,7.2h14.5l3.9,6h-15.1L294.2,7.2z"/>
				<path id="Path_48653" fill="#231F20" d="M310.2,7.2h14.5l4.5,6h-15L310.2,7.2z"/>
				<path id="Path_48654" fill="#231F20" d="M230.4,7.2h14.7l1.7,6h-15.3L230.4,7.2z"/>
				<path id="Path_48655" fill="#231F20" d="M166.8,7.2h14.7l-0.6,6h-15.3L166.8,7.2z"/>
				<path id="Path_48656" fill="#231F20" d="M182.7,7.2h14.5v6h-15.1L182.7,7.2z"/>
				<path id="Path_48657" fill="#231F20" d="M214.4,7.2h14.7l1.1,6H215L214.4,7.2z"/>
				<path id="Path_48658" fill="#231F20" d="M150.9,7.2h14.7l-1.1,6h-15.3L150.9,7.2z"/>
				<path id="Path_48659" fill="#231F20" d="M198.5,7.2h14.7l0.6,6h-15.3V7.2z"/>
			</g>
			<path id="Path_48660" fill="#B7B7B7" d="M419.4,26.2H-0.1c-1.8-1.4-2.8-3.5-2.9-5.7h425.3C422.2,22.7,421.1,24.8,419.4,26.2z"/>
		</g>
	</g>
	<g id="Group_17208" transform="translate(632.12 443.968)">
		<ellipse id="Ellipse_1938" fill="#848484" cx="26.3" cy="30.3" rx="29.4" ry="3.1"/>
		<path id="Rectangle_14942" fill="#E0E0E0" d="M9,0h34.6c6.7,0,12.1,5.4,12.1,12.1V30l0,0H-3l0,0V12.1C-3,5.4,2.4,0,9,0z"/>
	</g>
	<path id="Path_48661" fill="#B7B7B7" d="M598.9,378.2v-18.7c0-2.1,0.8-4.1,2.3-5.6l0.1-0.1c0.4-0.4,0.8-0.7,1.2-1l0,0l3.9-2.6
		c0.3-0.2,0.5-0.3,0.8-0.4c0.1,0,0.2-0.1,0.2-0.1c0.2-0.1,0.3-0.1,0.5-0.2h146l-89.1,36.6h-57.9
		C602.4,386.2,598.9,382.6,598.9,378.2L598.9,378.2z"/>
	<path id="Path_48662" fill="#B7B7B7" d="M589.4,415.4v-18.7c0-2.1,0.8-4.1,2.3-5.6l0.1-0.1c0.4-0.4,0.8-0.7,1.2-1l0,0l3.9-2.6
		c0.2-0.2,0.5-0.3,0.8-0.4c0.1,0,0.2-0.1,0.2-0.1c1.1-0.5,2.2-0.7,3.4-0.7h123.5l-96.3,37.2h-31.1
		C592.9,423.4,589.4,419.8,589.4,415.4L589.4,415.4z"/>
</g>
</svg>
