<?xml version="1.0" encoding="utf-8"?>
<!-- Generator: Adobe Illustrator 24.1.2, SVG Export Plug-In . SVG Version: 6.00 Build 0)  -->
<svg version="1.1" id="Group_17058" xmlns="http://www.w3.org/2000/svg" xmlns:xlink="http://www.w3.org/1999/xlink" x="0px"
	 y="0px" width="602px" height="422.6px" viewBox="0 0 602 422.6" enable-background="new 0 0 602 422.6" xml:space="preserve">
<path id="Path_44803" opacity="0.6" fill="#BDD8E6" enable-background="new    " d="M599.6,210.6c-1.7,8.4-4.2,16.7-7.2,24.7
	c0,0.1,0,0.1-0.1,0.2c-0.3,0.7-0.5,1.4-0.8,2c-1.8,4.7-4,9.5-6.4,14.5c-1.3,2.7-2.7,5.5-4.2,8.2c-0.8,1.5-1.6,3-2.5,4.6
	c-9.1,16.2-19.5,31.7-31.1,46.4c-0.6,0.7-1.1,1.4-1.7,2.1c-0.1,0.1-0.2,0.3-0.3,0.4c-0.4,0.6-0.9,1.1-1.3,1.7
	c-0.1,0.2-0.3,0.3-0.4,0.5c-0.5,0.6-0.9,1.2-1.4,1.7c-0.9,1.1-1.8,2.1-2.7,3.2c-0.4,0.4-0.7,0.9-1.1,1.3c-0.1,0.1-0.2,0.2-0.3,0.3
	c-0.5,0.6-1,1.2-1.6,1.8c-0.7,0.8-1.4,1.6-2.2,2.4c-0.6,0.6-1.2,1.3-1.8,1.9c-0.5,0.6-1,1.1-1.6,1.7c-0.4,0.5-0.9,1-1.4,1.4
	c-0.1,0.1-0.2,0.2-0.3,0.3c-0.5,0.5-0.9,1-1.4,1.4c0,0-0.1,0.1-0.1,0.1c-0.5,0.5-1,1-1.5,1.5c-0.6,0.6-1.1,1.1-1.7,1.7
	c-0.7,0.7-1.3,1.3-2,1.9c0,0,0,0,0,0c-0.6,0.6-1.3,1.2-2,1.9c0,0-0.1,0.1-0.1,0.1c-0.5,0.5-1.1,1-1.6,1.5c-0.2,0.2-0.5,0.4-0.7,0.6
	c-0.6,0.5-1.2,1.1-1.8,1.6c-0.7,0.6-1.3,1.2-2,1.7c-0.1,0.1-0.2,0.2-0.4,0.3c-0.5,0.5-1.1,1-1.6,1.4l-0.4,0.3
	c-0.7,0.6-1.3,1.1-2,1.7c-0.7,0.6-1.4,1.2-2.1,1.8c-0.7,0.6-1.4,1.2-2.1,1.7c-0.5,0.4-1.1,0.9-1.6,1.3c-0.3,0.2-0.6,0.5-0.9,0.7
	c-0.5,0.4-1,0.8-1.5,1.2c-0.2,0.2-0.4,0.3-0.6,0.4c-0.7,0.5-1.3,1-2,1.5c-0.6,0.5-1.2,0.9-1.8,1.3c-0.3,0.2-0.6,0.4-0.9,0.6
	c-0.6,0.4-1.2,0.9-1.8,1.3s-1.2,0.9-1.8,1.3c-0.8,0.6-1.6,1.2-2.5,1.7c-0.4,0.2-0.7,0.5-1.1,0.7c-0.4,0.3-0.8,0.5-1.2,0.8l-0.7,0.5
	c-0.4,0.3-0.8,0.6-1.3,0.8l-1,0.7c-0.7,0.5-1.4,0.9-2.1,1.4c-0.7,0.5-1.4,0.9-2.1,1.4c-0.8,0.5-1.5,1-2.3,1.5
	c-0.7,0.5-1.5,0.9-2.2,1.4c-0.1,0-0.1,0.1-0.2,0.1c-0.8,0.5-1.5,0.9-2.3,1.4c-0.7,0.4-1.3,0.8-2,1.2c-0.2,0.1-0.3,0.2-0.5,0.3
	c-0.7,0.4-1.5,0.9-2.3,1.3c-0.7,0.4-1.3,0.7-2,1.1c-1.9,1.1-3.8,2.1-5.7,3.1c-0.7,0.4-1.3,0.7-2,1.1c-0.8,0.4-1.6,0.8-2.4,1.2
	l-0.1,0.1c-0.8,0.4-1.6,0.8-2.4,1.2c-1,0.5-2,1-3,1.5c-0.6,0.3-1.1,0.6-1.7,0.8c-0.2,0.1-0.4,0.2-0.6,0.3c-0.7,0.3-1.4,0.7-2.2,1
	c-1.7,0.8-3.3,1.5-5,2.3c0,0-0.1,0-0.1,0.1c-0.8,0.3-1.6,0.7-2.4,1l-0.1,0c-0.8,0.4-1.6,0.7-2.5,1.1c-1.5,0.6-3,1.3-4.6,1.9
	c-0.1,0-0.1,0.1-0.2,0.1c-0.5,0.2-0.9,0.4-1.4,0.5c-0.7,0.3-1.3,0.5-2,0.8c-0.7,0.3-1.4,0.5-2.1,0.8c-0.8,0.3-1.7,0.6-2.5,1
	c0,0,0,0,0,0c-0.9,0.3-1.7,0.6-2.6,0.9s-1.7,0.6-2.6,0.9c-0.8,0.3-1.7,0.6-2.5,0.9c0,0-0.1,0-0.1,0c-0.8,0.3-1.7,0.6-2.5,0.8
	c0,0-0.1,0-0.1,0c-0.9,0.3-1.7,0.6-2.6,0.9c-1.7,0.5-3.4,1.1-5,1.6c-0.2,0.1-0.4,0.1-0.6,0.2c-1.6,0.5-3.3,1-4.9,1.4
	c-3.2,0.9-6.3,1.8-9.5,2.6c-4.2,1.1-8.5,2.1-12.8,3c-1.1,0.2-2.1,0.5-3.2,0.7s-2.1,0.4-3.2,0.7c-2.2,0.4-4.3,0.8-6.5,1.2
	c-1.1,0.2-2.1,0.4-3.2,0.6c0,0,0,0-0.1,0c-1.1,0.2-2.1,0.4-3.2,0.5c-1.1,0.2-2.2,0.3-3.3,0.5s-2.2,0.3-3.3,0.5s-2.2,0.3-3.3,0.5
	c-1,0.1-2,0.3-2.9,0.4c-1.4,0.2-2.7,0.3-4.1,0.5c-0.8,0.1-1.6,0.2-2.4,0.3c-0.4,0-0.8,0.1-1.2,0.1c-0.8,0.1-1.6,0.2-2.5,0.3
	c-1,0.1-2.1,0.2-3.2,0.3l-0.2,0c-0.8,0.1-1.5,0.1-2.3,0.2c-0.2,0-0.5,0-0.7,0.1c-0.3,0-0.5,0-0.8,0.1c-3,0.2-6,0.4-9,0.6
	c-0.2,0-0.4,0-0.6,0c-0.7,0-1.5,0.1-2.2,0.1c-1,0.1-2.1,0.1-3.2,0.1c-0.6,0-1.1,0-1.7,0.1c-1.6,0.1-3.3,0.1-4.9,0.2
	c-0.4,0-0.8,0-1.3,0c-1,0-1.9,0-2.9,0.1c-1.2,0-2.4,0-3.7,0c-1,0-2,0-3,0c-19.8,0-39.7-1.4-59.3-4.2c-22.9-3.3-45.4-8.5-67.4-15.5
	c-14.4-4.7-28.5-10.2-42.2-16.7c-2.2-1.1-4.5-2.2-6.7-3.3c-40.3-20.3-72.8-47.5-91.6-79.6c0,0-10.6-17.8-19.2-45.8
	c-0.7-2.2-1.4-4.5-2-6.9c-0.7-2.5-1.4-5.1-2-7.8C2.2,222.7,0,204,0,185.1c0-4,0.2-8.1,0.5-12.2c1.1-17.6,4.8-34.9,10.8-51.4
	c2.2-6,4.7-11.9,7.5-17.6v0c4.5-9.1,9.7-17.9,15.6-26.1l0,0C39,71.2,44,65,49.3,59.1c5.5-6.1,11.3-11.9,17.4-17.4
	c0,0,15.1-11.5,40.5-22.4c7.8-3.4,15.9-6.4,24-8.9h0c27.7-8.6,62.6-14,101.2-7.3c11.1,1.9,22,4.8,32.6,8.5c9.6,3.4,18.9,7.4,27.9,12
	c14.4,7.4,28.1,16.2,40.8,26.2c3,2.3,6,4.8,9,7.3c3.4,3.6,6.7,7.4,10,11.1c5.8,6.6,11.8,13.2,18.5,19.1c10.7,9.2,23.4,16.5,41,18.8
	c10.1,1.3,21.9,1,35.7-1.6c4.8-0.9,9.9-2.1,15.3-3.5c40.7-11.1,101.9,1.7,127.1,43.5C600.7,161.6,605.1,183.5,599.6,210.6z"/>
<path id="Path_44809" fill="#68C68C" d="M359.6,286.5c-0.5,0.5-0.9,1-1.4,1.6c-4.2,4.7-8.5,9.1-12.8,13.5c-0.4,0.4-0.8,0.8-1.2,1.2
	c-0.3,0.3-0.5,0.5-0.8,0.8c-0.5,0.4-0.9,0.9-1.4,1.3c-0.5,0.5-1.1,1-1.6,1.6c-0.4,0.4-0.8,0.7-1.2,1.1c-0.5,0.4-0.9,0.9-1.4,1.3
	c-3.4,3.2-6.7,6.2-10.2,9.2c-0.9,0.8-1.7,1.5-2.6,2.2c-1,0.8-1.9,1.6-2.9,2.4c-0.5,0.4-0.9,0.8-1.4,1.1c-0.3,0.2-0.5,0.4-0.8,0.6
	c-0.5,0.4-1,0.8-1.5,1.2c-0.3,0.3-0.7,0.5-1,0.8c-0.4,0.3-0.8,0.6-1.2,1c-0.3,0.2-0.6,0.5-0.9,0.7c-0.5,0.4-1,0.8-1.5,1.2
	c-0.2,0.2-0.5,0.4-0.7,0.5c-0.4,0.3-0.9,0.7-1.3,1c-0.5,0.4-1,0.8-1.5,1.1c-1,0.8-2,1.5-3,2.2s-2,1.5-2.9,2.2
	c-6.3,4.6-12.6,8.9-19,13c-0.4,0.3-0.8,0.5-1.3,0.8c-0.6,0.4-1.3,0.8-1.9,1.2c-0.5,0.3-1.1,0.7-1.6,1c-0.5,0.3-1.1,0.7-1.6,1
	s-1.1,0.7-1.6,1c-2.2,1.3-4.4,2.7-6.6,3.9c-0.5,0.3-1,0.6-1.4,0.8l-1.6,0.9l-1.6,0.9c-1.1,0.6-2.1,1.2-3.2,1.8
	c-1.1,0.6-2.2,1.2-3.2,1.8c-0.5,0.3-1.1,0.6-1.6,0.9c-1.1,0.6-2.2,1.1-3.2,1.7c-0.5,0.3-1.1,0.6-1.6,0.8c-5.3,2.7-10.5,5.3-15.8,7.8
	c-0.5,0.2-1,0.5-1.5,0.7c-0.5,0.2-1,0.5-1.5,0.7c-0.5,0.2-1.1,0.5-1.6,0.7c-0.5,0.2-1,0.5-1.5,0.7c-1.3,0.6-2.6,1.2-3.9,1.7
	c-0.5,0.2-1,0.5-1.5,0.7l-0.6,0.3c-0.5,0.2-1,0.4-1.5,0.7c-1,0.4-2,0.9-3,1.3c-3.5,1.5-7.1,2.9-10.6,4.3c-0.3,0.1-0.7,0.3-1,0.4
	c-1.2,0.5-2.3,0.9-3.5,1.3c-0.5,0.2-1,0.4-1.5,0.6c-1,0.4-2,0.8-3,1.1c-1.3,0.5-2.6,0.9-3.8,1.4c-7.6,2.7-15.1,5.2-22.5,7.4
	c-0.5,0.1-1,0.3-1.4,0.4c-1,0.3-1.9,0.6-2.9,0.8c-14.4-4.7-28.5-10.2-42.2-16.7c-43.4-20.6-78.4-49-98.2-82.9
	c0,0-10.6-17.8-19.2-45.8c-6-19.5-11-43.9-10.8-70.6c29.4-4,125.6-11.9,239.9,34.3c4.8,1.9,9.6,4,14.5,6.1l0,0
	c17.3,7.6,34.2,16.1,50.6,25.5C323.9,261.8,342.1,273.6,359.6,286.5z"/>
<path id="Path_44810" fill="#75CC96" d="M359.6,286.5c-0.5,0.5-0.9,1-1.4,1.6c-4.2,4.7-8.5,9.1-12.8,13.5c-0.4,0.4-0.8,0.8-1.2,1.2
	c-0.3,0.3-0.5,0.5-0.8,0.8c-0.5,0.4-0.9,0.9-1.4,1.3c-0.5,0.5-1.1,1-1.6,1.6c-0.4,0.4-0.8,0.7-1.2,1.1c-0.5,0.4-0.9,0.9-1.4,1.3
	c-3.4,3.2-6.7,6.2-10.2,9.2c-0.9,0.8-1.7,1.5-2.6,2.2c-1,0.8-1.9,1.6-2.9,2.4c-0.5,0.4-0.9,0.8-1.4,1.1c-0.3,0.2-0.5,0.4-0.8,0.6
	c-0.5,0.4-1,0.8-1.5,1.2c-0.3,0.3-0.7,0.5-1,0.8c-0.4,0.3-0.8,0.6-1.2,1c-0.3,0.2-0.6,0.5-0.9,0.7c-0.5,0.4-1,0.8-1.5,1.2
	c-0.2,0.2-0.5,0.4-0.7,0.5c-0.4,0.3-0.9,0.7-1.3,1c-0.5,0.4-1,0.8-1.5,1.1c-1,0.8-2,1.5-3,2.2s-2,1.5-2.9,2.2
	c-6.3,4.6-12.6,8.9-19,13c-0.4,0.3-0.8,0.5-1.3,0.8c-0.6,0.4-1.3,0.8-1.9,1.2c-0.5,0.3-1.1,0.7-1.6,1c-0.5,0.3-1.1,0.7-1.6,1
	s-1.1,0.7-1.6,1c-2.2,1.3-4.4,2.7-6.6,3.9c-0.5,0.3-1,0.6-1.4,0.8l-1.6,0.9c-0.5,0.3-1.1,0.6-1.6,0.9c-1.1,0.6-2.1,1.2-3.2,1.8
	s-2.2,1.2-3.2,1.8c-0.5,0.3-1.1,0.6-1.6,0.9c-1.1,0.6-2.2,1.1-3.2,1.7c-0.5,0.3-1.1,0.6-1.6,0.8c-5.3,2.7-10.5,5.3-15.8,7.8
	c-0.5,0.2-1,0.5-1.5,0.7c-0.5,0.2-1,0.5-1.5,0.7c-0.5,0.2-1.1,0.5-1.6,0.7c-0.5,0.2-1,0.5-1.5,0.7c-1.3,0.6-2.6,1.2-3.9,1.7
	c-0.5,0.2-1,0.5-1.5,0.7l-0.6,0.3c-0.5,0.2-1,0.4-1.5,0.7c-1,0.4-2,0.9-3,1.3c-3.5,1.5-7.1,2.9-10.6,4.3c-0.3,0.1-0.7,0.3-1,0.4
	c-1.2,0.5-2.3,0.9-3.5,1.3c-0.5,0.2-1,0.4-1.5,0.6c-1,0.4-2,0.8-3,1.1c-1.3,0.5-2.6,0.9-3.8,1.4c-7.6,2.7-15.1,5.2-22.5,7.4
	c-0.5,0.1-1,0.3-1.4,0.4c-1,0.3-1.9,0.6-2.9,0.8c-14.4-4.7-28.5-10.2-42.2-16.7c-43.4-20.6-78.4-49-98.2-82.9
	c0,0-10.6-17.8-19.2-45.8c3.4,0.8,6.6,1.5,9.6,2.3c22.8,5.7,36.1,23.9,56.9,33.4c24.8,11.3,59.4,1.8,83-8.8
	c30.1-13.5,55.1-28.5,89-30c18.6-0.8,37.2-1.3,55.7-1.6C323.9,261.8,342.1,273.6,359.6,286.5z"/>
<path id="Path_44811" fill="#66BA86" d="M254.4,225.5c-4.9-0.7-10-2.3-14.4-3.3c-25.5-5.9-50.4-8-76.6-8c-39.3,0-72.1,8.2-108.8,21
	c-15.4,5.3-31.6,7.2-47.8,5.8C2.2,222.7,0,204,0,185.1c29.4-4,125.6-11.9,239.9,34.3C244.7,221.3,249.5,223.4,254.4,225.5z"/>
<path id="Path_44818" fill="#68C68C" d="M591.3,235.3c0,0.1,0,0.1-0.1,0.2c-8.5,22.3-22.9,47.5-44.9,75.7
	c-37.8,48.6-89.6,79.4-146.3,95.6c-75.7-1-172.9-8.4-271.1-31.8c-0.5-0.1-1-0.2-1.5-0.4c0.1-0.2,0.3-0.3,0.4-0.5
	c29.5-33.6,59.7-60.5,89.8-82.1c38.2-27.3,76.4-45.8,113-58c80.4-26.8,153.3-22.9,203-13.9C553.2,223.7,572.5,228.7,591.3,235.3z"/>
<path id="Path_44819" fill="#75CC96" d="M592.3,235.5c-8.5,22.3-22.9,47.5-44.9,75.7c-0.6,0.7-1.1,1.4-1.7,2.1
	c-0.1,0.1-0.2,0.3-0.3,0.4c-0.4,0.6-0.9,1.1-1.3,1.7c-0.1,0.2-0.3,0.3-0.4,0.5c-0.5,0.6-0.9,1.2-1.4,1.7c-0.9,1.1-1.8,2.1-2.7,3.2
	c-0.4,0.4-0.7,0.9-1.1,1.3c-0.1,0.1-0.2,0.2-0.3,0.3c-0.5,0.6-1,1.2-1.6,1.8c-0.7,0.8-1.4,1.6-2.2,2.4c-0.6,0.6-1.2,1.3-1.8,1.9
	c-0.5,0.6-1,1.1-1.6,1.7c-0.4,0.5-0.9,1-1.4,1.4c-0.1,0.1-0.2,0.2-0.3,0.3c-0.5,0.5-0.9,1-1.4,1.4c0,0-0.1,0.1-0.1,0.1
	c-0.5,0.5-1,1-1.5,1.5c-0.6,0.6-1.1,1.1-1.7,1.7c-0.7,0.7-1.3,1.3-2,1.9c0,0,0,0,0,0c-0.6,0.6-1.3,1.2-2,1.9c0,0-0.1,0.1-0.1,0.1
	c-0.5,0.5-1.1,1-1.6,1.5c-0.2,0.2-0.5,0.4-0.7,0.6c-0.6,0.5-1.2,1.1-1.8,1.6c-0.7,0.6-1.3,1.2-2,1.7c-0.1,0.1-0.2,0.2-0.4,0.3
	c-0.5,0.5-1.1,1-1.6,1.4l-0.4,0.3c-0.7,0.6-1.3,1.1-2,1.7c-0.7,0.6-1.4,1.2-2.1,1.8c-0.7,0.6-1.4,1.2-2.1,1.7
	c-0.5,0.4-1.1,0.9-1.6,1.3c-0.3,0.2-0.6,0.5-0.9,0.7c-0.5,0.4-1,0.8-1.5,1.2c-0.2,0.2-0.4,0.3-0.6,0.4c-0.7,0.5-1.3,1-2,1.5
	c-0.6,0.5-1.2,0.9-1.8,1.3c-0.3,0.2-0.6,0.4-0.9,0.6c-0.6,0.4-1.2,0.9-1.8,1.3s-1.2,0.9-1.8,1.3c-0.8,0.6-1.6,1.2-2.5,1.7
	c-0.4,0.2-0.7,0.5-1.1,0.7c-0.4,0.3-0.8,0.5-1.2,0.8l-0.7,0.5c-0.4,0.3-0.8,0.6-1.3,0.8l-1,0.7c-0.7,0.5-1.4,0.9-2.1,1.4
	c-0.7,0.5-1.4,0.9-2.1,1.4c-0.8,0.5-1.5,1-2.3,1.5c-0.7,0.5-1.5,0.9-2.2,1.4c-0.1,0-0.1,0.1-0.2,0.1c-0.8,0.5-1.5,0.9-2.3,1.4
	c-0.7,0.4-1.3,0.8-2,1.2c-0.2,0.1-0.3,0.2-0.5,0.3c-0.7,0.4-1.5,0.9-2.3,1.3c-0.7,0.4-1.3,0.7-2,1.1c-1.9,1.1-3.8,2.1-5.7,3.1
	c-0.7,0.4-1.3,0.7-2,1.1c-0.8,0.4-1.6,0.8-2.4,1.2l-0.1,0.1c-0.8,0.4-1.6,0.8-2.4,1.2c-1,0.5-2,1-3,1.5c-0.6,0.3-1.1,0.6-1.7,0.8
	c-0.2,0.1-0.4,0.2-0.6,0.3c-0.7,0.3-1.4,0.7-2.2,1c-1.7,0.8-3.3,1.5-5,2.3c0,0-0.1,0-0.1,0.1c-0.8,0.3-1.6,0.7-2.4,1l-0.1,0
	c-0.8,0.4-1.6,0.7-2.5,1.1c-1.5,0.6-3,1.3-4.6,1.9c-0.1,0-0.1,0.1-0.2,0.1c-0.5,0.2-0.9,0.4-1.4,0.5c-0.7,0.3-1.3,0.5-2,0.8
	c-0.7,0.3-1.4,0.5-2.1,0.8c-0.8,0.3-1.7,0.6-2.5,1c0,0,0,0,0,0c-0.9,0.3-1.7,0.6-2.6,0.9s-1.7,0.6-2.6,0.9c-0.8,0.3-1.7,0.6-2.5,0.9
	c0,0-0.1,0-0.1,0c-0.8,0.3-1.7,0.6-2.5,0.8c0,0-0.1,0-0.1,0c-0.9,0.3-1.7,0.6-2.6,0.9c-1.7,0.5-3.4,1.1-5,1.6
	c-0.2,0.1-0.4,0.1-0.6,0.2c-1.6,0.5-3.3,1-4.9,1.4c-3.2,0.9-6.3,1.8-9.5,2.6c-4.2,1.1-8.5,2.1-12.8,3c-1.1,0.2-2.1,0.5-3.2,0.7
	s-2.1,0.4-3.2,0.7c-2.2,0.4-4.3,0.8-6.5,1.2c-1.1,0.2-2.1,0.4-3.2,0.6c0,0,0,0-0.1,0c-1.1,0.2-2.1,0.4-3.2,0.5
	c-1.1,0.2-2.2,0.3-3.3,0.5s-2.2,0.3-3.3,0.5s-2.2,0.3-3.3,0.5c-1,0.1-2,0.3-2.9,0.4c-1.4,0.2-2.7,0.3-4.1,0.5
	c-0.8,0.1-1.6,0.2-2.4,0.3c-0.4,0-0.8,0.1-1.2,0.1c-0.8,0.1-1.6,0.2-2.5,0.3c-1,0.1-2.1,0.2-3.2,0.3l-0.2,0
	c-0.8,0.1-1.5,0.1-2.3,0.2c-0.2,0-0.5,0-0.7,0.1c-0.3,0-0.5,0-0.8,0.1c-3,0.2-6,0.4-9,0.6c-0.2,0-0.4,0-0.6,0
	c-0.7,0-1.5,0.1-2.2,0.1c-1,0.1-2.1,0.1-3.2,0.1c-0.6,0-1.1,0-1.7,0.1c-1.6,0.1-3.3,0.1-4.9,0.2c-0.4,0-0.8,0-1.3,0
	c-1,0-1.9,0-2.9,0.1c-1.2,0-2.4,0-3.7,0c-1,0-2,0-3,0c-19.8,0-39.7-1.4-59.3-4.2c-22.9-3.3-45.4-8.5-67.4-15.5
	c-14.4-4.7-28.5-10.2-42.2-16.7c-2.2-1.1-4.5-2.2-6.7-3.3c3.9-3.9,7.3-6.9,7.3-7c29.5-33.6,59.7-60.5,89.8-82.1
	c4.6,4.6,9.5,9,14.6,13.2c17.9,14.7,40.3,22.8,63,26.2c45.7,6.9,90.3-3.2,132.3-20.7c42.9-17.8,79.2-48.4,122.3-65.8
	C562.5,240.3,579,232.6,592.3,235.5z"/>
<path id="Path_44820" fill="#66BA86" d="M534.8,220.2c-25,3.5-47.4,13.2-70.2,23.3c-25.6,11.4-55.6,16.6-83.4,12.6
	c-7-1-35.8-11-49.3-22.1C412.2,207.4,485.1,211.2,534.8,220.2z"/>
<ellipse id="Ellipse_1867" fill="#75CC96" cx="272.9" cy="383.3" rx="247.4" ry="39.2"/>
<ellipse id="Ellipse_1868" fill="#68C68C" cx="270.4" cy="376.5" rx="230.6" ry="26.2"/>
<g id="Group_17055" transform="translate(0 0)">
	
		<rect id="Rectangle_14649" x="95.1" y="270.5" opacity="0.2" fill="#1A1718" enable-background="new    " width="15.7" height="2.8"/>
	<g id="Group_17054" transform="translate(21.228)">
		<path id="Path_47956" fill="#3A292C" d="M271.7,165.3L258.8,199l114.1,3.5h51.8l-12.8-37.2L271.7,165.3z"/>
		<g id="Group_17039" transform="translate(184.986 22.696)" opacity="0.3">
			<g>
				<defs>
					<polygon id="SVGID_1_" points="86.7,142.6 73.8,176.3 188,179.8 239.8,179.8 227.1,142.6 					"/>
				</defs>
				<clipPath id="SVGID_2_">
					<use xlink:href="#SVGID_1_"  overflow="visible"/>
				</clipPath>
				<g id="Group_17038" transform="translate(0)" clip-path="url(#SVGID_2_)">
					<rect id="Rectangle_14650" x="62.2" y="147.8" fill="#563B40" width="176.7" height="4.5"/>
					<rect id="Rectangle_14651" x="62.2" y="158.9" fill="#563B40" width="176.7" height="4.5"/>
					<rect id="Rectangle_14652" x="62.2" y="170.1" fill="#563B40" width="176.7" height="4.5"/>
				</g>
			</g>
		</g>
		<g id="Group_17040" transform="translate(0 72.869)">
			<path id="Path_47958" fill="#473135" d="M274.9,142.6H99.6l-25.7,49.3h201V142.6z"/>
		</g>
		<g id="Group_17042" transform="translate(0 72.869)" opacity="0.4">
			<g>
				<defs>
					<polygon id="SVGID_3_" points="274.9,142.6 99.6,142.6 73.8,191.8 274.9,191.8 					"/>
				</defs>
				<clipPath id="SVGID_4_">
					<use xlink:href="#SVGID_3_"  overflow="visible"/>
				</clipPath>
				<g id="Group_17041" clip-path="url(#SVGID_4_)">
					<rect id="Rectangle_14653" x="68.3" y="149.8" fill="#563B40" width="210.3" height="5.8"/>
					<rect id="Rectangle_14654" x="68.3" y="164.3" fill="#563B40" width="210.3" height="5.8"/>
					<rect id="Rectangle_14655" x="68.3" y="178.8" fill="#563B40" width="210.3" height="5.8"/>
				</g>
			</g>
		</g>
		<rect id="Rectangle_14656" x="330.7" y="202.5" fill="#EFEFEF" width="94.1" height="69.4"/>
		<g id="Group_17043" transform="translate(297.12 64.849)">
			<rect id="Rectangle_14657" x="76.3" y="146" fill="#282728" width="24.7" height="42.4"/>
			<rect id="Rectangle_14658" x="88" y="146" fill="#D0D3D3" width="1.4" height="42.5"/>
			<rect id="Rectangle_14659" x="76.3" y="157.7" fill="#D0D3D3" width="24.8" height="1.2"/>
			<rect id="Rectangle_14660" x="76.3" y="177.4" fill="#D0D3D3" width="24.8" height="1.2"/>
			<path id="Path_47960" opacity="0.2" fill="#1A1718" enable-background="new    " d="M73.8,142.6l2.5,3.4L101,146l2.6-3.5
				L73.8,142.6z"/>
			
				<rect id="Rectangle_14661" x="76.7" y="188.5" opacity="0.2" fill="#1A1718" enable-background="new    " width="23.9" height="13.6"/>
			<rect id="Rectangle_14662" x="77.6" y="187.6" fill="#E6DCBD" width="22.1" height="9.3"/>
		</g>
		<rect id="Rectangle_14663" x="73.8" y="264.7" fill="#EFEFEF" width="256.8" height="98.9"/>
		<path id="Path_47961" fill="#543A3F" d="M317.1,142.6l-73.3,59.9h146.5L317.1,142.6z"/>
		<rect id="Rectangle_14664" x="254.9" y="202.5" fill="#EFEFEF" width="124.4" height="62.2"/>
		<path id="Path_47962" fill="#EFEFEF" d="M317.1,147.4l-62.2,55h124.4L317.1,147.4z"/>
		<rect id="Rectangle_14665" x="214.2" y="279.1" fill="#B7BEC7" width="219.4" height="103.7"/>
		<rect id="Rectangle_14666" x="230.6" y="279.1" fill="#EFEFEF" width="185.5" height="103.7"/>
		<rect id="Rectangle_14667" x="243.9" y="304.4" fill="#282728" width="70.1" height="42.4"/>
		<rect id="Rectangle_14668" x="254" y="304.4" fill="#D0D3D3" width="1.4" height="42.5"/>
		<rect id="Rectangle_14669" x="265.9" y="304.4" fill="#D0D3D3" width="1.4" height="42.5"/>
		<rect id="Rectangle_14670" x="277.8" y="304.4" fill="#D0D3D3" width="1.4" height="42.5"/>
		<rect id="Rectangle_14671" x="289.8" y="304.4" fill="#D0D3D3" width="1.4" height="42.5"/>
		<rect id="Rectangle_14672" x="301.7" y="304.4" fill="#D0D3D3" width="1.4" height="42.5"/>
		<rect id="Rectangle_14673" x="243.7" y="316" fill="#D0D3D3" width="70.1" height="1.2"/>
		<rect id="Rectangle_14674" x="243.7" y="335.7" fill="#D0D3D3" width="70.1" height="1.2"/>
		<g id="Group_17044" transform="translate(170.25 203.33)">
			
				<rect id="Rectangle_14675" x="73.8" y="143.5" opacity="0.2" fill="#1A1718" enable-background="new    " width="69.6" height="13.6"/>
			<rect id="Rectangle_14676" x="76.5" y="142.6" fill="#E6DCBD" width="64.4" height="9.3"/>
		</g>
		<path id="Path_47963" opacity="0.2" fill="#1A1718" enable-background="new    " d="M278.9,301.3h-37.3l2.3,3.1H314l2.3-3.1H278.9
			z"/>
		<g id="Group_17046" transform="translate(255.245 165.279)">
			<path id="Path_47964" opacity="0.2" fill="#1A1718" enable-background="new    " d="M109,157.3c-0.1-8.2-7.9-14.8-17.6-14.8
				s-17.5,6.6-17.6,14.8l0,0v61.3H109l0-60.8L109,157.3z"/>
			<path id="Path_47965" fill="#232223" d="M107.2,158.8c0-7.8-7-14.1-15.6-14.1S76.1,151,76,158.8l0,0v58.3h31.2l0-58.1
				L107.2,158.8z"/>
			<g id="Group_17045" transform="translate(5.069 5.938)">
				<rect id="Rectangle_14677" x="88.1" y="187.8" fill="#3A292C" width="11.1" height="19.4"/>
				<rect id="Rectangle_14678" x="73.8" y="187.8" fill="#3A292C" width="11.6" height="19.4"/>
				<rect id="Rectangle_14679" x="73.8" y="165.2" fill="#3A292C" width="11.6" height="20.2"/>
				<path id="Path_47966" fill="#3A292C" d="M99.2,162.7l0-8l0-0.4c0-6-4.9-10.9-11.1-11.6v20L99.2,162.7z"/>
				<rect id="Rectangle_14680" x="88.1" y="165.2" fill="#3A292C" width="11.1" height="20.2"/>
				<path id="Path_47967" fill="#3A292C" d="M85.4,142.6c-6.5,0.5-11.5,5.5-11.6,11.7l0,0v8.4h11.6V142.6z"/>
			</g>
		</g>
		
			<rect id="Rectangle_14681" x="382.8" y="346.8" opacity="0.2" fill="#1A1718" enable-background="new    " width="14.5" height="13.6"/>
		<g id="Group_17047" transform="translate(308.966 161.23)">
			<rect id="Rectangle_14682" x="74.4" y="143.1" fill="#282728" width="13.3" height="42.5"/>
			<path id="Path_47968" fill="#D0D3D3" d="M88.3,186.2H73.9v-43.7h14.5L88.3,186.2z M75,185.1h12.2v-41.4H75V185.1z"/>
		</g>
		<rect id="Rectangle_14683" x="385.6" y="345.9" fill="#E6DCBD" width="9" height="9.3"/>
		<path id="Path_47969" opacity="0.2" fill="#1A1718" enable-background="new    " d="M382.8,303.7l-1.8-3.1h18l-1.7,3.1H382.8z"/>
		
			<rect id="Rectangle_14684" x="180.8" y="264.7" opacity="0.2" fill="#1A1718" enable-background="new    " width="45.2" height="2.8"/>
		
			<rect id="Rectangle_14685" x="214.2" y="279.1" opacity="0.2" fill="#1A1718" enable-background="new    " width="219.4" height="5.5"/>
		<path id="Path_47970" fill="#6C4A51" d="M225.4,264.7l-28.7,14.4h254.5l-21.5-14.4H225.4z"/>
		<g id="Group_17048" transform="translate(228.406 48.183)">
			<rect id="Rectangle_14686" x="76.3" y="146" fill="#282728" width="24.7" height="42.4"/>
			<rect id="Rectangle_14687" x="88" y="146" fill="#D0D3D3" width="1.4" height="42.5"/>
			<rect id="Rectangle_14688" x="76.3" y="157.7" fill="#D0D3D3" width="24.8" height="1.2"/>
			<rect id="Rectangle_14689" x="76.3" y="177.4" fill="#D0D3D3" width="24.8" height="1.2"/>
			<path id="Path_47971" opacity="0.2" fill="#1A1718" enable-background="new    " d="M73.9,142.6l2.5,3.4l24.6,0l2.6-3.5
				L73.9,142.6z"/>
			
				<rect id="Rectangle_14690" x="76.7" y="188.5" opacity="0.2" fill="#1A1718" enable-background="new    " width="23.9" height="13.6"/>
			<rect id="Rectangle_14691" x="77.6" y="187.6" fill="#E6DCBD" width="22.1" height="9.3"/>
		</g>
		<path id="Path_47972" fill="#282728" d="M321.9,171.6c0,2.7-2.2,4.8-4.8,4.8c-2.7,0-4.8-2.2-4.8-4.8c0-2.7,2.2-4.8,4.8-4.8
			C319.8,166.8,321.9,168.9,321.9,171.6z"/>
		<path id="Path_47973" opacity="0.2" fill="#1A1718" enable-background="new    " d="M254.9,202.5h8.2l54-50.2l53.8,50.1l8.4,0.1
			l-62.2-55L254.9,202.5z"/>
		<path id="Path_47974" fill="#6E4C53" d="M146.2,220.8l-45.6,43.9h91.2L146.2,220.8z"/>
		<rect id="Rectangle_14692" x="89.8" y="264.7" fill="#B7BEC7" width="113.5" height="98.9"/>
		<path id="Path_47975" fill="#B7BEC7" d="M146.3,227.4l-45.5,44.5h90.9L146.3,227.4z"/>
		<path id="Path_47976" fill="#EFEFEF" d="M146.3,233.6l-35.7,34.9H182L146.3,233.6z"/>
		<g id="Group_17051" transform="translate(36.753 143.66)">
			<g id="Group_17049">
				<rect id="Rectangle_14693" x="76.3" y="146" fill="#282728" width="24.7" height="42.4"/>
				<rect id="Rectangle_14694" x="88" y="146" fill="#D0D3D3" width="1.4" height="42.5"/>
				<rect id="Rectangle_14695" x="76.3" y="157.7" fill="#D0D3D3" width="24.8" height="1.2"/>
				<rect id="Rectangle_14696" x="76.3" y="177.4" fill="#D0D3D3" width="24.8" height="1.2"/>
				<path id="Path_47977" opacity="0.2" fill="#1A1718" enable-background="new    " d="M73.8,142.6l2.5,3.4L101,146l2.6-3.5H73.8z"
					/>
				
					<rect id="Rectangle_14697" x="76.7" y="188.5" opacity="0.2" fill="#1A1718" enable-background="new    " width="23.9" height="13.6"/>
				<rect id="Rectangle_14698" x="77.6" y="187.6" fill="#E6DCBD" width="22.1" height="9.3"/>
			</g>
			<g id="Group_17050" transform="translate(41.626)">
				<rect id="Rectangle_14699" x="76.3" y="146" fill="#282728" width="24.7" height="42.4"/>
				<rect id="Rectangle_14700" x="88" y="146" fill="#D0D3D3" width="1.4" height="42.5"/>
				<rect id="Rectangle_14701" x="76.4" y="157.7" fill="#D0D3D3" width="24.8" height="1.2"/>
				<rect id="Rectangle_14702" x="76.4" y="177.4" fill="#D0D3D3" width="24.8" height="1.2"/>
				<path id="Path_47978" opacity="0.2" fill="#1A1718" enable-background="new    " d="M73.8,142.6l2.5,3.4L101,146l2.6-3.5H73.8z"
					/>
				
					<rect id="Rectangle_14703" x="76.7" y="188.5" opacity="0.2" fill="#1A1718" enable-background="new    " width="23.9" height="13.6"/>
				<rect id="Rectangle_14704" x="77.6" y="187.6" fill="#E6DCBD" width="22.1" height="9.3"/>
			</g>
		</g>
		<path id="Path_47979" fill="#282728" d="M151.1,251c0,2.7-2.2,4.8-4.8,4.8c0,0,0,0,0,0c-2.7,0-4.8-2.2-4.8-4.8c0,0,0,0,0,0
			c0-2.7,2.2-4.8,4.8-4.8c0,0,0,0,0,0C149,246.2,151.1,248.4,151.1,251L151.1,251z"/>
		<g id="Group_17053" transform="translate(122.841 122.136)">
			<g>
				<defs>
					<polygon id="SVGID_5_" points="102.6,142.6 73.8,156.9 328.3,156.9 306.8,142.6 					"/>
				</defs>
				<clipPath id="SVGID_6_">
					<use xlink:href="#SVGID_5_"  overflow="visible"/>
				</clipPath>
				<g id="Group_17052" clip-path="url(#SVGID_6_)">
					<rect id="Rectangle_14705" x="53.7" y="144.2" fill="#563B40" width="286.4" height="1.9"/>
					<rect id="Rectangle_14706" x="53.7" y="148.8" fill="#563B40" width="286.4" height="1.9"/>
					<rect id="Rectangle_14707" x="53.7" y="153.5" fill="#563B40" width="286.4" height="1.9"/>
				</g>
			</g>
		</g>
	</g>
	<path id="Path_47981" fill="#B4D0BE" d="M73.8,363.6h161.6v5.1H73.8V363.6z"/>
	<rect id="Rectangle_14709" x="223.5" y="382.8" fill="#B4D0BE" width="253.5" height="5.7"/>
</g>
</svg>
