<svg id="Group_17704" data-name="Group 17704" xmlns="http://www.w3.org/2000/svg" width="511.147" height="373.946" viewBox="0 0 511.147 373.946">
  <g id="Group_17691" data-name="Group 17691" transform="translate(0 269.935)">
    <path id="Rectangle_15435" data-name="Rectangle 15435" d="M8.26,0H223.588a7.844,7.844,0,0,1,7.844,7.844v96.08a0,0,0,0,1,0,0H0a0,0,0,0,1,0,0V8.26A8.26,8.26,0,0,1,8.26,0Z" transform="translate(0)" fill="#b7bec7"/>
    <path id="Path_50257" data-name="Path 50257" d="M1080.621,785.274l-14.074,104.009,48.893-.21v-103.8Z" transform="translate(-919.458 -785.272)" opacity="0.2"/>
    <path id="Rectangle_15436" data-name="Rectangle 15436" d="M8.456,0H84.873a8.456,8.456,0,0,1,8.456,8.456v95.468a0,0,0,0,1,0,0H0a0,0,0,0,1,0,0V8.456A8.456,8.456,0,0,1,8.456,0Z" transform="translate(0)" opacity="0.2"/>
  </g>
  <g id="Group_17692" data-name="Group 17692" transform="translate(266.615 313.62)">
    <rect id="Rectangle_15437" data-name="Rectangle 15437" width="5.064" height="7.043" transform="translate(36.062 1.746)" fill="#7792aa"/>
    <path id="Rectangle_15438" data-name="Rectangle 15438" d="M0,0H4.276a.875.875,0,0,1,.875.875V11a.875.875,0,0,1-.875.875H0a0,0,0,0,1,0,0V0A0,0,0,0,1,0,0Z" transform="translate(63.042 0)" fill="#7792aa"/>
    <path id="Path_50258" data-name="Path 50258" d="M1303.838,854.387v9.953a.961.961,0,0,0,.961.961h29.51a.96.96,0,0,0,.96-.961v-9.953a.96.96,0,0,0-.96-.961H1304.8A.961.961,0,0,0,1303.838,854.387Zm26.4,8.585h-21.362a.961.961,0,0,1-.961-.96v-5.3a.961.961,0,0,1,.961-.96h21.362a.961.961,0,0,1,.961.96v5.3A.961.961,0,0,1,1330.235,862.972Z" transform="translate(-1271.268 -853.426)" fill="#4d6882"/>
    <path id="Path_50259" data-name="Path 50259" d="M1334.049,918.388h-81.025l6.5-48.42a4.184,4.184,0,0,1,4.147-3.628h63.395Z" transform="translate(-1253.024 -858.063)" fill="#2e4354"/>
    <path id="Path_50260" data-name="Path 50260" d="M1381.541,918.388h-46.1l6.495-48.395a4.213,4.213,0,0,1,4.176-3.654h24.758a4.214,4.214,0,0,1,4.177,3.654Z" transform="translate(-1282.615 -858.063)" fill="#4d6882"/>
  </g>
  <g id="Group_17694" data-name="Group 17694" transform="translate(84.291 74.726)">
    <path id="Path_50261" data-name="Path 50261" d="M1065.743,594.782a57.2,57.2,0,0,1,8.14,13.512c2.794,7.1-6.17,7.782-6.17,7.782Z" transform="translate(-1003.459 -521.67)" fill="#ffc91d"/>
    <path id="Path_50262" data-name="Path 50262" d="M1086.3,701.752l20.712,9.067-1.624,5.218h-17.123Z" transform="translate(-1010.84 -560.076)" fill="#f9bba4"/>
    <g id="Group_17693" data-name="Group 17693" transform="translate(17.911 0)">
      <path id="Path_50263" data-name="Path 50263" d="M1012.55,498.212a8.2,8.2,0,0,1-10.206,5.473,8,8,0,0,1-1.472-.606v-.007a8.184,8.184,0,0,1,6.2-15.065,8.042,8.042,0,0,1,2.867,1.536,8.2,8.2,0,0,1,2.606,8.67Z" transform="translate(-996.515 -483.207)" fill="#567dbe"/>
      <path id="Path_50264" data-name="Path 50264" d="M1051.714,502.03v19.959a13.123,13.123,0,0,1-.775,4.409,13.288,13.288,0,0,1-2.169,3.746s-.155.183-.423.472a12.8,12.8,0,0,1-7.2,3.959c-.049.007-.1.021-.141.028a6.666,6.666,0,0,0-2.93,1.106h.042a3.292,3.292,0,0,0-1.189,2.387v15.558l-15.494.122v-26.24a6.044,6.044,0,0,1-.281-.66c-.042-.1-.084-.222-.126-.33-.014,0-.036.008-.056.008h-1.389a3.078,3.078,0,0,1-3.078-3.078v-5.81a3.085,3.085,0,0,1,3.085-3.085h.436V502.022a12.8,12.8,0,0,1,12.8-12.8h6.092A12.8,12.8,0,0,1,1051.714,502.03Z" transform="translate(-1003.69 -483.771)" fill="#f9bba4"/>
      <path id="Path_50265" data-name="Path 50265" d="M1048.2,500.433a12.791,12.791,0,0,1-4.552-5.8s-2.152,11.994-20.891,13.371c0,0-.344,5.6-2.174,7.169a1.544,1.544,0,0,1-1.024.409c-2.728,0-.94-4.237-2.644-4.058h-.687a3.078,3.078,0,0,0-3.078,3.078v5.755a3.1,3.1,0,0,0,3.064,3.141h1.4c.021,0,.042-.008.056-.008.042.108.084.229.126.33a5.954,5.954,0,0,0,.281.66v2.681c-12.855-9.779-12.9-27.222-7.6-36.521,5.989-10.475,21.445-11.571,28.087-8.267,6.137,3.054,6.3,5.234,6.3,5.234C1054.03,488.439,1048.2,500.433,1048.2,500.433Z" transform="translate(-1000.336 -480.716)"/>
      <path id="Path_50266" data-name="Path 50266" d="M1043.5,555.986a5.909,5.909,0,0,0-2.707,1.034h-.007a2.942,2.942,0,0,0-.859,1.085c-7.909,3.162-13,2.81-15.734,2.084V548.582a29.713,29.713,0,0,0,12.135,7.156A15.335,15.335,0,0,0,1043.5,555.986Z" transform="translate(-1006.451 -505.082)" opacity="0.2"/>
    </g>
    <path id="Path_50267" data-name="Path 50267" d="M1086.3,701.752l20.712,9.067-1.624,5.218h-17.123Z" transform="translate(-1010.84 -560.076)" opacity="0.2"/>
    <path id="Path_50268" data-name="Path 50268" d="M1029.278,588.646a13.873,13.873,0,0,1,10.331,7.5c5.3,11.1,15.027,82.558,15.027,82.558H985.922L993.43,594.3l19.777-5.527Z" transform="translate(-974.801 -519.467)" fill="#ffc91d"/>
    <path id="Path_50269" data-name="Path 50269" d="M1009.312,704.48s7.857,5.444,28.288,10.682v2.418H985.922l1.838-20.663Z" transform="translate(-974.801 -558.34)" opacity="0.2"/>
    <path id="Path_50270" data-name="Path 50270" d="M1009.451,608.4s-6.588,23.118-6.588,34.294,4.922,15.085,4.922,15.085l-10.51-2.337s-6.461-9.6-5.937-9.779,10.316-31.781,10.316-31.781Z" transform="translate(-976.735 -526.559)" opacity="0.2"/>
    <path id="Path_50271" data-name="Path 50271" d="M1146.034,935.757l14.924,6.633a.372.372,0,0,1-.151.712h-25.5l1.61-7.345Z" transform="translate(-1028.433 -644.092)" fill="#773b20"/>
    <path id="Path_50272" data-name="Path 50272" d="M1105.02,738.358v26.766h-.084l-2.117,96.454-9.156-.008-10.883-96.447H1037.63a22.7,22.7,0,0,1-22.31-26.836l1.7-9.136h78.8a9.132,9.132,0,0,1,7.264,3.576h.014A9.163,9.163,0,0,1,1105.02,738.358Z" transform="translate(-985.217 -569.913)" fill="#4a436c"/>
    <path id="Path_50273" data-name="Path 50273" d="M1146.034,935.752,1135.3,943.1l1.576-7.352Z" transform="translate(-1028.434 -644.088)" opacity="0.2"/>
    <path id="Rectangle_15440" data-name="Rectangle 15440" d="M0,0H57.042a.748.748,0,0,1,.748.748V3.28a0,0,0,0,1,0,0H0a0,0,0,0,1,0,0V0A0,0,0,0,1,0,0Z" transform="translate(72.33 155.96)" fill="#8a939f"/>
    <path id="Path_50274" data-name="Path 50274" d="M1135.61,732.728a9.134,9.134,0,0,0-7.264-3.576H1105.5l9.43,18.886,1.917-1.42-.356,29.123,3.9,34.579.159-66.447h0Z" transform="translate(-1017.735 -569.913)" opacity="0.2"/>
    <path id="Rectangle_15441" data-name="Rectangle 15441" d="M.788,0h29.93a.788.788,0,0,1,.788.788V3.28a0,0,0,0,1,0,0H0a0,0,0,0,1,0,0V.788A.788.788,0,0,1,.788,0Z" transform="translate(62.799 155.96)" fill="#567dbe"/>
    <path id="Path_50275" data-name="Path 50275" d="M1071.139,716.86a14.38,14.38,0,0,0,7.286,2.246h16.394s-1.4-4.25-4.614-6.254-15.787-2.368-15.787-2.368Z" transform="translate(-1005.397 -563.211)" fill="#f9bba4"/>
    <path id="Path_50276" data-name="Path 50276" d="M1155.424,685.439h-32.055a1.48,1.48,0,0,0-1.424,1.113l-6.245,23.627h35.109l6.038-22.844A1.5,1.5,0,0,0,1155.424,685.439Z" transform="translate(-1021.396 -554.219)" fill="#b7bec7"/>
    <path id="Path_50277" data-name="Path 50277" d="M1013.38,588.823s-3.576,7.251-8.926,20.228c-.685,1.663-1.342,3.255-1.956,4.778-10.142.866-16.079-4.261-16.079-4.261a114.274,114.274,0,0,1,4.68-11.86C995.945,587.859,1013.38,588.823,1013.38,588.823Z" transform="translate(-974.979 -519.521)" fill="#ffc91d"/>
    <path id="Path_50278" data-name="Path 50278" d="M1037.594,678.422l-3.367,6.635s-26.515-5.336-44.857-12.335-22.854-8.018-20.019-17.351c1.439-4.735,4.121-13.969,7.041-23.2,1.076-3.409,2.193-6.817,3.282-10q.168-.481.335-.964s5.937,5.127,16.079,4.261c-7.641,18.775-10.031,26.766-7.222,29.909C995.867,663.209,1037.594,678.422,1037.594,678.422Z" transform="translate(-968.571 -531.155)" fill="#f9bba4"/>
    <path id="Path_50279" data-name="Path 50279" d="M1024.191,588.8a16.743,16.743,0,0,0,12.677,5.94c8.011-.117,2.817-5.94,2.817-5.94Z" transform="translate(-988.541 -519.521)" fill="#f9bba4"/>
    <path id="Rectangle_15442" data-name="Rectangle 15442" d="M.788,0h29.93a.788.788,0,0,1,.788.788V3.28a0,0,0,0,1,0,0H0a0,0,0,0,1,0,0V.788A.788.788,0,0,1,.788,0Z" transform="translate(62.799 155.96)" fill="#8a939f" opacity="0.2"/>
    <path id="Path_50280" data-name="Path 50280" d="M1113.769,935.757l14.924,6.633a.372.372,0,0,1-.151.712h-25.5l1.609-7.345Z" transform="translate(-1016.849 -644.092)" fill="#773b20"/>
    <path id="Path_50281" data-name="Path 50281" d="M1072.763,738.358v26.766h-.084l-2.125,96.454-9.163-.008-10.883-96.447h-45.136a22.694,22.694,0,0,1-22.309-26.836l1.69-9.136h78.8a9.149,9.149,0,0,1,7.418,3.772A9.055,9.055,0,0,1,1072.763,738.358Z" transform="translate(-973.636 -569.913)" fill="#4a436c"/>
    <path id="Path_50282" data-name="Path 50282" d="M1101.083,732.924l-34.547,20.354V729.152h27.129A9.148,9.148,0,0,1,1101.083,732.924Z" transform="translate(-1003.744 -569.913)" opacity="0.2"/>
    <path id="Path_50283" data-name="Path 50283" d="M1113.769,935.752l-10.732,7.345,1.576-7.352Z" transform="translate(-1016.849 -644.088)" opacity="0.2"/>
  </g>
  <g id="Group_17696" data-name="Group 17696" transform="translate(8.542 0)">
    <path id="Path_50284" data-name="Path 50284" d="M972.866,607.463c-1.09,3.185-2.207,6.594-3.282,10l-19.977-17.616v-19.6Z" transform="translate(-886.014 -441.726)" fill="#d57872"/>
    <g id="Group_17695" data-name="Group 17695" transform="translate(16.507)">
      <path id="Path_50285" data-name="Path 50285" d="M889.3,406.589v5.082a3.178,3.178,0,0,0,.86,2.237,4.273,4.273,0,0,0,4.009,1.336c.177-.017,0,30.385,0,30.385s5.387,3.594,11.224,3.594c4.771,0,5.819-3.721,5.819-3.721s-.055-10.307,0-13.551v.174c.072-3.032-.324-5.111,4.257-7a.4.4,0,0,0,.108-.032c.09-.031.163-.063.253-.095a.06.06,0,0,1,.036-.016,17.034,17.034,0,0,0,5.176-3.1,10.136,10.136,0,0,0,.847-.793l-.036-.016a13.418,13.418,0,0,0,3.968-9.381V391.908a13.5,13.5,0,0,0-.337-2.939c-1.351,4.049-8.243-3.909-9.042-3.221a.562.562,0,0,0-.071.141c-.249,1.532-4.654,2.892-8.828.829-4.139-2.049-6.342.235-6.146,1.3.16,1.079-3.641,4.816-1.971,8.02,1.688,3.189-3.233,2.048-.817,6.082,2.434,4.049-1.368,11.053-1.368,6.035,0-5.034-3.837-5.191-3.837-5.191A3.9,3.9,0,0,0,889.3,406.589Z" transform="translate(-880.868 -371.878)" fill="#f9bba4"/>
      <path id="Path_50286" data-name="Path 50286" d="M896.9,431.789c5.1,12.712,12.773,16.032,17.044,16.874v-.172c.071-2.978-.319-5.022,4.182-6.877a.423.423,0,0,0,.107-.031c.088-.031.16-.062.248-.094C906.96,445.06,897.448,432.475,896.9,431.789Z" transform="translate(-883.597 -388.424)" opacity="0.2"/>
      <path id="Path_50288" data-name="Path 50288" d="M877.982,385.515c-3.9-4.692,3.236-7.194,3.755-13.018.519-5.806,10.5-1.588,11.535-5.24s5.7-3.652,8.568-2.282c2.842,1.37,7.78,2.154,13.215.8a5.916,5.916,0,0,1,7.78,5.916c-.249,2.739,5.311,2.866,4.025,6.3-1.286,3.451-6.224,3.25-6.224,3.25-1.39,4.218-8.817-4.6-9.086-3.068-.249,1.534-4.647,2.885-8.8.822-4.128-2.045-6.327.237-6.14,1.3.166,1.077-3.631,4.8-1.971,8,1.68,3.2-3.216,2.045-.809,6.08,2.427,4.035-1.369,11.028-1.369,6.007s-3.818-5.167-3.818-5.167a3.831,3.831,0,0,0-4.068,3.615v5.094a3.831,3.831,0,0,0,4.068,3.615c.166,0,.332-.018.8-.037,0,0,1.129,2.12.565,3.413s.442,2.655-.565,3.014a.683.683,0,0,1-.243.033c-4.681.733-3.785-3.035-7.861-4.488-4.15-1.479-1.556-6.5-4.523-11.411C873.854,393.165,881.862,390.189,877.982,385.515Z" transform="translate(-876.146 -364.133)" fill="#773b20"/>
    </g>
    <path id="Path_50289" data-name="Path 50289" d="M914.656,537.5c-.014,7.557-.07,15.115-.125,21.527-.07,9.961-.154,17.127-.154,17.127H850.7s-.7-27.241,0-38.319c.4-6.384.866-19.949,2.221-31.292v-.014a73.666,73.666,0,0,1,2.724-13.914,10.041,10.041,0,0,1,2.04-3.772,12.482,12.482,0,0,1,1.2-1.048,37.414,37.414,0,0,1,9.569-5.071,89.621,89.621,0,0,1,11.748-3.6l17.043-.126c19.362,4.47,16.428,9.5,17.127,22.771C914.684,507.559,914.726,522.507,914.656,537.5Z" transform="translate(-850.392 -405.371)" fill="#d3a09d"/>
    <path id="Path_50290" data-name="Path 50290" d="M916.074,545.126c-.014,7.558-.07,15.115-.126,21.527-5.895-.531-29.295-11.246-42.831-23.329-10.2-9.109-16.745-19.789-18.775-29.155v-.014a73.677,73.677,0,0,1,2.724-13.914c.307,1.439,3.074,6.287,19.683,22.086C898.709,543.2,915.235,545.042,916.074,545.126Z" transform="translate(-851.81 -413)" opacity="0.2"/>
    <path id="Path_50291" data-name="Path 50291" d="M895.751,503.222l-31.683-12.056-.419-1.285a37.413,37.413,0,0,1,9.569-5.071Z" transform="translate(-855.151 -407.46)" opacity="0.2"/>
    <path id="Path_50292" data-name="Path 50292" d="M871.084,489.26s22.426,15.3,38.162,22.663,17.522,3.327,25.517-2.04,32.03-24.37,32.03-24.37l2.642,7.152s-33.487,42.147-49.217,41.583c-21.853-.784-57.939-27.658-57.939-27.658s-8.328-5.778-2.972-14.214S871.084,489.26,871.084,489.26Z" transform="translate(-852.948 -407.712)" fill="#d57872"/>
    <path id="Path_50293" data-name="Path 50293" d="M1028.007,478.1s9.489-8.922,12.788-10.055,18.756-3.02,19.952-3.173-.623,3.828-6.115,4.433a51.007,51.007,0,0,0-9.607,1.985s2.03,8.409-.623,12.195-13.751,1.768-13.751,1.768Z" transform="translate(-914.162 -400.3)" fill="#f9bba4"/>
    <path id="Path_50294" data-name="Path 50294" d="M930.459,630.313l-2.195,195.362a.124.124,0,0,1-.126.123l-9.5-.095a.125.125,0,0,1-.122-.109L895.185,629.848Z" transform="translate(-866.474 -459.534)" fill="#2e4354"/>
    <path id="Path_50295" data-name="Path 50295" d="M940.256,935.421l15.064,6.7a.514.514,0,0,1-.209.984H929.15a.125.125,0,0,1-.122-.151l1.631-7.441a.125.125,0,0,1,.122-.1h9.425A.125.125,0,0,1,940.256,935.421Z" transform="translate(-878.624 -569.241)" fill="#ef6a56"/>
    <path id="Path_50296" data-name="Path 50296" d="M917.366,651.824s3.659,72.642-3.155,94.3l-2.016-16.91V684.77Z" transform="translate(-872.581 -467.424)" opacity="0.2"/>
    <path id="Path_50297" data-name="Path 50297" d="M913.9,476.832H896.96V466.7h17.983Z" transform="translate(-867.112 -400.959)" fill="#d57872"/>
    <path id="Path_50298" data-name="Path 50298" d="M896.9,476.96l4.839-.13L896.9,472.97Z" transform="translate(-867.089 -403.209)" opacity="0.2"/>
    <path id="Path_50299" data-name="Path 50299" d="M972.783,615.955l-22.566-14.622v6.431L969.8,625.035Z" transform="translate(-886.233 -449.296)" opacity="0.2"/>
    <path id="Path_50300" data-name="Path 50300" d="M850.862,630.432c-.424,31.083,10.123,56.891,10.963,80.872,1.024,29.25-6.912,111.136-7.292,114.517-.008.074.208.1.283.1l9.08-.1a.114.114,0,0,0,.114-.076c.884-2.609,24.382-84.19,27.482-113.511,2.56-24.224,3.85-82.056,3.85-82.056S862.137,630.432,850.862,630.432Z" transform="translate(-850.556 -459.652)" fill="#2e4354"/>
    <path id="Path_50301" data-name="Path 50301" d="M865.088,935.421l15.064,6.7a.514.514,0,0,1-.208.984H853.982a.124.124,0,0,1-.121-.151l1.63-7.441a.125.125,0,0,1,.122-.1h9.425A.126.126,0,0,1,865.088,935.421Z" transform="translate(-851.636 -569.241)" fill="#ef6a56"/>
    <path id="Path_50302" data-name="Path 50302" d="M940.258,935.421l-11.227,7.528,1.752-7.539Z" transform="translate(-878.626 -569.241)" opacity="0.2"/>
    <path id="Path_50303" data-name="Path 50303" d="M865.038,935.41l-11.18,7.777,1.633-7.679Z" transform="translate(-851.636 -569.241)" opacity="0.2"/>
  </g>
  <g id="Group_17701" data-name="Group 17701" transform="translate(233.408 1.804)">
    <g id="Group_17700" data-name="Group 17700" transform="translate(19.336 0)">
      <path id="Rectangle_15446" data-name="Rectangle 15446" d="M0,0H15.331a0,0,0,0,1,0,0V45.993a0,0,0,0,1,0,0H8.054A8.054,8.054,0,0,1,0,37.939V0A0,0,0,0,1,0,0Z" transform="translate(25.362 17.752)" fill="#3bba96"/>
      <path id="Path_50339" data-name="Path 50339" d="M1277.4,382.06V403.54a13.661,13.661,0,0,1-.839,4.72,14,14,0,0,1-2.316,4.01s-.161.2-.459.508a13.674,13.674,0,0,1-7.706,4.236c-.049.016-.105.024-.153.04a.059.059,0,0,0-.024.008,10.908,10.908,0,0,0-1.663.46c-.952.339-1.743.71-1.743.71a3.286,3.286,0,0,0-1.194,2.179c-.016.1-.032.209-.041.315v20.154s-1.613.1-6.713.05c-5.776-.053-9.424.071-9.424.071V409.608a5.549,5.549,0,0,1-.315-.71c-.056-.113-.1-.25-.153-.355-.016,0-.041.008-.065.008h-1.614a3.448,3.448,0,0,1-3.5-3.38v-6.149a3.438,3.438,0,0,1,3.5-3.38h.533V382.06a13.826,13.826,0,0,1,13.806-13.854h6.278A13.831,13.831,0,0,1,1277.4,382.06Z" transform="translate(-1234.291 -367.399)" fill="#f9bba4"/>
      <path id="Path_50340" data-name="Path 50340" d="M1267.258,440.764c-.952.339-1.743.71-1.743.71a3.287,3.287,0,0,0-1.194,2.179c-7.052,3.179-15.71.508-15.71.508l-.468-7.157-.266-4.067.266.266C1256.478,441.627,1264.014,441.4,1267.258,440.764Z" transform="translate(-1237.305 -390.64)" opacity="0.2"/>
      <path id="Path_50341" data-name="Path 50341" d="M1274.909,384.782s-9.631,8.3-27.04,10.3V431.5h-1.992a13.09,13.09,0,0,1-13.088-13.089s-2.141-22.732-1.14-31.875c.939-8.679,6.412-18.31,16.945-19.589h11.661C1274.909,367.6,1280.232,379.5,1274.909,384.782Z" transform="translate(-1231.383 -366.947)" fill="#4e0400"/>
    </g>
    <path id="Path_50342" data-name="Path 50342" d="M1278.6,576.431h-71.749l.643-12.293v-.07l2.822-54.328.224-4.177.656-12.6,2-.908a11.112,11.112,0,0,0-3.115-3.465,14.159,14.159,0,0,1,1.746-3.073,10.813,10.813,0,0,1,2.193-1.481c.726-.265,1.467-.517,2.208-.74a87.864,87.864,0,0,1,17.182-3.339s5.784-.294,12.531-.14c1.188.028,2.4.084,3.618.14,2.039.1,4.093.252,6.035.448a68.145,68.145,0,0,1,10.715,1.676.827.827,0,0,1,.167.056,45.131,45.131,0,0,1,6.147,2.5s2.822,18.525,4.6,48.489c.042.936.1,1.9.154,2.864-11.959,2.626-23.735,4.471-33.444,5.714-3.591.461-6.915.838-9.849,1.145-3.687.392-6.775.671-9.094.852-3,.251-4.708.349-4.708.349l.14,6.5c12.084.084,42.021,2.99,57.6.308a.11.11,0,0,1,.042-.014C1278.348,558.815,1278.543,567.378,1278.6,576.431Z" transform="translate(-1203.239 -407.455)" fill="#e4b62c"/>
    <path id="Path_50343" data-name="Path 50343" d="M1278.415,564.588a.109.109,0,0,0-.042.014,167.277,167.277,0,0,1-43.953,6.635c-20.573.434-26.566,6.651-26.566,6.651v-.07l2.821-54.328.224-4.177,5.854-1.243,17.686,38.528,2.026,4.428Z" transform="translate(-1203.599 -421.205)" opacity="0.2"/>
    <path id="Path_50344" data-name="Path 50344" d="M1218.393,586.465a10.753,10.753,0,0,1-6.5,2.666c-3.871.138-3.342,3.041-6.5,4.885-2.722,1.591-5.392,1.159-3.6-3.038s6.5-10.3,16.592-11.172Z" transform="translate(-1201.216 -443.371)" fill="#f9bba4"/>
    <path id="Path_50345" data-name="Path 50345" d="M1285.937,435.409a11.707,11.707,0,0,1-4.987,7.865h-7.7s-4.959-3.562-6.551-4.778,1.536-1.732,4.959-.405a10.624,10.624,0,0,0,5.532.657,6.533,6.533,0,0,0,2.151-.657,13.988,13.988,0,0,0,6.859-7.572A17.307,17.307,0,0,1,1285.937,435.409Z" transform="translate(-1224.574 -389.772)" fill="#e9a38e"/>
    <path id="Path_50346" data-name="Path 50346" d="M1248.283,477.8s11.969,9.084,16.149,0S1248.283,477.8,1248.283,477.8Z" transform="translate(-1218.115 -405.297)" fill="#f9bba4"/>
    <path id="Path_50347" data-name="Path 50347" d="M1297.386,630.574,1280.7,825.911h-9.552l-11.956-195.337Z" transform="translate(-1222.031 -461.598)" fill="#5a867c"/>
    <path id="Path_50348" data-name="Path 50348" d="M1286.449,935.328l15.625,6.945a.389.389,0,0,1-.158.745h-26.7l1.685-7.69Z" transform="translate(-1227.784 -571.016)" fill="#3bba96"/>
    <path id="Path_50349" data-name="Path 50349" d="M1249.377,630.574,1230.3,825.911h-9.551l-14.128-195.337Z" transform="translate(-1203.158 -461.598)" fill="#5a867c"/>
    <path id="Path_50350" data-name="Path 50350" d="M1237.273,935.328l15.625,6.945a.389.389,0,0,1-.157.745h-26.7l1.685-7.69Z" transform="translate(-1210.128 -571.016)" fill="#3bba96"/>
    <path id="Path_50351" data-name="Path 50351" d="M1292.053,435.409c-3.059,3.757-8.745,3.339-8.745,3.339a6.531,6.531,0,0,0,2.151-.657,13.987,13.987,0,0,0,6.859-7.572A17.307,17.307,0,0,1,1292.053,435.409Z" transform="translate(-1230.69 -389.772)" opacity="0.2"/>
    <path id="Path_50352" data-name="Path 50352" d="M1227.788,545.373l.146,6.5c12.1.084,42.071,2.986,57.633.289,5.994-1.048,9.821-2.626,9.625-5.029-.7-8.633-6.635-54.943-12.573-59.483a31.83,31.83,0,0,0-8.633-4.191,49.252,49.252,0,0,1,6.2,2.794s2.766,18.231,4.54,48.2c0,0,.327,2.831-.2,2.943A405.688,405.688,0,0,1,1227.788,545.373Z" transform="translate(-1210.756 -408.779)" fill="#0e755d"/>
    <path id="Path_50353" data-name="Path 50353" d="M1241.577,583.465s-6.074,2.777-13.789-3.607l4.713-.349Z" transform="translate(-1210.756 -443.264)" opacity="0.2"/>
    <path id="Path_50354" data-name="Path 50354" d="M1260.538,450.408s-.989,8.87-1.632,19.5c-1.1,17.853-5.458,43.09-8.155,50.479a36.2,36.2,0,0,1-5.895,10.771c-5.881,7.1-13.258,8.047-18.943,2a23.683,23.683,0,0,1-4.009-6.119c-5-10.6-8.647-19.921-10.659-27.841-2.249-8.871-2.472-15.981-.237-21.151a14.141,14.141,0,0,1,1.746-3.073,10.8,10.8,0,0,1,2.193-1.481,7.219,7.219,0,0,1,2.207-.74c3.841-.656,8.033,2.151,10.3,12.81,3.269,15.367,5.337,29.727,8.228,27.353,3.548-2.92,10.6-26.451,13.576-43.593,1.774-10.155,3.587-18.914,3.587-18.914Z" transform="translate(-1204.169 -396.912)" fill="#0e755d"/>
    <path id="Path_50355" data-name="Path 50355" d="M1270.206,630.574l-3.621,88.88-1.949-31.842Z" transform="translate(-1223.986 -461.598)" opacity="0.2"/>
    <path id="Path_50356" data-name="Path 50356" d="M1237.273,935.328l-11.236,7.69,1.685-7.69Z" transform="translate(-1210.128 -571.016)" opacity="0.2"/>
    <path id="Path_50357" data-name="Path 50357" d="M1276.9,935.328l-1.685,7.69,11.236-7.69Z" transform="translate(-1227.784 -571.016)" opacity="0.2"/>
  </g>
  <line id="Line_470" data-name="Line 470" x1="0.112" transform="translate(461.764 344.703)" fill="none"/>
  <line id="Line_471" data-name="Line 471" x1="0.014" transform="translate(511.133 344.703)" fill="none"/>
</svg>
