<?xml version="1.0" encoding="utf-8"?>
<!-- Generator: Adobe Illustrator 24.1.2, SVG Export Plug-In . SVG Version: 6.00 Build 0)  -->
<svg version="1.1" id="Слой_1" xmlns="http://www.w3.org/2000/svg" xmlns:xlink="http://www.w3.org/1999/xlink" x="0px" y="0px"
	 width="670px" height="157.8px" viewBox="0 0 670 157.8" style="enable-background:new 0 0 670 157.8;" xml:space="preserve">
<style type="text/css">
	.st0{fill:#36505F;}
	.st1{fill:#FFFBFD;}
	.st2{fill:#BEC4C0;}
	.st3{fill:#262E37;}
	.st4{fill:#527F99;}
	.st5{fill-rule:evenodd;clip-rule:evenodd;fill:#262E37;}
	.st6{fill:#39B39B;}
	.st7{fill-rule:evenodd;clip-rule:evenodd;fill:#FFFBFD;}
	.st8{fill-rule:evenodd;clip-rule:evenodd;fill:#FAD97F;}
	.st9{fill-rule:evenodd;clip-rule:evenodd;fill:#F8C963;}
	.st10{fill-rule:evenodd;clip-rule:evenodd;fill:#F5F5F5;}
	.st11{fill-rule:evenodd;clip-rule:evenodd;fill:#F0E3C7;}
	.st12{fill:#F5F5F5;}
	.st13{fill-rule:evenodd;clip-rule:evenodd;fill:#D2D6D3;}
	.st14{fill-rule:evenodd;clip-rule:evenodd;fill:#BEC4C0;}
	.st15{fill-rule:evenodd;clip-rule:evenodd;fill:#E8EBE9;}
	.st16{fill-rule:evenodd;clip-rule:evenodd;fill:#39B39B;}
	.st17{fill-rule:evenodd;clip-rule:evenodd;fill:#36505F;}
	.st18{fill-rule:evenodd;clip-rule:evenodd;fill:#EDF0F2;}
	.st19{fill-rule:evenodd;clip-rule:evenodd;fill:#B8AD8C;}
	.st20{fill-rule:evenodd;clip-rule:evenodd;fill:#E0D09F;}
	.st21{fill-rule:evenodd;clip-rule:evenodd;fill:#46382F;}
	.st22{fill:#614E43;}
	.st23{fill-rule:evenodd;clip-rule:evenodd;fill:#E6E6E6;}
	.st24{fill-rule:evenodd;clip-rule:evenodd;fill:#F1CC56;}
	.st25{fill:none;}
</style>
<g id="Group_19082" transform="translate(22.262 144.992)">
	<path class="st0" d="M32.4-94.5V12.6c0,0,0,0.1,0,0.1H-0.5c0,0,0-0.1,0-0.1V-94.5c0-0.5,0.4-0.9,0.8-0.9h31.2
		c0.3,0,0.6,0.2,0.7,0.4C32.3-94.8,32.4-94.6,32.4-94.5z"/>
	<circle id="Ellipse_2041" class="st1" cx="15.9" cy="-8.3" r="9.5"/>
	<path id="Rectangle_15967" class="st1" d="M5.2-88.7h20.9c0.2,0,0.4,0.2,0.4,0.4c0,0,0,0,0,0v62.8c0,0.2-0.2,0.4-0.4,0.4H5.2
		c-0.2,0-0.4-0.2-0.4-0.4v-62.8C4.8-88.6,5-88.7,5.2-88.7C5.2-88.7,5.2-88.7,5.2-88.7z"/>
	<rect id="Rectangle_15968" x="8" y="-85.3" class="st2" width="15.2" height="15.2"/>
	<circle id="Ellipse_2042" class="st3" cx="15.9" cy="-8.3" r="7.3"/>
	<rect id="Rectangle_15969" x="8.2" y="-67.9" class="st2" width="15" height="1.9"/>
	<rect id="Rectangle_15970" x="8.2" y="-63.8" class="st2" width="15" height="1.9"/>
	<rect id="Rectangle_15971" x="8.2" y="-59.7" class="st2" width="15" height="1.9"/>
	<rect id="Rectangle_15972" x="8.2" y="-55.6" class="st2" width="15" height="1.9"/>
	<rect id="Rectangle_15973" x="8.2" y="-51.5" class="st2" width="15" height="1.9"/>
	<rect id="Rectangle_15974" x="8" y="-36.3" class="st2" width="15.2" height="7.1"/>
	<path class="st4" d="M65-94.5V12.6c0,0,0,0.1,0,0.1H32.1c0,0,0-0.1,0-0.1V-94.5c0-0.2,0-0.3,0.1-0.4c0.1-0.3,0.4-0.4,0.7-0.4h31.2
		C64.6-95.3,65-95,65-94.5z"/>
	<circle id="Ellipse_2043" class="st1" cx="48.6" cy="-8.3" r="9.5"/>
	<path id="Rectangle_15976" class="st1" d="M37.8-88.7h20.9c0.2,0,0.4,0.2,0.4,0.4v62.8c0,0.2-0.2,0.4-0.4,0.4H37.8
		c-0.2,0-0.4-0.2-0.4-0.4v-62.8C37.4-88.6,37.6-88.7,37.8-88.7z"/>
	<rect id="Rectangle_15977" x="40.7" y="-85.3" class="st2" width="15.2" height="15.2"/>
	<path id="Path_51732" class="st5" d="M48.6-15.6c-4.1,0-7.3,3.3-7.4,7.3s3.3,7.3,7.3,7.4c4.1,0,7.3-3.3,7.4-7.3c0,0,0,0,0,0
		C55.9-12.3,52.6-15.6,48.6-15.6z"/>
	<rect id="Rectangle_15978" x="40.8" y="-67.9" class="st2" width="15" height="1.9"/>
	<rect id="Rectangle_15979" x="40.8" y="-63.8" class="st2" width="15" height="1.9"/>
	<rect id="Rectangle_15980" x="40.8" y="-59.7" class="st2" width="15" height="1.9"/>
	<rect id="Rectangle_15981" x="40.8" y="-55.6" class="st2" width="15" height="1.9"/>
	<rect id="Rectangle_15982" x="40.8" y="-51.5" class="st2" width="15" height="1.9"/>
	<rect id="Rectangle_15983" x="40.7" y="-36.3" class="st2" width="15.2" height="7.1"/>
	<path class="st6" d="M123.5,7.6l-19.2,5.2H91.8L65-87.2l-0.3-1.2c-0.1-0.3,0.1-0.7,0.3-0.9c0.1-0.1,0.2-0.1,0.3-0.1l30.1-8.1
		c0.5-0.1,0.9,0.2,1,0.6L124.1,6.6C124.3,7,124,7.5,123.5,7.6z"/>
	<path id="Path_51733" class="st7" d="M100.4-18.6c-5.1,1.4-8.1,6.6-6.7,11.7s6.6,8.1,11.7,6.7c5.1-1.4,8.1-6.6,6.7-11.7
		C110.7-16.9,105.5-19.9,100.4-18.6z"/>
	<path id="Rectangle_15985" class="st1" d="M71.6-84.3l20.2-5.4c0.2-0.1,0.5,0.1,0.5,0.3l16.3,60.7c0.1,0.2-0.1,0.5-0.3,0.5
		l-20.2,5.4c-0.2,0.1-0.5-0.1-0.5-0.3L71.3-83.8C71.3-84,71.4-84.3,71.6-84.3z"/>
	
		<rect id="Rectangle_15986" x="77" y="-84" transform="matrix(0.9659 -0.2588 0.2588 0.9659 22.6411 19.3008)" class="st2" width="15.2" height="15.2"/>
	<path id="Path_51734" class="st5" d="M100.9-16.5c-3.9,1.1-6.2,5.1-5.2,9c1.1,3.9,5.1,6.2,9,5.2c3.9-1.1,6.2-5.1,5.2-9
		C108.9-15.2,104.9-17.5,100.9-16.5C100.9-16.5,100.9-16.5,100.9-16.5z"/>
	
		<rect id="Rectangle_15987" x="79.9" y="-66.9" transform="matrix(0.9659 -0.259 0.259 0.9659 20.0614 20.3839)" class="st2" width="15" height="1.9"/>
	
		<rect id="Rectangle_15988" x="81" y="-63" transform="matrix(0.9659 -0.259 0.259 0.9659 19.0765 20.7919)" class="st2" width="15" height="1.9"/>
	
		<rect id="Rectangle_15989" x="82" y="-59" transform="matrix(0.9659 -0.2588 0.2588 0.9659 18.0789 21.1888)" class="st2" width="15" height="1.9"/>
	
		<rect id="Rectangle_15990" x="83.1" y="-55.1" transform="matrix(0.9659 -0.259 0.259 0.9659 17.1065 21.608)" class="st2" width="15" height="1.9"/>
	
		<rect id="Rectangle_15991" x="84.1" y="-51.1" transform="matrix(0.9659 -0.2588 0.2588 0.9659 16.1113 22.0058)" class="st2" width="15" height="1.9"/>
	
		<rect id="Rectangle_15992" x="88.6" y="-36.5" transform="matrix(0.9659 -0.2588 0.2588 0.9659 11.8117 23.7848)" class="st2" width="15.2" height="7.1"/>
</g>
<g id="Group_19084" transform="translate(178.041 142.075)">
	<path id="Path_51836" class="st8" d="M14.2-7.7c0.9-0.5,1.9-0.1,4.7-1.5c1.3-0.7,2.5-1.7,3.5-2.8c2.8-3.1,2.8-4,3.7-8.9L81.2-21
		v-55.5H-0.5v52.2c0,6.3,0.2,10.7,6.1,14.6C8.5-7.8,10.8-7.7,14.2-7.7z"/>
	<path id="Path_51837" class="st9" d="M-0.5-76.5h81.7v-14.2l-34.8-0.1l-0.1,7.3l-11.9,0l-0.3-7.2l-34.7,0L-0.5-76.5z"/>
	<path id="Path_51838" class="st9" d="M14.2-7.7h58.3c7,0,14.1,1.2,18.7-4.6c2.1-2.4,3.2-5.5,3.1-8.7l-13.2,0l-55.1,0.1
		c-0.9,4.9-0.8,5.8-3.7,8.9c-1,1.1-2.2,2-3.5,2.8C16.1-7.7,15.1-8.1,14.2-7.7z"/>
	<path id="Path_51839" class="st10" d="M34.3-83.7l12.1,0v-14H34.2L34.3-83.7z"/>
	<path id="Path_51840" class="st11" d="M34.3-83.7c0.3,0.5-0.3,0.1,0.6,0.3l5.4,0c2,0,4.1,0.1,6.1-0.1l0.1-7.3
		c-0.3,0.3-0.2-0.3-0.3,0.8l0,2.8c0.1,1.1,0,2.3,0,3.4L34.3-83.7z"/>
	<rect id="Rectangle_16050" x="8.4" y="-69.9" class="st0" width="65.6" height="4.3"/>
	<rect id="Rectangle_16051" x="8.4" y="-58.9" class="st12" width="65.6" height="4.3"/>
	<rect id="Rectangle_16052" x="8.4" y="-47.7" class="st12" width="65.6" height="4.3"/>
	<rect id="Rectangle_16053" x="8.4" y="-36.6" class="st12" width="65.6" height="4.3"/>
</g>
<g id="Group_19085" transform="translate(362.967 118.745)">
	<path id="Path_51785" class="st5" d="M180.9-1.1H33.1v-90.3c0-3.5,2.8-6.3,6.3-6.3h135.2c3.5,0,6.3,2.8,6.3,6.3L180.9-1.1z"/>
	<path id="Path_51786" class="st13" d="M180.9-1.2L33.2-1.3L-0.5,28.9h215L180.9-1.2z"/>
	<path id="Path_51787" class="st14" d="M3.7,38.8h206.6c2.3,0,4.2-1.9,4.2-4.2v-5.7h-215v5.7C-0.5,36.9,1.4,38.7,3.7,38.8z"/>
	<path id="Path_51788" class="st13" d="M118.4,32.2H95.7c-1.9,0-3.4-1.5-3.4-3.4l0,0h29.4l0,0C121.7,30.7,120.2,32.2,118.4,32.2z"/>
	<path id="Path_51789" class="st15" d="M178.9,4.8L35.4,4.7L16.5,23h181.2L178.9,4.8z"/>
	<path id="Path_51790" class="st16" d="M174.1,1c-0.9,0-1.6,0.3-1.6,0.6s0.7,0.6,1.6,0.6s1.6-0.3,1.6-0.6S175,1,174.1,1z"/>
	<path id="Rectangle_16038" class="st4" d="M40.5-89.3h133c0.4,0,0.7,0.3,0.7,0.7c0,0,0,0,0,0v78.4c0,0.4-0.3,0.7-0.7,0.7h-133
		c-0.4,0-0.7-0.3-0.7-0.7v-78.4C39.8-89,40.1-89.3,40.5-89.3z"/>
	<path id="Path_51791" class="st17" d="M203.2,32.2h-13.9c-0.8,0-1.5,0.7-1.5,1.5l0,0c0,0.8,0.7,1.5,1.5,1.5h13.9
		c0.8,0,1.5-0.7,1.5-1.5l0,0C204.7,32.9,204,32.2,203.2,32.2z"/>
	<path id="Path_51792" class="st17" d="M107.1-94.8c0.8,0,1.4,0.6,1.4,1.4c0,0.8-0.6,1.4-1.4,1.4c-0.8,0-1.4-0.6-1.4-1.4
		C105.8-94.2,106.4-94.8,107.1-94.8z"/>
</g>
<g id="Group_19086" transform="translate(596.639 187.148)">
	<polygon class="st18" points="55.2,-83.2 53.4,-71.2 49.3,-43.3 47.2,-29.4 11.7,-29.4 9.6,-43.3 5.5,-71.2 3.8,-83.2 	"/>
	<path id="Path_51829" class="st19" d="M53.4-71.2l-4.1,27.9H9.6L5.5-71.2H53.4z"/>
	<path id="Path_51830" class="st20" d="M29.5-67.3c5.5,0,10,4.5,10,10c0,5.5-4.5,10-10,10c-5.5,0-10-4.5-10-10c0,0,0,0,0,0
		C19.4-62.8,23.9-67.3,29.5-67.3z"/>
	<path id="Path_51831" class="st21" d="M30.2-62.7c-0.6,0-1.3,0.2-1.8,0.4L28-62.2c-0.8,0.4-1.5,1-2,1.6l-0.5,0.6
		c-0.2,0.3-0.4,0.6-0.5,1c-0.4,0.8-0.5,1.6-0.6,2.5l0,0c0,0.8,0.2,1.7,0.5,2.4c0.1,0.1,0.1,0.2,0.2,0.3c0.4,0.3,0.6,0.1,0.9-0.1
		l1.1-1c0.1-0.1,0.1-0.2,0.2-0.2c0.6-0.6,1-1.3,1.4-2c0.2-0.4,0.4-0.8,0.5-1.2c0.3-1,0.7-2.1,1.2-3c0.3-0.4,0.3-0.3,0.3-0.8
		C30.7-62.5,30.5-62.7,30.2-62.7z M34.5-59.2c-0.1-0.5-0.3-1-0.5-1.5c-0.1-0.2-0.3-0.4-0.4-0.6c-0.2-0.2-0.5-0.2-0.7-0.1
		c-0.2,0.2-0.3,0.3-0.5,0.5c-0.3,0.4-0.5,0.9-0.7,1.3L31.1-58c-0.1,0.3-0.1,0.5-0.3,0.8c-0.2,0.5-0.4,1-0.6,1.4
		c-0.4,0.6-0.8,1.2-1.3,1.8c-0.1,0.1-0.1,0.2-0.2,0.3c-0.1,0.1-0.1,0.2-0.2,0.3c-0.4,0.5-0.9,0.7-0.8,1.2c0.1,0.3,0.3,0.5,0.6,0.5v0
		c1,0.1,2-0.2,2.9-0.7c0.7-0.4,1.4-1,1.9-1.6C34.2-55.5,34.7-57.4,34.5-59.2z"/>
	<path id="Path_51832" class="st21" d="M-0.5-83.2h59.9v-4.1H57v-4.2h-3.7l-2.8-6.2H8.6l-2.8,6.2H2.1v4.2h-2.6V-83.2z"/>
	<rect id="Rectangle_16040" x="11.6" y="-91.8" class="st22" width="35.7" height="1.3"/>
	<rect id="Rectangle_16041" x="7.6" y="-87.6" class="st22" width="43.7" height="1.3"/>
	<path id="Path_51833" class="st23" d="M7.4-83.2h44.1c-5.3,1.8-13.2,2.9-22.1,2.9S12.7-81.4,7.4-83.2z"/>
</g>
<g id="Group_19089" transform="translate(440.959 136.314)">
	<path id="Path_51820" class="st24" d="M42.6-74.9c-0.8-1.7-1.9-3.3-3.2-4.7c-0.4-0.4-0.6-0.5-1-0.9c-3.1-3-9.1-4.5-13.7-3.4
		c-4.8,1.2-9.1,4.3-11,8.9c-1,2-1.4,4.3-1.5,6.5c0,3.1,1,6.1,2.8,8.6c2.2,3,4.9,5.5,6.2,8.8c0.3,1,0.6,2,0.8,3c-1.9,0-1.9,3,0.3,3
		h11.8c2.2,0,2.2-3,0.3-3c0.2-1,0.4-2,0.7-3c1.2-3,2.8-4.4,4.6-6.8c1.2-1.4,2.2-2.8,3-4.4C44.7-66.2,44.4-70.7,42.6-74.9z
		 M19.9-75.5c-0.7,0.8-1.3,1.7-1.7,2.6c-0.2,0.5-0.4,1-0.6,1.6c-0.2,0.6-0.3,1.1-1,1.1h0c-3.2,0,1.3-6.2,1.8-6.7
		c1.3-1.3,3.7-3.5,5.6-3.5c0.4,0,0.8,0.5,0.8,1.1C24.7-78,22.1-78.3,19.9-75.5z"/>
	<path id="Path_51821" class="st17" d="M20.6-37.8c0,2.9,1.9,1.2,3.2,2.6c0.5,0.5,1.1,2.3,3,2.3h2.6c0.7,0,1.4-0.3,1.9-0.7
		c1.3-1.2,0.4-1.9,3-2.3c0.8-0.1,1.5-0.8,1.4-1.6c-0.1-0.7-0.7-1.3-1.4-1.4H22C21.4-38.9,20.8-38.5,20.6-37.8z"/>
	<path id="Path_51822" class="st17" d="M20.6-42.1c0,0.5-0.1,0.9,0.5,1.4c0.3,0.2,0.6,0.3,0.9,0.4h12.3c1.8,0,1.9-3,0-3H22.2
		C21.4-43.5,20.7-43,20.6-42.1C20.7-42.2,20.6-42.2,20.6-42.1z"/>
	<path id="Path_51823" class="st8" d="M26.6-96v5.6c-0.1,0.9,0.5,1.7,1.4,1.8s1.7-0.5,1.8-1.4c0-0.1,0-0.2,0-0.4V-96
		c0.1-0.9-0.5-1.6-1.4-1.8H28C27.1-97.6,26.5-96.8,26.6-96z"/>
	<path id="Path_51824" class="st8" d="M41.5-84.1c0,0.4,0.2,0.8,0.4,1.1c1.4,1.6,3.1-0.7,4.2-1.9c0.5-0.5,2.7-2.5,2.7-3
		c0-1.1-0.1-1.9-1.6-1.9c-0.7,0-1.3,0.7-1.7,1.1C44.6-87.6,41.5-85,41.5-84.1z"/>
	<path id="Path_51825" class="st8" d="M7.5-88.5v0.6c0,0.5,3.3,3.6,4,4.3c0.4,0.4,1,1.1,1.7,1.1c0.9,0,1.6-0.6,1.6-1.5
		c0-0.1,0-0.3,0-0.4c-0.2-0.9-2.7-3.1-3.5-3.9c-1-1-1.2-1.6-2.5-1.6C8.1-89.7,7.5-89.2,7.5-88.5z"/>
	<path id="Path_51826" class="st8" d="M-0.5-69.2c0,1,0.4,1.8,1.6,1.8h6c0.9,0,1.5-0.7,1.5-1.6c0-0.3-0.1-0.7-0.4-0.9
		c-0.6-0.8-3.3-0.5-4.4-0.5c-0.6,0-0.8-0.1-1.2-0.1C1.5-70.5-0.5-70.8-0.5-69.2z"/>
	<path id="Path_51827" class="st8" d="M47.7-69c0.1,0.8,0.7,1.5,1.5,1.5h5.9c0.8,0,1.5-0.5,1.6-1.3v-0.6c-0.1-0.6-0.7-1.1-1.8-1.1
		c-0.5,0-1,0-1.5-0.1l-1.7,0.1c-0.6,0-0.8-0.1-1.2-0.1c-0.9,0.1-2,0-2.5,0.5C47.9-69.8,47.8-69.4,47.7-69z"/>
</g>
<rect class="st25" width="670" height="157.8"/>
</svg>
