<?xml version="1.0" encoding="utf-8"?>
<!-- Generator: Adobe Illustrator 24.1.2, SVG Export Plug-In . SVG Version: 6.00 Build 0)  -->
<svg version="1.1" id="Слой_1" xmlns="http://www.w3.org/2000/svg" xmlns:xlink="http://www.w3.org/1999/xlink" x="0px" y="0px"
	 width="356px" height="287px" viewBox="0 0 356 287" enable-background="new 0 0 356 287" xml:space="preserve">
<g id="Group_19023" transform="translate(344 1313.926)">
	<g id="BACKGROUND" transform="translate(234.621 185.524)">
		<g id="Group_17215" transform="translate(0 0)">
			<g id="Group_17210" transform="translate(68.591 13.501)">
				<path id="Path_48663" fill="#29CB97" d="M-322.8-1417.1c0,0,6.1,5.8,5.9,18.3s-3.7,10.9-4.4,18.9s-1.4,27.3-8.2,39.9
					c-6.7,12.6-8.7-0.1-8.7-0.1s3.3-17.3,4.2-18.8s4.9-13.3,4.9-13.3s-0.2-6.4-0.3-7.6c-0.2-2.3-0.2-4.6,0.1-6.8
					c0.5-2.3,3.6-6.6,3.7-7c0.1-0.4,4.3-9.2,4.3-9.2S-321.1-1413.7-322.8-1417.1z"/>
				
					<linearGradient id="Path_48664_1_" gradientUnits="userSpaceOnUse" x1="-309.0175" y1="-1241.8857" x2="-309.7535" y2="-1242.4897" gradientTransform="matrix(24.4815 0 0 -97.3957 7250.4937 -122371.9609)">
					<stop  offset="0" style="stop-color:#75CC96"/>
					<stop  offset="0.53" style="stop-color:#96CEAB"/>
					<stop  offset="1" style="stop-color:#B4D0BE"/>
				</linearGradient>
				<path id="Path_48664" fill="url(#Path_48664_1_)" d="M-322.8-1417.1c0,0,3.3,8.2-2.6,17.8c-5.9,9.6-20.1,38.3-18.6,59.7
					s4.5,19.8,4.5,19.8s11-19.1,14.2-33.3c3.1-14.1-1.1-29.3,1.1-34.2s5.3-6.6,4.4-11.7C-320.6-1404.2-317.6-1411.5-322.8-1417.1z"
					/>
			</g>
			<g id="Group_17211" transform="translate(54.169)">
				
					<linearGradient id="Path_48665_1_" gradientUnits="userSpaceOnUse" x1="-293.1204" y1="-1229.1906" x2="-293.1374" y2="-1228.6016" gradientTransform="matrix(26.4607 0 0 -102.9341 7425.4478 -127861.2813)">
					<stop  offset="0" style="stop-color:#75CC96"/>
					<stop  offset="1" style="stop-color:#B4D0BE"/>
				</linearGradient>
				<path id="Path_48665" fill="url(#Path_48665_1_)" d="M-334.9-1317.3c0,0-14.1-16.9-7.2-35c5.9-15.4,6.7-16.6,3.9-25.7
					s5.2-9,3.4-17.8c-1.8-8.9,2.1-20.7,5.5-21.2c4.6-0.6,6.4,8.1,4.6,16c-1.8,7.9,5.9,10.8,5.5,18.1c-0.3,4.6-8.5,12.2-1.6,23.8
					C-312.9-1345.7-320.1-1302.2-334.9-1317.3z"/>
				<path id="Path_48666" fill="#0E755D" d="M-329.3-1405.4c0,0-1.1,54.8-0.9,91.1l1.5-0.1C-328.8-1314.4-328.8-1347.1-329.3-1405.4
					z"/>
			</g>
			<g id="Group_17212" transform="translate(48.848 38.754)">
				
					<linearGradient id="Path_48667_1_" gradientUnits="userSpaceOnUse" x1="-270.8737" y1="-1267.1981" x2="-271.5907" y2="-1267.7921" gradientTransform="matrix(68.0624 0 0 -82.1562 18162.2031 -105518.4141)">
					<stop  offset="0" style="stop-color:#75CC96"/>
					<stop  offset="1" style="stop-color:#B4D0BE"/>
				</linearGradient>
				<path id="Path_48667" fill="url(#Path_48667_1_)" d="M-344-1342.2c0,0-0.5-22,16.1-31.9c14.2-8.4,15.6-8.8,19.1-17.7
					c3.5-8.9,9.7-3.8,13.8-11.8c4.1-8.1,14.5-14.9,17.5-13.2c4,2.3,0,10.3-6.3,15.4c-6.3,5.1-2.1,12.1-7,17.6
					c-3.1,3.4-14.2,4.3-16.1,17.7C-309.1-1350.8-341.9-1321.2-344-1342.2z"/>
				<path id="Path_48668" fill="#0E755D" d="M-284.9-1407.8c0,0-34.9,42.3-57.4,70.7l1.2,0.9C-341-1336.1-320.7-1361.8-284.9-1407.8
					z"/>
			</g>
			<g id="Group_17213" transform="translate(30.487 44.811)">
				<path id="Path_48669" fill="#0E755D" d="M-344-1416.9c0,0,9.3-2.6,18.8,9.6c9.5,12.2,12,32.9,12,32.9s-4.9-5.9-5.5-6.1
					s-5-11-4.8-11.3c0.1-0.3,0.1-0.7,0.1-1c0,0-2.9-7-3.1-7.5c-0.2-0.5-0.5-1-0.5-1s-2.5-5-3.6-6.6
					C-331.6-1409.7-339.5-1416.1-344-1416.9z"/>
				
					<linearGradient id="Path_48670_1_" gradientUnits="userSpaceOnUse" x1="-265.4463" y1="-1273.9618" x2="-265.7563" y2="-1273.2007" gradientTransform="matrix(30.828 0 0 -42.8567 7860.5361 -55973.3945)">
					<stop  offset="0" style="stop-color:#75CC96"/>
					<stop  offset="1" style="stop-color:#75CC96"/>
				</linearGradient>
				<path id="Path_48670" fill="url(#Path_48670_1_)" d="M-313.2-1374.4c0,0-5.3-21.6-11.6-29c-6.3-7.4-8.7-6.4-10-9.5
					c-1.3-3.2-6.1-4.8-9.2-4c0,0,12.5,7.1,17.7,26.3C-321.2-1371.3-313.2-1374.4-313.2-1374.4z"/>
			</g>
			<g id="Group_17214" transform="translate(0 59.532)">
				<path id="Path_48671" fill="#0E755D" d="M-344-1412.2c0,0,9.4-9.7,29.6-1.7c20.2,8,37.9,31.3,37.9,31.3s-10.2-3.6-11-3.5
					s-13.8-9.8-13.9-10.3c-0.1-0.5-0.3-0.9-0.6-1.4c0,0-8.5-6.5-9.1-6.9c-0.6-0.4-1.2-0.9-1.2-0.9s-6.6-4.2-9.1-5.5
					S-338-1414.5-344-1412.2z"/>
				
					<linearGradient id="Path_48672_1_" gradientUnits="userSpaceOnUse" x1="-222.3593" y1="-1288.4513" x2="-222.7133" y2="-1287.9854" gradientTransform="matrix(67.505 0 0 -35.2191 14718.9805 -46764.7344)">
					<stop  offset="0" style="stop-color:#75CC96"/>
					<stop  offset="1" style="stop-color:#B4D0BE"/>
				</linearGradient>
				<path id="Path_48672" fill="url(#Path_48672_1_)" d="M-276.5-1382.6c0,0-21.7-22.4-34.6-26.9c-12.9-4.5-15-1.6-18.9-4.4
					c-3.9-2.9-10.8-1.5-14,1.7c0,0,20.2-0.3,40.1,19.4S-276.5-1382.6-276.5-1382.6z"/>
			</g>
		</g>
	</g>
	<g id="OBJECT" transform="translate(0 103.177)">
		
			<linearGradient id="Path_48683_1_" gradientUnits="userSpaceOnUse" x1="-107.2989" y1="-1146.2629" x2="-107.2989" y2="-1145.257" gradientTransform="matrix(5.47 0 0 -32.651 276.68 -38679.9844)">
			<stop  offset="0" style="stop-color:#408D6A"/>
			<stop  offset="1" style="stop-color:#408D94"/>
		</linearGradient>
		<path id="Path_48683" fill="url(#Path_48683_1_)" d="M-310.2-1238.5L-310.2-1238.5c-1.5,0-2.7-1.2-2.7-2.7v-27.2
			c0-1.5,1.2-2.7,2.7-2.7c0,0,0,0,0,0l0,0c1.5,0,2.7,1.2,2.7,2.7v27.2C-307.5-1239.7-308.7-1238.5-310.2-1238.5
			C-310.2-1238.5-310.2-1238.5-310.2-1238.5z"/>
		
			<linearGradient id="Path_48684_1_" gradientUnits="userSpaceOnUse" x1="-107.4955" y1="-1145.4159" x2="-107.1835" y2="-1146.6929" gradientTransform="matrix(5.47 0 0 -32.65 296.8657 -38677.7695)">
			<stop  offset="0" style="stop-color:#408D6A"/>
			<stop  offset="1" style="stop-color:#F08276"/>
		</linearGradient>
		<path id="Path_48684" fill="url(#Path_48684_1_)" d="M-290.1-1237.5L-290.1-1237.5c-1.5,0-2.7-1.2-2.7-2.7v-27.2
			c0-1.5,1.2-2.7,2.7-2.7l0,0c1.5,0,2.7,1.2,2.7,2.7v27.2C-287.3-1238.7-288.5-1237.5-290.1-1237.5z"/>
		
			<linearGradient id="Rectangle_14945_1_" gradientUnits="userSpaceOnUse" x1="-84.8156" y1="-1146.8248" x2="-84.8156" y2="-1145.7828" gradientTransform="matrix(6.616 0 0 -39.489 256.938 -46526.9805)">
			<stop  offset="0" style="stop-color:#408D6A"/>
			<stop  offset="1" style="stop-color:#F08276"/>
		</linearGradient>
		<path id="Rectangle_14945" fill="url(#Rectangle_14945_1_)" d="M-304.2-1280.4L-304.2-1280.4c1.8,0,3.3,1.5,3.3,3.3v32.9
			c0,1.8-1.5,3.3-3.3,3.3l0,0c-1.8,0-3.3-1.5-3.3-3.3v-32.9C-307.5-1278.9-306-1280.4-304.2-1280.4z"/>
		
			<linearGradient id="Path_48685_1_" gradientUnits="userSpaceOnUse" x1="-65.1757" y1="-1145.286" x2="-65.1757" y2="-1146.454" gradientTransform="matrix(8.098 0 0 -48.338 230.9495 -56677.8242)">
			<stop  offset="0" style="stop-color:#408D6A"/>
			<stop  offset="1" style="stop-color:#408D94"/>
		</linearGradient>
		<path id="Path_48685" fill="url(#Path_48685_1_)" d="M-296.8-1240.1L-296.8-1240.1c-2.2,0-4-1.8-4-4c0,0,0,0,0,0v-40.2
			c0-2.2,1.8-4,4-4c0,0,0,0,0,0l0,0c2.2,0,4,1.8,4,4c0,0,0,0,0,0v40.2C-292.8-1241.9-294.6-1240.1-296.8-1240.1
			C-296.8-1240.1-296.8-1240.1-296.8-1240.1z"/>
		
			<linearGradient id="Rectangle_14946_1_" gradientUnits="userSpaceOnUse" x1="19.7833" y1="-1144.5306" x2="19.7453" y2="-1146.9667" gradientTransform="matrix(258.589 0 0 -50.105 -5283.1597 -58594.9531)">
			<stop  offset="0" style="stop-color:#E5E7E9"/>
			<stop  offset="0.995" style="stop-color:#C0BDBD"/>
		</linearGradient>
		<rect id="Rectangle_14946" x="-304.2" y="-1180.2" fill="url(#Rectangle_14946_1_)" width="258.6" height="50.1"/>
		
			<linearGradient id="Rectangle_14947_1_" gradientUnits="userSpaceOnUse" x1="-12.7085" y1="-1144.5306" x2="-12.7465" y2="-1146.9667" gradientTransform="matrix(20.149 0 0 -50.105 214.665 -58594.9531)">
			<stop  offset="0" style="stop-color:#E5E7E9"/>
			<stop  offset="0.995" style="stop-color:#C0BDBD"/>
		</linearGradient>
		<rect id="Rectangle_14947" x="-52.1" y="-1180.2" fill="url(#Rectangle_14947_1_)" width="20.1" height="50.1"/>
		
			<linearGradient id="Rectangle_14948_1_" gradientUnits="userSpaceOnUse" x1="20.5053" y1="-1143.1477" x2="20.5053" y2="-1146.0408" gradientTransform="matrix(355.95 0 0 -11.815 -7464.9004 -14715.5381)">
			<stop  offset="0" style="stop-color:#BD365F"/>
			<stop  offset="1" style="stop-color:#F08276"/>
		</linearGradient>
		<rect id="Rectangle_14948" x="-344" y="-1189.1" fill="url(#Rectangle_14948_1_)" width="356" height="11.8"/>
		
			<linearGradient id="Rectangle_14949_1_" gradientUnits="userSpaceOnUse" x1="20.5046" y1="-1143.9403" x2="20.5056" y2="-1146.3883" gradientTransform="matrix(355.95 0 0 -17.322 -7464.9004 -21045.0293)">
			<stop  offset="0" style="stop-color:#BD365F"/>
			<stop  offset="1" style="stop-color:#F08276"/>
		</linearGradient>
		<rect id="Rectangle_14949" x="-344" y="-1206.4" fill="url(#Rectangle_14949_1_)" width="356" height="17.3"/>
		<rect id="Rectangle_14950" x="-314.1" y="-1244.6" fill="#D5D9DD" width="27.9" height="49.2"/>
		<rect id="Rectangle_14951" x="-314.1" y="-1228.6" fill="#779E94" width="27.9" height="6.7"/>
		<g id="Group_17218" transform="translate(277.274 164.891)">
			<rect id="Rectangle_14952" x="-344" y="-1417.1" fill="#F08276" width="65.6" height="9.7"/>
			
				<linearGradient id="Rectangle_14953_1_" gradientUnits="userSpaceOnUse" x1="-267.1139" y1="-1309.2997" x2="-265.5389" y2="-1309.3947" gradientTransform="matrix(63.592 0 0 -7.18 16601.4336 -10813.5137)">
				<stop  offset="0" style="stop-color:#E5E7E9"/>
				<stop  offset="0.995" style="stop-color:#C0BDBD"/>
			</linearGradient>
			<rect id="Rectangle_14953" x="-341.9" y="-1415.8" fill="url(#Rectangle_14953_1_)" width="63.6" height="7.2"/>
		</g>
		<g id="Group_17219" transform="translate(275.565 179.592)">
			<rect id="Rectangle_14954" x="-344" y="-1417.1" fill="#3F2C76" width="75.9" height="11.3"/>
			
				<linearGradient id="Rectangle_14955_1_" gradientUnits="userSpaceOnUse" x1="-263.7882" y1="-1324.3085" x2="-262.4252" y2="-1324.3905" gradientTransform="matrix(73.528 0 0 -8.302 19012.5 -12406.4141)">
				<stop  offset="0" style="stop-color:#E5E7E9"/>
				<stop  offset="0.995" style="stop-color:#C0BDBD"/>
			</linearGradient>
			<rect id="Rectangle_14955" x="-341.6" y="-1415.6" fill="url(#Rectangle_14955_1_)" width="73.5" height="8.3"/>
		</g>
		<g id="Group_17220" transform="translate(274.529 195.816)">
			<rect id="Rectangle_14956" x="-344" y="-1417.1" fill="#779E94" width="75.9" height="14.9"/>
			
				<linearGradient id="Rectangle_14957_1_" gradientUnits="userSpaceOnUse" x1="-262.7392" y1="-1341.0161" x2="-261.3772" y2="-1341.0781" gradientTransform="matrix(73.528 0 0 -10.96 18936.3242 -16107.7305)">
				<stop  offset="0" style="stop-color:#E5E7E9"/>
				<stop  offset="0.995" style="stop-color:#C0BDBD"/>
			</linearGradient>
			<rect id="Rectangle_14957" x="-341.6" y="-1415.1" fill="url(#Rectangle_14957_1_)" width="73.5" height="11"/>
		</g>
		<g id="Group_17221" transform="translate(283.739 174.635)">
			<rect id="Rectangle_14958" x="-344" y="-1417.1" fill="#D5D9DD" width="40.6" height="5"/>
			
				<linearGradient id="Rectangle_14959_1_" gradientUnits="userSpaceOnUse" x1="-281.0478" y1="-1316.8347" x2="-278.4988" y2="-1317.0227" gradientTransform="matrix(39.292 0 0 -3.653 10651.5176 -6225.4922)">
				<stop  offset="0" style="stop-color:#E5E7E9"/>
				<stop  offset="0.995" style="stop-color:#C0BDBD"/>
			</linearGradient>
			<rect id="Rectangle_14959" x="-342.7" y="-1416.5" fill="url(#Rectangle_14959_1_)" width="39.3" height="3.7"/>
		</g>
		<g id="Group_17222" transform="translate(277.937 190.859)">
			<rect id="Rectangle_14960" x="-344" y="-1417.1" fill="#408D6A" width="69.1" height="5"/>
			
				<linearGradient id="Rectangle_14961_1_" gradientUnits="userSpaceOnUse" x1="-267.0016" y1="-1333.0428" x2="-265.5287" y2="-1333.2308" gradientTransform="matrix(68.036 0 0 -3.653 17779.9785 -6284.7588)">
				<stop  offset="0" style="stop-color:#E5E7E9"/>
				<stop  offset="0.995" style="stop-color:#C0BDBD"/>
			</linearGradient>
			<rect id="Rectangle_14961" x="-343" y="-1416.5" fill="url(#Rectangle_14961_1_)" width="68" height="3.7"/>
		</g>
		
			<linearGradient id="Path_48686_1_" gradientUnits="userSpaceOnUse" x1="18.6214" y1="-1145.9047" x2="18.7874" y2="-1147.0027" gradientTransform="matrix(189.1035 0 0 -130.8025 -3694.7915 -151328)">
			<stop  offset="0" style="stop-color:#E4B62C"/>
			<stop  offset="1" style="stop-color:#643E0A"/>
		</linearGradient>
		<path id="Path_48686" fill="url(#Path_48686_1_)" d="M-125-1301.9c-5.4,5-11.7,9-18.5,11.8c-9.4,3.7-22,6.4-32.3,0.2
			c-18.8-11.3-34.5-9.9-42.1-11.6s-8.9-12.3-10.6-27.4c-1.7-15-11.4-17.2-14.7-28.7c-3-10.4-4-34.6,28.5-40.5
			c8.7-1.6,17-5.3,24-10.7c8.6-6.5,16.6-10.4,28.1-7.1c16.4,4.8,20.3,12.5,29.2,34.6s22.1,23.5,40.3,17.1s23.8,14.2,17.8,28.7
			c-3.5,8.4-4.8,24.2,13.9,27.4c19.1,3.2-12.1,34-33.7,13.2C-114.5-1313.4-112-1314.1-125-1301.9z"/>
		
			<linearGradient id="Path_48687_1_" gradientUnits="userSpaceOnUse" x1="17.5192" y1="-1146.0753" x2="17.5392" y2="-1146.9752" gradientTransform="matrix(143.1035 0 0 -112.918 -2690.6604 -130727.8203)">
			<stop  offset="0" style="stop-color:#0E755D"/>
			<stop  offset="1" style="stop-color:#B4D0BE"/>
		</linearGradient>
		<path id="Path_48687" fill="url(#Path_48687_1_)" d="M-180.8-1316.3c-74.1,15.7-71.5,100.7-71.5,100.7c6.4,18,71.5,10.7,71.5,10.7
			s65.2,7.3,71.5-10.7C-109.3-1215.5-106.7-1300.5-180.8-1316.3z"/>
		<g id="Group_17223" transform="translate(146.073 96.384)">
			<path id="Path_48688" fill="#3F2C76" d="M-340.6-1379.3c0,0-7.7-22.7,0-37.8c0,0,11.5,9.1,13.7,18.1
				C-328.1-1387.4-340.6-1379.3-340.6-1379.3z"/>
			<path id="Path_48689" fill="#3F2C76" d="M-313.2-1379.3c0,0,7.7-22.7,0-37.8c0,0-11.5,9.1-13.7,18.1
				C-325.7-1387.4-313.2-1379.3-313.2-1379.3z"/>
		</g>
		
			<linearGradient id="Ellipse_1940_1_" gradientUnits="userSpaceOnUse" x1="-9.183" y1="-1145.3418" x2="-9.244" y2="-1147.4818" gradientTransform="matrix(22.394 0 0 -26.838 25.303 -32069.6406)">
			<stop  offset="0" style="stop-color:#FDE7D2"/>
			<stop  offset="0.995" style="stop-color:#D17573"/>
		</linearGradient>
		<ellipse id="Ellipse_1940" fill="url(#Ellipse_1940_1_)" cx="-180.8" cy="-1310.3" rx="11.2" ry="13.4"/>
		
			<linearGradient id="Path_48690_1_" gradientUnits="userSpaceOnUse" x1="12.1859" y1="-1147.1012" x2="12.1409" y2="-1145.3262" gradientTransform="matrix(68.72 0 0 -67.011 -1019.336 -78169.8438)">
			<stop  offset="0" style="stop-color:#FDE7D2"/>
			<stop  offset="0.995" style="stop-color:#D17573"/>
		</linearGradient>
		<path id="Path_48690" fill="url(#Path_48690_1_)" d="M-150.8-1354.9c-0.9-4.4-2.9-4.4-17.4-4.8s-20.2-17.6-20.2-17.6
			c-4.6,19.3-19.9,26.3-29.1,28.8c0,0,0,0.1,0,0.1c0,21.1,15.4,38.1,34.4,38.1s34.4-17.1,34.4-38.1c0-0.1,0-0.2,0-0.3
			C-149.8-1350.6-150.5-1352.7-150.8-1354.9z"/>
		<g id="Group_17224" transform="translate(116.297 156.472)">
			<path id="Rectangle_14962" fill="#E5E7E9" d="M-338-1417.1h80.1c3.3,0,6,2.7,6,6v56.7l0,0H-344l0,0v-56.7
				C-344-1414.4-341.3-1417.1-338-1417.1z"/>
			<rect id="Rectangle_14963" x="-344" y="-1354.5" fill="#D5D9DD" width="92.1" height="5.1"/>
			<circle id="Ellipse_1941" fill="#D5D9DD" cx="-297.9" cy="-1394" r="10"/>
		</g>
	</g>
</g>
</svg>
