<svg xmlns="http://www.w3.org/2000/svg" width="233.302" height="192.896" viewBox="0 0 233.302 192.896">
  <g id="Group_20593" data-name="Group 20593" transform="translate(0 -890.281)">
    <path id="Path_52438" data-name="Path 52438" d="M2136-3643.5v-176.761s31.3-34.326,52.656,9.307,5.385,40.416,42.494,46.36,12.23,24.6,25.04,41.736,31.254,8.67,55.5,23.469-22.193,12.987-9.347,24.686,58.195,17.446,64.584,25.247,1.908,5.223-39.026,5.956S2136-3643.5,2136-3643.5Z" transform="translate(-2136 4723.371)" fill="#b4d0be"/>
    <g id="Group_19201" data-name="Group 19201" transform="translate(6.582 960)">
      <g id="Group_15884" data-name="Group 15884" transform="translate(21.468 0)">
        <path id="Path_44830" data-name="Path 44830" d="M0,0C6.98,13.143,6.972,25.785,14.835,44.764s10.6,23.779,13.938,27.468" transform="matrix(-0.848, -0.53, 0.53, -0.848, 24.4, 118.499)" fill="none" stroke="#0e755d" stroke-width="2"/>
        <path id="flower:4" d="M42.366,21.183a4.136,4.136,0,0,1-4.237,4.243,58.93,58.93,0,0,1-6.375-1.41,61.048,61.048,0,0,1,6.229,1.966,4.244,4.244,0,0,1-4.25,7.348,60.764,60.764,0,0,1-4.812-4.409,60.749,60.749,0,0,1,4.409,4.813,4.244,4.244,0,0,1-7.348,4.25,61.317,61.317,0,0,1-1.966-6.222,58.58,58.58,0,0,1,1.41,6.368,4.243,4.243,0,0,1-8.486,0,58.578,58.578,0,0,1,1.41-6.368,61.327,61.327,0,0,1-1.966,6.222,4.139,4.139,0,0,1-5.792,1.542,4.137,4.137,0,0,1-1.556-5.792,59.343,59.343,0,0,1,4.4-4.806,59.2,59.2,0,0,1-4.812,4.4A4.131,4.131,0,0,1,2.84,31.774a4.14,4.14,0,0,1,1.542-5.792A61.321,61.321,0,0,1,10.6,24.016a58.578,58.578,0,0,1-6.368,1.41,4.243,4.243,0,0,1,0-8.486A58.577,58.577,0,0,1,10.6,18.35a61.32,61.32,0,0,1-6.222-1.966A4.14,4.14,0,0,1,2.84,10.591,4.131,4.131,0,0,1,8.625,9.036a59.276,59.276,0,0,1,4.819,4.409A60.751,60.751,0,0,1,9.036,8.632,4.139,4.139,0,0,1,10.592,2.84a4.139,4.139,0,0,1,5.792,1.542A61.327,61.327,0,0,1,18.35,10.6a58.578,58.578,0,0,1-1.41-6.368,4.243,4.243,0,0,1,8.486,0,58.93,58.93,0,0,1-1.41,6.375,61.043,61.043,0,0,1,1.966-6.229A4.139,4.139,0,0,1,31.774,2.84,4.139,4.139,0,0,1,33.33,8.632a59.556,59.556,0,0,1-4.409,4.813,60.765,60.765,0,0,1,4.812-4.409,4.137,4.137,0,0,1,5.792,1.556,4.14,4.14,0,0,1-1.542,5.792,59.349,59.349,0,0,1-6.229,1.966,58.929,58.929,0,0,1,6.375-1.41A4.14,4.14,0,0,1,42.366,21.183ZM26.095,28.438a1.657,1.657,0,1,0,0-2.343A1.654,1.654,0,0,0,26.095,28.438Zm-4.912,3.005a1.655,1.655,0,1,0-1.655-1.655A1.656,1.656,0,0,0,21.183,31.443ZM10.922,21.183a1.655,1.655,0,1,0,1.655-1.655A1.656,1.656,0,0,0,10.922,21.183Zm5.349-7.255a1.657,1.657,0,1,0,0,2.343A1.654,1.654,0,0,0,16.271,13.928Zm0,12.167a1.657,1.657,0,1,0,0,2.343A1.666,1.666,0,0,0,16.271,26.095Zm4.912-15.172a1.655,1.655,0,1,0,1.655,1.655A1.656,1.656,0,0,0,21.183,10.922Zm0,5.958a4.3,4.3,0,1,0,4.3,4.3A4.3,4.3,0,0,0,21.183,16.88Zm7.255-2.952a1.657,1.657,0,1,0,0,2.343A1.654,1.654,0,0,0,28.438,13.928Zm1.35,5.6a1.655,1.655,0,1,0,1.655,1.655A1.656,1.656,0,0,0,29.789,19.528Z" transform="matrix(-0.848, -0.53, 0.53, -0.848, 45.984, 58.379)" fill="#fff" fill-rule="evenodd"/>
        <circle id="Ellipse_1869" data-name="Ellipse 1869" cx="4.965" cy="4.965" r="4.965" transform="matrix(-0.848, -0.53, 0.53, -0.848, 40.931, 36.486)" fill="#e4b62c"/>
        <path id="Path_44832" data-name="Path 44832" d="M3.6,0S5.936,3.621,5.877,10.289c-.439,7.675-6.71,5.973-5.784-.735C.725,6.161,2.047-.1,3.6,0Z" transform="translate(28.4 121.696) rotate(-164)" fill="#0e755d" fill-rule="evenodd"/>
        <path id="Path_44833" data-name="Path 44833" d="M3.68,0s2.256,3.555,2.2,10.223C5.438,17.9-.832,16.2.093,9.487A28.4,28.4,0,0,1,3.68,0Z" transform="matrix(-0.848, 0.53, -0.53, -0.848, 27.962, 118.447)" fill="#0e755d" fill-rule="evenodd"/>
        <path id="Path_44834" data-name="Path 44834" d="M3.2,0S5.936,3.651,5.877,10.319c-.439,7.675-6.71,5.973-5.784-.735C.725,6.191,1.362,3.031,3.2,0Z" transform="translate(26.901 118.007) rotate(121)" fill="#0e755d" fill-rule="evenodd"/>
        <path id="Path_44835" data-name="Path 44835" d="M3.082,0s2.854,2.5,2.8,9.163c-.439,7.675-6.71,5.973-5.784-.735A45.606,45.606,0,0,1,3.082,0Z" transform="translate(27.066 123.177) rotate(-129)" fill="#0e755d" fill-rule="evenodd"/>
      </g>
      <g id="Group_15885" data-name="Group 15885" transform="translate(64.334 111.068) rotate(159)">
        <path id="Path_44830-2" data-name="Path 44830" d="M0,0C4.156,7.827,4.152,15.355,8.834,26.657s6.313,14.161,8.3,16.357" transform="matrix(0.848, 0.53, -0.53, 0.848, 26.223, 2.785)" fill="none" stroke="#0e755d" stroke-width="2"/>
        <path id="flower:4-2" data-name="flower:4" d="M25.229,12.615a2.463,2.463,0,0,1-2.523,2.527,35.094,35.094,0,0,1-3.8-.84,36.356,36.356,0,0,1,3.71,1.171,2.527,2.527,0,0,1-2.531,4.376,36.186,36.186,0,0,1-2.866-2.625,36.177,36.177,0,0,1,2.625,2.866,2.527,2.527,0,0,1-4.376,2.531A36.515,36.515,0,0,1,14.3,18.914a34.885,34.885,0,0,1,.84,3.792,2.527,2.527,0,0,1-5.054,0,34.884,34.884,0,0,1,.84-3.792A36.521,36.521,0,0,1,9.757,22.62a2.465,2.465,0,0,1-3.449.919,2.464,2.464,0,0,1-.926-3.449A35.339,35.339,0,0,1,8,17.227a35.255,35.255,0,0,1-2.866,2.622,2.46,2.46,0,0,1-3.445-.926,2.465,2.465,0,0,1,.919-3.449A36.518,36.518,0,0,1,6.315,14.3a34.884,34.884,0,0,1-3.792.84,2.527,2.527,0,0,1,0-5.054,34.884,34.884,0,0,1,3.792.84A36.516,36.516,0,0,1,2.61,9.757a2.465,2.465,0,0,1-.919-3.449,2.46,2.46,0,0,1,3.445-.926,35.3,35.3,0,0,1,2.87,2.625A36.179,36.179,0,0,1,5.381,5.141a2.465,2.465,0,0,1,.926-3.449,2.465,2.465,0,0,1,3.449.919,36.521,36.521,0,0,1,1.171,3.706,34.884,34.884,0,0,1-.84-3.792,2.527,2.527,0,0,1,5.054,0,35.093,35.093,0,0,1-.84,3.8,36.352,36.352,0,0,1,1.171-3.71,2.465,2.465,0,0,1,3.449-.919,2.465,2.465,0,0,1,.926,3.449,35.467,35.467,0,0,1-2.625,2.866,36.187,36.187,0,0,1,2.866-2.625,2.464,2.464,0,0,1,3.449.926,2.465,2.465,0,0,1-.919,3.449,35.343,35.343,0,0,1-3.71,1.171,35.093,35.093,0,0,1,3.8-.84A2.465,2.465,0,0,1,25.229,12.615Zm-9.69,4.321a.987.987,0,1,0,0-1.4A.985.985,0,0,0,15.54,16.935Zm-2.925,1.79a.986.986,0,1,0-.986-.986A.986.986,0,0,0,12.615,18.725ZM6.5,12.615a.986.986,0,1,0,.986-.986A.986.986,0,0,0,6.5,12.615ZM9.69,8.294a.987.987,0,1,0,0,1.4A.985.985,0,0,0,9.69,8.294Zm0,7.246a.987.987,0,1,0,0,1.4A.992.992,0,0,0,9.69,15.54ZM12.615,6.5a.986.986,0,1,0,.986.986A.986.986,0,0,0,12.615,6.5Zm0,3.548a2.562,2.562,0,1,0,2.562,2.562A2.562,2.562,0,0,0,12.615,10.052Zm4.321-1.758a.987.987,0,1,0,0,1.4A.985.985,0,0,0,16.935,8.294Zm.8,3.335a.986.986,0,1,0,.986.986A.986.986,0,0,0,17.739,11.629Z" transform="matrix(0.848, 0.53, -0.53, 0.848, 13.37, 38.588)" fill="#fff" fill-rule="evenodd"/>
        <circle id="Ellipse_1869-2" data-name="Ellipse 1869" cx="2.957" cy="2.957" r="2.957" transform="matrix(0.848, 0.53, -0.53, 0.848, 16.379, 51.624)" fill="#e4b62c"/>
        <path id="Path_44832-2" data-name="Path 44832" d="M2.145,0A11.83,11.83,0,0,1,3.5,6.127C3.239,10.7-.5,9.684.055,5.689.432,3.669,1.219-.061,2.145,0Z" transform="translate(23.842 0.881) rotate(16)" fill="#0e755d" fill-rule="evenodd"/>
        <path id="Path_44833-2" data-name="Path 44833" d="M2.191,0A11.892,11.892,0,0,1,3.5,6.088C3.239,10.659-.5,9.645.055,5.65A16.913,16.913,0,0,1,2.191,0Z" transform="matrix(0.848, -0.53, 0.53, 0.848, 24.102, 2.817)" fill="#0e755d" fill-rule="evenodd"/>
        <path id="Path_44834-2" data-name="Path 44834" d="M1.9,0A10.644,10.644,0,0,1,3.5,6.145C3.239,10.716-.5,9.7.055,5.707A16.171,16.171,0,0,1,1.9,0Z" transform="translate(24.734 3.077) rotate(-59)" fill="#0e755d" fill-rule="evenodd"/>
        <path id="Path_44835-2" data-name="Path 44835" d="M1.835,0S3.535,1.486,3.5,5.457c-.261,4.571-4,3.557-3.445-.438A27.159,27.159,0,0,1,1.835,0Z" transform="translate(24.637 0) rotate(51)" fill="#0e755d" fill-rule="evenodd"/>
      </g>
      <g id="Group_15886" data-name="Group 15886" transform="matrix(-0.951, -0.309, 0.309, -0.951, 86.066, 131.646)">
        <path id="Path_44830-3" data-name="Path 44830" d="M0,0C5.168,9.731,5.162,19.091,10.984,33.143S18.833,50.749,21.3,53.48" transform="matrix(0.848, 0.53, -0.53, 0.848, 32.604, 3.463)" fill="none" stroke="#0e755d" stroke-width="2"/>
        <path id="flower:4-3" data-name="flower:4" d="M31.368,15.684a3.062,3.062,0,0,1-3.137,3.142,43.632,43.632,0,0,1-4.72-1.044,45.2,45.2,0,0,1,4.612,1.456,3.142,3.142,0,0,1-3.147,5.44,44.99,44.99,0,0,1-3.563-3.264,44.978,44.978,0,0,1,3.264,3.563,3.142,3.142,0,0,1-5.44,3.147,45.4,45.4,0,0,1-1.456-4.607,43.373,43.373,0,0,1,1.044,4.715,3.142,3.142,0,0,1-6.283,0,43.372,43.372,0,0,1,1.044-4.715,45.407,45.407,0,0,1-1.456,4.607,3.065,3.065,0,0,1-4.289,1.142A3.063,3.063,0,0,1,6.69,24.977,43.938,43.938,0,0,1,9.95,21.418a43.833,43.833,0,0,1-3.563,3.259A3.059,3.059,0,0,1,2.1,23.526a3.065,3.065,0,0,1,1.142-4.289,45.4,45.4,0,0,1,4.607-1.456,43.371,43.371,0,0,1-4.715,1.044,3.142,3.142,0,0,1,0-6.283,43.37,43.37,0,0,1,4.715,1.044,45.4,45.4,0,0,1-4.607-1.456A3.065,3.065,0,0,1,2.1,7.842,3.059,3.059,0,0,1,6.386,6.69,43.889,43.889,0,0,1,9.954,9.954,44.981,44.981,0,0,1,6.69,6.391,3.064,3.064,0,0,1,7.842,2.1a3.065,3.065,0,0,1,4.289,1.142,45.407,45.407,0,0,1,1.456,4.607,43.371,43.371,0,0,1-1.044-4.715,3.142,3.142,0,0,1,6.283,0,43.632,43.632,0,0,1-1.044,4.72,45.2,45.2,0,0,1,1.456-4.612A3.065,3.065,0,0,1,23.526,2.1a3.064,3.064,0,0,1,1.152,4.289,44.1,44.1,0,0,1-3.264,3.563A44.991,44.991,0,0,1,24.977,6.69a3.063,3.063,0,0,1,4.289,1.152,3.065,3.065,0,0,1-1.142,4.289,43.941,43.941,0,0,1-4.612,1.456,43.631,43.631,0,0,1,4.72-1.044A3.065,3.065,0,0,1,31.368,15.684ZM19.321,21.056a1.227,1.227,0,1,0,0-1.735A1.225,1.225,0,0,0,19.321,21.056Zm-3.637,2.225a1.225,1.225,0,1,0-1.225-1.225A1.226,1.226,0,0,0,15.684,23.281Zm-7.6-7.6a1.225,1.225,0,1,0,1.225-1.225A1.226,1.226,0,0,0,8.087,15.684Zm3.96-5.372a1.227,1.227,0,1,0,0,1.735A1.225,1.225,0,0,0,12.047,10.312Zm0,9.008a1.227,1.227,0,1,0,0,1.735A1.234,1.234,0,0,0,12.047,19.321ZM15.684,8.087a1.225,1.225,0,1,0,1.225,1.225A1.226,1.226,0,0,0,15.684,8.087Zm0,4.411a3.186,3.186,0,1,0,3.186,3.186A3.186,3.186,0,0,0,15.684,12.5Zm5.372-2.186a1.227,1.227,0,1,0,0,1.735A1.225,1.225,0,0,0,21.056,10.312Zm1,4.146a1.225,1.225,0,1,0,1.225,1.225A1.226,1.226,0,0,0,22.056,14.459Z" transform="matrix(0.848, 0.53, -0.53, 0.848, 16.622, 47.976)" fill="#fff" fill-rule="evenodd"/>
        <ellipse id="Ellipse_1869-3" data-name="Ellipse 1869" cx="3.676" cy="3.676" rx="3.676" ry="3.676" transform="matrix(0.848, 0.53, -0.53, 0.848, 20.364, 64.185)" fill="#e4b62c"/>
        <path id="Path_44832-3" data-name="Path 44832" d="M2.667,0A14.709,14.709,0,0,1,4.352,7.618C4.027,13.3-.616,12.04.069,7.073.537,4.561,1.516-.075,2.667,0Z" transform="translate(29.643 1.095) rotate(16)" fill="#0e755d" fill-rule="evenodd"/>
        <path id="Path_44833-3" data-name="Path 44833" d="M2.724,0s1.67,2.632,1.627,7.569C4.027,13.252-.616,11.991.069,7.024A21.028,21.028,0,0,1,2.724,0Z" transform="matrix(0.848, -0.53, 0.53, 0.848, 29.965, 3.503)" fill="#0e755d" fill-rule="evenodd"/>
        <path id="Path_44834-3" data-name="Path 44834" d="M2.368,0A13.233,13.233,0,0,1,4.352,7.64C4.027,13.323-.616,12.063.069,7.1A20.105,20.105,0,0,1,2.368,0Z" transform="translate(30.751 3.827) rotate(-59)" fill="#0e755d" fill-rule="evenodd"/>
        <path id="Path_44835-3" data-name="Path 44835" d="M2.282,0s2.113,1.847,2.07,6.784C4.027,12.467-.616,11.207.069,6.24A33.767,33.767,0,0,1,2.282,0Z" transform="translate(30.631 0) rotate(51)" fill="#0e755d" fill-rule="evenodd"/>
      </g>
    </g>
  </g>
</svg>
