<svg xmlns="http://www.w3.org/2000/svg" width="705.912" height="507.824" viewBox="0 0 705.912 507.824">
  <g id="Group_19236" data-name="Group 19236" transform="translate(-175.631 -109.1)">
    <g id="Group_19202" data-name="Group 19202" transform="translate(738.569 487.386)">
      <path id="Path_52439" data-name="Path 52439" d="M578.705,381.664l.055.01-.01-.077h0l-.06-.024c.005.031.012.06.017.09Z" transform="translate(-495.091 -302.765)" fill="#548936"/>
      <path id="Path_52440" data-name="Path 52440" d="M586.454,399.232c8.161,10.415,20.1,12.587,32.113,14.52.589.1,1.643.453,1.858-.714.164-.9-.7-.969-1.206-1.236-7.738-4.106-13.2-10.679-18.517-17.331-5.719-7.159-13.12-11.178-21.972-12.837C579.41,388.327,582.384,394.038,586.454,399.232Z" transform="translate(-495.062 -302.724)" fill="#548936"/>
      <path id="Path_52441" data-name="Path 52441" d="M576.464,386.543c-4.542,5.574-10.993,8.442-16.958,12.006-5.782,3.455-10.771,7.486-12.328,14.634a131.965,131.965,0,0,0-3.045,18.382c-.3,4.05-1.546,8.277.15,12.309.862.131.894-.5,1.161-.9,6.144-9.128,12.343-18.219,18.428-27.387,5.536-8.341,11.674-16.408,13.133-26.759h0c.625-1.531,1.2-2.747,3.011-.92a68.6,68.6,0,0,0,5.925,5.133,1.967,1.967,0,0,1,.627,2.909c-2.6,1.8-5.245,3.554-7.806,5.417-5.322,3.874-9.734,8.511-9.6,15.579.146,7.8-.744,15.477-1.453,23.2-.308,3.36-1.657,6.752-.742,10.375,10.993-7.2,11.779-10.662,13.818-17.934,1.7-6.085,2.7-12.377,3.878-18.6,1.092-5.737,2.817-11.357,3.208-17.224h0c.448-.237,1.172-.778,1.3-.661,2.544,2.277,6.061,3.575,7.333,7.147-.884,4.32-3.37,7.837-5.594,11.527-2.854,4.733-6.378,9.314-4.957,15.494,1.981,8.612,4.462,17.025,9.227,24.855a4.383,4.383,0,0,0,1.11-2.415c.637-6.6,1.57-13.185,1.936-19.8.371-6.7,1.96-13.324,1.33-20.087.9-3.236-1.834-6.158-.812-9.4h0c2.682,2.473,5.264,5.077,8.67,6.6.128.232.254.461.381.691-.782,2.4-1.373,4.881-2.376,7.183-5.165,11.849-1.655,21.759,6.573,30.725.559.61.983,1.262,1.82.962,1.059-.378.419-1.267.378-1.948-.085-1.4-.153-2.8-.312-4.2-1.167-10.194-.014-20.695-4.1-30.715,1.231.5,2.328.938,3.423,1.379-.2-1.069-1.4-2.468.928-2.716h0c11.447,2.41,22.554,7.505,35.8,5.024-4.3-3.1-7.531-5.526-10.853-7.817-5.293-3.649-10.918-5.846-17.573-4.36a79.2,79.2,0,0,0-12,3.932c-3.193.075-7.527-3.064-7.762-5.622,2.411-.026,4.826.007,7.234-.089,6.371-.25,12.747-.914,19.106-.756,8.966.221,17.02-1.25,22.72-9.153a7.053,7.053,0,0,0-3.21-.855,147.647,147.647,0,0,1-20.851-1.863c-3.2-.473-6.354-1.424-9.819-.581-7.476,1.817-12.813,6.558-17.852,11.88h0c-4.288-2.413-8.231-5.233-11.039-9.389,7.173,1.052,14-.668,20.719-2.8q16.3-5.173,32.49-10.693c2.02-.685,4.426-.705,6.265-2.725a16.94,16.94,0,0,0-2-.867,138.9,138.9,0,0,0-24.749-3.913c-7.508-.652-13.292,1.873-18.685,6.778-4.649,4.228-8.164,9.874-14.48,12.122-3.81,1.378-4.835-2.2-7.19-3.728,2.345-1.754,5.734-.516,7.209-3.391h0a38.783,38.783,0,0,0,4.755-2.435c10.848-7.525,22.12-14.394,33.246-21.49,4.847-3.093,9.607-6.321,14.406-9.489a118.7,118.7,0,0,0-31.463,5.349,33.423,33.423,0,0,0-14.709,9.177c-5.271,5.535-9.283,11.994-13.89,18.018-.6.785-.855,2.694-2.28,1.924-1.33-.719-.668-2.21-.131-3.438,2.737-6.262,5.518-12.505,8.113-18.826,2.284-5.567,5.036-11.085,3.639-18.288-7.5,8.007-17.353,13.666-16.088,26.332-.855,3.367.364,6.645.812,10.807-3.428-3.275-6.3-5.9-9.038-8.655-7.336-7.369-14.617-14.79-21.919-22.192A86.778,86.778,0,0,0,529.6,335.3c3.377,5.833,8.195,10.427,12.733,15.255,8.655,10.133,18.314,19.283,27.869,28.537.877.85,3.144,1.453.349,2.742-4.056-.083-8.089-.545-12.176-.133-7.141.72-17.53,9.489-19.552,17.043,8.81-3.12,17.418-6.228,26.074-9.2a20.248,20.248,0,0,0,8.036-4.954c1.945-2.015,2.806-1.252,4.046.3h0Q576.722,385.715,576.464,386.543Z" transform="translate(-529.6 -335.297)" fill="#548936"/>
    </g>
    <g id="Group_19205" data-name="Group 19205" transform="translate(355.457 462.605)">
      <path id="Path_52448" data-name="Path 52448" d="M347.018,358.666l-.02.051.077,0h0l.034-.055c-.031,0-.061,0-.09,0Z" transform="translate(-308.73 -285.62)" fill="#78aa57"/>
      <path id="Path_52449" data-name="Path 52449" d="M344.2,363.573c-11.57,6.42-15.592,17.869-19.392,29.427-.186.569-.705,1.553.412,1.948.862.3,1.068-.54,1.412-1,5.271-7,12.622-11.359,20.029-15.558,7.97-4.521,13.1-11.2,16.132-19.68C356.078,358.332,349.971,360.371,344.2,363.573Z" transform="translate(-324.527 -285.617)" fill="#78aa57"/>
      <path id="Path_52450" data-name="Path 52450" d="M395.616,356.875c-4.789-5.361-6.608-12.185-9.188-18.636-2.5-6.255-5.7-11.815-12.514-14.477a132.32,132.32,0,0,0-17.674-5.9c-3.953-.928-7.929-2.829-12.18-1.788-.266.831.353.962.7,1.287,8.048,7.5,16.051,15.056,24.148,22.508,7.365,6.778,14.366,14.109,24.359,17.18h0c1.413.857,2.524,1.614.434,3.118a68.414,68.414,0,0,0-6,5.043,1.966,1.966,0,0,1-2.97.16c-1.371-2.854-2.686-5.739-4.121-8.559-2.991-5.867-6.875-10.954-13.874-11.934-7.725-1.081-15.168-3.169-22.689-5.085-3.27-.833-6.408-2.7-10.129-2.365,5.378,11.989,8.677,13.31,15.538,16.468,5.741,2.641,11.8,4.608,17.759,6.756,5.5,1.981,10.775,4.567,16.507,5.879h0c.162.48.584,1.279.446,1.39-2.648,2.154-4.484,5.424-8.212,6.119-4.128-1.555-7.209-4.562-10.5-7.34-4.225-3.563-8.193-7.764-14.52-7.331-8.818.6-17.517,1.727-26,5.2a4.376,4.376,0,0,0,2.209,1.476c6.418,1.667,12.774,3.624,19.249,5.026,6.562,1.422,12.851,4.033,19.629,4.475,3.053,1.393,6.369-.845,9.414.676h0c-2.864,2.26-5.843,4.4-7.881,7.524l-.741.267c-2.246-1.148-4.6-2.122-6.722-3.476-10.887-6.963-21.228-5.056-31.376,1.659-.691.456-1.4.771-1.236,1.647.206,1.105,1.185.611,1.865.679,1.4.136,2.793.29,4.194.353,10.25.451,20.437,3.241,30.977.778l-1.9,3.164c1.088-.026,2.657-1,2.536,1.344h0c-4.179,10.926-10.959,21.093-10.593,34.562,3.741-3.755,6.642-6.567,9.428-9.487,4.436-4.653,7.491-9.862,7.069-16.669a79.146,79.146,0,0,0-2-12.468c.429-3.164,4.21-6.95,6.773-6.78-.354,2.384-.766,4.763-1.051,7.158-.754,6.33-1.1,12.732-2.258,18.987-1.63,8.82-1.444,17,5.465,23.876a7.048,7.048,0,0,0,1.35-3.035A147.448,147.448,0,0,1,384.46,406c.971-3.086,2.4-6.051,2.118-9.6-.618-7.67-4.46-13.685-8.924-19.5h0c3.059-3.856,6.463-7.306,11.008-9.424-2.168,6.919-1.543,13.93-.494,20.9q2.544,16.911,5.448,33.767c.358,2.1,0,4.482,1.7,6.618a16.9,16.9,0,0,0,1.172-1.844,138.888,138.888,0,0,0,7.759-23.826c1.826-7.313.24-13.421-3.755-19.518-3.443-5.257-8.466-9.617-9.692-16.207-.761-3.98,2.933-4.429,4.813-6.514,1.362,2.59-.392,5.742,2.214,7.653h0a38.554,38.554,0,0,0,1.657,5.078c5.725,11.9,10.736,24.109,15.993,36.212,2.291,5.274,4.731,10.482,7.1,15.72a118.607,118.607,0,0,0-.332-31.912,33.442,33.442,0,0,0-6.749-15.971c-4.636-6.075-10.385-11.052-15.608-16.55-.681-.717-2.527-1.269-1.541-2.554.918-1.2,2.287-.313,3.416.41,5.753,3.689,11.482,7.418,17.314,10.974,5.14,3.132,10.155,6.718,17.488,6.471-6.727-8.668-10.766-19.288-23.472-20.031-3.19-1.374-6.619-.685-10.8-.9,3.772-2.871,6.819-5.289,9.969-7.565,8.43-6.085,16.905-12.107,25.363-18.154A86.7,86.7,0,0,0,453.6,318.655c-6.291,2.418-11.585,6.453-17.067,10.175-11.367,6.952-21.924,15.053-32.564,23.033-.979.734-1.931,2.876-2.766-.087.722-3.993,1.812-7.9,2.049-12,.412-7.166-6.613-18.806-13.755-21.991,1.694,9.191,3.409,18.181,4.985,27.2A20.242,20.242,0,0,0,398.1,353.7c1.684,2.238.8,2.97-.932,3.949h0Q396.393,357.259,395.616,356.875Z" transform="translate(-324.238 -315.772)" fill="#78aa57"/>
    </g>
    <g id="Group_19206" data-name="Group 19206" transform="translate(296.78 427.229)">
      <path id="Path_52451" data-name="Path 52451" d="M316.453,330.771c-.014,0-.019.041-.012.044s.077,0,.073.009h0l.024-.048a.343.343,0,0,1-.082,0C316.45,330.768,316.453,330.771,316.453,330.771Z" transform="translate(-271.535 -269.852)" fill="#365b1e"/>
      <path id="Path_52452" data-name="Path 52452" d="M316.544,334.986c-10.57,9.22-18.409,19.806-26.02,31.18-.375.56-.758,1.177-.082,1.362s.845-.38,1.337-.831a107.28,107.28,0,0,1,25.293-16.914c9.232-4.6,14.455-8.944,17.852-18.84C328.059,330.092,321.813,330.39,316.544,334.986Z" transform="translate(-290.071 -269.995)" fill="#365b1e"/>
      <path id="Path_52453" data-name="Path 52453" d="M359.625,330.06c-2.631-4.75-2.064-10.489-3.028-15.456s-2.936-8.166-7.134-10.759c-3.575-2.209-7.508-4.143-11.326-6.148-2.5-1.313-5.128-2.634-8.026-2.7-.351.313.158.758.308.976,3.476,5.029,9.365,14.2,12.333,18.459,2.7,3.878,13.808,14.159,14.976,15.516h0c-.119,1.608,1.347,1.594-.143,2.74s-3.636,2.691-5.071,3.942c-.766.668-1.872.966-2.309-.017-1.018-2.284-1.182-4.947-1.885-7.42-1.461-5.141-2.965-8.965-8.4-10.831a97.45,97.45,0,0,1-17.268-7.594c-2.4-1.379-4.314-3.023-6.975-3.828,1.163,6.081,2.922,10.57,7.537,14.8a80.283,80.283,0,0,0,13.234,9.3c4.394,2.587,8.043,4.918,12.728,6.575h0c.066.194.312,1.061.189,1.167-2.384,2.061-4.225,4.111-7.338,4.852-3.53-1.935-5.671-4.624-8.21-7.766-3.258-4.031-5.826-7.9-11.175-9.586-7.456-2.357-15.623-5.16-23.5-6.139a4.251,4.251,0,0,0,1.31,1.674c5.206,3.878,9.69,8.246,15.112,12.122s10.974,7.915,17.629,9.927c1.805,1.16,6.582,1.318,8.128,1.594h0c.72,3.523-4.988,4.133-7.033,6.1a.653.653,0,0,1-.678.152,45.161,45.161,0,0,1-6.2-4.353c-9.368-7.684-16.832-11.241-28.693-11.4-.806-.01-1.185-.111-1.3.639s.7.865,1.289,1.267c1.2.823,1.865,1.1,3.263,2.066,10.228,7.064,16.212,13.419,29.616,13.1-.521.983-1.1,1.928-1.65,2.888,1.514-.037,2.369-.3,2.612,1.5h0c-4.705,14.528-4.14,14.867-2.028,29.458,2.119-2.769,4.033-4.792,6.349-7.546,3.69-4.39,4.353-8.22,2.67-13.975-1.051-3.586-2.418-7.757-3.588-11.418a6.56,6.56,0,0,1,5.9-5.662,44.9,44.9,0,0,0-.64,6.33c-.208,5.586.892,11.436,1.693,16.778,1.129,7.534,3.19,12.122,8.888,17.067a5.317,5.317,0,0,0,.642-2.231c.228-4.9.748-10.385.581-15.143-.077-2.2-.175-6.7-.574-8.03-.863-2.863-8.663-15.868-9-16.691h0c4.322-.479,6.115-5.363,9.47-7.747a29.492,29.492,0,0,0-.431,17.393c2.585,8.968,5.981,16.725,8.82,25.41.531,1.625.739,3.176,1.952,4.5a11.931,11.931,0,0,0,.562-1.4,92.206,92.206,0,0,0,2.095-18.1c.109-5.61-1.5-9.927-4.494-14.787-2.578-4.188-6.366-7.856-6.732-13.043-.221-3.135,2.519-3.486,4.305-5.247.237,1.911-.1,4.637.681,6.19h0c.433.858.467,3.094.986,4.268,3.89,8.786,8.556,17.783,13.159,26.275,2.006,3.7,3.891,6.935,5.938,10.523a93.8,93.8,0,0,0-2.519-22.243,34.087,34.087,0,0,0-5.255-11.616c-3.152-4.554-6.948-8.418-10-13.082-.4-.608-1.516-1.206-.68-2.039s1.638-.179,2.36.46a107.309,107.309,0,0,0,11.166,8.956c3.668,2.485,7.033,4.687,11.711,4.9-4.285-6.4-6.875-12.621-14.71-15.078-2.307-1.049-4.784-1.156-7.258-1.487,2.5-1.587,5.228-3.513,7.772-4.881,6.81-3.658,13.479-7.047,20.385-10.376a75.6,75.6,0,0,0,12.529-5.785c-4.712,1.09-8.779,3.152-13.222,5.056a184.8,184.8,0,0,0-25.875,13.394c-.768.482-1.746,1.637-1.819-.334.916-3.225,2.534-5.405,3.239-8.915a17.141,17.141,0,0,0-6.11-16.6c.09,6.47-.068,13.053-.472,19.514-.145,2.3-.223,5.347.9,7.161s-.734,2.951-1.3,3.219h0C360.449,330.336,359.836,330.441,359.625,330.06Z" transform="translate(-284.919 -294.999)" fill="#365b1e"/>
    </g>
    <g id="Group_19207" data-name="Group 19207" transform="translate(298.24 338.791)">
      <path id="Path_52454" data-name="Path 52454" d="M321.7,282.183l-.049.026.056.053h0l.061-.019c-.022-.02-.048-.039-.068-.06Z" transform="translate(-269.33 -215.571)" fill="#548936"/>
      <path id="Path_52455" data-name="Path 52455" d="M326.133,277.384c-12.912-2.9-23.528,2.98-34.051,9.089-.518.3-1.56.69-.986,1.729.441.8,1.156.307,1.715.194,8.59-1.72,16.982-.092,25.306,1.694,8.959,1.921,17.233.347,25.134-3.973C338.487,281.366,332.571,278.828,326.133,277.384Z" transform="translate(-290.929 -219.479)" fill="#548936"/>
      <path id="Path_52456" data-name="Path 52456" d="M379.946,307.82c-.012-7.188,3.168-13.494,5.528-20.029,2.289-6.335,3.6-12.614.278-19.133a132.069,132.069,0,0,0-9.278-16.158c-2.336-3.321-4.043-7.384-7.909-9.433-.751.445-.376.954-.332,1.429,1.022,10.955,1.977,21.917,3.072,32.868.995,9.961,1.35,20.092,6.773,29.027h0c.485,1.58.812,2.885-1.749,2.619a67.908,67.908,0,0,0-7.835-.223c-1.393.015-2.13-.507-2.326-1.856.875-3.043,1.812-6.071,2.614-9.133,1.667-6.371,2.147-12.752-2.428-18.138-5.051-5.945-9.223-12.454-13.568-18.884-1.887-2.795-2.992-6.275-5.993-8.5-3.954,12.531-2.369,15.712.657,22.631,2.532,5.79,5.749,11.287,8.774,16.854,2.788,5.133,5.01,10.575,8.421,15.366h0c-.2.465-.414,1.344-.591,1.335-3.411-.152-6.955,1.069-10.2-.891-2.05-3.9-2.354-8.2-2.967-12.466-.788-5.47-.959-11.246-5.972-15.131-6.986-5.412-14.232-10.356-22.876-13.4a4.365,4.365,0,0,0,.669,2.572c3.685,5.514,7.13,11.2,11.035,16.553,3.956,5.422,6.917,11.555,11.686,16.391,1.356,3.072,5.318,3.605,6.582,6.766h0c-3.641-.216-7.289-.6-10.889.38q-.365-.148-.731-.293c-.914-2.352-2.03-4.647-2.71-7.066-3.5-12.44-12.495-17.892-24.54-19.623-.819-.117-1.56-.353-2.018.409-.581.964.479,1.245.942,1.747.95,1.032,1.892,2.074,2.9,3.052,7.355,7.154,13.111,16.011,22.621,21.178-1.269.4-2.4.749-3.523,1.1.829.7,2.646,1.022,1,2.691h0c-10.386,5.381-22.21,8.469-30.892,18.774,5.291-.318,9.327-.49,13.35-.819,6.407-.526,12.154-2.386,16.362-7.75a79.021,79.021,0,0,0,6.8-10.64c2.425-2.079,7.766-2.393,9.567-.562-1.849,1.546-3.738,3.05-5.543,4.647-4.772,4.228-9.288,8.779-14.31,12.682-7.083,5.5-12.384,11.74-11.793,21.468a7.065,7.065,0,0,0,3.026-1.369A147.451,147.451,0,0,1,338.948,337.1c2.776-1.66,5.819-2.921,7.968-5.766,4.637-6.141,5.766-13.188,6.3-20.5h0c4.847-.846,9.685-1.16,14.487.279-6.218,3.728-10.414,9.38-14.264,15.284q-9.344,14.323-18.38,28.845c-1.131,1.809-2.98,3.346-3.127,6.075a17.565,17.565,0,0,0,2.1-.6,139,139,0,0,0,21.635-12.64c6.226-4.249,9.1-9.865,10.174-17.076.923-6.216.07-12.813,3.535-18.551,2.078-3.477,5.136-1.359,7.926-1.666-.7,2.841-4.111,4.029-3.433,7.188h0a38.786,38.786,0,0,0-2.141,4.9c-3.634,12.694-8.011,25.144-12.13,37.682-1.795,5.461-3.435,10.974-5.145,16.464a118.675,118.675,0,0,0,20.969-24.058A33.431,33.431,0,0,0,381,336.55c.576-7.621-.409-15.162-.656-22.74-.032-.989-1.044-2.628.547-2.934,1.485-.286,1.918,1.289,2.28,2.578,1.844,6.58,3.644,13.174,5.637,19.709,1.756,5.758,3.118,11.771,8.76,16.463.737-10.947,4.782-21.565-4.215-30.569-1.47-3.147-4.491-4.913-7.471-7.852,4.726.364,8.61.582,12.476.979,10.342,1.059,20.676,2.2,31.015,3.3a86.8,86.8,0,0,0,19.293,2.336c-6.306-2.377-12.944-2.883-19.515-3.748-13.113-2.365-26.384-3.333-39.639-4.446-1.218-.1-3.353.863-2.006-1.9,3.193-2.5,6.606-4.7,9.509-7.6,5.071-5.078,7.563-18.443,4.346-25.57-4.845,7.99-9.542,15.848-14.36,23.629a20.267,20.267,0,0,0-3.086,8.922c-.228,2.791-1.379,2.747-3.321,2.331h0Q380.272,308.624,379.946,307.82Z" transform="translate(-281.62 -243.068)" fill="#548936"/>
    </g>
    <g id="Group_19210" data-name="Group 19210" transform="translate(175.631 109.1)">
      <ellipse id="Ellipse_2047" data-name="Ellipse 2047" cx="19.171" cy="19.171" rx="19.171" ry="19.171" transform="matrix(0.16, -0.987, 0.987, 0.16, 394.472, 90.658)" fill="#ffeceb"/>
      <path id="Path_52459" data-name="Path 52459" d="M869.2,433.174a246.353,246.353,0,0,1-6.146,45.86,201.55,201.55,0,0,1-6.365,21.636c-.8,2.274-1.647,4.549-2.516,6.776h-50.8a.5.5,0,0,0-.218-.049c-.047,0-.1-.024-.146-.024-.12-.024-.266-.049-.458-.073a1.126,1.126,0,0,1-.268-.024,5.21,5.21,0,0,1-.6-.049c-.266-.024-.581-.047-.919-.047-.679-.049-1.525-.073-2.469-.122-.679-.024-1.428-.049-2.227-.073h-.1c-.508,0-1.017-.024-1.572-.047-.533-.026-1.09-.026-1.694-.049q-1.744-.035-3.776-.073c-2.034-.049-4.26-.073-6.68-.12-2.105-.026-4.332-.049-6.705-.073-6-.073-12.826-.122-20.4-.195h-.024c-1.79,0-3.63,0-5.493-.024-1.065-.024-2.155-.024-3.244-.024-1.887,0-3.823,0-5.782-.026-79.379-.362-216.791-.047-309.938-.024,7.018-13.213,13.359-27.613,10.286-46.466-10.068-61.517-102.877-61.615-119.454-115.921-.291-.992-.58-1.985-.8-3-5.277-21.538,1.96-47.119,16.552-72.65A242.548,242.548,0,0,1,357.4,238.626c34.751-44.191,86.3-83.009,125.455-93.22h.024c14.038-3.656,26.476-3.606,35.963,1.184,39.64,20.015,5.2,103,55.758,139.808,62.437,45.448,156.264-52.3,231.891-10.02C853.661,302.734,871.884,371.365,869.2,433.174Z" transform="translate(-199.259 -142.814)" fill="#ffeceb"/>
      <circle id="Ellipse_2048" data-name="Ellipse 2048" cx="37.851" cy="37.851" r="37.851" transform="translate(0 128.56) rotate(-45)" fill="#ffeceb"/>
    </g>
    <g id="Group_19215" data-name="Group 19215" transform="translate(646.04 253.252)">
      <g id="Group_19214" data-name="Group 19214">
        <path id="Path_52482" data-name="Path 52482" d="M538.586,386.773c7.237-2.372,14.217-5.7,21.811-6.687,6.146-.8,9.849-3.609,11.021-10.494.966-5.657,16.042-53.814,17.533-59.187,1.546-2.869,31.761-12.791,36.5-14.331,2.741,4.792-37.675,96.22-38.046,96.331-1.828,6.746-23.466,14.783-23.636,13.477-.2-1.527.935-2.1,1.795-2.813,2.961-2.448,6.83-3.765,9.88-8.727-11.716,2.531-22.046,4.8-32.4,6.961-2.012.421-8.116-3.028-10.2-7.483C533.244,390.111,535.01,387.948,538.586,386.773Z" transform="translate(-532.839 -130.654)" fill="#c5642e"/>
        <g id="Group_19213" data-name="Group 19213" transform="translate(23.833)">
          <g id="Group_19212" data-name="Group 19212">
            <path id="Path_52483" data-name="Path 52483" d="M616.538,415.171c-9.587-.1-9.154-7.658-10.014-14.5-.8-6.391-.5-13.193-5.094-18.462-2.294-.514-4.58-1.061-6.865-1.61,3.829-7.033,3.754-17.8-2.551-27.1a67.356,67.356,0,0,0-2.891-8.186,50.369,50.369,0,0,0-3.988-7.658c-3.539.7-5.791-.394-7.457-4.153-6.645-14.99-14.139-29.547-20.9-44.484-.963-2.129-1.359-5.576-5.1-3.893-2.978,8.163-11.259,34.007-1.873,63.993A94.358,94.358,0,0,0,569.8,384.141c-.078,13.363.723,26.706.862,40.061.064,6.009,2.81,8.111,7.918,8.713,11.267,1.331,22.009-1.8,32.874-3.938q2.729-6.606,5.456-13.223C616.789,415.553,616.664,415.171,616.538,415.171Z" transform="translate(-534.093 -151.07)" fill="#e4b62c"/>
            <path id="Path_52484" data-name="Path 52484" d="M547.676,304.388c5.744,6.358,7.683,14.94,11.685,22.325,0,0,7.8,15.52,14.144,29.734,18.668,41.825,23.583,79.318,29.871,78.67,1.463-.151,3.408-2.406,5.054-12.838-2.344-5.317-23.639-53.842-33.631-90.228-7.524-27.4-4.892-35.967-4.887-37.744a69.969,69.969,0,0,1,2.626-19.4,1.067,1.067,0,0,0-.285-.994c-4.745,2.824-10.265,3.765-14.753,7.407C550.182,287.269,549.867,296.2,547.676,304.388Z" transform="translate(-530.1 -170.335)" fill="#e4b62c"/>
            <path id="Path_52485" data-name="Path 52485" d="M588.881,340.8a3.776,3.776,0,0,1-.173.578c-.067.145-.1.287-.17.433.033.036,0,.036,0,.036-.14.36-.31.793-.516,1.225a.14.14,0,0,1-.034.109c-.55,1.225-.823,1.8-1.1,1.8C587.575,343.616,588.228,342.21,588.881,340.8Z" transform="translate(-459.874 -50.548)" fill="#fff"/>
            <path id="Path_52486" data-name="Path 52486" d="M587.294,342.4c.206-.433.377-.865.516-1.225-.1.287-.173.505-.173.505A4.624,4.624,0,0,1,587.294,342.4Z" transform="translate(-459.147 -49.877)" fill="#1d0024"/>
            <path id="Path_52487" data-name="Path 52487" d="M645.179,408.272c4.954-12.819-9.631-39.352-30.8-115.89-1.906-6.888-3.458-12.707-4.572-16.946-4.125-.823-8.261-1.786-12.372-2.252a58.2,58.2,0,0,1-4.075,5.755c-3.371,4.32-7.131,8.309-11.981,10.868-6.871,3.628-10.391,2.425-14.1-4.694-1.328-2.545-2.319-5.3-4.12-7.561a3.875,3.875,0,0,0-1.7-1.354,88.974,88.974,0,0,0-5.975,21.323c-4.192,28.152,6.33,50.987,11.454,60.507q2.064,4.559,4.08,9.269c5.755,13.458,10.642,26.6,14.806,39.3l.014.006c1.337,7.926,2.9,15.838,3.416,23.823.427,6.639,2.59,7.968,8.046,5.936,1.007-.377,2.255-.039,3.388-.031q23.674-3.24,47.348-6.483C647.959,422.525,646.421,415.419,645.179,408.272Z" transform="translate(-517.858 -171.65)" fill="#f0e7e3"/>
            <path id="Path_52488" data-name="Path 52488" d="M545.8,259.793c3.087,11.219,4.036,23.061,8.9,33.765,2.579,5.677,5.11,11.4,10.058,13.625,2.141.963,6.115,2,8.747.477a1.968,1.968,0,0,1,1.323-.36c1.591.265,2.459,3.3,2.947,5.9,1.312,5.554-.394,9.936-4.7,13.3,8.705,4.454,17.669,6.282,27.254,3.486,8.649-2.52,16.734-5.78,21.381-14.705.335-.642,1.451-.837,2.2-1.242-5.995-.9-9.109-4.418-10.075-10.8-1.032-6.8-2.822-13.477-4.278-20.209-4.75-3.812-5.149-7.368-1.694-13.173,4.555-7.653,1.948-14.7-4.957-18.37-3.745-.254-6.665,1.412-8.984,4.351-2.59,3.279-4.733,3.779-6.288-.893-1.069-3.21-3.213-4.6-6.472-4.175-11.06,1.449-21.973,4.039-33.125,4.8a3.082,3.082,0,0,0-2.607,1.722C545.558,258.121,545.681,258.959,545.8,259.793Z" transform="translate(-534.113 -211.929)" fill="#db844b"/>
            <path id="Path_52489" data-name="Path 52489" d="M552.7,282.161c11.63-.061,23.006-2.21,34.292-4.87,3.963-.935,6.151-.184,6.444,4.5.137,2.182.5,4.89,3.176,5.239,2.492.324,3.8-2.026,4.8-3.913,2.11-4.011,5.094-5.928,9.439-5.481,1.622-.126,2.7.879,3.812,1.92,2.208,2.062,3.72,1.342,4.63-1.415,1.4-3.123-.991-6.5.583-9.609,3.458-4.594,6.475-10.751,2.57-15.018-4.733-5.172-8.95-11.666-15.478-14.61-7.044-3.176-14.3-3.059-20.589,2.523-1.451,1.287-2.512.762-4.033.293-11.5-3.539-20.229-.162-26.3,10.321a3.327,3.327,0,0,1-3.45,2.037c-5.3,0-9.232,2.487-10.589,7.993-1.479,6-.43,11.658,4.226,15.9C548.117,279.694,550.526,280.785,552.7,282.161Z" transform="translate(-541.378 -236.803)" fill="#1d0024"/>
            <path id="Path_52490" data-name="Path 52490" d="M575.917,252.266c-3.039,4-5.49-2.877-8.443-.505,7.2,4.839,5.431,16.081,1.323,19.472-6.2,5.118-2.152,7.047,1.725,9.489a21.429,21.429,0,0,0,2.93,1.309C573.445,272.034,576.344,262.3,575.917,252.266Z" transform="translate(-498.004 -210.931)" fill="#1d0024"/>
            <path id="Path_52492" data-name="Path 52492" d="M555.044,288.652c-.092,2.375-1.016,10.011.427,10.578,1.468.58,2.277-.893,3.131-1.85,1.465-1.641,2.78-3.424,4.22-5.091,1.479-1.719,3.327-3.221,3.165-5.908l-.24-1.038c-1.49-3.31-1.663-7.078-3.273-10.343-.3-.589-.595-1.175-.893-1.761C557.966,277.706,554.547,282.264,555.044,288.652Z" transform="translate(-517.577 -171.551)" fill="#d6cfcc"/>
            <path id="Path_52493" data-name="Path 52493" d="M567,286.67a9.559,9.559,0,0,1,2.2-.647q-1.7-2.851-3.408-5.7a2.335,2.335,0,0,1-1.415,1.462c-1,.234-1.814-.659-2.18-1.058a4.42,4.42,0,0,1-1.072-2.777q-1.872,2.512-3.74,5.021c1.6,6.352,2.975,7.907,4.014,7.915C562.782,290.9,563.56,288.15,567,286.67Z" transform="translate(-512.714 -163.12)" fill="#f0e7e3"/>
            <path id="Path_52494" data-name="Path 52494" d="M617.686,303.177a349.371,349.371,0,0,1-8.041,62.525,282.862,282.862,0,0,1-8.33,29.5c-1.045,3.1-2.151,6.2-3.293,9.238-.7,1.848-1.425,3.7-2.184,5.512-2.756.232-4.181-1.122-4.117-5.512v-.2c.062-2.8-.888-5.643-1.363-8.448v-.033c-3.134-8.116-5.35-16.4-4.211-25.141v-.033a26.391,26.391,0,0,1,.413-2.607c-.094-4.058-.54-8.116-.666-12.174v-.033a48.089,48.089,0,0,1,.254-8.283c2.629-20.457,10.64-39.031,19.853-57.147,2.44-4.75,4.181-4.717,7.347-1.549C614.805,293.577,616.228,298.394,617.686,303.177Z" transform="translate(-469.543 -147.674)" fill="#e4b62c"/>
            <path id="Path_52495" data-name="Path 52495" d="M629.657,319.069c-5.718-28.222-20.146-44.836-42.6-49.064a4.656,4.656,0,0,0-1.158-.226c-4.287.346-8.788-.592-11.412,2.194-3.6,3.824-.309,9.029,1.412,13.173,5.084,12.227,1.3,24.39.54,36.4-1.276,20.042-3.57,96.928-1.363,98.692,8.531,6.824,21.9,2.916,27.9-8.021.986-1.794,1.648-3.826,2.671-5.582a20.512,20.512,0,0,0,1.019-9.274c-1.943-27.585,7.578-51.023,17.206-74.473C625.21,319.632,627.363,319.465,629.657,319.069Z" transform="translate(-484.981 -177.754)" fill="#e4b62c"/>
            <path id="Path_52496" data-name="Path 52496" d="M563.858,307.575c.768,1.284,1.5,2.59,2.305,3.851,4.022,6.344,3.977,6.277,9.771,1.306,2.548-2.185,17.907-23.622,25.406-30.212,3.064-2.693,8.423-6.068,9.344-5.825-4.03-1.066-11.256-6.813-17.683-10.784l-32.553,35.961C559.954,304.848,561.754,306.311,563.858,307.575Z" transform="translate(-507.374 -184.672)" fill="#d6cfcc"/>
          </g>
          <path id="Path_52497" data-name="Path 52497" d="M604.978,252.43c.137-5.657-5.384-12.071-11.027-9.163-2.194,1.128-3.612,3.466-5.88,4.616a13.4,13.4,0,0,1-8.828.874,31.442,31.442,0,0,1-9.143-3.684c-3.157-1.789-6.154-.5-8.867,1.778-2.292,1.923-3.028,4.795-4.828,7.108a11.254,11.254,0,0,1-6.885,4.225c-.915.173-5.654.689-5.113-1.6.3-1.253,1.521-.234,2.224-.145a7.209,7.209,0,0,0,4.318-.963c2.587-1.379,3.971-3.489,5.339-6.054a15,15,0,0,1,6.4-6.62c3.4-1.823,5.719-1.647,9.112.123,3.291,1.716,6.578,3.5,10.349,3.539,6.266.061,8.674-6.606,14.842-6.492,7.725.145,10.153,6.949,10.767,13.913a12.934,12.934,0,0,0,1.638,4.789c.446.966,1.412,3.017-.6,3.148-1.075.067-2.713-2.554-3.009-3.29C605.028,256.622,605.779,254.228,604.978,252.43Z" transform="translate(-536.032 -231.136)" fill="#2a1c33" opacity="0.42"/>
          <path id="Path_52498" data-name="Path 52498" d="M586.97,246.856c3.335,1.136,4.627,5.272,7.9,6.107.988.254,3.684-.818,4.4-.223,1.345,1.119-.232,2.576-1.175,2.939-3.179,1.231-6.291-1-8.347-3.184-2.481-2.635-3.55-3.773-6.866-1.875.929,1.144,2.389,2.361,1.934,4.041a3.239,3.239,0,0,1-2.81,2.146,2.826,2.826,0,0,1-2.537-2.018c-.36-.932.2-2.361-.569-3.034-.547-.48-2.989.07-3.556.2-1.409.332-2.688,1.181-4.108,1.535a10.577,10.577,0,0,1-4.756.159c-1.164-.246-2.763-1.488-3.929-1.208-1.027.246-2.222,1.892-3.115,2.515a19.823,19.823,0,0,1-4.116,2.171c-2.244.879-5.922,2.464-8.046.594-3.023-2.663,2.93-1.306,4.15-1.563,3.4-.709,6.084-2.986,8.925-4.892-.8-1.474-2.272-2.69-1.881-4.641s2.353-2.342,3.983-1.658c3.14,1.312.625,4.652,3.335,5.908,3.374,1.569,6.715-.807,9.969-1.462,1.839-.368,3.751-.237,5.512-.946C583.194,247.691,584.731,246.231,586.97,246.856Z" transform="translate(-532.344 -222.741)" fill="#2a1c33" opacity="0.42"/>
          <path id="Path_52499" data-name="Path 52499" d="M559.48,257.155a33.827,33.827,0,0,1,.039-3.91c.153-1.287.625-2.453,2.23-1.4.594.8.025,1.831.463,2.665.151.678-.53,1.9.991,1.68,1.571-.128.985-1.549,1.314-2.42l.162.045a.947.947,0,0,1,.558-.779,1.712,1.712,0,0,1,1.716.709l.017.034c.516,1.312-.139,2.746.393,4.055-.22,3.6.483,7.237-.421,10.82-.653,2.59-2.422,3.511-4.716,3.776-1.075.126-1.792-.24-1.9-1.476-.449-1.861.148-3.8-.352-5.657q-.062-2.076-.128-4.156C559.416,259.843,560.027,258.441,559.48,257.155Z" transform="translate(-509.032 -210.6)" fill="#1d0024"/>
          <path id="Path_52500" data-name="Path 52500" d="M563.564,259l-.407.572c-3.215-3.561,2.8-8.878,5.858-9.6,2.356-.553,4.945.109,7.248.715.907.24,2.643.946,3.586.435.226-.123.62-1.058.625-1.058,1.376-.117,1.873,1.8.681,3-1.6,1.613-5.138.159-6.949-.349-2.291-.645-4.418-.915-6.615.248a6.406,6.406,0,0,0-2.788,2.6C564.357,256.468,564.566,258.547,563.564,259Z" transform="translate(-504.021 -213.578)" fill="#2a1c33" opacity="0.42"/>
          <path id="Path_52501" data-name="Path 52501" d="M561.333,242.191c-4.733-.8-6.573,1.3-9.257,4.9-.787,1.052-3.966,4.086-5.579,3.408-1.982-.835,2.542-3.461,3.137-4.064,3.3-3.366,4.008-6.486,9.21-6.534.854-.006,5.2-.368,5.953.3C566.759,241.946,562.24,242.4,561.333,242.191Z" transform="translate(-533.104 -231.447)" fill="#200021"/>
          <path id="Path_52502" data-name="Path 52502" d="M570.363,257.577a11.518,11.518,0,0,1-1.088-10.455c.251-.74.209-1.56,1.047-1.206.528.223,1.636.737,1.114,1.783-2.115,4.237-.165,7.778,1.722,11.295,1.125,2.093,1.649,4.557,3.463,6.238.254.237.558.7.193,1.044a.834.834,0,0,1-1.239-.209c-1.13-1.482-2.266-2.967-3.268-4.544A43.02,43.02,0,0,1,570.363,257.577Z" transform="translate(-492.776 -220.634)" fill="#200021"/>
          <path id="Path_52503" data-name="Path 52503" d="M566.077,249.694l4.711,1.775c-1.591,2.866-5.713.159-8.108.329a24.145,24.145,0,0,0-5,1.144c-1.086.321-3.157,1.381-4.273,1.228-3.372-.463,1.334-2.11,2.464-2.559C558.915,250.4,562.775,248.9,566.077,249.694Z" transform="translate(-521.981 -214.113)" fill="#2a1c33" opacity="0.42"/>
          <path id="Path_52504" data-name="Path 52504" d="M556.265,252.849c-2.668,1.917-5.411,3.631-8.811,3.466-1.767-.084-3.606.156-4.993-1.574-.581-.723-.971-1.471-.449-2.085.633-.745,1.116.265,1.691.561a7.386,7.386,0,0,0,6.14.67C551.9,253.111,553.868,252.017,556.265,252.849Z" transform="translate(-540.682 -208.893)" fill="#210022"/>
        </g>
        <path id="Path_52505" data-name="Path 52505" d="M557.2,301.847c-2.813,2.06-4.787,1.582-6.643-1.6a2.735,2.735,0,0,1,.036-1.956c.765-1.733,2.389-1.421,4-.706a6.884,6.884,0,0,1,2.632,2.3A2.4,2.4,0,0,1,557.2,301.847Z" transform="translate(-501.398 -128.975)" fill="#d3bb54"/>
        <path id="Path_52506" data-name="Path 52506" d="M557.034,306.876c-2.47-.039-3.193-1.262-3.268-2.305-.064-.9,1.03-1.769,2.858-1.672,1.794.1,3.424,1.476,3.2,2.788C559.669,306.619,558.787,306.957,557.034,306.876Z" transform="translate(-495.366 -118.445)" fill="#d3bb54"/>
        <path id="Path_52507" data-name="Path 52507" d="M563.377,311.016a3.544,3.544,0,0,1-4.024,1.563,3.336,3.336,0,0,1-2.908-2.623c-.17-1.2-1.228-2.961.89-3.572,2.866-.826,4.4.977,6,2.266A3.143,3.143,0,0,1,563.377,311.016Z" transform="translate(-491.305 -112.566)" fill="#d3bb54"/>
      </g>
    </g>
    <path id="Path_52508" data-name="Path 52508" d="M806.312,328.766c-.533,1.356-1.09,2.709-1.67,4.041-1.548,3.776-3.242,7.5-5.009,11.132-.46.944-.921,1.889-1.4,2.808q-3.848,7.623-8.275,14.811a213.7,213.7,0,0,1-15.441,22.095c-1.163,1.478-2.323,2.93-3.533,4.356-.557.7-1.137,1.381-1.743,2.082q-5.734,6.788-12.027,13.068c-1.064,1.09-2.129,2.154-3.219,3.219-1.114,1.09-2.227,2.154-3.364,3.2q-7.658,7.186-15.875,13.674c-.992.8-2.009,1.572-3,2.371a268.386,268.386,0,0,1-28.243,18.925c-30.637,17.91-64.035,29.476-95.979,34.244C519,492,425.37,454.947,386.261,406.376c-7.382-9.17-12.826-18.779-15.925-28.509-6.1-19.118,3.7-33.76,12.464-50.215,93.147-.024,230.559-.338,309.938.024,1.96.026,3.9.026,5.782.026,1.09,0,2.18,0,3.244.024,1.863.024,3.7.024,5.493.024h.024c7.575.073,14.4.122,20.4.195,2.373.024,4.6.047,6.705.073,2.42.047,4.645.071,6.68.12q2.03.035,3.776.073c.6.024,1.161.024,1.694.049.555.024,1.064.047,1.572.047h.1c.8.024,1.548.049,2.227.073.945.049,1.791.073,2.469.122.338,0,.653.024.919.047a5.209,5.209,0,0,0,.6.049,1.127,1.127,0,0,0,.268.024c.193.024.339.049.458.073.049,0,.1.024.146.024a.5.5,0,0,1,.218.049Z" transform="translate(27.407 135.439)" fill="#ffeceb"/>
    <path id="Path_52509" data-name="Path 52509" d="M636.7,308.553a396.008,396.008,0,0,1-67.952,7.3c-10.193.2-18.262.1-24.838.07l2.971,24.113,110.02,8.624c9.471-4.708,15.743-12.986,15.159-20.817C671.216,316.471,655.847,305.07,636.7,308.553Z" transform="translate(133.034 143.805)" fill="#db844b"/>
    <g id="Group_19226" data-name="Group 19226" transform="translate(395.589 233.611)">
      <g id="Group_19225" data-name="Group 19225">
        <g id="Group_19221" data-name="Group 19221">
          <g id="Group_19217" data-name="Group 19217" transform="translate(0.841 96.49)">
            <g id="Group_19216" data-name="Group 19216">
              <path id="Path_52510" data-name="Path 52510" d="M595.853,290.813c-4.773-5.973-9.442-7.346-15.724-9.062-6.9-1.889-12.941-2.816-19.294-4.945-.857-.307-1.716-.617-2.609-.96-.307-.1-.617-.207-.927-.343-1.613.343-2.746,1.407-4.223,2.163a70.217,70.217,0,0,1-7.415,3.4c-8.649,3.4-16.477,4.153-24.443,2.54-.033.033-.033.033-.033,0-6.592-1.3-13.285-4.223-20.53-8.652-1.234-.753-2.263-1.956-3.6-2.369a3.019,3.019,0,0,0-1.373-.137c-1.167.173-2.3.276-3.433.38-7.485.684-14.864.444-22.35,2.163-12.152,2.78-18.124,11.979-21.833,23.377s-5.286,22.59-7.346,34.432c-.447,2.609-1.167,5.666,1.683,7.382a8.4,8.4,0,0,0,4.633,2.713,22.381,22.381,0,0,1,2.4-4.909c9.818,2.47,19.6,5.046,29.455,7.346,2.333.55,4.05,1.236,4.292,3.606.377-.139.754-.31,1.13-.483a11.2,11.2,0,0,0,1.786-1.03c.034,0,.034,0,.034-.033a63.233,63.233,0,0,0,5.322-4.359l.413,2.266c1.44,7.415,3.26,14.144,3.123,22-.173,8.652.17,15.931,4.806,23.756,4.326,7.279,8.309,14.384,9.132,23.1a4.1,4.1,0,0,0,.48.687,23.96,23.96,0,0,0,13.321,10.438c7.9.2,15.757.65,23.617,1.234.686.036,1.339.07,2.026.14.55.033,1.1.067,1.647.137,13.391,1.03,26.779,2.369,40.237,3.569,1.167-12.838,2.263-32.1,4.736-47.339-.034-.034,0-.1,0-.137.137-.963.31-1.889.48-2.816.137-.823.276-1.613.413-2.369a79.085,79.085,0,0,1,2.369-9.372c1.716-5.079-1.753-6.659-2.439-11.192-.994-6.829-.994-9.852,6.559-12.358.067-.033.17-.067.24-.1,2.78-.927,6.043-2.163,8.206-4.5C607.558,317.486,610.991,309.693,595.853,290.813ZM579.03,377.7c.79-10.505,1.58-21.01,2.3-31.512.173-2.439,1.066-3.779,3.709-3.916V377.7Z" transform="translate(-440.295 -272.42)" fill="#4d6882"/>
            </g>
          </g>
          <path id="Path_52511" data-name="Path 52511" d="M478.86,306.863a8.982,8.982,0,0,1-1.133.377,8.685,8.685,0,0,1-1.613.343c-.413-.173-.79-.343-1.2-.48q-2.215-.875-4.429-1.546c-7.519-2.23-15.275-2.883-23.207-4.016a45.545,45.545,0,0,1-4.566-.72,22.378,22.378,0,0,1,2.4-4.909c9.818,2.47,19.6,5.046,29.455,7.346a10.607,10.607,0,0,1,2.506.86l.31.2a2.532,2.532,0,0,1,.65.55A3.422,3.422,0,0,1,478.86,306.863Z" transform="translate(-435.129 -133.858)" fill="#48627c"/>
          <path id="Path_52512" data-name="Path 52512" d="M537,405.807a13.208,13.208,0,0,1-1,1.957c-5.732,3.433-11.4,2.336-16.994-.41-1.27-3.193-3.946-5.049-6.659-6.8q-17.972-11.688-35.978-23.343c-5.869-.826-9.989-4.429-13.731-8.685-3.706-3.846-8.376-6.386-12.875-9.132-7.312-4.429-10.572-10.778-9.612-19.087.86-7.312,1.683-14.694,3.572-21.766,1.783-6.829,1.407-14.211,3.843-20.87a45.543,45.543,0,0,0,4.566.72c7.932,1.133,15.688,1.786,23.206,4.016l1.34,28.219a42.934,42.934,0,0,1,1.373-4.806c1.27-2.78,2.78-8.445,4.393-20.564-1.783-.033-3.33-.617-2.85-1.133l.173-.17c.413.137.79.307,1.2.48a8.684,8.684,0,0,0,1.613-.343,8.987,8.987,0,0,0,1.133-.377,3.989,3.989,0,0,1,.034.65c.17.24.343.447.48.687,1.407,2.4.273,4.842-.514,7.209-1.993,6.146-3.229,12.531-5.289,18.64-1.613,4.773-.617,8.688,3.433,11.674,1.613,1.2,3.193,2.47,4.706,3.81,3.533,3.056,6.9,6.349,10.5,9.338,4.909,4.119,10.095,8.169,12.7,14.418a50.065,50.065,0,0,0,10.126,9.475c6.179,2.883,12.841,5.012,17.784,10.092a27.882,27.882,0,0,0-.034,5.629C537.929,398.871,538.342,402.444,537,405.807Z" transform="translate(-439.993 -130.708)" fill="#db844b"/>
          <g id="Group_19218" data-name="Group 19218" transform="translate(56.638 20.037)">
            <path id="Path_52513" data-name="Path 52513" d="M524.63,306.434c-2.215,1.3-6.74,3.132-14.429,1a37.354,37.354,0,0,0,5.006,15.344,22.216,22.216,0,0,0,1.368,2.13c.063.1,1.109.6,1.2.708a44.1,44.1,0,0,1-21.571,9.418,36.718,36.718,0,0,1-8.677.243c-9.456-.826-18.662-5.459-26.373-13.631-.281-.307-.592-.617-.87-.927.4-.377.806-.754,1.211-1.1a52.4,52.4,0,0,0,9.486-11.191,37.361,37.361,0,0,0,5.193-16.48v-.137a45.644,45.644,0,0,0-1.431-16.991c-1.4-5.082.4-9.715,4.106-11.4.124-.07.281-.1.4-.173a8.547,8.547,0,0,1,3.421-.48,9.1,9.1,0,0,0,.963.036c3.795.067,4.076-1.169,5.039-5.219.187-.723.341-1.443.5-2.1v-.067c1.181-4.772,2.425-7.862,8.273-9.029.683-.137,1.368-.276,2.05-.377a64.376,64.376,0,0,1,12.813-.963,48.362,48.362,0,0,1,18.909,4.293C539.876,276.583,535.785,299.893,524.63,306.434Z" transform="translate(-460.287 -245.026)" fill="#db844b"/>
          </g>
          <g id="Group_19219" data-name="Group 19219" transform="translate(69.398)">
            <path id="Path_52514" data-name="Path 52514" d="M528.674,264.847c-.3.207-.658.377-.987.583-8.618.48-18.121-1.75-26.311-2.816-10.46-1.373-13.42-.2-16.84,9.818a31.459,31.459,0,0,1-1.842,5.149c-.032.07-.064.1-.1.173-1.019,1.82-1.874,2.677-3.717.583a8.278,8.278,0,0,0-1.38-1.3,4.767,4.767,0,0,0-4.8-.929c-.131.07-.3.1-.428.173a6.419,6.419,0,0,0-1.481,1.03c-2.96,2.573-4.177,6.522-2.334,10.125.406.8,1.944,5.735,2.332,7.17.583,2.143.738,5.414-1.345,10.2h0s-7.4-32.863-3.388-48.333a16.644,16.644,0,0,1,4.645-8.387,14.662,14.662,0,0,1,6.474-3.424c12.134-3.157,25.062-5.869,37.56-6.762a18.93,18.93,0,0,1,7.762.96c6.412,2.37,11.051,5.632,12.169,13.011C535.581,257.842,533.378,261.894,528.674,264.847Z" transform="translate(-464.859 -237.847)" fill="#210022"/>
          </g>
          <path id="Path_52515" data-name="Path 52515" d="M517.886,334.572a36.675,36.675,0,0,1-11.328,1.51c-3.5,0-6.969-.274-10.435-.343a53.7,53.7,0,0,0-6.179.1c.067-.72.1-1.407.17-2.129h6.009V298.284c5.732-.343,11.432-.857,17.131-1.3.137,1.236.31,2.473.446,3.706,1.373,11.021,2.713,22.006,4.083,33.025C517.819,333.989,517.852,334.3,517.886,334.572Z" transform="translate(-350.537 -131.942)" fill="#db844b"/>
          <path id="Path_52516" data-name="Path 52516" d="M487.253,372.486a3.107,3.107,0,0,1-.17.516q-11.693-10.558-23.346-21.147c-2.78-2.506-5.56-5.046-8.376-7.552a12.09,12.09,0,0,1-.927-.927c-1.75-1.959-2.233-3.949-1.306-6.935.343-1.133.619-2.093.86-2.953a42.91,42.91,0,0,1,1.373-4.806c1.27-2.78,2.78-8.445,4.393-20.564.022-.148-.187-.765.14-1.167a1.446,1.446,0,0,1,1.133-.377c1.945-.008,6.162-3.5,8.741-7.767a21.436,21.436,0,0,0,1.384-2.738c4.086,15.208,8.412,29.212,11.468,43.494C484.92,350.346,491.339,360.781,487.253,372.486Z" transform="translate(-417.296 -133.572)" fill="#48627c"/>
          <g id="Group_19220" data-name="Group 19220" transform="translate(93.216 201.77)">
            <path id="Path_52517" data-name="Path 52517" d="M489.859,378.551c1.356-.921.575-2.5,1.13-3.667-.095-11.686-.17-23.368-.3-35.054-.025-2.333.522-4.811-1.3-6.818l-16-.385Q481.628,355.588,489.859,378.551Z" transform="translate(-473.393 -269.875)" fill="#8a939f"/>
            <path id="Path_52518" data-name="Path 52518" d="M650.18,418.681c.287-21.928-2.208-87.64-2.18-95.059.014-3.017-.326-5.819-2.554-8.01-3.266-4.8-8.2-4.957-12.989-4.639-44.909,2.981-89.873,3.112-134.846,3.1-14.161-.006-18.091,4.413-18.085,19.5,0,8.016-.19,16.031-.115,24.052-.315,5.95-.025,11.917-.605,17.856.614,11.225.226,22.458.354,33.686.036,2.972-.033,5.97,1.08,8.8,2.81,4.041,7.125,3.1,10.837,3.087C524.036,420.967,650.144,421.422,650.18,418.681Z" transform="translate(-463.697 -308.834)" fill="#b7bec7"/>
            <path id="Path_52519" data-name="Path 52519" d="M646.374,316.7h-.137c-13.595.17-34.6.24-60.764-.31-5.9-.1-15.344-.273-34.191-.617-9.405-.14-17.474-.276-24.34-.31-3.639,0-6.935,0-9.955.07-3.57.034-6.729.137-9.545.307-12.872.79-18.537,2.919-22.244,7.792-3.673,4.876-3.536,10.128-3.433,19.363.067,4.943.137,10.469.2,16.238.14,14.591.276,30.655.14,42.43v.14c-.1,9.405-.38,16.031-.927,16.924-.036.067-.07.1-.1.1s-.07-.033-.1-.1a.036.036,0,0,1-.036-.036,4.075,4.075,0,0,1-.137-.48,1.839,1.839,0,0,1-.1-.413,49.845,49.845,0,0,1-.583-5.353c-.687-8.275-1.337-23.483-1.647-39.2-.07-4.773-.137-9.578-.173-14.284-.034-10.779.139-20.87.583-28.079.243-3.949.893-11.811,6.559-16.651,4.359-3.706,9.782-4.05,12.185-4.05h10.505c.929-.036,1.856-.036,2.849-.036h37.591c28.322.036,56.644,0,84.967.036C638.822,310.178,644.074,310.625,646.374,316.7Z" transform="translate(-464.618 -310.142)" fill="#8a939f"/>
            <path id="Path_52520" data-name="Path 52520" d="M525.027,340.093c1.61-5.336-2.395-8.663-8.306-9.263-5.166-.522-10.248,3.731-10.628,8.66-.483,6.293,3.1,11.493,8.272,11.992C521.052,352.127,524.167,348.8,525.027,340.093Z" transform="translate(-414.908 -273.17)" fill="#f7f9fa"/>
          </g>
        </g>
        <path id="Path_52521" data-name="Path 52521" d="M482.5,307.533c-4.845-2.573-9.8-5.049-13.067-9.7a65.077,65.077,0,0,1-7.46-14.016c-1.041-2.688-1.951-5.423-2.917-8.138a6.912,6.912,0,0,1,.008-3.24c.943-1.6,2.208-1.828,3.843-.555,1.13.882,2.138,1.917,3.2,2.886.659.461,22.947,12.026,24.669,12.648,2.487.9,2.844,1.532,1.945,3.924-1.775,4.733-3.424,9.517-5.543,14.116a5.144,5.144,0,0,1-1.437,2.063A6.961,6.961,0,0,1,482.5,307.533Z" transform="translate(-406.189 -178.358)" fill="#48627c"/>
        <path id="Path_52522" data-name="Path 52522" d="M498.594,272.063l1.546.014c.89.648.382,1.49.318,2.275-.8,1.761-.759,3.681-1.033,5.543-.469.748.017,1.641-.366,2.4-1.563,5.713-4.016,10.946-8.487,14.99q-4.324,3.914-8.872,7.58c-1.959,1.583-3.458.793-4.158-1.744a113.45,113.45,0,0,1-2.93-13.818,5.7,5.7,0,0,1,0-2.769,3.064,3.064,0,0,1,2.238-1.747,53.813,53.813,0,0,0,19.8-11.345A19.759,19.759,0,0,1,498.594,272.063Z" transform="translate(-378.303 -176.568)" fill="#48627c"/>
        <g id="Group_19222" data-name="Group 19222" transform="translate(73.327 4.055)">
          <path id="Path_52523" data-name="Path 52523" d="M489.186,248.16c-2.788-.218-5.649-.154-8.244-1.105a9.961,9.961,0,0,0-3.581.008c-5.819.488-8.066,1.591-8.8,7.6-.494,1.582.084,3.2-.315,4.792a4.64,4.64,0,0,0-.089.826c.036.55-.073,1.049-1.03,1.019-.887-.028-.728-.525-.723-.977.025-3.154-.667-6.333.812-9.433,2.118-4.446,8.311-6.748,14.747-5.509a7.819,7.819,0,0,0,2.892.4c.767.313,1.663-.008,2.442.251l1.287.087c.932.321,1.97-.017,2.917.237,7.429,1.038,14.354.287,20.569-2.97a9.281,9.281,0,0,0,1.739-.98c.142-.123.393-.234.416-.368.318-1.8,1.862-1.334,3.366-.946.555.536.352,1.094.106,1.658l-.008.014a4.145,4.145,0,0,1-2.367,1.647c-5.333,3.212-11.6,4.393-18.431,4.32-1.451-.34-2.978.039-4.435-.24l-.921-.07C490.816,248.057,489.932,248.426,489.186,248.16Z" transform="translate(-466.267 -236.723)" fill="#2b182d" opacity="0.47"/>
          <path id="Path_52524" data-name="Path 52524" d="M487.37,244.025a26.978,26.978,0,0,0,10.321-2.445,23.283,23.283,0,0,1,11.616-2.238c.826.265,1.758,0,2.584.257,6.346,2.422,8.451,8.205,5.5,12.252a7.3,7.3,0,0,1-1.49,1.448c-.475.36-.988,1.108-1.839.522-.667-.461-.139-1.008.394-1.454,3.438-2.883,1.708-7.443-1.069-9.5-2.933-2.166-8.437-2.074-12.3-.31a38.067,38.067,0,0,1-11.144,3.447c-.952.354-2.037-.036-2.995.285-4.418.011-8.836.028-13.254.028-.818,0-1.889.117-1.848-.8.034-.751.69-1.153,1.811-1.158,3.72-.02,7.438-.067,11.158-.1C485.64,244.039,486.55,244.285,487.37,244.025Z" transform="translate(-456.284 -239.3)" fill="#2b182d" opacity="0.47"/>
          <path id="Path_52525" data-name="Path 52525" d="M514.7,241.72c2.074.148,1.454,1.125,1.069,1.92-2.25,4.636-7.309,6.774-13.65,7.669-.815.117-1.58.352-2.4.416-1.142.318-2.383-.061-3.522.271l-1.619.081a13.2,13.2,0,0,1-3.723,0c-3.57-.354-6.852-1.6-10.4-1.9-5.529-.463-10.251,1.175-10.633,5.671-.039.433.159.9-.349,1.267a1.5,1.5,0,0,1-1.055.24c-.447-.039-.36-.276-.4-.486-.5-3.059,1.591-6.941,6.81-7.968,5.093-1,9.391.315,14.08.879,7.865.949,15.442.34,21.649-3.9,1.119-.767,1.367-1.8,2.244-2.612C513.229,242.624,513.394,241.815,514.7,241.72Z" transform="translate(-463.26 -234.966)" fill="#2b182d" opacity="0.47"/>
        </g>
        <g id="Group_19223" data-name="Group 19223" transform="translate(42.408 133.792)">
          <path id="Path_52526" data-name="Path 52526" d="M465.039,285.785c2.515,3.151-.631,34.956-3.282,39.137s-6.377,2.258-6.52,2.046.056-.173.1-.248a24.466,24.466,0,0,0,1.546-2.995,3.8,3.8,0,0,1,.134-.36,23.286,23.286,0,0,0,1.088-3.184C459.5,316.44,463.627,292.584,465.039,285.785Z" transform="translate(-455.188 -285.785)" fill="#48627c"/>
        </g>
        <g id="Group_19224" data-name="Group 19224" transform="translate(82.401 26.528)">
          <path id="Path_52527" data-name="Path 52527" d="M469.518,259.2c.1-1.253-.207-2.621,1.836-2.794.971-.084.516-1.4.65-2.146.394-2.23-.042-4.608,1.225-6.676a1.754,1.754,0,0,1,2.339.48l.006.008a6.654,6.654,0,0,1,.084,3.263q.678,10.445,1.357,20.89a7.313,7.313,0,0,1-3.785.882,6.934,6.934,0,0,1-1.4-.218c-.779-.061-1.56-.12-1.92-.991-.413-3.391-.061-6.793-.19-10.187A5.717,5.717,0,0,0,469.518,259.2Z" transform="translate(-469.518 -247.352)" fill="#210022"/>
        </g>
        <path id="Path_52528" data-name="Path 52528" d="M490.426,297.821c-.65-1.666-.31-3.536-1.047-5.186-.014-.31-.019-.617-.036-.924-.045-.753-.31-1.613.823-1.822s1.577.625,1.741,1.435c.419,2.049.684,4.128,1.01,6.193.709,2.852,1.119,14.354,1.119,14.354S490.865,300.69,490.426,297.821Z" transform="translate(-351.716 -144.702)" fill="#48627c"/>
        <path id="Path_52529" data-name="Path 52529" d="M475.816,281.36a2.05,2.05,0,1,1-4.075.449c.126-1.047.265-2.713,2.043-2.707C475.225,279.1,475.761,280.051,475.816,281.36Z" transform="translate(-383.15 -163.962)" fill="#48627c"/>
        <path id="Path_52530" data-name="Path 52530" d="M503.8,293.56c-1.312-1.195-2.959-1.351-4.611-1.5-1.264-.413-2.615.14-3.874-.343q-1.335-.063-2.668-.131c-1.128-.374-2.333.106-3.455-.329-1.806-.182-3.69.329-5.42-.58-.784-.388-1.694.056-2.476-.36-1.474.363-3.422-.028-3.653,2.305a29.484,29.484,0,0,0-.022,6.506c.19,4.05,1.058,8.013,1.555,12.023a23.026,23.026,0,0,0,3.553,10.385c2,2.964,4.407,5.107,8.253,5.054,4.753-.064,8.208-2.9,9.135-7.834,1.342-7.153,2.562-14.329,3.835-21.493A6.42,6.42,0,0,0,503.8,293.56ZM498.894,310c-.553,2.732-1.044,5.476-1.574,8.211-.547,2.841-2.1,5.052-5,5.417a6.768,6.768,0,0,1-6.442-2.718c-3.829-4.7-4.256-10.279-5.11-15.93,5.225.363,10.178.313,15.1,1.1C499.572,306.669,499.616,306.426,498.894,310Zm1.928-12.04c-.48,1.859-.184,4.563-1.331,5.42-1.108.829-3.622-.237-5.52-.447-2.462-.268-4.906-.809-7.114-.391a31.833,31.833,0,0,0-3.531.019c-2.674.318-3.131-1.133-2.911-3.332.176-1.764-.416-4.024.477-5.188,1.072-1.4,3.268.123,5,.162,4.251.1,8.49.648,12.741.868C500.688,295.179,501.336,295.969,500.822,297.961Z" transform="translate(-372.912 -143.877)" fill="#48627c"/>
      </g>
      <path id="Path_52532" data-name="Path 52532" d="M496.013,297.448v35.428H490c.79-10.505,1.58-21.01,2.3-31.512C492.477,298.924,493.37,297.585,496.013,297.448Z" transform="translate(-350.428 -131.106)" fill="#c5642e"/>
      <path id="Path_52533" data-name="Path 52533" d="M460.162,300.843a217.352,217.352,0,0,1-4.789,21.937q-.666,2.441-1.373,4.806l-1.34-28.219Z" transform="translate(-417.308 -127.669)" fill="#c5642e"/>
    </g>
    <path id="Path_52562" data-name="Path 52562" d="M564.686,310.787s-29.846,18.775-32.263,38.057,26.84-4.482,34.906-14S564.686,310.787,564.686,310.787Z" transform="translate(112.249 148.948)" fill="#db844b"/>
    <g id="Group_19234" data-name="Group 19234" transform="translate(764.007 165.991)">
      <path id="Path_52563" data-name="Path 52563" d="M369.381,255.507c2.691-7.64,7.809-11.852,10.917-17.358a15.38,15.38,0,0,0,2.106-8.022c-.077-17.4-.056-34.794-.042-52.192.007-7.12,8.425-8.216,8.425-8.216l86.182-1.033s9.924,1.548,9.929,9.931q.018,29.024.019,58.048c0,7.425-8.615,8.758-8.615,8.758l-74.024-.138s-18.157,1.951-26.43,6.364C375.553,252.872,373.11,253.82,369.381,255.507Z" transform="translate(-369.381 -168.685)" fill="#fff"/>
      <path id="Path_52564" data-name="Path 52564" d="M423.376,185.214c2.028,1.033,4.076,2.038,6.085,3.11,5.012,2.672,4.933,7.366,4.471,12.011-.422,4.27-4.268,3.581-6.987,4.073a53.124,53.124,0,0,1-17.925.047c-2.853-.454-6.924.281-7.254-4.378s-.454-9.35,4.706-11.889c2.054-1.012,4.1-2.045,6.144-3.068A43.415,43.415,0,0,1,423.376,185.214Z" transform="translate(-326.092 -147.012)" fill="#2e4354"/>
      <path id="Path_52565" data-name="Path 52565" d="M408.612,194.757c-2.984-3.647-3.457-7.935-3.1-12.4.323-4.017,2.895-6.3,6.6-6.024,3.626.272,7.289,1.511,7.816,6.289a18.238,18.238,0,0,1-2.792,11.98C413.585,198.664,412.547,198.683,408.612,194.757Z" transform="translate(-321.02 -158.453)" fill="#2e4354"/>
      <path id="Path_52566" data-name="Path 52566" d="M393.769,184.121c-3.546,0-7.1.089-10.641-.03-2.434-.082-4.085-1.391-4.1-3.958-.009-2.6,1.724-3.9,4.113-3.926,7.095-.08,14.189-.033,21.281.08,2.291.035,4.27.848,4.352,3.626.084,2.939-1.74,4.127-4.366,4.2-3.546.1-7.095.026-10.643.026Z" transform="translate(-356.427 -158.642)" fill="#7792aa"/>
      <path id="Path_52567" data-name="Path 52567" d="M400.381,186.372q9.04-.007,18.08-.007c1.9,0,3.846.281,3.834,2.619-.012,2.263-1.892,2.71-3.82,2.71q-18.347,0-36.694,0c-1.984,0-3.666-.705-3.555-2.961.1-2.042,1.867-2.345,3.541-2.352C387.972,186.365,394.177,186.379,400.381,186.372Z" transform="translate(-357.516 -144.954)" fill="#7792aa"/>
      <path id="Path_52568" data-name="Path 52568" d="M399.779,195.354c-5.493,0-10.985-.014-16.478,0-2.171.009-4.83.157-5.043-2.583-.244-3.115,2.6-2.754,4.654-2.761,11.695-.045,23.389-.028,35.082-.033,2.01,0,4.378,0,4.286,2.675-.084,2.508-2.389,2.675-4.429,2.673q-9.036,0-18.073,0Z" transform="translate(-357.485 -140.101)" fill="#7792aa"/>
    </g>
    <g id="Group_19235" data-name="Group 19235" transform="translate(329.387 154.344)">
      <path id="Path_52569" data-name="Path 52569" d="M523.729,293.875c-2.691-7.643-7.809-11.854-10.919-17.358a15.408,15.408,0,0,1-2.1-8.025c.077-17.4.056-34.794.042-52.19-.007-7.12-8.425-8.219-8.425-8.219l-86.182-1.031s-9.924,1.548-9.929,9.929q-.021,29.024-.019,58.05c0,7.425,8.615,8.758,8.615,8.758l74.022-.141s18.159,1.951,26.43,6.364C517.557,291.237,520,292.186,523.729,293.875Z" transform="translate(-406.192 -207.053)" fill="#fff"/>
      <path id="Path_52570" data-name="Path 52570" d="M421,223.581c-2.028,1.035-4.075,2.038-6.085,3.111-5.012,2.675-4.933,7.369-4.474,12.011.424,4.27,4.27,3.581,6.987,4.076a53.2,53.2,0,0,0,17.928.047c2.853-.457,6.924.281,7.254-4.38s.454-9.35-4.706-11.889c-2.054-1.012-4.1-2.045-6.144-3.068A43.421,43.421,0,0,0,421,223.581Z" transform="translate(-400.752 -185.381)" fill="#4d6882"/>
      <path id="Path_52571" data-name="Path 52571" d="M425.529,233.124c2.984-3.645,3.457-7.935,3.1-12.4-.323-4.017-2.9-6.3-6.6-6.024-3.626.272-7.289,1.511-7.816,6.289a18.238,18.238,0,0,0,2.792,11.981C420.557,237.031,421.594,237.05,425.529,233.124Z" transform="translate(-395.585 -196.822)" fill="#4d6882"/>
      <path id="Path_52572" data-name="Path 52572" d="M449.034,222.488c3.546,0,7.1.089,10.641-.03,2.434-.082,4.085-1.391,4.1-3.958.009-2.6-1.724-3.9-4.115-3.926-7.092-.08-14.187-.03-21.279.08-2.291.035-4.27.848-4.352,3.626-.087,2.942,1.74,4.129,4.366,4.2,3.544.1,7.095.026,10.643.026Z" transform="translate(-368.839 -197.011)" fill="#7792aa"/>
      <path id="Path_52573" data-name="Path 52573" d="M450.631,224.741q-9.04-.011-18.08-.009c-1.9,0-3.846.281-3.834,2.619.012,2.263,1.893,2.71,3.82,2.71q18.347,0,36.691,0c1.986,0,3.668-.705,3.558-2.958-.1-2.045-1.867-2.347-3.542-2.352C463.04,224.732,456.836,224.746,450.631,224.741Z" transform="translate(-375.959 -183.324)" fill="#7792aa"/>
      <path id="Path_52574" data-name="Path 52574" d="M451.213,233.72c5.493,0,10.985-.014,16.478.007,2.171.007,4.827.155,5.043-2.586.244-3.113-2.6-2.752-4.654-2.762-11.695-.044-23.39-.026-35.082-.03-2.01,0-4.378,0-4.286,2.672.084,2.511,2.389,2.675,4.429,2.673q9.036,0,18.073,0Z" transform="translate(-375.97 -178.469)" fill="#7792aa"/>
    </g>
  </g>
</svg>
