<?xml version="1.0" encoding="utf-8"?>
<!-- Generator: Adobe Illustrator 24.1.2, SVG Export Plug-In . SVG Version: 6.00 Build 0)  -->
<svg version="1.1" id="Слой_1" xmlns="http://www.w3.org/2000/svg" xmlns:xlink="http://www.w3.org/1999/xlink" x="0px" y="0px"
	 viewBox="0 0 1918.6 302.5" enable-background="new 0 0 1918.6 302.5" xml:space="preserve">
<g id="Group_20566" transform="translate(0 -3686.363)">
	<linearGradient id="SVGID_1_" gradientUnits="userSpaceOnUse" x1="958.6884" y1="4026.8281" x2="964.0274" y2="3689.8418">
		<stop  offset="0" style="stop-color:#A7C4B2;stop-opacity:0.596"/>
		<stop  offset="1" style="stop-color:#B4D0BE"/>
	</linearGradient>
	<path fill="url(#SVGID_1_)" d="M1918.6,3988.9H0l103.5-61.4c72.1-24.5,20.6-64.5,199.2-98.4c4.9-0.9,9.9-1.8,15.1-2.8
		c3.6-0.6,7.3-1.3,11-1.9c8.9-1.5,18.2-2.9,28-4.4c2.6-0.4,5.2-0.8,7.9-1.1c3.7-0.5,7.4-1.1,11.3-1.6c0.3,0,0.5-0.1,0.8-0.1
		c2.7-0.4,5.3-0.7,8-1.1c2.5-0.3,4.9-0.6,7.5-1c13.9-1.8,28.7-3.5,44.4-5.2c1.6-0.2,3.3-0.4,4.9-0.5h0c4-0.4,8-0.9,12.2-1.3
		c4.4-0.4,8.8-1,13.3-1.7h0c163.6-23.7,382.4-173.3,513.1-100.4c134.3,74.9,139.1,17.3,327.1,37.1c84.3,8.9,145.1,19.9,190.5,31.9
		c3.1,0.8,6,1.6,8.9,2.4c21.9,6.1,40.1,12.5,55.6,18.9c17.2,7.2,31.1,14.4,43,21.6c42.5,25.5,60.7,49.8,120.4,63.6
		c58.1,13.5,104.4,38.2,137.1,60.6c0.3,0.2,0.5,0.4,0.8,0.5C1895.9,3965,1914.7,3984.7,1918.6,3988.9z"/>
	<g id="Group_15881" transform="translate(1440.702 3741.999)">
		<g id="Group_15878" transform="translate(70.84 0)">
			<g id="Group_14899" transform="translate(41.736 54.069)">
				<path id="Path_42701" fill="#0E6C75" d="M4.6,66.4h39.1c0.1,0,0.1-0.1,0.2-0.1l9.7-50.7c1.4-7.1-3.3-14-10.5-15.4
					C42.2,0.1,41.4,0,40.6,0H12.8C5.6,0-0.2,5.9-0.2,13.1c0,0.4,0,0.8,0.1,1.2l4.6,52.1C4.4,66.4,4.5,66.4,4.6,66.4z"/>
			</g>
			<g id="Group_14900" transform="translate(45.824 120.516)">
				<path id="Path_42702" fill="#FF9F33" d="M39.6,0l-5.9,57.4l0.8,57.4H30l-7.7-57.4L20.1,14h-3.3l-5.8,43.3l-0.7,57.4H6l-6.2-57.4
					L0.5,0L39.6,0z"/>
			</g>
			<g id="Group_14901" transform="translate(57.391 32.221)">
				<path id="Path_42703" fill="#FFD7CF" d="M5.7,15.5h4.2c1.8,0,3.3-1.5,3.3-3.3V0H-0.2v9.5C-0.3,12.8,2.4,15.5,5.7,15.5
					C5.7,15.5,5.7,15.5,5.7,15.5z"/>
			</g>
			<g id="Group_14902" transform="translate(55.684 28.56)">
				<path id="Path_42704" fill="#113251" d="M-0.2,0l11.9,1.6c2.5,0.3,3.8,1.7,3.8,3.8v4.8c0,1.2-1,2.2-2.2,2.2l0,0h-2.2V7.5
					c0-1.2-0.9-2.1-2.1-2.1l0,0H1.5L-0.2,0z"/>
			</g>
			<g id="Group_14903" transform="translate(66.345 36.87)">
				<ellipse id="Ellipse_1745" fill="#FFD7CF" cx="1" cy="1.3" rx="1.3" ry="1.3"/>
			</g>
			<g id="Group_14906" transform="translate(67.714 235.259)">
				<g id="Group_14904" transform="translate(0)">
					<path id="Path_42705" fill="#113251" d="M-0.2,5h4.2l4.2-1.3V0L3.9,2l-4.2,1L-0.2,5z"/>
				</g>
				<g id="Group_14905" transform="translate(8.322)">
					<path id="Path_42706" fill="#113251" d="M1,5h3.2V0h-4.5v3.6L1,5z"/>
				</g>
			</g>
			<g id="Group_14909" transform="translate(43.738 235.259)">
				<g id="Group_14907">
					<path id="Path_42707" fill="#113251" d="M-0.2,5h4.2l4.2-1.3V0L3.9,2l-4.2,1V5z"/>
				</g>
				<g id="Group_14908" transform="translate(8.322)">
					<path id="Path_42708" fill="#113251" d="M1,5h3.2V0h-4.5v3.6L1,5z"/>
				</g>
			</g>
			<g id="Group_14910" transform="translate(60.28 41.295)">
				<path id="Path_42709" fill="#FFD7CF" d="M3.8,0h5l3.7,12.8c0,2.5-2,4.5-4.5,4.5H4.2c-2.5,0-4.5-2-4.5-4.5L3.8,0z"/>
			</g>
			<g id="Group_14911" transform="translate(0 59.335)">
				<path id="Path_42710" fill="#0E6C75" d="M32.6,31.4L1.3,23.3l-1.5-4.6L27.5,19L44.1,0l10.5,8.1L32.6,31.4z"/>
			</g>
			<g id="Group_14912" transform="translate(103.839)">
				<path id="Path_42711" fill="#FFD7CF" d="M7.4,7.5L6.2,4.1C5.8,3,4.9,2,3.7,1.5L0.1,0C0,0-0.2,0-0.2,0.2c0,0.1,0,0.2,0,0.2
					l2.7,3.9c0.3,0.4,0.3,0.9,0.1,1.4c-0.5,1-0.5,2.1,0,3.1l0.8,1.6L7.4,7.5z"/>
			</g>
			<g id="Group_14913" transform="translate(84.051 7.489)">
				<path id="Path_42712" fill="#0E6C75" d="M27.2,0l14,30c2.6,4,1.6,9.3-2.4,11.9c-0.1,0.1-0.3,0.2-0.4,0.2L10.9,63.5L-0.2,46.7
					l29.1-13.4c0.5-0.2,0.7-0.8,0.5-1.3l-6-29.2L27.2,0z"/>
			</g>
		</g>
		<g id="Group_15876" transform="translate(0 33.245)">
			<g id="Group_15877" transform="translate(6.442 0)">
				<g id="Group_14997">
					<g id="Group_14967" transform="translate(54.276 6.624)">
						<g id="Group_14966" transform="translate(0)">
							<path id="Path_42743" fill="#FF9F33" d="M-0.2,28.2l13.3-0.4L5.7,0h-5.9V28.2z"/>
						</g>
					</g>
					<g id="Group_14969" transform="translate(35.143 83.594)">
						<g id="Group_14968" transform="translate(0)">
							<path id="Path_42744" fill="#F9B2BD" d="M4.5,0L1.6,2.5C0.6,3.3,0,4.6-0.1,5.9L-0.2,10c0,0.1,0.1,0.3,0.3,0.3
								c0.1,0,0.2,0,0.2-0.1l2.8-4.1c0.3-0.4,0.8-0.7,1.3-0.6c1.2,0.2,2.3-0.3,3.1-1.2l1.3-1.4L4.5,0z"/>
						</g>
					</g>
					<g id="Group_14971" transform="translate(36.471 85.923)">
						<g id="Group_14970">
							<path id="Path_42745" fill="#FFD7CF" d="M41.2,0l-6.3,60.9l0.8,60.9H31l-7.4-60.9l-1.4-46h-3.5l-7.7,46l-0.7,60.9H5.6
								l-5.8-60.9V0H41.2z"/>
						</g>
					</g>
					<g id="Group_14974" transform="translate(33.452 207.824)">
						<g id="Group_14972">
							<path id="Path_42746" fill="#FF4F67" d="M-0.3,5.3h4.4l6.4-2.1L8.6,0l-8.8,4.3V5.3z"/>
						</g>
						<g id="Group_14973" transform="translate(8.841)">
							<path id="Path_42747" fill="#FF4F67" d="M1.1,5.3h3.4V0h-4.7l2,3.2L1.1,5.3z"/>
						</g>
					</g>
					<g id="Group_14977" transform="translate(58.922 207.824)">
						<g id="Group_14975" transform="translate(0)">
							<path id="Path_42748" fill="#FF4F67" d="M-0.2,5.3h4.4l6.4-2.1L8.6,0l-8.8,4.3V5.3z"/>
						</g>
						<g id="Group_14976" transform="translate(8.841)">
							<path id="Path_42749" fill="#FF4F67" d="M1.1,5.3h3.4V0h-4.7l2,3.2L1.1,5.3z"/>
						</g>
					</g>
					<g id="Group_14979" transform="translate(26.504 25.62)">
						<g id="Group_14978">
							<path id="Path_42750" fill="#FFFFFF" d="M53.3,60.3H2.5c-1.5,0-2.7-1.2-2.7-2.7c0-0.5,0.1-0.9,0.3-1.3l15.1-26.8l-5-18.3
								c-1.3-4.7,1.5-9.6,6.3-10.9C17.2,0.1,18,0,18.8,0h18.1c4.9,0,8.9,4,8.9,8.9c0,0.8-0.1,1.6-0.3,2.4l-5,18.3l15.1,26.8
								c0.7,1.3,0.3,2.9-1,3.7C54.2,60.2,53.7,60.3,53.3,60.3z"/>
						</g>
					</g>
					<g id="Group_14981" transform="translate(33.035 85.923)">
						<g id="Group_14980">
							<path id="Path_42751" fill="#113251" d="M39.7,51.6H2.9L-0.3,0h45.7L39.7,51.6z"/>
						</g>
					</g>
					<g id="Group_14983" transform="translate(67.313 86.811)">
						<g id="Group_14982" transform="translate(0)">
							<path id="Path_42752" fill="#FFD7CF" d="M2.5,0L0.6,2.3c-0.7,0.8-1,1.9-0.8,2.9l0.5,3.3c0,0.1,0.1,0.2,0.2,0.2
								c0.1,0,0.1-0.1,0.2-0.1l1.6-3.7c0.2-0.4,0.5-0.6,0.9-0.7C4.2,4.2,5,3.7,5.5,2.9l0.8-1.3L2.5,0z"/>
						</g>
					</g>
					<g id="Group_14985" transform="translate(48.721 25.619)">
						<g id="Group_14984">
							<path id="Path_42753" fill="#FFD7CF" d="M-0.3,0v5.4C-0.3,6.3,0.4,7,1.3,7c0.3,0,0.6-0.1,0.9-0.3L11.3,0L-0.3,0z"/>
						</g>
					</g>
					<g id="Group_14987" transform="translate(56.661 9.115)">
						<g id="Group_14986" transform="translate(0)">
							<path id="Path_42754" fill="#FFD7CF" d="M2,1.1c0,0.6-0.5,1.1-1.1,1.1c-0.6,0-1.1-0.5-1.1-1.1C-0.2,0.5,0.3,0,0.9,0l0,0
								C1.5,0,2,0.5,2,1.1z"/>
						</g>
					</g>
					<g id="Group_14989" transform="translate(48.721 12.05)">
						<g id="Group_14988" transform="translate(0)">
							<path id="Path_42755" fill="#FFD7CF" d="M3.4,0h4.5l3.4,13.6H-0.3L3.4,0z"/>
						</g>
					</g>
					<g id="Group_14991" transform="translate(46.004 3.456)">
						<g id="Group_14990" transform="translate(0 0)">
							<path id="Rectangle_13693" fill="#FFD7CF" d="M-0.3,0h11.9l0,0v10.1c0,2-1.6,3.6-3.6,3.6H6.3c-3.6,0-6.5-2.9-6.5-6.5V0
								L-0.3,0z"/>
						</g>
					</g>
					<g id="Group_14993" transform="translate(45.276)">
						<g id="Group_14992">
							<path id="Path_42756" fill="#FF9F33" d="M14.8,7.1H1.6c-1,0-1.8-0.8-1.8-1.9V1.9c0-1,0.8-1.8,1.8-1.9h9.5
								c2,0,3.7,1.7,3.7,3.7c0,0,0,0,0,0V7.1z"/>
						</g>
					</g>
					<g id="Group_14996" transform="translate(61.074 28.418)">
						<g id="Group_14995">
							<g id="Group_14994">
								<path id="Path_42757" fill="#FFFFFF" d="M12.8,60.3l-4.7-1.8l12.4-28.7c0.3-0.3,0.2-0.8-0.1-1.1l-20.6-17L8.8,0
									c0,0,17.5,18.4,23.4,24.4c2,2.1,2,5.4,0,7.5C26.7,38.4,12.8,60.3,12.8,60.3z"/>
							</g>
						</g>
					</g>
					<path id="Path_42758" fill="#FFFFFF" d="M39.4,28.1L19.8,43.8L2.9,37.8l-3.2,2.7L14,52c1.1,1,2.5,1.7,3.9,2.2
						c1.7,0.5,3.6,0.3,5.1-0.8l20.9-14L39.4,28.1z"/>
				</g>
			</g>
			<g id="Group_15876-2" transform="matrix(0.695, 0.719, -0.719, 0.695, 3.229, 31.074)">
				<path id="Path_42713" fill="#FFD7CF" d="M9.2,0.2L5.7,0.3c-1.2,0-2.4,0.5-3.2,1.4l-2.5,2.6c-0.2,0.2,0,0.4,0.3,0.4l4.5-1.2
					c0.5-0.1,1,0,1.3,0.3c0.8,0.7,1.9,1,3,0.8l1.8-0.3L9.2,0.2z"/>
			</g>
		</g>
	</g>
	<g id="Group_14999" transform="translate(26.063 3534.594)">
		<g id="Group_15880" transform="translate(276.938 222.096)">
			<g id="Group_14898" transform="translate(42.133 31.62)">
				<g id="Group_14897">
					<path id="Path_42699" fill="#113251" d="M15.1,38.1L-0.3,8.9l12.7-4.1l10.2,20.8L40.8,0h6l-20,38.5c-1.9,3.2-6.1,4.2-9.3,2.3
						C16.5,40.1,15.7,39.2,15.1,38.1L15.1,38.1z"/>
				</g>
			</g>
			<g id="Group_15879" transform="translate(0 0)">
				<path id="Path_42700" fill="#FFD7CF" d="M83,29.9c0,0-0.6,0.5-0.5,1.8c0.2,1.3,0.5,2.5,1,3.7c0.1,0.8,1.7,1.3,2.2,0.7
					c0,0,4.8-5.2,5.3-6.6c0.4-1.4-1.3,0.2-2.2,0c0,0,4.1-4.1,2.7-4C89.9,25.6,82.9,29.1,83,29.9z"/>
				<g id="Group_14945" transform="translate(27.89)">
					<g id="Group_14917" transform="translate(70.231 8.469)">
						<g id="Group_14916" transform="translate(0 0)">
							<path id="Rectangle_13689" fill="#653A00" d="M10.6,7.8L3,8.7C1.7,8.9,0.6,8,0.5,6.8l0,0l-0.7-5.5l0,0L9.6,0l0,0L10.6,7.8
								L10.6,7.8z"/>
						</g>
					</g>
					<g id="Group_14919" transform="translate(56.943 88.453)">
						<g id="Group_14918">
							<path id="Path_42714" fill="#E6DCBD" d="M45.2,0l12.7,59.6c0.3,1.5,0.3,3.1,0,4.7l-13.4,68.3h-5.2L46,61.9L27,16.3h-6.5
								l-7.8,50.1l15.8,48.7l-4.7,2.2l-23-48.2c-0.8-1.6-1.1-3.3-1.1-5.1V0H45.2z"/>
						</g>
					</g>
					<g id="Group_14922" transform="translate(96.526 221.02)">
						<g id="Group_14920" transform="translate(5.177)">
							<path id="Path_42715" fill="#002961" d="M9.4,5.8H4.6l-4.8-1.6V0l4.8,2.3l4.8,1.1L9.4,5.8z"/>
						</g>
						<g id="Group_14921">
							<path id="Path_42716" fill="#002961" d="M3.4,5.8h-3.7V0h5.2v4.2L3.4,5.8z"/>
						</g>
					</g>
					<g id="Group_14925" transform="translate(74.058 203.483)">
						<g id="Group_14923" transform="translate(0 2.335)">
							<path id="Path_42717" fill="#002961" d="M0.8,9.5l4.3-2.2l3.6-3.6L6.8,0L3.6,4.3l-3.8,3.2L0.8,9.5z"/>
						</g>
						<g id="Group_14924" transform="translate(7.068)">
							<path id="Path_42718" fill="#002961" d="M3.7,6.8L7,5.2L4.4,0l-4.6,2.3l1.9,3.8L3.7,6.8z"/>
						</g>
					</g>
					<g id="Group_14927" transform="translate(152.138 21.268)">
						<g id="Group_14926">
							<path id="Path_42719" fill="#FFD7CF" d="M3.6,9.9L7.3,8c1.3-0.7,2.3-1.8,2.6-3.2l1.2-4.4c0-0.2,0-0.3-0.2-0.4
								c-0.1,0-0.2,0-0.3,0.1L6.6,3.8c-0.4,0.4-1,0.5-1.6,0.3C3.9,3.6,2.5,3.8,1.5,4.5l-1.7,1.2L3.6,9.9z"/>
						</g>
					</g>
					<g id="Group_14928" transform="translate(54.282 31.175)">
						<path id="Path_42720" fill="#D3A09D" d="M51.6,63.9H-0.2V7.2C-0.2,3.2,3,0,7,0h37.4c4,0,7.2,3.2,7.2,7.2L51.6,63.9z"/>
					</g>
					<g id="Group_14930" transform="translate(72.021 5.33)">
						<g id="Group_14929" transform="translate(0 0)">
							<path id="Rectangle_13690" fill="#FFD7CF" d="M-0.2,1.8L13.9,0l0,0l1.2,9.1c0.5,4-2.3,7.7-6.3,8.2v0l-2.9,0.4
								c-2.2,0.3-4.3-1.3-4.6-3.5L-0.2,1.8L-0.2,1.8z"/>
						</g>
					</g>
					<g id="Group_14932" transform="translate(72.103 17.113)">
						<g id="Group_14931">
							<path id="Path_42721" fill="#FFD7CF" d="M3.2,1.5L9.9,0l1.5,14.3l-3.5,7.3l-8.2-7.3L3.2,1.5z"/>
						</g>
					</g>
					<g id="Group_14933" transform="translate(94.362 27.026)">
						<path id="Path_42722" fill="#D3A09D" d="M35.8,28.8L61.4,4.1L57.5,0l-26,17.1L8,5.2l-8.3,15.1l29.7,9.8
							C31.7,30.8,34.1,30.3,35.8,28.8z"/>
					</g>
					<g id="Group_14935" transform="translate(0 84.97)">
						<g id="Group_14934">
							<path id="Path_42723" fill="#FFD7CF" d="M11.9,5.7l-4,1.1C6.5,7.2,5,7,3.8,6.2l-3.9-2.4c-0.1-0.1-0.2-0.3-0.1-0.4
								C-0.1,3.3-0.1,3.2,0,3.2l5.5,0c0.6,0,1.1-0.3,1.4-0.8c0.6-1.1,1.7-1.9,3-2.1L11.9,0L11.9,5.7z"/>
						</g>
					</g>
					<g id="Group_14936" transform="translate(12.146 35.678)">
						<path id="Path_42724" fill="#D3A09D" d="M-0.2,55l0-5.7l32.4-22L42.5,0l15.2,8.1L41.8,36.3c-1,1.7-2.5,3.1-4.4,3.8L-0.2,55z"
							/>
					</g>
					<g id="Group_14938" transform="translate(74.601)">
						<g id="Group_14937">
							<path id="Path_42725" fill="#653A00" d="M0.3,7.8L7,6.9c3.4-0.4,5.8-3.5,5.4-6.9L-0.3,2.4L0.3,7.8z"/>
						</g>
					</g>
					<g id="Group_14940" transform="translate(77.024 2.09)">
						<g id="Group_14939" transform="translate(0 0)">
							<path id="Rectangle_13691" fill="#653A00" d="M8.3,6.8l-7.7,1l0,0L0.2,5.2C0,3.3,1.4,1.4,3.3,1.2c0,0,0,0,0,0L12.6,0l0,0
								l0.1,1C13.1,3.9,11.1,6.4,8.3,6.8z"/>
						</g>
					</g>
					<g id="Group_14942" transform="translate(69.378 1.784)">
						<g id="Group_14941" transform="translate(0 0)">
							<path id="Rectangle_13692" fill="#653A00" d="M10.6,7.8L0.7,9l0,0L0.5,6.9C0.1,3.8,2.3,0.9,5.4,0.5L9.6,0l0,0L10.6,7.8
								L10.6,7.8z"/>
						</g>
					</g>
					<g id="Group_14944" transform="translate(72.057 12.909)">
						<g id="Group_14943">
							<path id="Path_42726" fill="#FFD7CF" d="M-0.2,1.8c0.1,0.9,0.9,1.5,1.8,1.4C2.5,3.1,3.1,2.3,3,1.4C2.9,0.5,2.1-0.1,1.2,0
								c0,0,0,0,0,0C0.3,0.1-0.4,0.9-0.2,1.8z"/>
						</g>
					</g>
				</g>
				<g id="Group_14965" transform="translate(0 4.353)">
					<g id="Group_14948" transform="translate(12.747 143.254)">
						<g id="Group_14946" transform="translate(0 0.019)">
							<path id="Path_42727" fill="#FFD7CF" d="M28.4,0l-13,0L-0.3,73.8l4.9,0L28.4,0z"/>
						</g>
						<g id="Group_14947" transform="translate(30.04)">
							<path id="Path_42728" fill="#FFD7CF" d="M1,0l-1.2,73.8l4.9,0L11.6,0L1,0z"/>
						</g>
					</g>
					<g id="Group_14951" transform="translate(12.747 216.979)">
						<g id="Group_14949" transform="translate(2.841)">
							<path id="Path_42729" fill="#FF9F33" d="M11.1,5.5l-4.6,0l-6.7-2.2L1.9,0l9.2,4.4L11.1,5.5z"/>
						</g>
						<g id="Group_14950">
							<path id="Path_42730" fill="#FF9F33" d="M3.3,5.5l-3.5,0l0-5.5l4.9,0L2.6,3.3L3.3,5.5z"/>
						</g>
					</g>
					<g id="Group_14954" transform="translate(42.787 216.935)">
						<g id="Group_14952" transform="translate(2.841)">
							<path id="Path_42731" fill="#FF9F33" d="M11.1,5.5l-4.6,0l-6.7-2.2L1.9,0l9.2,4.4L11.1,5.5z"/>
						</g>
						<g id="Group_14953">
							<path id="Path_42732" fill="#FF9F33" d="M3.3,5.5l-3.5,0l0-5.5l4.9,0L2.6,3.3L3.3,5.5z"/>
						</g>
					</g>
					<g id="Group_14955" transform="translate(19.485 110.336)">
						<path id="Path_42733" fill="#FFFFFF" d="M35.6,44.4l-30.5,0L-0.2,0.1L40.9,0L35.6,44.4z"/>
					</g>
					<g id="Group_14956" transform="translate(31.712 1.76)">
						<path id="Path_42734" d="M11.4,9.6C9.8,13.4,6,15.5,3,14.2S-1.1,8.8,0.5,5s5.4-5.9,8.4-4.6S13,5.8,11.4,9.6z"/>
					</g>
					<g id="Group_14957" transform="translate(47.798 3.689)">
						<path id="Path_42735" fill="#3A61DF" d="M-0.2,2.8c-0.3,1.8,1,3.4,2.7,3.7c1.8,0.3,3.4-1,3.7-2.7C6.5,2,5.3,0.3,3.5,0
							C1.7-0.2,0.1,1-0.2,2.8C-0.2,2.8-0.2,2.8-0.2,2.8z"/>
					</g>
					<g id="Group_14958" transform="translate(39.432 3.185)">
						<path id="Path_42736" fill="#FFD7CF" d="M6.1,15.3l-3.8-0.6c-1.7-0.3-2.8-1.9-2.5-3.5c0,0,0,0,0,0L1.6,0l12.3,2l-1.4,8.7
							C11.9,13.7,9.1,15.7,6.1,15.3z"/>
					</g>
					<g id="Group_14959" transform="translate(39.414 9.471)">
						<path id="Path_42737" fill="#FFD7CF" d="M2.6,1.1c0.2,0.8-0.3,1.5-1.1,1.7C0.7,3-0.1,2.5-0.2,1.7C-0.4,0.9,0.1,0.2,0.9,0
							C1.7-0.1,2.4,0.4,2.6,1.1C2.6,1.1,2.6,1.1,2.6,1.1z"/>
					</g>
					<g id="Group_14960" transform="translate(39.533)">
						<path id="Path_42738" d="M-0.3,8.6L6.2,9c5.6,0.2,8.2-1.8,8.7-5.6c0.2-1.4-1-2.7-2.8-2.9L6.6,0.1c-3-0.4-5.7,1.1-6,3.4
							L-0.3,8.6z"/>
					</g>
					<g id="Group_14961" transform="translate(17.166 25.472)">
						<path id="Path_42739" fill="#113251" d="M-0.2,92.1L43.8,92l0.2-46l1.4-33.3c0-7-5.7-12.7-12.8-12.7c0,0,0,0,0,0l-17,0
							C8.7,0,3,5.7,3,12.8c0,1,0.1,2,0.4,2.9L9,39.3c1.1,4.5,1.1,9.1,0,13.6L-0.2,92.1z"/>
					</g>
					<g id="Group_14962" transform="translate(37.682 11.772)">
						<path id="Path_42740" fill="#FFD7CF" d="M9.4,0L3.1,1.5l-3.3,12.2L7.5,27c0.2,0.4,0.7,0.5,1.1,0.3C8.8,27.1,9,26.9,9,26.7
							l1.9-13L9.4,0z"/>
					</g>
					<g id="Group_14963" transform="translate(0 29.456)">
						<path id="Path_42741" fill="#113251" d="M26,70.6L2.6,45.8C-1,41.9-1.2,36.1,2,31.9L23.7,0l6.8,13.5L12.6,39l17.7,27.4
							L26,70.6z"/>
					</g>
					<g id="Group_14964" transform="translate(25.42 95.741)">
						<path id="Path_42742" fill="#FFD7CF" d="M4.3,0l2.5,3.3c0.8,1,1.1,2.4,0.9,3.7L7,11c0,0.1-0.2,0.2-0.3,0.2
							c-0.1,0-0.2-0.1-0.2-0.2L4.6,6.4C4.4,6,3.9,5.6,3.4,5.6C2.3,5.5,1.2,4.8,0.7,3.8l-0.9-1.6L4.3,0z"/>
					</g>
				</g>
			</g>
		</g>
	</g>
	<g id="Group_15890">
		<g id="Group_15884" transform="translate(8978 13139.614)">
			<path id="Path_44830" fill="none" stroke="#0E755D" stroke-width="2" stroke-miterlimit="4" d="M-8807.1-9152.1
				c-0.7-10.3-5.4-17.8-7.8-31.9c-2.4-14.1-2.5-17.9-1.9-21.4"/>
			<path id="flower:4" fill-rule="evenodd" clip-rule="evenodd" fill="#FFFFFF" d="M-8802.7-9214.8c-0.1-1.6-1.4-2.9-3-2.8
				c-1.5,0.3-3,0.7-4.4,1.1c1.5-0.4,2.9-0.9,4.3-1.5c1.4-0.8,1.8-2.6,1-4c0,0-0.1-0.1-0.1-0.1c-0.8-1.4-2.6-1.8-3.9-1
				c0,0-0.1,0.1-0.1,0.1c-1.1,1-2.2,2.1-3.2,3.2c1-1.1,2-2.3,3-3.5c0.8-1.4,0.3-3.1-1.1-3.9c0,0-0.1,0-0.1-0.1
				c-1.4-0.8-3.1-0.3-3.9,1.1c0,0,0,0.1-0.1,0.1c-0.5,1.4-0.9,2.9-1.2,4.4c0.4-1.5,0.6-3,0.8-4.5c0-1.6-1.3-2.9-2.9-2.8h-0.2
				c-1.6,0-2.9,1.3-2.8,2.9v0.1c0.3,1.5,0.7,3,1.1,4.4c-0.4-1.5-0.9-2.9-1.5-4.3c-0.9-1.4-2.7-1.8-4.1-0.9c-1.4,0.9-1.8,2.7-0.9,4.1
				c1,1.1,2.1,2.2,3.2,3.2c-1.1-1-2.3-2-3.5-3c-1.4-0.8-3.1-0.3-3.9,1.1c0,0,0,0.1-0.1,0.1c-0.8,1.4-0.3,3.1,1.1,3.9
				c0,0,0.1,0,0.1,0.1c1.4,0.5,2.9,0.9,4.4,1.2c-1.5-0.3-3-0.6-4.5-0.8c-1.6,0-2.9,1.3-2.8,2.9v0.1c0,1.6,1.3,2.9,2.9,2.8h0.1
				c1.5-0.3,3-0.7,4.4-1.1c-1.5,0.4-2.9,0.9-4.3,1.5c-1.4,0.9-1.8,2.7-0.9,4.1c0.9,1.4,2.7,1.8,4.1,0.9c1.1-1,2.2-2.1,3.2-3.2
				c-1,1.1-2,2.3-2.9,3.5c-0.8,1.4-0.3,3.1,1.1,3.9c0,0,0.1,0,0.1,0.1c1.4,0.8,3.1,0.3,3.9-1.1c0,0,0-0.1,0.1-0.1
				c0.5-1.4,0.9-2.9,1.2-4.4c-0.4,1.5-0.6,3-0.8,4.5c0,1.6,1.3,2.9,2.9,2.8c0,0,0.1,0,0.1,0c0,0,0,0,0.1,0c1.6,0,2.9-1.3,2.8-2.9
				v-0.1c-0.3-1.5-0.7-3-1.1-4.4c0.4,1.4,0.9,2.9,1.5,4.3c0.9,1.4,2.7,1.8,4.1,0.9c1.4-0.9,1.8-2.7,0.9-4.1c-1-1.1-2.1-2.2-3.2-3.3
				c1.1,1,2.3,2,3.5,3c1.5,0.8,3.2,0.2,4-1.2c0.8-1.4,0.2-3.2-1.2-4c-1.4-0.5-2.9-0.9-4.4-1.2c1.5,0.3,3,0.6,4.5,0.8
				C-8803.9-9211.8-8802.6-9213.2-8802.7-9214.8z M-8820-9212.7c-0.9-1.4-0.5-3.3,1-4.1c1.4-0.9,3.3-0.5,4.1,0.9
				c0.9,1.4,0.5,3.3-1,4.1C-8817.2-9210.9-8819.1-9211.3-8820-9212.7z M-8817.2-9220.4C-8817.2-9220.4-8817.2-9220.4-8817.2-9220.4
				c0.1-0.6,0.8-1,1.4-0.9c0.6,0.1,1,0.8,0.9,1.4c-0.1,0.6-0.8,1-1.4,0.9C-8816.9-9219.1-8817.3-9219.8-8817.2-9220.4z
				 M-8824.4-9215.9c0.2-0.6,0.8-1,1.4-0.9c0.6,0.1,1,0.8,0.9,1.4c-0.1,0.6-0.8,1-1.4,0.9
				C-8824.1-9214.7-8824.5-9215.3-8824.4-9215.9z M-8821.9-9210.1c-0.5,0.3-1.3,0.2-1.6-0.4v0c-0.3-0.5-0.2-1.3,0.4-1.6
				c0.5-0.3,1.3-0.2,1.6,0.4C-8821.2-9211.2-8821.3-9210.5-8821.9-9210.1z M-8821.6-9218.8c-0.1-0.2-0.2-0.4-0.2-0.6
				c0-0.4,0.2-0.8,0.5-1c0.5-0.3,1.3-0.2,1.6,0.4c0.3,0.5,0.2,1.3-0.4,1.6S-8821.2-9218.2-8821.6-9218.8z M-8817.6-9208.2
				c-0.1,0.6-0.8,1-1.4,0.9c-0.6-0.2-1-0.8-0.9-1.4c0.1-0.6,0.8-1,1.4-0.9C-8817.9-9209.4-8817.5-9208.8-8817.6-9208.2z
				 M-8813.6-9208.2c-0.5,0.3-1.3,0.2-1.6-0.4c-0.3-0.5-0.2-1.3,0.4-1.6c0.5-0.3,1.2-0.2,1.6,0.4
				C-8812.9-9209.3-8813.1-9208.6-8813.6-9208.2z M-8813.3-9216.9c-0.3-0.5-0.2-1.3,0.4-1.6c0.5-0.3,1.3-0.2,1.6,0.4
				c0.3,0.5,0.2,1.3-0.4,1.6h0C-8812.3-9216.2-8813-9216.3-8813.3-9216.9z M-8810.5-9212.7c-0.1,0.6-0.8,1-1.4,0.9
				c-0.6-0.2-1-0.8-0.9-1.4c0.2-0.6,0.8-1,1.4-0.9C-8810.7-9213.9-8810.3-9213.3-8810.5-9212.7z"/>
			<circle id="Ellipse_1869" fill="#E4B62C" cx="-8817.5" cy="-9214" r="3.5"/>
			<path fill-rule="evenodd" clip-rule="evenodd" fill="#0E755D" d="M-8807.2-9153.5c0,0.1,0,0.2,0,0.4c0,0.7-0.1,1.4-0.2,2.1v0
				c0,0.1,0,0.2,0,0.3h-0.7c-0.6-0.4-1.4-1.6-2.1-2.8c-0.5-0.9-1-1.9-1.4-2.7h0c0,0,0,0,0,0c0-0.1-0.1-0.1-0.1-0.2
				c-0.3-0.8-0.5-1.6-0.4-2.2c0.1-2.6,2.8-3.2,4.2,0.8c0,0,0,0,0,0C-8807.4-9156.5-8807.2-9155-8807.2-9153.5z"/>
			<path id="Path_44833" fill-rule="evenodd" clip-rule="evenodd" fill="#0E755D" d="M-8807.4-9150.8c2.1-1.3,3.9-3.1,5.1-5.2
				c2.6-4.7-1.8-6-3.7-1.7C-8806.9-9155.5-8807.3-9153.2-8807.4-9150.8z"/>
			<path fill-rule="evenodd" clip-rule="evenodd" fill="#0E755D" d="M-8799.3-9153.7c-0.3,0.3-0.7,0.7-1.3,1.1
				c-0.2,0.1-0.4,0.2-0.5,0.3c0,0,0,0,0,0c-0.4,0.3-0.8,0.5-1.3,0.7c-0.9,0.4-1.9,0.7-2.9,0.9h-2.3c0-0.1,0.1-0.2,0.2-0.3v0
				c0.6-1,1.3-1.9,2.1-2.8c0.5-0.5,1-1,1.5-1.5c0.1,0,0.1-0.1,0.2-0.1c0.2-0.2,0.3-0.3,0.5-0.4c0.3-0.3,0.7-0.5,1-0.7
				c0.2-0.1,0.4-0.2,0.6-0.3c0.1,0,0.1,0,0.2-0.1c1.2-0.4,2.2-0.1,2.6,0.5C-8798.2-9155.7-8798.3-9154.8-8799.3-9153.7z"/>
			<path fill-rule="evenodd" clip-rule="evenodd" fill="#0E755D" d="M-8807.6-9150.8h-0.8c-1.3-0.3-2.5-0.8-3.7-1.3
				c-0.4-0.2-0.7-0.3-1.1-0.5c-0.1,0-0.2-0.1-0.2-0.1c-0.1-0.1-0.2-0.1-0.3-0.2c-0.3-0.2-0.6-0.5-0.9-0.7h0c0,0-0.1-0.1-0.1-0.1l0,0
				c-0.1,0-0.1-0.1-0.1-0.1c0,0,0,0,0,0c-0.5-0.5-0.7-1-0.8-1.5v0c0-0.1,0-0.1,0-0.2c0,0,0,0,0,0c-0.1-0.8,0.3-1.4,1-1.6
				c0.7-0.2,1.6,0,2.8,0.7c0,0,0,0,0.1,0c0,0,0.1,0,0.1,0.1h0c0.1,0.1,0.2,0.1,0.3,0.2c0.7,0.6,1.3,1.1,1.8,1.7
				C-8808.1-9152.7-8807.7-9151.3-8807.6-9150.8z"/>
		</g>
		<g id="Group_15885" transform="translate(5117.728 15722.966) rotate(21)">
			<path id="Path_44830-2" fill="none" stroke="#0E755D" stroke-width="2" stroke-miterlimit="4" d="M-8819.5-9185.4
				c-0.4-6.2-3.2-10.6-4.6-19c-1.4-8.4-1.5-10.7-1.1-12.7"/>
			<path id="flower:4-2" fill-rule="evenodd" clip-rule="evenodd" fill="#FFFFFF" d="M-8818.6-9224.4c-0.9,0.2-1.8,0.4-2.6,0.7
				c0.9-0.3,1.7-0.6,2.5-0.9c0.8-0.5,1.1-1.5,0.6-2.4c0,0,0,0,0-0.1c-0.5-0.8-1.5-1.1-2.3-0.6c0,0-0.1,0-0.1,0.1
				c-0.7,0.6-1.3,1.2-1.9,1.9c0.6-0.7,1.2-1.3,1.8-2.1c0.5-0.8,0.2-1.9-0.6-2.3c0,0-0.1,0-0.1,0c-0.8-0.5-1.9-0.2-2.3,0.6
				c0,0,0,0.1,0,0.1c-0.3,0.9-0.5,1.7-0.7,2.6c0.2-0.9,0.4-1.8,0.5-2.7c0-0.9-0.8-1.7-1.7-1.7c0,0-0.1,0-0.1,0
				c-0.9,0-1.7,0.8-1.7,1.7c0,0,0,0.1,0,0.1c0.2,0.9,0.4,1.8,0.7,2.6c-0.3-0.9-0.6-1.7-0.9-2.5c-0.5-0.8-1.6-1.1-2.4-0.6
				c-0.8,0.5-1.1,1.6-0.6,2.4c0.6,0.7,1.2,1.3,1.9,1.9c-0.7-0.6-1.3-1.2-2.1-1.8c-0.8-0.5-1.9-0.2-2.3,0.7c0,0,0,0.1,0,0.1
				c-0.5,0.8-0.2,1.9,0.7,2.3c0,0,0.1,0,0.1,0c0.9,0.3,1.7,0.5,2.6,0.7c-0.9-0.2-1.8-0.4-2.7-0.5c-0.9,0-1.7,0.8-1.7,1.7
				c0,0,0,0.1,0,0.1c0,0.9,0.8,1.7,1.7,1.7c0,0,0.1,0,0.1,0c0.9-0.2,1.8-0.4,2.6-0.7c-0.9,0.2-1.7,0.6-2.6,0.9
				c-0.8,0.5-1.1,1.6-0.6,2.4c0.5,0.8,1.6,1.1,2.4,0.6c0.7-0.6,1.3-1.2,1.9-1.9c-0.6,0.7-1.2,1.3-1.8,2.1c-0.5,0.8-0.2,1.9,0.7,2.3
				c0,0,0,0,0.1,0c0.8,0.5,1.9,0.2,2.3-0.6c0,0,0-0.1,0-0.1c0.3-0.9,0.5-1.7,0.7-2.6c-0.2,0.9-0.4,1.8-0.5,2.7
				c0,0.9,0.8,1.7,1.7,1.7c0,0,0,0,0,0c0,0,0,0,0,0c0.9,0,1.7-0.8,1.7-1.7c0,0,0-0.1,0-0.1c-0.2-0.9-0.4-1.8-0.7-2.6
				c0.3,0.9,0.6,1.7,0.9,2.5c0.5,0.8,1.6,1.1,2.4,0.6c0.8-0.5,1.1-1.6,0.6-2.4c-0.6-0.7-1.2-1.3-1.9-1.9c0.7,0.6,1.3,1.2,2.1,1.8
				c0.9,0.5,1.9,0.1,2.4-0.7c0.5-0.9,0.1-1.9-0.7-2.4c-0.9-0.3-1.7-0.5-2.6-0.7c0.9,0.2,1.8,0.4,2.7,0.5c1,0,1.7-0.8,1.7-1.8
				S-8817.7-9224.5-8818.6-9224.4z M-8827.1-9221.5c-0.5-0.8-0.3-1.9,0.6-2.5c0.8-0.5,1.9-0.3,2.5,0.6c0.5,0.8,0.3,1.9-0.6,2.5
				C-8825.5-9220.4-8826.6-9220.6-8827.1-9221.5z M-8827.9-9226c0.3-0.2,0.7-0.1,0.9,0.2c0.2,0.3,0.1,0.7-0.2,1
				c-0.3,0.2-0.7,0.1-0.9-0.2c0,0,0-0.1-0.1-0.1C-8828.3-9225.5-8828.1-9225.8-8827.9-9226z M-8829.8-9223.4
				c0.1-0.4,0.5-0.6,0.8-0.5c0.2,0.1,0.4,0.2,0.5,0.4c0,0.1,0.1,0.3,0,0.4c-0.1,0.4-0.4,0.6-0.8,0.5
				C-8829.6-9222.6-8829.8-9223-8829.8-9223.4z M-8828.3-9219.9c0,0-0.1,0-0.1,0.1c-0.3,0.1-0.6,0-0.8-0.3c-0.2-0.3-0.1-0.8,0.2-1
				c0.3-0.2,0.7-0.1,0.9,0.2C-8827.8-9220.6-8828-9220.1-8828.3-9219.9z M-8825.7-9218.8c-0.1,0.4-0.5,0.6-0.8,0.5
				c-0.4-0.1-0.6-0.5-0.5-0.8c0.1-0.4,0.5-0.6,0.8-0.5c0.2,0,0.4,0.2,0.5,0.4C-8825.7-9219.1-8825.7-9218.9-8825.7-9218.8z
				 M-8823.4-9218.8c-0.3,0.2-0.7,0.1-0.9-0.2s-0.1-0.7,0.2-1c0.3-0.2,0.7-0.1,1,0.2c0,0,0,0.1,0.1,0.1
				C-8823-9219.3-8823.1-9219-8823.4-9218.8z M-8825-9225.2c-0.2-0.1-0.4-0.2-0.5-0.4c0-0.1-0.1-0.3,0-0.4c0.1-0.4,0.4-0.6,0.8-0.5
				c0.4,0.1,0.6,0.5,0.5,0.8C-8824.2-9225.4-8824.6-9225.1-8825-9225.2z M-8821.5-9221.5c-0.1,0.4-0.5,0.6-0.8,0.5
				c-0.4-0.1-0.6-0.5-0.5-0.8c0.1-0.4,0.5-0.6,0.8-0.5c0.2,0,0.4,0.2,0.5,0.4C-8821.4-9221.7-8821.4-9221.6-8821.5-9221.5z
				 M-8822.2-9223.7c-0.3,0.2-0.7,0.1-0.9-0.2c-0.2-0.3-0.1-0.7,0.2-0.9c0.3-0.2,0.7-0.1,0.9,0.2c0,0,0,0.1,0.1,0.1
				C-8821.8-9224.3-8821.9-9223.9-8822.2-9223.7z"/>
			<circle id="Ellipse_1869-2" fill="#E4B62C" cx="-8825.7" cy="-9222.2" r="2.1"/>
			<path id="Path_44832-2" fill-rule="evenodd" clip-rule="evenodd" fill="#0E755D" d="M-8819.7-9184.5c0.3-1.5,0.2-3-0.3-4.4
				c-1.1-3-3.4-1.6-2.2,0.9C-8821.5-9186.6-8820.3-9184.3-8819.7-9184.5z"/>
			<path id="Path_44833-2" fill-rule="evenodd" clip-rule="evenodd" fill="#0E755D" d="M-8819.6-9184.6c1.3-0.8,2.3-1.8,3-3.1
				c1.5-2.8-1-3.6-2.2-1C-8819.3-9187.4-8819.6-9186-8819.6-9184.6z"/>
			<path id="Path_44834-2" fill-rule="evenodd" clip-rule="evenodd" fill="#0E755D" d="M-8819.8-9184.5c1.5,0,3-0.4,4.2-1.3
				c2.6-1.8,0.7-3.7-1.5-1.9C-8818.2-9186.7-8819.1-9185.7-8819.8-9184.5z"/>
			<path id="Path_44835-2" fill-rule="evenodd" clip-rule="evenodd" fill="#0E755D" d="M-8819.8-9184.4c0,0-0.1-1.6-2.2-3.3
				c-2.6-1.9-3.7,0.6-1.3,2.1C-8822.1-9185.2-8821-9184.7-8819.8-9184.4z"/>
		</g>
		<g id="Group_15886" transform="translate(11382.166 9987.971) rotate(-18)">
			<path id="Path_44830-3" fill="none" stroke="#0E755D" stroke-width="2" stroke-miterlimit="4" d="M-8815-9173.6
				c-0.5-7.7-4-13.2-5.7-23.6c-1.7-10.4-1.9-13.3-1.4-15.8"/>
			<path id="flower:4-3" fill-rule="evenodd" clip-rule="evenodd" fill="#FFFFFF" d="M-8813.9-9217.5c-0.8-0.3-1.6-0.5-2.4-0.7
				c0.8,0.2,1.7,0.3,2.5,0.4c1.2,0,2.2-1.1,2.1-2.3c0-1.2-1.1-2.2-2.3-2.1c-0.8,0.2-1.6,0.4-2.5,0.6c0.8-0.3,1.6-0.6,2.4-0.9
				c1-0.6,1.4-1.9,0.8-2.9c0,0,0-0.1-0.1-0.1c-0.6-1-1.9-1.4-2.9-0.7c0,0-0.1,0-0.1,0.1c-0.8,0.7-1.6,1.5-2.4,2.4
				c0.8-0.8,1.5-1.7,2.2-2.6c0.6-1,0.2-2.3-0.8-2.9c0,0-0.1,0-0.1,0c-1-0.6-2.3-0.2-2.9,0.8c0,0,0,0.1-0.1,0.1
				c-0.4,1.1-0.7,2.1-0.9,3.2c0.3-1.1,0.5-2.2,0.6-3.3c0-1.2-1-2.1-2.2-2.1c0,0-0.1,0-0.1,0c-1.2,0-2.1,1-2.1,2.2c0,0,0,0.1,0,0.1
				c0.2,1.1,0.5,2.2,0.8,3.3c-0.3-1.1-0.7-2.1-1.1-3.2c-0.6-1-2-1.3-3-0.7c-1,0.6-1.3,2-0.7,3c0.7,0.8,1.5,1.6,2.4,2.4
				c-0.8-0.8-1.7-1.5-2.6-2.2c-1-0.6-2.3-0.2-2.9,0.8c0,0,0,0.1,0,0.1c-0.6,1-0.2,2.3,0.8,2.9c0,0,0.1,0,0.1,0
				c1.1,0.4,2.1,0.7,3.2,0.9c-1.1-0.3-2.2-0.5-3.3-0.6c-1.2,0-2.1,1-2.1,2.2c0,0,0,0.1,0,0.1c0,1.2,1,2.1,2.2,2.1c0,0,0.1,0,0.1,0
				c1.1-0.2,2.2-0.5,3.3-0.8c-1.1,0.3-2.1,0.7-3.2,1.1c-1,0.6-1.3,2-0.7,3c0.6,1,2,1.3,3,0.7c0.8-0.7,1.6-1.5,2.4-2.4
				c-0.8,0.8-1.5,1.7-2.2,2.6c-0.6,1-0.2,2.3,0.8,2.9c0,0,0.1,0,0.1,0c1,0.6,2.3,0.2,2.9-0.8c0,0,0-0.1,0.1-0.1
				c0.3-0.8,0.5-1.6,0.7-2.4c-0.2,0.8-0.3,1.7-0.4,2.5c0,1.2,1,2.1,2.2,2.1c0,0,0,0,0.1,0c0,0,0,0,0,0c1.2,0,2.1-1,2.1-2.2
				c0,0,0-0.1,0-0.1c-0.2-1.1-0.5-2.2-0.8-3.3c0.3,1.1,0.7,2.1,1.1,3.2c0.6,1,2,1.3,3,0.7c1-0.6,1.3-2,0.7-3
				c-0.7-0.8-1.5-1.6-2.4-2.4c0.8,0.8,1.7,1.5,2.6,2.2c1.1,0.6,2.4,0.2,3-0.9C-8812.5-9215.6-8812.9-9216.9-8813.9-9217.5z
				 M-8819.4-9222.7c0.4-0.3,0.9-0.1,1.2,0.3c0.1,0.2,0.2,0.5,0.1,0.7c-0.1,0.2-0.2,0.3-0.4,0.5c0,0,0,0,0,0l0,0
				c-0.4,0.3-0.9,0.1-1.2-0.3C-8819.9-9221.9-8819.8-9222.5-8819.4-9222.7z M-8821.5-9217.8c-1,0.7-2.4,0.3-3.1-0.7
				c-0.7-1-0.3-2.4,0.7-3.1c1-0.7,2.4-0.3,3.1,0.7c0.4,0.6,0.4,1.3,0.2,1.9C-8820.7-9218.5-8821-9218-8821.5-9217.8L-8821.5-9217.8z
				 M-8822.5-9224.1c0.1-0.5,0.6-0.7,1-0.6c0.5,0.1,0.7,0.6,0.6,1c-0.1,0.5-0.6,0.7-1,0.6
				C-8822.3-9223.2-8822.6-9223.7-8822.5-9224.1C-8822.5-9224.1-8822.5-9224.1-8822.5-9224.1z M-8825.5-9224.1
				c0.4-0.2,0.9-0.1,1.2,0.3c0.2,0.4,0.1,0.9-0.3,1.2c-0.4,0.3-0.9,0.1-1.2-0.3c-0.1-0.2-0.2-0.5-0.1-0.7
				C-8825.8-9223.8-8825.6-9224-8825.5-9224.1z M-8827.2-9219.8c-0.5-0.1-0.7-0.6-0.6-1c0.1-0.5,0.6-0.8,1-0.6
				c0.5,0.1,0.8,0.6,0.6,1C-8826.3-9220-8826.7-9219.7-8827.2-9219.8z M-8826-9216.6c-0.2,0.1-0.5,0.2-0.7,0.1
				c-0.2-0.1-0.3-0.2-0.5-0.4c-0.3-0.4-0.1-0.9,0.3-1.2c0.4-0.2,0.9-0.1,1.2,0.3C-8825.4-9217.3-8825.6-9216.8-8826-9216.6z
				 M-8823.9-9214.5c-0.5-0.1-0.8-0.6-0.6-1s0.6-0.8,1-0.6s0.7,0.6,0.6,1S-8823.4-9214.4-8823.9-9214.5z M-8819.9-9215.2
				c-0.4,0.3-0.9,0.1-1.2-0.3c-0.2-0.4-0.1-0.9,0.3-1.2c0.4-0.3,0.9-0.1,1.2,0.3c0.1,0.2,0.2,0.5,0.1,0.7
				C-8819.6-9215.4-8819.7-9215.3-8819.9-9215.2z M-8818.5-9217.8c-0.5-0.1-0.7-0.6-0.6-1s0.6-0.7,1-0.6c0.5,0.1,0.7,0.6,0.6,1
				C-8817.6-9218-8818.1-9217.7-8818.5-9217.8z"/>
			<circle id="Ellipse_1869-3" fill="#E4B62C" cx="-8822.7" cy="-9219.4" r="2.6"/>
			<path id="Path_44832-3" fill-rule="evenodd" clip-rule="evenodd" fill="#0E755D" d="M-8815.3-9172.5c0.4-1.8,0.3-3.7-0.3-5.4
				c-1.3-3.7-4.2-2-2.8,1.2C-8817.6-9175.1-8816-9172.2-8815.3-9172.5z"/>
			<path id="Path_44833-3" fill-rule="evenodd" clip-rule="evenodd" fill="#0E755D" d="M-8815.2-9172.6c1.6-0.9,2.9-2.3,3.8-3.9
				c1.9-3.5-1.3-4.4-2.7-1.3C-8814.9-9176.1-8815.2-9174.4-8815.2-9172.6z"/>
			<path id="Path_44834-3" fill-rule="evenodd" clip-rule="evenodd" fill="#0E755D" d="M-8815.5-9172.4c1.9,0,3.7-0.5,5.3-1.6
				c3.3-2.2,0.9-4.5-1.9-2.4C-8813.4-9175.3-8814.6-9174-8815.5-9172.4z"/>
			<path id="Path_44835-3" fill-rule="evenodd" clip-rule="evenodd" fill="#0E755D" d="M-8815.4-9172.4c0,0-0.1-2-2.8-4.1
				c-3.2-2.3-4.6,0.8-1.6,2.6C-8818.3-9173.3-8816.9-9172.8-8815.4-9172.4z"/>
		</g>
	</g>
	<g id="Group_15888" transform="translate(1806.349 3939.445)">
		<path id="Path_34610" fill="#0F6200" d="M45.4,48.9c4.5-6.5,10.3-12.1,16.9-16.3c-8.2,3.7-15.4,9.3-21,16.3H45.4z"/>
		<path id="Path_34611" fill="#0F6200" d="M32.3,48.9C35.9,27.4,47.2,9.4,62.3,0c-17.6,7.6-31.2,26-36,48.9H32.3z"/>
		<path id="Path_34612" fill="#0F6200" d="M18,48.9h3.6C17.1,35.7,9.1,26.3-0.2,24.4C7.6,28,14.2,37,18,48.9z"/>
	</g>
	<g id="Group_15889" transform="translate(1780.349 3940.445)">
		<path fill="#0F6200" d="M20.3,48.4h-4C11.9,42.1,6.3,36.7-0.2,32.6C7.8,36.2,14.8,41.6,20.3,48.4z"/>
		<path fill="#0F6200" d="M35.6,48.4h-5.9C26,27.1,14.8,9.4-0.2,0C17.2,7.5,30.8,25.7,35.6,48.4z"/>
		<path fill="#0F6200" d="M62.3,24.4c-0.5,0.3-1.1,0.5-1.6,0.8c-6,3.4-11.1,9.9-14.7,18.4c-0.6,1.4-1.1,2.8-1.6,4.3
			c-0.1,0.2-0.1,0.3-0.2,0.5h-3.6c0.6-1.7,1.2-3.3,1.9-4.8c0.6-1.3,1.2-2.5,1.8-3.6c4.3-7.9,10.1-13.5,16.7-15.3
			C61.4,24.6,61.9,24.5,62.3,24.4z"/>
	</g>
</g>
</svg>
