<?xml version="1.0" encoding="utf-8"?>
<!-- Generator: Adobe Illustrator 24.1.2, SVG Export Plug-In . SVG Version: 6.00 Build 0)  -->
<svg version="1.1" id="Слой_1" xmlns="http://www.w3.org/2000/svg" xmlns:xlink="http://www.w3.org/1999/xlink" x="0px" y="0px"
	 width="1920.9px" height="417.7px" viewBox="0 0 1920.9 417.7" enable-background="new 0 0 1920.9 417.7" xml:space="preserve">
<g id="Group_20601" transform="translate(0.884 -1218)">
	<g id="bg" transform="translate(19.282 1335.094)">
		
			<linearGradient id="Path_52153_1_" gradientUnits="userSpaceOnUse" x1="-20.166" y1="298.8781" x2="-20.166" y2="298.8781" gradientTransform="matrix(1 0 0 -1 760.166 598.442)">
			<stop  offset="0" style="stop-color:#48C5E5"/>
			<stop  offset="1" style="stop-color:#FFF9C9"/>
		</linearGradient>
		<path id="Path_52153" fill="url(#Path_52153_1_)" d="M740,299.6L740,299.6z"/>
		<g id="Group_1" transform="translate(0)">
			
				<linearGradient id="Path_1_1_" gradientUnits="userSpaceOnUse" x1="700.4649" y1="281.4455" x2="700.8574" y2="281.9192" gradientTransform="matrix(330.889 0 0 -331.4 -231837.0469 93593.5469)">
				<stop  offset="0" style="stop-color:#FFFFFF"/>
				<stop  offset="1" style="stop-color:#FFFFFF;stop-opacity:0"/>
			</linearGradient>
			<path id="Path_1" opacity="0.3" fill="url(#Path_1_1_)" enable-background="new    " d="M0,214.9h330.9c0,0-33.5-76.7-114.8-68.6
				c-81.2,8.1,5.6-109.6-80.3-140.4C50-24.8,103.8-111.3,0-117V214.9z"/>
			
				<linearGradient id="Path_2_1_" gradientUnits="userSpaceOnUse" x1="697.5424" y1="281.4725" x2="698.064" y2="282.0021" gradientTransform="matrix(145.448 0 0 -193.54 -101502.7969 54755.4922)">
				<stop  offset="0" style="stop-color:#FFFFFF"/>
				<stop  offset="1" style="stop-color:#FFFFFF;stop-opacity:0"/>
			</linearGradient>
			<path id="Path_2" opacity="0.3" fill="url(#Path_2_1_)" enable-background="new    " d="M0,21.1v193.8h145.4
				c0-81.9-82.9-40.1-82.1-117.4C64.1,24.4,6.2,21.2,0,21.1z"/>
		</g>
		<g id="Group_2" transform="translate(397.673)">
			
				<linearGradient id="Path_3_1_" gradientUnits="userSpaceOnUse" x1="301.6708" y1="279.6065" x2="302.0641" y2="280.0799" gradientTransform="matrix(330.889 0 0 -331.4 -100251.4297 93593.5469)">
				<stop  offset="0" style="stop-color:#FFFFFF"/>
				<stop  offset="1" style="stop-color:#FFFFFF;stop-opacity:0"/>
			</linearGradient>
			<path id="Path_3" opacity="0.3" fill="url(#Path_3_1_)" enable-background="new    " d="M330.9,214.9H0c0,0,33.5-76.7,114.8-68.6
				C196,154.5,109.2,36.8,195.1,6c85.8-30.7,32-117.3,135.8-123V214.9z"/>
			
				<linearGradient id="Path_4_1_" gradientUnits="userSpaceOnUse" x1="296.5661" y1="277.7183" x2="297.0875" y2="278.2477" gradientTransform="matrix(145.448 0 0 -193.54 -43476.6133 54755.4922)">
				<stop  offset="0" style="stop-color:#FFFFFF"/>
				<stop  offset="1" style="stop-color:#FFFFFF;stop-opacity:0"/>
			</linearGradient>
			<path id="Path_4" opacity="0.3" fill="url(#Path_4_1_)" enable-background="new    " d="M330.9,21.1v193.8H185.4
				c0-81.9,82.9-40.1,82.1-117.4C266.8,24.4,324.7,21.2,330.9,21.1z"/>
		</g>
		<g id="Group_6" transform="translate(1559.061 142.285)" opacity="0.5">
			<rect id="Rectangle_2" x="32.3" y="-32.3" fill="#7792AA" width="48.9" height="155.5"/>
			<rect id="Rectangle_3" x="81.1" y="-4.1" fill="#7792AA" width="35.2" height="98.3"/>
			<rect id="Rectangle_4" x="163.9" y="7" fill="#7792AA" width="21.4" height="87.2"/>
			<rect id="Rectangle_5" x="201.5" y="-32" fill="#7792AA" width="21.4" height="126.2"/>
			<rect id="Rectangle_6" x="222.9" y="10.3" fill="#7792AA" width="10.7" height="83.9"/>
			<rect id="Rectangle_7" x="185.3" y="37.8" fill="#7792AA" width="16.2" height="56.4"/>
			<path id="Path_5" fill="#7792AA" d="M163.9,94.2h-47.6V-34.2l23.8-27.1l23.8,27.1V94.2z"/>
			<g id="Group_3" transform="translate(227.278)">
				<rect id="Rectangle_8" x="6.3" y="-100.4" fill="#7792AA" width="48.9" height="194.6"/>
				<rect id="Rectangle_9" x="0" y="-83" fill="#7792AA" width="61.5" height="10.1"/>
				<ellipse id="Ellipse_1" fill="#7792AA" cx="30.8" cy="-100.4" rx="16.3" ry="16.3"/>
			</g>
			<path id="Path_6" fill="#7792AA" d="M317.4,33.1v40.7h-34.9V46.2c0.1-0.1,0.3-0.1,0.5-0.1c0.1,0,0.2-0.7,0.2-1
				c-0.1-2.9-0.3-5.7-0.4-8.6c-0.1-2.3-0.1-2.3,2-3.1c-0.3-17.8-0.7-35.6-1-53.6h3.1c0.3-3.9,0.5-7.6,0.8-11.5h3.1
				c0.3-4.9,0.5-9.6,0.8-14.5l2.8,0.3c0-0.9,0.1-1.7,0.1-2.6c1.3-0.1,2.5-0.2,4-0.3v-10.6h1.9c0.1-3.3,0.3-6.5,0.4-9.7
				c0.2-5.5,0.4-11.1,0.6-16.6c0-0.6,0.1-1.3,1.3-1.2v26.5c0.6,0.2,1,0.2,1.5,0.4v11.7h3c0.1,1,0.3,2,0.4,2.9c0.7,0,1.3,0.1,2,0.1
				v13.6c1.4,0.1,2.6,0.2,3.9,0.4c-0.2,4.1-0.3,8-0.5,12c1.2,0.1,2.1,0.1,3.1,0.1c-0.7,17.1-1.4,34.1-2.1,51.1
				c0.9,0.1,1.7,0.3,2.4,0.3C317.1,32.3,317.4,32.4,317.4,33.1z"/>
			<path fill="#7792AA" d="M341.7-21.7v95.5h-24.3V-2.5c1.6,0,3.1,0,4.6,0c0.8,0,1.5-0.3,1.9-1c4.1-5.3,8.4-10.4,12.4-15.8
				C337.7-21.2,339.4-21.7,341.7-21.7z"/>
			<path id="Path_8" fill="#7792AA" d="M0,144.8h32.3V48.2l-16.1-25L0,48.2L0,144.8z"/>
		</g>
		<g id="Group_11" transform="translate(-19.526 105.484)" opacity="0.5">
			<rect id="Rectangle_15" x="267.8" y="-64.8" fill="#7792AA" width="45.9" height="146"/>
			<rect id="Rectangle_16" x="234.8" y="-11" fill="#7792AA" width="33" height="92.2"/>
			<rect id="Rectangle_17" x="170" y="-0.6" fill="#7792AA" width="20.1" height="81.8"/>
			<rect id="Rectangle_18" x="134.7" y="-37.3" fill="#7792AA" width="20.1" height="118.5"/>
			<rect id="Rectangle_19" x="124.7" y="2.5" fill="#7792AA" width="10" height="78.8"/>
			<rect id="Rectangle_20" x="154.8" y="28.3" fill="#7792AA" width="15.2" height="52.9"/>
			<path id="Path_10" fill="#7792AA" d="M190.1,81.2h44.7V-39.3l-22.3-25.5l-22.3,25.5L190.1,81.2z"/>
			<g id="Group_7" transform="translate(72.847)">
				<rect id="Rectangle_21" x="5.9" y="-101.5" fill="#7792AA" width="45.9" height="182.7"/>
				<rect id="Rectangle_22" x="0" y="-85.1" fill="#7792AA" width="57.8" height="9.4"/>
				<ellipse id="Ellipse_2" fill="#7792AA" cx="28.9" cy="-101.5" rx="15.3" ry="15.3"/>
			</g>
			<rect id="Rectangle_23" x="1673.2" y="66.4" fill="#7792AA" width="19.5" height="79.4"/>
			<rect id="Rectangle_24" x="1707.5" y="30.8" fill="#7792AA" width="19.5" height="115"/>
			<rect id="Rectangle_25" x="1727" y="69.3" fill="#7792AA" width="9.8" height="76.4"/>
			<rect id="Rectangle_26" x="1692.7" y="94.4" fill="#7792AA" width="14.8" height="51.4"/>
			<path id="Path_11" fill="#7792AA" d="M1663.4,145.8h-32.7V57.4l16.4-18.7l16.4,18.7L1663.4,145.8z"/>
			<g id="Group_8" transform="translate(1743.513 60.272)">
				<rect id="Rectangle_27" x="4.4" y="-105.5" fill="#7792AA" width="33.6" height="133.9"/>
				<rect id="Rectangle_28" x="0" y="-93.5" fill="#7792AA" width="42.3" height="6.9"/>
				<ellipse id="Ellipse_3" fill="#7792AA" cx="21.2" cy="-105.5" rx="11.2" ry="11.2"/>
			</g>
			<path id="Path_12" fill="#7792AA" d="M46,23.9v38.2h32.8V36.2c-0.1-0.1-0.3-0.1-0.4-0.1c-0.1,0-0.2-0.6-0.1-1
				c0.1-2.7,0.2-5.3,0.3-8c0.1-2.2,0.1-2.2-1.8-2.9C77,7.4,77.4-9.3,77.7-26.2h-2.9c-0.3-3.6-0.5-7.2-0.7-10.8h-2.9
				c-0.3-4.6-0.5-9.1-0.8-13.6l-2.7,0.3c0-0.9-0.1-1.6-0.1-2.5c-1.2-0.1-2.4-0.2-3.8-0.3v-10H62c-0.1-3.1-0.3-6.1-0.4-9.1
				c-0.2-5.2-0.4-10.4-0.6-15.6c0-0.6-0.1-1.2-1.2-1.1v24.9c-0.6,0.1-1,0.2-1.4,0.3v11h-2.8c-0.1,1-0.3,1.9-0.4,2.8
				c-0.7,0-1.2,0.1-1.9,0.1v12.7c-1.3,0.1-2.5,0.2-3.7,0.3c0.2,3.8,0.3,7.5,0.5,11.3c-1.1,0-2,0.1-2.9,0.1c0.7,16.1,1.3,32,2,47.9
				c-0.9,0.1-1.6,0.3-2.3,0.3C46.3,23.1,46,23.2,46,23.9z"/>
			<path id="Path_13" fill="#7792AA" d="M46-9.6v71.7H20.8V15.5c0.2,0.1,0.4,0.2,0.6,0.3c0.5-14.6,1-29,1.5-43.3
				c2.2-0.1,3.9,0.3,5.3,2.3c3.7,5,7.8,9.9,11.6,14.8c0.4,0.6,1.1,0.9,1.8,0.9C43.1-9.6,44.5-9.6,46-9.6z"/>
			<path id="Path_14" fill="#7792AA" d="M344.6,90.2h-31V-9.5l15.5-25.8l15.5,25.8V90.2z"/>
			<g id="Group_9" transform="translate(1800.073 171.421)">
				<path id="Path_15" fill="#7792AA" d="M43.8-91H0l11.2-15.1h21.4L43.8-91z"/>
				<rect id="Rectangle_29" x="13.4" y="-116.6" fill="#7792AA" width="6.3" height="10.4"/>
				<rect id="Rectangle_30" x="4.6" y="-91" fill="#7792AA" width="34.6" height="26.7"/>
			</g>
			<g id="Group_10" transform="translate(0 106.222)">
				<rect id="Rectangle_31" x="0" y="-90.8" fill="#7792AA" width="20.8" height="42.1"/>
				<rect id="Rectangle_32" x="8.3" y="-116.7" fill="#7792AA" width="5.8" height="25.9"/>
				<rect id="Rectangle_33" x="1" y="-106.8" fill="#7792AA" width="5.8" height="16.1"/>
			</g>
			
				<rect id="Rectangle_16102" x="272.1" y="-10.3" opacity="0.745" fill="#4D6882" enable-background="new    " width="34.7" height="110.5"/>
			
				<rect id="Rectangle_16103" x="163.7" y="12.6" opacity="0.745" fill="#4D6882" enable-background="new    " width="7.6" height="59.6"/>
			<path id="Path_52154" opacity="0.745" fill="#4D6882" enable-background="new    " d="M62.2,90.2h33.8V-1L79.1-20.3L62.2-1
				L62.2,90.2z"/>
		</g>
		
			<linearGradient id="Path_16_1_" gradientUnits="userSpaceOnUse" x1="701.7106" y1="282.3477" x2="701.8908" y2="283.1729" gradientTransform="matrix(419.768 0 0 -92.2405 -292823.5313 26301.8145)">
			<stop  offset="0" style="stop-color:#8BCCA2"/>
			<stop  offset="1" style="stop-color:#B4D0BE"/>
		</linearGradient>
		<path id="Path_16" fill="url(#Path_16_1_)" d="M1604.5,240c-57.7,18-97,39.2-123.8,59.6h420v-89.1
			C1843.7,205.1,1728.1,201.5,1604.5,240z"/>
		<g id="Group_18" transform="translate(0 -0.094)">
			<g>
				<defs>
					<rect id="SVGID_1_" x="-0.3" y="-117" width="740" height="416.7"/>
				</defs>
				<clipPath id="SVGID_2_">
					<use xlink:href="#SVGID_1_"  overflow="visible"/>
				</clipPath>
				<g id="Group_17" clip-path="url(#SVGID_2_)">
					<g id="Group_16" transform="translate(1579.841 297.487)">
						<g id="Group_12">
							<path id="Path_17" fill="#0E755D" d="M73.4-62.8c-0.6,4.2-1.6,8.4-3.1,12.4c-0.5,1.5-1.1,2.9-1.8,4.2c-1.1,2.4-2.5,4.6-4,6.7
								c-13.1,17.1-21.6,26-21.6,26l-3-2.5l-3.1-2.5l-8.5-7.1l-4.9-4.1l-9.6-7.9C9.7-47,6.3-56.6,3.7-66.5c-0.4-1.6-0.8-3.1-1.1-4.7
								C1.3-76.7,0.4-82.3,0.1-88C0-89.6,0-91.2,0-92.8c0.2-7.2,1.7-13.7,5.4-18.5c2.2-2.9,4.6-4.5,6.9-5c1.3-0.3,2.6-0.3,3.9,0.1
								c4.2,1.1,8.5,5.3,12.2,11.6c0.7,1.2,1.4,2.4,2,3.7c2.5,5,4.5,10.2,5.9,15.5c0.4,1.2,0.7,2.5,1,3.8c3.2,12.8,4.3,25.9,3.4,39
								c0,0,2.1-8.9,5.5-18.9c0.4-1.2,0.8-2.4,1.3-3.7c1.3-3.5,2.8-7.1,4.4-10.3c0.7-1.3,1.4-2.6,2.1-3.8c2.9-4.8,6.2-8.3,9.7-8.8
								c1-0.1,2-0.1,3,0.2c1.5,0.5,2.7,1.4,3.6,2.7c2.5,3.4,3.7,9.3,3.6,15.9C73.9-67,73.7-64.9,73.4-62.8z"/>
							<path id="Path_18" fill="#29CB97" d="M37.3-81.7c-0.3-1.3-0.6-2.5-1-3.8c-5.9,0.7-11.6,2.1-17.2,4.1
								c-0.6-5.8-1.1-11.2-1.5-16.3c4.1-1.6,8.4-2.7,12.8-3.3c-0.6-1.3-1.3-2.5-2-3.7c-3.8,0.6-7.5,1.5-11.1,2.9
								c-0.5-5.4-0.8-10.2-1-14.5c-1.3-0.3-2.6-0.4-3.9-0.1c0.2,4.6,0.6,10,1.1,16c-4.7,2-9.2,4.6-13.4,7.5C0-91.2,0-89.7,0.1-88
								c4.3-3.2,8.8-5.9,13.7-8.1c0.4,5.1,1,10.5,1.6,16.2c-4.8,2-9.2,4.9-12.8,8.7c0.4,1.6,0.7,3.2,1.1,4.7
								c2.1-2.9,5.8-6.3,12.1-9.3c1.7,14.6,4.2,30.5,7.5,46l4.9,4.1c-3.8-17.1-6.7-34.4-8.7-51.7C25.3-79.5,31.2-80.9,37.3-81.7z"/>
							<path id="Path_19" fill="#29CB97" d="M73.4-62.8c0.3-2.1,0.5-4.2,0.5-6.3c-1.7-2.1-3.6-3.9-5.8-5.4c0.9-3.5,1.6-7,2.2-10.6
								c-0.9-1.3-2.1-2.2-3.6-2.7c-0.5,3.8-1.3,7.5-2.2,11.2c-3.3-1.4-6.8-2.3-10.4-2.7c-0.7,1.2-1.4,2.5-2.1,3.8
								c4,0.1,7.9,1.1,11.4,2.8c-1.1,4-2.5,8-4,11.9c-3.7-2.2-7.7-3.7-11.9-4.4c-0.5,1.2-0.9,2.5-1.3,3.7c4.2,0.7,8.2,2.2,11.8,4.4
								c-5.7,13.6-12.8,26.5-21.3,38.5l3.1,2.5c8.6-12.1,15.8-25,21.5-38.7c2.9,2.4,5.3,5.2,7.2,8.5c0.7-1.4,1.3-2.8,1.8-4.2
								c-2.1-3-4.6-5.7-7.5-7.9c1.5-3.9,2.9-7.9,4.1-12.1C69.7-68.5,71.9-65.9,73.4-62.8z"/>
						</g>
						<g id="Group_14" transform="translate(51.87 53.098)">
							<path id="Path_20" fill="#0E755D" d="M47.8-85.4l-1.3,0.5l-11.7,4.3l-2.2,0.8l-1.9,0.7L25-77c0,0,0,0,0,0c0,0,0,0,0,0
								l-2.3,0.8L22.3-76l-5.1,1.9L16-73.6l0,0l-3.6,1.3L11.5-72l-3.8,1.4l-2.4-2L0-77c0.6-2.5,1.4-5.4,2.3-8.2
								C3-87.4,4-89.5,5.1-91.5c0.1-0.2,0.2-0.3,0.3-0.5c0-0.1,0-0.1,0.1-0.1c0.1-0.2,0.2-0.3,0.3-0.5c0.3-0.3,0.6-0.7,0.8-1
								c0.2-0.3,0.5-0.5,0.8-0.7l0,0c0.2-0.2,0.3-0.3,0.5-0.4c1.9-1.8,4-3.4,6.2-4.8c1-0.7,2-1.2,2.8-1.7c0.3-0.2,0.6-0.4,0.9-0.5
								c1.6-1,2.7-1.6,2.7-1.6l1.4,1.4l3,3l0,0l0,0l1.9,1.9l-0.6-3.4l-0.1-0.6l-0.7-4l-0.4-1.9l2.4-1.2l1.7-0.8l0.9-0.4l2.5-1.3
								l9.2-4.5l1.5-0.7l0.7-0.3c0,0,0.1,0.2,0.3,0.8c0.1,0.5,0.3,1.3,0.5,2.2c1.3,5.1,2.2,10.4,2.7,15.6l0,0c0,0.2,0,0.3,0,0.5
								c0,0.2,0,0.4,0.1,0.5c0.3,3.4,0.3,6.8,0.2,10.3c0,0.2,0,0.4,0,0.6C47.9-85.7,47.8-85.6,47.8-85.4z"/>
							<g id="Group_13" transform="translate(5.072)">
								
									<linearGradient id="Path_21_1_" gradientUnits="userSpaceOnUse" x1="-957.4461" y1="-67.8674" x2="-956.4461" y2="-67.8674" gradientTransform="matrix(30.7697 0 0 -40.311 29472.0918 -2832.0637)">
									<stop  offset="0" style="stop-color:#29CB97"/>
									<stop  offset="1" style="stop-color:#29CB97"/>
								</linearGradient>
								<path id="Path_21" fill="url(#Path_21_1_)" d="M31-92.6l11.6-4.1c0-0.4-0.1-0.7-0.1-1.1l-11,3.9v0c0.1-0.1,0.1-0.2,0.2-0.4
									l0.4-1.1c2.8-6.6,5.2-13.4,7-20.3l-0.2-0.8l-0.7,0.3c-1.8,6.9-4.1,13.6-6.9,20.1c-0.2,0.4-0.3,0.9-0.5,1.3
									c-0.1,0.1-0.1,0.2-0.2,0.4L25-109.6l-0.9,0.4l6,16.1v0v0c-2.3,4.7-5.2,9.1-8.7,13l-8.7-21.9c-0.3,0.2-0.6,0.3-0.8,0.5
									l8.8,22.2c-1,1.1-2.1,2.2-3.1,3.1l2.3-0.9c0.5-0.5,1-1,1.5-1.6l4.2-0.5l4.1-1.5l-7.3,0.9C25.9-83.6,28.7-87.9,31-92.6
									L31-92.6z M31.5-93.9L31.5-93.9L31.5-93.9L31.5-93.9z"/>
								
									<linearGradient id="Path_22_1_" gradientUnits="userSpaceOnUse" x1="-1032.423" y1="-67.4833" x2="-1031.423" y2="-67.4833" gradientTransform="matrix(7.342 0 0 -20.6 7580.0845 -1472.4448)">
									<stop  offset="0" style="stop-color:#6BBC61"/>
									<stop  offset="1" style="stop-color:#A7DF63"/>
								</linearGradient>
								<path id="Path_22" fill="url(#Path_22_1_)" d="M0.7-92.6c-0.1,0.2-0.2,0.3-0.3,0.5c-0.2,0.2-0.3,0.4-0.4,0.6L6.4-72l0.9-0.4
									L0.9-91.9L0.7-92.6z"/>
							</g>
						</g>
						
							<linearGradient id="Path_23_1_" gradientUnits="userSpaceOnUse" x1="-895.4824" y1="-15.2476" x2="-895.2141" y2="-14.9322" gradientTransform="matrix(38.5999 0 0 -105.3069 34601.6445 -1632.0997)">
							<stop  offset="0" style="stop-color:#29CB97"/>
							<stop  offset="1" style="stop-color:#29CB97"/>
						</linearGradient>
						<path id="Path_23" fill="url(#Path_23_1_)" d="M64.2-24.2c-0.7,4.2-2,8.3-3.7,12.3l0,0l-0.9,0.5l-1.2,0.7l-9,5.1l-1.9,1.1
							l-1.9,1.1l-1.8,1l-5.2,3c0,0,0,0,0,0l-2.1,1.2v0L36,2.1c0.5-2.3,0.9-4.6,0.9-6.9c0-0.6,0-1.2,0-1.8v0c0-1.2-0.1-2.5-0.1-3.8
							c0-0.1,0-0.2,0-0.3c-0.3-3.5-1-7-2.1-10.3l0,0v0c-0.5-1.3-1-2.7-1.6-4.1c-0.5-1-0.8-2.1-1.1-3.2c-0.4-1.6-0.5-3.3-0.4-4.9
							c0.4-5.8,3.3-10.9,4-17.3v0c0.5-4.9-0.3-10.6-4.7-18c-4.2-7.2-5.3-14-4.4-19.7c0.1-0.6,0.2-1.1,0.4-1.7
							c0.9-4.2,3.3-8,6.7-10.7c2-1.6,4.5-2.4,7.1-2.5c1.1,0,2.2,0.2,3.2,0.4c0.8,0.3,1.7,0.6,2.4,1C59.1-95.1,39-66.2,56-52.1
							C65.4-44.3,65.8-32.9,64.2-24.2z"/>
						<g id="Group_15" transform="translate(36.976 13.163)">
							<path id="Path_24" fill="#1CB785" d="M14.6-33.6c0,0.4-0.1,0.9-0.1,1.2c-0.1,0.7-0.1,1.3-0.2,1.9c-0.2,2.1-0.5,4.1-0.8,5.9
								c0,0.2-0.1,0.4-0.1,0.6c-0.3,1.9-0.7,3.7-1,5.2l-1.9,1.1l-1.9,1.1c0.1-0.2,0.1-0.4,0.2-0.6c0.6-2.2,1.2-4.5,1.5-6.8
								c0-0.2,0-0.3,0.1-0.5c0.3-1.8,0.6-3.9,0.9-6.1c0-0.4,0.1-0.8,0.1-1.2c0-0.1,0-0.3,0-0.4v0c0.2-2.1,0.4-4.3,0.6-6.5
								c0.1-2.2,0.2-4.5,0.2-6.8c0-1.3,0-2.6,0-3.9c0-1.2-0.1-2.4-0.3-3.6c-0.3-2.2-0.9-4.4-1.8-6.5c-0.9-2-1.9-4-3-6
								c-3.1-6-6.7-12.8-7-25.4c-0.2-11.8,1.8-20.2,3.7-25.5c1.1,0,2.2,0.2,3.2,0.4c-2,5-4.1,13.2-3.9,25.1
								c0.2,11.7,3.5,17.9,6.7,23.9c1.1,2,2.2,4.2,3.1,6.3c1.2,2.9,2,5.9,2.2,9c0.1,0.7,0.1,1.4,0.2,2.2
								C15.3-44.2,15.1-38.9,14.6-33.6z"/>
						</g>
					</g>
				</g>
			</g>
		</g>
		<g id="Group_28" transform="translate(560.542 313.841)">
			<g id="Group_24" transform="translate(0 56.015)">
				<path id="Path_29" fill="none" d="M36.4-116.4l-0.7,4.4l0,0.1l0,0.2l-0.5,3l-4.9,27.5"/>
				
					<linearGradient id="Path_30_1_" gradientUnits="userSpaceOnUse" x1="134.8526" y1="-87.2339" x2="135.8526" y2="-87.2339" gradientTransform="matrix(97.1849 0 0 -40.369 -13105.6396 -3614.6304)">
					<stop  offset="0" style="stop-color:#0E755D"/>
					<stop  offset="1" style="stop-color:#0E755D"/>
				</linearGradient>
				<path id="Path_30" fill="url(#Path_30_1_)" d="M97.2-102.6c0,0-0.3,0.8-0.8,2.1c-1.8,4.2-5.9,13.9-11,23.1
					c-0.2,0.3-0.4,0.7-0.6,1c-0.4,0.8-0.8,1.5-1.3,2.2c-0.2,0.4-0.5,0.8-0.8,1.3H48.5l-4.9-4.7L40.5-78l-2.4-0.3l-25-3L7.3-82
					L0-99.3c4.7-6,11.2-10.5,18.6-12.7l0-0.1c5.8-1.6,11.9-1.7,17.8-0.5c3.2,0.6,6.4,1.3,9.6,1.9c0.8,0.1,1.7,0.3,2.5,0.4
					c7.4,1.4,14.6,2.6,21.1,3.6c0.9,0.1,1.7,0.2,2.5,0.4c0.3,0.1,0.8,0.1,1.1,0.2c10.5,1.6,18.7,2.7,22.2,3.1
					C96-102.7,96.6-102.6,97.2-102.6z"/>
				<g id="Group_23" transform="translate(38.062 5.841)">
					<path id="Path_31" fill="#369E5F" d="M59.1-108.4c0,0-0.3,0.8-0.8,2.1c-2.7,1.8-8.6,5.5-16.7,10c-4.1,2.2-8.6,4.5-13.7,6.8
						c-1,0.4-2.1,0.9-3.1,1.4l-0.1,0l0,0.1c-4.4,2-8.9,3.8-13.4,5.3l-5.8-0.7c6.2-2,12.3-4.3,18.3-7c1.1-0.4,2.1-0.9,3.1-1.4
						c5.1-2.3,9.7-4.7,13.8-6.9c5.7-3,11.2-6.4,16.6-10C57.9-108.6,58.5-108.5,59.1-108.4z"/>
					<path id="Path_32" fill="#369E5F" d="M45.5-80l-20.7-8.2l0,0l-1.5-0.6l0.6-1.7l7.7-22c0.8,0.1,1.7,0.3,2.5,0.4l-7,20.2
						l-0.6,1.7l1.5,0.6l18.8,7.4C46.3-81.4,45.9-80.7,45.5-80z"/>
					<path id="Path_33" fill="#369E5F" d="M8-116.4L0-84.1l2.4,0.3l8-32.2C9.6-116.1,8.8-116.3,8-116.4z"/>
				</g>
			</g>
			<g id="Group_25" transform="translate(8.087 7.707)">
				<path id="Path_34" fill="#29CB97" d="M42.5-48.6c0.1,1.2,0.1,2.3,0,3.5c0,0.3-0.1,0.7-0.1,1c-0.2,1-0.4,2.1-0.7,3.1
					c-0.2,0.8-0.5,1.6-0.9,2.4c0,0.1-0.1,0.2-0.1,0.3c-0.1,0.4-0.3,0.8-0.5,1.2c0,0,0,0,0,0c0,0,0,0,0,0c0,0.1-0.1,0.1-0.1,0.2
					c-0.6,0.5-1.4,1.3-2.3,2.2c-0.3,0.3-0.6,0.6-0.9,0.9c-0.2,0.2-0.4,0.4-0.6,0.6c-1.2,1.1-2.4,2.3-3.5,3.6
					c-0.9,0.3-1.8,0.6-2.7,0.8l-1.8,0.4c-0.4,0.1-0.8,0.2-1.3,0.3c-0.6,0.1-1.3,0.3-2,0.4l-0.1,0c-0.3,0.1-0.7,0.2-1.1,0.2
					c-0.6,0.1-1.2,0.2-1.7,0.3c-2.6,0.6-5.3,1-7.9,1.2c-0.2,0-0.5-0.5-1-1.2c-0.6-0.7-1.2-1.8-2-3c-0.2-0.3-0.5-0.7-0.7-1.1
					c0-0.4,0-0.9-0.1-1.4c0-2.2,0.2-4.4,0.6-6.6c0.2-0.9,0.3-1.6,0.4-2.4c0-0.2,0-0.3,0-0.5c0.3-2.4,0.2-4.9-0.4-7.3
					c-0.7-2.6-1.6-5.1-3-7.4c-1-2.1-2.4-4.4-3.9-7c-6.2-10.5,0.4-7.8,3.9-19.7c0.5-1.8,0.6-3.8,0.1-5.6c-2.1-9.1-13.5-17-5.2-24.2
					c0.3-0.3,0.6-0.5,0.9-0.8c0.1-0.1,0.1-0.1,0.2-0.2c0.4-0.3,0.8-0.6,1.2-0.8c11.4-6.6,19,11.8,19.4,12.9l0,0.1l4.4,4.6
					c0,0,4.5,33,10.9,41.7l0,0C41.6-53.6,42.4-51.1,42.5-48.6z"/>
				
					<linearGradient id="Path_35_1_" gradientUnits="userSpaceOnUse" x1="100.2325" y1="-39.1282" x2="101.2325" y2="-39.1282" gradientTransform="matrix(21.2819 0 0 -81.6649 -2129.2454 -3269.5608)">
					<stop  offset="0" style="stop-color:#6BBC61"/>
					<stop  offset="1" style="stop-color:#20A57A"/>
				</linearGradient>
				<path id="Path_35" fill="url(#Path_35_1_)" d="M16.9-84.8c0.1-0.5,0.1-1.1,0.2-1.6c1.2-0.9,2.3-1.9,3.2-3
					c1.1-1.4,2.1-2.8,2.9-4.4c-1.4,1.1-2.6,2.3-4,3.4c-0.6,0.6-1.3,1.1-1.9,1.7c0.2-2.4,0.2-4.9-0.3-7.3c-0.3-1.4-0.8-2.7-1.3-4l0,0
					c0.6-1.2,1-2.6,1.3-3.9c0.3-1.3,0.4-2.7,0.2-4.1c-0.6,2.1-1.4,4.1-2.4,6.1v0c-2.6-4.7-5.8-9.1-9.5-13c-0.4,0.2-0.8,0.5-1.2,0.8
					c-0.1,0-0.2,0.1-0.2,0.2c3.7,3.8,6.9,8.2,9.4,12.9c-1.4,0.1-2.7,0.1-4.1-0.1c-0.9-0.1-1.8-0.4-2.7-0.8c-0.4-0.2-0.9-0.4-1.3-0.7
					c-0.4-0.2-0.8-0.6-1.2-0.9c1,1.9,2.7,3.3,4.8,3.8c1.7,0.5,3.5,0.5,5.2,0.3c0.5,1.2,1,2.5,1.2,3.8c0.5,2.7,0.5,5.5,0.1,8.2v0
					c-1.3,0-2.5,0-3.8-0.1C10.4-87.8,9-88,8.2-89.2c0.1,0.4,0.2,0.7,0.4,1c0.2,0.3,0.5,0.6,0.8,0.8c0.6,0.4,1.3,0.8,2,1
					c1.2,0.4,2.5,0.6,3.8,0.6c-0.1,0.2-0.1,0.5-0.1,0.8c-0.7,5.4-1.4,10.9,2.6,14.4l0,0c-1.5,0.3-2.9,0.4-4.4,0.5
					c-2.1,0.2-4.2-0.4-6-1.6c0.6,1,1.5,1.8,2.6,2.2c1.1,0.5,2.2,0.8,3.4,0.9c2.1,0.2,4.3,0,6.3-0.6c1.2,0.8,2.1,2.4,2.7,4.5
					c0.6,2.5,0.9,5,0.9,7.5c0,0.8,0,1.7,0,2.6c0,1.1,0,2.2-0.1,3.3c-0.1,1.7-0.2,3.4-0.4,5.1c-0.1,0.9-0.2,1.7-0.3,2.5l0,0
					c-0.1,1.4-0.3,2.7-0.5,4c-0.4,2.4-0.7,4.6-1.1,6.3l1.7,0.3c0.1-0.4,0.2-1.1,0.4-2.1c0.3-1.5,0.6-3.8,1-6.4
					c0.1-0.6,0.2-1.2,0.2-1.9c0.1-0.8,0.2-1.7,0.3-2.6c0.3-2.7,0.5-5.5,0.5-8.3c0-0.9,0-1.8,0-2.7c0-0.8,0-1.5-0.1-2.2
					c-0.1-1.6-0.3-3.1-0.6-4.6c-0.6-2.7-1.6-5-3.1-6.3c0.8-0.8,1.5-1.7,2.1-2.7c0.8-1.3,1.4-2.6,1.9-4l-2.8,3.3
					c-0.8,0.9-1.6,1.7-2.5,2.4c0,0,0,0,0,0c-0.1,0-0.1,0-0.1,0c-4.1-2.7-3.6-7.5-2.9-13.1C16.9-84.6,16.9-84.7,16.9-84.8z"/>
			</g>
			<g id="Group_26" transform="translate(41.716)">
				
					<linearGradient id="Path_36_1_" gradientUnits="userSpaceOnUse" x1="70.3121" y1="-31.5955" x2="71.7376" y2="-31.0013" gradientTransform="matrix(24.1245 0 0 -47.663 -1699.1016 -1583.4585)">
					<stop  offset="0" style="stop-color:#0E755D"/>
					<stop  offset="1" style="stop-color:#0E755D"/>
				</linearGradient>
				<path id="Path_36" fill="url(#Path_36_1_)" d="M7.7-68.8c0,0-14.9-29.6,16.7-47.7c0,0,10.2,18.3-2.4,34.2L17.6-85l1.7,5.2
					L7.7-68.8z"/>
				<path id="Path_37" fill="#369E5F" d="M5.9-14c0,0-0.2-5.2,0-13.1C6-35,6.5-45.5,7.8-56c0.6-5.2,1.5-10.4,2.5-15.3
					c1-4.8,2.2-9.3,3.4-13.1c1-3,2.1-6,3.4-9l1.5-3.3c0,0-0.6,1.2-1.7,3.2c-1.5,2.8-2.8,5.8-4,8.8c-1.4,3.7-2.9,8.2-4.3,13
					c-1.3,4.8-2.6,10-3.6,15.3C2.9-46,1.6-35.3,0.9-27.4C0.2-19.4,0-14,0-14H5.9z"/>
				<path id="Path_38" fill="#369E5F" d="M12.2-103.8c1.1,3.7,2.6,7.3,4.3,10.8l0.3,0.6l0.6-0.3c3.1-1.3,6.1-2.8,9-4.5
					c-3.3,0.8-6.4,1.9-9.5,3.2l0.9,0.4C16.1-97.2,14.3-100.6,12.2-103.8z"/>
				<path id="Path_39" fill="#369E5F" d="M6.9-92.6c1.1,3.5,2.7,6.9,4.7,10l0.3,0.4l0.4-0.1c1.6-0.4,3.2-0.9,4.7-1.5
					c-1.6,0-3.3,0-4.9,0.2l0.7,0.3C11.1-86.6,9.2-89.7,6.9-92.6z"/>
			</g>
			<g id="Group_27" transform="translate(39.729 37.369)">
				
					<linearGradient id="Path_40_1_" gradientUnits="userSpaceOnUse" x1="77.9598" y1="-68.9834" x2="78.2051" y2="-67.8139" gradientTransform="matrix(28.971 0 0 -22.5096 -2222.0757 -1641.8481)">
					<stop  offset="0" style="stop-color:#0E755D"/>
					<stop  offset="1" style="stop-color:#0E755D"/>
				</linearGradient>
				<path id="Path_40" fill="url(#Path_40_1_)" d="M26.3-93.9c0,0,2.6-23.9,29-22.5c0,0-1,15.2-14.9,19.9l-1.7-3.4l-1,3.8L26.3-93.9
					z"/>
				<path id="Path_41" fill="#369E5F" d="M3.6-61.3c0,0,1.9-3.2,5.1-8c3.2-4.7,7.7-10.9,12.6-16.8c2.4-2.9,5-5.8,7.5-8.3
					c2.5-2.5,5-4.8,7.2-6.7c1.8-1.5,3.7-2.8,5.6-4.1l2.2-1.4l-2.3,1.3c-2,1.1-4,2.4-5.9,3.7c-2.3,1.7-5,3.8-7.7,6.2
					c-2.7,2.4-5.5,5.1-8.2,7.9C14.4-81.9,9.4-76,5.8-71.4C2.2-66.8,0-63.6,0-63.6L3.6-61.3z"/>
				<path id="Path_42" fill="#369E5F" d="M42.8-113.5c-0.8,2.7-1.3,5.5-1.7,8.3l-0.1,0.5l0.5,0.1c2.4,0.4,4.8,0.7,7.3,0.8
					c-2.3-0.8-4.7-1.4-7.1-1.8l0.4,0.6C42.6-107.9,42.8-110.7,42.8-113.5z"/>
				<path id="Path_43" fill="#369E5F" d="M35.1-108.8c-0.7,2.6-1,5.3-1.1,7.9l0,0.4l0.3,0.1c1.1,0.4,2.3,0.7,3.4,1
					c-1-0.7-2-1.3-3.1-1.8l0.3,0.5C35.4-103.4,35.4-106.1,35.1-108.8z"/>
			</g>
		</g>
		<linearGradient id="SVGID_3_" gradientUnits="userSpaceOnUse" x1="244.1705" y1="79.9746" x2="346.1846" y2="449.7756">
			<stop  offset="0" style="stop-color:#B4D0BE"/>
			<stop  offset="1" style="stop-color:#75CC96"/>
		</linearGradient>
		<path fill="url(#SVGID_3_)" d="M629.9,299.6l-21.8,0.1l-5.9,0l-325.6,0.9H-20.2V158.3c0.2,0,0.4,0,0.6,0h0.2
			c6-0.1,12.4-0.2,19.3-0.2h1.3c7.8,0,16.3,0.1,25.2,0.2c5.2,0.1,10.6,0.2,16.2,0.3c5.4,0.1,10.9,0.3,16.6,0.5
			c5.6,0.2,11.4,0.4,17.3,0.7c9.2,0.4,18.8,0.9,28.6,1.5c3.3,0.2,6.7,0.4,10,0.7c1.4,0.1,2.9,0.2,4.3,0.3c5.2,0.4,10.5,0.7,15.8,1.2
			c2.9,0.2,5.9,0.5,8.9,0.7c2.1,0.2,4.2,0.3,6.4,0.5c0.4,0,0.8,0.1,1.2,0.1c6.2,0.5,12.5,1.1,18.9,1.8c14.5,1.4,29.4,3.1,44.7,5
			c10.9,1.4,21.9,2.9,33,4.5c1.4,0.2,2.8,0.4,4.3,0.6c11.5,1.7,23.1,3.6,34.7,5.6c2.3,0.4,4.6,0.8,6.9,1.2
			c6.2,1.1,12.3,2.2,18.5,3.4c4.1,0.8,8.3,1.6,12.5,2.5c25.3,5.1,50.9,11,76.6,17.8c9.2,2.5,18.4,5,27.6,7.7
			c46.3,13.5,92.2,30.2,136,50.6c4.8,2.3,9.7,4.6,14.5,6.9c3.8,1.9,7.5,3.7,11.2,5.7c0.5,0.2,0.9,0.5,1.4,0.7c0.1,0,0.2,0.1,0.3,0.2
			c2.7,1.4,5.3,2.8,8,4.2c0.7,0.4,1.4,0.7,2.1,1.1c0.1,0,0.1,0.1,0.2,0.1c0.1,0.1,0.3,0.1,0.4,0.2c1,0.5,2,1,2.9,1.6
			c0.2,0.1,0.4,0.2,0.7,0.3c0.4,0.2,0.8,0.4,1.2,0.6c1.4,0.8,2.8,1.5,4.2,2.3c1,0.5,1.9,1.1,2.9,1.6c3.5,2,7,3.9,10.4,6
			C627,297.8,628.5,298.7,629.9,299.6z"/>
	</g>
</g>
<rect x="0" y="408.6" fill="none" width="10.7" height="9"/>
</svg>
