<svg xmlns="http://www.w3.org/2000/svg" xmlns:xlink="http://www.w3.org/1999/xlink" width="1920" height="468.572" viewBox="0 0 1920 468.572">
  <defs>
    <linearGradient id="linear-gradient" x1="-0.952" y1="-0.863" x2="2.616" y2="2.859" gradientUnits="objectBoundingBox">
      <stop offset="0" stop-color="#ffeceb"/>
      <stop offset="1" stop-color="#ffeceb"/>
    </linearGradient>
    <linearGradient id="linear-gradient-2" x1="0.5" y1="1.282" x2="0.5" y2="1.145" gradientUnits="objectBoundingBox">
      <stop offset="0" stop-color="#0e755d"/>
      <stop offset="1" stop-color="#0e6c75"/>
    </linearGradient>
    <linearGradient id="linear-gradient-3" x1="-7.781" y1="-1.991" x2="8.051" y2="2.694" xlink:href="#linear-gradient"/>
    <linearGradient id="linear-gradient-4" x1="-6.06" y1="0.961" x2="-6.056" y2="-0.001" gradientUnits="objectBoundingBox">
      <stop offset="0"/>
      <stop offset="1" stop-opacity="0"/>
    </linearGradient>
    <linearGradient id="linear-gradient-5" x1="2.847" y1="-1.224" x2="0.53" y2="0.164" gradientUnits="objectBoundingBox">
      <stop offset="0" stop-color="#f5f5f2"/>
      <stop offset="0.104" stop-color="#f6f6f4"/>
      <stop offset="0.884" stop-color="#f6f6f4"/>
      <stop offset="0.916" stop-color="#fcfbf7"/>
      <stop offset="1" stop-color="#d7d7cf"/>
    </linearGradient>
    <linearGradient id="linear-gradient-6" x1="-0.097" y1="-0.003" x2="-0.092" y2="1.002" xlink:href="#linear-gradient-5"/>
    <linearGradient id="linear-gradient-7" x1="-1.923" y1="-4.002" x2="-1.91" y2="-3.771" gradientUnits="objectBoundingBox">
      <stop offset="0" stop-color="#e5e5e0"/>
      <stop offset="1" stop-color="#fff" stop-opacity="0"/>
    </linearGradient>
    <radialGradient id="radial-gradient" cx="0.581" cy="0.489" r="0.521" gradientTransform="matrix(1.152, 0.176, -0.192, 0.919, -1.092, -0.731)" gradientUnits="objectBoundingBox">
      <stop offset="0" stop-color="#dcdcd5"/>
      <stop offset="1" stop-color="#fff" stop-opacity="0"/>
    </radialGradient>
    <linearGradient id="linear-gradient-8" x1="0.791" y1="0.204" x2="0.224" y2="0.43" gradientUnits="objectBoundingBox">
      <stop offset="0" stop-color="#e3e3d9"/>
      <stop offset="0.5" stop-color="#fff"/>
      <stop offset="1" stop-color="#f9f9f4"/>
    </linearGradient>
  </defs>
  <g id="Group_20602" data-name="Group 20602" transform="translate(0 -1752.428)">
    <g id="Group_19010" data-name="Group 19010" transform="translate(1266 1785)">
      <path id="Path_48521" data-name="Path 48521" d="M0,925.921s56.758-19.815,79.119-57.97,210.831-121.73,193.262,23.068,84.652,96.357,59.1,167.878L0,1058.708Z" transform="translate(-1266 -622.897)" fill="url(#linear-gradient)"/>
      <path id="Path_48522" data-name="Path 48522" d="M848.571,908.342V882.779c0-51.746,81.5-86.919,154.7-66.46q1.647.46,3.311.949c106.545,31.3,80.719-125.278,164.535-125.034H1220V908.342Z" transform="translate(-565.997 -472.342)" fill="url(#linear-gradient-2)"/>
      <path id="Path_48523" data-name="Path 48523" d="M2229.537,236.009c-101.489,11.591-44.906-74.944-33.851-94.641,10.617-18.919-24.986-68.232-8.329-94.529s42.18-17.968,42.18-17.968Z" transform="translate(207.524 2196.965) rotate(-90)" fill="url(#linear-gradient-3)"/>
    </g>
    <g id="newspaper-154444" transform="matrix(0.899, -0.438, 0.438, 0.899, -370.39, 1198.98)">
      <path id="Path_45153" data-name="Path 45153" d="M1299.455,895.063v241.992h282.9l-.038-83.813a201.255,201.255,0,0,0-4.3-38.232c.137-37.728.636-75.624,1.295-115.686-22.39-1.11-49.134-1.457-75.512-1.409a66,66,0,0,0-6.74-2.856Z" transform="translate(-1278.7 -62.405)" opacity="0.75" fill="url(#linear-gradient-4)"/>
      <path id="Path_45154" data-name="Path 45154" d="M279.987,836.222c-1.321,80.31-2.008,152-.4,230.839l-166.576-24.988L85.434,837.132s120.834-4.559,194.545-.9Z" transform="translate(20.652 0.689)" fill="url(#linear-gradient-5)"/>
      <path id="Path_45155" data-name="Path 45155" d="M0,0H56.053V93.9H0Z" transform="matrix(1, 0.013, -0.013, 1, 232.927, 848.703)" fill="#efefef" opacity="0.75"/>
      <path id="Path_45156" data-name="Path 45156" d="M20.787,832.65v242h282.9V991.409c-4.931-81.442-51.362-136.561-85.3-158.752Z" transform="translate(0.01 0)" fill="url(#linear-gradient-6)"/>
      <path id="Path_45157" data-name="Path 45157" d="M154.74,832.65l103.653,171.51,2.513-1.523V991.4a223.4,223.4,0,0,0-7.2-44.476L192.553,845.749a145.912,145.912,0,0,0-16.945-13.1H154.74Z" transform="translate(42.782 0)" fill="url(#linear-gradient-7)"/>
      <path id="Path_45158" data-name="Path 45158" d="M181.873,834.81c-16.833,5.736-29.494,19.85-32.863,39.641-5.728,33.656,17.551,71.005,51.941,83.433,21.315,7.7,41.879,4.007,55.825-7.921-14.039-56.275-47.626-95.721-74.9-115.153Z" transform="translate(40.676 0.69)" fill="url(#radial-gradient)"/>
      <path id="Path_45159" data-name="Path 45159" d="M183.4,886.84h38.384" transform="translate(51.934 17.303)" fill="none" stroke="#716c61" stroke-linecap="round" stroke-width="1.385"/>
      <path id="Path_45161" data-name="Path 45161" d="M175.5,853.22h20.16v31.827H175.5Z" transform="translate(49.411 6.568)" opacity="0.35"/>
      <path id="Path_45162" data-name="Path 45162" d="M30.427,880.49H255.25v4.265H30.427Z" transform="translate(3.088 15.276)" fill="#716c61"/>
      <path id="Path_45163" data-name="Path 45163" d="M31.149,884.057v-1.975a6.563,6.563,0,0,0,2.475-.667q.738-.452.738-.785v-22.8a8.7,8.7,0,0,0-1.583-1.19,4.579,4.579,0,0,0-1.63-.595v-1.975h7.188a2.356,2.356,0,0,1,.583.059,1.275,1.275,0,0,1,.464.25,3.034,3.034,0,0,1,.512.559l.726.988,14.208,19.73V857.52a.641.641,0,0,0-.143-.345,1.509,1.509,0,0,0-.512-.4,5.419,5.419,0,0,0-.988-.393,11.049,11.049,0,0,0-1.571-.333v-1.975H61.851v1.975a6.877,6.877,0,0,0-2.463.69q-.75.452-.75.785v27.251a13.375,13.375,0,0,1-2.368-.369,11.033,11.033,0,0,1-1.88-.654,6.918,6.918,0,0,1-1.416-.857,5.245,5.245,0,0,1-.976-1L38.17,862.756V880.63a.612.612,0,0,0,.155.345,1.638,1.638,0,0,0,.535.4,5.927,5.927,0,0,0,.988.393,9.118,9.118,0,0,0,1.535.309v1.975Z" transform="translate(3.319 6.839)" fill="#716c61"/>
      <path id="Path_45164" data-name="Path 45164" d="M79.96,876.346q-.1,1.023-.214,2.225t-.262,2.309q-.143,1.107-.274,1.964t-.226,1.214H55.827v-1.975a10.626,10.626,0,0,0,2.416-.726q.8-.393.8-.726V857.52q0-.286-.75-.714a8.628,8.628,0,0,0-2.463-.762v-1.975H77.39l1.023.833q-.048.619-.143,1.618t-.238,2.047q-.143,1.047-.3,1.975a10.954,10.954,0,0,1-.3,1.381H75.414a12.148,12.148,0,0,0-.595-3.487q-.476-1.273-1.357-1.273H65.7v9.4h9.4l.857.9q-.19.333-.464.785t-.571.916q-.3.464-.595.845a2.953,2.953,0,0,1-.559.571,3.66,3.66,0,0,0-.773-.6,4.779,4.779,0,0,0-.952-.4,6.382,6.382,0,0,0-1.261-.238q-.726-.072-1.725-.071H65.7V879.44a1.188,1.188,0,0,0,.167.631,1.347,1.347,0,0,0,.69.476,6.176,6.176,0,0,0,1.476.309,23.587,23.587,0,0,0,2.523.107h2.118a5.213,5.213,0,0,0,1.868-.3,3.622,3.622,0,0,0,1.368-.94A6.779,6.779,0,0,0,77,878.083a23.553,23.553,0,0,0,.988-2.4Z" transform="translate(11.199 6.839)" fill="#716c61"/>
      <path id="Path_45165" data-name="Path 45165" d="M116.221,856.045q-1.047.214-1.737.4a8.251,8.251,0,0,0-1.095.369,2.153,2.153,0,0,0-.583.345.591.591,0,0,0-.2.357l-5.45,25.133a1.63,1.63,0,0,1-.547.869,4.084,4.084,0,0,1-.976.619,7.434,7.434,0,0,1-1.107.4q-.559.155-.916.226l-8.235-21.039-6.831,18.921a1.84,1.84,0,0,1-.607.857,4.476,4.476,0,0,1-1,.607,7.371,7.371,0,0,1-1.154.4q-.595.155-1.071.25l-6.188-27.06a1.455,1.455,0,0,0-.857-.976,9.418,9.418,0,0,0-2.428-.69v-1.975H87.352v1.975a11.151,11.151,0,0,0-1.8.3,2.9,2.9,0,0,0-.916.393.678.678,0,0,0-.309.464,1.864,1.864,0,0,0,.024.512l3.856,16.113L94.9,854.069h2.737l7.83,19.754,3.618-16.3a.511.511,0,0,0-.214-.5,2.421,2.421,0,0,0-.762-.381,10.582,10.582,0,0,0-1.19-.309l-1.5-.286v-1.975h10.805Z" transform="translate(17.397 6.839)" fill="#716c61"/>
      <path id="Path_45166" data-name="Path 45166" d="M129.382,875.257a7.649,7.649,0,0,1-.333,2.19,9.492,9.492,0,0,1-.988,2.2,9.93,9.93,0,0,1-1.666,2.047,10.386,10.386,0,0,1-2.38,1.678,13.957,13.957,0,0,1-3.082,1.142,15.706,15.706,0,0,1-3.808.428,14.7,14.7,0,0,1-2.047-.167q-1.166-.167-2.38-.464a21.526,21.526,0,0,1-2.368-.726,9.868,9.868,0,0,1-1.987-.976q-.119-.047-.19-.488a9.171,9.171,0,0,1-.1-1.107q-.024-.667-.024-1.5t.071-1.7q.071-.869.19-1.7a14.9,14.9,0,0,1,.286-1.5l1.928.119a14.973,14.973,0,0,0,1.321,2.618,10.651,10.651,0,0,0,1.737,2.106,7.889,7.889,0,0,0,2.082,1.4,5.546,5.546,0,0,0,2.332.512,7.731,7.731,0,0,0,2.035-.262,5.181,5.181,0,0,0,1.7-.8,3.856,3.856,0,0,0,1.166-1.357,4.2,4.2,0,0,0,.428-1.964,4.748,4.748,0,0,0-.643-2.511,6.918,6.918,0,0,0-1.7-1.88,14.016,14.016,0,0,0-2.416-1.487q-1.357-.667-2.773-1.333t-2.773-1.4a12.3,12.3,0,0,1-2.416-1.7,7.734,7.734,0,0,1-1.7-2.225,6.532,6.532,0,0,1-.643-3,5.093,5.093,0,0,1,.3-1.618,7.142,7.142,0,0,1,.9-1.761,9.456,9.456,0,0,1,1.535-1.7,10.1,10.1,0,0,1,2.19-1.452,13.182,13.182,0,0,1,2.88-1.012,15.713,15.713,0,0,1,3.594-.381,20.543,20.543,0,0,1,2.642.167,19.748,19.748,0,0,1,2.392.452,10.737,10.737,0,0,1,1.952.69,4.053,4.053,0,0,1,1.273.881q.119.1.059.464a5.66,5.66,0,0,1-.226.869q-.167.5-.416,1.083t-.524,1.119q-.274.535-.536.952a2.755,2.755,0,0,1-.452.583L124,860.644a7.625,7.625,0,0,0-1.142-2.035,6.447,6.447,0,0,0-1.416-1.321,5.046,5.046,0,0,0-1.523-.7,5.708,5.708,0,0,0-1.44-.2,5.889,5.889,0,0,0-1.952.286,3.758,3.758,0,0,0-1.333.773,2.932,2.932,0,0,0-.762,1.118,3.646,3.646,0,0,0-.238,1.3,3.265,3.265,0,0,0,.654,2,7.222,7.222,0,0,0,1.725,1.618,21.341,21.341,0,0,0,2.428,1.428l2.785,1.38q1.428.714,2.785,1.547A13.427,13.427,0,0,1,127,869.724a8.675,8.675,0,0,1,1.725,2.416,7.091,7.091,0,0,1,.654,3.118Z" transform="translate(27.869 6.667)" fill="#716c61"/>
      <path id="Path_45171" data-name="Path 45171" d="M82.481,960.75H165.2" transform="translate(19.709 40.903)" fill="none" stroke="#716c61" stroke-linecap="round" stroke-width="2.247"/>
      <path id="Path_45172" data-name="Path 45172" d="M81.241,896.2H204.619v81.033H81.241Z" transform="translate(19.314 20.292)" fill="#a3c093"/>
      <path id="Path_45173" data-name="Path 45173" d="M81.241,896.2H204.619v53.312s-25.275,4.989-32.919,2.742-30.873,17.691-41.467,14.16-12.732-14.931-24.639-15.683S81.241,961.7,81.241,961.7Z" transform="translate(19.314 20.292)" fill="#bedaae"/>
      <path id="Path_45174" data-name="Path 45174" d="M81.241,896.2H204.619v43.983s-17.584-13.548-27.936-13.57c-14.259-.03-24.423,16.647-38.558,18.526-13.248,1.76-26.059-7-39.421-7.324-5.873-.143-17.464,2.369-17.464,2.369Z" transform="translate(19.313 20.292)" fill="#b3b3b3"/>
      <path id="Path_45175" data-name="Path 45175" d="M81.241,896.2H204.619V928s-1.3-11.788-5.88-13.813c-7.327-3.243-15.264,4.923-22.7,7.9-6.276,2.516-11.718,7.9-18.461,8.407-6.277.471-12.161-7.083-18.159-5.176-4.155,1.321-4.09,8.73-8.2,10.192-7.6,2.7-15.966-2.611-23.658-5.027-7.221-2.268-13.4-9.682-20.92-8.827-2.207.251-5.4,3.9-5.4,3.9Z" transform="translate(19.314 20.292)" fill="#f2f2f2"/>
      <path id="Path_45176" data-name="Path 45176" d="M81.241,896.2H204.619v26.923s-1.847-9.98-5.88-11.376c-7.858-2.719-14.949,7.333-22.7,10.341-6.029,2.339-12,6.243-18.461,5.97-6.558-.276-11.8-9.226-18.159-7.613-4.226,1.071-4.259,8.321-8.2,10.192-7.123,3.384-16.018,1.8-23.658-.153-7.673-1.961-20.92-11.264-20.92-11.264l-5.4,1.465Z" transform="translate(19.314 20.292)" fill="#dae5eb"/>
      <path id="Path_45177" data-name="Path 45177" d="M32.737,886.84H71.121" transform="translate(3.826 17.303)" fill="none" stroke="#716c61" stroke-linecap="round" stroke-width="1.385"/>
      <path id="Path_45213" data-name="Path 45213" d="M32.737,886.84H71.121" transform="translate(17.019 31.816)" fill="none" stroke="#716c61" stroke-linecap="round" stroke-width="1.385"/>
      <path id="Path_45250" data-name="Path 45250" d="M32.737,887.03H65.43" transform="translate(218.873 31.626)" fill="none" stroke="#716c61" stroke-linecap="round" stroke-width="1.385"/>
      <path id="Path_45214" data-name="Path 45214" d="M32.737,886.84H71.121" transform="translate(17.019 38.412)" fill="none" stroke="#716c61" stroke-linecap="round" stroke-width="1.385"/>
      <path id="Path_45249" data-name="Path 45249" d="M32.737,886.84H71.121" transform="translate(218.873 38.412)" fill="none" stroke="#716c61" stroke-linecap="round" stroke-width="1.385"/>
      <path id="Path_45215" data-name="Path 45215" d="M32.737,886.84H71.121" transform="translate(17.019 45.009)" fill="none" stroke="#716c61" stroke-linecap="round" stroke-width="1.385"/>
      <path id="Path_45248" data-name="Path 45248" d="M32.737,886.84H71.121" transform="translate(218.873 45.009)" fill="none" stroke="#716c61" stroke-linecap="round" stroke-width="1.385"/>
      <path id="Path_45216" data-name="Path 45216" d="M32.737,886.84H89.591" transform="translate(-1.451 52.925)" fill="none" stroke="#716c61" stroke-linecap="round" stroke-width="1.385"/>
      <path id="Path_45247" data-name="Path 45247" d="M32.737,886.84H89.591" transform="translate(200.403 52.925)" fill="none" stroke="#716c61" stroke-linecap="round" stroke-width="1.385"/>
      <path id="Path_45217" data-name="Path 45217" d="M32.737,886.84H89.591" transform="translate(-1.451 60.84)" fill="none" stroke="#716c61" stroke-linecap="round" stroke-width="1.385"/>
      <path id="Path_45246" data-name="Path 45246" d="M32.737,886.84H89.591" transform="translate(200.403 60.84)" fill="none" stroke="#716c61" stroke-linecap="round" stroke-width="1.385"/>
      <path id="Path_45218" data-name="Path 45218" d="M32.737,886.84H89.591" transform="translate(-1.451 68.756)" fill="none" stroke="#716c61" stroke-linecap="round" stroke-width="1.385"/>
      <path id="Path_45245" data-name="Path 45245" d="M32.737,886.84H89.591" transform="translate(200.403 68.756)" fill="none" stroke="#716c61" stroke-linecap="round" stroke-width="1.385"/>
      <path id="Path_45219" data-name="Path 45219" d="M32.737,886.84H89.591" transform="translate(-1.451 76.672)" fill="none" stroke="#716c61" stroke-linecap="round" stroke-width="1.385"/>
      <path id="Path_45244" data-name="Path 45244" d="M32.737,886.84H89.591" transform="translate(200.403 76.672)" fill="none" stroke="#716c61" stroke-linecap="round" stroke-width="1.385"/>
      <path id="Path_45220" data-name="Path 45220" d="M32.737,886.84H89.591" transform="translate(-1.451 84.588)" fill="none" stroke="#716c61" stroke-linecap="round" stroke-width="1.385"/>
      <path id="Path_45243" data-name="Path 45243" d="M32.737,886.84H89.591" transform="translate(200.403 84.588)" fill="none" stroke="#716c61" stroke-linecap="round" stroke-width="1.385"/>
      <path id="Path_45221" data-name="Path 45221" d="M32.737,886.84H89.591" transform="translate(-1.451 92.504)" fill="none" stroke="#716c61" stroke-linecap="round" stroke-width="1.385"/>
      <path id="Path_45242" data-name="Path 45242" d="M32.737,886.84H89.591" transform="translate(200.403 92.504)" fill="none" stroke="#716c61" stroke-linecap="round" stroke-width="1.385"/>
      <path id="Path_45222" data-name="Path 45222" d="M32.737,886.84H89.591" transform="translate(-1.451 100.42)" fill="none" stroke="#716c61" stroke-linecap="round" stroke-width="1.385"/>
      <path id="Path_45241" data-name="Path 45241" d="M32.737,886.84H89.591" transform="translate(200.403 100.42)" fill="none" stroke="#716c61" stroke-linecap="round" stroke-width="1.385"/>
      <path id="Path_45223" data-name="Path 45223" d="M32.737,886.84H89.591" transform="translate(-1.451 108.335)" fill="none" stroke="#716c61" stroke-linecap="round" stroke-width="1.385"/>
      <path id="Path_45240" data-name="Path 45240" d="M32.737,886.84H89.591" transform="translate(200.403 108.335)" fill="none" stroke="#716c61" stroke-linecap="round" stroke-width="1.385"/>
      <path id="Path_45224" data-name="Path 45224" d="M32.737,886.84H89.591" transform="translate(-1.451 116.251)" fill="none" stroke="#716c61" stroke-linecap="round" stroke-width="1.385"/>
      <path id="Path_45239" data-name="Path 45239" d="M32.737,886.84H89.591" transform="translate(200.403 116.251)" fill="none" stroke="#716c61" stroke-linecap="round" stroke-width="1.385"/>
      <path id="Path_45251" data-name="Path 45251" d="M32.737,886.84H89.591" transform="translate(200.403 124.167)" fill="none" stroke="#716c61" stroke-linecap="round" stroke-width="1.385"/>
      <path id="Path_45252" data-name="Path 45252" d="M32.737,886.84H89.591" transform="translate(200.403 132.083)" fill="none" stroke="#716c61" stroke-linecap="round" stroke-width="1.385"/>
      <path id="Path_45253" data-name="Path 45253" d="M32.737,886.84H89.591" transform="translate(200.403 139.999)" fill="none" stroke="#716c61" stroke-linecap="round" stroke-width="1.385"/>
      <path id="Path_45254" data-name="Path 45254" d="M32.737,886.84H73.76" transform="translate(216.234 150.027)" fill="none" stroke="#716c61" stroke-linecap="round" stroke-width="1.385"/>
      <path id="Path_45255" data-name="Path 45255" d="M32.737,886.84H73.76" transform="translate(216.234 156.624)" fill="none" stroke="#716c61" stroke-linecap="round" stroke-width="1.385"/>
      <path id="Path_45256" data-name="Path 45256" d="M32.737,886.84H73.76" transform="translate(216.234 163.22)" fill="none" stroke="#716c61" stroke-linecap="round" stroke-width="1.385"/>
      <path id="Path_45257" data-name="Path 45257" d="M32.737,886.84H89.356" transform="translate(200.637 169.817)" fill="none" stroke="#716c61" stroke-linecap="round" stroke-width="1.385"/>
      <path id="Path_45225" data-name="Path 45225" d="M32.737,886.84H89.591" transform="translate(-1.451 124.167)" fill="none" stroke="#716c61" stroke-linecap="round" stroke-width="1.385"/>
      <path id="Path_45226" data-name="Path 45226" d="M32.737,886.84H89.591" transform="translate(-1.451 132.083)" fill="none" stroke="#716c61" stroke-linecap="round" stroke-width="1.385"/>
      <path id="Path_45227" data-name="Path 45227" d="M32.737,886.84H89.591" transform="translate(-1.451 139.999)" fill="none" stroke="#716c61" stroke-linecap="round" stroke-width="1.385"/>
      <path id="Path_45228" data-name="Path 45228" d="M32.737,886.84H89.591" transform="translate(-1.451 147.915)" fill="none" stroke="#716c61" stroke-linecap="round" stroke-width="1.385"/>
      <path id="Path_45229" data-name="Path 45229" d="M32.737,886.84H89.591" transform="translate(-1.451 155.83)" fill="none" stroke="#716c61" stroke-linecap="round" stroke-width="1.385"/>
      <path id="Path_45230" data-name="Path 45230" d="M32.737,886.84H89.591" transform="translate(-1.451 163.746)" fill="none" stroke="#716c61" stroke-linecap="round" stroke-width="1.385"/>
      <path id="Path_45231" data-name="Path 45231" d="M32.737,886.84H89.591" transform="translate(-1.451 171.662)" fill="none" stroke="#716c61" stroke-linecap="round" stroke-width="1.385"/>
      <path id="Path_45232" data-name="Path 45232" d="M32.737,886.84H155.46" transform="translate(68.472 121.528)" fill="none" stroke="#716c61" stroke-linecap="round" stroke-width="1.385"/>
      <path id="Path_45233" data-name="Path 45233" d="M32.737,886.84H155.46" transform="translate(68.472 129.444)" fill="none" stroke="#716c61" stroke-linecap="round" stroke-width="1.385"/>
      <path id="Path_45234" data-name="Path 45234" d="M32.737,886.84H155.46" transform="translate(68.472 137.36)" fill="none" stroke="#716c61" stroke-linecap="round" stroke-width="1.385"/>
      <path id="Path_45235" data-name="Path 45235" d="M32.737,886.84H155.46" transform="translate(68.472 145.276)" fill="none" stroke="#716c61" stroke-linecap="round" stroke-width="1.385"/>
      <path id="Path_45236" data-name="Path 45236" d="M32.737,886.84H155.46" transform="translate(68.472 153.192)" fill="none" stroke="#716c61" stroke-linecap="round" stroke-width="1.385"/>
      <path id="Path_45237" data-name="Path 45237" d="M32.737,886.84H155.46" transform="translate(68.472 161.108)" fill="none" stroke="#716c61" stroke-linecap="round" stroke-width="1.385"/>
      <path id="Path_45238" data-name="Path 45238" d="M32.737,886.84H155.46" transform="translate(68.472 169.023)" fill="none" stroke="#716c61" stroke-linecap="round" stroke-width="1.385"/>
      <path id="Path_45178" data-name="Path 45178" d="M32.737,890.08h19.8" transform="translate(3.826 18.338)" fill="none" stroke="#716c61" stroke-linecap="round" stroke-width="1.385"/>
      <path id="Path_45179" data-name="Path 45179" d="M168.2,960.75h7.168" transform="translate(47.08 40.903)" fill="none" stroke="#716c61" stroke-linecap="round" stroke-width="2.247"/>
      <path id="Path_45182" data-name="Path 45182" d="M45.691,904.748a12.177,12.177,0,0,1-.347,3.044,9.171,9.171,0,0,1-.953,2.37,7.128,7.128,0,0,1-1.417,1.744,7.825,7.825,0,0,1-1.743,1.171,8.267,8.267,0,0,1-1.934.667,9.513,9.513,0,0,1-1.968.211H29.169v-1.13a6.079,6.079,0,0,0,1.382-.415q.456-.225.456-.416V898.333l-1.839.259-.191-1.389q.695-.164,1.662-.313t2.023-.266q1.056-.116,2.125-.177t1.982-.061a11.828,11.828,0,0,1,3.814.565,7.542,7.542,0,0,1,2.8,1.641,6.923,6.923,0,0,1,1.723,2.629,9.944,9.944,0,0,1,.586,3.528Zm-9.943-6.81-.456.007c-.159,0-.316.012-.47.021v13.4a3,3,0,0,0,.027.422.489.489,0,0,0,.211.327,1.447,1.447,0,0,0,.579.211,6.364,6.364,0,0,0,1.117.075,3.794,3.794,0,0,0,1.587-.395,4.613,4.613,0,0,0,1.573-1.253,7.145,7.145,0,0,0,1.205-2.206,9.732,9.732,0,0,0,.484-3.269,8.64,8.64,0,0,0-1.485-5.489,5.269,5.269,0,0,0-4.372-1.852Z" transform="translate(2.626 20.351)" fill="#716c61"/>
      <path id="Path_45184" data-name="Path 45184" d="M181.438,1003.6v-1.13a6.086,6.086,0,0,0,1.382-.415q.456-.225.456-.416V988.416q0-.164-.429-.409a4.946,4.946,0,0,0-1.41-.436v-1.13h12.476l.558.477q-.014.354-.068.926t-.129,1.171q-.075.6-.163,1.13a6.273,6.273,0,0,1-.17.79h-1.185a6.313,6.313,0,0,0-.32-2q-.279-.729-.8-.729H187.09v5.38h4.958l.531.517q-.123.245-.286.511t-.34.511q-.177.245-.347.45a2.245,2.245,0,0,1-.306.313,2.2,2.2,0,0,0-.436-.341,2.553,2.553,0,0,0-.538-.231,3.656,3.656,0,0,0-.722-.136q-.415-.041-.987-.041H187.09v6.5a.26.26,0,0,0,.1.177,1.2,1.2,0,0,0,.354.2,6.018,6.018,0,0,0,.688.218q.436.116,1.1.238v1.13Z" transform="translate(51.307 49.106)" fill="#716c61"/>
      <path id="Path_45186" data-name="Path 45186" d="M170.56,832.65c46.851,16.862,85.714,94.217,85.3,161.483-9.19-61.751-26.734-96.059-75.724-91.391,7.05-29.738,4.587-56.885-9.574-70.085Z" transform="translate(47.834 0)" fill="url(#linear-gradient-8)"/>
      <path id="Path_45187" data-name="Path 45187" d="M196.38,897.005q.068.054.007.279a4.741,4.741,0,0,1-.2.552q-.136.327-.327.7t-.388.715q-.2.341-.375.606a2.031,2.031,0,0,1-.3.375l-.994-.218a8.609,8.609,0,0,0-.9-1.239,4.557,4.557,0,0,0-.926-.81,3.5,3.5,0,0,0-.981-.443,4.109,4.109,0,0,0-1.076-.136,2.643,2.643,0,0,0-.776.136,3.365,3.365,0,0,0-.9.456,4.554,4.554,0,0,0-.9.844,5.491,5.491,0,0,0-.783,1.321,9.075,9.075,0,0,0-.558,1.873,13.059,13.059,0,0,0-.211,2.493,10.521,10.521,0,0,0,.395,3.078,6.145,6.145,0,0,0,1.062,2.1,4.207,4.207,0,0,0,1.525,1.205,4.316,4.316,0,0,0,1.8.388,5.613,5.613,0,0,0,1.165-.109,4.573,4.573,0,0,0,.933-.3v-4.018a1.29,1.29,0,0,0-.034-.293.519.519,0,0,0-.218-.279,2.229,2.229,0,0,0-.586-.272,8.556,8.556,0,0,0-1.151-.272v-1.131h6.96v1.131a3.072,3.072,0,0,0-.64.218,1.51,1.51,0,0,0-.395.272.824.824,0,0,0-.2.306.968.968,0,0,0-.055.32v3.964a15.754,15.754,0,0,1-1.907,1.369,11.6,11.6,0,0,1-1.7.851,7.65,7.65,0,0,1-2.826.558,8.967,8.967,0,0,1-2-.225,8.022,8.022,0,0,1-1.88-.681,7.419,7.419,0,0,1-1.648-1.151,7.16,7.16,0,0,1-1.308-1.621,8.25,8.25,0,0,1-.865-2.091,9.869,9.869,0,0,1-.313-2.568,10.673,10.673,0,0,1,.729-4.052,8.762,8.762,0,0,1,2.016-3.037,8.65,8.65,0,0,1,3.051-1.9,10.947,10.947,0,0,1,3.834-.654,7.716,7.716,0,0,1,1.1.1,12.531,12.531,0,0,1,1.328.272,11.085,11.085,0,0,1,1.328.436,4.723,4.723,0,0,1,1.083.586Z" transform="translate(51.459 20.105)" fill="#716c61"/>
      <path id="Path_45188" data-name="Path 45188" d="M84.349,885.961a2.95,2.95,0,0,0-.609.076,3.242,3.242,0,0,0-.457.152c-.082.031-.15.077-.228.115a2.917,2.917,0,0,0-.343.152l-.152.114c-.057.042-.136.07-.19.115-.069.058-.127.126-.19.19s-.134.124-.19.191a3.056,3.056,0,0,0-.19.266,3.1,3.1,0,0,0-.228.419c-.035.076-.084.15-.115.229l-.038.076a3.409,3.409,0,0,0-.115.419v.038a2.947,2.947,0,0,0-.076.571,3.152,3.152,0,0,0,.838,2.094l.076.076c.05.052.1.1.152.152a3.031,3.031,0,0,0,.3.229,3.2,3.2,0,0,0,.3.19l.19.115a3.038,3.038,0,0,0,.381.114l.228.076a2.977,2.977,0,0,0,.647.076,2.877,2.877,0,0,0,.647-.076,3.022,3.022,0,0,0,1.1-.457c.027-.018.05-.056.076-.076a3.14,3.14,0,0,0,1.1-3.618c-.029-.078-.078-.153-.115-.229a3.118,3.118,0,0,0-.99-1.18l-.152-.115a2.953,2.953,0,0,0-.343-.152,3,3,0,0,0-.685-.267,3.339,3.339,0,0,0-.647-.076Zm31.606,0a3.327,3.327,0,0,0-.647.076,3.118,3.118,0,0,0,.647,6.169,2.87,2.87,0,0,0,.762-.115,3.39,3.39,0,0,0,.685-.267,3.1,3.1,0,0,0,.038-5.484c-.012-.012-.028,0-.038,0a3.279,3.279,0,0,0-.533-.19c-.051-.016-.1-.062-.152-.076a2.966,2.966,0,0,0-.762-.115Zm32.977,0a2.95,2.95,0,0,0-.609.076,3.242,3.242,0,0,0-.457.152c-.082.031-.15.077-.228.115a2.922,2.922,0,0,0-.343.152l-.152.114c-.057.042-.136.07-.19.115-.069.058-.127.126-.19.19s-.134.124-.19.191a3.059,3.059,0,0,0-.19.266,3.1,3.1,0,0,0-.228.419c-.035.076-.084.15-.115.229l-.038.076a3.194,3.194,0,0,0-.115.419v.038a2.949,2.949,0,0,0-.076.571,3.152,3.152,0,0,0,.838,2.094l.076.076c.05.052.1.1.152.152a3.029,3.029,0,0,0,.3.229,3.2,3.2,0,0,0,.3.19l.19.115a3.04,3.04,0,0,0,.381.114l.228.076a2.977,2.977,0,0,0,.647.076,2.877,2.877,0,0,0,.647-.076,3.022,3.022,0,0,0,1.1-.457c.027-.018.05-.056.076-.076a3.14,3.14,0,0,0,1.1-3.618c-.029-.078-.078-.153-.115-.229a3.118,3.118,0,0,0-.99-1.18l-.152-.115a2.952,2.952,0,0,0-.343-.152,3,3,0,0,0-.685-.267,3.339,3.339,0,0,0-.647-.076Zm31.606,0a3.122,3.122,0,1,0,0,6.245,2.875,2.875,0,0,0,.762-.115,3.1,3.1,0,0,0,.724-5.75,3.314,3.314,0,0,0-.571-.19c-.051-.016-.1-.062-.152-.076a2.965,2.965,0,0,0-.762-.115Z" transform="translate(19.309 17.022)" fill="none" stroke="#716c61" stroke-width="0.462"/>
      <path id="Path_45189" data-name="Path 45189" d="M89.323,888h14.014" transform="translate(21.894 17.674)" fill="none" stroke="#716c61" stroke-linecap="round" stroke-width="1.385"/>
      <path id="Path_45190" data-name="Path 45190" d="M111.421,889.086a3.123,3.123,0,1,1-3.123-3.123A3.123,3.123,0,0,1,111.421,889.086Z" transform="translate(26.956 17.023)" fill="#330080" opacity="0.25"/>
      <path id="Path_45191" data-name="Path 45191" d="M108.3,885.96a3.123,3.123,0,1,0,1.447,5.864,2.742,2.742,0,0,1,.038-5.484,3.1,3.1,0,0,0-1.485-.381Z" transform="translate(26.955 17.022)" fill="#d4aa00" opacity="0.25"/>
      <path id="Path_45192" data-name="Path 45192" d="M110.284,888.5l-.874-.083-.382.791-.191-.857-.87-.119.756-.446-.156-.864.658.581.774-.415-.35.806Z" transform="translate(27.847 17.33)" fill="#fae17a" opacity="0.25"/>
      <path id="Path_45193" data-name="Path 45193" d="M108.23,889.866l-.3-.344-.426.158.236-.388-.282-.356.442.1.252-.378.037.453.437.122-.419.175Z" transform="translate(27.686 17.885)" fill="#fae17a" opacity="0.25"/>
      <path id="Path_45194" data-name="Path 45194" d="M113.34,888h10.205" transform="translate(29.563 17.674)" fill="none" stroke="#716c61" stroke-linecap="round" stroke-width="1.385"/>
      <path id="Path_45195" data-name="Path 45195" d="M123.04,888h2.742" transform="translate(32.66 17.674)" fill="none" stroke="#716c61" stroke-linecap="round" stroke-width="1.385"/>
      <path id="Path_45196" data-name="Path 45196" d="M87.486,889.086a3.123,3.123,0,1,1-3.123-3.123A3.123,3.123,0,0,1,87.486,889.086Z" transform="translate(19.314 17.023)" fill="#5f8dd3" opacity="0.25"/>
      <path id="Path_45197" data-name="Path 45197" d="M84.345,885.98a3.089,3.089,0,0,0-3.046,2.513h6.093a3.089,3.089,0,0,0-3.046-2.513Z" transform="translate(19.332 17.029)" fill="#fc0" opacity="0.25"/>
      <path id="Path_45198" data-name="Path 45198" d="M85.831,888.432a1.371,1.371,0,1,1-1.371-1.371,1.371,1.371,0,0,1,1.371,1.371Z" transform="translate(19.904 17.374)" fill="#fff6d5" opacity="0.25"/>
      <path id="Path_45199" data-name="Path 45199" d="M81.862,889.915a3.036,3.036,0,0,0,2.285,1.028,3.087,3.087,0,0,0,2.285-1.028h-4.57Z" transform="translate(19.512 18.285)" fill="#2ca02c" opacity="0.25"/>
      <path id="Path_45200" data-name="Path 45200" d="M138.28,888h14.014" transform="translate(37.526 17.674)" fill="none" stroke="#716c61" stroke-linecap="round" stroke-width="1.385"/>
      <path id="Path_45201" data-name="Path 45201" d="M162.29,888H172.5" transform="translate(45.193 17.674)" fill="none" stroke="#716c61" stroke-linecap="round" stroke-width="1.385"/>
      <path id="Path_45202" data-name="Path 45202" d="M171.99,888h2.742" transform="translate(48.29 17.674)" fill="none" stroke="#716c61" stroke-linecap="round" stroke-width="1.385"/>
      <path id="Path_45203" data-name="Path 45203" d="M136.441,889.086a3.123,3.123,0,1,1-3.123-3.123,3.123,3.123,0,0,1,3.123,3.123Z" transform="translate(34.945 17.023)" fill="#5f8dd3" opacity="0.25"/>
      <path id="Path_45204" data-name="Path 45204" d="M133.3,885.98a3.089,3.089,0,0,0-3.046,2.513h6.093a3.089,3.089,0,0,0-3.046-2.513Z" transform="translate(34.963 17.029)" fill="#fc0" opacity="0.25"/>
      <path id="Path_45205" data-name="Path 45205" d="M134.784,888.432a1.371,1.371,0,1,1-1.371-1.371,1.371,1.371,0,0,1,1.371,1.371Z" transform="translate(35.535 17.374)" fill="#fff6d5" opacity="0.25"/>
      <path id="Path_45206" data-name="Path 45206" d="M130.814,889.915a3.036,3.036,0,0,0,2.285,1.028,3.087,3.087,0,0,0,2.285-1.028Z" transform="translate(35.143 18.285)" fill="#2ca02c" opacity="0.25"/>
      <path id="Path_45207" data-name="Path 45207" d="M160.371,889.086a3.123,3.123,0,1,1-3.123-3.123,3.123,3.123,0,0,1,3.123,3.123Z" transform="translate(42.586 17.023)" fill="#330080" opacity="0.25"/>
      <path id="Path_45208" data-name="Path 45208" d="M157.246,885.96a3.123,3.123,0,1,0,1.447,5.864,2.742,2.742,0,0,1,.038-5.484,3.1,3.1,0,0,0-1.485-.381Z" transform="translate(42.585 17.022)" fill="#d4aa00" opacity="0.25"/>
      <path id="Path_45209" data-name="Path 45209" d="M159.236,888.5l-.874-.083-.382.791-.191-.857-.87-.119.756-.446-.156-.864.658.581.774-.415-.35.806Z" transform="translate(43.478 17.33)" fill="#fae17a" opacity="0.25"/>
      <path id="Path_45210" data-name="Path 45210" d="M157.182,889.866l-.3-.344-.426.158.236-.388-.282-.356.442.1.251-.378.037.453.437.122-.419.175Z" transform="translate(43.317 17.885)" fill="#fae17a" opacity="0.25"/>
      <path id="Path_45211" data-name="Path 45211" d="M193.71,847.98c1.871,12.927,1.848,17.183,1.789,20.544a1.49,1.49,0,1,0,2.97.228c.277-3.71.123-5.313-1.294-17.155-1.155-1.23-2.285-2.457-3.465-3.618Zm7.5,8.073c1.164,11.014.838,7.832.8,13.729a1.483,1.483,0,1,0,2.932.3c.985-9.325.371-.327-.418-10.034q-1.634-2.045-3.313-4Zm7.311,9.139c.5,5.27.252,5.257-.153,7.1a1.482,1.482,0,1,0,2.818.876c.245-1.346,1.071-1.476.687-3.18q-1.649-2.444-3.351-4.8Zm6.74,10.053a93.408,93.408,0,0,1-1.752,18.354,1.482,1.482,0,1,0,2.894.571,96.627,96.627,0,0,0,1.714-14.28c-.933-1.575-1.89-3.117-2.856-4.646Zm5.407,9.025a68.8,68.8,0,0,1-1.333,13.443,1.5,1.5,0,1,0,2.932.609,68.772,68.772,0,0,0,1.219-8.8c-.923-1.774-1.854-3.528-2.818-5.255Zm4.8,9.177a88.076,88.076,0,0,1-.3,10.053,1.491,1.491,0,1,0,2.97.266c.127-1.372.208-2.752.267-4.151q-1.424-3.125-2.932-6.169Zm5.1,11.081c-.065,1.33-.116,2.711-.19,4a1.57,1.57,0,0,0,2.361,1.257c-.7-1.769-1.428-3.514-2.171-5.255Z" transform="translate(55.226 4.895)" fill="#716c61" opacity="0.75"/>
      <path id="Path_45212" data-name="Path 45212" d="M210,887.951l-1.119-.162a6.081,6.081,0,0,0-.213-1.427q-.158-.484-.346-.511c-3.979-1.866-8.288-3.565-13.089-2.693-.107-.016-.263.106-.466.366a4.942,4.942,0,0,0-.633,1.333l-1.119-.162a44.816,44.816,0,0,0,1.071-7.414l1.119.162a5.824,5.824,0,0,0,.22,1.429q.164.485.353.512c1.855-.137,3.711.6,5.566.737l.954-6.605c-1.856-.166-3.711-.835-5.567-.737-.107-.016-.263.106-.466.366a4.949,4.949,0,0,0-.633,1.333l-1.119-.162c.776-1.634,1.12-4.131,1.071-7.414l1.119.162a5.815,5.815,0,0,0,.22,1.429q.164.485.353.512c4.237-.253,8.578,1.025,13.09,2.693.107.016.261-.107.459-.367a5.128,5.128,0,0,0,.626-1.334l1.119.162c-.391,3.226-.634,4.666-1.071,7.414l-1.119-.162a6.089,6.089,0,0,0-.213-1.428q-.157-.484-.346-.511a20.214,20.214,0,0,0-5.77-1.7l-.954,6.605a15.863,15.863,0,0,1,5.77,1.7c.107.016.261-.1.458-.36a5.035,5.035,0,0,0,.627-1.341l1.119.162c-.012,1.046-.625,4.877-1.071,7.414Z" transform="translate(55.005 10.937)" fill="#716c61" opacity="0.75"/>
    </g>
  </g>
</svg>
