<svg xmlns="http://www.w3.org/2000/svg" width="48" height="44" viewBox="0 0 48 44">
  <path id="Shape" d="M24,44a13.113,13.113,0,0,1-6.558-1.765A11.7,11.7,0,0,1,13.124,38H4.41A24.372,24.372,0,0,1,0,24a24.006,24.006,0,0,1,46.114-9.342A23.848,23.848,0,0,1,48,24a24.373,24.373,0,0,1-4.41,14H34.876a11.7,11.7,0,0,1-4.318,4.235A13.111,13.111,0,0,1,24,44ZM24,4A20.023,20.023,0,0,0,4,24,20.409,20.409,0,0,0,6.606,34H15.46a10.276,10.276,0,0,0,2.586,3.785A8.593,8.593,0,0,0,24,40a8.6,8.6,0,0,0,5.931-2.215A10.214,10.214,0,0,0,32.54,34h8.853A20.41,20.41,0,0,0,44,24,20.023,20.023,0,0,0,24,4Zm.041,31.22a4.686,4.686,0,0,1-2.265-8.788l2.265-10.618,2.266,10.618a4.685,4.685,0,0,1-2.266,8.788ZM12.852,21.914h0L7.912,19.782a18.185,18.185,0,0,1,1-2.5l4.94,2.132a12.371,12.371,0,0,0-1,2.5Zm22.328-.182h0a12.345,12.345,0,0,0-1.034-2.483l4.908-2.212a17.842,17.842,0,0,1,1.032,2.484l-4.9,2.212Zm-2.038-4.02h0A12,12,0,0,0,31.3,15.8l3.782-3.936a17.246,17.246,0,0,1,1.836,1.914l-3.779,3.935Zm-18.2,0h0L11.16,13.776A17.3,17.3,0,0,1,13,11.862l3.78,3.936a12,12,0,0,0-1.835,1.913Zm3.428-3.028h0L16.3,9.548A16.543,16.543,0,0,1,18.7,8.5l2.066,5.138a11.372,11.372,0,0,0-2.395,1.046Zm11.3-.024h0a11.151,11.151,0,0,0-2.4-1.037L29.32,8.476a16.649,16.649,0,0,1,2.4,1.038l-2.045,5.145Zm-6.931-1.436h0V7.656c.446-.035.884-.052,1.3-.052s.852.018,1.3.052v5.566a11.6,11.6,0,0,0-1.3-.074,11.473,11.473,0,0,0-1.3.076Z" fill="#333"/>
</svg>
