<svg xmlns="http://www.w3.org/2000/svg" width="314" height="116.159" viewBox="0 0 314 116.159">
    <defs>
        <radialGradient id="prefix__radial-gradient" cx=".953" cy="-13.949" r="34.432" gradientTransform="matrix(-.027 0 0 1 -.829 0)" gradientUnits="objectBoundingBox">
            <stop offset="0" stop-color="#8a939f"/>
            <stop offset=".002" stop-color="#b7bec7"/>
            <stop offset="1" stop-color="#8a939f"/>
        </radialGradient>
        <style>
            .prefix__cls-1{fill:#d1c38e}.prefix__cls-2{fill:#e9d6b8}.prefix__cls-3{fill:#e2c59c}.prefix__cls-4{fill:#d3a09d}.prefix__cls-5{fill:#d57872}.prefix__cls-6{fill:#0e6c75}.prefix__cls-7{fill:#b7bec7}.prefix__cls-8{fill:#001f46}.prefix__cls-9{fill:#367082}.prefix__cls-10{fill:#b4d0be}.prefix__cls-11{fill:#5a867c}.prefix__cls-12{fill:#4d6882}.prefix__cls-13{fill:#7792aa}.prefix__cls-19{fill:#b4c0c7}.prefix__cls-23{fill:#8a939f}.prefix__cls-26{fill:#161711}.prefix__cls-27{fill:#64321b}.prefix__cls-31{fill:#2c5b6a}.prefix__cls-32{fill:#2e4354}
        </style>
    </defs>
    <g id="prefix__Group_20925" data-name="Group 20925" transform="translate(-31 -5529.843)">
        <path id="prefix__Rectangle_16423" d="M0 0H314V89H0z" class="prefix__cls-1" data-name="Rectangle 16423" transform="translate(31 5545)"/>
        <g id="prefix__Group_19854" data-name="Group 19854" transform="translate(7651 15422.12)">
            <g id="prefix__Group_19848" data-name="Group 19848" transform="translate(-7476.079 -9892.277)">
                <g id="prefix__Group_13494" data-name="Group 13494">
                    <path id="prefix__Path_35571" d="M3675.225 539.331l-.439-5.629a4.257 4.257 0 0 0-3.569-1.7c-2.6.2-4.481 3.175-4.212 6.638s2.592 6.106 5.19 5.9c1.815-.142 3.282-1.64 3.908-3.713a2.032 2.032 0 0 1-.878-1.496z" class="prefix__cls-1" data-name="Path 35571" transform="translate(-3653.902 -531.991)"/>
                    <path id="prefix__Path_35572" d="M3656.072 544.127c-.157.885.726 1.78 1.975 2l2.842.505c1.249.221 2.386-.317 2.543-1.2l1.43-8.066c.158-.885-.725-1.781-1.973-2l-2.845-.5c-1.246-.223-2.385.316-2.542 1.2z" class="prefix__cls-1" data-name="Path 35572" transform="translate(-3645.173 -534.242)"/>
                    <path id="prefix__Path_35573" d="M3661.286 578.006c1.649.847 2.515.673 1.181 1.135-.675.723-8.58-.867-8.949-1.885-.062-.171 3.207-.433 3.234-.555a10.272 10.272 0 0 0 .156-4.262.24.24 0 0 1 .227-.209c.6.056 1.211.1 1.819.16.1.012 1.27.352.968.9-.233 1.56-.383 3.819 1.364 4.716z" class="prefix__cls-2" data-name="Path 35573" transform="translate(-3643.146 -564.139)"/>
                    <path id="prefix__Path_35574" d="M3676.858 550.769c.032-.054.062-.11.093-.167l.027-.051q.056-.1.107-.216l.027-.059.073-.17c.014-.032.026-.064.04-.1l.057-.147c.014-.034.026-.068.038-.1.023-.065.045-.129.068-.2.016-.048.031-.1.046-.151s.029-.091.042-.137l.04-.142c.013-.048.022-.081.031-.123s.018-.066.027-.1a15.213 15.213 0 0 0-.254-4.636.417.417 0 0 0-.44-.286c-1.411.065-5.669-.415-4.823 3.55 0 .011.042.348.065.5 0 .013 0 .027.006.04.025.157.051.312.082.462 0 .011 0 .021.006.03.033.154.067.3.105.451a.157.157 0 0 1 0 .015c.491 1.875 1.481 3.158 2.62 3.154a2.236 2.236 0 0 0 1.764-1.18.16.16 0 0 0 .011-.018c.036-.057.073-.114.108-.174a.406.406 0 0 0 .034-.045z" class="prefix__cls-2" data-name="Path 35574" transform="translate(-3657.868 -541.573)"/>
                    <path id="prefix__Path_35575" d="M3773.064 588.895s.29.161.428-.056a4.616 4.616 0 0 0 .388-1.508c.038-.338-.057-1.958-.057-1.958a1.9 1.9 0 0 0-.324 1.135 8.212 8.212 0 0 1-.435 2.387z" class="prefix__cls-3" data-name="Path 35575" transform="translate(-3738.658 -574.64)"/>
                    <path id="prefix__Path_35576" d="M3772.275 588.949a2.386 2.386 0 0 0-.1-2.033 1.39 1.39 0 0 1-.018-1.2 9.882 9.882 0 0 1 .58 1.694 3.029 3.029 0 0 1 .139 1.075c-.112 1.057-1.388 1.828-.601.464z" class="prefix__cls-3" data-name="Path 35576" transform="translate(-3737.824 -574.912)"/>
                    <path id="prefix__Path_35577" d="M3666.093 1039.339a13.128 13.128 0 0 0-2.394-.608c-1.03-.2-1.811-.19-2.182-.575-.609-.637-.219-2.648-.518-2.579-1.455.334-2 3.791-1.153 4.216s5.642.274 6.034.243.336-.789.213-.697z" class="prefix__cls-2" data-name="Path 35577" transform="translate(-3647.882 -934.329)"/>
                    <path id="prefix__Path_35578" d="M3623.917 845.525q.3-1.286.618-2.532c.7-1.223 1.305-1.873 1.767-1.794 1.743.3 3.289 7.105-2.266 23.559-.281.827-3.943 15.127-4 14.785-.69-4.243.887-21.309 3.881-34.018z" class="prefix__cls-2" data-name="Path 35578" transform="translate(-3616.269 -779.027)"/>
                    <path id="prefix__Path_35579" d="M3632.7 738.409c1.389-.226 1.4.575 2.357 2.582a29.468 29.468 0 0 1 2.061 15.911c-.942 7.226-2.926 13.518-5.255 17.463a47.792 47.792 0 0 1-2.464-12c-1.562-14.065-.967-23.265 3.301-23.956z" class="prefix__cls-2" data-name="Path 35579" transform="translate(-3623.247 -696.878)"/>
                    <path id="prefix__Path_35580" d="M3634.454 816.214a20.505 20.505 0 0 0-5.4-.622c.109 2.371.322 4.972.62 7.772 2.069-2.214 6.071-1 6.975.1.325-1.563.6-3.192.82-4.872.065-.484.113-.966.155-1.444-1.016-.342-2.073-.658-3.17-.934z" class="prefix__cls-3" data-name="Path 35580" transform="translate(-3623.605 -758.571)"/>
                    <path id="prefix__Path_35581" d="M3603.342 644.811c2.058 1.881 3.921 10.443 3.921 10.443s-.244 3.393-4.816-7.327c-1.373-3.22.386-3.579.895-3.116z" class="prefix__cls-2" data-name="Path 35581" transform="translate(-3601.934 -621.997)"/>
                    <path id="prefix__Path_35582" d="M3710.954 631.429c1.479 1.245 2.595 5.364 3.5 7.984a4.71 4.71 0 0 1 .219 2.549s-.742 3.34-4.174-6.11c-.862-2.365-.099-4.89.455-4.423z" class="prefix__cls-2" data-name="Path 35582" transform="translate(-3688.361 -611.392)"/>
                    <path id="prefix__Path_35583" d="M3726.49 634.59c.238-3.4 6.888-11.958 6.888-11.958s3.366-2.494-3.3 10.286c-2.005 3.836-3.645 2.509-3.588 1.672z" class="prefix__cls-2" data-name="Path 35583" transform="translate(-3701.447 -604.252)"/>
                    <path id="prefix__Path_35584" d="M3757.334 596.02l.25.18.108 1.052a11.9 11.9 0 0 1-1.054 2.416 37.476 37.476 0 0 0-1.485 3.711c-.193.306-1.872.18-1.872.18s1.522-2.613 2.036-3.7a26.161 26.161 0 0 0 .9-3.324 12.1 12.1 0 0 0 .439-1.133s.372.225-.06 1.415c-.113.314.3.274.3.274z" class="prefix__cls-2" data-name="Path 35584" transform="translate(-3722.853 -582.654)"/>
                    <path id="prefix__Path_35585" d="M3679.77 765.267a33.662 33.662 0 0 0-2.872 14.674c.1 6.79 1.062 12.781 2.48 16.611 1.285-3.073 1.9-6.87 2.848-11.005 2.92-12.742-1.57-22.086-2.456-20.28z" class="prefix__cls-2" data-name="Path 35585" transform="translate(-3661.823 -718.188)"/>
                    <path id="prefix__Path_35586" d="M3683.3 803.865c.423-2.271.154-6.273-1.2-7.425-.335-.411-.528-.183-1.131.023a5.967 5.967 0 0 0-3.159 3.476c-.069 1.293-.1 2.625-.09 3.986.013 1.5.055 1.733.118 3.142a9.658 9.658 0 0 1 5.462-3.202z" class="prefix__cls-3" data-name="Path 35586" transform="translate(-3662.475 -743.09)"/>
                    <path id="prefix__Path_35587" d="M3665.888 868.451c-.679-.348-1.915.51-2.772 2.217-1.682 3.343-2.209 7.926-2.509 13.592-.315 5.993-.328 10.46-.244 14.154.083 3.647-1.455 8.743 1.3 8.258-.325-5.017.51-12.449 1.984-16.344 5.027-13.303 4.323-20.81 2.241-21.877z" class="prefix__cls-2" data-name="Path 35587" transform="translate(-3648.332 -800.744)"/>
                    <path id="prefix__Path_35588" d="M3653.628 607.879l-10.639-.769-.527-12.259 12.557 2z" class="prefix__cls-4" data-name="Path 35588" transform="translate(-3634.314 -582.213)"/>
                    <path id="prefix__Path_35589" d="M3617.088 691.4l18.224-1.5c.685.055-3.164-11.337-2.83-34.416l-10.721-.882c.534 4.569-9.011 12.113-4.673 36.798z" class="prefix__cls-4" data-name="Path 35589" transform="translate(-3613.135 -629.956)"/>
                    <path id="prefix__Path_35590" d="M3605.539 606.771l5.822-7.286 1.5-3.422a1.692 1.692 0 0 0-.608-.8l-.2-.142a1.7 1.7 0 0 0-2.372.394l-6.671 9.319z" class="prefix__cls-4" data-name="Path 35590" transform="translate(-3602.794 -582.173)"/>
                    <path id="prefix__Path_35591" d="M3701.137 619.045l-3.168-8.029-1.124-5.539a1.691 1.691 0 0 1 .833-.563l.232-.073a1.7 1.7 0 0 1 2.121 1.131l3.723 11.018z" class="prefix__cls-4" data-name="Path 35591" transform="translate(-3677.763 -590.137)"/>
                    <path id="prefix__Path_35592" d="M3623.941 698.007a.365.365 0 0 1-.456.241l-.461-.146a.364.364 0 0 1-.239-.455l.651-2.084a.365.365 0 0 1 .458-.24l.462.146a.364.364 0 0 1 .239.457z" class="prefix__cls-2" data-name="Path 35592" transform="translate(-3618.579 -662.471)"/>
                    <path id="prefix__Path_35593" d="M3606.394 1020.407c-1.089 2.289-2.462 3.912-3.067 3.623s-.212-2.377.877-4.666 2.463-3.911 3.069-3.622.211 2.377-.879 4.665z" class="prefix__cls-5" data-name="Path 35593" transform="translate(-3602.82 -918.457)"/>
                    <path id="prefix__Path_35594" d="M3610.57 1009.707c-.549 1.787-1.753 3.089-2.357 2.8s-.408-1.817.471-3.467c1.11-2.089 1.537-2.689 1.613-4.175.071-1.391 2.34-1.879.273 4.842z" class="prefix__cls-2" data-name="Path 35594" transform="translate(-3606.672 -909.107)"/>
                    <path id="prefix__Path_35595" d="M3662.339 1044.24a.064.064 0 0 0 .062.062h.123a.062.062 0 0 0 .061-.062.061.061 0 0 0-.061-.061h-.123a.063.063 0 0 0-.062.061z" class="prefix__cls-2" data-name="Path 35595" transform="translate(-3650.194 -941.203)"/>
                    <path id="prefix__Path_35596" d="M3664.746 1052.751c.271 1.147-3.247.684-4.156.385a10.554 10.554 0 0 0-1.425-.375h-.109c0 .027-.012.054-.012.082 0 .63-.277 1.466.728 1.466h6.308c5.154-.009-1.34-1.585-1.334-1.558z" class="prefix__cls-5" data-name="Path 35596" transform="translate(-3647.533 -948.051)"/>
                    <path id="prefix__Path_35597" d="M3771.219 592.337a3.185 3.185 0 0 0 .234-1.382c-.083-.329-.73-1.818-.73-1.818a1.911 1.911 0 0 0 .088 1.178 6.455 6.455 0 0 1 .408 2.022z" class="prefix__cls-2" data-name="Path 35597" transform="translate(-3736.745 -577.648)"/>
                    <path id="prefix__Path_35598" d="M3769.271 602.281s-.275.045-.359-.046a1.457 1.457 0 0 0 .012.256c.007.161-.153 1.246-.153 1.246a9.338 9.338 0 0 1 .391-.965 4.406 4.406 0 0 0 .258-.717 1.48 1.48 0 0 0 .008-.157z" class="prefix__cls-3" data-name="Path 35598" transform="translate(-3735.228 -587.842)"/>
                    <path id="prefix__Path_35599" d="M3768.039 597.208c.291-.8.217-1.163.137-1.317-.067.189-.18.492-.36.911a5.876 5.876 0 0 0-.213.862 1.478 1.478 0 0 1 .338.829c.012.12.276-.579.341-1.01-.108-.004-.33-.034-.243-.275z" class="prefix__cls-3" data-name="Path 35599" transform="translate(-3734.295 -583.044)"/>
                    <path id="prefix__Path_35600" d="M3661.6 542.159a2.041 2.041 0 0 1-.879-1.5l-.438-5.628c-.044-.055-.095-.1-.14-.154l-.1-.018c-1.245-.223-2.385.316-2.542 1.2l-1.431 8.068a1.754 1.754 0 0 0 1.187 1.749 3.331 3.331 0 0 0 .432 0c1.819-.147 3.287-1.645 3.911-3.717z" class="prefix__cls-1" data-name="Path 35600" transform="translate(-3645.174 -534.242)"/>
                </g>
            </g>
            <g id="prefix__Group_19849" data-name="Group 19849" transform="translate(-7537.959 -9842.008)">
                <g id="prefix__Group_13496" data-name="Group 13496" transform="translate(0 6.538)">
                    <path id="prefix__Path_35601" d="M3299.3 845.175a4.686 4.686 0 0 1-3.1-1.121c-1.557-1.353-2.231-3.762-2-7.157a24.9 24.9 0 0 1 2.01-7.069c1.607-4.132 3.43-8.816 2.476-15.01l1.77-.273c1.026 6.669-.972 11.805-2.576 15.932a23.259 23.259 0 0 0-1.893 6.538c-.183 2.753.292 4.715 1.377 5.674a2.971 2.971 0 0 0 2.367.664l.358 1.755a4.132 4.132 0 0 1-.789.067z" class="prefix__cls-6" data-name="Path 35601" transform="translate(-3294.154 -814.544)"/>
                </g>
                <g id="prefix__Group_13499" data-name="Group 13499" transform="translate(6.927 43.464)">
                    <path id="prefix__Rectangle_12868" d="M0 0H3.06V10.895H0z" class="prefix__cls-7" data-name="Rectangle 12868" transform="translate(11.718)"/>
                    <g id="prefix__Group_13498" data-name="Group 13498" transform="translate(.603 8.47)">
                        <path id="prefix__Path_35604" d="M3342.754 1040.339l1.491 2.537-12.536 4.476s-.837-.893 2.239-2.686a97.858 97.858 0 0 1 8.806-4.327z" class="prefix__cls-7" data-name="Path 35604" transform="translate(-3331.605 -1040.339)"/>
                        <path id="prefix__Path_35605" d="M3396.008 1040.339l-1.492 2.537 12.537 4.476s.837-.893-2.238-2.686a97.911 97.911 0 0 0-8.807-4.327z" class="prefix__cls-7" data-name="Path 35605" transform="translate(-3381.868 -1040.339)"/>
                    </g>
                    <path id="prefix__Path_35606" d="M3330.731 1076.009a1.063 1.063 0 1 1-1.063-1.064 1.063 1.063 0 0 1 1.063 1.064z" class="prefix__cls-8" data-name="Path 35606" transform="translate(-3328.605 -1059.517)"/>
                    <path id="prefix__Path_35607" d="M3451.551 1076.009a1.063 1.063 0 1 1-1.063-1.064 1.064 1.064 0 0 1 1.063 1.064z" class="prefix__cls-8" data-name="Path 35607" transform="translate(-3425.134 -1059.517)"/>
                </g>
                <path id="prefix__Rectangle_12869" d="M0 0H2.238V3.919H0z" class="prefix__cls-9" data-name="Rectangle 12869" transform="translate(19.015 39.471)"/>
                <path id="prefix__Path_35610" d="M3385.981 959.379a2.183 2.183 0 0 1-2.182 2.183h-1.231a2.183 2.183 0 0 1-2.183-2.183 2.181 2.181 0 0 1 2.183-2.181h1.231a2.181 2.181 0 0 1 2.182 2.181z" class="prefix__cls-9" data-name="Path 35610" transform="translate(-3363.049 -921.979)"/>
                <path id="prefix__Path_35611" d="M3344.492 936.919c.054-.257.085-1.868.085-2.145 0-1.763-1.139-3.191-2.544-3.191h-28.354c-1.405 0-2.544 1.428-2.544 3.191 0 .276.03 1.888.084 2.145z" class="prefix__cls-10" data-name="Path 35611" transform="translate(-3307.721 -901.514)"/>
                <path id="prefix__Path_35612" d="M3309.828 958.539c0 .54.315.977.7.977h32.557c.389 0 .705-.437.705-.977 0-.539-.316-.977-.705-.977h-32.557c-.389 0-.7.437-.7.977z" class="prefix__cls-9" data-name="Path 35612" transform="translate(-3306.676 -922.27)"/>
                <g id="prefix__Group_13500" data-name="Group 13500" transform="translate(3.212)">
                    <path id="prefix__Path_35613" d="M3317.2 801.057c.7.052 5.144.13 5.91.139 4.864.06 9.056-.854 9.288-2.052a41.507 41.507 0 0 0 .126-15.066c-.208-1.2-4.461-2.111-9.428-2.05-.781.009-5.317.089-6.03.141a40.761 40.761 0 0 1 .134 18.888z" class="prefix__cls-10" data-name="Path 35613" transform="translate(-3315.668 -782.024)"/>
                    <path id="prefix__Path_35614" d="M3310.989 782.731c-.546.007-.925.265-.849.578a40.7 40.7 0 0 1 .151 17.738c-.068.313.309.572.842.578.533.006 1.026-.242 1.094-.557a40.79 40.79 0 0 0-.116-17.781c-.074-.314-.575-.563-1.122-.556z" class="prefix__cls-9" data-name="Path 35614" transform="translate(-3310.13 -782.589)"/>
                    <path id="prefix__Path_35615" d="M3312.721 801.327a12.1 12.1 0 0 0 1.276.085 2.562 2.562 0 0 0 2.362-2.1 40.848 40.848 0 0 0-.067-14.838 2.612 2.612 0 0 0-2.421-2.1 12.367 12.367 0 0 0-1.3.086 40.716 40.716 0 0 1 .15 18.867z" class="prefix__cls-11" data-name="Path 35615" transform="translate(-3312.079 -782.303)"/>
                </g>
            </g>
            <g id="prefix__Group_19850" data-name="Group 19850" transform="translate(-7532.413 -9875.92)">
                <path id="prefix__Path_35617" d="M3385.354 691.715s-4.147 1.481-.165 13.37 6.636 10.448 6.636 10.448l3.293-.319 6.315-7.489-3.4-2.973-.687.273a1.67 1.67 0 0 1-.98-1.181c-.1-.818-1.466-2.854-4.164-9.409-1.502-3.645-6.05-3.011-6.848-2.72z" class="prefix__cls-12" data-name="Path 35617" transform="translate(-3371.052 -675.772)"/>
                <path id="prefix__Path_35618" d="M3446.868 775.259a144.582 144.582 0 0 0 11.1 11.421c2.165 1.857 3.906 1.218 1.286 2.092-.965.322-10.25-3.076-15.282-5.952-3.378-1.93-2.375-4.207-.483-5.469 1.932-1.288 3.379-2.092 3.379-2.092z" class="prefix__cls-3" data-name="Path 35618" transform="translate(-3417.623 -742.707)"/>
                <path id="prefix__Path_35619" d="M3426.543 756.242l2.075-1.344.86-.49a1.808 1.808 0 0 0 .909.895l-1.732.712-1.888 1.214-1.95 2.342z" class="prefix__cls-13" data-name="Path 35619" transform="translate(-3404.094 -726.048)"/>
                <path id="prefix__Path_35620" d="M3343.7 721.917l-15.5-.336s-6.091-15.959-6.443-21.578c-.2-3.261 1.742-10.44 5.067-12.049A16.632 16.632 0 0 1 3331 686.6a26.051 26.051 0 0 1 10.925 1.415s6.302 3.285 1.775 33.902z" class="prefix__cls-13" data-name="Path 35620" transform="translate(-3321.742 -671.822)"/>
                <path id="prefix__Path_35621" fill="#445e77" d="M3528.835 943.384s-1.507 2.325-2.277.9c-2.31-4.276-4.395-17.774-4.525-23.313-.175-7.387-.512-11.891-.512-11.891l7.431-2.694z" data-name="Path 35621" transform="translate(-3481.356 -847.47)"/>
                <path id="prefix__Path_35622" fill="#415b74" d="M3395.665 861.616l26.223 8.978-6.877 3.838s-27.045 4.744-27.527-5.294c-.406-8.444 8.181-7.522 8.181-7.522z" data-name="Path 35622" transform="translate(-3374.254 -811.678)"/>
                <path id="prefix__Path_35623" d="M3478.27 946.35s-1.358 1.244-2.128-.181c-2.311-4.276-6.1-15.637-6.232-21.176a54.2 54.2 0 0 1 1.046-12.524l7.594-2.637z" class="prefix__cls-12" data-name="Path 35623" transform="translate(-3440.107 -850.223)"/>
                <path id="prefix__Path_35624" d="M3357.066 862.384l25 9.434-6.848 3.728s-25.375 4.742-25.866-5.293 7.714-7.869 7.714-7.869z" class="prefix__cls-12" data-name="Path 35624" transform="translate(-3343.786 -812.158)"/>
                <path id="prefix__Path_35625" d="M3347.205 869.077a7.6 7.6 0 0 0 1.109 3.928c2.366 2.859 7.973 1.9 12.444 1.9.245 0 1.492-3.488 1.492-3.488l1.867-11.408-15.676.267a75.738 75.738 0 0 0-1.236 8.801z" class="prefix__cls-12" data-name="Path 35625" transform="translate(-3342.08 -810.417)"/>
                <path id="prefix__Path_35626" d="M3473.9 822.852l5.74-1.031s.893-.1.934.522c.053.816-.093 3.475-.093 3.475l-1.031-.637-1.479.9-1.715-2.27a4.434 4.434 0 0 1-1.625-.016c-.242-.06-.731-.943-.731-.943z" class="prefix__cls-2" data-name="Path 35626" transform="translate(-3443.311 -779.904)"/>
                <path id="prefix__Path_35627" d="M3388.266 818.873l15.2 1.686s-8.151 4.165-11.885 4.191a33.336 33.336 0 0 1-7.233-.831z" class="prefix__cls-2" data-name="Path 35627" transform="translate(-3371.757 -777.552)"/>
                <path id="prefix__Path_35628" d="M3334.1 711.456l7.592 14.367-.435 1.166 1.168.217-3.546 5.643-5.562-1.269-6.8-16.045s-2.406-6.794 2.466-11.261c1.286-1.181 4.441 6.026 5.117 7.182z" class="prefix__cls-12" data-name="Path 35628" transform="translate(-3325.081 -685.888)"/>
                <path id="prefix__Path_35629" d="M3376.169 819.494s3.594-2.747 5.419-4.245l-.19.508 1.168.216-1.241 1.941-2.153 2.5-1.233-.451.467-.88z" class="prefix__cls-13" data-name="Path 35629" transform="translate(-3365.226 -774.657)"/>
                <path id="prefix__Path_35630" fill="#194866" d="M3504.866 1091.709a1.69 1.69 0 0 1 .028.8 11.567 11.567 0 0 1-3.093.155 3.443 3.443 0 0 1-.832-.525c-.052-.039-.141-.283-.192-.323-.1-.075-.144.053-.224-.015a2.63 2.63 0 0 1-.354-.332 4.076 4.076 0 0 1 .088-2.053s2-.929 2.367-.3a17.89 17.89 0 0 0 2.212 2.593z" data-name="Path 35630" transform="translate(-3464.267 -993.288)"/>
                <path id="prefix__Path_35631" fill="#163f59" d="M3545.327 1089.9l.333 2.119h1.774s.1-.3.248-.3c.126 0 .289.3.461.3h4.51a1.254 1.254 0 0 0-.017-.6 1.579 1.579 0 0 0-.545-.283c-.916-.315-3.688-1-4.306-1.982-.477-.763-2.458.746-2.458.746z" data-name="Path 35631" transform="translate(-3500.375 -993.321)"/>
                <path id="prefix__Rectangle_12870" fill="#aebddc" d="M0 0H2.734V3.861H0z" data-name="Rectangle 12870" transform="rotate(-66.278 15.735 1.397)"/>
                <g id="prefix__Group_13504" data-name="Group 13504" transform="translate(4.068)">
                    <g id="prefix__Group_13503" data-name="Group 13503">
                        <path id="prefix__Path_35632" d="M3355.666 628.669a1.88 1.88 0 0 1-1.564 2.149l-7.008 1.1a1.88 1.88 0 0 1-2.148-1.564 1.878 1.878 0 0 1 1.563-2.148l7.01-1.1a1.879 1.879 0 0 1 2.148 1.563z" data-name="Path 35632" transform="translate(-3344.33 -624.322)"/>
                        <path id="prefix__Path_35633" d="M3352.532 640.335a3.472 3.472 0 0 1-2.888 3.969l-3.658.576a3.471 3.471 0 0 1-3.969-2.888 3.472 3.472 0 0 1 2.888-3.968l3.659-.576a3.471 3.471 0 0 1 3.968 2.888z" data-name="Path 35633" transform="translate(-3341.974 -632.567)"/>
                        <path id="prefix__Path_35634" d="M3376.419 631.753l-1.69-10.72c-.269-1.708-1.383.217-3.091.486l-1.649.26a3.131 3.131 0 0 0-2.605 3.58l1.2 7.628z" class="prefix__cls-2" data-name="Path 35634" transform="translate(-3362.244 -618.93)"/>
                        <path id="prefix__Path_35635" d="M3365.348 651.548a1.376 1.376 0 0 1-1.145 1.572 1.375 1.375 0 0 1-1.572-1.144 1.374 1.374 0 0 1 1.144-1.572 1.374 1.374 0 0 1 1.573 1.144z" class="prefix__cls-2" data-name="Path 35635" transform="translate(-3358.464 -642.94)"/>
                        <path id="prefix__Path_35636" d="M3403.3 644.732a.784.784 0 0 0 .885.668l.635-.1a.784.784 0 0 0 .635-.908s-2.031-3.85-2.453-3.784a1.3 1.3 0 0 0-.22.842z" class="prefix__cls-2" data-name="Path 35636" transform="translate(-3390.548 -635.127)"/>
                        <path id="prefix__Path_35637" d="M3374.146 671.724c-3.092.488-3.563-.41-3.825-1.481a22.719 22.719 0 0 0-.258 3.72l.154.976c.3 1.884 2.476 3.107 4.866 2.731l4.329-.681-.758-4.809-.179-1.137z" data-name="Path 35637" transform="translate(-3364.393 -658.804)"/>
                        <path id="prefix__Path_35638" d="M3393.626 664.312l-2.475.39a2.086 2.086 0 0 0-1.735 2.386 2.114 2.114 0 0 0 .154.5l4.462-.7z" data-name="Path 35638" transform="translate(-3379.857 -654.066)"/>
                        <path id="prefix__Path_35639" d="M3396.262 675.9l.108.686a.348.348 0 0 0 .4.29l2-.316a.349.349 0 0 0 .291-.4l-.109-.687z" class="prefix__cls-2" data-name="Path 35639" transform="translate(-3385.347 -662.983)"/>
                        <path id="prefix__Path_35640" d="M3367.878 615.175l-6.342 1a1.253 1.253 0 0 0-1.042 1.432l.39 2.473 7.578-1.193z" data-name="Path 35640" transform="translate(-3356.759 -614.808)"/>
                        <path id="prefix__Path_35641" d="M3385.671 615.079a2.034 2.034 0 0 1-1.455 2.346l-3.973.734a1.809 1.809 0 0 1-2-1.708 2.033 2.033 0 0 1 1.457-2.344l3.973-.734a1.806 1.806 0 0 1 2 1.706z" data-name="Path 35641" transform="translate(-3371.225 -613.348)"/>
                    </g>
                    <path id="prefix__Rectangle_12871" d="M0 0H1.735V4.568H0z" data-name="Rectangle 12871" transform="rotate(-8.948 29.603 -28.05)"/>
                    <path id="prefix__Path_53183" d="M0 0h5.107v5.377H0z" data-name="Path 53183" transform="rotate(-8.955 16.771 -30.487)"/>
                    <path id="prefix__Path_35642" d="M3376.559 637.642a2.582 2.582 0 0 1 2.15-2.953l1.318-.208c1.408-.222 2.344.8 2.566 2.211a2.584 2.584 0 0 1-2.151 2.954l-.929.146a2.583 2.583 0 0 1-2.954-2.151z" class="prefix__cls-2" data-name="Path 35642" transform="translate(-3369.58 -630.208)"/>
                </g>
            </g>
            <g id="prefix__Group_19851" data-name="Group 19851" transform="translate(-7501.615 -9846.501)">
                <path id="prefix__Path_35643" d="M3474.937 839.437l-.013-.024.013-.744h30.793v.744a.043.043 0 0 1 0 .024l-.079.138a2.023 2.023 0 0 1-1.918.761h-26.8a2.025 2.025 0 0 1-1.919-.761z" class="prefix__cls-19" data-name="Path 35643" transform="translate(-3474.923 -822.788)"/>
                <path id="prefix__Path_35644" fill="#d6e3eb" d="M3483.516 840.716a.028.028 0 0 1 0 .021l-.076.111a1.246 1.246 0 0 1-.45.379h-4.682a2.136 2.136 0 0 1-1.846-.615l-.074-.113c0-.006-.01-.012-.014-.018l.008-.368h7.135z" data-name="Path 35644" transform="translate(-3476.082 -823.942)"/>
                <g id="prefix__Group_13506" data-name="Group 13506" transform="translate(11.59 16.054)">
                    <path id="prefix__Rectangle_12873" fill="#8599a4" d="M0 0H15.386V0.525H0z" data-name="Rectangle 12873"/>
                </g>
                <g id="prefix__Group_13507" data-name="Group 13507" transform="translate(7.605)">
                    <path id="prefix__Path_35645" fill="#d7dfe2" d="M3512.75 775.529l3.992-15.131a1.006 1.006 0 0 1 .912-.723h21.6a.538.538 0 0 1 .531.723l-3.992 15.131z" data-name="Path 35645" transform="translate(-3512.75 -759.675)"/>
                    <path id="prefix__Path_35646" d="M3573.321 793.542a1.041 1.041 0 0 0 1.029 1.4 1.947 1.947 0 0 0 1.769-1.4 1.042 1.042 0 0 0-1.03-1.4 1.947 1.947 0 0 0-1.768 1.4z" class="prefix__cls-19" data-name="Path 35646" transform="translate(-3561.105 -785.614)"/>
                </g>
            </g>
            <g id="prefix__Group_19852" data-name="Group 19852" transform="translate(-7546.988 -9828.958)">
                <path id="prefix__Path_35649" d="M3961.789 906.377h3.2l-5.285-51.177h-4.644z" class="prefix__cls-7" data-name="Path 35649" transform="translate(-3813.158 -853.538)"/>
                <path id="prefix__Path_35650" d="M3956.6 857.558l2.037 15.5 2.417-16.7-.119-1.154h-4.059z" class="prefix__cls-23" data-name="Path 35650" transform="translate(-3814.387 -853.538)"/>
                <path id="prefix__Path_35653" d="M3252.446 906.377h-3.2l5.284-51.177h4.645z" class="prefix__cls-7" data-name="Path 35653" transform="translate(-3249.243 -853.538)"/>
                <path id="prefix__Path_35654" d="M3272.384 857.558l-6.217 15.794 1.763-17 .119-1.154h4.06z" class="prefix__cls-23" data-name="Path 35654" transform="translate(-3262.764 -853.538)"/>
                <path id="prefix__Rectangle_12874" fill="#88919d" d="M0 0H98.381V2.991H0z" data-name="Rectangle 12874" transform="translate(.802)"/>
                <path id="prefix__Rectangle_12875" fill="url(#prefix__radial-gradient)" d="M0 0H112.739V2.991H0z" data-name="Rectangle 12875" transform="translate(37.63)"/>
            </g>
            <g id="prefix__Group_19853" data-name="Group 19853" transform="translate(-7462.693 -9871.953)">
                <path id="prefix__Path_35655" d="M3679.879 1058.011l-.517 2.685h-2.737s-.152-.38-.382-.38c-.2 0-.447.38-.713.38h-6.966s-.123-.565.029-.76a2.667 2.667 0 0 1 .84-.36c1.415-.4 5.462-1.638 6.165-2.99.858-1.643 4.281 1.425 4.281 1.425z" class="prefix__cls-26" data-name="Path 35655" transform="translate(-3668.517 -971.053)"/>
                <path id="prefix__Path_35656" d="M3695.584 893.2s.783 4.385 1.434 9.988c.48 4.115.493 15.866-.266 24.029-.047.5-5.236-1.021-5.236-1.021s-1.894-22.847-2.329-27.962 3.282-8.222 6.397-5.034z" class="prefix__cls-27" data-name="Path 35656" transform="translate(-3685.004 -839.872)"/>
                <path id="prefix__Path_35657" d="M3764.213 1037.025c-.207-.249-.056-.906-.056-.906a24.049 24.049 0 0 1 4.764-.128 5.984 5.984 0 0 1 1.289.606c.081.046.223.322.3.369.144.086.22-.059.344.018a4.3 4.3 0 0 1 .551.381 3.44 3.44 0 0 1-.1 2.32s-2.967.922-3.643.31c-1.722-1.556-2.998-2.423-3.449-2.97z" class="prefix__cls-26" data-name="Path 35657" transform="translate(-3744.886 -954.909)"/>
                <path id="prefix__Path_35658" fill="#773b20" d="M3756.954 916.174s-2.872-1.677-2.141 2.823c1.766 10.858 3.389 18.818 4.15 22.424.294 1.4.747 1.179.747 1.179l3.3.536 1.666-1.135-3.083-24.543z" data-name="Path 35658" transform="translate(-3737.368 -859.013)"/>
                <g id="prefix__Group_13511" data-name="Group 13511" transform="translate(5.395)">
                    <path id="prefix__Path_35659" d="M3696.454 893.99c.433.564 15.211 8.032 15.893 8.032h12.153c.682 0 5.621-.722 6.692-3.968 1.132-3.432 0-9.545 0-9.545a1.262 1.262 0 0 0-1.236-1.286h-15.134c-.682 0-2.059.576-2.059 1.286l-14.7-.471s-4.826 1.769-1.609 5.952z" class="prefix__cls-27" data-name="Path 35659" transform="translate(-3695.348 -836.127)"/>
                    <path id="prefix__Path_35660" fill="#5a2710" d="M3735.843 925.8h-13.907c-.147 0-12.154-3.275-12.289-3.313l1.449 4.665c0 .711 11.993 3.045 12.675 3.045h12.149c.683 0 5.621-.722 6.692-3.968a12.709 12.709 0 0 0 .5-3.644c-1.738 2.603-6.552 3.215-7.269 3.215z" data-name="Path 35660" transform="translate(-3706.773 -864.299)"/>
                    <path id="prefix__Path_35661" d="M3799.021 656.189l-.656-2.965s-2.311.162-2.759-.972c-.909-2.275-.149-5.91.4-6.929 1.559-2.9 2.219-7.979 9.507-3.94 2.771 1.537-1.509 8.984-1.828 10.6a6.321 6.321 0 0 0 .63 3.468l-1.705 1.166z" class="prefix__cls-2" data-name="Path 35661" transform="translate(-3775.111 -638.515)"/>
                    <path id="prefix__Path_35662" d="M3745.261 822.284l12.5 4.436s-14.737 1.059-14.794.2c-.312-4.704 2.294-4.636 2.294-4.636z" class="prefix__cls-2" data-name="Path 35662" transform="translate(-3733.371 -784.244)"/>
                    <path id="prefix__Path_35663" d="M3868.89 735.373s2.487 1.178 4.275 10.748.649 9.2.649 9.2l-.325 2.18-4.647.387-2.511-8.261z" class="prefix__cls-7" data-name="Path 35663" transform="translate(-3831.955 -714.807)"/>
                    <path id="prefix__Path_35664" d="M3795.957 719.07l-6.121-2.531-1.689-1.455-6.506-.143-1.139 1.71-5.044 1.993s-1.245 1.783-.161 8.4c1.2 7.336-.021 26.314-.021 26.314l20.591.293s-1.699-31.021.09-34.581z" class="prefix__cls-23" data-name="Path 35664" transform="translate(-3758.869 -698.482)"/>
                    <path id="prefix__Path_35665" d="M3738.845 732.6s-1.135-1.153-3.9 1.98a42.659 42.659 0 0 0-7.484 13.245c-.488 1.282-1.039 4.445.891 6.575a2.638 2.638 0 0 0 2.9 1.026l4.5-3.519-1.448-.733-.987-.073s2.278-4.558 4.719-8.69.809-9.811.809-9.811z" class="prefix__cls-7" data-name="Path 35665" transform="translate(-3720.634 -712.429)"/>
                    <path id="prefix__Path_35666" fill="#69493b" d="M3795.864 640.742s.825-.462.951.114-.317 1.848-.7 1.964-.5 1.673-.5 1.673l1.012 1.733h5.131s1.585-.635 1.712-1.674 1.393-8.374 1.393-8.374l-3.61-1.732a25.17 25.17 0 0 0-3.233-1.213c-2.042-.533-2.47.461-2.406.981s-.572.578-1.395.578-1.839.577-1.4.924c.185.143-.634.6-.311 1.151.467.788 2.021 1.044 2.149 2.315.061.576.322 2.482 1.207 1.56z" data-name="Path 35666" transform="translate(-3772.916 -633.081)"/>
                </g>
                <g id="prefix__Group_13515" data-name="Group 13515" transform="translate(12.992 65.665)">
                    <path id="prefix__Path_35667" d="M3734.391 964.519c-.049-.233-.076-1.69-.076-1.941a2.645 2.645 0 0 1 2.3-2.888h25.657a2.646 2.646 0 0 1 2.3 2.888c0 .251-.028 1.708-.076 1.941z" class="prefix__cls-11" data-name="Path 35667" transform="translate(-3734.078 -959.69)"/>
                    <path id="prefix__Path_35668" d="M3763.874 984.084c0 .487-.285.883-.637.883h-29.462c-.352 0-.637-.4-.637-.883 0-.489.285-.884.637-.884h29.462c.352 0 .637.4.637.884z" class="prefix__cls-31" data-name="Path 35668" transform="translate(-3733.139 -978.473)"/>
                    <g id="prefix__Group_13514" data-name="Group 13514" transform="translate(5.667 12.121)">
                        <path id="prefix__Rectangle_12876" d="M0 0H2.769V9.86H0z" class="prefix__cls-7" data-name="Rectangle 12876" transform="translate(10.533)"/>
                        <g id="prefix__Group_13513" data-name="Group 13513" transform="translate(.474 7.665)">
                            <path id="prefix__Path_35671" d="M3821.969 1058.1l-1.351 2.3 11.344 4.052s.758-.808-2.025-2.432a88.52 88.52 0 0 0-7.968-3.92z" class="prefix__cls-7" data-name="Path 35671" transform="translate(-3809.172 -1058.104)"/>
                            <path id="prefix__Path_35672" d="M3773.776 1058.1l1.35 2.3-11.344 4.052s-.758-.808 2.025-2.432a88.587 88.587 0 0 1 7.969-3.92z" class="prefix__cls-7" data-name="Path 35672" transform="translate(-3763.688 -1058.104)"/>
                        </g>
                        <path id="prefix__Path_35673" d="M3870.652 1090.382a.962.962 0 1 0 .963-.962.962.962 0 0 0-.963.962z" class="prefix__cls-32" data-name="Path 35673" transform="translate(-3848.672 -1075.458)"/>
                        <path id="prefix__Path_35674" d="M3761.328 1090.382a.962.962 0 1 0 .962-.962.962.962 0 0 0-.962.962z" class="prefix__cls-32" data-name="Path 35674" transform="translate(-3761.328 -1075.458)"/>
                    </g>
                    <path id="prefix__Rectangle_12877" d="M0 0H2.025V3.546H0z" class="prefix__cls-31" data-name="Rectangle 12877" transform="translate(16.607 8.508)"/>
                    <path id="prefix__Path_35677" d="M3808.185 984.843a1.974 1.974 0 0 0 1.974 1.975h1.114a1.975 1.975 0 0 0 1.975-1.975 1.975 1.975 0 0 0-1.975-1.975h-1.114a1.974 1.974 0 0 0-1.974 1.975z" class="prefix__cls-31" data-name="Path 35677" transform="translate(-3793.097 -978.208)"/>
                    <path id="prefix__Path_35678" d="M3755.2 964.519c-.048-.233-.076-1.69-.076-1.941a2.645 2.645 0 0 1 2.3-2.888h25.658a2.645 2.645 0 0 1 2.3 2.888c0 .251-.029 1.708-.076 1.941z" class="prefix__cls-10" data-name="Path 35678" transform="translate(-3750.701 -959.69)"/>
                    <path id="prefix__Path_35679" d="M3784.675 984.084c0 .487-.285.883-.637.883h-29.461c-.352 0-.638-.4-.638-.883 0-.489.286-.884.638-.884h29.461c.352 0 .637.4.637.884z" class="prefix__cls-9" data-name="Path 35679" transform="translate(-3749.757 -978.473)"/>
                </g>
                <g id="prefix__Group_13516" data-name="Group 13516" transform="translate(16.992 29.807)">
                    <path id="prefix__Path_35680" d="M3780.781 798.445a1.273 1.273 0 0 1-1.275 1.286h-24.243a1.618 1.618 0 0 1-1.532-1.276 45.318 45.318 0 0 1 0-15.84 1.618 1.618 0 0 1 1.532-1.276h24.243a1.273 1.273 0 0 1 1.275 1.287q-.068 7.906 0 15.819z" class="prefix__cls-11" data-name="Path 35680" transform="translate(-3753.033 -781.339)"/>
                    <path id="prefix__Path_35681" d="M3787.929 798.444a1.288 1.288 0 0 1-1.287 1.287H3762.4a1.6 1.6 0 0 1-1.521-1.276 47.673 47.673 0 0 1 0-15.839 1.6 1.6 0 0 1 1.521-1.277h24.243a1.288 1.288 0 0 1 1.287 1.287z" class="prefix__cls-10" data-name="Path 35681" transform="translate(-3758.772 -781.339)"/>
                </g>
                <path id="prefix__Path_35682" d="M3771.782 827.163c3.732-13.423-3.386-26.847-.326-40.27a.976.976 0 0 0-.961-1.287h-.435a1.748 1.748 0 0 0-1.612 1.287c-3.06 13.423 4.058 26.847.325 40.27z" class="prefix__cls-6" data-name="Path 35682" transform="translate(-3747.728 -754.941)"/>
                <path id="prefix__Path_35683" d="M3877.4 827.163c3.732-13.423-3.385-26.847-.325-40.27a.976.976 0 0 0-.962-1.287h-.435a1.75 1.75 0 0 0-1.613 1.287c-3.059 13.423 4.058 26.847.326 40.27z" class="prefix__cls-6" data-name="Path 35683" transform="translate(-3832.111 -754.941)"/>
            </g>
        </g>
    </g>
</svg>
