<svg id="Material_icons-06-23" data-name="Material icons-06-23" xmlns="http://www.w3.org/2000/svg" width="57.391" height="55" viewBox="0 0 57.391 55">
  <path id="Path_33375" data-name="Path 33375" d="M45.985,8.174h1.841V3.391H31.087V1H26.3V3.391H9.565V8.174h1.841L3.207,27.3H0V29.7a11.957,11.957,0,0,0,23.913,0V27.3H20.706l-8.2-19.13H26.3v35.87H23.913a4.787,4.787,0,0,0-4.783,4.783v2.391H16.739V56H40.652V51.217H38.261V48.826a4.787,4.787,0,0,0-4.783-4.783H31.087V8.174h13.8l-8.2,19.13H33.478V29.7a11.957,11.957,0,0,0,23.913,0V27.3H54.185ZM11.957,36.87a7.188,7.188,0,0,1-6.765-4.783h13.53A7.188,7.188,0,0,1,11.957,36.87ZM8.41,27.3l3.546-8.276L15.5,27.3ZM33.478,48.826v2.391H23.913V48.826h9.565Zm11.957-29.8L48.981,27.3h-7.1Zm0,17.842a7.188,7.188,0,0,1-6.765-4.783H52.2A7.188,7.188,0,0,1,45.435,36.87Z" transform="translate(0 -1)" fill="#0e6c75"/>
</svg>
