<svg xmlns="http://www.w3.org/2000/svg" width="66" height="55" viewBox="0 0 66 55">
  <g id="Group_17824" data-name="Group 17824" transform="translate(-1586.732 -1099.505)">
    <g id="Material_icons-07-03" data-name="Material icons-07-03" transform="translate(1586.732 1099.505)">
      <path id="Path_33544" data-name="Path 33544" d="M60.5,10.25H57.75V7.5h-5.5v2.75h-5.5V2H22v8.25H13.75V7.5H8.25v2.75H5.5A5.506,5.506,0,0,0,0,15.75V51.5A5.506,5.506,0,0,0,5.5,57h55A5.506,5.506,0,0,0,66,51.5V15.75A5.506,5.506,0,0,0,60.5,10.25ZM27.5,7.5H41.25v2.75H27.5Zm-22,44V15.75h55V35l0,16.5Z" transform="translate(0 -2)" fill="#0e6c75"/>
      <line id="Line_478" data-name="Line 478" y2="22" transform="translate(32.589 19.814)" fill="none" stroke="#d3a09d" stroke-width="4"/>
      <line id="Line_479" data-name="Line 479" x1="22" transform="translate(21.59 30.826)" fill="none" stroke="#d3a09d" stroke-width="4"/>
    </g>
  </g>
</svg>
