<svg xmlns="http://www.w3.org/2000/svg" width="55" height="55" viewBox="0 0 55 55">
  <path id="Shape" d="M16.592,55a8.388,8.388,0,0,1-6.222-2.777,8.177,8.177,0,0,1,1.1-11.97l2.927,3.541a3.436,3.436,0,0,0-1.384,3.79,3.66,3.66,0,1,0,6.48-3.077c-.028-.037-.722-.876-1.873-2.266-3.9-4.713-13.036-15.75-15.58-18.948A9.222,9.222,0,0,1,0,17.593a7.993,7.993,0,0,1,1.288-4.377A8.368,8.368,0,0,1,4.7,10.255c4.71-2.411,8.337-4.292,10.986-5.666C24.534,0,24.534,0,26.56,0h.058a7.9,7.9,0,0,1,4.693,14.252L13.446,24.441,10.4,20.719a3.542,3.542,0,0,0,1.428-3.861,3.586,3.586,0,0,0-3.55-2.784A3.747,3.747,0,0,0,5,16.177a3.824,3.824,0,0,0,.675,4.161c3.151,4.034,16.047,19.615,17.241,21.034a8.225,8.225,0,0,1,1.893,4.464l1.577-.995c3.75-2.365,11.552-7.285,13.058-8.253a3.627,3.627,0,0,0,1.7-2.527,3.209,3.209,0,0,0-.837-2.6l-.683-.784c.278-.592.575-1.215.864-1.771a9.744,9.744,0,0,0,2.947-.913l.823.986a7.26,7.26,0,0,1,1.576,4.59,8.165,8.165,0,0,1-3.419,6.639l-21.6,13.626A8.368,8.368,0,0,1,16.592,55ZM26.65,4.624a3.352,3.352,0,0,0-1.4.307L13.228,11.087a8.255,8.255,0,0,1,3.334,6.261l11.681-6.619A3.24,3.24,0,0,0,29.5,6.348,3.16,3.16,0,0,0,26.65,4.624Zm-1.618,33.92h0l-1.477-1.79,7.9-4.622-.57,1.4L30.06,35.6l-5.028,2.943Zm-3.385-4.1h0l-1.477-1.79,11.012-6.435,1.53,1.758L21.648,34.441Zm11.37-.067v0a77.446,77.446,0,0,1,8.473-16.025,45.512,45.512,0,0,0-6.1,6.378c-2.7-4.5-.279-8.938,2.23-11.869A5.745,5.745,0,0,0,39,16.236a11.487,11.487,0,0,1,.447-5.387,28.113,28.113,0,0,1,4.842-4.033,5.208,5.208,0,0,0,.6,3.119,9.934,9.934,0,0,1,1.193-4.217A17.134,17.134,0,0,1,55,2.291a22.9,22.9,0,0,1-2.346,8.259,11.923,11.923,0,0,1-4.1,1.909,9.424,9.424,0,0,0,1.669.143,10.613,10.613,0,0,0,1.754-.145,39.186,39.186,0,0,1-2.287,5.216,12.878,12.878,0,0,1-5.049,1.89,7.09,7.09,0,0,0,2.474.418,4.317,4.317,0,0,0,1.37-.182,18.631,18.631,0,0,1-3.861,4.724,8.2,8.2,0,0,1-5.288,2.165c-.079,0-.16,0-.239,0a63,63,0,0,0-3.069,6.423l-3,1.266ZM18.24,30.31h0L16.761,28.52l10.886-6.367,1.53,1.76-10.937,6.4Z" fill="#0e6c75"/>
</svg>
