<?xml version="1.0" encoding="utf-8"?>
<!-- Generator: Adobe Illustrator 24.1.2, SVG Export Plug-In . SVG Version: 6.00 Build 0)  -->
<svg version="1.1" id="Слой_1" xmlns="http://www.w3.org/2000/svg" xmlns:xlink="http://www.w3.org/1999/xlink" x="0px" y="0px"
	 viewBox="0 0 1920.6 121.4" enable-background="new 0 0 1920.6 121.4" xml:space="preserve">
<path fill-rule="evenodd" clip-rule="evenodd" fill="#8A939F" d="M1920.6,20.5v100.8h-72.8L0,121.4V50.7l95.8-36.3l212.3,33
	c0,0,204.8-12.5,333-13.1s106.1,1.1,179.7,10.9c73.6,9.8,68.8,22.3,114.8,28.2c46,5.9,130.6-18.8,130.6-18.8s32.3,9.1,50.6,11.1
	c18.3,1.9,24.1,0.5,37.7-6.3c13.6-6.8,38.2-12.6,65.9-17.3c18.2-2.9,36.6-4.5,55-4.7h80.5l70-9.3l97.3-7.7L1580.5,0l82.6,10l76.6,10
	c0,0,80,16.8,125.2,17c39.4,0.1,52.4-12.4,55-15.6C1920.4,20.8,1920.6,20.5,1920.6,20.5z"/>
</svg>
