<?xml version="1.0" encoding="utf-8"?>
<!-- Generator: Adobe Illustrator 24.1.2, SVG Export Plug-In . SVG Version: 6.00 Build 0)  -->
<svg version="1.1" id="Слой_1" xmlns="http://www.w3.org/2000/svg" xmlns:xlink="http://www.w3.org/1999/xlink" x="0px" y="0px"
	 viewBox="0 0 1046.7 668" enable-background="new 0 0 1046.7 668" xml:space="preserve">
<rect fill="none" width="1012" height="635"/>
<g id="Mask_Group_53" transform="translate(-908 -1525)">
	<g id="Group_20438" transform="translate(726.563 1433.339)">
		<path id="Path_53378" fill="#E6F6FA" d="M310.6,719.6c-219.9-182.1-106-300.6-15.1-322.1s66.1-155,131.6-225.6
			c42.6-46,172.3-85.7,322.3,18s335.5,97.9,405.5,152.1c89,68.8,92.9,229.3,32.6,304.8c-66.1,82.8-144.5,80-144.5,80L310.6,719.6z"
			/>
		<g id="Group_17058" transform="translate(249.662 112.368)">
			<path id="Path_44809" fill="#6CC18C" d="M550.8,438.9c-0.7,0.8-1.4,1.6-2.1,2.4c-6.4,7.1-13,14-19.6,20.7
				c-0.6,0.6-1.2,1.2-1.9,1.8c-0.4,0.4-0.8,0.8-1.2,1.2c-0.7,0.7-1.4,1.4-2.1,2c-0.8,0.8-1.7,1.6-2.5,2.4c-0.6,0.6-1.2,1.1-1.8,1.7
				c-0.7,0.7-1.4,1.4-2.1,2c-5.1,4.8-10.3,9.5-15.6,14.1c-1.3,1.2-2.7,2.3-4,3.4c-1.5,1.3-2.9,2.5-4.4,3.7c-0.7,0.6-1.4,1.2-2.1,1.7
				c-0.4,0.3-0.8,0.6-1.2,1c-0.8,0.6-1.5,1.3-2.3,1.9c-0.5,0.4-1,0.8-1.5,1.2c-0.6,0.5-1.2,1-1.8,1.5c-0.5,0.4-0.9,0.7-1.4,1.1
				c-0.8,0.6-1.5,1.2-2.3,1.8c-0.3,0.3-0.7,0.5-1.1,0.8c-0.7,0.5-1.3,1.1-2,1.6c-0.7,0.6-1.5,1.2-2.3,1.7c-1.5,1.2-3,2.3-4.5,3.4
				s-3,2.2-4.5,3.4c-9.6,7-19.3,13.7-29.1,20c-0.6,0.4-1.3,0.8-2,1.3c-1,0.6-2,1.3-2.9,1.9c-0.8,0.5-1.6,1-2.4,1.5s-1.6,1-2.5,1.5
				s-1.6,1-2.5,1.5c-3.4,2.1-6.7,4.1-10.1,6c-0.7,0.4-1.5,0.9-2.2,1.3l-2.5,1.4l-2.5,1.4c-1.6,0.9-3.3,1.9-4.9,2.8s-3.3,1.8-4.9,2.7
				c-0.8,0.4-1.6,0.9-2.5,1.3c-1.7,0.9-3.3,1.8-5,2.6c-0.8,0.4-1.7,0.9-2.5,1.3c-8.1,4.2-16.1,8.2-24.1,11.9
				c-0.8,0.4-1.6,0.7-2.3,1.1c-0.7,0.3-1.5,0.7-2.3,1c-0.8,0.4-1.6,0.7-2.4,1.1c-0.8,0.4-1.6,0.7-2.3,1.1c-2,0.9-4,1.8-6,2.7
				c-0.8,0.3-1.6,0.7-2.4,1l-1,0.4c-0.8,0.3-1.6,0.7-2.3,1c-1.6,0.7-3.1,1.3-4.7,2c-5.4,2.3-10.8,4.5-16.2,6.6
				c-0.5,0.2-1,0.4-1.6,0.6c-1.8,0.7-3.6,1.4-5.3,2c-0.8,0.3-1.5,0.6-2.3,0.9c-1.6,0.6-3.1,1.2-4.6,1.7c-2,0.7-3.9,1.4-5.9,2.1
				c-11.7,4.2-23.2,7.9-34.5,11.3c-0.7,0.2-1.5,0.4-2.2,0.7c-1.5,0.4-2.9,0.9-4.4,1.3c-22.1-7.1-43.7-15.7-64.7-25.6
				c-66.5-31.5-120.2-75.1-150.5-127c0,0-16.3-27.3-29.5-70.2C7.4,361.9-0.3,324.5,0,283.6c45.1-6.2,192.3-18.3,367.5,52.5
				c7.4,3,14.8,6.1,22.2,9.4c0,0,0,0,0,0c26.5,11.7,52.4,24.7,77.6,39.1C496.2,401,524,419.2,550.8,438.9z"/>
			<path id="Path_44810" fill="#75CC96" d="M550.8,438.9c-0.7,0.8-1.4,1.6-2.1,2.4c-6.4,7.1-13,14-19.6,20.7
				c-0.6,0.6-1.2,1.2-1.9,1.8c-0.4,0.4-0.8,0.8-1.2,1.2c-0.7,0.7-1.4,1.4-2.1,2c-0.8,0.8-1.7,1.6-2.5,2.4c-0.6,0.6-1.2,1.1-1.8,1.7
				c-0.7,0.7-1.4,1.4-2.1,2c-5.1,4.8-10.3,9.5-15.6,14.1c-1.3,1.2-2.7,2.3-4,3.4c-1.5,1.3-2.9,2.5-4.4,3.7c-0.7,0.6-1.4,1.2-2.1,1.7
				c-0.4,0.3-0.8,0.6-1.2,1c-0.8,0.6-1.5,1.3-2.3,1.9c-0.5,0.4-1,0.8-1.5,1.2c-0.6,0.5-1.2,1-1.8,1.5c-0.5,0.4-0.9,0.7-1.4,1.1
				c-0.8,0.6-1.5,1.2-2.3,1.8c-0.3,0.3-0.7,0.5-1.1,0.8c-0.7,0.5-1.3,1.1-2,1.6c-0.7,0.6-1.5,1.2-2.3,1.7c-1.5,1.2-3,2.3-4.5,3.4
				s-3,2.2-4.5,3.4c-9.6,7-19.3,13.7-29.1,20c-0.6,0.4-1.3,0.8-2,1.3c-1,0.6-2,1.3-2.9,1.9c-0.8,0.5-1.6,1-2.4,1.5s-1.6,1-2.5,1.5
				s-1.6,1-2.5,1.5c-3.4,2.1-6.7,4.1-10.1,6c-0.7,0.4-1.5,0.9-2.2,1.3l-2.5,1.4c-0.8,0.5-1.6,0.9-2.5,1.4c-1.6,0.9-3.3,1.9-4.9,2.8
				s-3.3,1.8-4.9,2.7c-0.8,0.4-1.6,0.9-2.5,1.3c-1.7,0.9-3.3,1.8-5,2.6c-0.8,0.4-1.7,0.9-2.5,1.3c-8.1,4.2-16.1,8.2-24.1,11.9
				c-0.8,0.4-1.6,0.7-2.3,1.1c-0.7,0.3-1.5,0.7-2.3,1c-0.8,0.4-1.6,0.7-2.4,1.1c-0.8,0.4-1.6,0.7-2.3,1.1c-2,0.9-4,1.8-6,2.7
				c-0.8,0.3-1.6,0.7-2.4,1l-1,0.4c-0.8,0.3-1.6,0.7-2.3,1c-1.6,0.7-3.1,1.3-4.7,2c-5.4,2.3-10.8,4.5-16.2,6.6
				c-0.5,0.2-1,0.4-1.6,0.6c-1.8,0.7-3.6,1.4-5.3,2c-0.8,0.3-1.5,0.6-2.3,0.9c-1.6,0.6-3.1,1.2-4.6,1.7c-2,0.7-3.9,1.4-5.9,2.1
				c-11.7,4.2-23.2,7.9-34.5,11.3c-0.7,0.2-1.5,0.4-2.2,0.7c-1.5,0.4-2.9,0.9-4.4,1.3c-22.1-7.1-43.7-15.7-64.7-25.6
				c-66.5-31.6-120.2-75.1-150.4-127c0,0-16.3-27.3-29.5-70.2c5.1,1.2,10,2.3,14.7,3.5c34.9,8.7,55.3,36.6,87.2,51.1
				c38.1,17.3,91.1,2.7,127.1-13.4c46.1-20.6,84.3-43.7,136.3-45.9c28.5-1.2,57-2,85.4-2.5C496.2,401,524,419.2,550.8,438.9z"/>
			<path id="Path_44811" fill="#5AA877" d="M389.7,345.4c-7.5-1-15.4-3.5-22-5c-39-9-77.1-12.2-117.4-12.2
				c-60.3,0-110.4,12.5-166.7,32.2c-23.5,8.1-48.5,11.1-73.2,8.9c-7-28-10.5-56.8-10.4-85.6c45.1-6.2,192.3-18.3,367.5,52.5
				C374.9,339,382.3,342.2,389.7,345.4z"/>
			<path id="Path_44818" fill="#6CC18C" d="M905.7,360.5c0,0.1-0.1,0.2-0.1,0.3c-13,34.1-35.1,72.7-68.7,115.9
				c-57.9,74.4-137.3,121.6-224,146.5c-116-1.5-264.8-12.8-415.2-48.7c-0.8-0.2-1.6-0.4-2.3-0.6c0.2-0.2,0.4-0.5,0.6-0.7
				c45.1-51.4,91.4-92.7,137.6-125.7c58.5-41.8,117-70.2,173.1-88.8c123.2-41,234.9-35.1,310.9-21.3
				C858.6,344.8,889.3,354.5,905.7,360.5z"/>
			<path id="Path_44819" fill="#75CC96" d="M907.3,360.7c-13,34.1-35.1,72.7-68.7,115.9c-0.9,1.1-1.7,2.2-2.6,3.3
				c-0.2,0.2-0.3,0.4-0.5,0.6c-0.7,0.9-1.4,1.7-2.1,2.6c-0.2,0.3-0.4,0.5-0.6,0.8c-0.7,0.9-1.4,1.8-2.2,2.6
				c-1.4,1.6-2.7,3.2-4.1,4.8c-0.6,0.7-1.1,1.3-1.7,2c-0.1,0.2-0.3,0.3-0.4,0.5c-0.8,0.9-1.6,1.8-2.4,2.7c-1.1,1.2-2.2,2.4-3.3,3.7
				c-0.9,1-1.8,2-2.7,3c-0.8,0.9-1.6,1.7-2.4,2.5c-0.7,0.7-1.4,1.5-2.1,2.2c-0.2,0.2-0.3,0.3-0.5,0.5c-0.7,0.7-1.4,1.5-2.1,2.2
				c-0.1,0.1-0.1,0.1-0.2,0.2c-0.8,0.8-1.5,1.5-2.3,2.3c-0.9,0.9-1.7,1.7-2.6,2.6c-1,1-2,2-3.1,3c0,0,0,0-0.1,0.1c-1,1-2,1.9-3,2.9
				c-0.1,0-0.1,0.1-0.1,0.1c-0.8,0.8-1.6,1.5-2.4,2.3c-0.4,0.3-0.7,0.7-1.1,1c-0.9,0.8-1.8,1.7-2.7,2.5c-1,0.9-2,1.8-3,2.7
				c-0.2,0.2-0.4,0.3-0.6,0.5c-0.8,0.7-1.7,1.5-2.5,2.2l-0.6,0.5c-1,0.9-2,1.7-3,2.6c-1.1,0.9-2.2,1.8-3.3,2.7
				c-1.1,0.9-2.2,1.8-3.3,2.7c-0.8,0.7-1.7,1.3-2.5,2c-0.5,0.4-0.9,0.7-1.4,1.1c-0.8,0.6-1.5,1.2-2.3,1.8c-0.3,0.2-0.6,0.5-0.9,0.7
				c-1,0.8-2,1.5-3,2.3c-0.9,0.7-1.8,1.4-2.7,2.1c-0.4,0.3-0.9,0.7-1.3,1c-0.9,0.7-1.8,1.3-2.7,2s-1.8,1.3-2.7,2
				c-1.3,0.9-2.5,1.8-3.8,2.7c-0.5,0.4-1.1,0.8-1.6,1.1c-0.6,0.4-1.2,0.8-1.8,1.2c-0.4,0.3-0.8,0.5-1.1,0.8
				c-0.6,0.4-1.3,0.9-1.9,1.3l-1.5,1c-1.1,0.7-2.1,1.4-3.2,2.1c-1.1,0.7-2.2,1.4-3.3,2.1c-1.2,0.8-2.4,1.5-3.6,2.2
				c-1.1,0.7-2.3,1.4-3.4,2.1c-0.1,0.1-0.2,0.1-0.3,0.2c-1.2,0.7-2.3,1.4-3.5,2.1c-1,0.6-2.1,1.2-3.1,1.8c-0.2,0.1-0.5,0.3-0.7,0.4
				c-1.1,0.7-2.3,1.3-3.5,2c-1,0.6-2,1.1-3,1.7c-2.9,1.6-5.8,3.2-8.7,4.8c-1,0.5-2,1.1-3.1,1.6c-1.2,0.6-2.4,1.2-3.6,1.9l-0.2,0.1
				c-1.2,0.6-2.4,1.2-3.7,1.8c-1.5,0.8-3,1.5-4.5,2.2c-0.9,0.4-1.8,0.9-2.6,1.3c-0.3,0.1-0.6,0.3-0.9,0.4c-1.1,0.5-2.2,1-3.3,1.6
				c-2.5,1.2-5.1,2.3-7.6,3.5c-0.1,0-0.1,0.1-0.2,0.1c-1.2,0.5-2.4,1.1-3.6,1.6l-0.2,0.1c-1.3,0.5-2.5,1.1-3.8,1.6
				c-2.3,1-4.7,1.9-7,2.9c-0.1,0-0.2,0.1-0.3,0.1c-0.7,0.3-1.4,0.6-2.1,0.8c-1,0.4-2,0.8-3,1.2c-1.1,0.4-2.2,0.8-3.2,1.2
				c-1.3,0.5-2.6,1-3.9,1.5c0,0,0,0-0.1,0c-1.3,0.5-2.6,1-4,1.4s-2.7,1-4,1.4c-1.3,0.5-2.6,0.9-3.9,1.4c-0.1,0-0.1,0-0.2,0.1
				c-1.3,0.4-2.5,0.9-3.8,1.3c0,0-0.1,0-0.1,0c-1.3,0.4-2.7,0.9-4,1.3c-2.6,0.8-5.1,1.6-7.7,2.4c-0.3,0.1-0.6,0.2-1,0.3
				c-2.5,0.8-5,1.5-7.5,2.2c-4.8,1.4-9.7,2.7-14.6,3.9c-6.5,1.7-13,3.2-19.6,4.6c-1.6,0.4-3.3,0.7-4.9,1s-3.3,0.7-4.9,1
				c-3.3,0.7-6.6,1.3-9.9,1.9c-1.6,0.3-3.3,0.6-4.9,0.9c0,0-0.1,0-0.1,0c-1.6,0.3-3.3,0.5-4.9,0.8c-1.7,0.3-3.3,0.5-5,0.8
				s-3.3,0.5-5,0.7s-3.3,0.5-5,0.7c-1.5,0.2-3,0.4-4.5,0.6c-2.1,0.3-4.2,0.5-6.3,0.8c-1.2,0.1-2.4,0.3-3.6,0.4
				c-0.6,0.1-1.2,0.1-1.9,0.2c-1.3,0.1-2.5,0.3-3.8,0.4c-1.6,0.2-3.2,0.3-4.8,0.5l-0.4,0c-1.2,0.1-2.3,0.2-3.5,0.3
				c-0.4,0-0.7,0.1-1.1,0.1c-0.4,0-0.8,0.1-1.2,0.1c-4.6,0.4-9.2,0.7-13.8,1c-0.3,0-0.6,0-0.9,0.1c-1.1,0.1-2.2,0.1-3.4,0.2
				c-1.6,0.1-3.2,0.2-4.8,0.2c-0.9,0-1.7,0.1-2.6,0.1c-2.5,0.1-5,0.2-7.5,0.2c-0.6,0-1.3,0-2,0.1c-1.5,0-2.9,0.1-4.4,0.1
				c-1.9,0-3.7,0.1-5.6,0.1c-1.5,0-3,0-4.5,0c-30.4,0-60.8-2.2-90.8-6.5c-35-5-69.5-12.9-103.2-23.8c-22.1-7.1-43.7-15.7-64.7-25.6
				c-3.4-1.6-6.8-3.3-10.2-5c5.9-5.9,11.3-10.6,11.3-10.7c45.1-51.4,91.4-92.7,137.6-125.7c7.1,7.1,14.5,13.8,22.3,20.2
				c27.4,22.6,61.8,34.9,96.5,40.2c69.9,10.6,138.3-4.9,202.6-31.7c65.8-27.3,121.3-74.1,187.3-100.8
				C861.7,368.2,887,356.3,907.3,360.7z"/>
			<path id="Path_44820" fill="#5AA877" d="M819.2,337.3c-38.4,5.4-72.6,20.2-107.6,35.8c-39.2,17.4-85.2,25.4-127.8,19.4
				c-10.7-1.5-54.8-16.9-75.5-33.8C631.4,317.6,743.2,323.5,819.2,337.3z"/>
			<ellipse id="Ellipse_1867" fill="#6CC18C" cx="418.1" cy="587.2" rx="379" ry="60.1"/>
			<ellipse id="Ellipse_1868" fill="#5AA877" cx="414.2" cy="576.8" rx="353.2" ry="40.2"/>
		</g>
		<g id="Group_20447" transform="translate(537.82 116.67)">
			<g id="Group_20440" transform="translate(131.712 7.74)">
				<g id="Group_20439" transform="translate(0 10.376)">
					<rect id="Rectangle_16241" x="11.9" y="60.6" fill="#F0C17D" width="35.1" height="28.4"/>
					<path id="Path_53394" fill-rule="evenodd" clip-rule="evenodd" fill="#FFDBA7" d="M29.1,74.1c-0.1,0-0.2,0-0.3,0
						c-3.5,0-5.3,0-7.2-0.8c-1.8-0.8-2.7-2.6-5.3-5c-2.2-2.1-6-4.2-7-6.5C8.2,59,8.5,56,8,52c-2,1.1-4.2-4.6-4.6-6.5
						C2.8,42.7,0.8,38,0.2,34.8C-0.2,33,0,31.6,0.6,31.1c1.3-1,2.6-0.4,4.6,2.2c0.1-2.2,0.3-4.5,0.2-7c-0.1-4.6-0.3-8.4,0.3-11.6
						c0.5-3.2,2-6.2,4.5-8.3l0,0v0c1.5-1.3,3.2-2.4,4.9-3.3l0.1,0c0.1-0.1,0.2-0.1,0.4-0.2c0.1,0,0.1-0.1,0.2-0.1
						c0.1,0,0.2-0.1,0.3-0.1l0.3-0.1c0.1,0,0.2-0.1,0.3-0.1c0.1,0,0.2-0.1,0.3-0.1c0.1-0.1,0.3-0.1,0.4-0.2L17.5,2
						C17.6,2,17.8,1.9,18,1.8l0,0c5-1.7,10.3-2.3,15.5-1.5c5,0.6,9.8,2.7,13.6,6c2.4,2.1,4,5.1,4.5,8.3c0.6,3.2,0.5,7,0.3,11.6
						c-0.1,2.5,0.1,4.8,0.2,7c1.9-2.6,3.2-3.1,4.5-2.1c0.6,0.5,0.8,1.9,0.5,3.7c-0.6,3.2-2.6,7.9-3.3,10.7c-0.4,1.9-2.5,7.5-4.5,6.5
						c-0.4,3.9-0.2,6.8-1.3,9.5c-0.9,2.3-4.8,4.4-6.9,6.5c-2.5,2.5-3.4,4.3-5.2,5.1S32.3,74.1,29.1,74.1z"/>
				</g>
				<path id="Path_53395" fill-rule="evenodd" clip-rule="evenodd" fill="#632404" d="M12.4,21.6c-1.6,2-5.8,15.5-5.3,28.4
					C1.6,29.8-1.4,15.4,10.7,6.3c15.8-11.9,35-4.3,36.5,0.3c12.7,4.4,7.6,24.5,4.1,40.5c-0.1-8-1.8-18-5.8-25c-1-0.9-5.1,4.4-6,4.3
					C30.1,26,26.9,23.9,12.4,21.6z"/>
			</g>
			<path id="Path_53396" fill-rule="evenodd" clip-rule="evenodd" fill="#BFD8DB" d="M138.1,101.7l22.3,2.8l22.6-2.9L181,279h-40.5
				l-10.5-146.1L138.1,101.7z"/>
			<g id="Group_20441" transform="translate(137.627 93.594)">
				<path id="Path_53397" fill-rule="evenodd" clip-rule="evenodd" fill="#D8EBED" d="M41.1,0c0.5,3.9,1.7,5.7,4.3,7.7L34.3,26.8
					L22.5,10.2C28.4,7,38.8,3,41.1,0z"/>
				<path id="Path_53398" fill-rule="evenodd" clip-rule="evenodd" fill="#D8EBED" d="M4.4,0C3.8,3.9,2.6,5.7,0,7.7l11.2,19.1
					L23,10.2C17.1,7,6.6,3,4.4,0z"/>
			</g>
			<path id="Path_53399" fill-rule="evenodd" clip-rule="evenodd" fill="#749EB8" d="M161,105.1l7.6,11.2l-0.2,2.8l-6.2,6.3l7,11.3
				l-8.7,90.5l-0.1-1.2l-0.1,1.2l-8.7-90.5l7-11.3l-6.2-6.3l-0.2-2.8l7.6-11.2l0.7,0L161,105.1z"/>
			<path id="Path_53400" fill-rule="evenodd" clip-rule="evenodd" fill="#44515C" d="M92.4,122.7c-4.7,1.9-1.5,5.7-0.4,10.5
				c10.3,42.8,17.9,68.6,19.9,94.6c1.8,24.3-1.4,48.5-5.7,90.7l45.6,0.4l2.8-83.4c0.1-4.4-0.1-8.7-0.7-13l-15.8-120.6
				C128.6,110.6,118.1,112.5,92.4,122.7z"/>
			<path id="Path_53401" fill-rule="evenodd" clip-rule="evenodd" fill="#29343D" d="M228.5,122.7c4.7,1.9,1.3,5.7,0.4,10.5
				c-5.1,25.2-15.8,64.1-17.3,92.6c-1.3,26.2,2.4,64.8,3.8,91.6h-47.4l-1.7-81.9c-0.1-4.4,0.1-8.7,0.7-13l15.8-120.6
				C192.2,110.6,202.7,112.5,228.5,122.7z"/>
			<path id="Path_53402" fill-rule="evenodd" clip-rule="evenodd" fill="#F0C17D" d="M285.8,140.7l18.8-3.3l16.4-24.2l-2.7-4.4
				l-17.9,16.3l-17-3.2l-9.4,8.8l-7.7,9.3l12.7,3.4L285.8,140.7z"/>
			<path id="Path_53403" fill-rule="evenodd" clip-rule="evenodd" fill="#BFD8DB" d="M264.2,139.4l2.6-4.8l23.1,5.4l-2.6,3.3
				L264.2,139.4z"/>
			<path id="Path_53404" fill-rule="evenodd" clip-rule="evenodd" fill="#29343D" d="M215.1,121.4h7.9c7.4,0,11.2,7.3,13.5,15.5
				l17,60.3c8.9,31.4-10.4,39.3-20.9,32.5c-4.6-3-7.5-9.5-9.1-16.3l-24.3-76.5C197.2,128.5,207.7,121.4,215.1,121.4z"/>
			<path id="Path_53405" fill-rule="evenodd" clip-rule="evenodd" fill="#29343D" d="M262.5,137.9l-36,74.2
				c-7,14.4,19.8,26.3,29.2,6.4l35.2-74.8L262.5,137.9z"/>
			<path id="Path_53406" fill-rule="evenodd" clip-rule="evenodd" fill="#44515C" d="M91.9,122.9c-3.5-0.1-6.8,11.5-8.1,16.9
				l-16.8,72c-1.4,5.3-1.9,7.8-1.6,11.2c2.5,16.6,24.9,12.7,27.4,1.1c-0.2-3.2,0.3-4.6,2.3-10.3l14.6-39.2
				C107.7,164.3,104,123.2,91.9,122.9z"/>
			<g id="Group_20443" transform="translate(65.838 202.4)">
				<g id="Group_20442" transform="translate(77.366 4.23)">
					<path id="Path_53407" fill-rule="evenodd" clip-rule="evenodd" fill="#FFDBA7" d="M19.3,25.2l15.9-1.1c1.8-0.1,3.1-1.6,3-3.4
						c0,0,0-0.1,0-0.1L37.3,2.8c-0.1-1.8-4-3-5.8-2.7L18,0.9c-1.8,0.3-3.1,1.7-4.1,3.2L0,6.5c1.2,4.4,2.4,11.3,3.6,15.7l11.6,0.4
						C16.1,24,17.6,25,19.3,25.2z"/>
					<path id="Path_53408" fill-rule="evenodd" clip-rule="evenodd" fill="#FFDBA7" d="M36.2,18.2l-9.5-0.1
						c-2.5,0.1-4.4,2.1-4.5,4.5l0,0c0.1,2.1,7,1.3,9.5,1.4l5,0.1C41.5,24.2,42.9,18.3,36.2,18.2z"/>
					<path id="Path_53409" fill-rule="evenodd" clip-rule="evenodd" fill="#FFDBA7" d="M37.4,12.1L28.2,12c-2.3,0-4.4,2.5-4.3,4.7
						l0,0c0.1,2.2,6.7,1.4,9,1.4l4.8,0.1C42.3,18.3,43.7,12.2,37.4,12.1z"/>
					<path id="Path_53410" fill-rule="evenodd" clip-rule="evenodd" fill="#FFDBA7" d="M37.7,6.1L29.9,6c-2,0-3.5,2.5-3.2,4.7l0,0
						c0.4,2.2,6,1.3,8,1.4l4.1,0.1C42.8,12.2,43.2,6.1,37.7,6.1z"/>
					<path id="Path_53411" fill-rule="evenodd" clip-rule="evenodd" fill="#FFDBA7" d="M38.4,0.3L31.8,0c-1.7-0.1-3,2.2-2.8,4.3l0,0
						c0.2,2,4.9,1.4,6.6,1.5L39.1,6C42.4,6.2,42.9,0.5,38.4,0.3z"/>
				</g>
				<path id="Path_53412" fill-rule="evenodd" clip-rule="evenodd" fill="#44515C" d="M22.2,0.1c15-0.7,53.6,5.8,68.6,6.1
					c-0.6,5.9-1.4,13.5,0.4,22.4c-29.9,3.5-53.7,7.2-81.7,1.5c-10.9-2.2-11.2-13-7.2-20.5C6.7,1.6,14.7,0.6,22.2,0.1z"/>
			</g>
			<g id="Group_20446" transform="translate(116.358 157.38)">
				<g id="Group_20444" transform="translate(57.973)">
					<path id="Path_53413" fill-rule="evenodd" clip-rule="evenodd" fill="#1C1C1C" d="M10.5,17.8c3.1,11.5,5.5,20.7,7.3,29.9
						c1.4,6.7,2.5,13.4,3.4,21.1l2.5,0.7c-1-8.1-2.2-15.2-3.6-22.2c-1.9-9.4-4.3-18.6-7.4-30L10.5,17.8z"/>
					<rect id="Rectangle_16242" x="12.5" y="67.1" fill="#1C1C1C" width="21.2" height="5.9"/>
					<rect id="Rectangle_16243" x="12.5" y="67.1" fill="#292929" width="10.6" height="5.9"/>
					<path id="Path_53414" fill-rule="evenodd" clip-rule="evenodd" fill="#1C1C1C" d="M4.2,0.5L3.9,0.7C0.6,2.1-0.9,5.8,0.5,9.1
						l3,7.1C5,19.4,8.8,21,12,19.6l0.3-0.1c3.3-1.4,4.8-5.2,3.4-8.5l-3-7.1C11.2,0.6,7.4-0.9,4.2,0.5z"/>
				</g>
				<g id="Group_20445">
					<path id="Path_53415" fill-rule="evenodd" clip-rule="evenodd" fill="#292929" d="M23.3,17.8c-3.1,11.5-5.5,20.7-7.3,29.9
						c-1.4,6.7-2.5,13.4-3.5,21.1L10,69.1c1-8,2.2-15,3.6-22c1.9-9.4,4.3-18.6,7.4-30L23.3,17.8z"/>
					<rect id="Rectangle_16244" x="0" y="67.1" fill="#292929" width="21.2" height="5.9"/>
					<rect id="Rectangle_16245" x="10.6" y="67.1" fill="#1C1C1C" width="10.6" height="5.9"/>
					<path id="Path_53416" fill-rule="evenodd" clip-rule="evenodd" fill="#292929" d="M29.6,0.5l0.3,0.1c3.3,1.4,4.8,5.2,3.4,8.5
						l-3.1,7.1c-1.4,3.3-5.2,4.8-8.4,3.4l-0.3-0.1c-3.3-1.4-4.8-5.2-3.4-8.5l3-7.1C22.5,0.6,26.3-0.9,29.6,0.5z"/>
				</g>
			</g>
			<path id="Path_53417" fill-rule="evenodd" clip-rule="evenodd" fill="#773B20" d="M64,242.6h182.8l-27.6,366.9H91.6l-4.1-54.9
				L64,242.6z"/>
			<path id="Path_53418" fill-rule="evenodd" clip-rule="evenodd" fill="#773B20" d="M162.2,242.7h98.2l-27.6,366.9h-70.6V242.7z"/>
			<path id="Path_53419" fill-rule="evenodd" clip-rule="evenodd" fill="#643018" d="M45.5,230.5h219.6l-10.5,54.7H56L45.5,230.5z"
				/>
			<path id="Path_53420" fill-rule="evenodd" clip-rule="evenodd" fill="#643018" d="M162.2,230.5h116.7l-10.5,54.7H162.2V230.5z"/>
			<path id="Path_53421" fill-rule="evenodd" clip-rule="evenodd" fill="#643018" d="M35.6,609.5h262.7L235.5,575H89L35.6,609.5z"/>
		</g>
	</g>
</g>
</svg>
