<svg xmlns="http://www.w3.org/2000/svg" width="555.015" height="375.227" viewBox="0 0 555.015 375.227">
  <g id="Group_17822" data-name="Group 17822" transform="translate(-943.237 -387.977)">
    <path id="Path_50549" data-name="Path 50549" d="M1185.3,847.665h268.242s124.5-219.174,73.011-228.045c-61.074-10.523-97.719,110.269-111.46,84.411s-18.442-152.628-69.518-152.587c-48.146.039-59.5,164.285-80.877,159.631s-76.226-98.469-112.166-94.7S1185.3,847.665,1185.3,847.665Z" transform="translate(-117.506 -84.462)" fill="#75cc96"/>
    <path id="Path_50550" data-name="Path 50550" d="M1511.22,980.321h155.875s72.347-127.362,42.427-132.517c-35.491-6.115-56.785,64.077-64.77,49.052s-10.717-88.692-40.4-88.668c-27.978.023-34.576,95.466-47,92.761s-44.3-57.22-65.18-55.028S1511.22,980.321,1511.22,980.321Z" transform="translate(-294.198 -217.118)" fill="#0e6c75"/>
    <path id="Path_50551" data-name="Path 50551" d="M1121.934,1027.848h115.617s53.662-94.468,31.469-98.292c-26.324-4.535-42.118,47.528-48.041,36.383s-7.949-65.786-29.964-65.768c-20.752.017-25.646,70.81-34.86,68.8s-32.855-42.442-48.345-40.816S1121.934,1027.848,1121.934,1027.848Z" transform="translate(-95.353 -264.645)" fill="#b4d0be"/>
    <path id="Path_50552" data-name="Path 50552" d="M1561,594.636v3.11s1.257-14.933,21.443-23.27c28.018-11.575,68.1-4.024,100.994,14.619,34.173,19.371,61.949,19.371,61.949,19.371l-1.053-3.136c-5.361-.223-30.62-2.178-60.9-19.341-32.89-18.647-72.976-26.194-100.994-14.619C1562.254,579.706,1561,594.636,1561,594.636Z" transform="translate(-319.189 -91.914)" fill="#4d6882"/>
    <path id="Path_50553" data-name="Path 50553" d="M1561,567.876v19.308s1.257-14.93,21.443-23.267c28.018-11.575,68.1-4.027,100.994,14.619,30.277,17.163,55.535,19.118,60.9,19.341l-1.568-4.66-13.252-3.128s-2.664,3.709-15.5-.771c-25.645-8.954-42.4-30.214-93.808-37.034C1580.923,547.069,1561,567.876,1561,567.876Z" transform="translate(-319.189 -84.462)" fill="#7792aa"/>
    <path id="Path_50554" data-name="Path 50554" d="M1275.808,594.636v3.11s-1.258-14.933-21.443-23.27c-28.018-11.575-68.1-4.024-100.993,14.619-34.173,19.371-61.949,19.371-61.949,19.371l1.052-3.136c5.362-.223,30.62-2.178,60.9-19.341,32.89-18.647,72.976-26.194,100.993-14.619C1274.55,579.706,1275.808,594.636,1275.808,594.636Z" transform="translate(-76.565 -91.914)" fill="#4d6882"/>
    <path id="Path_50555" data-name="Path 50555" d="M1276.933,567.876v19.308s-1.258-14.93-21.443-23.267c-28.018-11.575-68.1-4.027-100.994,14.619-30.276,17.163-55.535,19.118-60.9,19.341l1.568-4.66,13.252-3.128s2.664,3.709,15.5-.771c25.646-8.954,42.4-30.214,93.809-37.034C1257.006,547.069,1276.933,567.876,1276.933,567.876Z" transform="translate(-77.69 -84.462)" fill="#7792aa"/>
    <path id="Path_50556" data-name="Path 50556" d="M1090.248,603.69a16.995,16.995,0,1,1-26.373-14.173,14.87,14.87,0,1,0,25,7.478A16.879,16.879,0,0,1,1090.248,603.69Z" transform="translate(-58.397 -104.133)" fill="#4d6882"/>
    <path id="Path_50557" data-name="Path 50557" d="M1092.614,595.5a14.869,14.869,0,1,1-.325-3.1A14.884,14.884,0,0,1,1092.614,595.5Z" transform="translate(-61.808 -99.538)" fill="#7792aa"/>
    <path id="Path_50558" data-name="Path 50558" d="M1093.079,603.356a7.533,7.533,0,0,1-6.779,7.492,7.161,7.161,0,0,1-.746.037,7.532,7.532,0,0,1-7.529-7.529,7.147,7.147,0,0,1,.037-.745,7.528,7.528,0,0,1,14.853-.823A7.669,7.669,0,0,1,1093.079,603.356Z" transform="translate(-69.643 -107.396)" fill="#4d6882"/>
    <path id="Path_50559" data-name="Path 50559" d="M1093.362,607.737a3.432,3.432,0,0,1-3.089,3.414,3.151,3.151,0,0,1-.34.017,3.433,3.433,0,0,1-3.431-3.431,3.286,3.286,0,0,1,.017-.34,3.43,3.43,0,0,1,6.768-.375A3.488,3.488,0,0,1,1093.362,607.737Z" transform="translate(-74.023 -111.775)" fill="#7792aa"/>
    <path id="Path_50560" data-name="Path 50560" d="M1515.333,573.926a38.806,38.806,0,0,1-5.013,19.515c-4.243,7.258-10.811,11.916-18.178,11.916h-.048c-7.394-.02-13.976-4.734-18.219-12.06v-.007a38.888,38.888,0,0,1-4.925-19.365,39.677,39.677,0,0,1,3.826-17.3c4.147-8.519,11.275-14.14,19.365-14.14,8.151,0,15.32,5.7,19.453,14.324A39.634,39.634,0,0,1,1515.333,573.926Z" transform="translate(-271.629 -79.833)" fill="#7792aa"/>
    <path id="Path_50561" data-name="Path 50561" d="M1515.79,714.642a28.2,28.2,0,0,1-3.131,13.172c-3.022,5.716-7.967,9.44-13.553,9.44s-10.532-3.724-13.547-9.44a28.2,28.2,0,0,1-3.131-13.172,29.562,29.562,0,0,1,1.289-8.731c.007-.021.014-.048.021-.068,2.531-8.1,8.431-13.786,15.32-13.813h.048c6.6,0,12.3,5.191,15.006,12.721A29.222,29.222,0,0,1,1515.79,714.642Z" transform="translate(-278.593 -157.1)" fill="#7792aa"/>
    <path id="Path_50562" data-name="Path 50562" d="M1513.364,438.187a.222.222,0,0,0-.014.041c-.021.041-.048.109-.089.212a24.055,24.055,0,0,1-22.052,14.808h-1.043A24.063,24.063,0,0,1,1468.01,438.2a.021.021,0,0,1-.007-.013,24.083,24.083,0,0,1,3.015-23.881l2.885-3.861,16.78-22.468,16.786,22.468,2.885,3.861A24.066,24.066,0,0,1,1513.364,438.187Z" transform="translate(-270.172)" fill="#7792aa"/>
    <path id="Path_50563" data-name="Path 50563" d="M1512.149,530.67c-4.133-8.622-11.3-14.324-19.453-14.324-8.09,0-15.218,5.621-19.365,14.14,6.589-14.276-3.035-37.932-3.308-38.593a24.063,24.063,0,0,0,22.155,15.047h1.043a24.055,24.055,0,0,0,22.053-14.808C1514.23,494.75,1505.71,517.075,1512.149,530.67Z" transform="translate(-272.183 -53.692)" fill="#7792aa"/>
    <path id="Path_50564" data-name="Path 50564" d="M1512.413,681.8c-2.708-7.53-8.411-12.721-15.006-12.721h-.048c-6.889.028-12.789,5.716-15.32,13.813,3.99-12.339-2.558-34.16-2.9-35.279,4.242,7.326,10.825,12.039,18.219,12.06h.048c7.367,0,13.935-4.659,18.178-11.916C1514.951,649.894,1509.207,669.682,1512.413,681.8Z" transform="translate(-276.894 -134.152)" fill="#7792aa"/>
    <path id="Path_50565" data-name="Path 50565" d="M1539.615,438.187a.218.218,0,0,0-.013.041c-.021.041-.048.109-.089.212a24.056,24.056,0,0,1-22.053,14.808h-.525v-65.27l16.786,22.468,2.885,3.861A24.066,24.066,0,0,1,1539.615,438.187Z" transform="translate(-296.423)" fill="#bdd8e6"/>
    <path id="Path_50566" data-name="Path 50566" d="M1515.782,587.826a25.533,25.533,0,0,1-3.3,12.841c-2.792,4.776-7.114,7.841-11.961,7.841h-.031c-4.866-.014-9.2-3.115-11.989-7.936v0a25.591,25.591,0,0,1-3.241-12.742,26.107,26.107,0,0,1,2.518-11.383c2.729-5.606,7.419-9.3,12.743-9.3,5.364,0,10.081,3.753,12.8,9.426A26.089,26.089,0,0,1,1515.782,587.826Z" transform="translate(-280.057 -92.571)" fill="#4d6882"/>
    <path id="Path_50567" data-name="Path 50567" d="M1516.415,598.881a12.766,12.766,0,0,1-1.65,6.421c-1.4,2.388-3.557,3.921-5.98,3.921h-.016c-2.432-.007-4.6-1.558-5.994-3.968v0a12.8,12.8,0,0,1-1.621-6.371,13.046,13.046,0,0,1,1.259-5.691c1.364-2.8,3.71-4.652,6.371-4.652,2.682,0,5.04,1.876,6.4,4.713A13.043,13.043,0,0,1,1516.415,598.881Z" transform="translate(-288.269 -103.627)" fill="#e6dcbd"/>
    <path id="Path_50568" data-name="Path 50568" d="M1907.338,603.69a16.995,16.995,0,1,0,26.373-14.173,14.87,14.87,0,1,1-25,7.478A16.879,16.879,0,0,0,1907.338,603.69Z" transform="translate(-498.139 -104.133)" fill="#4d6882"/>
    <path id="Path_50569" data-name="Path 50569" d="M1909.5,595.5a14.869,14.869,0,1,0,.325-3.1A14.884,14.884,0,0,0,1909.5,595.5Z" transform="translate(-499.256 -99.538)" fill="#7792aa"/>
    <path id="Path_50570" data-name="Path 50570" d="M1925.615,603.356a7.533,7.533,0,0,0,6.78,7.492,7.16,7.16,0,0,0,.746.037,7.532,7.532,0,0,0,7.529-7.529,7.181,7.181,0,0,0-.037-.745,7.528,7.528,0,0,0-14.853-.823A7.669,7.669,0,0,0,1925.615,603.356Z" transform="translate(-507.582 -107.396)" fill="#4d6882"/>
    <path id="Path_50571" data-name="Path 50571" d="M1934.092,607.737a3.432,3.432,0,0,0,3.089,3.414,3.152,3.152,0,0,0,.34.017,3.433,3.433,0,0,0,3.431-3.431,3.286,3.286,0,0,0-.017-.34,3.43,3.43,0,0,0-6.768-.375A3.5,3.5,0,0,0,1934.092,607.737Z" transform="translate(-511.962 -111.775)" fill="#7792aa"/>
    <path id="Path_50572" data-name="Path 50572" d="M1512.216,1124.235H1375.352l.007-.007a56.872,56.872,0,0,1,53.5-37.509h29.842a56.935,56.935,0,0,1,53.511,37.516Z" transform="translate(-223.268 -361.031)" fill="#4d6882"/>
    <path id="Path_50573" data-name="Path 50573" d="M1514.778,1075.574a56.92,56.92,0,0,0-16.207-2.353h-29.842a57.011,57.011,0,0,0-16.22,2.353,26.884,26.884,0,0,1,24.1-14.979h14.085a26.818,26.818,0,0,1,24.085,14.979Z" transform="translate(-263.134 -347.533)" fill="#7792aa"/>
    <path id="Path_50574" data-name="Path 50574" d="M1512.216,1141.533H1375.352l.007-.007c.934-.355,65.885-25.211,123.625-20.8A56.7,56.7,0,0,1,1512.216,1141.533Z" transform="translate(-223.268 -378.33)" fill="#7792aa"/>
    <path id="Path_50575" data-name="Path 50575" d="M1515.708,910.777a26.932,26.932,0,0,0-11.023-2.36H1490.6a26.761,26.761,0,0,0-11.009,2.36c.73-2.319,13.513-43.5,8.479-72.794-7.988-46.506-4.448-69.281-3.977-71.914,3.015,5.716,7.96,9.441,13.547,9.441h.014c5.579-.007,10.518-3.731,13.54-9.441.484,2.756,3.984,25.538-3.984,71.887C1502.162,867.367,1515.074,908.778,1515.708,910.777Z" transform="translate(-277.127 -195.355)" fill="#7792aa"/>
    <path id="Path_50576" data-name="Path 50576" d="M1535.018,910.777a26.931,26.931,0,0,0-11.023-2.36h-7.032V775.509c5.579-.007,10.518-3.731,13.54-9.441.484,2.756,3.984,25.538-3.984,71.887C1521.472,867.367,1534.384,908.778,1535.018,910.777Z" transform="translate(-296.437 -195.355)" fill="#4d6882"/>
    <path id="Path_50577" data-name="Path 50577" d="M1088.621,959.559c-9.911,18.076-38.71,31.152-72.692,31.152s-62.774-13.076-72.692-31.152Z" transform="translate(0 -295.329)" fill="#7792aa"/>
    <path id="Path_50578" data-name="Path 50578" d="M1936.169,883.546c-9.911,18.076-38.71,31.152-72.692,31.152s-62.774-13.076-72.692-31.152Z" transform="translate(-437.917 -256.054)" fill="#7792aa"/>
    <g id="Group_17810" data-name="Group 17810" transform="translate(1014.223 497.519)">
      <rect id="Rectangle_15509" data-name="Rectangle 15509" width="3.411" height="166.711" transform="translate(0)" fill="#7792aa"/>
    </g>
    <g id="Group_17811" data-name="Group 17811" transform="translate(1423.854 497.519)">
      <rect id="Rectangle_15510" data-name="Rectangle 15510" width="3.411" height="129.973" fill="#7792aa"/>
    </g>
    <circle id="Ellipse_2007" data-name="Ellipse 2007" cx="15.308" cy="15.308" r="15.308" transform="translate(1205.207 414)" fill="#4d6882"/>
    <path id="Path_50579" data-name="Path 50579" d="M1089.3,959.559c-13.772,11.807-36.847,19.549-62.993,19.549s-49.214-7.742-62.986-19.549Z" transform="translate(-10.377 -295.329)" fill="#e4b62c"/>
    <path id="Path_50580" data-name="Path 50580" d="M1937.852,883.546C1924.08,895.353,1901,903.1,1874.86,903.1s-49.214-7.742-62.986-19.549Z" transform="translate(-448.814 -256.054)" fill="#e4b62c"/>
    <path id="Path_50581" data-name="Path 50581" d="M1516.3,724.873a16.262,16.262,0,0,1-1.806,7.6c-1.743,3.3-4.6,5.445-7.817,5.445s-6.074-2.148-7.813-5.445a16.262,16.262,0,0,1-1.806-7.6,17.048,17.048,0,0,1,.744-5.036c0-.012.008-.028.012-.039,1.459-4.67,4.863-7.951,8.836-7.967h.028c3.8,0,7.093,2.994,8.655,7.337A16.854,16.854,0,0,1,1516.3,724.873Z" transform="translate(-286.151 -167.331)" fill="#e6dcbd"/>
    <circle id="Ellipse_2008" data-name="Ellipse 2008" cx="8.611" cy="8.611" r="8.611" transform="translate(1211.854 420.697)" fill="#e6dcbd"/>
    <g id="Group_17812" data-name="Group 17812" transform="translate(1382.024 556.878)">
      <path id="Path_50582" data-name="Path 50582" d="M1939.262,726.687c0,2.265-5.253,4.093-5.594,6.263-.35,2.227,4.078,5.582,3.4,7.68-.693,2.135-6.254,2.247-7.261,4.22-1.017,1.993,2.151,6.559.844,8.355s-6.635.194-8.21,1.768.036,6.9-1.768,8.21-6.362-1.861-8.355-.844c-1.972,1.007-2.085,6.567-4.22,7.261-2.1.681-5.453-3.747-7.68-3.4-2.17.341-4,5.594-6.262,5.594s-4.093-5.253-6.263-5.594c-2.227-.35-5.582,4.078-7.68,3.4-2.135-.694-2.247-6.254-4.22-7.261-1.993-1.017-6.559,2.151-8.355.844s-.194-6.635-1.769-8.21-6.9.036-8.209-1.769,1.861-6.362.844-8.355c-1.007-1.972-6.567-2.084-7.261-4.22-.682-2.1,3.747-5.453,3.4-7.68-.341-2.17-5.594-4-5.594-6.263s5.253-4.093,5.594-6.263c.35-2.227-4.078-5.582-3.4-7.68.693-2.136,6.254-2.247,7.261-4.22,1.017-1.993-2.151-6.559-.844-8.355s6.635-.194,8.209-1.769-.036-6.9,1.769-8.21,6.362,1.862,8.355.844c1.972-1.007,2.084-6.567,4.22-7.26,2.1-.682,5.453,3.747,7.68,3.4,2.17-.341,4-5.594,6.263-5.594s4.093,5.253,6.263,5.594c2.227.35,5.582-4.078,7.68-3.4,2.136.693,2.247,6.254,4.22,7.261,1.993,1.017,6.559-2.151,8.355-.844s.194,6.635,1.769,8.21,6.9-.036,8.21,1.768-1.862,6.362-.844,8.355c1.007,1.972,6.567,2.085,7.26,4.22.681,2.1-3.747,5.453-3.4,7.68C1934.009,722.595,1939.262,724.422,1939.262,726.687Z" transform="translate(-1849.043 -681.578)" fill="#e4b62c"/>
    </g>
    <path id="Path_50583" data-name="Path 50583" d="M1940.417,744.515a28.432,28.432,0,1,1-10.656-22.2A28.436,28.436,0,0,1,1940.417,744.515Z" transform="translate(-484.848 -142.525)" fill="#3aaf4b"/>
    <g id="Group_17813" data-name="Group 17813" transform="translate(1414.79 589.665)">
      <path id="Path_50584" data-name="Path 50584" d="M1928.173,778.278a1.813,1.813,0,0,1-1.51-.81l-9.525-14.343a1.813,1.813,0,1,1,3.021-2.005l7.946,11.965,13.837-22.8a1.813,1.813,0,0,1,3.1,1.881l-15.318,25.236a1.812,1.812,0,0,1-1.513.872Z" transform="translate(-1916.836 -749.416)" fill="#ebf2fc"/>
    </g>
    <g id="Group_17817" data-name="Group 17817" transform="translate(1094.395 695.709)">
      <path id="Path_50592" data-name="Path 50592" d="M1309.281,1069.672a.193.193,0,0,1-.187-.145,47.23,47.23,0,0,1-1.376-9.608c-.079-4.768,3.229-18.352,7.779-23.678,3.026-3.541,2.052-8.051,1.02-12.827a34.583,34.583,0,0,1-1.067-7.595,17.209,17.209,0,0,1,5.3-11.773.194.194,0,0,1,.254.293,16.8,16.8,0,0,0-5.166,11.485,34.29,34.29,0,0,0,1.058,7.507c1.052,4.872,2.046,9.473-1.1,13.161-4.5,5.262-7.764,18.7-7.686,23.419a46.855,46.855,0,0,0,1.363,9.516.193.193,0,0,1-.138.236A.185.185,0,0,1,1309.281,1069.672Z" transform="translate(-1307.717 -1004.001)" fill="#f4f4f4"/>
    </g>
    <g id="Group_17818" data-name="Group 17818" transform="translate(1074.51 694.934)">
      <path id="Path_50593" data-name="Path 50593" d="M1282.985,1068.843h-.013a.194.194,0,0,1-.18-.207c.012-.173,1.169-17.311-.6-21.883-.377-.975-.937-2.078-1.53-3.246-2.048-4.037-4.6-9.06-3.292-15.084,1.01-4.661-1.456-8-3.63-10.955-1.383-1.875-2.577-3.494-2.577-5.118,0-4.525-4.492-9.58-4.537-9.63a.194.194,0,1,1,.289-.259c.189.211,4.636,5.217,4.636,9.89,0,1.5,1.159,3.068,2.5,4.889,2.114,2.866,4.744,6.435,3.7,11.266-1.275,5.889,1.239,10.845,3.259,14.827.6,1.177,1.161,2.289,1.546,3.281,1.8,4.652.675,21.341.626,22.05A.194.194,0,0,1,1282.985,1068.843Z" transform="translate(-1266.575 -1002.396)" fill="#f4f4f4"/>
    </g>
  </g>
</svg>
