<svg xmlns="http://www.w3.org/2000/svg" width="313.681" height="320.465" viewBox="0 0 313.681 320.465">
  <g id="Group_19562" data-name="Group 19562" transform="matrix(-0.695, -0.719, 0.719, -0.695, 149.67, 332.716)">
    <g id="Group_15241" data-name="Group 15241" transform="translate(17.03)">
      <path id="Path_44191" data-name="Path 44191" d="M5499.819,1370.107s-15.252,44.06-.423,86" transform="translate(-5482.791 -1369.837)" fill="#29cb97"/>
      <g id="Group_15240" data-name="Group 15240">
        <path id="Path_44192" data-name="Path 44192" d="M5467.164,1413.079a75.664,75.664,0,0,1,.81-20.143,54.079,54.079,0,0,1,4.6-14.453c3.786-7.552,8.363-10.744,11.3-9.442,3.06,1.005,4.738,5.882,5.123,13.521a108.914,108.914,0,0,1-.311,13.482c-.4,5.138-1.04,10.886-1.876,17.253-.263,2.628-.759,5.814-1.215,9.306s-.963,7.3-1.3,11.151c-.74,7.694-.878,15.631-.839,21.272a74.871,74.871,0,0,1-10.71-18.618,88.016,88.016,0,0,1-3.764-11.8A75.111,75.111,0,0,1,5467.164,1413.079Z" transform="translate(-5466.842 -1368.757)" fill="#29cb97"/>
      </g>
    </g>
    <g id="Group_15243" data-name="Group 15243" transform="translate(44.625 30.264)">
      <line id="Line_426" data-name="Line 426" x1="14.404" y2="88.968" transform="translate(2.99 0.086)" fill="#a49f5b"/>
      <g id="Group_15242" data-name="Group 15242">
        <path id="Path_44193" data-name="Path 44193" d="M5320.944,1563.953c1.61-29.1,10.829-45.605,17.086-44.072,6.368.908,9.772,19.855,2.31,47.212-2.868,11.328-11.273,31.529-16.711,41.746C5321.653,1597.433,5319.887,1577.944,5320.944,1563.953Z" transform="translate(-5320.627 -1519.783)" fill="#29cb97"/>
      </g>
    </g>
    <g id="Group_15245" data-name="Group 15245" transform="translate(68.374 57.819)">
      <path id="Path_44194" data-name="Path 44194" d="M5198.259,1657.629s-7.2,50.839-30.927,92.782" transform="translate(-5167.332 -1657.561)" fill="#29cb97"/>
      <g id="Group_15244" data-name="Group 15244" transform="translate(0.01)">
        <path id="Path_44195" data-name="Path 44195" d="M5147.929,1703.209c.868-3.74,1.654-7.305,2.553-10.624.434-1.665.843-3.286,1.291-4.84s.9-3.055,1.329-4.512.9-2.843,1.363-4.178q.659-2.012,1.357-3.846c.941-2.443,1.828-4.666,2.786-6.635,3.706-7.891,7.515-11.923,10.658-11.2,3.188.375,5.657,5.89,5.8,15.135a64,64,0,0,1-.38,7.587c-.149,1.37-.322,2.8-.558,4.264s-.533,2.979-.859,4.539-.718,3.159-1.16,4.8-.907,3.323-1.472,5.032a112.321,112.321,0,0,1-4.045,10.627c-.647,1.511-1.344,3.178-2.244,4.913-.883,1.739-1.858,3.574-2.9,5.463s-2.25,3.8-3.442,5.747l-1.84,2.914c-.647.963-1.317,1.919-1.983,2.87-1.35,1.9-2.647,3.793-4.046,5.581s-2.8,3.5-4.146,5.13c-1.309,1.641-2.753,3.1-4.029,4.479-1.3,1.367-2.514,2.607-3.625,3.694.293-1.547.63-3.214,1.007-4.966q.288-1.314.591-2.692l.316-1.387q.138-.715.278-1.44c.374-1.939.778-3.936,1.211-5.962q.164-.76.329-1.526l.288-1.561c.2-1.043.4-2.093.6-3.142.883-4.169,1.592-8.486,2.484-12.566C5146.193,1710.753,5147.1,1706.827,5147.929,1703.209Z" transform="translate(-5138.339 -1657.288)" fill="#29cb97"/>
      </g>
    </g>
    <g id="Group_15247" data-name="Group 15247" transform="translate(93.794 92.981)">
      <path id="Path_44196" data-name="Path 44196" d="M5076.481,1833.106s-8.05,58.465-29.656,79.224" transform="translate(-5046.825 -1833.035)" fill="#29cb97"/>
      <g id="Group_15246" data-name="Group 15246" transform="translate(0.008)">
        <path id="Path_44197" data-name="Path 44197" d="M5025.478,1872.539c2.612-12.915,5.653-23.148,9.095-30.02,3.4-6.865,7.11-10.359,10.262-9.684,3.189.377,5.779,5.218,6.259,13.344a59.18,59.18,0,0,1-1.131,14.438,82.3,82.3,0,0,1-5.827,18.084,74.126,74.126,0,0,1-4.822,9.147,89.684,89.684,0,0,1-7.134,10,65.268,65.268,0,0,1-8.563,8.735,39.494,39.494,0,0,1-8.438,5.473,70.008,70.008,0,0,0,3.407-8.609c1.019-3.2,1.894-6.671,2.69-10.211s1.5-7.165,2.166-10.686S5024.783,1875.641,5025.478,1872.539Z" transform="translate(-5015.177 -1832.752)" fill="#29cb97"/>
      </g>
    </g>
    <g id="Group_15249" data-name="Group 15249" transform="translate(124 112.301)">
      <path id="Path_44198" data-name="Path 44198" d="M4895.945,1933.529s-31.351,42.789-35.165,79.224" transform="translate(-4859.213 -1932.654)" fill="#29cb97"/>
      <g id="Group_15248" data-name="Group 15248">
        <path id="Path_44199" data-name="Path 44199" d="M4855.752,1964.587a86.605,86.605,0,0,1,8.515-17.829,59.381,59.381,0,0,1,9.324-11.561c6.036-5.656,11.243-7.249,13.674-5.146,2.631,1.861,2.712,7.133.355,14.6a89.965,89.965,0,0,1-5.325,12.763c-2.37,4.734-5.294,9.916-8.75,15.5-1.372,2.333-3.157,5.085-5.119,8.086-1.945,3-4.059,6.254-6.115,9.567s-4,6.692-5.751,9.9c-1.777,3.2-3.2,6.248-4.45,8.79a70.714,70.714,0,0,1-1.3-21.459A89.175,89.175,0,0,1,4855.752,1964.587Z" transform="translate(-4850.531 -1929.163)" fill="#29cb97"/>
      </g>
    </g>
    <g id="Group_15251" data-name="Group 15251" transform="translate(148.022 148.156)">
      <path id="Path_44200" data-name="Path 44200" d="M4787.276,2110.056s-16.523,43.213-34.317,62.7" transform="translate(-4752.958 -2109.662)" fill="#29cb97"/>
      <g id="Group_15250" data-name="Group 15250" transform="translate(0.009)">
        <path id="Path_44201" data-name="Path 44201" d="M4742.572,2137.452c3.773-10.573,8.189-18.445,12.508-23.387s8.5-6.9,11.431-5.57c3.019,1.1,4.7,5.7,3.992,12.529-.706,6.813-3.823,15.9-10.524,25.541a81.464,81.464,0,0,1-12.493,13.961c-1.266,1.182-2.665,2.291-3.974,3.372-.672.532-1.3,1.072-1.989,1.561l-2.015,1.428a51.965,51.965,0,0,1-7.313,4.307c1.509-4.546,3.266-10.387,4.971-16.433C4738.867,2148.7,4740.6,2142.472,4742.572,2137.452Z" transform="translate(-4732.196 -2108.089)" fill="#29cb97"/>
      </g>
    </g>
    <g id="Group_15253" data-name="Group 15253" transform="translate(172.171 164.343)">
      <path id="Path_44202" data-name="Path 44202" d="M4639.723,2190.4s-16.946,50.415-41.095,63.973" transform="translate(-4598.628 -2190.088)" fill="#29cb97"/>
      <g id="Group_15252" data-name="Group 15252" transform="translate(0.005)">
        <path id="Path_44203" data-name="Path 44203" d="M4593.714,2220.266c4.509-10.844,9.029-19.235,13.438-24.6,4.371-5.366,8.528-7.71,11.509-6.484,3.061.969,4.833,5.823,4.013,13.219a48.929,48.929,0,0,1-3.4,12.737,67.735,67.735,0,0,1-8.584,15.027,69.955,69.955,0,0,1-14.7,14.522,54.718,54.718,0,0,1-9.628,5.76,33.5,33.5,0,0,1-8.794,2.706,59.394,59.394,0,0,0,4.684-6.975c1.489-2.645,2.891-5.535,4.21-8.505s2.559-6.031,3.748-9S4592.565,2222.856,4593.714,2220.266Z" transform="translate(-4577.563 -2188.865)" fill="#29cb97"/>
      </g>
    </g>
    <g id="Group_15255" data-name="Group 15255" transform="translate(0 75.106)">
      <path id="Path_44204" data-name="Path 44204" d="M5476,1746.424s8.05,20.336,33.045,36.435" transform="translate(-5471.599 -1745.849)" fill="#29cb97"/>
      <g id="Group_15254" data-name="Group 15254">
        <path id="Path_44205" data-name="Path 44205" d="M5487.634,1771.814a33.563,33.563,0,0,1-8.18-8.805,22.673,22.673,0,0,1-3.321-8.67,12.353,12.353,0,0,1,.694-6.722,6.089,6.089,0,0,1,3.553-3.487c3-1.2,6.691-.506,10.447,1.823,3.746,2.366,7.512,6.3,11.142,12.421a23.96,23.96,0,0,1,1.257,2.087q.321.588.644,1.237l.7,1.3c.474.9.942,1.868,1.428,2.869.514.971,1.028,1.987,1.541,3.03.26.515.5,1.059.772,1.568l.807,1.537c.531,1.03,1.049,2.063,1.545,3.08,1.054,1.948,2.013,3.833,2.759,5.471a57.788,57.788,0,0,1-6.069-.558c-1.1-.186-2.235-.433-3.406-.7s-2.381-.552-3.536-.959A40.687,40.687,0,0,1,5487.634,1771.814Z" transform="translate(-5475.966 -1743.553)" fill="#29cb97"/>
      </g>
    </g>
    <g id="Group_15257" data-name="Group 15257" transform="translate(2.098 108.902)">
      <path id="Path_44206" data-name="Path 44206" d="M5382.228,1922.521s16.006,15.906,52.5,32.388" transform="translate(-5380.587 -1920.453)" fill="#29cb97"/>
      <g id="Group_15256" data-name="Group 15256">
        <path id="Path_44207" data-name="Path 44207" d="M5404.59,1941.179a68.761,68.761,0,0,1-6.719-3.238,59.44,59.44,0,0,1-5.5-3.759,30,30,0,0,1-2.318-1.934q-1.07-1.016-2-2.018t-1.708-1.982a18.927,18.927,0,0,1-1.408-1.965c-3.348-5.2-3.521-9.92-1.084-12.015,2.277-2.274,6.43-2.711,11.75-1.111a33.953,33.953,0,0,1,4.232,1.555q1.1.494,2.229,1.1c.765.393,1.574.8,2.374,1.255a46.99,46.99,0,0,1,4.918,3.217,58.493,58.493,0,0,1,5.293,4.02c.752.6,1.558,1.315,2.4,2.114.857.781,1.793,1.6,2.734,2.5,1.893,1.8,3.893,3.842,5.869,5.973a150.576,150.576,0,0,1,10.688,11.76,106.622,106.622,0,0,1-15.557-.969c-2.846-.5-5.739-1.113-8.509-1.84-1.386-.363-2.74-.755-4.041-1.171C5406.96,1942.2,5405.74,1941.7,5404.59,1941.179Z" transform="translate(-5382.202 -1912.202)" fill="#29cb97"/>
      </g>
    </g>
    <g id="Group_15259" data-name="Group 15259" transform="translate(34.3 146.487)">
      <path id="Path_44208" data-name="Path 44208" d="M5224.419,2129.087s21.607,4.661,53.381,22.877" transform="translate(-5224.238 -2123.21)" fill="#29cb97"/>
      <g id="Group_15258" data-name="Group 15258">
        <path id="Path_44209" data-name="Path 44209" d="M5248.7,2124.679a63.6,63.6,0,0,1-6.144-1.878,42.728,42.728,0,0,1-5.239-2.108c-1.588-.8-3.038-1.522-4.337-2.344a32.711,32.711,0,0,1-3.458-2.523,18.868,18.868,0,0,1-2.587-2.6,13.3,13.3,0,0,1-1.693-2.605,9.394,9.394,0,0,1-.519-1.3,8.639,8.639,0,0,1-.268-1.258,6.163,6.163,0,0,1,.127-2.428c.592-3.159,4.487-5.581,10.334-5.841a26.083,26.083,0,0,1,4.718.248,29.864,29.864,0,0,1,5.313,1.156,51.879,51.879,0,0,1,5.743,2.17,55.01,55.01,0,0,1,5.96,3.351c3.431,1.954,7.679,5.856,11.678,9.851l.743.757.715.8,1.395,1.6c.914,1.064,1.79,2.119,2.613,3.145,1.646,2.053,3.076,3.99,4.166,5.646a124.217,124.217,0,0,1-14.5-1.177c-2.649-.272-5.292-.631-7.788-1.091-1.25-.225-2.454-.5-3.622-.757C5250.873,2125.243,5249.751,2124.978,5248.7,2124.679Z" transform="translate(-5224.391 -2099.76)" fill="#29cb97"/>
      </g>
    </g>
    <g id="Group_15261" data-name="Group 15261" transform="translate(44.169 174.02)">
      <path id="Path_44210" data-name="Path 44210" d="M5081.711,2280.408s20.548-3.6,72.233,18.006" transform="translate(-5081.655 -2271.561)" fill="#29cb97"/>
      <g id="Group_15260" data-name="Group 15260">
        <path id="Path_44211" data-name="Path 44211" d="M5116.9,2261.158c-2.882-.4-5.575-.933-8.088-1.4-2.515-.543-4.838-1.027-6.995-1.622a72.1,72.1,0,0,1-10.795-3.628,24.9,24.9,0,0,1-6.665-4.037,7.373,7.373,0,0,1-2.6-4.479c-.321-1.58.577-3.349,2.515-4.864a19.7,19.7,0,0,1,8.65-3.43,42.287,42.287,0,0,1,13.262-.042q1.865.283,3.835.676c1.315.259,2.623.63,3.98,1a68.4,68.4,0,0,1,8.329,2.938,41.424,41.424,0,0,1,3.8,1.723c1.344.671,2.759,1.422,4.216,2.228,1.445.828,2.914,1.751,4.4,2.691,1.48.958,3,1.895,4.446,2.953,1.457,1.041,2.9,2.1,4.29,3.148s2.744,2.088,4,3.159c2.52,2.112,4.755,4.111,6.509,5.825-2.475.019-5.348-.05-8.424-.207l-2.342-.133-2.421-.111c-1.629-.085-3.286-.192-4.948-.323l-5-.383c-1.66-.134-3.3-.3-4.907-.485-1.608-.166-3.184-.319-4.7-.529C5119.734,2261.635,5118.282,2261.363,5116.9,2261.158Z" transform="translate(-5081.689 -2237.157)" fill="#29cb97"/>
      </g>
    </g>
    <g id="Group_15263" data-name="Group 15263" transform="translate(65.113 204.87)">
      <path id="Path_44212" data-name="Path 44212" d="M4996.087,2447.274s27.539-10.592,68.209-2.542" transform="translate(-4995.792 -2431.571)" fill="#29cb97"/>
      <g id="Group_15262" data-name="Group 15262">
        <path id="Path_44213" data-name="Path 44213" d="M5031.4,2411.1c-10.284,1.785-18.324,2.2-24.283,1.47a28.27,28.27,0,0,1-4.048-.8,15.631,15.631,0,0,1-3.173-1.225,6.762,6.762,0,0,1-3.522-3.751c-1.222-2.965,1.312-7.4,7.378-10.806a33.253,33.253,0,0,1,5.168-2.337c.964-.349,1.977-.636,3.039-.929a33.023,33.023,0,0,1,3.32-.753q1.728-.311,3.586-.549,1.856-.174,3.83-.261c.657-.025,1.325-.058,2-.055s1.359.031,2.051.058c1.383.063,2.8.126,4.243.29,1.19.121,2.5.307,3.9.547.7.122,1.417.247,2.152.4q1.1.262,2.246.56c1.523.4,3.1.823,4.678,1.326,1.58.54,3.169,1.116,4.74,1.71,1.574.568,3.114,1.267,4.6,1.959s2.932,1.383,4.294,2.073c2.7,1.5,5.1,2.948,6.981,4.223-2.248.567-4.847,1.142-7.613,1.68l-4.28.95-2.2.453-1.106.217-1.113.259c-1.485.341-2.972.66-4.443.95l-1.1.212-1.1.249-2.162.458C5036.614,2410.2,5033.889,2410.805,5031.4,2411.1Z" transform="translate(-4996.074 -2391.104)" fill="#29cb97"/>
      </g>
    </g>
    <g id="Group_15265" data-name="Group 15265" transform="translate(96.604 226.059)">
      <path id="Path_44214" data-name="Path 44214" d="M4841.757,2544.766s21.184-17.794,66.938-18.218" transform="translate(-4840.755 -2520.595)" fill="#29cb97"/>
      <g id="Group_15264" data-name="Group 15264">
        <path id="Path_44215" data-name="Path 44215" d="M4878.009,2516.331l-1.822.693q-.885.37-1.751.707c-1.151.457-2.293.828-3.378,1.231-2.158.832-4.245,1.451-6.154,2.082-1.957.556-3.726,1.111-5.452,1.472-.845.2-1.652.4-2.452.54l-1.176.2c-.376.069-.748.132-1.112.184-5.88.814-10,.127-11.951-2.44-2.139-2.4-.925-7.6,4.309-12.656a36.473,36.473,0,0,1,10.636-6.965,50.8,50.8,0,0,1,7.294-2.6c1.315-.352,2.682-.629,4.084-.907q1.054-.205,2.136-.387c.722-.107,1.459-.178,2.2-.258,1.221-.15,2.578-.266,4.029-.348s3.01-.013,4.62.028a80.69,80.69,0,0,1,10.06,1.007c.845.108,1.69.288,2.525.462l2.48.536c1.632.379,3.214.718,4.717,1.164,3.01.917,5.7,1.847,7.846,2.71-2.127,1.014-4.609,2.107-7.27,3.2-.666.261-1.338.568-2.021.877l-2.068.914c-1.393.609-2.814,1.191-4.233,1.786-1.414.648-2.831,1.276-4.24,1.872l-2.1.869-2.053.917c-1.357.593-2.691,1.135-3.988,1.631C4880.446,2515.406,4879.2,2515.9,4878.009,2516.331Z" transform="translate(-4841.758 -2496.842)" fill="#29cb97"/>
      </g>
    </g>
    <path id="Path_44216" data-name="Path 44216" d="M4585.535,1382.792s-14.828,60.583,7.2,105.068,71.6,105.49,175.819,143.2" transform="translate(-4551.689 -1379.98)" fill="none" stroke="#29cb97" stroke-miterlimit="10" stroke-width="5.128"/>
    <path id="Path_44217" data-name="Path 44217" d="M5366.725,1535.013s-16.151,56.664-14.245,87.167" transform="translate(-5304.494 -1501.697)" fill="none" stroke="#29cb97" stroke-miterlimit="10" stroke-width="5.128"/>
    <path id="Path_44218" data-name="Path 44218" d="M5195.459,1678.773s-5.031,44.484-31.3,88.545" transform="translate(-5095.522 -1616.648)" fill="none" stroke="#29cb97" stroke-miterlimit="10" stroke-width="5.128"/>
    <path id="Path_44219" data-name="Path 44219" d="M5079.662,1869.048s-8.05,58.042-33.894,74.564" transform="translate(-4956 -1768.794)" fill="none" stroke="#29cb97" stroke-miterlimit="10" stroke-width="5.128"/>
    <path id="Path_44220" data-name="Path 44220" d="M4907.108,1955.729s-50.892,57.883-25.473,91.352" transform="translate(-4749.13 -1838.105)" fill="none" stroke="#29cb97" stroke-miterlimit="10" stroke-width="5.128"/>
    <path id="Path_44221" data-name="Path 44221" d="M4797.22,2139.663s-14.829,47.025-38.978,61.007" transform="translate(-4615.939 -1985.18)" fill="none" stroke="#29cb97" stroke-miterlimit="10" stroke-width="5.128"/>
    <path id="Path_44222" data-name="Path 44222" d="M4650.668,2222.11s-23.461,61.7-44.644,58.306" transform="translate(-4438.885 -2051.105)" fill="none" stroke="#29cb97" stroke-miterlimit="10" stroke-width="5.128"/>
    <path id="Path_44223" data-name="Path 44223" d="M5413.1,1767.568s32.729,36.329,43.744,44.379" transform="translate(-5406.793 -1687.65)" fill="none" stroke="#29cb97" stroke-miterlimit="10" stroke-width="5.128"/>
    <path id="Path_44224" data-name="Path 44224" d="M5326.918,1939.539s45.486,29.179,59.21,34.665" transform="translate(-5318.807 -1825.159)" fill="none" stroke="#29cb97" stroke-miterlimit="10" stroke-width="5.128"/>
    <path id="Path_44225" data-name="Path 44225" d="M5159.932,2126.978s33.892,13.134,59.312,32.621" transform="translate(-5118.458 -1975.037)" fill="none" stroke="#29cb97" stroke-miterlimit="10" stroke-width="5.128"/>
    <path id="Path_44226" data-name="Path 44226" d="M4972.307,2279.121s21.4-7.1,87.167,29.762" transform="translate(-4921.091 -2096.253)" fill="none" stroke="#29cb97" stroke-miterlimit="10" stroke-width="5.128"/>
    <path id="Path_44227" data-name="Path 44227" d="M4869.242,2447.605s37.493-10.168,87.061,6.354" transform="translate(-4797.266 -2228.938)" fill="none" stroke="#29cb97" stroke-miterlimit="10" stroke-width="5.128"/>
    <path id="Path_44228" data-name="Path 44228" d="M4763.793,2540.264s31.933-25.419,74.83-11.439" transform="translate(-4658.455 -2293.001)" fill="none" stroke="#29cb97" stroke-miterlimit="10" stroke-width="5.128"/>
  </g>
</svg>
