<svg id="Group_20838" data-name="Group 20838" xmlns="http://www.w3.org/2000/svg" width="90.003" height="90.003" viewBox="0 0 90.003 90.003">
  <circle id="Ellipse_2097" data-name="Ellipse 2097" cx="45.002" cy="45.002" r="45.002" transform="translate(0 0)" fill="#4d6882"/>
  <path id="Path_56701" data-name="Path 56701" d="M66.791,446.729l-5.236,5.241L59.5,449.911a1.591,1.591,0,0,0-2.25,2.25l3.182,3.18a1.58,1.58,0,0,0,1.124.469,1.6,1.6,0,0,0,1.126-.465l6.362-6.364a1.593,1.593,0,0,0-2.253-2.253Z" transform="translate(-24.919 -408.184)" fill="#fff"/>
  <path id="Path_56702" data-name="Path 56702" d="M66.791,452.232l-5.236,5.24L59.5,455.419a1.59,1.59,0,0,0-2.25,2.248l3.182,3.182a1.594,1.594,0,0,0,2.25,0l6.362-6.364a1.593,1.593,0,0,0-2.253-2.253Z" transform="translate(-24.919 -400.934)" fill="#fff"/>
  <path id="Path_56703" data-name="Path 56703" d="M63.662,449.232a1.591,1.591,0,0,0,1.591,1.591h6.364a1.591,1.591,0,1,0,0-3.182H65.253A1.591,1.591,0,0,0,63.662,449.232Z" transform="translate(-15.86 -406.378)" fill="#fff"/>
  <path id="Path_56704" data-name="Path 56704" d="M71.618,453.144H65.253a1.591,1.591,0,1,0,0,3.182h6.364a1.591,1.591,0,1,0,0-3.182Z" transform="translate(-15.86 -399.13)" fill="#fff"/>
  <path id="Path_56705" data-name="Path 56705" d="M81.078,441.192H77.625a4.775,4.775,0,0,0-9,0H65.169a1.591,1.591,0,0,0-1.591,1.591v1.591H57.213a3.188,3.188,0,0,0-3.182,3.182v38.182a3.188,3.188,0,0,0,3.182,3.182h31.82a3.186,3.186,0,0,0,3.18-3.182V447.557a3.186,3.186,0,0,0-3.18-3.182H82.669v-1.591A1.591,1.591,0,0,0,81.078,441.192ZM66.76,444.375h3.18a1.591,1.591,0,0,0,1.591-1.591,1.591,1.591,0,1,1,3.182,0,1.591,1.591,0,0,0,1.591,1.591h3.182v3.182H66.76Zm22.273,3.182v38.182H57.213V447.557h6.364v1.591a1.591,1.591,0,0,0,1.591,1.589H81.078a1.591,1.591,0,0,0,1.591-1.589v-1.591Z" transform="translate(-28.52 -419.019)" fill="#fff"/>
</svg>
