<?xml version="1.0" encoding="utf-8"?>
<svg version="1.1" xmlns="http://www.w3.org/2000/svg" xmlns:xlink="http://www.w3.org/1999/xlink" x="0px" y="0px"
	 viewBox="0 0 100 100" style="enable-background:new 0 0 100 100;" xml:space="preserve">
	 <path fill="#999999" d="M98.6 86.5L79.2 67c-.9-.9-2.1-1.4-3.3-1.4h-3.2c5.4-6.9 8.6-15.6 8.6-25C81.3 18.2 63.1 0 40.6 0S0 18.2 0 40.6s18.2 40.6 40.6 40.6c9.4 0 18.1-3.2 25-8.6v3.2c0 1.3.5 2.4 1.4 3.3l19.5 19.5c1.8 1.8 4.8 1.8 6.6 0l5.5-5.5c1.8-1.8 1.8-4.8 0-6.6zm-58-20.9c-13.8 0-25-11.2-25-25s11.2-25 25-25 25 11.2 25 25-11.1 25-25 25z"></path>
</svg>