<svg id="Material_icons-07-71" data-name="Material icons-07-71" xmlns="http://www.w3.org/2000/svg" width="31.167" height="44" viewBox="0 0 31.167 44">
  <path id="Path_33676" data-name="Path 33676" d="M2,40.414h9.167V36.74h-5.5V12.859h9.167V3.674H29.5V36.74H24v3.674h9.17V0H10.408L2,8.424ZM11.167,4.434v4.75H6.426Z" transform="translate(-2)" fill="#2e4354"/>
  <path id="Path_33677" data-name="Path 33677" d="M14.41,29.829l4.672,4.483V25.772a7.987,7.987,0,0,0,3.738-6.7A8.255,8.255,0,0,0,14.41,11,8.255,8.255,0,0,0,6,19.069a7.982,7.982,0,0,0,3.738,6.7v8.539Zm0-15.242a4.585,4.585,0,0,1,4.672,4.483,4.585,4.585,0,0,1-4.672,4.483,4.585,4.585,0,0,1-4.672-4.483A4.585,4.585,0,0,1,14.41,14.586Z" transform="translate(1.173 9.688)" fill="#2e4354"/>
</svg>
