<svg xmlns="http://www.w3.org/2000/svg" width="55" height="55" viewBox="0 0 55 55">
  <g id="Group_20814" data-name="Group 20814" transform="translate(8375.617 9056.549)">
    <circle id="Ellipse_2086" data-name="Ellipse 2086" cx="27.5" cy="27.5" r="27.5" transform="translate(-8375.617 -9056.549)" fill="#e4b62c"/>
    <g id="Group_20805" data-name="Group 20805" transform="translate(-8361.35 -9042.724)">
      <path id="Path_54764" data-name="Path 54764" d="M526.1,379.317V368.091a2.12,2.12,0,0,0-2.117-2.118h-1.377v1.059a1.059,1.059,0,0,1-2.119,0v-1.059h-4.82v1.059a1.059,1.059,0,1,1-2.117,0v-1.059h-4.766v1.059a1.059,1.059,0,1,1-2.118,0v-1.059h-1.324a2.12,2.12,0,0,0-2.118,2.118v16.522a2.121,2.121,0,0,0,2.118,2.119h18.641a2.121,2.121,0,0,0,2.117-2.119,1.059,1.059,0,0,1,2.119,0,4.24,4.24,0,0,1-4.236,4.236H505.342a4.242,4.242,0,0,1-4.237-4.236V368.091a4.243,4.243,0,0,1,4.237-4.237h1.324v-1.059a1.059,1.059,0,0,1,2.118,0v1.059h4.766v-1.059a1.059,1.059,0,0,1,2.117,0v1.059h4.82v-1.059a1.059,1.059,0,0,1,2.119,0v1.059h1.377a4.242,4.242,0,0,1,4.236,4.237v11.226a1.059,1.059,0,0,1-2.119,0Zm-10.432-6.937a1.059,1.059,0,1,0-2.117,0v6.832a1.059,1.059,0,0,0,2.117,0Zm-1.058,9.479a1.059,1.059,0,1,0,1.058,1.059,1.058,1.058,0,0,0-1.058-1.059Zm0,0" transform="translate(-501.105 -361.737)" fill="#fff"/>
    </g>
  </g>
</svg>
