<svg id="Group_20842" data-name="Group 20842" xmlns="http://www.w3.org/2000/svg" width="90.003" height="90.003" viewBox="0 0 90.003 90.003">
  <path id="Path_56713" data-name="Path 56713" d="M45,0A45,45,0,1,1,0,45,45,45,0,0,1,45,0Z" transform="translate(0)" fill="#4d6882"/>
  <path id="Path_56698" data-name="Path 56698" d="M348.493,466.153a1.236,1.236,0,0,0-1.237,1.237v18.885a.232.232,0,0,1-.231.231H312.078a.232.232,0,0,1-.231-.231V450.455h7.544a2.707,2.707,0,0,0,2.7-2.7v-7.544h24.931a.232.232,0,0,1,.231.231v3.9a1.237,1.237,0,1,0,2.475,0v-3.9a2.709,2.709,0,0,0-2.706-2.706H320.857a1.238,1.238,0,0,0-.874.363l-10.247,10.247a1.237,1.237,0,0,0-.363.874v37.058a2.709,2.709,0,0,0,2.706,2.706h34.947a2.707,2.707,0,0,0,2.7-2.706V467.391A1.234,1.234,0,0,0,348.493,466.153Zm-28.874-18.4a.228.228,0,0,1-.229.229H313.6l6.022-6.022Z" transform="translate(-285.477 -419.129)" fill="#fff"/>
  <path id="Path_56699" data-name="Path 56699" d="M353.224,443.6l-1.455-1.455a4.194,4.194,0,0,0-5.92,0L334.3,453.7H314.258a1.237,1.237,0,0,0,0,2.475h17.565l-7.444,7.444h-10.12a1.236,1.236,0,1,0,0,2.472H321.9l-.021.021a1.243,1.243,0,0,0-.317.543l-1.91,6.883h-5.4a1.236,1.236,0,1,0,0,2.472H320.6s.271-.03.31-.039l7.808-2.167a1.243,1.243,0,0,0,.543-.317l23.966-23.966A4.19,4.19,0,0,0,353.224,443.6Zm-24.84,27.262-3.876-3.876L344.291,447.2l3.876,3.876Zm-5-1.5,2.625,2.625-3.635,1.011Zm28.09-21.591-1.556,1.559-3.876-3.876,1.559-1.556a1.71,1.71,0,0,1,2.419,0l1.455,1.455A1.71,1.71,0,0,1,351.474,447.768Z" transform="translate(-280.655 -414.946)" fill="#fff"/>
</svg>
