<svg id="Group_20833" data-name="Group 20833" xmlns="http://www.w3.org/2000/svg" width="90.003" height="90.003" viewBox="0 0 90.003 90.003">
  <ellipse id="Ellipse_2100" data-name="Ellipse 2100" cx="45.002" cy="45.002" rx="45.002" ry="45.002" transform="translate(0)" fill="#4d6882"/>
  <path id="Path_56706" data-name="Path 56706" d="M202.633,402.822c-4.788,0-9.579.028-14.369,0-4.69-.03-7.029-2.259-7.064-6.928q-.1-13.192,0-26.385c.026-4.678,2.171-7.106,6.846-7.261,6.23-.206,12.475-.063,18.713-.059,1.007,0,2.4.063,2.332,1.232-.066,1.124-1.487,1.079-2.5,1.079-5.793.007-11.585-.014-17.378.016-4.994.023-5.928.934-5.94,5.793q-.035,12.524,0,25.048c.019,4.215,1.433,5.629,5.617,5.64q14.034.046,28.071,0c3.927-.016,5.233-1.3,5.273-5.172.056-5.453.012-10.909.021-16.364,0-1.1-.218-2.714,1.112-2.775,1.424-.066,1.2,1.557,1.2,2.618.019,5.678.077,11.356-.016,17.031a6.224,6.224,0,0,1-6.549,6.474C212.884,402.875,207.759,402.822,202.633,402.822Z" transform="translate(-156.882 -338.924)" fill="#fbfdfd" stroke="#fff" stroke-miterlimit="10" stroke-width="0.75"/>
  <path id="Path_56707" data-name="Path 56707" d="M217.911,366.909a4.366,4.366,0,0,1-1.435,3.287c-7.005,6.462-14.137,12.791-21.056,19.342-2.388,2.259-5.074,2.1-8.045,2.47-.824.1-1.7-.576-1.447-1.346.157-2.482.126-5.076,2.231-7.031,7.066-6.561,14.051-13.215,21.141-19.754a5.5,5.5,0,0,1,6.221-1.007C217.274,363.627,217.845,365.137,217.911,366.909Zm-1.819-.138a2.754,2.754,0,0,0-2.955-2.707c-1.283.049-3.1.7-2.768,2.2a4.251,4.251,0,0,0,3.519,3.17C215.541,369.59,215.832,367.963,216.092,366.771Zm-8.148.878-18.35,17.036,4.257,3.948,18.2-16.725Z" transform="translate(-150.623 -338.582)" fill="#fbfdfd"/>
  <path id="Path_56708" data-name="Path 56708" d="M187.507,372.411l4.06,3.894s-4.388,1.227-4.905.763S187.018,372.982,187.507,372.411Z" transform="translate(-149.625 -325.214)" fill="#4d6882"/>
</svg>
