<svg id="Group_20835" data-name="Group 20835" xmlns="http://www.w3.org/2000/svg" width="90.003" height="90.003" viewBox="0 0 90.003 90.003">
  <ellipse id="Ellipse_2102" data-name="Ellipse 2102" cx="45.002" cy="45.002" rx="45.002" ry="45.002" transform="translate(0 0)" fill="#4d6882"/>
  <path id="Path_56709" data-name="Path 56709" d="M351.253,398.833a12.078,12.078,0,0,0-2.976-4.93l-28.967-28.968a1.092,1.092,0,0,0-1.541,0l-.163.163-2.289-2.318a3.269,3.269,0,0,0-4.657,0l-1.344,1.36a3.279,3.279,0,0,0,.016,4.612l2.3,2.3-.848.837a5.456,5.456,0,0,0-.021,7.733l8.728,8.728a1.09,1.09,0,1,0,1.541-1.541l-8.728-8.728a3.273,3.273,0,0,1-.071-4.552l15.44,15.44,1.541,1.543,11.227,11.225a12.022,12.022,0,0,0,4.928,2.974l6.547,2.032a1.091,1.091,0,0,0,1.364-1.367ZM310.867,365.67l1.344-1.36a1.088,1.088,0,0,1,1.553,0l2.3,2.328-2.878,2.88-2.311-2.311a1.093,1.093,0,0,1,0-1.537ZM313.787,372l4.752-4.752,11.574,11.574-4.751,4.749ZM326.9,385.115l4.749-4.751,2.314,2.314-4.751,4.752Zm3.855,3.855,4.752-4.749,11.225,11.225c.112.115.222.229.33.349l-4.731,4.733c-.119-.108-.236-.218-.349-.33Zm15.259,13.661a9.969,9.969,0,0,1-1.89-.812l4.229-4.229a9.7,9.7,0,0,1,.812,1.89l1.417,4.568Zm0,0" transform="translate(-285.755 -339.383)" fill="#fff"/>
</svg>
