<?xml version="1.0" encoding="utf-8"?>
<!-- Generator: Adobe Illustrator 24.1.2, SVG Export Plug-In . SVG Version: 6.00 Build 0)  -->
<svg version="1.1" id="Icon_Case" xmlns="http://www.w3.org/2000/svg" xmlns:xlink="http://www.w3.org/1999/xlink" x="0px" y="0px"
	 viewBox="0 0 28 26.9" style="enable-background:new 0 0 28 26.9;" xml:space="preserve">
<style type="text/css">
	.st0{fill:#4D6882;}
</style>
<path id="Path_17" class="st0" d="M25.2,5.7h-5.6V2.8c0-1.6-1.2-2.8-2.8-2.8l0,0h-5.6C9.6,0,8.4,1.3,8.4,2.8l0,0v2.8H2.8
	C1.3,5.7,0,7,0,8.5l0,0v15.6c0,1.6,1.2,2.8,2.8,2.8l0,0h22.4c1.6,0,2.8-1.3,2.8-2.8l0,0V8.5C28,7,26.8,5.7,25.2,5.7L25.2,5.7z
	 M16.8,5.7h-5.6V2.8h5.6C16.8,2.8,16.8,5.7,16.8,5.7z"/>
</svg>
