<svg xmlns="http://www.w3.org/2000/svg" width="55" height="55" viewBox="0 0 55 55">
  <g id="Group_20817" data-name="Group 20817" transform="translate(7808.391 9049.205)">
    <circle id="Ellipse_2088" data-name="Ellipse 2088" cx="27.5" cy="27.5" r="27.5" transform="translate(-7808.391 -9049.205)" fill="#e4b62c"/>
    <g id="Material_icons-08-70" data-name="Material icons-08-70" transform="translate(-7794.838 -9035.69)">
      <path id="Path_33901" data-name="Path 33901" d="M12.686,7.45V3.764h1.843L11.764,1,9,3.764h1.843V7.45Z" transform="translate(2.508 12.036)" fill="#fff"/>
      <path id="Path_33902" data-name="Path 33902" d="M3.514,4.515V8.424l1.3-1.3L7,9.3,8.3,8,6.121,5.818l1.3-1.3Z" transform="translate(2.938 11.76)" fill="#fff"/>
      <path id="Path_33903" data-name="Path 33903" d="M20.686,10v1.843H17v1.843h3.686v1.843l2.764-2.764Z" transform="translate(1.88 11.329)" fill="#fff"/>
      <path id="Path_33904" data-name="Path 33904" d="M2.764,15.529V13.686H6.45V11.843H2.764V10L0,12.764Z" transform="translate(3.214 11.329)" fill="#fff"/>
      <path id="Path_33905" data-name="Path 33905" d="M20.077,8.424V4.515h-3.91l1.3,1.3L15.293,8l1.3,1.3,2.178-2.178Z" transform="translate(2.014 11.76)" fill="#fff"/>
      <path id="Path_33906" data-name="Path 33906" d="M11.764,15.529A2.764,2.764,0,1,0,9,12.764,2.768,2.768,0,0,0,11.764,15.529Zm0-3.686a.921.921,0,1,1-.921.921A.922.922,0,0,1,11.764,11.843Z" transform="translate(2.508 11.329)" fill="#fff"/>
      <path id="Path_42760" data-name="Path 42760" d="M11.764,15.529A2.764,2.764,0,1,0,9,12.764,2.768,2.768,0,0,0,11.764,15.529Zm0-3.686a.921.921,0,1,1-.921.921A.922.922,0,0,1,11.764,11.843Z" transform="translate(-7.157 -10)" fill="#fff"/>
      <path id="Path_42762" data-name="Path 42762" d="M11.764,15.529A2.764,2.764,0,1,0,9,12.764,2.768,2.768,0,0,0,11.764,15.529Zm0-3.686a.921.921,0,1,1-.921.921A.922.922,0,0,1,11.764,11.843Z" transform="translate(2.508 -10)" fill="#fff"/>
      <path id="Path_42764" data-name="Path 42764" d="M11.764,15.529A2.764,2.764,0,1,0,9,12.764,2.768,2.768,0,0,0,11.764,15.529Zm0-3.686a.921.921,0,1,1-.921.921A.922.922,0,0,1,11.764,11.843Z" transform="translate(12.172 -10)" fill="#fff"/>
      <path id="Path_33907" data-name="Path 33907" d="M16.215,22.529V19.764A2.768,2.768,0,0,0,13.45,17H9.764A2.768,2.768,0,0,0,7,19.764v2.764H8.843V19.764a.922.922,0,0,1,.921-.921H13.45a.922.922,0,0,1,.921.921v2.764Z" transform="translate(2.665 10.779)" fill="#fff"/>
      <path id="Path_42759" data-name="Path 42759" d="M16.215,22.529V19.764A2.768,2.768,0,0,0,13.45,17H9.764A2.768,2.768,0,0,0,7,19.764v2.764H8.843V19.764a.922.922,0,0,1,.921-.921H13.45a.922.922,0,0,1,.921.921v2.764Z" transform="translate(-7 -10.55)" fill="#fff"/>
      <path id="Path_42761" data-name="Path 42761" d="M16.215,22.529V19.764A2.768,2.768,0,0,0,13.45,17H9.764A2.768,2.768,0,0,0,7,19.764v2.764H8.843V19.764a.922.922,0,0,1,.921-.921H13.45a.922.922,0,0,1,.921.921v2.764Z" transform="translate(2.665 -10.55)" fill="#fff"/>
      <path id="Path_42763" data-name="Path 42763" d="M16.215,22.529V19.764A2.768,2.768,0,0,0,13.45,17H9.764A2.768,2.768,0,0,0,7,19.764v2.764H8.843V19.764a.922.922,0,0,1,.921-.921H13.45a.922.922,0,0,1,.921.921v2.764Z" transform="translate(12.329 -10.55)" fill="#fff"/>
    </g>
  </g>
</svg>
