<svg id="Group_20834" data-name="Group 20834" xmlns="http://www.w3.org/2000/svg" width="90.003" height="90.003" viewBox="0 0 90.003 90.003">
  <ellipse id="Ellipse_2101" data-name="Ellipse 2101" cx="45.002" cy="45.002" rx="45.002" ry="45.002" transform="translate(0 0)" fill="#4d6882"/>
  <g id="Group_20827" data-name="Group 20827" transform="translate(17.106 18.386)">
    <path id="Path_54758" data-name="Path 54758" d="M282.721,394a9.436,9.436,0,0,0-7.467,3.678l-14.484-8.092a9.452,9.452,0,0,0,.524-3.109,9.208,9.208,0,0,0-.536-3.119l14.475-8.083a9.416,9.416,0,1,0-1.948-5.725,9.2,9.2,0,0,0,.536,3.121l-14.463,8.078a9.419,9.419,0,1,0,.021,11.442l14.475,8.092A9.421,9.421,0,1,0,282.721,394Zm0-30.909a6.47,6.47,0,1,1-6.469,6.472,6.476,6.476,0,0,1,6.469-6.472Zm-30.829,29.858a6.47,6.47,0,1,1,6.469-6.472,6.476,6.476,0,0,1-6.469,6.472Zm30.829,16.938a6.471,6.471,0,1,1,6.472-6.472,6.477,6.477,0,0,1-6.472,6.472Zm0,0" transform="translate(-242.453 -360.121)" fill="#fff"/>
  </g>
</svg>
