<svg id="Group_20836" data-name="Group 20836" xmlns="http://www.w3.org/2000/svg" width="90.949" height="90.003" viewBox="0 0 90.949 90.003">
  <ellipse id="Ellipse_2103" data-name="Ellipse 2103" cx="45.474" cy="45.002" rx="45.474" ry="45.002" fill="#4d6882"/>
  <g id="Group_20828" data-name="Group 20828" transform="translate(17.513 21.375)">
    <path id="Path_54760" data-name="Path 54760" d="M391.307,389.939a1.227,1.227,0,0,0-1.215,1.215l.033,8.118H373.856V364.341h23.936v4.325a2.981,2.981,0,0,1,1.7-.51h1.74v-5.463a1.1,1.1,0,0,0-1.086-1.086H371.678a1.092,1.092,0,0,0-1.086,1.086v38.369a1.083,1.083,0,0,0,1.086,1.089h21.23a1.064,1.064,0,0,0,.81-.358l2.721-3.049v-8.8Zm0,0" transform="translate(-370.592 -361.606)" fill="#fff"/>
    <path id="Path_54761" data-name="Path 54761" d="M384.674,379.508l7.043-5.816a.651.651,0,0,0,.047-.979c-.684-.686-7.261-5.631-7.261-5.631s-.873-.883-.873.283v3.03H373.522s-.419-.016-.419.529v4.617c0,.749.51.625.51.625H383.85v3.283c-.016.946.824.059.824.059Zm0,0" transform="translate(-367.224 -354.689)" fill="#fff"/>
    <path id="Path_54762" data-name="Path 54762" d="M411.649,365.107H383.192a1.092,1.092,0,0,0-1.089,1.086v38.369a1.082,1.082,0,0,0,1.089,1.086h21.227a1.055,1.055,0,0,0,.808-.358l7.235-8.087a1.093,1.093,0,0,0,.279-.733V366.21a1.107,1.107,0,0,0-1.091-1.1ZM409.3,393.443h-6.486a1.173,1.173,0,0,0-.855.358,1.141,1.141,0,0,0-.358.85l.033,8.122H385.386V367.842H409.3Zm0,0" transform="translate(-355.151 -356.91)" fill="#fff"/>
    <path id="Path_54763" data-name="Path 54763" d="M392.093,383.779s.873.869.873-.3v-3.03h10.091s.433.016.433-.515V375.32c0-.763-.5-.625-.5-.625H392.746v-3.28c0-.965-.824-.075-.824-.075l-7.048,5.816a.644.644,0,0,0-.042.979c.684.686,7.261,5.645,7.261,5.645Zm0,0" transform="translate(-351.783 -349.051)" fill="#fff"/>
  </g>
</svg>
