<?xml version="1.0" encoding="utf-8"?>
<!-- Generator: Adobe Illustrator 24.1.2, SVG Export Plug-In . SVG Version: 6.00 Build 0)  -->
<svg version="1.1" id="Слой_1" xmlns="http://www.w3.org/2000/svg" xmlns:xlink="http://www.w3.org/1999/xlink" x="0px" y="0px"
	 viewBox="0 0 207 243.2" enable-background="new 0 0 207 243.2" xml:space="preserve">
<g>
	<g id="Design_Doc_Group_1_" transform="translate(-7276.98 -22686.131) rotate(-30)">
		<g id="Doc_Background_1_" transform="translate(1.555 1.558)">
			<path fill="#FFFFFF" d="M-4974.3,23533.1h-116.1v-160h88.6l27.5,27.4V23533.1z"/>
			<path fill="#E1E1E1" d="M-5089.2,23374.4v157.5h113.6v-130.8l-26.8-26.7H-5089.2 M-5091.7,23371.9h90.4l28.2,28.2v134.3h-118.6
				V23371.9z"/>
		</g>
		<g id="Holes_Group_1_" transform="translate(9.193 28.359)">
			
				<ellipse id="Hole_4_1_" transform="matrix(-0.866 -0.5 0.5 -0.866 -21237.6328 41275.5117)" fill="#E8E8E9" cx="-5089" cy="23483" rx="2.7" ry="2.7"/>
			
				<ellipse id="Hole_3_1_" transform="matrix(-0.866 -0.5 0.5 -0.866 -21220.877 41212.9805)" fill="#E8E8E9" cx="-5089" cy="23449.5" rx="2.7" ry="2.7"/>
			
				<ellipse id="Hole_2_1_" transform="matrix(-0.866 -0.5 0.5 -0.866 -21199.7813 41134.2461)" fill="#E8E8E9" cx="-5089" cy="23407.3" rx="2.7" ry="2.7"/>
			
				<ellipse id="Hole_1_1_" transform="matrix(-0.866 -0.5 0.5 -0.866 -21183.3945 41073.0898)" fill="#E8E8E9" cx="-5089" cy="23374.6" rx="2.7" ry="2.7"/>
		</g>
		<g id="Lines_Group_1_" transform="translate(12.928 13.895)">
			<path id="Line_9_1_" fill="#DFDEDE" d="M-4999,23505.9h-92.1c-0.4,0-0.6-0.3-0.6-0.7c0-0.4,0.3-0.7,0.6-0.7h92.1
				c0.4,0,0.6,0.3,0.6,0.7C-4998.3,23505.5-4998.6,23505.8-4999,23505.9L-4999,23505.9z"/>
			<path id="Line_8_1_" fill="#DFDEDE" d="M-4999,23490.4h-92.1c-0.4,0-0.6-0.3-0.6-0.7c0,0,0,0,0,0c0-0.4,0.3-0.7,0.6-0.7h92.1
				c0.4,0,0.6,0.3,0.6,0.7C-4998.3,23490-4998.6,23490.3-4999,23490.4L-4999,23490.4z"/>
			<path id="Line_7_1_" fill="#DFDEDE" d="M-4999,23474.8h-92.1c-0.4,0-0.6-0.3-0.6-0.7c0-0.4,0.3-0.7,0.6-0.7h92.1
				c0.4,0,0.6,0.3,0.6,0.7C-4998.3,23474.5-4998.6,23474.8-4999,23474.8L-4999,23474.8z"/>
			<path id="Line_6_1_" fill="#DFDEDE" d="M-4999,23459.3h-92.1c-0.4,0-0.6-0.3-0.6-0.7c0,0,0,0,0,0c0-0.4,0.3-0.7,0.6-0.7h92.1
				c0.4,0,0.6,0.3,0.6,0.7C-4998.3,23459-4998.6,23459.3-4999,23459.3L-4999,23459.3z"/>
			<path id="Line_5_1_" fill="#DFDEDE" d="M-4999,23443.8h-92.1c-0.4,0-0.6-0.3-0.6-0.7c0,0,0,0,0,0c0-0.4,0.3-0.7,0.6-0.7h92.1
				c0.4,0,0.6,0.3,0.6,0.7C-4998.3,23443.5-4998.6,23443.8-4999,23443.8L-4999,23443.8L-4999,23443.8z"/>
			<path id="Line_4_1_" fill="#DFDEDE" d="M-4999,23428.3h-92.1c-0.4,0-0.6-0.3-0.6-0.7c0,0,0,0,0,0c0-0.4,0.3-0.7,0.6-0.7h92.1
				c0.4,0,0.6,0.3,0.6,0.7C-4998.3,23428-4998.6,23428.3-4999,23428.3L-4999,23428.3z"/>
			<path id="Line_3_1_" fill="#DFDEDE" d="M-4999,23412.8h-92.1c-0.4,0-0.6-0.3-0.6-0.7c0,0,0,0,0,0c0-0.4,0.3-0.7,0.6-0.7h92.1
				c0.4,0,0.6,0.3,0.6,0.7C-4998.3,23412.5-4998.6,23412.8-4999,23412.8L-4999,23412.8z"/>
			<path id="Line_2_1_" fill="#DFDEDE" d="M-4999,23397.3h-92.1c-0.4,0-0.6-0.3-0.6-0.7c0,0,0,0,0,0c0-0.4,0.3-0.7,0.6-0.7h92.1
				c0.4,0,0.6,0.3,0.6,0.7C-4998.3,23397-4998.6,23397.3-4999,23397.3L-4999,23397.3z"/>
			<path id="Line_1_1_" fill="#DFDEDE" d="M-4999,23381.8h-92.1c-0.4,0-0.6-0.3-0.6-0.7c0,0,0,0,0,0c0-0.4,0.3-0.7,0.6-0.7h92.1
				c0.4,0,0.6,0.3,0.6,0.7C-4998.3,23381.4-4998.6,23381.7-4999,23381.8L-4999,23381.8L-4999,23381.8z"/>
			<path id="Vertical_Line_1_" fill="#EE969D" d="M-5083.3,23511.5v-139.2c0-0.3,0.3-0.5,0.7-0.5s0.7,0.2,0.7,0.5v139.2
				c0,0.3-0.3,0.5-0.7,0.5S-5083.3,23511.8-5083.3,23511.5z"/>
		</g>
		<path id="Fold_Background_1_" fill="#E8E8E8" d="M-4999.9,23373.7v28.2h28.2L-4999.9,23373.7z"/>
		<path id="Fold_1_" fill="#B7BEC7" d="M-4971.9,23403.1h-27.8c-0.9,0-1.6-0.7-1.6-1.5c0,0,0,0,0,0v-27.7c0-0.9,0.7-1.6,1.6-1.6
			c0.9,0,1.6,0.7,1.6,1.6v26.1h26.2c0.9,0,1.6,0.7,1.6,1.5C-4970.3,23402.4-4971,23403.1-4971.9,23403.1
			C-4971.9,23403.1-4971.9,23403.1-4971.9,23403.1L-4971.9,23403.1z"/>
		<path id="Document_1_" fill="#B7BEC7" d="M-4971.5,23537.5h-118.6c-0.9,0-1.6-0.7-1.6-1.6v-162.5c0-0.9,0.7-1.6,1.6-1.6
			c0,0,0,0,0,0h90.4c0.4,0,0.8,0.2,1.1,0.5l28.2,28.2c0.3,0.3,0.5,0.7,0.5,1.1v134.3C-4969.9,23536.8-4970.6,23537.5-4971.5,23537.5
			L-4971.5,23537.5z M-5088.6,23534.3h115.5v-132.1l-27.3-27.3h-88.2V23534.3z"/>
	</g>
	<g id="Group_16212_1_" transform="translate(3510.384 301.766)" opacity="0.4">
		
			<rect id="Rectangle_14152_1_" x="-3320.2" y="-273.8" transform="matrix(0.9542 -0.2993 0.2993 0.9542 -80.9092 -1003.6254)" width="6.1" height="72.3"/>
		<path id="Path_45412_1_" d="M-3309.3-202.3l5.9-1.8l-1,7.1L-3309.3-202.3z"/>
		<path id="Path_45413_1_" d="M-3304.2-198.7c-0.2,0-0.5,0-0.7,0.1c-0.2,0.1-0.4,0.2-0.6,0.3l1.1,1.2L-3304.2-198.7z"/>
		<path id="Path_45414_1_" d="M-3333.2-278.5l2.2,7l5.9-1.8l-2.2-7c-0.3-0.9-1.2-1.4-2.1-1.1l-2.7,0.8
			C-3333-280.3-3333.5-279.4-3333.2-278.5C-3333.2-278.5-3333.2-278.5-3333.2-278.5z"/>
		
			<rect id="Rectangle_14153_1_" x="-3331" y="-274.9" transform="matrix(0.9541 -0.2994 0.2994 0.9541 -71.2161 -1009.0117)" width="6.1" height="5.5"/>
		
			<rect id="Rectangle_14154_1_" x="-3318.8" y="-276.6" transform="matrix(0.9541 -0.2994 0.2994 0.9541 -80.6046 -1004.153)" width="2.6" height="75.1"/>
	</g>
	<g id="Group_16219_1_" transform="translate(3508.789 300.171)">
		<g id="Group_16218_1_">
			<g id="Group_16215_1_" transform="translate(0 8.823)">
				<g id="Group_16213_1_">
					
						<rect id="Rectangle_14155_1_" x="-3320.8" y="-281.6" transform="matrix(0.9542 -0.2993 0.2993 0.9542 -78.5862 -1004.1571)" fill="#FAA234" width="6.1" height="72.3"/>
				</g>
				<path id="Path_45415_1_" fill="#F2DABB" d="M-3309.8-210.1l5.9-1.8l-1,7.1L-3309.8-210.1z"/>
				<g id="Group_16214_1_" transform="translate(1.321 76.082)">
					<path id="Path_45416_1_" fill="#252328" d="M-3306.1-282.6c-0.2,0-0.5,0-0.7,0.1c-0.2,0.1-0.4,0.2-0.6,0.3l1.1,1.2
						L-3306.1-282.6z"/>
				</g>
			</g>
			<path id="Path_45417_1_" fill="#FF7BAC" d="M-3333.8-277.5l2.2,7l5.9-1.8l-2.2-7c-0.3-0.9-1.2-1.4-2.1-1.1l-2.7,0.8
				C-3333.5-279.4-3334-278.4-3333.8-277.5C-3333.8-277.5-3333.8-277.5-3333.8-277.5z"/>
			<g id="Group_16216_1_" transform="translate(13.946 6.112)">
				
					<rect id="Rectangle_14156_1_" x="-3345.5" y="-280" transform="matrix(0.9541 -0.2994 0.2994 0.9541 -70.3438 -1013.5953)" fill="#CCCCCC" width="6.1" height="5.5"/>
			</g>
			<g id="Group_16217_1_" transform="translate(1.758 6.412)" opacity="0.4">
				
					<rect id="Rectangle_14157_1_" x="-3321.2" y="-282" transform="matrix(0.9541 -0.2994 0.2994 0.9541 -79.0833 -1005.1007)" width="2.6" height="75.1"/>
			</g>
		</g>
	</g>
	<g id="Group_16261_1_" opacity="0.4">
		<path id="Path_45474_1_" d="M191,136.4c2.5,4.4,1,10.1-3.4,12.6l-98.2,56.2c-4.4,2.5-10.1,1-12.6-3.4L3.3,73.5
			c-2.5-4.4-1-10.1,3.4-12.6l98.2-56.2c4.4-2.5,10.1-1,12.6,3.4L191,136.4z"/>
		
			<rect id="Rectangle_14172_1_" x="41.1" y="30.9" transform="matrix(0.8679 -0.4968 0.4968 0.8679 -39.5956 63.6026)" width="117.4" height="150.7"/>
		
			<rect id="Rectangle_14173_1_" x="38.9" y="30.4" transform="matrix(0.8679 -0.4968 0.4968 0.8679 -39.6313 62.4659)" width="117.4" height="150.7"/>
		
			<rect id="Rectangle_14174_1_" x="69.5" y="124.9" transform="matrix(0.8679 -0.4968 0.4968 0.8679 -47.9067 70.6505)" width="78.8" height="0.9"/>
		
			<rect id="Rectangle_14175_1_" x="74" y="132.8" transform="matrix(0.8679 -0.4968 0.4968 0.8679 -51.2461 73.9537)" width="78.8" height="0.9"/>
		
			<rect id="Rectangle_14176_1_" x="78.6" y="140.8" transform="matrix(0.8679 -0.4968 0.4968 0.8679 -54.5853 77.2565)" width="78.8" height="0.9"/>
		
			<rect id="Rectangle_14177_1_" x="83.1" y="148.7" transform="matrix(0.8679 -0.4968 0.4968 0.8679 -57.925 80.5596)" width="78.8" height="0.9"/>
		
			<rect id="Rectangle_14178_1_" x="90.4" y="166.9" transform="matrix(0.8678 -0.4968 0.4968 0.8678 -68.7609 76.2874)" width="37.3" height="0.9"/>
		
			<rect id="Rectangle_14179_1_" x="65.2" y="117.4" transform="matrix(0.8679 -0.4968 0.4968 0.8679 -44.7477 67.5262)" width="78.8" height="0.9"/>
		
			<rect id="Rectangle_14180_1_" x="65.9" y="105.2" transform="matrix(0.8688 -0.4951 0.4951 0.8688 -45.8912 50.1184)" width="11.5" height="12.9"/>
		
			<rect id="Rectangle_14181_1_" x="79" y="88.4" transform="matrix(0.8686 -0.4955 0.4955 0.8686 -38.0026 55.0346)" width="11.5" height="21.6"/>
		
			<rect id="Rectangle_14182_1_" x="105.8" y="55.6" transform="matrix(0.8686 -0.4954 0.4954 0.8686 -22.2802 65.0423)" width="11.5" height="37.9"/>
		
			<rect id="Rectangle_14183_1_" x="92.1" y="71.2" transform="matrix(0.8686 -0.4955 0.4955 0.8686 -30.022 59.8402)" width="11.5" height="30.6"/>
		
			<rect id="Rectangle_14184_1_" x="46.4" y="72.5" transform="matrix(0.557 -0.8305 0.8305 0.557 -26.2137 98.5698)" width="65.8" height="2.8"/>
		<path id="Path_45475_1_" d="M92,48.3l7.2-5l-1.3,9L92,48.3z"/>
		<path id="Path_45476_1_" d="M131.2,86.5l-67.3,39l-25-43.8l2.4-1.4l23.6,41.4l64.8-37.6L131.2,86.5z"/>
		<path id="Path_45477_1_" d="M78.7,22.9l-6.2,3.6C68,29,62.3,27.4,59.8,23l-1.1-1.9c-2.5-4.4-7.8-6.2-11.8-3.9s-5.1,7.7-2.6,12.2
			l1.1,1.9c2.5,4.4,1,10.1-3.4,12.6l-6.2,3.6c-4.4,2.5-6.6,7.1-4.8,10.2s3.2,5.6,3.2,5.6c0,0,0,0,0.1,0l8.1-4.6L85,34.2l8.1-4.6
			c0,0,0,0,0-0.1s-1.5-2.6-3.2-5.6S83.1,20.4,78.7,22.9z M52.9,27.7c-1.6,0.9-3.7,0.4-4.7-1.3s-0.4-3.7,1.3-4.7
			c1.6-0.9,3.7-0.4,4.7,1.3c0,0,0,0,0,0C55.1,24.6,54.6,26.7,52.9,27.7z"/>
		<path id="Path_45478_1_" d="M32.8,60.9l1.3,2.3c0,0,0,0,0.1,0l8.1-4.6L85,34.2l8.1-4.6c0,0,0,0,0-0.1l-1.3-2.3L32.8,60.9z"/>
	</g>
	<g id="Group_16286_1_" transform="translate(13.631 6.578)">
		<g id="Group_16285_1_">
			<g id="Group_16262_1_" transform="translate(0 8.673)">
				<path id="Path_45479_1_" fill="#A67C52" d="M192.1,117.7c2.5,4.4,1,10.1-3.4,12.6l-98.2,56.2c-4.4,2.5-10.1,1-12.6-3.4L4.4,54.8
					c-2.5-4.4-1-10.1,3.4-12.6L106-14c4.4-2.5,10.1-1,12.6,3.4L192.1,117.7z"/>
			</g>
			<g id="Group_16263_1_" transform="translate(8.166 18.778)" opacity="0.5">
				
					<rect id="Rectangle_14185_1_" x="34" y="2" transform="matrix(0.8679 -0.4968 0.4968 0.8679 -26.2093 56.2839)" width="117.4" height="150.7"/>
			</g>
			<g id="Group_16264_1_" transform="translate(6.807 17.034)">
				
					<rect id="Rectangle_14186_1_" x="33.2" y="3.3" transform="matrix(0.8679 -0.4968 0.4968 0.8679 -26.9325 56.0536)" fill="#FFFFFF" width="117.4" height="150.7"/>
			</g>
			<g id="Group_16271_1_" transform="translate(28.375 107.876)">
				<g id="Group_16265_1_" transform="translate(5.85 8.531)">
					
						<rect id="Rectangle_14187_1_" x="36.4" y="-1.5" transform="matrix(0.8679 -0.4968 0.4968 0.8679 10.5403 37.4835)" fill="#B8BABC" width="78.8" height="0.9"/>
				</g>
				<g id="Group_16266_1_" transform="translate(4.388 17.55)">
					
						<rect id="Rectangle_14188_1_" x="42.4" y="-2.6" transform="matrix(0.8679 -0.4968 0.4968 0.8679 11.8749 40.3213)" fill="#B8BABC" width="78.8" height="0.9"/>
				</g>
				<g id="Group_16267_1_" transform="translate(2.925 26.568)">
					
						<rect id="Rectangle_14189_1_" x="48.4" y="-3.7" transform="matrix(0.8679 -0.4968 0.4968 0.8679 13.209 43.1589)" fill="#B8BABC" width="78.8" height="0.9"/>
				</g>
				<g id="Group_16268_1_" transform="translate(1.462 35.587)">
					
						<rect id="Rectangle_14190_1_" x="54.4" y="-4.8" transform="matrix(0.8679 -0.4968 0.4968 0.8679 14.5434 45.997)" fill="#B8BABC" width="78.8" height="0.9"/>
				</g>
				<g id="Group_16269_1_" transform="translate(0 44.605)">
					
						<rect id="Rectangle_14191_1_" x="63.1" y="4.4" transform="matrix(0.8678 -0.4968 0.4968 0.8678 8.3838 41.258)" fill="#B8BABC" width="37.3" height="0.9"/>
				</g>
				<g id="Group_16270_1_" transform="translate(7.233 0)">
					
						<rect id="Rectangle_14192_1_" x="30.7" y="-0.5" transform="matrix(0.8679 -0.4968 0.4968 0.8679 9.2782 34.7995)" fill="#B8BABC" width="78.8" height="0.9"/>
				</g>
			</g>
			<g id="Group_16281_1_" transform="translate(38.17 45.211)">
				<g id="Group_16276_1_" transform="translate(7.99 20.492)">
					<g id="Group_16272_1_" transform="translate(0 16.071)">
						
							<rect id="Rectangle_14193_1_" x="20.8" y="13.4" transform="matrix(0.8688 -0.4951 0.4951 0.8688 -6.3401 15.7632)" fill="#3E9117" width="11.5" height="12.9"/>
					</g>
					<g id="Group_16273_1_" transform="translate(17.372 10.358)">
						
							<rect id="Rectangle_14194_1_" x="16.6" y="2.3" transform="matrix(0.8686 -0.4955 0.4955 0.8686 -3.5408 12.7882)" fill="#3E9117" width="11.5" height="21.6"/>
					</g>
					<g id="Group_16274_1_" transform="translate(52.344 0)">
						
							<rect id="Rectangle_14195_1_" x="8.4" y="-20.2" transform="matrix(0.8686 -0.4954 0.4954 0.8686 2.4533 6.8354)" fill="#3E9117" width="11.5" height="37.9"/>
					</g>
					<g id="Group_16275_1_" transform="translate(34.744 4.287)">
						
							<rect id="Rectangle_14196_1_" x="12.3" y="-8.8" transform="matrix(0.8686 -0.4955 0.4955 0.8686 -0.8508 9.7838)" fill="#3E9117" width="11.5" height="30.6"/>
					</g>
				</g>
				<g id="Group_16279_1_" transform="translate(12.613 7.452)">
					<g id="Group_16277_1_" transform="translate(0 0.833)">
						
							<rect id="Rectangle_14197_1_" x="-3.3" y="8.9" transform="matrix(0.557 -0.8305 0.8305 0.557 4.5491 29.1619)" fill="#C1272D" width="65.8" height="2.8"/>
					</g>
					<g id="Group_16278_1_" transform="translate(57.843 0)">
						<path id="Path_45480_1_" fill="#C1272D" d="M-15.5-14.4l7.2-5l-1.3,9L-15.5-14.4z"/>
					</g>
				</g>
				<g id="Group_16280_1_">
					<path id="Path_45481_1_" fill="#3E9117" d="M94.1,31.3l-67.3,39l-25-43.8l2.4-1.4l23.6,41.4l64.8-37.6L94.1,31.3z"/>
				</g>
			</g>
			<g id="Group_16283_1_" transform="translate(54.196 0)">
				<g id="Group_16282_1_">
					<path id="Path_45482_1_" fill="#999999" d="M25.6,12.8l-6.2,3.6c-4.4,2.5-10.1,1-12.6-3.4l-1.1-1.9C3.1,6.6-2.2,4.9-6.2,7.1
						s-5.1,7.7-2.6,12.1l1.1,1.9c2.5,4.4,1,10.1-3.4,12.6l-6.2,3.6c-4.4,2.5-6.6,7.1-4.8,10.2c1.8,3.1,3.2,5.6,3.2,5.6
						c0,0,0,0,0.1,0l8.1-4.6l42.8-24.5l8.1-4.6c0,0,0,0,0-0.1c0,0-1.5-2.6-3.2-5.6S30,10.3,25.6,12.8z M-0.2,17.6
						c-1.6,0.9-3.7,0.4-4.7-1.3s-0.4-3.7,1.3-4.7c1.6-0.9,3.7-0.4,4.7,1.3c0,0,0,0,0,0C2,14.6,1.5,16.7-0.2,17.6z"/>
				</g>
			</g>
			<g id="Group_16284_1_" transform="translate(54.196 25.207)">
				<path id="Path_45483_1_" fill="#808080" d="M-20.3,25.7L-19,28c0,0,0,0,0.1,0l8.1-4.6L31.9-1.1L40-5.7c0,0,0,0,0-0.1l-1.3-2.3
					L-20.3,25.7z"/>
			</g>
		</g>
	</g>
</g>
</svg>
