<?xml version="1.0" encoding="utf-8"?>
<!-- Generator: Adobe Illustrator 24.1.2, SVG Export Plug-In . SVG Version: 6.00 Build 0)  -->
<svg version="1.1" id="Слой_1" xmlns="http://www.w3.org/2000/svg" xmlns:xlink="http://www.w3.org/1999/xlink" x="0px" y="0px"
	 viewBox="0 0 56 28" enable-background="new 0 0 56 28" xml:space="preserve">
<path id="Mask" fill="#95A1BB" d="M0,24v-3c0-4,8-6,12-6s12,2,12,6v3L0,24z M6,6c0-3.3,2.7-6,6-6s6,2.7,6,6c0,3.3-2.7,6-6,6
	C8.7,12,6,9.3,6,6C6,6,6,6,6,6L6,6z"/>
<path id="Mask_1_" fill="#95A1BB" d="M16,26v-3c0-4,8-6,12-6s12,2,12,6v3L16,26z M22,8c0-3.3,2.7-6,6-6c3.3,0,6,2.7,6,6
	c0,3.3-2.7,6-6,6C24.7,14,22,11.3,22,8C22,8,22,8,22,8L22,8z"/>
<path id="Mask_2_" fill="#95A1BB" d="M32,28v-3c0-4,8-6,12-6s12,2,12,6v3L32,28z M38,10c0-3.3,2.7-6,6-6c3.3,0,6,2.7,6,6
	c0,3.3-2.7,6-6,6C40.7,16,38,13.3,38,10C38,10,38,10,38,10L38,10z"/>
</svg>
