<svg id="Material_icons-06-98" data-name="Material icons-06-98" xmlns="http://www.w3.org/2000/svg" width="48.446" height="46.427" viewBox="0 0 48.446 46.427">
  <path id="Path_33538" data-name="Path 33538" d="M4.037,11.093H40.371V15.13h4.037V11.093a4.04,4.04,0,0,0-4.037-4.037H38.353V5.037H34.316V7.056H30.278V1H14.13V7.056H10.093V5.037H6.056V7.056H4.037A4.04,4.04,0,0,0,0,11.093V35.316a4.04,4.04,0,0,0,4.037,4.037h8.072V35.316H4.037Zm14.13-6.056h8.074V7.056H18.167Z" transform="translate(0 -1)" fill="#2e4354"/>
  <path id="Path_33539" data-name="Path 33539" d="M8,38.26h4.037V14.037H36.26V38.26H40.3V10H8Z" transform="translate(8.149 8.167)" fill="#2e4354"/>
  <rect id="Rectangle_12121" data-name="Rectangle 12121" width="12.111" height="4.037" transform="translate(24.223 26.241)" fill="#2e4354"/>
  <rect id="Rectangle_12122" data-name="Rectangle 12122" width="16.149" height="4.037" transform="translate(24.223 32.297)" fill="#2e4354"/>
  <rect id="Rectangle_12123" data-name="Rectangle 12123" width="16.149" height="4.037" transform="translate(24.223 38.353)" fill="#2e4354"/>
</svg>
