<?xml version="1.0" encoding="utf-8"?>
<!-- Generator: Adobe Illustrator 24.1.2, SVG Export Plug-In . SVG Version: 6.00 Build 0)  -->
<svg version="1.1" id="Слой_1" xmlns="http://www.w3.org/2000/svg" xmlns:xlink="http://www.w3.org/1999/xlink" x="0px" y="0px"
	 width="347.9px" height="311.9px" viewBox="0 0 347.9 311.9" enable-background="new 0 0 347.9 311.9" xml:space="preserve">
<rect x="84.9" fill="none" width="263" height="312"/>
<g id="Mask_Group_51" transform="translate(0 -1848)">
	<g id="Group_20451" transform="matrix(1, -0.017, 0.017, 1, -105.21, 2019.259)">
		<path id="Path_50404" fill="#FFFFFF" d="M132,120.9c21.6-12.2,52.7-14.8,83.9-54.2c58.5-73.7,143.6-98.6,189.9-2.3
			s28.1,185.4-61.4,208.2c-65.7,16.7-94.5-20-131.2,0.1c-68.3,37.5-119.7,6.6-127.1-52.3S103.3,137.1,132,120.9z"/>
	</g>
	<g id="Group_20423" transform="translate(70.439 1915.455)">
		<path id="Path_44078" fill="#E4B62C" d="M146.8,90.8c19.7,0.7,30.5-5.8,46.5-21.8c17.8-17.8,17.2-30.8,5.8-29.1
			c-9.6,1.4-32.8,18.2-40.1,34.9s21.2-11.5,27.6-47.3c3-16.7,1-22.8-6.3-24.2c-9-1.8-30.8,30.8-34.4,64.9s12.8-37.3,2.3-60.3
			c-3.6-8-11.6-14.7-17.4,5.1c-3.6,12.4-9.6,62.5-0.1,63.2s-7.9-66.2-18.8-68.3s-9,34.9-1.5,52.3c7.8,18.2,10.6,18.4,18.6,19.1
			s-15.5-11.6-28.1-35.9c-11.3-21.7-16.5-10.2-16-4.4C85.4,45.8,95.5,88.9,146.8,90.8z"/>
		<path id="Path_44079" fill="#0E755D" d="M129.3,82.1c-0.3-0.6-0.5-1.2-0.8-1.8c-2.8-6.7,5.2-5.1,10.5-0.9c1-2.2,3.6-3.2,5.9-2.2
			c0.6,0.3,1.1,0.7,1.6,1.2c0.8,0.9,1.3,1.9,1.6,3.1c2.5-2.4,6.7-2.8,8.6-1.2c1.6,1.4,2.4,3.4,2.4,5.5c0.7-0.3,1.5-0.7,2.5-1.1
			c5.6-2.4,9.7-0.6,8.8,3.7c-7.8,3.2-16.2,4.7-26.5,3.8c-9.7-0.6-19.1-3.2-27.7-7.5c-0.3-1.1,0.1-2.2,0.8-3
			C120.1,78.1,125.2,79.6,129.3,82.1z"/>
		<path fill="#0E755D" d="M153.7,245.4l-4.9-1.5c5.3-17.4-0.3-43.4-5.7-68.6c-3.3-15.2-6.3-29.6-7.1-42c-2-33.5,6.9-46.2,7.3-46.7
			l4.2,3l-2.1-1.5l2.1,1.5c-0.1,0.1-8.2,12.1-6.3,43.4c0.7,12,3.7,26.2,7,41.2C153.7,200.1,159.4,226.8,153.7,245.4z"/>
		<path id="Path_44081" fill="#0E755D" d="M143,173.4c0,0-5.4-20.2-19.4-24.7c-17.9-5.8-18.4-6.3-24.7-12.6
			c-0.5-0.5,1,20.4,14.5,28.6S137.7,170.5,143,173.4z"/>
		<path id="Path_44082" fill="#0E755D" d="M181.4,103.1c0,0-14.9,1.1-21.9,10.2c-6.2,8-10.7,24.2-20.5,29.1
			c-0.6,0.3,23.9,0,33.7-12.5S181.3,111.4,181.4,103.1z"/>
	</g>
</g>
<rect y="0" fill="none" width="330.4" height="311.9"/>
</svg>
