<svg xmlns="http://www.w3.org/2000/svg" xmlns:xlink="http://www.w3.org/1999/xlink" width="498" height="219" viewBox="0 0 498 219">
  <defs>
    <clipPath id="clip-path">
      <rect id="Rectangle_16347" data-name="Rectangle 16347" width="498" height="219" transform="translate(0 1941)" fill="#fff" stroke="#707070" stroke-width="1"/>
    </clipPath>
  </defs>
  <g id="Mask_Group_52" data-name="Mask Group 52" transform="translate(0 -1941)" clip-path="url(#clip-path)">
    <path id="Path_53427" data-name="Path 53427" d="M562.138,474.638c99.974-87.825,45.484-142.507,2.805-152.69s-31.015-73.472-61.747-106.99c-19.979-21.791-80.828-40.624-151.2,8.514s-157.379,46.439-190.243,72.1c-41.772,32.62-43.588,108.71-15.277,144.529,31.019,39.244,43.428,37.946,43.428,37.946Z" transform="translate(-155.918 1766.989)" fill="#e6f6fa"/>
    <g id="Group_20448" data-name="Group 20448" transform="translate(36.001 2055.775)">
      <path id="Path_43913" data-name="Path 43913" d="M1545.2,3231.988c9.253,16.916,23.583,21.62,42.537,18.427,12.287-16.516,12.079-34.084-2.081-49.919-14.082-15.693-37.7-26.564-56.767-28.4C1530.723,3190.472,1536.039,3215.26,1545.2,3231.988Z" transform="translate(-1528.888 -3172.096)" fill="#0e755d"/>
      <path id="Path_43914" data-name="Path 43914" d="M1484.615,3210.762c25.694,26.57,57.524,74.629,69.17,102.286" transform="translate(-1477.662 -3203.445)" fill="none" stroke="#095d4a" stroke-miterlimit="10" stroke-width="5.128"/>
      <path id="Path_43915" data-name="Path 43915" d="M1772.456,3233.72a126.987,126.987,0,0,0-.755-15.47" transform="translate(-1750.679 -3209.516)" fill="none" stroke="#095d4a" stroke-miterlimit="10" stroke-width="5.128"/>
      <path id="Path_43916" data-name="Path 43916" d="M1712.187,3286.332c.835-6.054,1.986-12.158,1.894-17.953" transform="translate(-1681.029 -3250.159)" fill="none" stroke="#095d4a" stroke-miterlimit="10" stroke-width="5.128"/>
      <path id="Path_43917" data-name="Path 43917" d="M1651.813,3302.866a125.038,125.038,0,0,0,3.781-29.854" transform="translate(-1611.112 -3253.915)" fill="none" stroke="#095d4a" stroke-miterlimit="10" stroke-width="5.128"/>
      <path id="Path_43918" data-name="Path 43918" d="M1596.008,3367.1a124.115,124.115,0,0,0,6.965-27.656" transform="translate(-1547.93 -3307.775)" fill="none" stroke="#095d4a" stroke-miterlimit="10" stroke-width="5.128"/>
      <path id="Path_43919" data-name="Path 43919" d="M1566.742,3476.284a134.283,134.283,0,0,0,6.427-15.046" transform="translate(-1512.588 -3406.522)" fill="none" stroke="#095d4a" stroke-miterlimit="10" stroke-width="5.128"/>
      <path id="Path_43920" data-name="Path 43920" d="M1795.288,3278.82q-7.392-1.033-14.809-2.117" transform="translate(-1775.154 -3256.907)" fill="none" stroke="#095d4a" stroke-miterlimit="10" stroke-width="5.128"/>
      <path id="Path_43921" data-name="Path 43921" d="M1751.606,3345.317c-7.513-.756-14.147-1.752-21.692-2.589" transform="translate(-1721.904 -3310.438)" fill="none" stroke="#095d4a" stroke-miterlimit="10" stroke-width="5.128"/>
      <path id="Path_43922" data-name="Path 43922" d="M1709.043,3411.807c-9.235-.544-17.721-1.363-26.992-2.032" transform="translate(-1670.283 -3364.797)" fill="none" stroke="#095d4a" stroke-miterlimit="10" stroke-width="5.128"/>
      <path id="Path_43923" data-name="Path 43923" d="M1666.418,3476.788q-14.039-.213-28.114-.625" transform="translate(-1619.379 -3418.622)" fill="none" stroke="#095d4a" stroke-miterlimit="10" stroke-width="5.128"/>
      <path id="Path_43924" data-name="Path 43924" d="M1628.427,3535.041c-7.971.229-16.176.44-24.153.575" transform="translate(-1574.949 -3466.358)" fill="none" stroke="#095d4a" stroke-miterlimit="10" stroke-width="5.128"/>
    </g>
    <g id="Group_20449" data-name="Group 20449" transform="translate(86.031 2015.347)">
      <path id="Path_43937" data-name="Path 43937" d="M1310.08,3008.458c-3.429,20.638,7.4,36.146,22.806,45.156,18.6-6.458,32.28-20.031,35.333-38.432,2.989-18.366-8.72-38.919-26.36-56.729C1328.293,2967.329,1313.318,2987.888,1310.08,3008.458Z" transform="translate(-1309.444 -2958.453)" fill="#75cc96"/>
      <path id="Path_43938" data-name="Path 43938" d="M1460.771,3007.307c2.662,32.966-10.9,90.725-15.079,124.2" transform="translate(-1427.656 -2998.062)" fill="none" stroke="#69be89" stroke-miterlimit="10" stroke-width="5.128"/>
      <path id="Path_43939" data-name="Path 43939" d="M1383.519,3079.491c4.147-2.844,8.63-6.2,12.152-8.928" transform="translate(-1350.448 -3049.348)" fill="none" stroke="#69be89" stroke-miterlimit="10" stroke-width="5.128"/>
      <path id="Path_43940" data-name="Path 43940" d="M1368.6,3153.263c5.516-3.352,11.509-6.239,16.28-9.542" transform="translate(-1336.834 -3108.661)" fill="none" stroke="#69be89" stroke-miterlimit="10" stroke-width="5.128"/>
      <path id="Path_43941" data-name="Path 43941" d="M1321.489,3204.35c9.52-5.417,19.162-11.527,27.042-16.821" transform="translate(-1291.57 -3144.179)" fill="none" stroke="#69be89" stroke-miterlimit="10" stroke-width="5.128"/>
      <path id="Path_43942" data-name="Path 43942" d="M1333.008,3278.8c9.411-4.872,18.351-10.042,26.6-15.134" transform="translate(-1304.827 -3205.909)" fill="none" stroke="#69be89" stroke-miterlimit="10" stroke-width="5.128"/>
      <path id="Path_43943" data-name="Path 43943" d="M1406.866,3374.952c5.213-2.462,10.289-5.073,15.237-7.755" transform="translate(-1381.297 -3289.847)" fill="none" stroke="#69be89" stroke-miterlimit="10" stroke-width="5.128"/>
      <path id="Path_43944" data-name="Path 43944" d="M1457.94,3047.044q-5.925-6.34-12.192-13.3" transform="translate(-1424.493 -3019.496)" fill="none" stroke="#69be89" stroke-miterlimit="10" stroke-width="5.128"/>
      <path id="Path_43945" data-name="Path 43945" d="M1473.671,3103.467c-5.968-6.036-11.273-11.9-17.774-18.811" transform="translate(-1442.145 -3060.774)" fill="none" stroke="#69be89" stroke-miterlimit="10" stroke-width="5.128"/>
      <path id="Path_43946" data-name="Path 43946" d="M1487.439,3167.539c-7.243-6.856-14.2-13.87-22.375-22.036" transform="translate(-1457.647 -3110.106)" fill="none" stroke="#69be89" stroke-miterlimit="10" stroke-width="5.128"/>
      <path id="Path_43947" data-name="Path 43947" d="M1496.957,3245.357c-7.219-6.354-15.105-13.308-23.479-20.993" transform="translate(-1468.758 -3174.044)" fill="none" stroke="#69be89" stroke-miterlimit="10" stroke-width="5.128"/>
      <path id="Path_43948" data-name="Path 43948" d="M1506.152,3331.412c-6.085-4.943-12.911-10.447-19.95-16.3" transform="translate(-1480.361 -3247.616)" fill="none" stroke="#69be89" stroke-miterlimit="10" stroke-width="5.128"/>
    </g>
  </g>
</svg>
