<svg xmlns="http://www.w3.org/2000/svg" width="24" height="22" viewBox="0 0 24 22">
  <path id="Shape" d="M12,22a6.334,6.334,0,0,1-5.438-3H2.205A12.187,12.187,0,0,1,0,12,12,12,0,0,1,20.485,3.515,11.921,11.921,0,0,1,24,12a12.188,12.188,0,0,1-2.2,7H17.438A6.338,6.338,0,0,1,12,22ZM12,2A10.011,10.011,0,0,0,2,12a10.205,10.205,0,0,0,1.3,5H7.73a4.539,4.539,0,0,0,8.54,0H20.7A10.206,10.206,0,0,0,22,12,10.011,10.011,0,0,0,12,2Zm.022,15.61a2.343,2.343,0,0,1-1.133-4.395l1.133-5.308,1.133,5.308a2.343,2.343,0,0,1-1.133,4.395Zm-5.6-6.654h0L3.956,9.891a8.992,8.992,0,0,1,.5-1.25l2.47,1.066a6.184,6.184,0,0,0-.5,1.248Zm11.164-.091h0a6.185,6.185,0,0,0-.516-1.241l2.454-1.106a9.1,9.1,0,0,1,.516,1.242l-2.452,1.106Zm-1.019-2.01h0a5.976,5.976,0,0,0-.918-.956l1.891-1.968a8.624,8.624,0,0,1,.918.957L16.572,8.855Zm-9.1,0h0L5.58,6.888A8.724,8.724,0,0,1,6.5,5.931L8.389,7.9a5.973,5.973,0,0,0-.917.956ZM9.185,7.342h0L8.15,4.774a8.266,8.266,0,0,1,1.2-.524l1.033,2.569a5.633,5.633,0,0,0-1.2.522Zm5.652-.013h0a5.639,5.639,0,0,0-1.2-.518L14.66,4.238a8.242,8.242,0,0,1,1.2.519L14.838,7.329Zm-3.466-.717h0V3.828c.225-.018.443-.026.65-.026s.426.009.648.026V6.611a5.828,5.828,0,0,0-.648-.038,5.631,5.631,0,0,0-.65.039Z" fill="#333"/>
</svg>
