<svg xmlns="http://www.w3.org/2000/svg" width="170.942" height="392.313" viewBox="0 0 170.942 392.313">
  <g id="Group_20450" data-name="Group 20450" transform="translate(-1780.672 -1460.101)">
    <path id="Path_53377" data-name="Path 53377" d="M57.168,47.779C47.58,22.557,28.881,4.708,9.775,0-1.38,16.211-3.5,41.975,6.085,67.2s28.289,43.071,47.392,47.776C64.634,98.765,66.754,73,57.168,47.779Z" transform="translate(1796.194 1460.101) rotate(2)" fill="#199377"/>
    <g id="Group_20424" data-name="Group 20424" transform="translate(1837.037 1591.918) rotate(2)">
      <path id="Path_44064" data-name="Path 44064" d="M102.957,133.359c17.8-51.6,14.6-102.636-5.049-133.359C63.492,12.069,29.5,50.263,11.692,101.867s-14.6,102.641,5.049,133.357C51.155,223.159,85.149,184.963,102.957,133.359Z" transform="translate(0 0)" fill="#0e755d"/>
      <path id="Path_44065" data-name="Path 44065" d="M40.35,114.306C45.6,69.168,36.695,27.554,18.689,0q-3.814,8.58-7,17.762c-17.808,51.6-14.6,102.641,5.049,133.357a93.456,93.456,0,0,0,18.581-9.075A220.233,220.233,0,0,0,40.35,114.306Z" transform="translate(0 84.105)" fill="#0c6c56"/>
      <path id="Path_44066" data-name="Path 44066" d="M0,235.224C30.542,199.975,80.974,119.149,81.164,0" transform="translate(16.742 0)" fill="none" stroke="#0d6752" stroke-miterlimit="10" stroke-width="5.128"/>
    </g>
    <g id="Group_20425" data-name="Group 20425" transform="translate(1785.581 1709.27) rotate(2)">
      <path id="Path_44067" data-name="Path 44067" d="M67.355,66.442C63.768,35.59,47.079,10.495,25.852,0,7.6,15.086-2.889,43.339.7,74.189s20.274,55.948,41.5,66.445C60.459,125.548,70.944,97.3,67.355,66.442Z" transform="translate(0 0)" fill="#0b5846"/>
      <path id="Path_44068" data-name="Path 44068" d="M16.35,140.635C25.5,114.775,23.029,46.969,0,0" transform="translate(25.851 0)" fill="none" stroke="#084b3c" stroke-miterlimit="10" stroke-width="5.128"/>
    </g>
  </g>
</svg>
