<?xml version="1.0" encoding="utf-8"?>
<!-- Generator: Adobe Illustrator 24.1.2, SVG Export Plug-In . SVG Version: 6.00 Build 0)  -->
<svg version="1.1" id="Слой_1" xmlns="http://www.w3.org/2000/svg" xmlns:xlink="http://www.w3.org/1999/xlink" x="0px" y="0px"
	 viewBox="0 0 305.8 266.8" enable-background="new 0 0 305.8 266.8" xml:space="preserve">
<path id="Path_42548" fill-rule="evenodd" clip-rule="evenodd" fill="#0E755D" d="M79.1,48.2l13,18.2l7.7-8.2l-3,15.7L109,85.8
	l7.2-7.9l-1.9,10.7c20.9,19,27.9,9.3,21.2-29.3L124.1,50l9.4,2.4l-15-37.9L94.1,2.1c0,0-6.4,13.6-19.1,40.8l11.4-5.6L79.1,48.2z"/>
<path id="Path_42549" fill-rule="evenodd" clip-rule="evenodd" fill="#FFFFFF" d="M126.3,79.1c0.5,0,0.8-0.4,0.8-0.8
	c0-0.1,0-0.3-0.1-0.4L91.4,11l-2,3.8l36.3,63.9C125.8,78.9,126.1,79.1,126.3,79.1z"/>
<path id="Path_42550" fill-rule="evenodd" clip-rule="evenodd" fill="#75CC96" d="M3.8,75.3c-12,37,4.2,40.3,48.8,9.9
	c66.9-45.6,1.7-6.5,5-19.6c2.2-8.7,3-4.3,2.4,13.2l39.1-40.4l1.7-37.6L38.8,0l13.4,11.1L34.4,8.3L18.9,34.9L33.5,40l-21.4,5.2
	c0,0-2.6,7.3-7.8,21.9l14,4.5L3.8,75.3z"/>
<path id="Path_42551" fill-rule="evenodd" clip-rule="evenodd" fill="#FFFFFF" d="M23.5,85.7c0.4,0,0.8-0.1,1-0.5L88.2,2.5l-5.9-0.4
	L22.7,83.9c-0.4,0.5-0.3,1.2,0.3,1.6C23.1,85.6,23.3,85.7,23.5,85.7L23.5,85.7z"/>
<path id="Path_42552" fill-rule="evenodd" clip-rule="evenodd" fill="#FFFFFF" d="M32.1,29.9l29,3.7l3.1-3.2l-32-2.8
	c-0.6,0-1.2,0.5-1.2,1.1C31,29.3,31.5,29.9,32.1,29.9L32.1,29.9z"/>
<path id="Path_42553" fill-rule="evenodd" clip-rule="evenodd" fill="#FFFFFF" d="M15.3,54.6l27.8,3.5l3-3.1l-30.6-2.6
	c-0.6,0-1.1,0.4-1.2,1.1C14.2,54,14.7,54.5,15.3,54.6L15.3,54.6z"/>
<path id="Path_42554" fill-rule="evenodd" clip-rule="evenodd" fill="#FFFFFF" d="M62,68.2c0.6,0.3,1.3,0.1,1.6-0.5
	c0.1-0.2,0.1-0.4,0.1-0.6L61,35l-3.2,3.1c0,0,1.2,9.7,3.6,29C61.3,67.6,61.6,68,62,68.2z"/>
<path id="Path_42555" fill-rule="evenodd" clip-rule="evenodd" fill="#FFFFFF" d="M92,61.3c0.3,0,0.6-0.2,0.8-0.6
	c7.7-13.8,11.5-20.7,11.5-20.7l-1.5-3.3C95,52.2,91.1,59.9,91.1,59.9c-0.2,0.5,0,1,0.4,1.3C91.7,61.3,91.8,61.3,92,61.3L92,61.3z"/>
<path id="Path_42556" fill-rule="evenodd" clip-rule="evenodd" fill="#FFFFFF" d="M125.1,42.4c0.5,0.2,1-0.1,1.2-0.6
	c0.2-0.5-0.1-1-0.6-1.2c0,0,0,0,0,0l-25-7.2l1.4,3.3L125.1,42.4z"/>
<path id="Path_42557" fill-rule="evenodd" clip-rule="evenodd" fill="#FFFFFF" d="M106.3,77.6c0.3-0.1,0.6-0.3,0.6-0.7l7.2-21.7
	l-2-2.9c-4.7,16.1-7,24.1-7,24.1c-0.1,0.5,0.2,1,0.7,1.1C106,77.6,106.2,77.6,106.3,77.6L106.3,77.6z"/>
<path id="Path_50406" fill="#487C86" d="M300,266.5c0,0,12.8-43.7,0.4-57.5c0,0-4.7-2.7-5.4,3.9s-9.7,21.8-15.3,19.8
	c0,0-2.3-0.4-0.3-2.7s18-36.5,1.4-57.9c0,0-5.2-6.9-5.8,1.5s-1.8,21.8-10.1,27c0,0-5.5,3.3-3.1-2.8s13.3-33.4-5.6-48.4
	c0,0-7.4-5.3-5.9,5.7s-6.7,23.3-10.2,22.7s12.3-17.9-12-37.4c0,0-10.4-8.1-17.2-6.8c0,0-21.3,19.6,2.7,42.4c0,0,1,2-1.5,2
	s-16-5.5-19.8-16.8s-11,9.9-8.2,18.6s8.6,18.7,28.5,28.8c0,0,2,3.2-2.3,2.5s-17.5-1.2-26.5-17.7s-14.5,11.1-7.3,20.8
	c25.6,33.9-4.9,23.5-2.2,52.1"/>
<path id="Path_50405" fill="#6BA9A3" d="M227.2,266.4c0,0,2.1-27.5-13.4-36.5c0,0-5.1-1.2-3.8,5.2s-2.5,22.9-8.3,22.7
	c0,0-2.3,0.3-1.1-2.4c1.2-2.8,5.9-39-15.7-53.8c0,0-6.8-4.8-4.9,3.1s4.8,20.6-1.3,27.9c0,0-4.2,4.6-3.7-1.7s2.5-34.7-19.4-43
	c0,0-8.4-2.8-3.8,6.9s0.7,23.5-2.8,23.9s6.1-20.1-22-31c0,0-11.9-4.4-17.9-1.2c0,0-13.9,24.3,14.9,38.3c0,0,1.5,1.6-0.8,2.3
	s-16.4-0.4-23.1-9.7S92.8,229.8,98,237s13.4,14.7,34.7,18.2c0,0,2.8,2.3-1.4,3s-16.5,4-29.6-8.5c-11.8-11.3-11.3,7.4-4.1,16.8"/>
<path id="Path_50407" fill="none" stroke="#72C0AE" stroke-miterlimit="10" d="M175.2,266.4c0,0-38-29.1-50-62.1"/>
<path id="Path_50408" fill="none" stroke="#72C0AE" stroke-miterlimit="10" d="M151.8,244.6c0,0,15-17.1,11.4-37.4"/>
<path id="Path_50413" fill="none" stroke="#72C0AE" stroke-miterlimit="10" d="M145,236.8c0,0-19.8,15.3-35.1,0"/>
<path id="Path_50411" fill="none" stroke="#72C0AE" stroke-miterlimit="10" d="M169.8,261.9c0,0,21.1-9,19.8-38"/>
</svg>
