<?xml version="1.0" encoding="utf-8"?>
<!-- Generator: Adobe Illustrator 24.1.2, SVG Export Plug-In . SVG Version: 6.00 Build 0)  -->
<svg version="1.1" id="Слой_1" xmlns="http://www.w3.org/2000/svg" xmlns:xlink="http://www.w3.org/1999/xlink" x="0px" y="0px"
	 viewBox="0 0 446.6 266.5" enable-background="new 0 0 446.6 266.5" xml:space="preserve">
<g id="Group_17732" transform="translate(5607 -4289)">
	<path id="Path_42560" fill-rule="evenodd" clip-rule="evenodd" fill="#FFFFFF" d="M-5216.5,4459.1c0,0,3.2-6.7,1.6-18.3
		c-2.4-13.3-13-8.9-9.9,2.5C-5223,4449.1-5220.2,4454.4-5216.5,4459.1z"/>
	<path id="Path_42561" fill-rule="evenodd" clip-rule="evenodd" fill="#FFFFFF" d="M-5259,4501.6c-5.9-14.5-17.4-8.4-12.4,4.7
		c2.8,6.5,6.9,12.4,12,17.3C-5259.4,4523.5-5254,4516.9-5259,4501.6z"/>
	<path id="Path_42562" fill-rule="evenodd" clip-rule="evenodd" fill="#FFFFFF" d="M-5179.6,4412.1c-4.2,6.6-5.2,11.8-5.4,13.9
		c-0.3,0-0.7,0.1-0.9,0.4c-4.6,6.9-8.9,12.8-12.9,17.7c-0.2,0.2-0.3,0.3-0.3,0.3l0.1,0c-0.4,0.5-0.8,1-1.2,1.4
		c0.7-1.9,2.1-7.1,1.1-15c-2.1-11.5-11.2-7.7-8.6,2.2c1.5,4.8,3.9,9.4,7,13.4c-0.7,0.8-1.4,1.6-2.1,2.4c-5,5.6-9.4,9.5-13.2,11.6
		l0,0c-7.6,4-14.5,9.3-20.3,15.7c1-1.8,3.4-7.5-0.1-18c-5-12.4-14.8-7.2-10.5,4c2.4,5.5,5.8,10.5,10.1,14.6c-0.9,1-1.7,2-2.5,3.1
		c-2.6,3.5-4.9,7.3-6.6,11.3c0.2-4.3-0.5-8.7-2-12.7c-5.5-13.6-16.3-7.9-11.6,4.4c2.6,5.9,6.3,11.3,10.9,15.8
		c-0.7,2.4-1.3,4.9-1.7,7.4v0c-1,5-3,9.7-5.9,13.9c-3.7,5.4-8,10.3-12.9,14.6c-0.4,0.4-0.4,1,0,1.4c0.4,0.4,0.9,0.4,1.3,0.1
		c3.2-2.9,6.2-6,9-9.3c6.1,3.1,12.8,5.1,19.7,5.7c14,0.6,16.2-12.2,0.5-13.2c-9.4,0-14.9,2.5-17.9,4.6c0.7-0.9,1.3-1.8,1.9-2.7
		c3-4.4,5.1-9.4,6.2-14.6c0,0,0,0,0-0.1c1.4-9.2,5-17.9,10.6-25.4c1.4-1.9,2.9-3.7,4.6-5.4c5.3,3.7,11.2,6.4,17.4,7.9
		c13,2.4,17.2-10.8,2.3-12.3c-6.2-0.4-12.5,0.6-18.3,2.9c5-4.7,10.5-8.8,16.6-12l0,0h0c0.5-0.3,1.1-0.6,1.6-1
		c4.6,3.3,9.8,5.6,15.2,7c11.2,2.1,14.8-9.3,2-10.5c-5.3-0.3-10.7,0.5-15.6,2.5c3.8-2.9,7.4-6.3,10.5-9.9c1.4-1.5,2.7-3.2,4.2-5
		c4.2,1.3,8.7,2,13.1,2c10.3-0.5,11.1-10.3-0.5-8.8c-3.3,0.6-6.6,1.6-9.6,3c3.1-4.1,6.4-8.7,9.8-13.8c0.2-0.3,0.2-0.7,0.1-1
		c4.3-2.3,8.1-5.3,11.4-8.8C-5166.2,4409.8-5172.8,4402.6-5179.6,4412.1z"/>
	<path id="Path_42563" fill-rule="evenodd" clip-rule="evenodd" fill="#FFFFFF" d="M-5225,4492.2c-16.1,0-20.7,7.3-20.7,7.3
		c6.3,3.3,13.1,5.3,20.2,6C-5211.5,4506-5209.4,4493.2-5225,4492.2z"/>
</g>
<path id="Path_50415" fill-rule="evenodd" clip-rule="evenodd" fill="#0E755D" d="M393.7,247.1c-16.2,14.9-32.9,12.7-50.2-6.7
	c-26.8-31.9-54.9-31.7-84.3,0.6c-16.9,18.7-42.1,22.5-60,7.2c-0.3-0.3-0.7-0.6-1-0.9c2-2.7,3.8-5.4,5.7-8
	c20.4,1.7,37.3-0.9,50.7-7.8c-13.4-6.7-29.7-5-48.8,5.1c3.7-5.4,7.1-10.4,10.2-15.2c20.4,1.8,37.4-0.8,50.8-7.8
	c-13.5-6.8-29.9-5-49.2,5.3l0.3-0.5c2.6-4.1,5-8,7.2-11.7c20-2.9,35.6-9.2,47.1-19c-14-3.4-28.7,1.4-44.3,14.1
	c3-5.4,5.5-10.2,7.4-14.5c0.2-0.4,0.2-0.9,0.1-1.4c19.9-5.8,34.8-14.5,44.9-26c-15.7-1.4-30.9,6.9-45.6,24.9c-0.1,0-0.1-0.1-0.2-0.1
	c10.5-20.6,12-37.8,4.5-51.6c-6.5,13.7-8.4,30.8-5.8,51.2c-0.7,0.1-1.3,0.5-1.6,1.2c-1.6,3.6-3.5,7.5-5.9,11.8
	c1.6-23.8-3.9-40.8-16.3-51.2c-0.4,16.1,4.5,34.1,14.7,54c-2.7,4.8-5.9,10.1-9.6,15.8l-0.1,0.2c2.9-25.2-2.8-42-17.2-50.4
	c0.1,14.6,5.2,32.4,15.4,53.2c-3.8,5.9-8.1,12.3-12.9,19.1c1.2-23.8-4.5-40.4-17.3-49.9c-0.2,15.6,5.5,32.4,16.9,50.5
	c-1.4,2-2.8,4-4.3,6.1c-16.9-12.1-33.5-9-49.7,9.5l0,0c-8.4,9.7-23.1,15.1-36.2,6.8c-11.3-6.9-18-7.6-26.5,5h364.1
	C428,238.9,409.7,231.8,393.7,247.1z"/>
<path id="Path_50416" fill="#67A8A1" d="M30.4,266.3c0,0-8.3-36,5.5-47.5c0,0,4.8-2,4.7,4.5s6.3,22.2,12,21c0,0,2.3-0.1,0.7-2.6
	s-12.3-37.4,6.4-55.7c0,0,5.9-5.9,5.4,2.3s-1.3,21.1,6,27.3c0,0,4.9,3.9,3.4-2.3s-8.3-33.8,11.9-45.6c0,0,7.8-4.1,4.9,6.2
	s3.3,23.3,6.8,23.1s-9.3-18.8,16.5-34.3c0,0,11-6.3,17.4-4.2c0,0,0.3,9.6,4.3,10.9s7.9,18.1-12.6,29.3c0,0-1.2,1.8,1.2,2.1
	s16.1-3.1,21.2-13.5s9.3,11,5.4,19s-10.8,16.8-31.1,23.8c0,0-2.4,2.8,1.9,2.8s17,1.2,27.7-13.4s12,12.3,4.2,20.9
	s-13.4,14.3-40.4,18.9c0,0-5.3,3.7,0.4,3.8s15.7,4.3,33-7.4c0,0,10.2-8.5,8.4,4c-0.2,2.7-1.6,5.1-3.8,6.7"/>
<path id="Path_50417" fill="none" stroke="#72C0AE" stroke-miterlimit="10" d="M71.9,266.3c0,0,47-85.4,50.8-93"/>
<path id="Path_50418" fill="none" stroke="#72C0AE" stroke-miterlimit="10" d="M97.3,220.1c0,0-17.9-15.1-14.6-36.8"/>
<path id="Path_50419" fill="none" stroke="#72C0AE" stroke-miterlimit="10" d="M81.7,248.6c0,0-24.9-15-24.6-41.6"/>
</svg>
