<?xml version="1.0" encoding="utf-8"?>
<!-- Generator: Adobe Illustrator 24.1.2, SVG Export Plug-In . SVG Version: 6.00 Build 0)  -->
<svg version="1.1" id="Слой_1" xmlns="http://www.w3.org/2000/svg" xmlns:xlink="http://www.w3.org/1999/xlink" x="0px" y="0px"
	 viewBox="0 0 1920 806.1" style="enable-background:new 0 0 1920 806.1;" xml:space="preserve">
<style type="text/css">
	.st0{fill-rule:evenodd;clip-rule:evenodd;fill:#568174;}
	.st1{fill-rule:evenodd;clip-rule:evenodd;fill:#A4CBCB;}
	.st2{fill-rule:evenodd;clip-rule:evenodd;fill:#8AB2B2;}
	.st3{fill-rule:evenodd;clip-rule:evenodd;fill:#FDF7EB;}
	.st4{fill-rule:evenodd;clip-rule:evenodd;fill:#517952;}
	.st5{fill-rule:evenodd;clip-rule:evenodd;fill:#436145;}
	.st6{fill-rule:evenodd;clip-rule:evenodd;fill:#95952E;}
	.st7{fill-rule:evenodd;clip-rule:evenodd;fill:#E3E348;}
	.st8{fill-rule:evenodd;clip-rule:evenodd;fill:#686830;}
	.st9{fill-rule:evenodd;clip-rule:evenodd;fill:#77623F;}
	.st10{fill-rule:evenodd;clip-rule:evenodd;fill:#5A482C;}
	.st11{display:none;fill-rule:evenodd;clip-rule:evenodd;fill:#A5A537;}
	.st12{display:none;fill-rule:evenodd;clip-rule:evenodd;fill:url(#Path_49575_1_);}
</style>
<polygon class="st0" points="1725.3,806.1 1619,806.1 1648.6,736.6 1631.5,745.1 1656.9,661.3 1648.6,670.8 1670.1,599.9 
	1690.8,667 1681.6,661.2 1703.3,722.2 1711.7,745.5 1698.2,739 1693.2,736.6 1696.7,744.2 1702.2,756.2 1703.1,757.9 "/>
<polygon class="st0" points="1761.2,806.1 1682.6,806.1 1703.1,757.9 1704.2,755.2 1702.2,756.2 1691.4,761.5 1696.7,744.2 
	1698.2,739 1703.3,722.2 1710.4,698.9 1704.2,706 1720.3,653.1 1735.7,703.2 1728.9,698.9 1751.4,761.8 1737.6,755.1 1759.1,801.4 
	"/>
<path class="st1" d="M684.8,806.1H83.7l16.9-43.9l0.1-0.3l0.1-0.3v0l0-0.1v0l7.7-19.9l0.1-0.3l9.4-24.4l5.1-13.3l7.4-19.3l4.3-11
	l7.2-18.7l2.4-6.3l0.4-1L193,522.2l3.7-9.6l37-96.1c7-18,23.6-20.7,33.5-8.4c1.9,2.3,3.5,5.1,4.8,8.4c4.6,12,16.8,13.3,23.1,3.9
	c0.8-1.1,1.4-2.4,2-3.9l68.6-178.3c1.1-2.9,2.7-5.5,4.5-7.6c0,0,0,0,0,0c4.1-4.8,9.7-7.6,15.4-8.2c10-1.1,20.5,4.1,25.1,15.9
	l122.3,318c6,15.7,21.7,16.1,27.9,0c6.2-16.1,21.8-15.9,27.9,0L684.8,806.1z"/>
<path class="st2" d="M383.2,454.9c1.2,15.5-2.5,34.3-11,48l-65.7,105c-10.7,16.9-12.2,46.9-4.9,68l45.2,130.2H146.4l33.8-112.4v0
	l17.6-58.6c0,0,0,0,0,0l7.1-23.5v0l58.6-195c1-3.3,2.2-6.1,3.6-8.3c7.8-12.5,20.9-9.5,26.3,8.3c0.4,1.5,1,2.8,1.6,4
	c4.9,9.4,14.4,8,18-4l53.5-178.2c0.9-2.9,2.1-5.5,3.6-7.6c0,0,0,0,0,0c4.1-4.8,9.7-7.6,15.4-8.2c0.3,0,0.6,0.1,0.9,0.1
	c-11.8,3.2-19.5,14.6-18.1,33.2L383.2,454.9z"/>
<polygon class="st0" points="329.7,806.1 243.3,806.1 246.5,798.5 267.2,750 253.2,756.9 274,688.3 267.2,696.1 284.8,638.1 
	301.7,693 294.2,688.3 318.8,757.2 303.7,749.9 "/>
<polygon class="st0" points="250,806.1 123.6,806.1 146.2,745.7 133.5,750.5 140.5,724.5 141.8,719.5 148,696.4 153.2,676.9 
	147.3,682.5 164.7,617.6 181.4,679.1 175,677.1 180.2,693.6 180.2,693.7 190.7,726.8 199.2,698.9 193,706 209.1,653.1 224.5,703.2 
	217.7,698.9 240.2,761.8 226.4,755.1 246.5,798.5 "/>
<path id="Path_49585" class="st3" d="M82.2,83.9c23.3,0,42.1,18.8,42.1,42.1s-18.8,42.1-42.1,42.1S40.1,149.3,40.1,126l0,0
	C40.1,102.8,58.9,83.9,82.2,83.9L82.2,83.9z"/>
<polygon class="st4" points="80.9,806.1 2.3,806.1 25.9,755.1 12,761.7 34.5,698.8 27.7,703.1 43.1,653 56.8,698.1 56.8,698.1 
	59.2,705.9 54,700 53,698.8 53.5,700.3 53.5,700.3 61.3,726.1 72,761.4 59.2,755.1 "/>
<polygon class="st4" points="1835.5,806.1 1756.9,806.1 1759.1,801.4 1780.5,755.1 1766.7,761.8 1789.2,698.9 1782.4,703.2 
	1797.8,653.1 1813.9,706 1807.7,698.9 1814.4,721.2 1826.7,761.5 1814.8,755.7 1813.9,755.2 1814.4,756.5 1824.6,780.3 "/>
<polygon class="st5" points="39.4,695.7 28.2,753.9 35.5,750.4 27.2,806.1 2.3,806.1 25.9,755.1 12,761.7 34.5,698.8 27.7,703.1 
	43.1,653 36.2,697.7 "/>
<polygon class="st4" points="1880,806.1 1794.2,806.1 1814.4,756.5 1814.8,755.7 1818.8,745.7 1805.1,750.8 1814.4,721.2 
	1828.4,676.9 1822,678.9 1838.7,617.4 1856.1,682.3 1850.2,676.7 1869.9,750.3 1857.2,745.5 "/>
<polygon class="st5" points="1834.1,675.1 1822.8,744.1 1829.8,741.5 1824.6,780.3 1821.1,806.1 1794.2,806.1 1814.4,756.5 
	1814.8,755.7 1818.8,745.7 1805.1,750.8 1814.4,721.2 1828.4,676.9 1822,678.9 1838.7,617.4 1829.9,676.4 "/>
<path class="st6" d="M163.1,706.7l-10.6,21.8l-12-4l-22.5-7.5l-9.4-3.1l-0.1,0v92.2h-7.9V713l-39.3,13.1l-6.1,2L53,700.6l0.5-0.3h0
	L54,700l2.8-1.9l44-29v-6.4l-0.3,0.1l-44.7,15.4l0-0.1l5.2-29.5c13.2-15.4,26.5-30.7,39.8-46.1v-3.9l-0.3,0.1l-17.4,6.6l0-0.1
	L77.6,593l22.9-32.7l0.3-0.4v-5.8l-5.5-7.2l5.5-30.9l7.9,11.1V562c0,0,0,0,0,0c6.1,8.5,12.2,17,18.3,25.5l0.9,6.1l1.9,13.3
	l-13.9-5.4l-7.2-2.8v7.5l17.3,20.4l18.4,21.8l6.4,7.6l0.9,1.1l-10.1,18.8l-6.8-2.4l-0.8-0.3l-25.3-9v5.4l21.8,14.9l17.5,12
	L163.1,706.7z"/>
<path id="Path_49610" class="st7" d="M108.6,559.9l18.3,25.5l1.2,8.4l-18.4-16.6L108.6,559.9z"/>
<path id="Path_49611" class="st8" d="M104.4,666.6l4.2,2.9v-5.4l25.5,9.1L108,647.3l-7.4,2.8l2.4-50.4l5.5,6.5v-7.5l7.5,2.9
	l-15.5-14.9v-26.8L77.3,593l5.5,12.3l17.7-6.7v3.9c-13.3,15.4-26.6,30.7-39.8,46.1l-5.2,29.6l45-15.5v6.4L53,700.6l2.2,27.5
	l45.4-15.1v48.7l7.9-4.9v-42.9l44,14.6L107,690.2L104.4,666.6L104.4,666.6z"/>
<path id="Path_49612" class="st7" d="M126.4,625.7l25.2,29.8l-4.8,2.7l-26.4-19.3L126.4,625.7L126.4,625.7z"/>
<polygon class="st9" points="108.6,713.9 108.6,806.1 100.7,806.1 100.7,713 103.3,712.1 "/>
<path id="Path_49639" class="st10" d="M100.7,713v48.7l7.9-4.9v-42.9l-5.3-1.8L100.7,713L100.7,713z"/>
<path id="Path_49661" class="st11" d="M1920,806.1V818H0v-11.9H1920z"/>
<linearGradient id="Path_49575_1_" gradientUnits="userSpaceOnUse" x1="1563.6904" y1="-352.234" x2="1563.6534" y2="-350.16" gradientTransform="matrix(1920 0 0 812.046 -3001316 286206.2188)">
	<stop  offset="0" style="stop-color:#BDD8E6"/>
	<stop  offset="1" style="stop-color:#D1C38E;stop-opacity:0.494"/>
</linearGradient>
<path id="Path_49575" class="st12" d="M0,0h1920v812H0V0z"/>
</svg>
