<?xml version="1.0" encoding="utf-8"?>
<!-- Generator: Adobe Illustrator 24.1.2, SVG Export Plug-In . SVG Version: 6.00 Build 0)  -->
<svg version="1.1" id="Слой_1" xmlns="http://www.w3.org/2000/svg" xmlns:xlink="http://www.w3.org/1999/xlink" x="0px" y="0px"
	 width="822.7px" height="614.5px" viewBox="0 0 822.7 614.5" style="enable-background:new 0 0 822.7 614.5;" xml:space="preserve"
	>
<style type="text/css">
	.st0{fill:#0E6C75;}
	.st1{fill:url(#Path_50365_1_);}
	.st2{fill:url(#Path_50366_1_);}
	.st3{fill:url(#Path_50367_1_);}
	.st4{fill:url(#Path_50368_1_);}
	.st5{fill:#2E3E5C;}
	.st6{fill:#F7CE8F;}
	.st7{fill:url(#Rectangle_15449_1_);}
	.st8{fill:url(#Rectangle_15450_1_);}
	.st9{fill:#9D9D9C;}
	.st10{fill:#FFFFFF;}
	.st11{fill:#415680;}
	.st12{fill:url(#Path_50374_1_);}
	.st13{fill:url(#Path_50375_1_);}
	.st14{fill:#36A9E1;}
	.st15{fill:url(#Path_50386_1_);}
	.st16{fill:url(#Path_50387_1_);}
	.st17{fill:url(#Path_50388_1_);}
	.st18{fill:#6CE3F0;}
	.st19{opacity:0.85;}
	.st20{fill-rule:evenodd;clip-rule:evenodd;fill:#FFFFFF;}
	.st21{opacity:0.65;fill-rule:evenodd;clip-rule:evenodd;fill:#FFFFFF;enable-background:new    ;}
	.st22{opacity:0.5;fill-rule:evenodd;clip-rule:evenodd;fill:#FFFFFF;enable-background:new    ;}
</style>
<g id="Group_17726" transform="translate(47 -1)">
	<path id="Path_50404" class="st0" d="M65.3,256.2c51.4-26,125.3-31.6,199.7-115.7c139.2-157.3,341.7-210.6,452-4.9
		s66.8,396.1-146.2,444.8c-156.3,35.7-225-42.7-312.3,0.3c-162.7,80-284.8,14-302.4-111.7S-3,290.8,65.3,256.2z"/>
</g>
<g id="Group_17727" transform="translate(1151.248 1725.747)">
	
		<linearGradient id="Path_50365_1_" gradientUnits="userSpaceOnUse" x1="-783.9189" y1="-1390.05" x2="-783.9359" y2="-1387.951" gradientTransform="matrix(248.282 0 0 -49.7082 193706.5781 -70298.1641)">
		<stop  offset="0" style="stop-color:#0C5C7A"/>
		<stop  offset="1" style="stop-color:#3FC3D1"/>
	</linearGradient>
	<path id="Path_50365" class="st1" d="M-1050.5-1201.1c4.2-10.2,25.4-30.4,52.2-24.9c29.3,6,35.8-7,47.8-12.4
		c22.1-9.9,33,14.7,46.8,2c19.3-17.6,35-19.4,47.4-3.2c17.9,23.4,47.3-2.5,53.9,38.5H-1050.5z"/>
	
		<linearGradient id="Path_50366_1_" gradientUnits="userSpaceOnUse" x1="-786.7469" y1="-1394.4271" x2="-787.847" y2="-1393.5671" gradientTransform="matrix(80.089 0 0 -227.584 62552.4922 -318619.4375)">
		<stop  offset="0" style="stop-color:#0E755D"/>
		<stop  offset="0.209" style="stop-color:#248769"/>
		<stop  offset="1" style="stop-color:#75CC96"/>
	</linearGradient>
	<path id="Path_50366" class="st2" d="M-465.8-1363.1c0,60.9-24.2,110.7-41,110.7c-16.8,0-39.1-66.5-39.1-127.3
		c0-60.9,33.4-106.5,52.9-99.5C-470.9-1471.4-465.8-1424-465.8-1363.1z"/>
	<g id="Group_17713" transform="translate(46.076 61.053)">
		
			<linearGradient id="Path_50367_1_" gradientUnits="userSpaceOnUse" x1="-830.4678" y1="-1454.9368" x2="-830.9338" y2="-1454.0778" gradientTransform="matrix(173.8402 0 0 -155.8088 143444.5781 -228023.7656)">
			<stop  offset="0" style="stop-color:#0E755D"/>
			<stop  offset="1" style="stop-color:#B4D0BE"/>
		</linearGradient>
		<path id="Path_50367" class="st3" d="M-890.5-1404.8c-10.4-12.6-7.6-22.9-7.4-36.9c0.3-20.3-17.8-26.7-35.3-21.1
			c-1.5,0.5-2.9,1-4.2,1.4c-0.3,0.1-0.5,0.2-0.8,0.2c-0.5,0.2-1,0.3-1.5,0.4c-4.5,1.2-8.3,1.3-15.1-1.3c-3.9-1.6-7.7-3.4-11.4-5.3
			c-0.9-0.5-1.9-1-2.9-1.5c-1-0.5-2-1.1-3.1-1.7c-1.1-0.6-2.2-1.2-3.4-1.9c-1.2-0.7-2.4-1.4-3.7-2.1c-0.6-0.4-1.3-0.7-2-1.1
			c-9.4-5.3-26.9-7-34.7,3.1c-1.3,1.7-2.3,3.6-3.1,5.6c-0.1,0.3-0.3,0.7-0.4,1c-1.6,4.9-1.9,10.1-1,15.2c1.2,6.9,6.3,16.9,0.7,23.2
			c-5.4,5.9-14.8,4-21.4,7.8c-4.6,2.6-7.2,7.1-8.5,12c-0.6,2.2-0.9,4.5-0.9,6.8c0,1,0,1.9,0,2.9c0,0.5,0,0.9,0,1.4
			c0.7,15.8,7,32.6,17.4,43.9c1.9,2.1,3.9,4,6.1,5.8c15.4,13.3,36.4,21.1,58.7,22.5c1.2,0.1,2.5,0.1,3.8,0.2c1.3,0,2.7,0.1,4,0.1
			c1.5,0,3,0,4.6-0.1c8-0.3,16-1.5,23.8-3.5C-849.8-1348.8-880.8-1393-890.5-1404.8z"/>
		
			<linearGradient id="Path_50368_1_" gradientUnits="userSpaceOnUse" x1="-831.5604" y1="-1454.4294" x2="-832.0374" y2="-1453.8645" gradientTransform="matrix(119.3071 0 0 -137.9299 98244.2969 -201995.5156)">
			<stop  offset="0" style="stop-color:#75CC96"/>
			<stop  offset="1" style="stop-color:#B4D0BE"/>
		</linearGradient>
		<path id="Path_50368" class="st4" d="M-932.2-1463.1c-0.3,0.1-0.7,0.2-1,0.3c-1.5,0.5-2.9,1-4.2,1.4c-0.3,0.1-0.5,0.2-0.8,0.2
			c-0.5,0.2-1,0.3-1.5,0.4c-4.5,1.2-8.3,1.3-15.1-1.3c-3.9-1.6-7.7-3.3-11.4-5.3c-0.9-0.5-1.9-1-2.9-1.5c-1-0.5-2-1.1-3.1-1.7
			c-1.1-0.6-2.2-1.2-3.4-1.9c-1.2-0.7-2.4-1.4-3.7-2.1c-0.6-0.4-1.3-0.7-2-1.1c-9.4-5.3-26.9-7-34.7,3.1c-1.3,1.7-2.3,3.6-3.1,5.6
			c-0.1,0.3-0.3,0.7-0.4,1c-1.6,4.9-1.9,10.1-1,15.2c1.2,6.9,6.3,16.9,0.7,23.2c-5.4,5.9-14.8,4-21.4,7.8c-4.6,2.6-7.2,7.1-8.5,12
			c-0.6,2.2-0.9,4.5-0.9,6.8c0,1,0,1.9,0,2.9c0,0.5,0,0.9,0,1.4c0.8,15.7,7.6,32.1,17.4,43.9c1.4,1.7,2.9,3.3,4.5,4.9
			c0.5,0.3,1.1,0.7,1.6,1c34.2,20-2.6-27.3,27.4-47c15.1-9.9,44.1-20.3,31.5-36.1c-9.2-11.5-16.3-16-13.4-22.3
			c1.6-3.5,6.1-6.8,20.4-4.2C-941.6-1452.9-927.4-1459.8-932.2-1463.1z"/>
		<path id="Path_50369" class="st5" d="M-954.6-1394.7l-0.6,31.7l-0.1,4.2l-0.7,34.4l-0.4,19.1l0.6,43.1h-8.1l0.3-38.3l-4.8-24
			l-4.3-22l-0.4-2l-2.6-13.3l2-2.1l9.1,39.5l3.3,14.2l0.7-14.1l2.7-52.1l0.1-2.4l1-18.7L-954.6-1394.7z"/>
		<path id="Path_50370" class="st5" d="M-942.3-1382.2l-14.1,21.1l0,4.2l15.7-24.1L-942.3-1382.2z"/>
		<path id="Path_50371" class="st5" d="M-963.4-1390.2l6.2,12.6l0,2.7l-7.1-14.9L-963.4-1390.2z"/>
		<path id="Path_50372" class="st5" d="M-982.2-1356.6l10.4,9.3l0.9,2.4l-12.2-11.1L-982.2-1356.6z"/>
	</g>
	<g id="Group_17715" transform="translate(182.935 48.356)">
		<path id="Path_50373" class="st6" d="M-899.5-1249.4h138.8v-129.7l-69.4-100.9l-69.4,100.9L-899.5-1249.4z"/>
		
			<linearGradient id="Rectangle_15449_1_" gradientUnits="userSpaceOnUse" x1="-968.7271" y1="-1440.3524" x2="-967.6721" y2="-1441.5914" gradientTransform="matrix(134.72 0 0 -105.95 129632.5625 -153969.3125)">
			<stop  offset="0" style="stop-color:#FFE8B8"/>
			<stop  offset="3.600000e-02" style="stop-color:#FFE9BC"/>
			<stop  offset="0.282" style="stop-color:#FFF2D9"/>
			<stop  offset="0.527" style="stop-color:#FFF9EE"/>
			<stop  offset="0.767" style="stop-color:#FFFDFA"/>
			<stop  offset="1" style="stop-color:#FFFFFF"/>
		</linearGradient>
		<rect id="Rectangle_15449" x="-875" y="-1355.4" class="st7" width="134.7" height="105.9"/>
		
			<linearGradient id="Rectangle_15450_1_" gradientUnits="userSpaceOnUse" x1="-962.5327" y1="-1447.1437" x2="-962.1606" y2="-1445.7937" gradientTransform="matrix(-138.797 0 0 105.95 -134234.375 151930.5)">
			<stop  offset="0" style="stop-color:#D97E62"/>
			<stop  offset="9.300000e-02" style="stop-color:#DE8B69"/>
			<stop  offset="0.325" style="stop-color:#E9A87A"/>
			<stop  offset="0.555" style="stop-color:#F0BD85"/>
			<stop  offset="0.781" style="stop-color:#F5C98C"/>
			<stop  offset="1" style="stop-color:#F7CE8F"/>
		</linearGradient>
		<rect id="Rectangle_15450" x="-740.3" y="-1355.4" class="st8" width="138.8" height="105.9"/>
		<rect id="Rectangle_15451" x="-854.7" y="-1331.5" class="st9" width="94" height="82.1"/>
		<rect id="Rectangle_15452" x="-854.7" y="-1331.5" class="st6" width="6.3" height="82.1"/>
		<rect id="Rectangle_15453" x="-842.4" y="-1424.9" class="st5" width="24.7" height="45.8"/>
		<rect id="Rectangle_15454" x="-824.2" y="-1424.9" class="st10" width="6.4" height="45.8"/>
		<g id="Group_17714" transform="translate(202.178 148.503)">
			<rect id="Rectangle_15455" x="-1050.5" y="-1480" class="st11" width="87.6" height="1.8"/>
			<rect id="Rectangle_15456" x="-1050.5" y="-1473.3" class="st11" width="87.6" height="1.8"/>
			<rect id="Rectangle_15457" x="-1050.5" y="-1466.6" class="st11" width="87.6" height="1.8"/>
			<rect id="Rectangle_15458" x="-1050.5" y="-1459.9" class="st11" width="87.6" height="1.8"/>
			<rect id="Rectangle_15459" x="-1050.5" y="-1453.2" class="st11" width="87.6" height="1.8"/>
			<rect id="Rectangle_15460" x="-1050.5" y="-1446.6" class="st11" width="87.6" height="1.8"/>
			<rect id="Rectangle_15461" x="-1050.5" y="-1439.9" class="st11" width="87.6" height="1.8"/>
			<rect id="Rectangle_15462" x="-1050.5" y="-1433.2" class="st11" width="87.6" height="1.8"/>
			<rect id="Rectangle_15463" x="-1050.5" y="-1426.5" class="st11" width="87.6" height="1.8"/>
			<rect id="Rectangle_15464" x="-1050.5" y="-1419.8" class="st11" width="87.6" height="1.8"/>
			<rect id="Rectangle_15465" x="-1050.5" y="-1413.1" class="st11" width="87.6" height="1.8"/>
			<rect id="Rectangle_15466" x="-1050.5" y="-1406.4" class="st11" width="87.6" height="1.8"/>
			<rect id="Rectangle_15467" x="-1050.5" y="-1399.7" class="st11" width="87.6" height="1.8"/>
		</g>
		
			<linearGradient id="Path_50374_1_" gradientUnits="userSpaceOnUse" x1="-966.9744" y1="-1441.3988" x2="-967.1254" y2="-1440.3479" gradientTransform="matrix(220.427 0 0 -100.9 212225.8906 -146806.2656)">
			<stop  offset="0" style="stop-color:#80331A"/>
			<stop  offset="0.142" style="stop-color:#963E21"/>
			<stop  offset="0.361" style="stop-color:#B34B2A"/>
			<stop  offset="0.578" style="stop-color:#C85530"/>
			<stop  offset="0.793" style="stop-color:#D45B34"/>
			<stop  offset="1" style="stop-color:#D95E36"/>
		</linearGradient>
		<path id="Path_50374" class="st12" d="M-981.2-1480h151l-69.4,100.9h-151L-981.2-1480z"/>
		
			<linearGradient id="Path_50375_1_" gradientUnits="userSpaceOnUse" x1="-968.4207" y1="-1441.7866" x2="-967.8227" y2="-1442.3646" gradientTransform="matrix(151.027 0 0 -190.973 145205.0469 -276751.4063)">
			<stop  offset="0" style="stop-color:#FFE8B8"/>
			<stop  offset="3.600000e-02" style="stop-color:#FFE9BC"/>
			<stop  offset="0.282" style="stop-color:#FFF2D9"/>
			<stop  offset="0.527" style="stop-color:#FFF9EE"/>
			<stop  offset="0.767" style="stop-color:#FFFDFA"/>
			<stop  offset="1" style="stop-color:#FFFFFF"/>
		</linearGradient>
		<path id="Path_50375" class="st13" d="M-952-1379.1v-61.3h-46.1v61.3h-52.5v129.7h151v-129.7H-952z"/>
		<rect id="Rectangle_15468" x="-988.7" y="-1423.3" class="st5" width="27.3" height="44.2"/>
		<rect id="Rectangle_15469" x="-988.7" y="-1423.3" class="st6" width="6.4" height="44.2"/>
		<rect id="Rectangle_15470" x="-1012.5" y="-1355.4" class="st5" width="27.3" height="82.1"/>
		<rect id="Rectangle_15471" x="-1012.5" y="-1355.4" class="st6" width="6.3" height="82.1"/>
		<rect id="Rectangle_15472" x="-964.9" y="-1355.4" class="st5" width="27.3" height="105.9"/>
		<rect id="Rectangle_15473" x="-964.9" y="-1355.4" class="st6" width="6.3" height="105.9"/>
		<path id="Path_50376" class="st6" d="M-952-1440.4h42.2l-42.2,61.3V-1440.4z"/>
		<rect id="Rectangle_15474" x="-1000" y="-1341.9" class="st14" width="14.9" height="68.6"/>
		<rect id="Rectangle_15475" x="-952.4" y="-1341.9" class="st14" width="14.9" height="92.5"/>
		<rect id="Rectangle_15476" x="-1006.2" y="-1331.5" class="st10" width="21" height="3.1"/>
		<rect id="Rectangle_15477" x="-958.5" y="-1331.5" class="st10" width="21" height="3.1"/>
		<rect id="Rectangle_15478" x="-976.2" y="-1409.8" class="st14" width="14.9" height="30.7"/>
		<rect id="Rectangle_15479" x="-836.4" y="-1411.4" class="st14" width="12.2" height="32.3"/>
	</g>
	
		<linearGradient id="Path_50386_1_" gradientUnits="userSpaceOnUse" x1="-789.9089" y1="-1383.8027" x2="-790.5629" y2="-1382.9528" gradientTransform="matrix(143.9443 0 0 -51.4516 112534.5781 -72731.6094)">
		<stop  offset="0" style="stop-color:#0E6C75"/>
		<stop  offset="0.396" style="stop-color:#41C4D2"/>
		<stop  offset="0.634" style="stop-color:#49CAD8"/>
		<stop  offset="0.829" style="stop-color:#58D4E2"/>
		<stop  offset="1" style="stop-color:#6CE3F0"/>
	</linearGradient>
	<path id="Path_50386" class="st15" d="M-407.6-1201.1h-134.7c-20.1-27.7,14-12.1,14-12.1s-15.4-30.8-4.2-27.6
		c10.8,3.1,19.1,21.7,19.1,21.7s6.5-30.7,16.6-33.4c8.2-2.2,5.2,31.7,5.2,31.7s6.3-7.9,13.3-8c5.9-0.1,3.1,11.3,3.1,11.3
		s12.3-25.2,18.8-24.9c8.1,0.4-0.6,26.9-0.6,26.9s15.8-16.6,22.1-16.8c11.1-0.3-1.7,26-1.7,26c6.8-4.9,14.8-7.8,23.1-8.5
		C-403.8-1215.6-402.7-1208-407.6-1201.1z"/>
	<g id="Group_17720" transform="translate(526.182 49.448)">
		
			<linearGradient id="Path_50387_1_" gradientUnits="userSpaceOnUse" x1="-1310.7458" y1="-1443.3459" x2="-1311.1199" y2="-1442.464" gradientTransform="matrix(163.8145 0 0 -154.5957 213783.0313 -224463.5938)">
			<stop  offset="0" style="stop-color:#0E755D"/>
			<stop  offset="1" style="stop-color:#75CC96"/>
		</linearGradient>
		<path id="Path_50387" class="st16" d="M-892.8-1428.6c-4.3-6.5-11.1-10.8-18.8-11.9c-14.4-2.1-9.5-18.1-22-22.3
			c-13.2-4.5-14.3,6.2-48.1-13c-9.4-5.4-26.9-7-34.7,3.1c-4.5,6-5.7,14.6-4.3,21.8c1.3,6.9,6.5,16.9,0.8,23.2
			c-5.4,5.9-14.8,4-21.3,7.8c-6.6,3.8-9.2,11.5-9.3,18.8c-0.2,17,7,35.3,17.8,48.2c22.5,27,63,33.5,95,21.8
			c18.9-6.9,33.7-20.9,42.3-39C-887.1-1387.1-882.1-1411.3-892.8-1428.6z"/>
		
			<linearGradient id="Path_50388_1_" gradientUnits="userSpaceOnUse" x1="-1311.9283" y1="-1442.9253" x2="-1312.3293" y2="-1442.2253" gradientTransform="matrix(109.9155 0 0 -135.2564 143231.0313 -196533.8281)">
			<stop  offset="0" style="stop-color:#75CC96"/>
			<stop  offset="1" style="stop-color:#B4D0BE"/>
		</linearGradient>
		<path id="Path_50388" class="st17" d="M-943-1463.9c-7.1,0.3-14.6,1.9-38.8-11.8c-9.4-5.3-26.9-7-34.7,3.1
			c-4.5,6-5.7,14.6-4.3,21.8c1.3,6.9,6.5,16.9,0.8,23.2c-5.4,5.9-14.8,4-21.3,7.8c-6.6,3.8-9.2,11.5-9.3,18.8
			c-0.2,17,7,35.3,17.8,48.2c1,1.2,2.1,2.4,3.2,3.6c40.6,22.1,11.2-45.3,24.8-57.5c8.6-7.7,25.4,3.2,33-2.2
			c3.8-2.7,3.5-8.1,0.5-12.2c-9.1-12.6-23.8-26-16.6-33.6c3.9-4.1,11.6-1.8,26.1-1.8C-944.8-1456.4-936.1-1460.7-943-1463.9z"/>
		<path id="Path_50389" class="st5" d="M-961.2-1250.5h-8.3l-0.3-54.7l-8.8-78.6l2.2-2.8l11.6,76.6l8.5-54.7l2,2.1l-8.3,62.2
			L-961.2-1250.5z"/>
		<path id="Path_50390" class="st5" d="M-939.5-1369.3l-19.4,28.6v-2.4l18.3-27.4L-939.5-1369.3z"/>
		<path id="Path_50391" class="st5" d="M-973.3-1347l-16.5-22.4l0.9-1l16,20.7L-973.3-1347z"/>
		<path id="Path_50392" class="st5" d="M-969.3-1394.7l-4.9,26.9l-1.1-2.7l4.9-24.6L-969.3-1394.7z"/>
	</g>
	<path id="Path_50393" class="st18" d="M-402.7-1201.1c4-2.8,8.5-4.6,13.4-5.3c3.9-0.4,4.5,2.6,1.6,5.3H-402.7z"/>
	<g id="Group_17721" transform="translate(33.946 223.427)" class="st19">
		<path id="Path_50394" class="st20" d="M-967.9-1458.2c-0.8,1.1-0.2,2.5,0.4,3.3c0.8,1.2,2.2,2,3.6,2.2c2.4,0.3,5.8-1.3,5.3-4.1
			C-959.3-1460.6-965.2-1462-967.9-1458.2z"/>
		<path id="Path_50395" class="st20" d="M-1012.1-1467.2c-1.7-0.4-3.4,0.4-4.3,1.9c-0.5,1.5-0.8,3-0.8,4.5c0.2,2,1.9,3.4,3.9,3.2
			c0.3,0,0.6-0.1,0.9-0.2C-1008.4-1459-1007.2-1466.3-1012.1-1467.2z"/>
		<path id="Path_50396" class="st21" d="M-975-1480c-3.7-0.3-3.1,7.8,0.5,7C-970.7-1473.8-971.3-1479.7-975-1480z"/>
		<path id="Path_50397" class="st20" d="M-988.2-1458.1c-0.5-2.1-5.4-5.6-7.1-3.1c-1.3,1.9,0.6,4.7,2.4,5.6
			C-991.2-1454.7-987.6-1455.4-988.2-1458.1z"/>
		<path id="Path_50398" class="st20" d="M-1001.7-1444c-1.4-0.9-3.3-0.6-4.2,0.8c0,0,0,0.1-0.1,0.1c-1,1.8,0.6,3.6,2.2,4.5
			c1.4,0.7,3.3,0.9,4.2-0.6C-998.3-1441-1000.2-1443-1001.7-1444z"/>
		<path id="Path_50399" class="st20" d="M-957.3-1475.7c-1.7-1.3-5.4,1.1-3.3,2.8C-958.7-1471.3-954.8-1473.9-957.3-1475.7z"/>
		<path id="Path_50400" class="st21" d="M-1017-1454.8c-1.2,0.1-2.7,0.5-2.8,1.9c-0.1,1.3,1.2,1.9,2.3,1.8c1.1,0,2.6-0.5,2.9-1.7
			C-1014.3-1454.1-1015.9-1454.9-1017-1454.8z"/>
		<path id="Path_50401" class="st22" d="M-1027.4-1465.5c-0.7-4.3-8.3-2.6-5.3,1.6C-1031.3-1462-1027-1462.8-1027.4-1465.5z"/>
		<path id="Path_50402" class="st20" d="M-929-1467.4c-2.2-1.2-4.5,1.6-3.1,3.6C-930-1460.8-925.5-1465.5-929-1467.4z"/>
		<path id="Path_50403" class="st20" d="M-1042.8-1449.1c-0.9-3.3-8.9-2.1-7.6,1.3C-1049.4-1445.1-1041.8-1445.4-1042.8-1449.1z"/>
	</g>
</g>
</svg>
