<svg xmlns="http://www.w3.org/2000/svg" xmlns:xlink="http://www.w3.org/1999/xlink" width="880.822" height="500.551" viewBox="0 0 880.822 500.551">
  <defs>
    <linearGradient id="linear-gradient" x1="0.502" y1="0.04" x2="0.5" y2="0.863" gradientUnits="objectBoundingBox">
      <stop offset="0" stop-color="#ffb888" stop-opacity="0"/>
      <stop offset="0.001" stop-color="#bdd8e6" stop-opacity="0.149"/>
      <stop offset="1" stop-color="#e6dcbd"/>
    </linearGradient>
    <clipPath id="clip-path">
      <path id="Mask" d="M0,134.944V53.973L128.935,0,257.87,53.973v80.971c0,74.9-55.017,144.928-128.935,161.931C55.017,279.872,0,209.843,0,134.944Z" transform="translate(0 0)" fill="#e4b62c"/>
    </clipPath>
    <linearGradient id="linear-gradient-2" x1="1.634" y1="-0.267" x2="-3.189" y2="3.032" gradientUnits="objectBoundingBox">
      <stop offset="0" stop-color="#7792aa"/>
      <stop offset="1" stop-color="#2e4354"/>
    </linearGradient>
    <linearGradient id="linear-gradient-3" x1="1.059" y1="0.272" x2="-0.051" y2="0.964" xlink:href="#linear-gradient-2"/>
    <linearGradient id="linear-gradient-4" x1="1.374" y1="-0.079" x2="0.162" y2="1.021" xlink:href="#linear-gradient-2"/>
  </defs>
  <g id="Group_20585" data-name="Group 20585" transform="translate(-79.614 -2739.568)">
    <path id="Path_51976" data-name="Path 51976" d="M4304.058,2808.83H3434.547s-53.716-248.69,72.964-247.233c97.922,1.125,20.358-116.568,124.1-127.489s160.7,147.846,290.88,83.806c91-44.766-157-107.365,163.065-97.784s-11.632,199.71,84.469,236.112S4304.058,2808.83,4304.058,2808.83Z" transform="translate(-3343.622 431.235)" fill="url(#linear-gradient)"/>
    <g id="Group_19013" data-name="Group 19013" transform="translate(199.87 2739.568)">
      <g id="Icon" transform="translate(310.811 0)">
        <ellipse id="Ellipse_2046" data-name="Ellipse 2046" cx="93.18" cy="117.017" rx="93.18" ry="117.017" transform="translate(74.612 46.441)" fill="#fff"/>
        <g id="Icon_Verify" data-name="Icon/Verify" transform="matrix(0.998, -0.07, 0.07, 0.998, 0, 22.145)">
          <rect id="Base" width="317.462" height="317.461" transform="translate(0 0)" fill="none"/>
          <g id="Mask_Group_14" data-name="Mask Group 14" transform="translate(30.338 9.751)" clip-path="url(#clip-path)">
            <g id="Symbols" transform="translate(-0.594 0.163)">
              <g id="Icon_Verify-2" data-name="Icon/Verify" transform="translate(0 0)">
                <g id="Mask-2" data-name="Mask">
                  <path id="Path_8" data-name="Path 8" d="M128.878,0,0,54.074v81.112c0,75.028,54.988,145.19,128.878,162.223,73.89-17.033,128.878-87.195,128.878-162.223V54.074L128.878,0ZM100.238,216.3,42.959,162.223,63.15,143.162l37.088,34.878,94.367-89.088,20.191,19.2L100.238,216.3Z" fill="#e4b62c"/>
                </g>
              </g>
            </g>
          </g>
        </g>
      </g>
      <g id="Group_19011" data-name="Group 19011" transform="translate(0 86.28)">
        <path id="Path_34493" data-name="Path 34493" d="M620.186,349.242c16.88,2.733,32.9-3.783,42.192-16.863l-28.316-4.66c-3.243,1.107-6.779.585-10.392,0a21.624,21.624,0,1,1,15.423-39.334l29.378,4.756a43.42,43.42,0,1,0-48.284,56.1Z" transform="translate(-344.811 -229.777)" fill="url(#linear-gradient-2)"/>
        <path id="Path_34494" data-name="Path 34494" d="M673.237,491.825a182.384,182.384,0,0,1,5.607-21.936c52.975,27.172,120.078,21.97,168.359-21.143l-16.979-12.234c-42.106,37.6-98.142,37.192-143.387,12.959q2.414-5.218,5.157-10.281c41.367,22.3,90.872,23,129.218-11.236L807.421,413.3c-30.847,27.544-70.47,24.74-103.879,7.354q3.372-4.753,7.064-9.3c.084.041.171.08.255.119.1.069.205.132.3.2l.03-.041c29.2,14.041,61.484,14,87.772-9.469l-10.151-17.976c-13.61,15.789-41.786,21.824-66.99,9.9a76.635,76.635,0,1,0-81.03-27.923c-59.527-4.709-124.77,19.72-161.975,74.79l18.068,12.206c43.326-64.135,126.763-85.326,194.567-52.792a203.365,203.365,0,0,0-41.3,97.419l-1.3,9.308,9.017,2.656c65.243,19.21,110.806,80.1,110.806,148.07h21.8a174.36,174.36,0,0,0-35.858-106.395A178.052,178.052,0,0,0,673.237,491.825Zm-25.37-180.433a54.784,54.784,0,0,1,108.861,8.029L703.465,310.8a9.465,9.465,0,1,0-3.022,18.687l53.26,8.619a54.784,54.784,0,0,1-105.836-26.716Z" transform="translate(-419.639 -243.548)" fill="url(#linear-gradient-3)"/>
        <path id="Path_34495" data-name="Path 34495" d="M665.234,453.363c-1.941-.4-3.887-1.911-3.783-3.741,2.019-34.734,11.657-67.964,27.879-96.089l7.283-12.624-14.164-3.42a143.444,143.444,0,0,0-84.042,4.98,140.36,140.36,0,0,0-67.649,53.292l18.063,12.2a119.334,119.334,0,0,1,114.472-51.848q-2.507,5.159-4.769,10.476a109.506,109.506,0,0,0-100.195,47.8L576.4,426.6a87.18,87.18,0,0,1,38.066-31.48,269.827,269.827,0,0,0-7.205,41.118A87.9,87.9,0,0,1,508.306,416l-15.869,14.949a109.672,109.672,0,0,0,114.9,28.592,62.238,62.238,0,0,0,2.842,11.175,121.211,121.211,0,0,1-126.1-31.9l-15.866,14.951A143.171,143.171,0,0,0,621.655,489.8a55.412,55.412,0,0,0,9.855,8.452c-57.548,23.891-126.442,11.353-171.645-36.62L444,476.586a176.409,176.409,0,0,0,215.544,32.144A88.1,88.1,0,0,1,726.5,594h21.8c0-53.528-39.24-98.265-87.89-107.419-21.071-3.576-33.048-18.733-32.072-40.559a248.844,248.844,0,0,1,10.636-57.437,87.632,87.632,0,0,1,11.69-.587,250.125,250.125,0,0,0-10.972,60.361c-.729,12.594,8.162,23.677,21.144,26.354,57.33,11.831,98.938,62,98.938,119.287h21.8a141.95,141.95,0,0,0-33.77-91.2A147.645,147.645,0,0,0,665.234,453.363Z" transform="translate(-444 -179.73)" fill="url(#linear-gradient-4)"/>
      </g>
    </g>
  </g>
</svg>
