<svg id="Group_18747" data-name="Group 18747" xmlns="http://www.w3.org/2000/svg" width="921.5" height="712.525" viewBox="0 0 921.5 712.525">
  <g id="Baground" transform="translate(0 0)">
    <path id="Path_49780" data-name="Path 49780" d="M722.208,794.492c73.938,15.985,128.824,36.41,166.314,60.3A120.649,120.649,0,0,1,944.105,956.6h0a120.342,120.342,0,0,1-22.076,69.694c-11.4,16.051-26.011,32.459-43.668,49.119H126.487A103.882,103.882,0,0,1,22.6,971.535V574.83c0-312.095,449.925-258.407,401.766,23.481C403.473,720.632,492.743,744.883,722.208,794.492Z" transform="translate(-22.605 -362.892)" fill="#ffe8e6"/>
  </g>
  <g id="Object" transform="translate(63.897 157.434)">
    <g id="Group_17573" data-name="Group 17573">
      <path id="Path_49781" data-name="Path 49781" d="M932.329,884.723s-20.25,77.093-33.04,101.252-87.519,71.312-87.519,71.312l-5.744-12.764s58.8-46.594,66.8-68S893.427,876.2,893.427,876.2Z" transform="translate(-785.891 -567.668)" fill="#5359a6"/>
      <path id="Path_49782" data-name="Path 49782" d="M950.384,1061.624l-12.854,1.737,17.685,38.459a1.1,1.1,0,0,0,2.1-.5l-1-26.8Z" transform="translate(-930.25 -584.77)" fill="#4a436c"/>
      <path id="Path_49783" data-name="Path 49783" d="M190.9,1016.325l23.074,59.253,9.849-12.362L207.362,993.41Z" transform="translate(481.007 -578.478)" fill="#ef6a56"/>
      <path id="Path_49784" data-name="Path 49784" d="M201.33,1070.307l10.019,2.064-15.581,34.711h-15.9v-4.263l7.994-2.4,3.623-17.752Z" transform="translate(503.5 -585.571)" fill="#efefef"/>
      <path id="Path_49785" data-name="Path 49785" d="M190.9,1016.325l23.074,59.253,9.849-12.362L207.362,993.41Z" transform="translate(481.007 -578.478)" fill="#5359a6"/>
      <path id="Path_49786" data-name="Path 49786" d="M190.9,1016.325l23.074,59.253,9.849-12.362L207.362,993.41Z" transform="translate(481.007 -578.478)" opacity="0.2"/>
      <path id="Path_49787" data-name="Path 49787" d="M193.336,1070.307l10.019,2.064-15.581,34.711-7.91-6.661,3.623-17.752Z" transform="translate(511.494 -585.571)" opacity="0.2"/>
      <path id="Path_49788" data-name="Path 49788" d="M932.329,884.723s-20.25,77.093-33.04,101.252-87.519,71.312-87.519,71.312l-5.744-12.764s58.8-46.594,66.8-68S893.427,876.2,893.427,876.2Z" transform="translate(-785.891 -567.668)" fill="#ffc91d"/>
      <path id="Path_49789" data-name="Path 49789" d="M751.017,1097.236l-3.793,12.4h42.331a1.1,1.1,0,0,0,.421-2.112l-24.768-10.291Z" transform="translate(-590.838 -588.054)" fill="#4a436c"/>
      <path id="Path_49790" data-name="Path 49790" d="M834.676,1026.82c-19.65,20.06-26.857,28.013-28.656,30.045,7.457-4.766,74.769-48.072,86.846-70.9,12.793-24.153,33.043-101.247,33.043-101.247L887,876.2s-12.617,78.922-20.6,100.326l-.015.015a.088.088,0,0,1-.014.058C865.861,978.178,857.337,1003.691,834.676,1026.82Z" transform="translate(-779.466 -567.668)" opacity="0.2"/>
      <path id="Path_49791" data-name="Path 49791" d="M938.734,1061.628l5.746,12.763.087-.044Z" transform="translate(-918.599 -584.77)" opacity="0.2"/>
      <path id="Path_49792" data-name="Path 49792" d="M950.384,1061.624l-12.854,1.737,17.685,38.459a1.1,1.1,0,0,0,2.1-.5l-1-26.8Z" transform="translate(-930.25 -584.77)" opacity="0.2"/>
      <path id="Path_49793" data-name="Path 49793" d="M775.711,884.723s33.573,52.758,48.495,80.468c11.073,20.565,33.38,111.659,33.38,111.659h13.855s-10.94-89.01-15.527-112.457-38.1-88.2-38.1-88.2Z" transform="translate(-697.485 -567.668)" fill="#ffc91d"/>
      <path id="Path_49794" data-name="Path 49794" d="M155.182,703.516c-.711,6.574-3.5,19.356-3.5,19.356l16.717,4.1,5.225-23.908,1.038-4.844a4.159,4.159,0,0,0,1.711,1.166,4.036,4.036,0,0,0,5.117-2.513l1.785-5.226a4.031,4.031,0,0,0-7.63-2.6l-.892,2.622,2.149-13-3.9-7.448s2.81-8.106,1.421-10.306c-2.664-4.221-19.029-6.046-19.029-6.046s-.382,1.147-.983,3.023c-1.984,6.173-6.191,20.267-6.191,27.9a12.865,12.865,0,0,0,3.478,9.432s.2.237.565.6c1.6,1.694,3.077,3,3.077,5.262A22.745,22.745,0,0,1,155.182,703.516Z" transform="translate(560.07 -547.254)" fill="#f9bba4"/>
      <path id="Path_49795" data-name="Path 49795" d="M134.663,655.7c.6-1.875.98-3.026.98-3.026s16.586,1.7,19.036,6.054c1.274,2.264-1.874,7.735-1.429,10.3.36,2.074,3.9,7.461,3.9,7.461l-2.152,13,.9-2.622a4.031,4.031,0,1,1,7.632,2.6s15.144-9.56,13.33-23.44c-.172-1.31-2.76-2.379-2.614-3.659,1.1-9.689-3.461-15.492-16.386-20.33-14.921-5.585,5.883-12.257-11.745-10.658S134.663,655.7,134.663,655.7Z" transform="translate(579.828 -545.065)" fill="#f06b56"/>
      <path id="Path_49796" data-name="Path 49796" d="M157.255,945.431c.127,4.989,1.566,12.655,3.423,20.631,3.642,15.568,8.867,32.266,8.867,32.266-1.839,32.74-1.62,73.747-1.62,73.747h15.459s1.748-77.935,16.134-118.45c9.815-27.605,19.739-48.235,29.371-80.866,2.495-8.413,5.19-23.181,5.19-23.181l-65.662-14.385S156.69,921.978,157.255,945.431Z" transform="translate(501.312 -563.886)" fill="#4d6882"/>
      <path id="Path_49797" data-name="Path 49797" d="M252.134,1096.143l4.129,13.323H209.6a1.07,1.07,0,0,1-.406-2.059l27.485-11.264Z" transform="translate(432.563 -587.953)" fill="#efefef"/>
      <path id="Path_49798" data-name="Path 49798" d="M268.026,536.321h345.32a7.461,7.461,0,0,1,7.461,7.46V714.31a7.461,7.461,0,0,1-7.461,7.461H365.538a7.458,7.458,0,0,0-5.842,2.82l-67.063,84.421a2.444,2.444,0,0,1-4.357-1.521v-78.26a7.46,7.46,0,0,0-7.46-7.46h-12.79a7.461,7.461,0,0,1-7.461-7.461V543.781A7.46,7.46,0,0,1,268.026,536.321Z" transform="translate(20.783 -536.321)" fill="#28b896"/>
      <path id="Path_49799" data-name="Path 49799" d="M507.755,836.807H291.286a4.676,4.676,0,0,0-4.677,4.677v106.9a4.677,4.677,0,0,0,4.677,4.677H446.628a4.677,4.677,0,0,1,3.662,1.767l42.039,52.92a1.532,1.532,0,0,0,2.732-.953V957.736a4.677,4.677,0,0,1,4.677-4.677h8.017a4.677,4.677,0,0,0,4.677-4.677v-106.9A4.677,4.677,0,0,0,507.755,836.807Z" transform="translate(105.517 -564.035)" fill="#f06b56"/>
      <path id="Path_49800" data-name="Path 49800" d="M692.733,762.322V867.57a6.081,6.081,0,0,0,6.081,6.082H835.528a5.744,5.744,0,0,1,2.586.6,5.811,5.811,0,0,1,2.167,1.712l31.228,39.295a2.78,2.78,0,0,0,4.953-1.729v-33.8a6.081,6.081,0,0,1,6.082-6.082h14.6a6.07,6.07,0,0,0,6.082-6.082V762.322a6.081,6.081,0,0,0-6.082-6.082H698.814A6.092,6.092,0,0,0,692.733,762.322Z" transform="translate(-653.948 -556.604)" fill="#567dbe"/>
      <path id="Path_49801" data-name="Path 49801" d="M764.464,884.715h5.408a5.746,5.746,0,0,1,2.586.6l-4.662-9.123Z" transform="translate(-588.292 -567.667)" opacity="0.2"/>
      <g id="Group_17565" data-name="Group 17565" transform="translate(69.052 242.858)" opacity="0.2">
        <path id="Path_49802" data-name="Path 49802" d="M788.706,804.057l.073-.073c3.168,4.37-5.572,9.4-5.572,9.4s17.183-2.5,16.528,1.417c-.655,3.952-5.712,20.452-10.737,18.03-5.026-2.4-18.355-11.162-18.355-11.162v-9.632s2.4-1.6,7.757-2.476C783.388,808.737,789.2,802.677,788.706,804.057Z" transform="translate(-690.246 -803.854)"/>
        <path id="Path_49803" data-name="Path 49803" d="M822.786,814.385c.655,3.933,1.566,6.665,2.913,7.32a1.256,1.256,0,0,0,.693.145c7.283-.364,56.721-8.886,56.721-8.886V822.8l-63.99,22.783s-4.1,2.313-9.542-3.459c-2.913-3.114-5.152-11.964-6.792-22.707Z" transform="translate(-802.79 -804.694)"/>
      </g>
      <path id="Path_49804" data-name="Path 49804" d="M770.662,805.429v9.633s13.329,8.758,18.355,11.162c5.025,2.422,9.4-8.959,10.051-12.91.655-3.915-15.841-6.537-15.841-6.537s8.74-5.026,5.572-9.4l-.073.073c-.619.565-5.318,4.68-10.307,5.5C773.066,803.827,770.662,805.429,770.662,805.429Z" transform="translate(-620.547 -560.399)" fill="#69493b"/>
      <path id="Path_49805" data-name="Path 49805" d="M802.061,812.417c1.638,10.732,3.875,19.591,6.784,22.706,5.454,5.775,9.547,3.45,9.547,3.45l65.749-22.4v-9.825s-14.474,2.5-28.905,4.854c-12.238,1.989-24.46,3.874-27.808,4.035a1.374,1.374,0,0,1-.7-.146c-1.345-.657-2.252-3.391-2.91-7.325Z" transform="translate(-734.104 -561.226)" fill="#3bba96"/>
      <path id="Path_49806" data-name="Path 49806" d="M799.263,785.225c.576,6.523,1.3,13.109,2.238,19.12l21.764-4.647c-2.408-14.75-.618-46.363-.469-46.9h63.757s-4.264-20.613-11.724-24.875-20.421-9.06-20.421-9.06H836.416s-13.639,2.282-25.085,8.123C799.862,732.874,797.643,767.107,799.263,785.225Z" transform="translate(-733.548 -553.157)" fill="#ef6a56"/>
      <path id="Path_49807" data-name="Path 49807" d="M773.449,887.794h12.392a4.057,4.057,0,0,0,4.058-4.057V877.1a4.057,4.057,0,0,0-4.778-3.993l-12.393,2.237a4.057,4.057,0,0,0-3.337,3.992v4.4A4.057,4.057,0,0,0,773.449,887.794Z" transform="translate(-610.205 -567.377)" fill="#69493b"/>
      <path id="Path_49808" data-name="Path 49808" d="M817.962,668.8v5.954a4.221,4.221,0,0,0,4.207,4.207,3.89,3.89,0,0,0,.492-.036v35.216s6.245,4.261,12.127,4.261a5.905,5.905,0,0,0,5.863-4.261s-.054-11.8,0-15.514v-.2c.073-3.478-.328-5.863,4.3-8.03.036,0,.054-.018.109-.036.092-.037.164-.074.255-.11a.057.057,0,0,1,.036-.018,16.918,16.918,0,0,0,5.226-3.55,10.925,10.925,0,0,0,.856-.91l-.036-.018A16.492,16.492,0,0,0,855.4,674.99V651.7a17.8,17.8,0,0,0-.346-3.423c-1.384,4.716-8.449-4.552-9.268-3.751a.648.648,0,0,0-.073.163c-.254,1.785-4.77,3.369-9.05.965-4.243-2.385-6.5.273-6.3,1.511.163,1.257-3.734,5.609-2.022,9.342,1.73,3.715-3.314,2.386-.838,7.083,2.495,4.716-1.4,12.874-1.4,7.029,0-5.863-3.933-6.046-3.933-6.046A4.224,4.224,0,0,0,817.962,668.8Z" transform="translate(-719.798 -546.296)" fill="#69493b"/>
      <path id="Path_49809" data-name="Path 49809" d="M811.783,666.26c3.048,5.734.383,11.6,4.647,13.323s3.218,6.266,7.993,5.2v-7.5a3.566,3.566,0,0,1-.49.042,4.23,4.23,0,0,1-4.22-4.22v-5.947a4.23,4.23,0,0,1,4.22-4.221s3.922.171,3.922,6.032,3.9-2.3,1.407-7.012c-2.473-4.71,2.558-3.368.831-7.1-1.7-3.731,2.2-8.079,2.025-9.337-.192-1.235,2.068-3.9,6.31-1.513,4.263,2.409,8.782.832,9.038-.959.277-1.791,7.908,8.5,9.336,3.581,0,0,5.074.234,6.4-3.794,1.322-4.008-4.391-4.157-4.136-7.354.278-3.2-2.387-8.526-7.993-6.906-5.585,1.577-10.658.66-13.578-.939-2.942-1.6-7.738-1.6-8.8,2.665s-11.319-.661-11.852,6.117c-.533,6.8-7.866,9.72-3.858,15.2C816.962,657.073,808.734,660.547,811.783,666.26Z" transform="translate(-721.555 -544.652)"/>
      <path id="Path_49810" data-name="Path 49810" d="M254.932,605.594a43.7,43.7,0,0,0,1.275,12.582l8.4-1.857a22.386,22.386,0,0,0,.891-6.117c.11-4.462-.783-9.123-1.529-13.766-.092-.619-.219-1.238-.365-1.839a30.5,30.5,0,0,0-1.183-4.06v-.018l-.273-.711c-.255-.71-.528-1.383-.8-1.984-.018-.036-.036-.054-.036-.091-.237-.528-.456-1.02-.674-1.457-.182-.364-.346-.692-.51-.983-.2-.4-.382-.711-.509-.947-.182-.328-.292-.492-.292-.492v19.575s-.018-.273-.055-.747a34.663,34.663,0,0,0-1.329-6.846c-.619-1.785-1.475-3.132-2.659-2.968C252.019,593.321,255.078,597.673,254.932,605.594Z" transform="translate(382.257 -540.705)" fill="#f9bba4"/>
      <path id="Path_49811" data-name="Path 49811" d="M270.689,739.845a39.56,39.56,0,0,0,5.7,4.225,16.825,16.825,0,0,0,2.058,1.038c.109.037.237.092.364.146,3.7,1.4,14.04,4.188,15.387,4.552h.018a.566.566,0,0,1,.127.036l5.609-7.357c-1.093-5.918-11.381-6.61-13.893-7.52-2.5-.929-6.064-4.917-7.9-3.606s.455,3.241,3.023,5.19c2.585,1.948,4.1,3.3,4.1,3.3Z" transform="translate(332.449 -554.285)" fill="#f9bba4"/>
      <path id="Path_49812" data-name="Path 49812" d="M182.088,788.233l-5.7,27.113,65.662,14.385,5.007-25.2,6.883-34.561s7.465-6.392,9.324-14.385c1.875-7.994-1.858-16.789-9.324-23.18-7.447-6.392-14.64-12.255-14.64-12.255l1.383-7.447a2.157,2.157,0,0,0-1.657-2.514l-17.682-4.006a3.185,3.185,0,0,0-3.787,2.313l-1.184,4.643s-38.056-19.52-45.25-24.309l-.018-.018c-7.192-4.88-17.189-69.195-17.189-69.195l-3.151.693-5.244,1.165s1.985,62.694,11.254,77.334a15.618,15.618,0,0,0,1.8,2.258c.509.565,1.092,1.146,1.729,1.767l.092.091c9.833,9.4,32.885,23.89,32.885,23.89l-7.6,39.354L139.461,732.15l-5.682,7.447,49,44.021-.258,2.558Z" transform="translate(492.94 -544.003)" fill="#773b20"/>
      <path id="Path_49814" data-name="Path 49814" d="M162.372,705.333a20.032,20.032,0,0,1-.163,2.44,21.492,21.492,0,0,0,5.317.8c7.12.237,12.127-5.682,12.127-5.682s-6.81,1.821-12.054,1.129c-4.334-.583-6.246-1.887-7.394-3C161.806,702.718,162.342,703.66,162.372,705.333Z" transform="translate(553.043 -551.512)" opacity="0.2"/>
      <path id="Path_49815" data-name="Path 49815" d="M260.64,597.051l1.311,6.865.018-.018A34.668,34.668,0,0,0,260.64,597.051Z" transform="translate(379.553 -541.922)" fill="#f9bba4"/>
      <path id="Path_49816" data-name="Path 49816" d="M144.578,803.509s17.226,18.828,28.151,23.617c8.122,3.551,27.442-3.478,36.819-7.319l6.883-34.561s-40.315,34.269-46.87,31.192c-8.3-3.879-24.287-17.544-24.287-17.544Z" transform="translate(530.449 -559.279)" opacity="0.2"/>
      <path id="Path_49817" data-name="Path 49817" d="M158.86,787.687s5.009,2.432,6.243,3.233c2.807,1.821,36.949-25.493,36.949-25.493Z" transform="translate(531.864 -557.452)" opacity="0.2"/>
      <path id="Path_49818" data-name="Path 49818" d="M209.579,709.342l1.729,1.767.092.091c9.833,9.4,32.885,23.89,32.885,23.89l1.649-8.69Z" transform="translate(441.941 -552.279)" opacity="0.2"/>
      <path id="Path_49819" data-name="Path 49819" d="M205.4,966.811c3.642,15.568,8.867,32.266,8.867,32.266s.037-26.167,1.057-42.1c.983-15.569,18.955-109.455,19.757-113.661-.91,3.114-15.387,53.334-23.763,88.168A266.823,266.823,0,0,0,205.4,966.811Z" transform="translate(456.593 -564.635)" opacity="0.2"/>
      <path id="Path_49820" data-name="Path 49820" d="M208.53,1096.143l19.584,13.323-4.13-13.323Z" transform="translate(460.712 -587.953)" opacity="0.2"/>
      <path id="Path_49821" data-name="Path 49821" d="M747.971,1097.236l22.535,8.348,16.5,1.943-25.181-10.292Z" transform="translate(-587.87 -588.054)" opacity="0.3"/>
      <path id="Path_49822" data-name="Path 49822" d="M827.817,893.6l47.963,5.346-6.594-13.355H822.757Z" transform="translate(-744.53 -568.534)" opacity="0.2"/>
      <path id="Path_49823" data-name="Path 49823" d="M867.927,814.1l22.27-2.682-.752-3.507-21.764,4.647Z" transform="translate(-799.729 -561.37)" opacity="0.2"/>
      <path id="Path_49824" data-name="Path 49824" d="M798.792,754.739s-.084-8.514,2.192-14.887l61.565,14.887Z" transform="translate(-709.546 -555.093)" opacity="0.2"/>
      <path id="Path_49825" data-name="Path 49825" d="M829.075,682.463c5.244,14.84,13.584,18.682,17.972,19.666v-.2c.073-3.478-.328-5.863,4.3-8.03.036,0,.054-.018.109-.036.092-.037.164-.073.255-.11C839.873,697.922,829.64,683.264,829.075,682.463Z" transform="translate(-726.194 -549.8)" opacity="0.2"/>
      <path id="Path_49827" data-name="Path 49827" d="M282.727,744.948v-.012a40.188,40.188,0,0,1-5.7-4.213h5.7v-.109l8.886.109,8.922,9.961c-1.347-.365-11.69-3.151-15.387-4.552-.127-.055-.255-.109-.364-.146-.388-.157-.783-.349-1.18-.557-.182-.094-.362-.2-.545-.3C282.949,745.068,282.839,745.012,282.727,744.948Z" transform="translate(326.11 -555.163)" opacity="0.2"/>
      <path id="Path_49828" data-name="Path 49828" d="M253.77,602.68l.055.073L260,610.2c.11-4.462-.783-9.123-1.529-13.766-.092-.619-.219-1.238-.365-1.839a30.508,30.508,0,0,0-1.183-4.06v-.018l-.273-.711c-.273-.71-.546-1.383-.8-1.984-.018-.036-.036-.054-.036-.091-.237-.528-.474-1.02-.674-1.457-.182-.364-.346-.692-.51-.983-.2-.383-.382-.711-.509-.947-.182-.328-.292-.492-.292-.492v18.555Z" transform="translate(387.753 -540.705)" opacity="0.2"/>
      <g id="Group_17566" data-name="Group 17566" transform="translate(236.808 344.809)">
        <path id="Path_49829" data-name="Path 49829" d="M580.182,1092.525h99.012c5.849-5.477,10.323-11.981,12.091-19.641,7.638-33.281-44.193-14.73-30.007-40.919s16.586-57.287-2.88-52.922c-19.489,4.365-18.529-11.087-18.943-36.009-.546-33.281-32.19-37.1-31.644-3.274s-4.365,39.283-18.55,34.918-29.462,4.5-14.73,25.708,20.623,40.853-2.51,33.215C553.1,1027.36,530.664,1056.146,580.182,1092.525Z" transform="translate(-550.167 -916.162)" fill="#3bba96"/>
        <path id="Path_49830" data-name="Path 49830" d="M567.114,1052.591a1.1,1.1,0,0,1,1.4-.658l50.194,18.026v-58.55l-40.912-22.969a1.09,1.09,0,1,1,1.069-1.9l39.843,22.368V937.84a1.081,1.081,0,0,1,1.091-1.091,1.094,1.094,0,0,1,1.091,1.091v99.4l30.08-35.657a1.09,1.09,0,1,1,1.667,1.406l-31.747,37.634v45.327l49.465-17.287a1.09,1.09,0,1,1,.72,2.058l-50.185,17.539v6.165H618.7v-6.991a.2.2,0,0,1,0-.024v-15.132l-50.931-18.292A1.093,1.093,0,0,1,567.114,1052.591Z" transform="translate(-545.239 -918.061)" fill="#4a436c"/>
      </g>
      <g id="Group_17572" data-name="Group 17572" transform="translate(429.738 419.325)">
        <path id="Path_49831" data-name="Path 49831" d="M426.421,1100.1h49.125c4.736-3.536,8.555-8.009,9.842-13.575,4.3-18.746-24.9-8.293-16.913-23.046s9.362-32.277-1.615-29.81-10.432-6.242-10.672-20.274c-.306-18.746-18.135-20.907-17.83-1.855.328,19.052-2.444,22.13-10.431,19.663-7.987-2.444-16.608,2.553-8.293,14.49,8.293,11.938,11.61,23-1.418,18.7C407.129,1060.726,393.9,1078.447,426.421,1100.1Z" transform="translate(-405.914 -998.25)" fill="#3bba96"/>
        <g id="Group_17567" data-name="Group 17567" transform="translate(41.37 10.537)">
          <path id="Path_49832" data-name="Path 49832" d="M447.022,1010.469v90.7h1.222v-90.7a.611.611,0,1,0-1.222,0Z" transform="translate(-447.022 -1009.857)" fill="#4a436c"/>
        </g>
        <g id="Group_17568" data-name="Group 17568" transform="translate(41.366 84.786)">
          <path id="Path_49833" data-name="Path 49833" d="M416.042,1102.9a.606.606,0,0,0,.2-.035l28.678-10.023a.614.614,0,0,0-.406-1.159l-28.678,10.022a.615.615,0,0,0,.2,1.195Z" transform="translate(-415.427 -1091.65)" fill="#4a436c"/>
        </g>
        <g id="Group_17569" data-name="Group 17569" transform="translate(12.277 75.364)">
          <path id="Path_49834" data-name="Path 49834" d="M476.723,1092.946a.614.614,0,0,0,.207-1.193l-29.089-10.447a.615.615,0,1,0-.415,1.157l29.089,10.448A.638.638,0,0,0,476.723,1092.946Z" transform="translate(-447.019 -1081.271)" fill="#4a436c"/>
        </g>
        <g id="Group_17570" data-name="Group 17570" transform="translate(41.366 46.825)">
          <path id="Path_49835" data-name="Path 49835" d="M427.776,1072.43a.613.613,0,0,0,.469-.219l18.026-21.37a.614.614,0,1,0-.939-.791l-18.026,21.369a.614.614,0,0,0,.469,1.011Z" transform="translate(-427.161 -1049.832)" fill="#4a436c"/>
        </g>
        <g id="Group_17571" data-name="Group 17571" transform="translate(18.013 38.49)">
          <path id="Path_49836" data-name="Path 49836" d="M470.987,1054.99a.614.614,0,0,0,.3-1.149l-23.353-13.111a.614.614,0,0,0-.6,1.07l23.353,13.111A.606.606,0,0,0,470.987,1054.99Z" transform="translate(-447.02 -1040.651)" fill="#4a436c"/>
        </g>
      </g>
      <rect id="Rectangle_15382" data-name="Rectangle 15382" width="756.247" height="2.076" rx="0.71" transform="translate(0 521.271)" fill="#4a436c"/>
      <path id="Path_49837" data-name="Path 49837" d="M938.089,1075.6l.088.175s.146-.175.5-.556C938.4,1075.4,938.192,1075.528,938.089,1075.6Z" transform="translate(-912.12 -586.024)"/>
      <path id="Path_49838" data-name="Path 49838" d="M938.457,1061.624l-.927,16.108,7.855,22.3-1.093-25.681Z" transform="translate(-918.323 -584.77)" opacity="0.2"/>
    </g>
  </g>
</svg>
