<?xml version="1.0" encoding="utf-8"?>
<!-- Generator: Adobe Illustrator 24.1.2, SVG Export Plug-In . SVG Version: 6.00 Build 0)  -->
<svg version="1.1" id="L" xmlns="http://www.w3.org/2000/svg" xmlns:xlink="http://www.w3.org/1999/xlink" x="0px" y="0px"
	 width="32px" height="32px" viewBox="0 0 32 32" enable-background="new 0 0 32 32" xml:space="preserve">
<g id="Group">
	<g id="Group_2_">
		<path fill="#0073B0" d="M27.3,4.6C21-1.6,10.9-1.5,4.7,4.7C1.7,7.7,0,11.8,0,16c0,8.8,7.1,16,16,16c4.2,0,8.3-1.7,11.3-4.7
			c0,0,0.1-0.1,0.1-0.1C33.6,20.9,33.5,10.8,27.3,4.6z M16,29.3c-7.3,0-13.3-6-13.3-13.3S8.6,2.7,16,2.7c7.3,0,13.3,6,13.3,13.3
			S23.3,29.3,16,29.3z"/>
	</g>
	<g id="Group_1_">
		<path fill="#0073B0" d="M12.1,10.3c0,1-0.8,1.8-1.8,1.8c-1,0-1.8-0.8-1.8-1.8c0-1,0.8-1.8,1.8-1.8C11.3,8.5,12.1,9.3,12.1,10.3z"
			/>
		<rect x="8.9" y="13.6" fill="#0073B0" width="2.9" height="9.5"/>
		<path fill="#0073B0" d="M23.1,17.9v5.3h-2.9v-4.8c0-1.3-0.5-2.4-1.7-2.4c-1.4,0-2.1,1-2.1,2.6v4.6h-2.9v-9.5h2.7V15h0
			c0.4-0.7,1.6-1.5,3.1-1.5C22.3,13.5,23.1,15,23.1,17.9z"/>
	</g>
</g>
</svg>
