<svg xmlns="http://www.w3.org/2000/svg" xmlns:xlink="http://www.w3.org/1999/xlink" width="1928" height="463" viewBox="0 0 1928 463">
  <defs>
    <clipPath id="clip-path">
      <rect id="Rectangle_16349" data-name="Rectangle 16349" width="684" height="463" transform="translate(0 1419)" fill="#fff" stroke="#707070" stroke-width="1"/>
    </clipPath>
    <clipPath id="clip-path-2">
      <rect id="Rectangle_15342" data-name="Rectangle 15342" width="751.123" height="511.102" fill="none"/>
    </clipPath>
    <clipPath id="clip-path-3">
      <path id="Path_49394" data-name="Path 49394" d="M1531.724,532.071c-40.4-20.523-144.716-27.206-227.739-37.6-155.309-19.444-225.4-156.791-173.858-309.564,23.35-69.2,49.064-126.626,109.674-154.413,73.365-33.636,187.725-28.564,280.956-7.512,175.073,39.533,166.6,90.36,194.84,177.9,43.817,135.831,196.314,250.792,138.966,313.788S1585.435,559.359,1531.724,532.071Z" transform="translate(-1113.382 -10.288)" fill="none"/>
    </clipPath>
  </defs>
  <g id="Group_20591" data-name="Group 20591" transform="translate(0 -1419)">
    <g id="Group_20590" data-name="Group 20590">
      <g id="Mask_Group_54" data-name="Mask Group 54" clip-path="url(#clip-path)">
        <g id="Group_17486" data-name="Group 17486" transform="translate(-116 1419)">
          <g id="Group_17485" data-name="Group 17485" transform="translate(0 0)" clip-path="url(#clip-path-2)">
            <path id="Path_49389" data-name="Path 49389" d="M843.737,533.482l2.67-458.834,171.043,214.079s90.706,26.746,182.8,90.1,201.181,154.65,201.181,154.65Z" transform="translate(-729.638 -70.309)" fill="#faf1e7"/>
            <g id="Group_17484" data-name="Group 17484" transform="translate(222.326 -74.817)">
              <g id="Group_17483" data-name="Group 17483" transform="translate(-239 51)" clip-path="url(#clip-path-3)">
                <path id="Path_49390" data-name="Path 49390" d="M1344.967-53.585c26.3,63.969,59.34,120.193,105.189,174.99,50.743,60.817,122.035,80.659,158.27,98.189,37.292,17.4,51.19,25.77,96.055,71.314,56.733,53.731,55.663,36.7,118.767,73.433,19.017,10.612,35.759,20.343,50.084,29.488l-13.4,20.722c-43.178-12.935-50.731-45.739-84.051-50.271-69.555-9.46-55.571-29.22-95.652-59.878-35.034-28.027-25.921-12.343-68.6-41.522-14.8-10.217-44.562-23.783-74.908-32.29-69.267-19.418-46.943-23.4-86.986-78.16-31.136-45.034-66.937-21.779-94.48-95.695-19.414-52.1-14.163-33.968-104.127-256.152l3.553-1.516C1272.553-159.453,1318.983-114.871,1344.967-53.585Z" transform="translate(-1181.843 94.69)" fill="#fdd5c8"/>
                <path id="Path_49392" data-name="Path 49392" d="M1342.65-12.171c29.761,63.849,80.5,106.54,128.934,159.873,53.617,59.2,124.972,75.322,161.688,91.126,37.751,15.61,51.932,23.351,98.841,67.285,59.084,51.609,57,34.265,121.319,68.127,19.355,9.736,52.907,29.51,67.557,38.022-3.975,7.321-24.44,3.839-28.417,11.161-43.271-10.7-80.041-38.216-109.816-52.831-45.919-22.3-38.2,1.424-79.5-27.572-36.172-26.6-50.808-49.876-94.57-77.211-15.184-9.579-25.95-5.838-45.3-11.556-18.956-5.97-47.61-21.175-90.332-74.812-33.369-44.214-58.787-47.968-98.719-117.758C1338.251-.042,1280.961-96.385,1256.3-168.6l3.4-1.755C1279.8-129.005,1313.366-73.3,1342.65-12.171Z" transform="translate(-1177.411 74.494)" fill="#fff"/>
                <path id="Path_49393" data-name="Path 49393" d="M1926.9,393.98c-1.856,3.414-6.828,1.132-6.828,1.132s-61.723-30.21-80.919-39.361c-63.836-32.038-60.895-16.42-120.333-65.2-47.275-41.746-61.162-49.688-97.67-65.874-35.551-16.425-103.2-35-155.5-93.3-47.29-52.654-95.2-95.788-124.315-158.268-28.608-59.93-59.8-115.291-78.312-156.164q15.773-8.142,31.546-16.277c16.69,32.222,37.963,82.494,61.677,131.165,23.384,48.755,49.212,95.909,67.395,123.82,43.517,64.545,81.5,93.505,111.378,109.539,30.212,15.925,52.329,18.921,71.732,29.082,39.656,19.372,67.88,32.96,117.933,80.621,43.732,40.151,57.827,51.773,108.815,66.945C1849.136,346.468,1904.8,382.117,1926.9,393.98Z" transform="translate(-1176.753 92.898)" fill="#e9f6fb"/>
              </g>
            </g>
          </g>
        </g>
      </g>
    </g>
  </g>
</svg>
