<?xml version="1.0" encoding="utf-8"?>
<!-- Generator: Adobe Illustrator 24.1.2, SVG Export Plug-In . SVG Version: 6.00 Build 0)  -->
<svg version="1.1" id="Слой_1" xmlns="http://www.w3.org/2000/svg" xmlns:xlink="http://www.w3.org/1999/xlink" x="0px" y="0px"
	 viewBox="0 0 100 100" style="enable-background:new 0 0 100 100;" xml:space="preserve">
<style type="text/css">
	.st0{fill:#D57872;}
</style>
<g id="Group_20591" transform="translate(8 -1419)">
	<path id="Shape" class="st0" d="M42,1519c-4.5,0-8.9-0.6-13.2-1.8c-4.2-0.8-8.5-1.2-12.8-1.2c-3,0-6-0.5-8.9-1.5
		c-2.3-0.8-4.5-2.2-6.2-4c-1.7-1.8-2.9-4-3.7-6.3c-0.9-2.7-1.4-5.5-1.5-8.3l0-0.5c-0.1-3.6-0.5-7.1-1.1-10.6
		c-3.4-10.3-3.4-21.3,0-31.6c0.6-3.5,1-7.1,1.1-10.6l0-0.5c0.1-2.8,0.6-5.6,1.5-8.3c0.8-2.3,2.1-4.5,3.7-6.3c1.7-1.8,3.8-3.2,6.2-4
		c2.9-1,5.9-1.5,8.9-1.5c4.3,0,8.5-0.4,12.7-1.2c4.3-1.2,8.7-1.8,13.2-1.8c3.9,0,7.8,0.4,11.5,1.3c4.8,1.1,9.7,1.7,14.7,1.7
		c3,0,6,0.5,8.9,1.5c2.3,0.8,4.5,2.2,6.2,4c1.7,1.8,2.9,4,3.7,6.3c0.9,2.7,1.4,5.5,1.5,8.3l0,0.5c0.2,4.6,0.7,9.1,1.7,13.6
		c2.2,8.4,2.2,17.3,0,25.8c-1,4.4-1.5,9-1.7,13.5l0,0.5c-0.1,2.8-0.6,5.6-1.5,8.3c-0.8,2.3-2.1,4.5-3.7,6.3c-1.7,1.8-3.8,3.2-6.2,4
		c-2.9,1-5.9,1.5-8.9,1.5c-4.9,0-9.9,0.5-14.7,1.6C49.8,1518.6,45.9,1519,42,1519z M84.5,1495.2L84.5,1495.2
		c-2.1,3.4-4.6,6.5-7.5,9.3c-2.9,2.8-6,5.2-9.5,7.3l0.6,0c10.6-0.2,15.7-5.2,16.3-16.2L84.5,1495.2L84.5,1495.2z M-0.1,1495.8
		c0.7,10.9,5.7,15.9,16.3,16l0.3,0c-3.3-2-6.4-4.4-9.2-7.1C4.4,1502.1,2,1499.1-0.1,1495.8z M29.9,1495.5l-6.2,10.9
		c2.8,1.4,5.7,2.4,8.8,3.2c6.3,1.5,12.8,1.5,19.1,0c3-0.7,6-1.8,8.8-3.2l-6.2-10.9C46.4,1499.1,37.6,1499.1,29.9,1495.5z M42,1448.2
		c-11.5,0-20.8,9.3-20.8,20.8s9.3,20.8,20.8,20.8s20.8-9.3,20.8-20.8C62.8,1457.5,53.5,1448.2,42,1448.2z M79.4,1450.7l-10.9,6.2
		c3.5,7.7,3.5,16.5,0,24.1l10.9,6.2c1.4-2.8,2.4-5.7,3.2-8.8c1.5-6.3,1.5-12.8,0-19C81.8,1456.5,80.8,1453.5,79.4,1450.7z
		 M4.6,1450.7c-1.4,2.8-2.4,5.7-3.2,8.8c-1.5,6.3-1.5,12.8,0,19c0.7,3,1.8,6,3.2,8.7l10.9-6.2c-3.5-7.7-3.5-16.5,0-24.1L4.6,1450.7z
		 M67.6,1426.1c6.9,4.1,12.7,9.8,16.9,16.6l0-0.4c-0.6-11-5.6-16-16.3-16.2L67.6,1426.1z M42,1439.8c4.2,0,8.3,0.9,12.1,2.7
		l6.2-10.9c-2.8-1.4-5.7-2.4-8.8-3.2c-6.3-1.5-12.8-1.5-19.1,0c-3,0.7-6,1.8-8.8,3.2l6.2,10.9C33.7,1440.7,37.8,1439.8,42,1439.8z
		 M16.4,1426.2l-0.3,0c-10.6,0.2-15.6,5.1-16.3,16.1C4,1435.7,9.7,1430.2,16.4,1426.2z"/>
</g>
</svg>
