<?xml version="1.0" encoding="utf-8"?>
<!-- Generator: Adobe Illustrator 24.1.2, SVG Export Plug-In . SVG Version: 6.00 Build 0)  -->
<svg version="1.1" id="Слой_1" xmlns="http://www.w3.org/2000/svg" xmlns:xlink="http://www.w3.org/1999/xlink" x="0px" y="0px"
	 width="512px" height="157.8px" viewBox="0 0 512 157.8" style="enable-background:new 0 0 512 157.8;" xml:space="preserve">
<style type="text/css">
	.st0{fill:#36505F;}
	.st1{fill:#FFFBFD;}
	.st2{fill:#BEC4C0;}
	.st3{fill:#262E37;}
	.st4{fill:#527F99;}
	.st5{fill-rule:evenodd;clip-rule:evenodd;fill:#262E37;}
	.st6{fill:#39B39B;}
	.st7{fill-rule:evenodd;clip-rule:evenodd;fill:#FFFBFD;}
	.st8{fill-rule:evenodd;clip-rule:evenodd;fill:#F1C20F;}
	.st9{fill-rule:evenodd;clip-rule:evenodd;fill:#EEEEEE;}
	.st10{fill-rule:evenodd;clip-rule:evenodd;fill:#C39D0C;}
	.st11{fill-rule:evenodd;clip-rule:evenodd;fill:#EDF0F2;}
	.st12{fill-rule:evenodd;clip-rule:evenodd;fill:#46B39A;}
	.st13{fill-rule:evenodd;clip-rule:evenodd;fill:#D5D6D6;}
	.st14{fill-rule:evenodd;clip-rule:evenodd;fill:#EEEDED;}
	.st15{fill-rule:evenodd;clip-rule:evenodd;fill:#0F2635;}
	.st16{fill:#E65336;}
	.st17{fill:#D1C38E;}
	.st18{fill:none;}
</style>
<g id="Group_19083" transform="translate(1770.262 145.992)">
	<path class="st0" d="M-1283.7-94.5V11.8h-32.9V-94.5c0-0.2,0-0.3,0.1-0.4c0.1-0.3,0.4-0.4,0.7-0.4h31.2
		C-1284-95.3-1283.7-95-1283.7-94.5z"/>
	<ellipse id="Ellipse_2041-2" class="st1" cx="-1300.1" cy="-8.3" rx="9.5" ry="9.5"/>
	<path id="Rectangle_15967-2" class="st1" d="M-1310.3-88.7h20.9c0.2,0,0.4,0.2,0.4,0.4c0,0,0,0,0,0v62.8c0,0.2-0.2,0.4-0.4,0.4
		h-20.9c-0.2,0-0.4-0.2-0.4-0.4c0,0,0,0,0,0v-62.8C-1310.7-88.6-1310.5-88.7-1310.3-88.7C-1310.3-88.7-1310.3-88.7-1310.3-88.7z"/>
	<rect id="Rectangle_15968-2" x="-1307.4" y="-85.3" class="st2" width="15.2" height="15.2"/>
	<ellipse id="Ellipse_2042-2" class="st3" cx="-1300.1" cy="-8.3" rx="7.3" ry="7.3"/>
	<rect id="Rectangle_15969-2" x="-1307.3" y="-67.9" class="st2" width="15" height="1.9"/>
	<rect id="Rectangle_15970-2" x="-1307.3" y="-63.8" class="st2" width="15" height="1.9"/>
	<rect id="Rectangle_15971-2" x="-1307.3" y="-59.7" class="st2" width="15" height="1.9"/>
	<rect id="Rectangle_15972-2" x="-1307.3" y="-55.6" class="st2" width="15" height="1.9"/>
	<rect id="Rectangle_15973-2" x="-1307.3" y="-51.5" class="st2" width="15" height="1.9"/>
	<rect id="Rectangle_15974-2" x="-1307.4" y="-36.3" class="st2" width="15.2" height="7.1"/>
	<path class="st4" d="M-1316.3-94.5V11.8h-32.9V-94.5c0-0.5,0.4-0.9,0.9-0.9h31.2c0.3,0,0.6,0.2,0.7,0.4
		C-1316.3-94.8-1316.3-94.7-1316.3-94.5z"/>
	<ellipse id="Ellipse_2043-2" class="st1" cx="-1332.7" cy="-8.3" rx="9.5" ry="9.5"/>
	<path id="Rectangle_15976-2" class="st1" d="M-1342.9-88.7h20.9c0.2,0,0.4,0.2,0.4,0.4v62.8c0,0.2-0.2,0.4-0.4,0.4h-20.9
		c-0.2,0-0.4-0.2-0.4-0.4v-62.8C-1343.3-88.6-1343.1-88.7-1342.9-88.7z"/>
	<rect id="Rectangle_15977-2" x="-1340.1" y="-85.3" class="st2" width="15.2" height="15.2"/>
	<path id="Path_51732-2" class="st5" d="M-1332.7-15.6c4.1,0,7.3,3.3,7.4,7.3c0,4.1-3.3,7.3-7.3,7.4c-4.1,0-7.3-3.3-7.4-7.3
		c0,0,0,0,0,0C-1340.1-12.3-1336.8-15.6-1332.7-15.6z"/>
	<rect id="Rectangle_15978-2" x="-1339.9" y="-67.9" class="st2" width="15" height="1.9"/>
	<rect id="Rectangle_15979-2" x="-1339.9" y="-63.8" class="st2" width="15" height="1.9"/>
	<rect id="Rectangle_15980-2" x="-1339.9" y="-59.7" class="st2" width="15" height="1.9"/>
	<rect id="Rectangle_15981-2" x="-1339.9" y="-55.6" class="st2" width="15" height="1.9"/>
	<rect id="Rectangle_15982-2" x="-1339.9" y="-51.5" class="st2" width="15" height="1.9"/>
	<rect id="Rectangle_15983-2" x="-1340.1" y="-36.3" class="st2" width="15.2" height="7.1"/>
	<path class="st6" d="M-1348.8-88.4l-0.3,1.3l-26.5,98.9h-16.5l-15.5-4.2c-0.5-0.1-0.7-0.6-0.6-1l27.7-103.5
		c0.1-0.5,0.6-0.7,1.1-0.6l30.1,8.1c0.1,0,0.2,0.1,0.3,0.1C-1348.9-89.1-1348.7-88.8-1348.8-88.4z"/>
	<path id="Path_51733-2" class="st7" d="M-1384.5-18.6c5.1,1.4,8.1,6.6,6.7,11.7s-6.6,8.1-11.7,6.7c-5.1-1.4-8.1-6.6-6.7-11.7
		C-1394.8-16.9-1389.6-19.9-1384.5-18.6z"/>
	<path id="Rectangle_15985-2" class="st1" d="M-1372.3-22.8l-20.2-5.4c-0.2-0.1-0.4-0.3-0.3-0.5l16.3-60.7c0.1-0.2,0.3-0.4,0.5-0.3
		l20.2,5.4c0.2,0.1,0.4,0.3,0.3,0.5l-16.3,60.7C-1371.8-22.9-1372.1-22.8-1372.3-22.8z"/>
	
		<rect id="Rectangle_15986-2" x="-1376.4" y="-84" transform="matrix(0.2588 -0.9659 0.9659 0.2588 -940.7546 -1378.7013)" class="st2" width="15.2" height="15.2"/>
	<path id="Path_51734-2" class="st5" d="M-1385.1-16.5c3.9,1.1,6.2,5.1,5.2,9c-1.1,3.9-5.1,6.2-9,5.2c-3.9-1.1-6.2-5.1-5.2-9
		C-1393-15.2-1389-17.5-1385.1-16.5C-1385.1-16.5-1385.1-16.5-1385.1-16.5z"/>
	
		<rect id="Rectangle_15987-2" x="-1372.5" y="-73.4" transform="matrix(0.2589 -0.9659 0.9659 0.2589 -952.8198 -1373.6865)" class="st2" width="1.9" height="15"/>
	
		<rect id="Rectangle_15988-2" x="-1373.6" y="-69.5" transform="matrix(0.259 -0.9659 0.9659 0.259 -957.2518 -1371.736)" class="st2" width="1.9" height="15"/>
	
		<rect id="Rectangle_15989-2" x="-1374.6" y="-65.6" transform="matrix(0.259 -0.9659 0.9659 0.259 -961.8426 -1369.8357)" class="st2" width="1.9" height="15"/>
	
		<rect id="Rectangle_15990-2" x="-1375.7" y="-61.6" transform="matrix(0.2589 -0.9659 0.9659 0.2589 -966.592 -1367.9824)" class="st2" width="1.9" height="15"/>
	
		<rect id="Rectangle_15991-2" x="-1376.7" y="-57.7" transform="matrix(0.2588 -0.9659 0.9659 0.2588 -971.2064 -1366.0876)" class="st2" width="1.9" height="15"/>
	
		<rect id="Rectangle_15992-2" x="-1383.9" y="-40.6" transform="matrix(0.259 -0.9659 0.9659 0.259 -991.0693 -1357.7316)" class="st2" width="7.1" height="15.2"/>
</g>
<g id="Group_19087" transform="translate(1567.129 126.745)">
	<path id="Path_51745" class="st8" d="M-1353.3-95l5.8,10.6c0.5,1.2,1.1,2.2,1.9,3.2c0.4,1.4,1.1,1.7,1.3,3.2
		c-0.7,1.2-5,3.3-6.5,4.1c-2.4,1.2-4.7,2.5-6.9,3.9l-2.7,1.5l-10.9,5.8l-11-20c0,0,0-0.2,0-0.2l0.3-0.4c0,0,0.1-0.2,0.2-0.2l13-7.2
		C-1352.8-99.4-1356-99-1353.3-95z"/>
	<path id="Path_51746" class="st8" d="M-1383.9-83.2c1.5,1.1,0.9,0.7,1.9,2.4l4.4,7.7c1.2,2.3,4.6,9.5,5.8,10.7
		c-1.1,3.6-1.9,8-2.8,11.8c-0.9,4-2.1,8.2-2.8,12.1c-1.2-0.5-1.3-1.3-2.3-3.2l-5.6-10.3c-0.8-1.1-1.6-2.8-2.4-3.9l-9.3-16.9
		l-1.9-3.7c-1.1-2-7.6-13.2-7.6-14.3C-1403.9-90.8-1388.2-84.2-1383.9-83.2z"/>
	<path id="Path_51747" class="st9" d="M-1337.5-34.8c-1.8-0.4-1.6-1.2-2.4-2.6c-3.2-6.2-7.5-13.4-10.6-19.4
		c-1.4-2.8-6.5-11.3-7.1-13.1l-2.7,1.5l18.7,34.4c-0.9,1-2.1,1.8-2.6,3.9c-0.4,1.8,0.1,3.7,1.2,5.2c-10.8,13.8-21.7,27.7-32.5,41.5
		l-4.2,3.9c-8.3,1.2-21.5,4.7-27.9,5.3h60.6l-27.4-5.3l34.2-43.5c3.3,0.4,5.7-0.4,7.1-2.6C-1331.3-28.6-1332-33.6-1337.5-34.8z
		 M-1339.7-24.6c-0.1,0-0.2-0.1-0.3-0.1c-0.1,0-0.2-0.1-0.3-0.1c-0.2-0.1-0.4-0.2-0.5-0.3c-0.2-0.1-0.3-0.2-0.5-0.3
		c-0.1,0-0.1-0.1-0.2-0.2c-0.1,0-0.1-0.1-0.2-0.2c-0.1-0.1-0.2-0.2-0.2-0.3c-0.1-0.2-0.3-0.3-0.4-0.5c-0.1-0.2-0.2-0.4-0.3-0.6
		s-0.1-0.4-0.2-0.6c0-0.2,0-0.3-0.1-0.5c0-0.4,0-0.9,0-1.4c0.1-0.3,0.1-0.6,0.2-0.8c0-0.1,0.1-0.3,0.2-0.4c0.1-0.3,0.3-0.5,0.4-0.8
		c0.2-0.2,0.4-0.5,0.6-0.7c0,0,0.1,0,0.1-0.1c0.1-0.1,0.2-0.2,0.2-0.2c0.1-0.1,0.1-0.1,0.2-0.1c0.3-0.2,0.5-0.4,0.8-0.5
		c0.1,0,0.1-0.1,0.2-0.1c0.1,0,0.2-0.1,0.3-0.1c0.1,0,0.3-0.1,0.4-0.1c0.4,0,0.8,0,1.2,0c0.1,0,0.3,0.1,0.4,0.1
		c0.1,0,0.3,0.1,0.4,0.1C-1331-30.8-1334.4-22.9-1339.7-24.6z"/>
	<path class="st8" d="M-1346.2,31L-1346.2,31l-62.2,0v0c0-2.4-0.5-5.2,0.7-5.3h60.6C-1345.8,25.9-1346.2,25.7-1346.2,31z"/>
	<path id="Path_51749" class="st9" d="M-1345.5-81.2c-0.8-1-1.4-2.1-1.9-3.2l-5.8-10.6c1.4-0.7,2.6-1.8,4.4-1.8
		c0.9,1,2.7,4.8,3.7,6.5c0.8,1.3,3.3,5.5,3.4,6.8C-1342.9-82.4-1344.1-81.6-1345.5-81.2z"/>
	<path id="Path_51750" class="st8" d="M-1337-33.1c6,2.2,2.7,10.1-2.7,8.5C-1345.3-26.3-1342.5-35.1-1337-33.1z"/>
	<path id="Path_51751" class="st10" d="M-1371.3-62.7l-0.5,0.3c-1.2-1.2-4.6-8.5-5.8-10.7l-4.4-7.7c-1-1.7-0.4-1.3-1.9-2.4
		c0.7,0.1,1.4,0,2.1-0.2c-0.1,0.1-0.2,0.2-0.2,0.2l-0.3,0.4c0,0,0,0.1,0,0.2L-1371.3-62.7z"/>
	<path id="Path_51752" class="st11" d="M-1387.8-56.1c-0.3,0-0.6,0-0.8,0c-5.6,0-10.1-4.5-10.1-10.1c0-2.2,0.7-4.3,2-6.1
		L-1387.8-56.1z"/>
</g>
<g id="Group_19090" transform="translate(1426.125 97.739)">
	<path id="Path_51802" class="st12" d="M-1366.9-97.7c-23,0-41.6,18.6-41.6,41.6c0,23,18.6,41.6,41.6,41.6c23,0,41.6-18.6,41.6-41.6
		c0,0,0,0,0,0C-1325.3-79.1-1343.9-97.7-1366.9-97.7z"/>
	<path id="Path_51803" class="st13" d="M-1366.9-92.5c-20.1,0-36.4,16.3-36.4,36.4s16.3,36.4,36.4,36.4s36.4-16.3,36.4-36.4
		c0,0,0,0,0,0C-1330.5-76.2-1346.8-92.5-1366.9-92.5z"/>
	<path id="Path_51804" class="st14" d="M-1366.9-89.9c-18.7,0-33.8,15.1-33.8,33.8c0,18.7,15.1,33.8,33.8,33.8
		c18.7,0,33.8-15.1,33.8-33.8c0,0,0,0,0,0C-1333.1-74.8-1348.2-89.9-1366.9-89.9C-1366.9-89.9-1366.9-89.9-1366.9-89.9z"/>
	<path id="Path_51805" class="st15" d="M-1381-60.6L-1381-60.6c0.1-0.4,0.5-0.6,0.9-0.5l13.7,4.3c0.4,0.1,0.6,0.5,0.5,0.9l0,0
		c-0.1,0.4-0.5,0.6-0.9,0.5c0,0,0,0,0,0l-13.7-4.3C-1380.9-59.8-1381.1-60.2-1381-60.6C-1381-60.6-1381-60.6-1381-60.6z"/>
	<path id="Path_51806" class="st13" d="M-1366.9-85.1c-1.1,0-1.9,0.9-1.9,2s0.9,1.9,2,1.9c1.1,0,1.9-0.9,1.9-1.9
		C-1365-84.2-1365.8-85.1-1366.9-85.1C-1366.9-85.1-1366.9-85.1-1366.9-85.1z"/>
	<path id="Path_51807" class="st13" d="M-1338-56.1c0-1.1-0.9-1.9-2-1.9s-1.9,0.9-1.9,2c0,1.1,0.9,1.9,2,1.9
		C-1338.9-54.2-1338-55.1-1338-56.1C-1338-56.1-1338-56.1-1338-56.1z"/>
	<path id="Path_51808" class="st13" d="M-1395.8-56.1c0,1.1,0.9,2,1.9,2c1.1,0,2-0.9,2-1.9c0-1.1-0.9-2-1.9-2c0,0,0,0,0,0
		C-1395-58.1-1395.8-57.2-1395.8-56.1L-1395.8-56.1z"/>
	<path id="Path_51809" class="st13" d="M-1366.9-27.2c1.1,0,2-0.9,2-1.9s-0.9-2-1.9-2c-1.1,0-2,0.9-2,1.9c0,0,0,0,0,0
		C-1368.9-28.1-1368-27.2-1366.9-27.2z"/>
	<path id="Path_51810" class="st13" d="M-1352.4-81.2c-0.9-0.5-2.1-0.2-2.7,0.7c-0.5,0.9-0.2,2.1,0.7,2.7c0.9,0.5,2.1,0.2,2.7-0.7
		C-1351.2-79.5-1351.5-80.7-1352.4-81.2C-1352.4-81.2-1352.4-81.2-1352.4-81.2z"/>
	<path id="Path_51811" class="st13" d="M-1341.9-70.6c-0.5-0.9-1.7-1.3-2.7-0.7c-0.9,0.5-1.3,1.7-0.7,2.7c0.5,0.9,1.7,1.3,2.7,0.7
		c0,0,0,0,0,0C-1341.6-68.5-1341.3-69.7-1341.9-70.6z"/>
	<path id="Path_51812" class="st13" d="M-1381.4-81.2c-0.9,0.5-1.3,1.7-0.7,2.7c0.5,0.9,1.7,1.3,2.7,0.7c0.9-0.5,1.3-1.7,0.7-2.7
		C-1379.2-81.4-1380.4-81.7-1381.4-81.2C-1381.4-81.2-1381.4-81.2-1381.4-81.2z"/>
	<path id="Path_51813" class="st13" d="M-1392-70.6c-0.5,0.9-0.2,2.1,0.7,2.7c0.9,0.5,2.1,0.2,2.7-0.7c0.5-0.9,0.2-2.1-0.7-2.7
		C-1390.2-71.9-1391.4-71.5-1392-70.6z"/>
	<path id="Path_51814" class="st13" d="M-1392-41.7c0.5,0.9,1.7,1.3,2.7,0.7c0.9-0.5,1.3-1.7,0.7-2.7c-0.5-0.9-1.7-1.3-2.7-0.7
		C-1392.2-43.8-1392.5-42.6-1392-41.7C-1392-41.7-1392-41.7-1392-41.7z"/>
	<path id="Path_51815" class="st13" d="M-1381.4-31.1c0.9,0.5,2.1,0.2,2.7-0.7c0.5-0.9,0.2-2.1-0.7-2.7c-0.9-0.5-2.1-0.2-2.7,0.7
		C-1382.6-32.8-1382.3-31.6-1381.4-31.1z"/>
	<path id="Path_51816" class="st13" d="M-1341.9-41.7c0.5-0.9,0.2-2.1-0.7-2.7c-0.9-0.5-2.1-0.2-2.7,0.7c-0.5,0.9-0.2,2.1,0.7,2.7
		C-1343.6-40.4-1342.4-40.8-1341.9-41.7z"/>
	<path id="Path_51817" class="st13" d="M-1352.4-31.1c0.9-0.5,1.3-1.7,0.7-2.7c-0.5-0.9-1.7-1.3-2.7-0.7s-1.3,1.7-0.7,2.7
		c0,0,0,0,0,0C-1354.6-30.9-1353.4-30.6-1352.4-31.1z"/>
	<path id="Path_51818" class="st15" d="M-1386.5-46L-1386.5-46c-0.2-0.4-0.1-0.8,0.3-1l19.4-10.3c0.4-0.2,0.8-0.1,1,0.3l0,0
		c0.2,0.4,0.1,0.8-0.3,1l-19.4,10.3C-1385.8-45.5-1386.3-45.7-1386.5-46z"/>
	<path id="Rectangle_16039" class="st16" d="M-1367.2-78.6h0.5c0.1,0,0.1,0.1,0.1,0.1v23.1c0,0.1-0.1,0.1-0.1,0.1h-0.5
		c-0.1,0-0.1-0.1-0.1-0.1v-23.1C-1367.3-78.5-1367.3-78.6-1367.2-78.6z"/>
	<path id="Path_51819" class="st15" d="M-1366.9-58.7c-1.4,0-2.6,1.2-2.6,2.6s1.2,2.6,2.6,2.6c1.4,0,2.6-1.2,2.6-2.6
		C-1364.3-57.6-1365.5-58.7-1366.9-58.7L-1366.9-58.7z"/>
</g>
<polygon class="st17" points="158.8,157.8 220.9,157.8 220.9,157.8 158.8,157.8 "/>
<rect class="st18" width="512" height="157.8"/>
</svg>
