<svg xmlns="http://www.w3.org/2000/svg" xmlns:xlink="http://www.w3.org/1999/xlink" width="476" height="378" viewBox="0 0 476 378">
  <defs>
    <clipPath id="clip-path">
      <rect id="Rectangle_16352" data-name="Rectangle 16352" width="476" height="378" transform="translate(1444 931)" fill="#fff"/>
    </clipPath>
  </defs>
  <g id="Mask_Group_57" data-name="Mask Group 57" transform="translate(-1444 -931)" clip-path="url(#clip-path)">
    <g id="Group_19107" data-name="Group 19107" transform="translate(1424.281 825.754)">
      <g id="Group_14888" data-name="Group 14888" transform="translate(184.258 193.388)">
        <g id="Group_14887" data-name="Group 14887" transform="translate(0)">
          <path id="Path_42692" data-name="Path 42692" d="M569.372,317.8C539.2,244.185,462.756,191.442,394.724,193.443a181.587,181.587,0,0,0-38.318,5.786c-39.87,10.454-67.654,31.743-83.165,45.876a168.626,168.626,0,0,0-49.733,49.33c-7.136,10.939-26.721,42.216-26.721,81.553,0,66.863,64.959,135.72,137.783,137.783,23.13.655,43.127-5.544,58.571-12.886a536.877,536.877,0,0,1,67.639-26.961q1.923-.612,3.888-1.257c52.348-17.185,97.751-32.09,114.054-66.416C593.163,375.841,579.231,341.852,569.372,317.8Z" transform="translate(-196.786 -193.388)" fill="#fff"/>
        </g>
      </g>
      <g id="Group_14891" data-name="Group 14891" transform="translate(172.719 288.541)">
        <g id="Group_14889" data-name="Group 14889" transform="translate(0 0)">
          <path id="Path_42693" data-name="Path 42693" d="M324.652,627.923c-1.218,0-2.452-.017-3.668-.052a140.147,140.147,0,0,1-56.59-14.043,168.186,168.186,0,0,1-47-33.776C189,551.117,172.719,514.4,172.719,479.3c0-29.063,9.58-58.485,28.474-87.447l2.007,1.31c-18.635,28.566-28.084,57.546-28.084,86.137,0,34.469,16.032,70.578,43.984,99.068a165.75,165.75,0,0,0,46.326,33.291,137.768,137.768,0,0,0,55.626,13.811c1.194.034,2.4.051,3.6.051,19.838,0,39.624-4.625,58.81-13.747l1.029,2.165C364.981,623.219,344.848,627.923,324.652,627.923Z" transform="translate(-172.719 -391.858)" fill="#fff"/>
        </g>
        <g id="Group_14890" data-name="Group 14890" transform="translate(312.917 25.167)">
          <path id="Path_42694" data-name="Path 42694" d="M826.2,602.9l-.8-2.261c42.43-15,73.527-30.973,87.384-60.147,16.034-33.758.87-70.753-9.163-95.233l2.218-.909c10.194,24.87,25.6,62.454,9.111,97.17C900.737,571.442,869.191,587.7,826.2,602.9Z" transform="translate(-825.399 -444.351)" fill="#fff"/>
        </g>
      </g>
    </g>
    <g id="Group_19104" data-name="Group 19104" transform="translate(1466.76 1043)">
      <g id="Group_14550" data-name="Group 14550" transform="translate(81.953 45.094)">
        <path id="Path_40277" data-name="Path 40277" d="M892.024,1274.153h14.721l-22.217-36.132h19.549l-27.278-51.8-27.275-51.806-27.277,51.806-27.276,51.8h19.548l-22.22,36.132h14.723l-23.256,30.007H915.282Z" transform="translate(-783.765 -1134.414)" fill="#0e755d"/>
        <rect id="Rectangle_13652" data-name="Rectangle 13652" width="3.062" height="50.032" transform="translate(64.229 141.343)" fill="#a3531a"/>
        <path id="Path_40278" data-name="Path 40278" d="M858.852,1274.153h14.723l-22.217-36.132h19.549l-27.278-51.8-27.275-51.806V1304.16h65.759Z" transform="translate(-750.595 -1134.414)" fill="#040505" opacity="0.2"/>
      </g>
      <g id="Group_14551" data-name="Group 14551" transform="translate(150.071)">
        <path id="Path_40279" data-name="Path 40279" d="M925.782,1251.809H940.5l-22.219-36.136h19.55l-27.276-51.8-27.277-51.806-27.278,51.806-27.279,51.8h19.55l-22.216,36.136h14.723l-23.26,30.007H949.04Z" transform="translate(-817.523 -1112.066)" fill="#0e755d"/>
        <rect id="Rectangle_13653" data-name="Rectangle 13653" width="3.06" height="101.065" transform="translate(64.229 141.346)" fill="#a3531a"/>
        <path id="Path_40280" data-name="Path 40280" d="M892.611,1251.809h14.723l-22.219-36.136h19.551l-27.276-51.8-27.277-51.806v169.75h65.757Z" transform="translate(-784.352 -1112.066)" fill="#040505" opacity="0.2"/>
      </g>
      <g id="Group_14552" data-name="Group 14552" transform="translate(214.431 39.872)">
        <path id="Path_40281" data-name="Path 40281" d="M957.678,1271.569H972.4l-22.218-36.136h19.55l-27.278-51.8-27.278-51.806L887.9,1183.632l-27.277,51.8h19.55l-22.217,36.136h14.721l-23.258,30.008h131.52Z" transform="translate(-849.418 -1131.826)" fill="#0e755d"/>
        <rect id="Rectangle_13654" data-name="Rectangle 13654" width="3.06" height="50.028" transform="translate(64.229 141.346)" fill="#a3531a"/>
        <path id="Path_40282" data-name="Path 40282" d="M924.508,1271.569h14.723l-22.218-36.136h19.55l-27.278-51.8-27.278-51.806v169.75h65.761Z" transform="translate(-816.249 -1131.826)" fill="#0e755d" opacity="0.2"/>
      </g>
      <g id="Group_14553" data-name="Group 14553" transform="translate(0 176.785)">
        <path id="Path_40283" data-name="Path 40283" d="M982.2,1270.034a17.893,17.893,0,0,0-28.2-14.637,30.568,30.568,0,1,0-59.167-10.8,31.169,31.169,0,0,0,.276,4.076,16.813,16.813,0,0,0-10.4,8.84c.006-.264.02-.525.02-.789a23.65,23.65,0,0,0-31.258-22.4,40.46,40.46,0,0,0-80.459,3.953,25.6,25.6,0,0,0-4.532-.415,25.341,25.341,0,0,0-2.3,50.577v0h.047c.745.066,1.493.1,2.254.1s1.509-.036,2.256-.1h195.33v-.6A17.9,17.9,0,0,0,982.2,1270.034Z" transform="translate(-743.15 -1199.678)" fill="#75cc96"/>
        <path id="Path_40284" data-name="Path 40284" d="M904.013,1245.007a17.816,17.816,0,0,0-10.3,3.263,30.568,30.568,0,1,0-59.167-10.793,31.1,31.1,0,0,0,.276,4.07,16.841,16.841,0,0,0-10.4,8.84c.006-.26.02-.525.02-.785a23.656,23.656,0,0,0-22.063-23.6v55.313h103.4v-.6a17.9,17.9,0,0,0-1.772-35.706Z" transform="translate(-682.859 -1192.319)" fill="#040505" opacity="0.2"/>
      </g>
      <g id="Group_14554" data-name="Group 14554" transform="translate(193.53 176.785)">
        <path id="Path_40285" data-name="Path 40285" d="M1078.112,1270.034a17.892,17.892,0,0,0-28.193-14.637,30.578,30.578,0,1,0-58.892-6.719,16.818,16.818,0,0,0-10.4,8.84c.01-.264.02-.525.02-.789a23.65,23.65,0,0,0-31.258-22.4,40.461,40.461,0,0,0-80.461,3.953,25.337,25.337,0,1,0-6.832,50.161v0h.048c.745.066,1.493.1,2.256.1s1.507-.036,2.254-.1h195.332v-.6A17.9,17.9,0,0,0,1078.112,1270.034Z" transform="translate(-839.06 -1199.678)" fill="#75cc96"/>
        <path id="Path_40286" data-name="Path 40286" d="M999.924,1245.007a17.814,17.814,0,0,0-10.295,3.263,30.579,30.579,0,1,0-58.892-6.724,16.857,16.857,0,0,0-10.4,8.84c.01-.26.02-.525.02-.785a23.658,23.658,0,0,0-22.065-23.6v55.313h103.4v-.6a17.9,17.9,0,0,0-1.774-35.706Z" transform="translate(-778.77 -1192.319)" fill="#040505" opacity="0.2"/>
      </g>
    </g>
  </g>
</svg>
