<?xml version="1.0" encoding="utf-8"?>
<!-- Generator: Adobe Illustrator 24.1.2, SVG Export Plug-In . SVG Version: 6.00 Build 0)  -->
<svg version="1.1" id="Слой_1" xmlns="http://www.w3.org/2000/svg" xmlns:xlink="http://www.w3.org/1999/xlink" x="0px" y="0px"
	 width="170px" height="170px" viewBox="0 0 170 170" style="enable-background:new 0 0 170 170;" xml:space="preserve">
<style type="text/css">
	.st0{fill:#EFEFEF;}
	.st1{fill:#D9D9D9;}
</style>
<circle id="Oval" class="st0" cx="85" cy="85" r="85"/>
<path id="Shape" class="st1" d="M85,115.5c-16.9,0-30.5-13.7-30.5-30.6c0-12.3,7.3-23.3,18.6-28.1c15.6-6.5,33.5,0.8,40,16.4
	c6.5,15.5-0.7,33.3-16.2,39.9C93.2,114.7,89.1,115.5,85,115.5z M85,59.5c-14,0-25.4,11.3-25.5,25.4c0,5.9,2,11.6,5.7,16.1
	c0.7-1.6,2.2-2.6,4.8-3.2l0.4-0.1c4-0.9,7.8-1.8,8.7-3.9c0.4-1.2,0.2-2.5-0.5-3.5c-5.6-10.3-3.9-16.1-2.4-18.7
	c0.9-1.4,2.1-2.6,3.6-3.4c1.6-0.8,3.3-1.2,5.1-1.2c1.7,0,3.5,0.4,5,1.1c1.5,0.7,2.7,1.9,3.6,3.3c2.6,4.3,1.8,11-2.3,18.7
	c-0.7,1-0.9,2.3-0.4,3.5c1,2.2,4.8,3,8.8,4l0.2,0.1c2.6,0.6,4.1,1.6,4.8,3.2c8.9-10.9,7.2-26.9-3.6-35.8
	C96.6,61.6,90.9,59.5,85,59.5z"/>
</svg>
