<?xml version="1.0" encoding="utf-8"?>
<!-- Generator: Adobe Illustrator 24.1.2, SVG Export Plug-In . SVG Version: 6.00 Build 0)  -->
<svg version="1.1" id="Слой_1" xmlns="http://www.w3.org/2000/svg" xmlns:xlink="http://www.w3.org/1999/xlink" x="0px" y="0px"
	 width="730.3px" height="243px" viewBox="0 0 730.3 243" enable-background="new 0 0 730.3 243" xml:space="preserve">
<g id="Group_19024" transform="translate(4394.035 3079.478) rotate(180)">
	<path id="Path_49395" fill="#FFFFFF" d="M4082.5,3062c18.8-13.5,32-31,38.8-45.9c6.8-15.1,7.3-27.5,0.8-35.1
		c-6.5-7.7-19-10.1-34-10.2c-16.8,0-33.5,2.8-49.3,8.2c-33.1,10.6-53.4,40-44.6,71.8C4002.7,3082.5,4044.6,3090.3,4082.5,3062z"/>
	<path id="Path_49396" fill="#FFFFFF" d="M4394,2836.5v223.7c-47.7,22.4-107.4,26.6-166.1-14.3c-39.6-27.6-49.8-67.9-100.6-91.4
		c-53.2-24.6-150.7,44.9-279,2.2c-53.3-17.7-128.3-59-184.6-120.2L4394,2836.5z"/>
</g>
</svg>
