<?xml version="1.0" encoding="utf-8"?>
<!-- Generator: Adobe Illustrator 24.1.2, SVG Export Plug-In . SVG Version: 6.00 Build 0)  -->
<svg version="1.1" id="Слой_1" xmlns="http://www.w3.org/2000/svg" xmlns:xlink="http://www.w3.org/1999/xlink" x="0px" y="0px"
	 width="1920px" height="280px" viewBox="0 0 1920 280" enable-background="new 0 0 1920 280" xml:space="preserve">
<rect id="Rectangle_15494" x="1857.2" y="112.6" fill="#4D6882" width="27.9" height="89.3"/>
<path id="Path_50451" fill="#BDD8E6" d="M1579.2,89v41.9h-10.8v-17.3h-45.8v89.2h98.7V89l-14.3-3.7L1579.2,89z"/>
<path id="Path_50452" fill="#7792AA" d="M1621.3,202.9H1607V85.3l14.3,3.7V202.9z"/>
<rect id="Rectangle_15490" x="1558.2" y="113.9" fill="#7792AA" width="10.1" height="17.3"/>
<path id="Path_50453" fill="#367AD1" d="M1635.9,153.7h-33.4l-10.1-15.5h33.4L1635.9,153.7z"/>
<path id="Path_50454" fill="#7AC9EB" d="M1557.7,161.5h-35.2l-10.7-16.3h35.2L1557.7,161.5z"/>
<rect id="Rectangle_15491" x="1522.5" y="160.5" fill="#F2FBFC" width="35.2" height="30.3"/>
<path id="Path_50455" fill="#C8E9F7" d="M1511.8,144.6l-10.7,16.3v30.3h21.3v-30.3L1511.8,144.6z"/>
<rect id="Rectangle_15492" x="1602.5" y="152.5" fill="#F2FBFC" width="33.4" height="38.5"/>
<rect id="Rectangle_15493" x="1885.1" y="100.7" fill="#BDD8E6" width="34.7" height="101.6"/>
<rect id="Rectangle_15495" x="1804.7" y="69.7" fill="#BDD8E6" width="52.5" height="133.9"/>
<rect id="Rectangle_15496" x="1723.7" y="100.7" fill="#BDD8E6" width="12.3" height="101.6"/>
<path id="Path_50456" fill="#F2FBFC" d="M1826.5,125.5l-11.2,19.1v48.2h22.5v-48.2L1826.5,125.5z"/>
<rect id="Rectangle_15497" x="1658.1" y="88.8" fill="#BDD8E6" width="65.6" height="113.9"/>
<path id="Path_50457" fill="#BDD8E6" d="M1736,24.8l34.9-4.6l14.1,4.6v182.7h-49V24.8z"/>
<path id="Path_50458" fill="#7792AA" d="M1785,207.5h-14.1V20.2l14.1,4.6V207.5z"/>
<path id="Path_50459" fill="#2E4354" d="M1734,128.9h27.3l11.8-15.6h-27.3L1734,128.9z"/>
<path id="Path_50460" fill="#2E4354" d="M1874.8,145.6h-37.1l-11.2-19.1h37.1L1874.8,145.6z"/>
<linearGradient id="SVGID_1_" gradientUnits="userSpaceOnUse" x1="1064.0297" y1="399.938" x2="1063.1047" y2="399.938" gradientTransform="matrix(1410.769 0 0 -153.4518 -1499204.5 61574.5273)">
	<stop  offset="0" style="stop-color:#2C595D"/>
	<stop  offset="1" style="stop-color:#D3A09D"/>
</linearGradient>
<path fill="url(#SVGID_1_)" d="M1920,146.5l-0.1-0.2c-30-1.4-67.4,12.4-110.5,12.4c-50.2,0-74.2-15.1-124.3-25.8
	c-42.8-9.1-87.1-8-132.4,1.4c-41.2,8.5-87.3,23.8-128.7,33.8c-42.9,10.3-88,10.3-132,5.6c-44-4.7-75.8-12.2-121.6-12.2
	c-33.1,0-59,3.4-80.5,8.1c-21.2,4.7-41.6,11.6-63,15.9c-43.5,8.6-80.5,21.1-124.4,16.3c-44.9-4.9-82.2,29.4-136.8,16
	c-27.2,0.2-152.6,62-152.6,62h19.1l325.1-0.1H1411l154.8,0.1h127.4L1920,280V146.5z"/>
<rect id="Rectangle_15498" x="1761.8" y="100.9" fill="#F2FBFC" width="32.4" height="92.8"/>
<rect id="Rectangle_15499" x="1794.2" y="100.9" fill="#BDD8E6" width="21.1" height="92.8"/>
<g id="Group_17788" transform="translate(698.382 478.627)">
	<rect id="Rectangle_15500" x="1058.9" y="-289.8" fill="#FFFFFF" width="154.2" height="2.5"/>
</g>
<g id="Group_17789" transform="translate(777.108 468.855)">
	<path id="Path_50464" fill="#C8E9F7" d="M1058.9-268.1h37.9l14.2-21.7h-37.9L1058.9-268.1z"/>
	<rect id="Rectangle_15501" x="1058.9" y="-268.1" fill="#F2FBFC" width="37.9" height="45.2"/>
	<path id="Path_50465" fill="#7792AA" d="M1111-289.8l14.2,21.7v45.2h-28.5v-45.2L1111-289.8z"/>
</g>
<path id="Path_50467" fill="#2E4354" d="M1776.8,194.9c1.6-1.7,2.8-4.9,0.9-7.2c-1.6-2-6.8-1.5-8.6-3.4c-1.6-1.7,0.5-6.2-1.3-9
	c-1.6-2.5-6-1.7-12.6,1.6c-3.5,1.7-5.9,3.6-9.1,2.9c-2.1-0.5-2.1-2.9-4.2-3.9c-3.8-1.9-9.4,3.2-12.6,0.9c-3.2-2.3-0.6-8.3-4-10.7
	c-4-2.9-10.7,1.8-13.5,4.8c-3.7,3.8-5.1,8.3-8.8,11.7c-4.5,4.3-7.3-1.1-12,0.3c-2.6,0.8-4.1,5.2-6.9,4.6c-2.1-0.4-2.3-4.1-3.7-5.3
	c-1.9-1.7-3.1-1.5-5.5-0.4c-2.9,1.3-11.8,8.4-12,13.3L1776.8,194.9z"/>
<path id="Path_50469" fill="#2E4354" d="M1821.6,194.5c0.7-2.4,1-8.1-1.6-9.6c-3.1-1.9-8.6,4-12.7,4.4c-3.7,0.4-5.8-2.4-9.5-1.3
	c-4,1.2-7.6,3.4-10.4,6.5H1821.6z"/>
<rect id="Rectangle_15502" x="1794.2" y="101.3" fill="#F2FBFC" width="21.1" height="2.5"/>
<rect id="Rectangle_15503" x="1839.6" y="69.4" fill="#7792AA" width="17.6" height="46.2"/>
<g id="Group_17790" transform="translate(-360.748 425.84)">
	<path id="Path_50472" fill="#FFFFFF" d="M1889.2-239.9C1889.2-239.9,1889.2-239.9,1889.2-239.9L1889.2-239.9
		C1889.2-239.9,1889.2-239.9,1889.2-239.9z"/>
	<path id="Path_50473" fill="#FFFFFF" d="M2156.5-204.3c-17.2-2-77-8.5-111.9-12.1c-35.3-3.6-86.8-9.5-101.4-11.8
		c-31.1-4.8-51.5-7.8-51.5-12.1c0-4.2,18.7-7.5,24-8.6c11.8-2.6,24-4.7,36.1-6.7c21.8-3.6,58.2-9,80-12.6c9.2-1.5,26.1-4.7,36.4-7.6
		c9.2-2.6,12.4-4.9,12.4-6.8c0-3.2-7.7-4.6-13.2-5.3c-4.3-0.6-14.4-1.5-22.8-1.9c-3.6,0.2-6.6,0.4-10.2,0.7c7.1,0.4,16,1.3,21,1.8
		c5,0.5,18.7,2,18.7,4.4c0,2.8-18.2,6.4-27.1,8.2c-8.9,1.8-23.5,3.9-43.7,6.9c-25.1,3.7-54.5,8.1-62.2,9.3
		c-17.1,2.8-64.9,9.3-64.9,18.3c0,7.6,20,11.7,44.5,16c25.6,4.5,50.9,7.8,78.1,10.8c29.1,3.2,61.9,6.3,100,10.4
		c18.9,2,92.6,8.5,92.9,17.3c0.3,8.2-70.4,16.4-103,20.2c-37,4.3-96.3,9.7-175.5,9.7c-123,0-221.8,5.6,53.2,7.8
		c57.4,0,118.5-4.5,148.9-7.8c3.5-0.4,6.6-0.7,9.2-1.1c32.4-4.1,93.6-15.7,93.6-29.4C2217.9-195.5,2179.2-201.6,2156.5-204.3z
		 M2201.8-185.9C2201.8-186,2201.8-186,2201.8-185.9C2201.8-186,2201.8-186,2201.8-185.9L2201.8-185.9z"/>
</g>
<path id="Path_50466" fill="#2E4354" d="M1919.9,147.8c-11.2,1.9-17.1,24.9-18.7,31.6c-2,8.2-6,35.8-15.1,36.7
	c-5.9,0.6-9.2-6.6-16.8-5.2c-11.5,2.2-12,20.6-19.1,37c-3.1,7.2-10.2,17.2-16.1,16c-6.4-1.3-8.6-8-15.5-8.9
	c-8.2-1.1-20.1,11.7-28.8,23.5h129.9c0.1-0.1,0.1-0.2,0.2-0.3L1919.9,147.8z"/>
<path id="Path_50470" fill="#2E4354" d="M1620.9,277.8c-1.1-6.1-4.8-15.4-17.8-16c-11.3-0.6-31,7.1-38.5,4.6
	c-7.7-2.6-5.8-11.1-13.2-16.1c-6.4-4.3-24.4,2-26.5-1.4c-1.8-3,4.7-9.1,4-13.5c-1.6-11.1-18.2-4.9-25.8-0.9
	c-5,2.6-10.5,6.3-16.4,6.8c-6.2,0.5-11.6-3.1-14.9-4.3c-12.9-5-25.3,2.1-35,7.6c-12.7,7.3-26.6,12.5-42,11.1c-8-0.7-23.8-3-33.5-1.9
	c-18.7,2.3-35.4,16.5-40.8,24.1L1620.9,277.8z"/>
<path id="Path_51980" fill-rule="evenodd" clip-rule="evenodd" fill="#2E4354" d="M868.8,263.5c-13.8,12.7-28.1,10.8-42.8-5.7
	c-22.9-27.2-46.8-27-71.9,0.5c-14.4,16-35.9,19.2-51.1,6.1c-0.3-0.3-0.6-0.5-0.9-0.7c1.7-2.3,3.3-4.6,4.8-6.8
	c17.4,1.5,31.8-0.7,43.2-6.7c-11.4-5.7-25.3-4.3-41.6,4.3c3.2-4.6,6.1-8.9,8.7-13c17.4,1.5,31.9-0.7,43.4-6.7
	c-11.5-5.8-25.5-4.3-42,4.5l0.3-0.4c2.2-3.5,4.3-6.8,6.1-9.9c17-2.5,30.4-7.9,40.1-16.2c-11.9-2.9-24.5,1.2-37.7,12
	c2.6-4.6,4.7-8.7,6.3-12.3c0.2-0.4,0.2-0.8,0.1-1.2c16.9-5,29.7-12.3,38.3-22.1c-13.4-1.2-26.3,5.9-38.9,21.3c0,0-0.1-0.1-0.2-0.1
	c9-17.6,10.3-32.2,3.8-44c-5.5,11.7-7.2,26.3-5,43.7c-0.6,0.1-1.1,0.5-1.4,1c-1.3,3-3,6.4-5,10.1c1.3-20.3-3.3-34.8-13.9-43.6
	c-0.3,13.7,3.9,29.1,12.6,46c-2.3,4.1-5,8.6-8.2,13.5l-0.1,0.1c2.5-21.5-2.4-35.8-14.7-43c0,12.5,4.4,27.6,13.2,45.4
	c-3.3,5-6.9,10.5-11,16.3c1.1-20.3-3.9-34.4-14.8-42.6c-0.2,13.3,4.7,27.7,14.4,43.1c-1.2,1.7-2.4,3.4-3.7,5.2
	c-14.4-10.4-28.5-7.6-42.4,8.1l0,0c-7.2,8.3-18.1,10.1-29.3,3.1c-9.6-5.8-17-3.7-24.2,7h310.5C898.1,256.5,882.4,250.4,868.8,263.5z
	"/>
</svg>
