<?xml version="1.0" encoding="utf-8"?>
<!-- Generator: Adobe Illustrator 24.1.2, SVG Export Plug-In . SVG Version: 6.00 Build 0)  -->
<svg version="1.1" id="Group_19022" xmlns="http://www.w3.org/2000/svg" xmlns:xlink="http://www.w3.org/1999/xlink" x="0px"
	 y="0px" width="4000px" height="565.9px" viewBox="0 0 4000 565.9" enable-background="new 0 0 4000 565.9" xml:space="preserve">
<g>
	<path id="Path_44844" fill="#FFFFFF" d="M2162.8,468.5c5.7,14.2,44.5,16.6,48.2-2.8s-23.7-24.7-36-20.2
		C2164.8,449.1,2158.2,457,2162.8,468.5z"/>
	<path id="Path_44845" fill="#FFFFFF" d="M2848.2,262.4c-27.9-0.2-33.4,25.6-45.4,43.6c-6.1,9-13.9,16.6-23,22.5
		c-11.4,7.4-24.5,10.2-36.8,15.7c-7.7,3.4-12.7,11.1-9.9,19.6c2.3,6.1,7.8,10.3,14.3,10.8c2.4,1.2,5.1,1.8,7.8,1.6
		c25.8-1,51.2-7.4,75.3-16.4c22-8.2,43.2-21.1,53.1-50.2C2891.7,286.1,2876.6,262.6,2848.2,262.4z"/>
	<path id="Path_44846" fill="#FFFFFF" d="M2702.3,344.3c19.5-5.6,40.2-37,18.5-42s-23.9,30.9-24.5,34.7
		C2695.3,343.7,2702.3,344.3,2702.3,344.3z"/>
</g>
<path fill="#FFFFFF" d="M2267.9,59c-26,21.6-67.8,39.1-74.8,65c-7.5,27.6,28.1,53.1,32.5,80.9c3.8,23.8-16,47-42.6,65.6
	c-26.6,18.6-60,33.6-90,50.4c-17.3,9.7-33.6,20.4-47.7,31.9c24.1,8.9,50.1,23.7,71.7,44.1c61.3,57.8-61.5,131.2-83.2,32.3
	c-4.5-20.7-11.9-34.4-20.1-43.8c-13.6,19.1-19.3,39.4-12.6,59.8c8.4,25.7,35.5,48,58.2,70.8c15.4,15.5,29.3,32.6,33.7,49.9H0V0
	h2298.8C2299.1,20.8,2288.6,41.8,2267.9,59z"/>
</svg>
