<?xml version="1.0" encoding="utf-8"?>
<!-- Generator: Adobe Illustrator 24.1.2, SVG Export Plug-In . SVG Version: 6.00 Build 0)  -->
<svg version="1.1" id="Слой_1" xmlns="http://www.w3.org/2000/svg" xmlns:xlink="http://www.w3.org/1999/xlink" x="0px" y="0px"
	 width="48px" height="48px" viewBox="0 0 48 48" enable-background="new 0 0 48 48" xml:space="preserve">
<circle id="Oval" fill="#EFEFEF" cx="24" cy="24" r="24"/>
<path id="Shape" fill="#D9D9D9" d="M24,36c-6.6,0-12-5.4-12-12c0-4.8,2.9-9.2,7.3-11.1c6.1-2.6,13.2,0.3,15.7,6.4
	c2.6,6.1-0.3,13.1-6.4,15.7C27.2,35.7,25.6,36,24,36z M24,14c-5.5,0-10,4.5-10,10c0,2.3,0.8,4.6,2.3,6.3c0.3-0.6,0.9-1,1.9-1.2
	l0.1,0c1.6-0.4,3.1-0.7,3.4-1.6c0.2-0.5,0.1-1-0.2-1.4c-2.2-4.1-1.5-6.3-0.9-7.3c0.3-0.6,0.8-1,1.4-1.3c0.6-0.3,1.3-0.5,2-0.5
	c0.7,0,1.4,0.1,2,0.4c0.6,0.3,1.1,0.8,1.4,1.3c1,1.7,0.7,4.3-0.9,7.4c-0.3,0.4-0.3,0.9-0.2,1.4c0.4,0.8,1.9,1.2,3.5,1.6l0.1,0
	c1,0.2,1.6,0.6,1.9,1.2c3.5-4.3,2.8-10.6-1.4-14.1C28.6,14.8,26.3,14,24,14z"/>
</svg>
