<svg xmlns="http://www.w3.org/2000/svg" width="406.942" height="224.615" viewBox="0 0 406.942 224.615">
  <g id="Group_20611" data-name="Group 20611" transform="translate(-1562.331 -417.19)">
    <g id="Group_19237" data-name="Group 19237" transform="translate(1785.597 482.361) rotate(135)">
      <path id="Path_52451" data-name="Path 52451" d="M316.452,330.771c-.013,0-.018.039-.011.042s.072,0,.069.008h0l.023-.045a.324.324,0,0,1-.077,0C316.449,330.768,316.452,330.771,316.452,330.771Z" transform="translate(-274.022 -273.226)" fill="#365b1e"/>
      <path id="Path_52452" data-name="Path 52452" d="M315.078,334.741c-9.985,8.709-17.39,18.709-24.579,29.453-.354.529-.716,1.112-.077,1.287s.8-.359,1.263-.785a101.339,101.339,0,0,1,23.892-15.977c8.721-4.342,13.654-8.449,16.864-17.8C325.956,330.118,320.055,330.4,315.078,334.741Z" transform="translate(-290.071 -273.349)" fill="#365b1e"/>
      <path id="Path_52453" data-name="Path 52453" d="M356.18,328.118c-2.485-4.487-1.95-9.908-2.86-14.6s-2.773-7.714-6.739-10.164c-3.377-2.086-7.093-3.914-10.7-5.807-2.363-1.24-4.844-2.489-7.582-2.548-.331.3.15.716.291.922,3.283,4.75,8.846,13.413,11.65,17.437,2.551,3.663,13.043,13.375,14.147,14.657h0c-.113,1.519,1.272,1.506-.135,2.588s-3.435,2.542-4.791,3.724c-.724.631-1.768.912-2.181-.016-.962-2.157-1.116-4.673-1.781-7.009-1.38-4.857-2.8-8.468-7.939-10.231a92.053,92.053,0,0,1-16.312-7.173c-2.263-1.3-4.075-2.855-6.589-3.616,1.1,5.745,2.76,9.985,7.12,13.983a75.835,75.835,0,0,0,12.5,8.785c4.15,2.444,7.6,4.646,12.023,6.211h0c.063.183.294,1,.179,1.1-2.252,1.946-3.991,3.883-6.932,4.583-3.335-1.827-5.357-4.368-7.755-7.336-3.077-3.808-5.5-7.459-10.556-9.055-7.043-2.226-14.758-4.874-22.2-5.8a4.016,4.016,0,0,0,1.237,1.581c4.918,3.663,9.153,7.789,14.275,11.451s10.366,7.477,16.653,9.377c1.705,1.1,6.218,1.245,7.678,1.506h0c.68,3.328-4.712,3.9-6.644,5.759a.617.617,0,0,1-.64.143,42.66,42.66,0,0,1-5.859-4.112c-8.849-7.258-15.9-10.619-27.1-10.767-.761-.01-1.12-.1-1.226.6s.664.817,1.218,1.2c1.134.777,1.762,1.039,3.082,1.951,9.662,6.673,15.315,12.676,27.977,12.377-.492.928-1.036,1.821-1.559,2.728,1.43-.035,2.238-.286,2.468,1.417h0c-4.445,13.724-3.911,14.044-1.916,27.827,2-2.616,3.809-4.527,6-7.128,3.486-4.147,4.112-7.765,2.522-13.2-.993-3.388-2.284-7.328-3.39-10.786a6.2,6.2,0,0,1,5.569-5.349,42.413,42.413,0,0,0-.6,5.979c-.2,5.276.843,10.8,1.6,15.849,1.067,7.117,3.013,11.451,8.4,16.122a5.023,5.023,0,0,0,.607-2.107c.216-4.628.706-9.81.549-14.3-.072-2.077-.166-6.332-.542-7.585-.816-2.7-8.183-14.99-8.5-15.767h0c4.083-.452,5.777-5.066,8.946-7.318a27.859,27.859,0,0,0-.407,16.429c2.442,8.471,5.65,15.8,8.331,24,.5,1.535.7,3,1.844,4.252a11.263,11.263,0,0,0,.531-1.321,87.1,87.1,0,0,0,1.979-17.1c.1-5.3-1.419-9.377-4.245-13.968-2.436-3.956-6.013-7.421-6.359-12.321-.209-2.962,2.379-3.293,4.067-4.956.224,1.8-.095,4.38.643,5.848h0c.409.811.441,2.923.931,4.031,3.674,8.3,8.082,16.8,12.43,24.82,1.9,3.494,3.676,6.551,5.609,9.94a88.6,88.6,0,0,0-2.379-21.011,32.2,32.2,0,0,0-4.964-10.973c-2.978-4.3-6.563-7.952-9.449-12.358-.376-.574-1.432-1.139-.642-1.926s1.548-.169,2.23.434a101.369,101.369,0,0,0,10.548,8.46c3.465,2.347,6.644,4.427,11.063,4.63-4.047-6.042-6.494-11.922-13.9-14.243-2.18-.991-4.519-1.092-6.856-1.4,2.358-1.5,4.939-3.319,7.342-4.611,6.433-3.455,12.733-6.657,19.256-9.8a71.411,71.411,0,0,0,11.835-5.465c-4.451,1.03-8.293,2.978-12.49,4.776a174.567,174.567,0,0,0-24.442,12.652c-.726.455-1.649,1.546-1.718-.315.865-3.047,2.394-5.106,3.06-8.421a16.192,16.192,0,0,0-5.772-15.678c.085,6.111-.064,12.331-.446,18.434-.137,2.177-.211,5.051.846,6.765s-.693,2.788-1.226,3.04h0C356.958,328.379,356.379,328.479,356.18,328.118Z" transform="translate(-285.61 -294.999)" fill="#365b1e"/>
    </g>
    <g id="Group_19238" data-name="Group 19238" transform="matrix(-0.259, 0.966, -0.966, -0.259, 1703.149, 444.8)">
      <path id="Path_52448" data-name="Path 52448" d="M347.017,358.666l-.019.048.072,0h0l.032-.052c-.029,0-.058,0-.085,0Z" transform="translate(-310.849 -289.665)" fill="#78aa57"/>
      <path id="Path_52449" data-name="Path 52449" d="M343.112,363.3c-10.929,6.065-14.729,16.88-18.318,27.8-.175.537-.666,1.467.389,1.84.814.286,1.009-.51,1.334-.941,4.979-6.608,11.924-10.73,18.92-14.7,7.529-4.271,12.377-10.579,15.239-18.59C354.331,358.351,348.562,360.277,343.112,363.3Z" transform="translate(-324.527 -289.662)" fill="#78aa57"/>
      <path id="Path_52450" data-name="Path 52450" d="M391.7,354.6c-4.524-5.064-6.242-11.51-8.679-17.6-2.365-5.909-5.384-11.161-11.821-13.675a124.993,124.993,0,0,0-16.695-5.572c-3.734-.877-7.49-2.672-11.505-1.689-.251.785.333.909.663,1.216,7.6,7.088,15.162,14.222,22.811,21.262,6.958,6.4,13.571,13.328,23.011,16.228h0c1.335.809,2.384,1.525.41,2.946a64.629,64.629,0,0,0-5.669,4.763,1.857,1.857,0,0,1-2.806.151c-1.295-2.7-2.537-5.421-3.893-8.085-2.825-5.542-6.494-10.347-13.106-11.274-7.3-1.022-14.328-2.994-21.432-4.8-3.089-.787-6.053-2.548-9.568-2.234,5.08,11.325,8.2,12.573,14.678,15.556,5.423,2.5,11.145,4.353,16.775,6.382,5.191,1.871,10.178,4.315,15.593,5.553h0c.153.454.552,1.208.421,1.313-2.5,2.035-4.236,5.124-7.757,5.78-3.9-1.469-6.81-4.31-9.922-6.933-3.991-3.365-7.739-7.334-13.716-6.925-8.33.568-16.547,1.631-24.558,4.913a4.133,4.133,0,0,0,2.086,1.395c6.063,1.575,12.067,3.423,18.183,4.747,6.2,1.343,12.139,3.809,18.542,4.228,2.884,1.316,6.016-.8,8.893.639h0c-2.706,2.135-5.519,4.157-7.445,7.107l-.7.253c-2.122-1.084-4.35-2-6.349-3.283-10.284-6.578-20.052-4.776-29.638,1.567-.653.431-1.322.729-1.168,1.556.195,1.044,1.12.577,1.761.642,1.319.129,2.638.273,3.962.333,9.683.426,19.306,3.061,29.262.735l-1.8,2.989c1.028-.024,2.51-.941,2.4,1.269h0c-3.948,10.321-10.352,19.925-10.006,32.648,3.534-3.547,6.274-6.2,8.906-8.962,4.191-4.395,7.077-9.316,6.678-15.746a74.766,74.766,0,0,0-1.885-11.777c.405-2.989,3.977-6.565,6.4-6.4-.335,2.252-.724,4.5-.993,6.761-.713,5.979-1.041,12.026-2.133,17.935-1.539,8.331-1.364,16.063,5.162,22.554a6.658,6.658,0,0,0,1.276-2.867,139.282,139.282,0,0,1,4.836-19.175c.917-2.915,2.271-5.716,2-9.073-.584-7.245-4.213-12.927-8.429-18.419h0c2.889-3.642,6.1-6.9,10.4-8.9-2.048,6.536-1.457,13.159-.467,19.743q2.4,15.974,5.146,31.9c.338,1.985,0,4.234,1.61,6.251a15.968,15.968,0,0,0,1.107-1.742,131.2,131.2,0,0,0,7.329-22.507c1.725-6.908.227-12.678-3.547-18.437-3.253-4.966-8-9.084-9.155-15.31-.719-3.759,2.77-4.184,4.546-6.153,1.287,2.447-.37,5.424,2.091,7.229h0a36.42,36.42,0,0,0,1.565,4.8c5.408,11.24,10.141,22.774,15.107,34.207,2.164,4.982,4.469,9.9,6.71,14.85a112.038,112.038,0,0,0-.314-30.145,31.591,31.591,0,0,0-6.375-15.086c-4.379-5.738-9.81-10.44-14.744-15.633-.643-.677-2.387-1.2-1.456-2.413.867-1.134,2.16-.3,3.227.388,5.434,3.484,10.846,7.007,16.356,10.366,4.855,2.958,9.593,6.346,16.519,6.113-6.354-8.188-10.17-18.22-22.172-18.921-3.013-1.3-6.253-.647-10.2-.848,3.563-2.712,6.441-5,9.417-7.146,7.963-5.748,15.969-11.436,23.958-17.149a81.9,81.9,0,0,0,15.08-10.469c-5.943,2.284-10.944,6.1-16.122,9.612-10.738,6.567-20.71,14.219-30.761,21.757-.925.693-1.824,2.717-2.612-.082.682-3.772,1.712-7.464,1.935-11.338.389-6.769-6.247-17.765-12.993-20.773,1.6,8.682,3.221,17.174,4.709,25.692a19.121,19.121,0,0,0,3.427,8.232c1.591,2.114.751,2.806-.88,3.731h0Q392.436,354.962,391.7,354.6Z" transform="translate(-324.277 -315.772)" fill="#78aa57"/>
    </g>
    <path id="Path_52575" data-name="Path 52575" d="M319.161,309.13A111.438,111.438,0,0,0,323.7,335.4a96.679,96.679,0,0,0,4.705,12.393c.59,1.3,1.217,2.605,1.86,3.881h37.552a.457.457,0,0,1,.161-.028c.035,0,.071-.014.108-.014.089-.014.2-.028.339-.042a1.069,1.069,0,0,0,.2-.014c.142,0,.285-.014.446-.028.2-.013.429-.027.679-.027.5-.028,1.127-.042,1.825-.07.5-.014,1.056-.028,1.646-.042h.071c.375,0,.752-.014,1.162-.027.394-.015.806-.015,1.252-.028q1.289-.02,2.791-.042c1.5-.028,3.149-.042,4.938-.069,1.556-.015,3.2-.028,4.957-.042,4.436-.042,9.481-.07,15.081-.112h.017c1.324,0,2.683,0,4.061-.014.787-.014,1.593-.014,2.4-.014,1.395,0,2.826,0,4.275-.015,58.681-.207,160.261-.027,229.12-.014-5.188-7.569-9.875-15.817-7.6-26.615,7.442-35.236,76.051-35.293,88.306-66.4.215-.568.429-1.137.59-1.719,3.9-12.337-1.449-26.989-12.236-41.614a143.295,143.295,0,0,0-14.9-16.994c-25.69-25.312-63.8-47.547-92.742-53.4h-.018c-10.377-2.094-19.572-2.066-26.586.678-29.3,11.464-3.846,59-41.219,80.081-46.156,26.033-115.517-29.955-171.424-5.74C330.647,234.415,317.176,273.726,319.161,309.13Z" transform="translate(1243.36 290.132)" fill="#ffeceb"/>
  </g>
</svg>
