<?xml version="1.0" encoding="utf-8"?>
<!-- Generator: Adobe Illustrator 24.1.2, SVG Export Plug-In . SVG Version: 6.00 Build 0)  -->
<svg version="1.1" id="Слой_1" xmlns="http://www.w3.org/2000/svg" xmlns:xlink="http://www.w3.org/1999/xlink" x="0px" y="0px"
	 width="282.4px" height="232.5px" viewBox="0 0 282.4 232.5" style="enable-background:new 0 0 282.4 232.5;" xml:space="preserve"
	>
<style type="text/css">
	.st0{fill:#2E4354;}
	.st1{fill-rule:evenodd;clip-rule:evenodd;fill:#4D6882;}
	.st2{fill:#E4B62C;}
	.st3{fill:#4D6882;}
	.st4{fill-rule:evenodd;clip-rule:evenodd;fill:#262E37;}
</style>
<g id="Mask_Group_58" transform="translate(0 -713)">
	<g id="Group_19240" transform="matrix(0.966, -0.259, 0.259, 0.966, -56.733, 818.178)">
		<path id="Rectangle_16034" class="st0" d="M67.1-24H309c1.4,0,2.5,1.1,2.5,2.5v168.6c0,1.4-1.1,2.5-2.5,2.5H67.1
			c-1.4,0-2.5-1.1-2.5-2.5V-21.5C64.6-22.9,65.7-24,67.1-24z"/>
		<path id="Path_51781" class="st1" d="M301.9-24H74.2c-5.3,0-9.6,4.3-9.6,9.6v28.9c0.1,26.6,21.6,48.2,48.2,48.2h150.5
			c26.6-0.1,48.2-21.6,48.2-48.2v-28.9C311.6-19.7,307.2-24,301.9-24z"/>
		
			<rect id="Rectangle_16035" x="175" y="46" transform="matrix(-1 2.533096e-06 -2.533096e-06 -1 376.1473 125.6746)" class="st2" width="26.1" height="33.8"/>
		
			<rect id="Rectangle_16036" x="175" y="-24" transform="matrix(-1 2.533096e-06 -2.533096e-06 -1 376.1472 21.9546)" class="st0" width="26.1" height="70"/>
		
			<rect id="Rectangle_16037" x="175" y="79.7" transform="matrix(-1 2.533096e-06 -2.533096e-06 -1 376.1495 229.3976)" class="st3" width="26.1" height="69.9"/>
		<path id="Path_51782" class="st4" d="M145.6-24v-8.7c0-10,8.1-18.1,18.1-18.1h50.7c10,0,18.1,8.1,18.1,18.1v8.7h-9.6v-8.4
			c0-4.8-3.9-8.7-8.7-8.7H164c-4.8,0-8.7,3.9-8.7,8.7v8.4L145.6-24z"/>
		<path id="Path_51783" class="st4" d="M257.5-28.8h28.9c1.3,0,2.4,1.1,2.4,2.4v2.4h-33.8v-2.4C255.1-27.7,256.2-28.8,257.5-28.8z"
			/>
		<path id="Path_51784" class="st4" d="M89.7-28.8h28.9c1.3,0,2.4,1.1,2.4,2.4v2.4H87.2v-2.4C87.3-27.7,88.3-28.8,89.7-28.8z"/>
	</g>
</g>
</svg>
