<?xml version="1.0" encoding="utf-8"?>
<!-- Generator: Adobe Illustrator 24.1.2, SVG Export Plug-In . SVG Version: 6.00 Build 0)  -->
<svg version="1.1" id="Слой_1" xmlns="http://www.w3.org/2000/svg" xmlns:xlink="http://www.w3.org/1999/xlink" x="0px" y="0px"
	 width="1920px" height="468.6px" viewBox="0 0 1920 468.6" style="enable-background:new 0 0 1920 468.6;" xml:space="preserve">
<style type="text/css">
	.st0{fill:url(#Path_48521_1_);}
	.st1{fill:url(#Path_48522_1_);}
	.st2{display:none;fill:url(#Path_48523_1_);}
	.st3{display:none;}
	.st4{display:inline;opacity:0.75;fill:url(#Path_45153_1_);enable-background:new    ;}
	.st5{display:inline;fill:url(#Path_45154_1_);}
	.st6{display:inline;opacity:0.75;fill:#EFEFEF;enable-background:new    ;}
	.st7{display:inline;fill:url(#Path_45156_1_);}
	.st8{display:inline;fill:url(#Path_45157_1_);}
	.st9{display:inline;fill:url(#Path_45158_1_);}
	.st10{display:inline;fill:none;stroke:#716C61;stroke-width:1.385;stroke-linecap:round;stroke-miterlimit:4.0001;}
	.st11{display:inline;opacity:0.35;enable-background:new    ;}
	.st12{display:inline;fill:#716C61;}
	.st13{display:inline;fill:none;stroke:#716C61;stroke-width:2.2471;stroke-linecap:round;stroke-miterlimit:4.0001;}
	.st14{display:inline;fill:#A3C093;}
	.st15{display:inline;fill:#BEDAAE;}
	.st16{display:inline;fill:#B3B3B3;}
	.st17{display:inline;fill:#F2F2F2;}
	.st18{display:inline;fill:#DAE5EB;}
	.st19{display:inline;fill:url(#Path_45186_1_);}
	.st20{display:inline;fill:none;stroke:#716C61;stroke-width:0.462;stroke-miterlimit:4.0001;}
	.st21{display:inline;opacity:0.25;fill:#330080;enable-background:new    ;}
	.st22{display:inline;opacity:0.25;fill:#D4AA00;enable-background:new    ;}
	.st23{display:inline;opacity:0.25;fill:#FAE17A;enable-background:new    ;}
	.st24{display:inline;opacity:0.25;fill:#5F8DD3;enable-background:new    ;}
	.st25{display:inline;opacity:0.25;fill:#FFCC00;enable-background:new    ;}
	.st26{display:inline;opacity:0.25;fill:#FFF6D5;enable-background:new    ;}
	.st27{display:inline;opacity:0.25;fill:#2CA02C;enable-background:new    ;}
	.st28{display:inline;opacity:0.75;fill:#716C61;enable-background:new    ;}
</style>
<g id="Group_20602" transform="translate(0 -1752.428)">
	<g id="Group_19010" transform="translate(1266 1785)">
		
			<linearGradient id="Path_48521_1_" gradientUnits="userSpaceOnUse" x1="-559.0678" y1="453.2307" x2="-555.4998" y2="449.5087" gradientTransform="matrix(335.6059 0 0 -249.7639 186040.875 113171.4219)">
			<stop  offset="0" style="stop-color:#FFECEB"/>
			<stop  offset="1" style="stop-color:#FFECEB"/>
		</linearGradient>
		<path id="Path_48521" class="st0" d="M-1266,303c0,0,56.8-19.8,79.1-58s210.8-121.7,193.3,23.1s84.7,96.4,59.1,167.9l-331.5-0.2
			V303z"/>
		
			<linearGradient id="Path_48522_1_" gradientUnits="userSpaceOnUse" x1="-557.4116" y1="451.0766" x2="-557.4116" y2="451.2136" gradientTransform="matrix(371.429 0 0 -216.1083 207507.1094 97978.3516)">
			<stop  offset="0" style="stop-color:#0E755D"/>
			<stop  offset="1" style="stop-color:#0E6C75"/>
		</linearGradient>
		<path id="Path_48522" class="st1" d="M282.6,436v-25.6c0-51.7,81.5-86.9,154.7-66.5c1.1,0.3,2.2,0.6,3.3,0.9
			c106.5,31.3,80.7-125.3,164.5-125H654V436H282.6z"/>
		
			<linearGradient id="Path_48523_1_" gradientUnits="userSpaceOnUse" x1="-564.033" y1="457.8084" x2="-548.201" y2="453.1234" gradientTransform="matrix(3.645582e-15 -59.5369 -209.4543 -1.282538e-14 95708.1172 -33090.5313)">
			<stop  offset="0" style="stop-color:#FFECEB"/>
			<stop  offset="1" style="stop-color:#FFECEB"/>
		</linearGradient>
		<path id="Path_48523" class="st2" d="M443.5-32.6c11.6,101.5-74.9,44.9-94.6,33.9c-18.9-10.6-68.2,25-94.5,8.3s-18-42.2-18-42.2
			L443.5-32.6z"/>
	</g>
	<g id="newspaper-154444" transform="matrix(0.899, -0.438, 0.438, 0.899, -370.39, 1198.98)" class="st3">
		
			<linearGradient id="Path_45153_1_" gradientUnits="userSpaceOnUse" x1="514.7002" y1="1406.1487" x2="514.7042" y2="1407.1107" gradientTransform="matrix(254.3271 105.9942 123.9102 -217.5544 -304976.7813 252430.3594)">
			<stop  offset="0" style="stop-color:#000000"/>
			<stop  offset="1" style="stop-color:#000000;stop-opacity:0"/>
		</linearGradient>
		<path id="Path_45153" class="st4" d="M20.8,832.7v242h282.9l0-83.8c-0.2-12.9-1.6-25.7-4.3-38.2c0.1-37.7,0.6-75.6,1.3-115.7
			c-22.4-1.1-49.1-1.5-75.5-1.4c-2.2-1.1-4.4-2-6.7-2.9L20.8,832.7z"/>
		
			<linearGradient id="Path_45154_1_" gradientUnits="userSpaceOnUse" x1="515.1216" y1="1408.6083" x2="512.8046" y2="1407.2203" gradientTransform="matrix(174.9032 101.7258 85.2142 -208.7935 -209442.2031 242313.3438)">
			<stop  offset="0" style="stop-color:#F5F5F2"/>
			<stop  offset="0.104" style="stop-color:#F6F6F4"/>
			<stop  offset="0.884" style="stop-color:#F6F6F4"/>
			<stop  offset="0.916" style="stop-color:#FCFBF7"/>
			<stop  offset="1" style="stop-color:#D7D7CF"/>
		</linearGradient>
		<path id="Path_45154" class="st5" d="M300.6,836.9c-1.3,80.3-2,152-0.4,230.8l-166.6-25l-27.6-204.9
			C106.1,837.8,226.9,833.3,300.6,836.9L300.6,836.9z"/>
		<path id="Path_45155" class="st6" d="M232.9,848.7l56.1,0.7l-1.2,93.9l-56.1-0.7L232.9,848.7z"/>
		
			<linearGradient id="Path_45156_1_" gradientUnits="userSpaceOnUse" x1="514.2629" y1="1407.0415" x2="514.2679" y2="1406.0366" gradientTransform="matrix(254.3271 105.996 123.9102 -217.558 -304976.6875 252434.5469)">
			<stop  offset="0" style="stop-color:#F5F5F2"/>
			<stop  offset="0.104" style="stop-color:#F6F6F4"/>
			<stop  offset="0.884" style="stop-color:#F6F6F4"/>
			<stop  offset="0.916" style="stop-color:#FCFBF7"/>
			<stop  offset="1" style="stop-color:#D7D7CF"/>
		</linearGradient>
		<path id="Path_45156" class="st7" d="M20.8,832.7v242h282.9v-83.2c-4.9-81.4-51.4-136.6-85.3-158.8L20.8,832.7z"/>
		
			<linearGradient id="Path_45157_1_" gradientUnits="userSpaceOnUse" x1="508.5987" y1="1409.4244" x2="508.6117" y2="1409.1934" gradientTransform="matrix(95.4432 75.1218 46.5007 -154.1884 -113858.3359 179235.375)">
			<stop  offset="0" style="stop-color:#E5E5E0"/>
			<stop  offset="1" style="stop-color:#FFFFFF;stop-opacity:0"/>
		</linearGradient>
		<path id="Path_45157" class="st8" d="M197.5,832.7l103.7,171.5l2.5-1.5v-11.2c-0.9-15-3.3-29.9-7.2-44.5l-61.2-101.2
			c-5.3-4.8-11-9.2-16.9-13.1L197.5,832.7L197.5,832.7z"/>
		
			<radialGradient id="Path_45158_1_" cx="511.623" cy="1405.5189" r="0.521" gradientTransform="matrix(103.3694 71.2755 73.5641 -95.216 -156149.2344 98174.4063)" gradientUnits="userSpaceOnUse">
			<stop  offset="0" style="stop-color:#DCDCD5"/>
			<stop  offset="1" style="stop-color:#FFFFFF;stop-opacity:0"/>
		</radialGradient>
		<path id="Path_45158" class="st9" d="M222.5,835.5c-16.8,5.7-29.5,19.8-32.9,39.6c-5.7,33.7,17.6,71,51.9,83.4
			c21.3,7.7,41.9,4,55.8-7.9C283.4,894.4,249.8,854.9,222.5,835.5L222.5,835.5z"/>
		<path id="Path_45159" class="st10" d="M235.3,904.1h38.4"/>
		<path id="Path_45161" class="st11" d="M224.9,859.8h20.2v31.8h-20.2V859.8z"/>
		<path id="Path_45162" class="st12" d="M33.5,895.8h224.8v4.3H33.5V895.8z"/>
		<path id="Path_45163" class="st12" d="M34.5,890.9v-2c0.9-0.1,1.7-0.3,2.5-0.7c0.5-0.3,0.7-0.6,0.7-0.8v-22.8
			c-0.5-0.5-1-0.9-1.6-1.2c-0.5-0.3-1.1-0.5-1.6-0.6v-2h7.2c0.2,0,0.4,0,0.6,0.1c0.2,0.1,0.3,0.1,0.5,0.3c0.2,0.2,0.4,0.4,0.5,0.6
			l0.7,1l14.2,19.7v-18.1c0-0.1-0.1-0.2-0.1-0.3c-0.1-0.2-0.3-0.3-0.5-0.4c-0.3-0.2-0.6-0.3-1-0.4c-0.5-0.1-1-0.3-1.6-0.3v-2h10.2v2
			c-0.9,0.1-1.7,0.3-2.5,0.7c-0.5,0.3-0.8,0.6-0.8,0.8v27.3c-0.8-0.1-1.6-0.2-2.4-0.4c-0.6-0.2-1.3-0.4-1.9-0.7
			c-0.5-0.2-1-0.5-1.4-0.9c-0.4-0.3-0.7-0.6-1-1l-13.8-19.1v17.9c0,0.1,0.1,0.2,0.2,0.3c0.1,0.2,0.3,0.3,0.5,0.4
			c0.3,0.2,0.6,0.3,1,0.4c0.5,0.1,1,0.3,1.5,0.3v2L34.5,890.9z"/>
		<path id="Path_45164" class="st12" d="M91.2,883.2c-0.1,0.7-0.1,1.4-0.2,2.2c-0.1,0.8-0.2,1.6-0.3,2.3c-0.1,0.7-0.2,1.4-0.3,2
			c-0.1,0.6-0.2,1-0.2,1.2H67v-2c0.8-0.1,1.6-0.4,2.4-0.7c0.5-0.3,0.8-0.5,0.8-0.7v-23.1c0-0.2-0.3-0.4-0.8-0.7
			c-0.8-0.4-1.6-0.6-2.5-0.8v-2h21.6l1,0.8c0,0.4-0.1,1-0.1,1.6s-0.1,1.3-0.2,2c-0.1,0.7-0.2,1.4-0.3,2c-0.1,0.5-0.2,0.9-0.3,1.4h-2
			c0-1.2-0.2-2.4-0.6-3.5c-0.3-0.8-0.8-1.3-1.4-1.3h-7.8v9.4h9.4l0.9,0.9c-0.1,0.2-0.3,0.5-0.5,0.8c-0.2,0.3-0.4,0.6-0.6,0.9
			c-0.2,0.3-0.4,0.6-0.6,0.8c-0.2,0.2-0.3,0.4-0.6,0.6c-0.2-0.2-0.5-0.4-0.8-0.6c-0.3-0.2-0.6-0.3-1-0.4c-0.4-0.1-0.8-0.2-1.3-0.2
			c-0.5,0-1.1-0.1-1.7-0.1h-3.4v10.2c0,0.2,0.1,0.4,0.2,0.6c0.2,0.2,0.4,0.4,0.7,0.5c0.5,0.2,1,0.3,1.5,0.3c0.8,0.1,1.7,0.1,2.5,0.1
			h2.1c0.6,0,1.3-0.1,1.9-0.3c0.5-0.2,1-0.5,1.4-0.9c0.4-0.5,0.8-1,1.1-1.6c0.4-0.8,0.7-1.6,1-2.4L91.2,883.2z"/>
		<path id="Path_45165" class="st12" d="M133.6,862.9c-0.7,0.1-1.3,0.3-1.7,0.4c-0.4,0.1-0.7,0.2-1.1,0.4c-0.2,0.1-0.4,0.2-0.6,0.3
			c-0.1,0.1-0.2,0.2-0.2,0.4l-5.5,25.1c-0.1,0.3-0.3,0.6-0.5,0.9c-0.3,0.3-0.6,0.5-1,0.6c-0.4,0.2-0.7,0.3-1.1,0.4
			c-0.4,0.1-0.7,0.2-0.9,0.2l-8.2-21l-6.8,18.9c-0.1,0.3-0.3,0.6-0.6,0.9c-0.3,0.2-0.6,0.4-1,0.6c-0.4,0.2-0.8,0.3-1.2,0.4
			c-0.4,0.1-0.8,0.2-1.1,0.3l-6.2-27.1c-0.1-0.4-0.4-0.8-0.9-1c-0.8-0.3-1.6-0.6-2.4-0.7v-2h12.1v2c-0.6,0.1-1.2,0.2-1.8,0.3
			c-0.3,0.1-0.6,0.2-0.9,0.4c-0.2,0.1-0.3,0.3-0.3,0.5c0,0.2,0,0.3,0,0.5l3.9,16.1l6.7-19.7h2.7l7.8,19.8l3.6-16.3
			c0-0.2-0.1-0.4-0.2-0.5c-0.2-0.2-0.5-0.3-0.8-0.4c-0.4-0.1-0.8-0.2-1.2-0.3l-1.5-0.3v-2h10.8L133.6,862.9z"/>
		<path id="Path_45166" class="st12" d="M157.3,881.9c0,0.7-0.1,1.5-0.3,2.2c-0.2,0.8-0.6,1.5-1,2.2c-0.5,0.8-1,1.4-1.7,2
			c-0.7,0.7-1.5,1.2-2.4,1.7c-1,0.5-2,0.9-3.1,1.1c-1.2,0.3-2.5,0.4-3.8,0.4c-0.7,0-1.4-0.1-2-0.2c-0.8-0.1-1.6-0.3-2.4-0.5
			c-0.8-0.2-1.6-0.4-2.4-0.7c-0.7-0.2-1.4-0.6-2-1c-0.1,0-0.1-0.2-0.2-0.5c-0.1-0.4-0.1-0.7-0.1-1.1c0-0.4,0-0.9,0-1.5
			c0-0.6,0-1.1,0.1-1.7c0-0.6,0.1-1.1,0.2-1.7c0.1-0.5,0.2-1,0.3-1.5l1.9,0.1c0.4,0.9,0.8,1.8,1.3,2.6c0.5,0.8,1.1,1.5,1.7,2.1
			c0.6,0.6,1.3,1,2.1,1.4c0.7,0.3,1.5,0.5,2.3,0.5c0.7,0,1.4-0.1,2-0.3c0.6-0.2,1.2-0.4,1.7-0.8c0.5-0.4,0.9-0.8,1.2-1.4
			c0.3-0.6,0.4-1.3,0.4-2c0-0.9-0.2-1.7-0.6-2.5c-0.4-0.7-1-1.4-1.7-1.9c-0.8-0.6-1.6-1.1-2.4-1.5c-0.9-0.4-1.8-0.9-2.8-1.3
			c-0.9-0.4-1.9-0.9-2.8-1.4c-0.9-0.5-1.7-1-2.4-1.7c-0.7-0.6-1.3-1.4-1.7-2.2c-0.4-0.9-0.7-2-0.6-3c0-0.6,0.1-1.1,0.3-1.6
			c0.2-0.6,0.5-1.2,0.9-1.8c0.4-0.6,1-1.2,1.5-1.7c0.7-0.6,1.4-1.1,2.2-1.5c0.9-0.4,1.9-0.8,2.9-1c1.2-0.3,2.4-0.4,3.6-0.4
			c0.9,0,1.8,0.1,2.6,0.2c0.8,0.1,1.6,0.3,2.4,0.5c0.7,0.2,1.3,0.4,2,0.7c0.5,0.2,0.9,0.5,1.3,0.9c0.1,0.1,0.1,0.2,0.1,0.5
			c-0.1,0.3-0.1,0.6-0.2,0.9c-0.1,0.3-0.3,0.7-0.4,1.1c-0.2,0.4-0.3,0.8-0.5,1.1c-0.2,0.4-0.4,0.7-0.5,1c-0.1,0.2-0.3,0.4-0.5,0.6
			l-1.8-0.1c-0.3-0.7-0.7-1.4-1.1-2c-0.4-0.5-0.9-1-1.4-1.3c-0.5-0.3-1-0.6-1.5-0.7c-0.5-0.1-1-0.2-1.4-0.2c-0.7,0-1.3,0.1-2,0.3
			c-0.5,0.2-0.9,0.4-1.3,0.8c-0.3,0.3-0.6,0.7-0.8,1.1c-0.2,0.4-0.2,0.9-0.2,1.3c0,0.7,0.2,1.4,0.7,2c0.5,0.6,1.1,1.2,1.7,1.6
			c0.8,0.5,1.6,1,2.4,1.4l2.8,1.4c1,0.5,1.9,1,2.8,1.5c0.9,0.5,1.7,1.2,2.4,1.9c0.7,0.7,1.3,1.5,1.7,2.4
			C157,879.8,157.3,880.8,157.3,881.9L157.3,881.9z"/>
		<path id="Path_45171" class="st13" d="M102.2,1001.7h82.7"/>
		<path id="Path_45172" class="st14" d="M100.6,916.5h123.4v81H100.6V916.5z"/>
		<path id="Path_45173" class="st15" d="M100.6,916.5h123.4v53.3c0,0-25.3,5-32.9,2.7s-30.9,17.7-41.5,14.2s-12.7-14.9-24.6-15.7
			s-24.4,11-24.4,11V916.5z"/>
		<path id="Path_45174" class="st16" d="M100.6,916.5h123.4v44c0,0-17.6-13.5-27.9-13.6c-14.3,0-24.4,16.6-38.6,18.5
			c-13.2,1.8-26.1-7-39.4-7.3c-5.9-0.1-17.5,2.4-17.5,2.4L100.6,916.5z"/>
		<path id="Path_45175" class="st17" d="M100.6,916.5h123.4v31.8c0,0-1.3-11.8-5.9-13.8c-7.3-3.2-15.3,4.9-22.7,7.9
			c-6.3,2.5-11.7,7.9-18.5,8.4c-6.3,0.5-12.2-7.1-18.2-5.2c-4.2,1.3-4.1,8.7-8.2,10.2c-7.6,2.7-16-2.6-23.7-5
			c-7.2-2.3-13.4-9.7-20.9-8.8c-2.2,0.3-5.4,3.9-5.4,3.9L100.6,916.5z"/>
		<path id="Path_45176" class="st18" d="M100.6,916.5h123.4v26.9c0,0-1.8-10-5.9-11.4c-7.9-2.7-14.9,7.3-22.7,10.3
			c-6,2.3-12,6.2-18.5,6c-6.6-0.3-11.8-9.2-18.2-7.6c-4.2,1.1-4.3,8.3-8.2,10.2c-7.1,3.4-16,1.8-23.7-0.2
			c-7.7-2-20.9-11.3-20.9-11.3l-5.4,1.5L100.6,916.5z"/>
		<path id="Path_45177" class="st10" d="M36.6,904.1h38.4"/>
		<path id="Path_45213" class="st10" d="M49.8,918.7h38.4"/>
		<path id="Path_45250" class="st10" d="M251.6,918.7h32.7"/>
		<path id="Path_45214" class="st10" d="M49.8,925.3h38.4"/>
		<path id="Path_45249" class="st10" d="M251.6,925.3H290"/>
		<path id="Path_45215" class="st10" d="M49.8,931.8h38.4"/>
		<path id="Path_45248" class="st10" d="M251.6,931.8H290"/>
		<path id="Path_45216" class="st10" d="M31.3,939.8h56.9"/>
		<path id="Path_45247" class="st10" d="M233.1,939.8H290"/>
		<path id="Path_45217" class="st10" d="M31.3,947.7h56.9"/>
		<path id="Path_45246" class="st10" d="M233.1,947.7H290"/>
		<path id="Path_45218" class="st10" d="M31.3,955.6h56.9"/>
		<path id="Path_45245" class="st10" d="M233.1,955.6H290"/>
		<path id="Path_45219" class="st10" d="M31.3,963.5h56.9"/>
		<path id="Path_45244" class="st10" d="M233.1,963.5H290"/>
		<path id="Path_45220" class="st10" d="M31.3,971.4h56.9"/>
		<path id="Path_45243" class="st10" d="M233.1,971.4H290"/>
		<path id="Path_45221" class="st10" d="M31.3,979.3h56.9"/>
		<path id="Path_45242" class="st10" d="M233.1,979.3H290"/>
		<path id="Path_45222" class="st10" d="M31.3,987.3h56.9"/>
		<path id="Path_45241" class="st10" d="M233.1,987.3H290"/>
		<path id="Path_45223" class="st10" d="M31.3,995.2h56.9"/>
		<path id="Path_45240" class="st10" d="M233.1,995.2H290"/>
		<path id="Path_45224" class="st10" d="M31.3,1003.1h56.9"/>
		<path id="Path_45239" class="st10" d="M233.1,1003.1H290"/>
		<path id="Path_45251" class="st10" d="M233.1,1011H290"/>
		<path id="Path_45252" class="st10" d="M233.1,1018.9H290"/>
		<path id="Path_45253" class="st10" d="M233.1,1026.8H290"/>
		<path id="Path_45254" class="st10" d="M249,1036.9h41"/>
		<path id="Path_45255" class="st10" d="M249,1043.5h41"/>
		<path id="Path_45256" class="st10" d="M249,1050.1h41"/>
		<path id="Path_45257" class="st10" d="M233.4,1056.7H290"/>
		<path id="Path_45225" class="st10" d="M31.3,1011h56.9"/>
		<path id="Path_45226" class="st10" d="M31.3,1018.9h56.9"/>
		<path id="Path_45227" class="st10" d="M31.3,1026.8h56.9"/>
		<path id="Path_45228" class="st10" d="M31.3,1034.8h56.9"/>
		<path id="Path_45229" class="st10" d="M31.3,1042.7h56.9"/>
		<path id="Path_45230" class="st10" d="M31.3,1050.6h56.9"/>
		<path id="Path_45231" class="st10" d="M31.3,1058.5h56.9"/>
		<path id="Path_45232" class="st10" d="M101.2,1008.4h122.7"/>
		<path id="Path_45233" class="st10" d="M101.2,1016.3h122.7"/>
		<path id="Path_45234" class="st10" d="M101.2,1024.2h122.7"/>
		<path id="Path_45235" class="st10" d="M101.2,1032.1h122.7"/>
		<path id="Path_45236" class="st10" d="M101.2,1040h122.7"/>
		<path id="Path_45237" class="st10" d="M101.2,1047.9h122.7"/>
		<path id="Path_45238" class="st10" d="M101.2,1055.9h122.7"/>
		<path id="Path_45178" class="st10" d="M36.6,908.4h19.8"/>
		<path id="Path_45179" class="st13" d="M215.3,1001.7h7.2"/>
		<path id="Path_45182" class="st12" d="M48.3,925.1c0,1-0.1,2-0.3,3c-0.2,0.8-0.5,1.6-1,2.4c-0.4,0.7-0.9,1.2-1.4,1.7
			c-0.5,0.5-1.1,0.9-1.7,1.2c-0.6,0.3-1.3,0.5-1.9,0.7c-0.6,0.1-1.3,0.2-2,0.2h-8.2v-1.1c0.5-0.1,0.9-0.2,1.4-0.4
			c0.3-0.1,0.5-0.3,0.5-0.4v-13.7l-1.8,0.3l-0.2-1.4c0.5-0.1,1-0.2,1.7-0.3c0.6-0.1,1.3-0.2,2-0.3c0.7-0.1,1.4-0.1,2.1-0.2
			c0.7,0,1.4-0.1,2-0.1c1.3,0,2.6,0.2,3.8,0.6c1,0.3,2,0.9,2.8,1.6c0.8,0.7,1.4,1.6,1.7,2.6C48.1,922.7,48.3,923.9,48.3,925.1
			L48.3,925.1z M38.4,918.3l-0.5,0c-0.2,0-0.3,0-0.5,0v13.4c0,0.1,0,0.3,0,0.4c0,0.1,0.1,0.3,0.2,0.3c0.2,0.1,0.4,0.2,0.6,0.2
			c0.4,0.1,0.7,0.1,1.1,0.1c0.6,0,1.1-0.1,1.6-0.4c0.6-0.3,1.1-0.7,1.6-1.3c0.5-0.7,0.9-1.4,1.2-2.2c0.3-1.1,0.5-2.2,0.5-3.3
			c0.1-1.9-0.4-3.9-1.5-5.5C41.7,918.9,40,918.2,38.4,918.3L38.4,918.3z"/>
		<path id="Path_45184" class="st12" d="M232.7,1052.7v-1.1c0.5-0.1,0.9-0.2,1.4-0.4c0.3-0.2,0.5-0.3,0.5-0.4v-13.2
			c0-0.1-0.1-0.2-0.4-0.4c-0.4-0.2-0.9-0.4-1.4-0.4v-1.1h12.5l0.6,0.5c0,0.2,0,0.5-0.1,0.9c0,0.4-0.1,0.8-0.1,1.2
			c-0.1,0.4-0.1,0.8-0.2,1.1c0,0.3-0.1,0.5-0.2,0.8h-1.2c0-0.7-0.1-1.4-0.3-2c-0.2-0.5-0.5-0.7-0.8-0.7h-4.5v5.4h5l0.5,0.5
			c-0.1,0.2-0.2,0.3-0.3,0.5c-0.1,0.2-0.2,0.3-0.3,0.5c-0.1,0.2-0.2,0.3-0.3,0.4c-0.1,0.1-0.2,0.2-0.3,0.3c-0.1-0.1-0.3-0.2-0.4-0.3
			c-0.2-0.1-0.4-0.2-0.5-0.2c-0.2-0.1-0.5-0.1-0.7-0.1c-0.3,0-0.6,0-1,0h-1.5v6.5c0,0.1,0,0.1,0.1,0.2c0.1,0.1,0.2,0.2,0.4,0.2
			c0.2,0.1,0.5,0.2,0.7,0.2c0.3,0.1,0.7,0.2,1.1,0.2v1.1L232.7,1052.7z"/>
		
			<linearGradient id="Path_45186_1_" gradientUnits="userSpaceOnUse" x1="509.7289" y1="1405.108" x2="509.162" y2="1404.8821" gradientTransform="matrix(76.6876 70.7296 37.3628 -145.1732 -91297.5703 168821.8594)">
			<stop  offset="0" style="stop-color:#E3E3D9"/>
			<stop  offset="0.5" style="stop-color:#FFFFFF"/>
			<stop  offset="1" style="stop-color:#F9F9F4"/>
		</linearGradient>
		<path id="Path_45186" class="st19" d="M218.4,832.7c46.9,16.9,85.7,94.2,85.3,161.5c-9.2-61.8-26.7-96.1-75.7-91.4
			C235,873,232.6,845.9,218.4,832.7L218.4,832.7z"/>
		<path id="Path_45187" class="st12" d="M247.8,917.1c0,0,0,0.1,0,0.3c-0.1,0.2-0.1,0.4-0.2,0.6c-0.1,0.2-0.2,0.5-0.3,0.7
			s-0.3,0.5-0.4,0.7c-0.1,0.2-0.3,0.4-0.4,0.6c-0.1,0.1-0.2,0.3-0.3,0.4l-1-0.2c-0.3-0.4-0.6-0.9-0.9-1.2c-0.3-0.3-0.6-0.6-0.9-0.8
			c-0.3-0.2-0.6-0.3-1-0.4c-0.4-0.1-0.7-0.1-1.1-0.1c-0.3,0-0.5,0.1-0.8,0.1c-0.3,0.1-0.6,0.3-0.9,0.5c-0.3,0.2-0.6,0.5-0.9,0.8
			c-0.3,0.4-0.6,0.8-0.8,1.3c-0.3,0.6-0.4,1.2-0.6,1.9c-0.1,0.8-0.2,1.7-0.2,2.5c0,1,0.1,2.1,0.4,3.1c0.2,0.8,0.6,1.5,1.1,2.1
			c0.4,0.5,0.9,0.9,1.5,1.2c0.6,0.3,1.2,0.4,1.8,0.4c0.4,0,0.8,0,1.2-0.1c0.3-0.1,0.6-0.2,0.9-0.3v-4c0-0.1,0-0.2,0-0.3
			c0-0.1-0.1-0.2-0.2-0.3c-0.2-0.1-0.4-0.2-0.6-0.3c-0.4-0.1-0.8-0.2-1.2-0.3v-1.1h7v1.1c-0.2,0-0.4,0.1-0.6,0.2
			c-0.1,0.1-0.3,0.2-0.4,0.3c-0.1,0.1-0.2,0.2-0.2,0.3c0,0.1-0.1,0.2-0.1,0.3v4c-0.6,0.5-1.2,1-1.9,1.4c-0.5,0.3-1.1,0.6-1.7,0.9
			c-0.9,0.4-1.9,0.6-2.8,0.6c-0.7,0-1.3-0.1-2-0.2c-0.7-0.1-1.3-0.4-1.9-0.7c-0.6-0.3-1.2-0.7-1.6-1.2c-0.5-0.5-1-1-1.3-1.6
			c-0.4-0.7-0.7-1.4-0.9-2.1c-0.2-0.8-0.3-1.7-0.3-2.6c0-1.4,0.2-2.8,0.7-4.1c0.5-1.1,1.1-2.2,2-3c0.9-0.8,1.9-1.5,3.1-1.9
			c1.2-0.4,2.5-0.7,3.8-0.7c0.4,0,0.7,0,1.1,0.1c0.4,0.1,0.9,0.2,1.3,0.3c0.5,0.1,0.9,0.3,1.3,0.4
			C247.1,916.7,247.5,916.9,247.8,917.1L247.8,917.1z"/>
		<path id="Path_45188" class="st20" d="M103.7,903c-0.2,0-0.4,0-0.6,0.1c-0.2,0-0.3,0.1-0.5,0.2c-0.1,0-0.2,0.1-0.2,0.1
			c-0.1,0-0.2,0.1-0.3,0.2l-0.2,0.1c-0.1,0-0.1,0.1-0.2,0.1c-0.1,0.1-0.1,0.1-0.2,0.2s-0.1,0.1-0.2,0.2c-0.1,0.1-0.1,0.2-0.2,0.3
			c-0.1,0.1-0.2,0.3-0.2,0.4c0,0.1-0.1,0.2-0.1,0.2l0,0.1c0,0.1-0.1,0.3-0.1,0.4v0c0,0.2-0.1,0.4-0.1,0.6c0,0.8,0.3,1.5,0.8,2.1
			l0.1,0.1c0.1,0.1,0.1,0.1,0.2,0.2c0.1,0.1,0.2,0.2,0.3,0.2c0.1,0.1,0.2,0.1,0.3,0.2l0.2,0.1c0.1,0,0.3,0.1,0.4,0.1l0.2,0.1
			c0.2,0,0.4,0.1,0.6,0.1c0.2,0,0.4,0,0.6-0.1c0.4-0.1,0.8-0.2,1.1-0.5c0,0,0.1-0.1,0.1-0.1c1.1-0.8,1.6-2.3,1.1-3.6
			c0-0.1-0.1-0.2-0.1-0.2c-0.2-0.5-0.6-0.9-1-1.2l-0.2-0.1c-0.1-0.1-0.2-0.1-0.3-0.2c-0.2-0.1-0.4-0.2-0.7-0.3
			C104.1,903,103.9,903,103.7,903L103.7,903z M135.3,903c-0.2,0-0.4,0-0.6,0.1c-1.7,0.4-2.8,2-2.4,3.7c0.3,1.4,1.6,2.5,3.1,2.5
			c0.3,0,0.5,0,0.8-0.1c0.2-0.1,0.5-0.2,0.7-0.3c1.5-0.8,2.1-2.7,1.3-4.2c-0.3-0.6-0.7-1-1.3-1.3c0,0,0,0,0,0
			c-0.2-0.1-0.4-0.1-0.5-0.2c-0.1,0-0.1-0.1-0.2-0.1C135.8,903,135.5,903,135.3,903L135.3,903z M168.2,903c-0.2,0-0.4,0-0.6,0.1
			c-0.2,0-0.3,0.1-0.5,0.2c-0.1,0-0.1,0.1-0.2,0.1c-0.1,0-0.2,0.1-0.3,0.2l-0.2,0.1c-0.1,0-0.1,0.1-0.2,0.1
			c-0.1,0.1-0.1,0.1-0.2,0.2s-0.1,0.1-0.2,0.2c-0.1,0.1-0.1,0.2-0.2,0.3c-0.1,0.1-0.2,0.3-0.2,0.4c0,0.1-0.1,0.2-0.1,0.2l0,0.1
			c0,0.1-0.1,0.3-0.1,0.4v0c0,0.2-0.1,0.4-0.1,0.6c0,0.8,0.3,1.5,0.8,2.1l0.1,0.1c0.1,0.1,0.1,0.1,0.2,0.2c0.1,0.1,0.2,0.2,0.3,0.2
			c0.1,0.1,0.2,0.1,0.3,0.2l0.2,0.1c0.1,0,0.3,0.1,0.4,0.1l0.2,0.1c0.2,0,0.4,0.1,0.6,0.1c0.2,0,0.4,0,0.6-0.1
			c0.4-0.1,0.8-0.2,1.1-0.5c0,0,0.1-0.1,0.1-0.1c1.1-0.8,1.6-2.3,1.1-3.6c0-0.1-0.1-0.2-0.1-0.2c-0.2-0.5-0.6-0.9-1-1.2l-0.2-0.1
			c-0.1-0.1-0.2-0.1-0.3-0.2c-0.2-0.1-0.4-0.2-0.7-0.3C168.7,903,168.4,903,168.2,903L168.2,903z M199.8,903c-1.7,0-3.1,1.4-3.1,3.1
			s1.4,3.1,3.1,3.1l0,0c0.3,0,0.5,0,0.8-0.1c1.7-0.4,2.7-2.1,2.3-3.7c-0.2-0.9-0.8-1.6-1.6-2c-0.2-0.1-0.4-0.1-0.6-0.2
			c-0.1,0-0.1-0.1-0.2-0.1C200.4,903,200.1,903,199.8,903L199.8,903z"/>
		<path id="Path_45189" class="st10" d="M111.2,905.7h14"/>
		<path id="Path_45190" class="st21" d="M138.4,906.1c0,1.7-1.4,3.1-3.1,3.1c-1.7,0-3.1-1.4-3.1-3.1c0-1.7,1.4-3.1,3.1-3.1
			c0,0,0,0,0,0C137,903,138.4,904.4,138.4,906.1z"/>
		<path id="Path_45191" class="st22" d="M135.3,903c-1.7,0-3.1,1.3-3.2,3.1s1.3,3.1,3.1,3.2c0.5,0,1.1-0.1,1.5-0.4
			c-1.5,0-2.7-1.2-2.7-2.8c0-1.5,1.2-2.7,2.8-2.7C136.3,903.1,135.8,903,135.3,903L135.3,903z"/>
		<path id="Path_45192" class="st23" d="M138.1,905.8l-0.9-0.1l-0.4,0.8l-0.2-0.9l-0.9-0.1l0.8-0.4l-0.2-0.9l0.7,0.6l0.8-0.4
			l-0.3,0.8L138.1,905.8z"/>
		<path id="Path_45193" class="st23" d="M135.9,907.8l-0.3-0.3l-0.4,0.2l0.2-0.4l-0.3-0.4l0.4,0.1l0.3-0.4l0,0.5l0.4,0.1l-0.4,0.2
			L135.9,907.8z"/>
		<path id="Path_45194" class="st10" d="M142.9,905.7h10.2"/>
		<path id="Path_45195" class="st10" d="M155.7,905.7h2.7"/>
		<path id="Path_45196" class="st24" d="M106.8,906.1c0,1.7-1.4,3.1-3.1,3.1c-1.7,0-3.1-1.4-3.1-3.1c0-1.7,1.4-3.1,3.1-3.1
			c0,0,0,0,0,0C105.4,903,106.8,904.4,106.8,906.1z"/>
		<path id="Path_45197" class="st25" d="M103.7,903c-1.5,0-2.8,1.1-3,2.5h6.1C106.4,904.1,105.2,903,103.7,903L103.7,903z"/>
		<path id="Path_45198" class="st26" d="M105.7,905.8c0,0.8-0.6,1.4-1.4,1.4s-1.4-0.6-1.4-1.4s0.6-1.4,1.4-1.4c0,0,0,0,0,0
			C105.1,904.4,105.7,905,105.7,905.8z"/>
		<path id="Path_45199" class="st27" d="M101.4,908.2c0.6,0.7,1.4,1,2.3,1c0.9,0,1.7-0.4,2.3-1C105.9,908.2,101.4,908.2,101.4,908.2
			z"/>
		<path id="Path_45200" class="st10" d="M175.8,905.7h14"/>
		<path id="Path_45201" class="st10" d="M207.5,905.7h10.2"/>
		<path id="Path_45202" class="st10" d="M220.3,905.7h2.7"/>
		<path id="Path_45203" class="st24" d="M171.4,906.1c0,1.7-1.4,3.1-3.1,3.1c-1.7,0-3.1-1.4-3.1-3.1c0-1.7,1.4-3.1,3.1-3.1h0
			C170,903,171.4,904.4,171.4,906.1z"/>
		<path id="Path_45204" class="st25" d="M168.3,903c-1.5,0-2.8,1.1-3,2.5h6.1C171,904.1,169.8,903,168.3,903L168.3,903z"/>
		<path id="Path_45205" class="st26" d="M170.3,905.8c0,0.8-0.6,1.4-1.4,1.4s-1.4-0.6-1.4-1.4s0.6-1.4,1.4-1.4c0,0,0,0,0,0
			C169.7,904.4,170.3,905,170.3,905.8z"/>
		<path id="Path_45206" class="st27" d="M166,908.2c0.6,0.7,1.4,1,2.3,1c0.9,0,1.7-0.4,2.3-1H166z"/>
		<path id="Path_45207" class="st21" d="M203,906.1c0,1.7-1.4,3.1-3.1,3.1c-1.7,0-3.1-1.4-3.1-3.1c0-1.7,1.4-3.1,3.1-3.1h0
			C201.6,903,203,904.4,203,906.1z"/>
		<path id="Path_45208" class="st22" d="M199.8,903c-1.7,0-3.1,1.3-3.2,3.1c0,1.7,1.3,3.1,3.1,3.2c0.5,0,1.1-0.1,1.5-0.4
			c-1.5,0-2.7-1.2-2.7-2.8c0-1.5,1.2-2.7,2.8-2.7C200.9,903.1,200.4,903,199.8,903L199.8,903z"/>
		<path id="Path_45209" class="st23" d="M202.7,905.8l-0.9-0.1l-0.4,0.8l-0.2-0.9l-0.9-0.1l0.8-0.4l-0.2-0.9l0.7,0.6l0.8-0.4
			l-0.4,0.8L202.7,905.8z"/>
		<path id="Path_45210" class="st23" d="M200.5,907.8l-0.3-0.3l-0.4,0.2l0.2-0.4l-0.3-0.4l0.4,0.1l0.3-0.4l0,0.5l0.4,0.1l-0.4,0.2
			L200.5,907.8z"/>
		<path id="Path_45211" class="st28" d="M248.9,852.9c1.9,12.9,1.8,17.2,1.8,20.5c-0.1,0.8,0.5,1.6,1.3,1.6s1.6-0.5,1.6-1.3
			c0,0,0-0.1,0-0.1c0.3-3.7,0.1-5.3-1.3-17.2C251.2,855.3,250.1,854,248.9,852.9L248.9,852.9z M256.4,860.9c1.2,11,0.8,7.8,0.8,13.7
			c-0.2,0.8,0.3,1.6,1.1,1.8c0.8,0.2,1.6-0.3,1.8-1.1c0-0.1,0-0.2,0-0.3c1-9.3,0.4-0.3-0.4-10C258.7,863.6,257.6,862.2,256.4,860.9
			L256.4,860.9z M263.7,870.1c0.5,5.3,0.3,5.3-0.2,7.1c-0.3,0.8,0,1.6,0.8,1.9s1.6,0,1.9-0.8c0-0.1,0.1-0.2,0.1-0.3
			c0.2-1.3,1.1-1.5,0.7-3.2C266,873.3,264.9,871.7,263.7,870.1L263.7,870.1z M270.5,880.1c0,6.2-0.6,12.3-1.8,18.4
			c-0.2,0.8,0.2,1.6,1,1.8c0.8,0.2,1.6-0.2,1.8-1c0-0.1,0-0.2,0.1-0.3c0.9-4.7,1.5-9.5,1.7-14.3
			C272.4,883.2,271.5,881.7,270.5,880.1L270.5,880.1z M275.9,889.2c0,4.5-0.4,9-1.3,13.4c-0.2,0.8,0.3,1.6,1.1,1.8
			c0.8,0.2,1.6-0.3,1.8-1.1c0-0.1,0-0.1,0-0.2c0.6-2.9,1-5.8,1.2-8.8C277.8,892.6,276.9,890.9,275.9,889.2L275.9,889.2z
			 M280.7,898.3c0.1,3.4,0,6.7-0.3,10.1c-0.1,0.8,0.5,1.5,1.3,1.6c0.8,0.1,1.5-0.5,1.6-1.3c0,0,0,0,0,0c0.1-1.4,0.2-2.8,0.3-4.2
			C282.7,902.4,281.7,900.4,280.7,898.3L280.7,898.3z M285.8,909.4c-0.1,1.3-0.1,2.7-0.2,4c0.1,0.9,0.8,1.5,1.7,1.5
			c0.2,0,0.5-0.1,0.7-0.2C287.3,912.9,286.5,911.2,285.8,909.4L285.8,909.4z"/>
		<path id="Path_45212" class="st28" d="M265,898.9l-1.1-0.2c0-0.5-0.1-1-0.2-1.4c-0.1-0.3-0.2-0.5-0.3-0.5c-4-1.9-8.3-3.6-13.1-2.7
			c-0.1,0-0.3,0.1-0.5,0.4c-0.3,0.4-0.5,0.9-0.6,1.3l-1.1-0.2c0.6-2.4,0.9-4.9,1.1-7.4l1.1,0.2c0,0.5,0.1,1,0.2,1.4
			c0.1,0.3,0.2,0.5,0.4,0.5c1.9-0.1,3.7,0.6,5.6,0.7l1-6.6c-1.9-0.2-3.7-0.8-5.6-0.7c-0.1,0-0.3,0.1-0.5,0.4
			c-0.3,0.4-0.5,0.9-0.6,1.3l-1.1-0.2c0.8-1.6,1.1-4.1,1.1-7.4l1.1,0.2c0,0.5,0.1,1,0.2,1.4c0.1,0.3,0.2,0.5,0.4,0.5
			c4.2-0.3,8.6,1,13.1,2.7c0.1,0,0.3-0.1,0.5-0.4c0.3-0.4,0.5-0.9,0.6-1.3l1.1,0.2c-0.4,3.2-0.6,4.7-1.1,7.4l-1.1-0.2
			c0-0.5-0.1-1-0.2-1.4c-0.1-0.3-0.2-0.5-0.3-0.5c-1.8-0.9-3.8-1.4-5.8-1.7l-1,6.6c2,0.2,4,0.8,5.8,1.7c0.1,0,0.3-0.1,0.5-0.4
			c0.3-0.4,0.5-0.9,0.6-1.3l1.1,0.2C266.1,892.5,265.5,896.4,265,898.9L265,898.9z"/>
	</g>
</g>
</svg>
