<?xml version="1.0" encoding="utf-8"?>
<!-- Generator: Adobe Illustrator 24.1.2, SVG Export Plug-In . SVG Version: 6.00 Build 0)  -->
<svg version="1.1" id="Слой_1" xmlns="http://www.w3.org/2000/svg" xmlns:xlink="http://www.w3.org/1999/xlink" x="0px" y="0px"
	 width="1916.9px" height="816.5px" viewBox="0 0 1916.9 816.5" enable-background="new 0 0 1916.9 816.5" xml:space="preserve">
<g id="Group_20599" transform="translate(0 -74)">
	<g id="Group_18917" transform="translate(0 75.85)">
		
			<linearGradient id="SVGID_1_" gradientUnits="userSpaceOnUse" x1="715.573" y1="654.7226" x2="715.565" y2="656.0096" gradientTransform="matrix(1920 0 0 -822 -1372942.5 538532.875)">
			<stop  offset="0" style="stop-color:#BDD8E6"/>
			<stop  offset="1" style="stop-color:#7792AA"/>
		</linearGradient>
		<rect y="-1.8" fill="url(#SVGID_1_)" width="1916.9" height="816.5"/>
		<path fill="#CECCB2" d="M1916.9,420.4l-18.9-24.6l-22.1,4.4l-26.5-26.6c0,0-53,64.2-99.4,112.8s-130.3-15.5-156.8-26.2
			s-150.2,79.2-187.7,106.3c-37.5,27.1-70.7-20.4-150.2-12.4s-650,79.8-650,79.8h1311.5V420.4z"/>
		<g id="Group_17070" transform="translate(0 455.567)">
			
				<linearGradient id="SVGID_2_" gradientUnits="userSpaceOnUse" x1="715.5734" y1="199.3535" x2="715.5734" y2="200.0365" gradientTransform="matrix(1919.5 0 0 -221.333 -1372584.75 44433.9883)">
				<stop  offset="0" style="stop-color:#B7AD89"/>
				<stop  offset="1" style="stop-color:#BAAE78"/>
			</linearGradient>
			<polygon fill="url(#SVGID_2_)" points="731.4,159.1 503.8,140.1 260.7,152 146.9,159.1 0,177.6 0,359.1 1916.9,359.1 
				1916.9,177.8 			"/>
			<rect y="32.4" opacity="0.25" fill="#FFFFFF" enable-background="new    " width="1916.9" height="21"/>
			<rect y="64.6" opacity="0.25" fill="#FFFFFF" enable-background="new    " width="1916.9" height="10.5"/>
		</g>
		<g id="Group_17071" transform="translate(0 498.497)">
			<path id="Path_47986" fill="#686543" d="M1779.2,305.4l-92.4-259.7L1610.7,277l-35.3-85.1l-27.2,85.1l-54.4-195.3L1453,254.5
				l-35.3-71.5l-24.5,78.1L1344.3-5.2l-48.9,177.4l-24.5-55.8l-35.3,55.8l-29.9-35.5l-55,140.2l-16.5-121.6L1083,261.1l-75-161.1
				l-56.1,154.6L894.4,58.6L842.3,277L805.8,23.3L755.1,277L702.2,99.9L661.9,277l-48.3-85.1L591.3,277L569.1,78.4L520.6,277
				l-29.4-60.2L474.4,277l321.9,14.3l-108.3-372l-520.7,104l-60.7,281.2L1779.2,305.4z"/>
			<polygon fill="#5B592E" points="0,316.2 915,316.2 863.7,132.5 820.9,298.1 801,237.2 785.7,298.1 755.1,158.2 732.2,282 
				712.3,230.8 698.6,286.7 671.1,96 643.5,223.1 629.8,183.2 609.9,223.1 593.1,197.7 562.1,298.1 552.8,211.1 524.1,286.7 
				481.9,171.3 450.4,282 418.1,141.7 388.8,298.1 368.3,116.4 339.7,298.1 309.9,171.3 287.3,298.1 260.2,237.2 247.6,298.1 
				235.1,155.9 207.9,298.1 191.3,255 181.9,298.1 148.6,298.1 139.6,158.2 0,213.9 			"/>
			<polygon fill="#5B592E" points="1916.9,315.4 1855.7,132.5 1804.5,298.1 1780.7,237.2 1762.4,298.1 1725.8,158.2 1698.3,282 
				1674.5,230.8 1658.1,286.7 1625.1,96 1592.2,223.1 1575.7,183.2 1551.9,223.1 1531.8,197.7 1494.7,298.1 1483.6,211.1 
				1449.2,286.7 1398.7,171.3 1360.9,282 1322.2,141.7 1287.2,298.1 1262.6,116.4 1228.4,298.1 1192.8,171.3 1165.7,298.1 
				1133.2,237.2 1118.2,298.1 1103.2,155.9 1070.6,298.1 1050.8,255 1039.5,298.1 999.7,298.1 982.2,149.3 819.9,214.5 819.9,316.2 
				1916.9,316.2 			"/>
		</g>
		<path fill="#BFBCA5" d="M1916.9,556.8c-5.8,6.4-22.7,25.5-29.5,40c-8.3,17.7-107.3-9.8-107.3-9.8s-152.7,18.6-172.6,24.8
			s-53-34.4-71.2-15s-230.2,36.4-230.2,36.4l610.8,0V556.8z"/>
		<path fill-rule="evenodd" clip-rule="evenodd" fill="#FFFFFF" d="M1916.9,322.4l-135.6-29.3v0c-0.8-1.5-1.6-2.9-2.5-4.3
			c-17.5-26.8-53.4-34.4-80.2-17c-1-37-27.5-68.3-63.9-75.3c-42.8-8.3-84.2,19.7-92.5,62.4c-4.3-1.9-8.7-3.3-13.3-4.2
			c-35.2-7-69.5,15.9-76.5,51.1c0,0-44.1,6.5-132.3,19.6h596.8V322.4z"/>
		<path id="Path_43022" fill-rule="evenodd" clip-rule="evenodd" fill="#FFFFFF" d="M1313.2,212.3c68.2,14.7,102.3,22.1,102.3,22.1
			H999.3c60-8.9,90.1-13.4,90.1-13.4c4.8-24,28.1-39.6,52.1-34.8c3.1,0.6,6.1,1.6,9,2.8c5.6-29.1,33.8-48.2,62.9-42.5
			c24.7,4.8,42.8,26.1,43.5,51.3c18.3-11.9,42.7-6.7,54.6,11.6C1312.1,210.3,1312.7,211.3,1313.2,212.3"/>
	</g>
	<rect y="74" opacity="0.305" fill="#E6DCBD" enable-background="new    " width="1916.9" height="816.5"/>
	<g id="Group_19079" transform="translate(373 -204)">
		<g id="man" transform="translate(-68.357 213.777)">
			<path id="Path_52047" fill="#817D5F" d="M311.5,565.4c0,6.2-41.6,10-93,8.5s-93-7.8-93-14.1s41.6-10,93-8.5
				S311.5,559.2,311.5,565.4z"/>
			<g id="Group_19049" transform="translate(144.851 247.253)">
				<path id="Path_52048" fill="#6B3E13" d="M90.9,113.5l12,86.6c0,0,0.7,13,2,25.2c0.8,8,1.1,16.1,0.8,24.2l7.3,62.6
					c0,0,22.8-0.3,24.2,7.2l-32.9-1.6c0,0-19-50.1-21.5-57.6c-2-6.6-5.9-32-6-32.6c-12-23.9-19.9-80.8-22.2-114.4
					C73.6,100.2,90.9,113.5,90.9,113.5z"/>
				<path id="Path_52049" fill="#6B3E13" d="M70.8,118.2l-25.3,89.4c0,0-3.3,15.6-6,21.7s-7.3,14.9-7.3,14.9L8.2,308.8
					c0,0,23-1.1,23.1,6.3l-32.9-0.4c0,0,5.7-55.7,5.9-60.2s7.5-26.4,7.7-28.2c0.2-1.5,0.6-13.2,1.2-18.8s2.2-18.2,3-23.3
					c6-35.7,11-53.2,21.9-81.9C60.7,98.6,70.8,118.2,70.8,118.2z"/>
				<path id="Path_52050" fill="#6B3E13" d="M90.7,115.8l10.9,93.7l-26.9,5.2l-12.5-52l-21.3,49.6l-26.6-7.4c0,0,12.5-63.1,14-88.3
					C50.7,98.9,90.7,115.8,90.7,115.8z"/>
				<path id="Path_52051" fill="#593410" d="M90.6,115.8l2.6,17.3c-3-1.4-5-4.3-5.2-7.6l-0.6-10.9C89.4,115.3,90.6,115.8,90.6,115.8
					z"/>
				<path id="Path_52052" fill="#593410" d="M72,143.2L72,143.2c4.9-0.3,8.7-4.5,8.4-9.5c0,0,0,0,0,0l-0.8-13.2
					c-0.3-4.9-4.5-8.7-9.5-8.4c0,0,0,0,0,0l0,0c-4.9,0.3-8.7,4.5-8.4,9.5c0,0,0,0,0,0l0.8,13.2C62.8,139.7,67.1,143.4,72,143.2z"/>
				<path id="Path_52053" fill="#593410" d="M36.2,141L36.2,141c4.9,0.9,9.5-2.3,10.4-7.2c0,0,0,0,0,0l2.4-13
					c0.9-4.9-2.3-9.5-7.2-10.4l0,0c-4.9-0.9-9.5,2.3-10.4,7.2l-2.4,13C28.1,135.4,31.3,140.1,36.2,141C36.2,141,36.2,141,36.2,141z"
					/>
				<path id="Path_52054" fill="#0C1438" d="M91.4,119.6L90.5-3.1l-43.3-2C41.1-5.5,36-0.8,35.7,5.2c0,0,0,0,0,0l-8.6,111.3
					c0,0-2.1,9.8,20.3,10.8S91.4,119.6,91.4,119.6z"/>
				<path id="Path_52055" fill="#593410" d="M25.9,140.1c9,7.7,30.2,15.1,30.2,15.1s-2.6,17.6-5.5,32.5c2.7-3.7,9.9-26.7,15-29.6
					s9.2-5.6,9.2-5.6S37.6,148.7,25.9,140.1z"/>
				<path id="Path_52056" fill="#D6624B" d="M27.3,115.2c1.8,2.8,6.8,6.2,19.8,6.9c20.6,1,40.5-6.1,44.3-7.5l0,5
					c0,0-21.5,8.9-43.9,7.8s-20.3-10.8-20.3-10.8L27.3,115.2z"/>
				<path id="Path_52057" fill="#241F1B" d="M137.3,319.3l-32.9-1.6c0,0-0.7-1.9-1.8-5.3c2.8,0.4,10.5-0.3,10.5-0.3
					S135.9,311.8,137.3,319.3z"/>
				<path id="Path_52058" fill="#241F1B" d="M33.1,315.7c-8.3-0.4-34.7-1-34.7-1v-5.9c2.8,0.4,10.5-0.3,10.5-0.3
					S31.7,308.2,33.1,315.7z"/>
			</g>
			<path id="Path_52059" fill="#0C1438" d="M214.4,268c1.8,5.1,3.7,10,5.6,15l3,7.4l3.1,7.4c2.1,4.9,4.3,9.8,6.7,14.8
				c0.6,1.2,1.2,2.5,1.8,3.8s1.3,2.6,2.1,4l0.7,1.2l0.5,0.7l0.5,0.8c0.3,0.4,0.6,0.9,1,1.3l0.3,0.3l0.2,0.2l0.2,0.2
				c0.1,0.2,0.3,0.3,0.4,0.5c0.3,0.3,0.6,0.6,1,0.9l0.2,0.2l0.2,0.2l0.3,0.2c0.4,0.3,0.8,0.5,1.2,0.8c0.2,0.1,0.3,0.2,0.5,0.3
				l0.4,0.2c0.3,0.1,0.6,0.3,0.8,0.4l0.6,0.3l0.6,0.2l0.5,0.2c0.3,0.1,0.7,0.2,0.9,0.3l0.8,0.2l0.7,0.2c0.5,0.1,0.9,0.2,1.4,0.3
				l1.2,0.3c3.2,0.7,6,1,8.8,1.4c2.8,0.4,5.5,0.6,8.2,0.9s5.4,0.5,8.1,0.7c2.7,0.2,5.4,0.3,8.1,0.5c10.7,0.6,21.4,0.9,32.1,0.8
				c6-0.1,10.8-5,10.8-11c-0.1-5.4-4.1-10-9.5-10.7l-0.1,0c-10.4-1.3-20.9-2.5-31.3-3.6l-7.8-0.9c-2.6-0.3-5.1-0.6-7.7-0.9
				c-2.5-0.3-5.1-0.7-7.5-1.1c-2.4-0.4-4.9-0.8-6.9-1.2l-0.7-0.2c-0.2-0.1-0.4-0.1-0.6-0.2l-0.2-0.1l-0.1,0c-0.1,0,0,0,0,0l0,0
				l0.1,0c0,0,0.1,0,0.1,0.1c0.1,0,0.2,0.1,0.4,0.2l0.2,0.1l0.3,0.1c0.3,0.2,0.5,0.3,0.8,0.5l0.6,0.4c0.3,0.2,0.5,0.4,0.8,0.7
				c0.1,0.1,0.2,0.2,0.4,0.4l0.3,0.4l0.1,0.1c0.1,0.2,0.3,0.3,0.4,0.5c0,0,0,0,0,0l0,0l0,0l0-0.1l-0.1-0.1l-0.3-0.6
				c-0.5-0.9-1-1.9-1.6-3l-1.7-3.4l-6.8-14l-3.4-7.1l-3.5-7.1c-2.3-4.7-4.7-9.5-7.1-14.1l0,0c-3-5.6-9.9-7.7-15.5-4.8
				C214.9,256.7,212.6,262.6,214.4,268L214.4,268z"/>
			<path id="Path_52060" fill="#E9A58E" d="M186,199.4c0.7,3.7,3.2,22.7-2.8,39.2c10.8,5,24.1,0,24.1,0s3-27.5,2.8-30.7
				s-4.6-5.8-4.6-5.8l-8.9-2.7L186,199.4z"/>
			<path id="Rectangle_16095" fill="#E9A58E" d="M207.8,209.2h-4.5c-9,0-16.3-7.3-16.3-16.3l0,0v-4.5c0-9,7.3-16.3,16.3-16.3
				c0,0,0,0,0,0h4.5c9,0,16.3,7.3,16.3,16.3v4.5C224.1,202,216.8,209.2,207.8,209.2z"/>
			<path id="Path_52061" fill="#E9A58E" d="M222.4,189.2c0,0,4.9,12,3.9,12.8s-8.2,4.2-8.4,2.2S222.4,189.2,222.4,189.2z"/>
			<path id="Path_52062" fill="#C25940" d="M211.8,178c0,0-8.1,10.2-8.5,15.1c-0.2,3-0.2,5.9,0,8.9c0,0-4.6,0.1-5.9,1.2
				s-0.2,7.8-10.5,7.9c-2.1-3.7-1.4-4.6-4.9-10.1s-7.5-10.3-1-22.4S211.8,178,211.8,178z"/>
			<path id="Path_52063" opacity="0.44" fill="#69493B" enable-background="new    " d="M211.8,178c0,0-8.1,10.2-8.5,15.1
				c-0.2,3-0.2,5.9,0,8.9c0,0-4.6,0.1-5.9,1.2s-0.2,7.8-10.5,7.9c-2.1-3.7-1.4-4.6-4.9-10.1s-7.5-10.3-1-22.4S211.8,178,211.8,178z"
				/>
			<path id="Path_52064" fill="#773B20" d="M196.1,196c3.1-4.6,8.9-3.4,16.9-4.2s14-13.9,5-23.9s-30.8,2.1-34.9,8.4
				c-4.3,6.6-6.9,15-3.6,21.3S189,206.6,196.1,196z"/>
			<path id="Path_52065" fill="#E9A58E" d="M195.4,201.1c-1.1-4.2,0.7-7.5,4-7.5s6.8,3.4,7.9,7.5s-0.7,7.5-4,7.5
				S196.5,205.2,195.4,201.1z"/>
			<path id="Path_52066" fill="#773B20" d="M222.2,204c1.1-0.5,5.6,10.3,2.7,20.7c-4.7,2.8-13.8,6.3-21.4,1.6c-5-8.8-3.7-14-3.7-14
				c4-4.7,5.3-4.4,5.8-8.6C209,203.6,217.2,206,222.2,204z"/>
			<path id="Path_52067" fill="#BF1E29" d="M131.4,308.1c1.3-1,2.3-1.9,2.8-2.3c-2.3-22.6-8.1-74.3,0.5-73.5s88.8,23,88.8,23
				c-2.3,3.1,10,107.6-11.6,125h-69.7c-0.6,0-1.3,0-2.1-0.1c-10.4-0.6-18.6-9.2-18.5-19.6v-31.9
				C121.6,320.7,125.2,313.1,131.4,308.1z"/>
			<path id="Path_52068" fill="#4D6882" d="M131.4,308.1c1.3-1,2.3-1.9,2.8-2.3c-2.3-22.6-8.1-74.3,0.5-73.5s88.8,23,88.8,23
				c-2.3,3.1,10,107.6-11.6,125h-69.7c-0.6,0-1.3,0-2.1-0.1c-10.4-0.6-18.6-9.2-18.5-19.6v-31.9
				C121.6,320.7,125.2,313.1,131.4,308.1z"/>
			<g id="Group_19050" transform="translate(127.056 244.371)" opacity="0.51">
				<path id="Path_52069" fill="#701218" d="M71.9,64.4c-0.2,0-0.3-0.1-0.3-0.3c0-0.1,0-0.2,0.1-0.2c0.4-0.3,0.8-0.6,1-0.8l-0.1-1.2
					l0.3-0.1l0.3,0l-0.3,0h0.3l0.2,1.5l-0.1,0.1c-0.2,0.2-0.6,0.5-1.1,0.9C72.1,64.3,72,64.4,71.9,64.4z"/>
				<path id="Path_52070" fill="#701218" d="M74.8,131.8C74.7,131.8,74.7,131.8,74.8,131.8c-1-0.2-1.9-0.5-2.8-0.9
					c-0.1-0.1-0.2-0.2-0.1-0.4c0.1-0.1,0.2-0.2,0.4-0.1c0.9,0.3,1.7,0.6,2.6,0.9c0.2,0,0.2,0.2,0.2,0.3
					C75,131.7,74.9,131.8,74.8,131.8L74.8,131.8z M69.6,129.7c-0.1,0-0.1,0-0.1,0c-0.8-0.5-1.6-1-2.3-1.6c-0.1-0.1-0.1-0.3,0-0.4
					c0.1-0.1,0.3-0.1,0.4,0c0.7,0.6,1.5,1.1,2.3,1.6c0.1,0.1,0.2,0.3,0.1,0.4C69.8,129.6,69.7,129.7,69.6,129.7L69.6,129.7z
					 M65.2,126.2c-0.1,0-0.2,0-0.2-0.1c-0.6-0.7-1.2-1.4-1.8-2.2c-0.1-0.1-0.1-0.3,0.1-0.4c0.1-0.1,0.3-0.1,0.4,0.1l0,0
					c0.5,0.8,1.1,1.5,1.7,2.1c0.1,0.1,0.1,0.3,0,0.4C65.4,126.2,65.3,126.2,65.2,126.2L65.2,126.2z M62.1,121.6
					c-0.1,0-0.2-0.1-0.3-0.2c-0.4-0.9-0.7-1.7-1-2.7c0-0.2,0.1-0.3,0.2-0.3c0.1,0,0.3,0,0.3,0.2c0.3,0.9,0.6,1.7,1,2.6
					c0.1,0.1,0,0.3-0.1,0.4C62.2,121.6,62.1,121.6,62.1,121.6L62.1,121.6z M60.5,116.3c-0.1,0-0.3-0.1-0.3-0.3
					c-0.1-0.7-0.1-1.4-0.1-2v-0.8c0-0.2,0.1-0.3,0.3-0.3c0.2,0,0.3,0.1,0.3,0.3c0,0,0,0,0,0v0.8c0,0.7,0,1.3,0.1,2
					C60.9,116.1,60.7,116.3,60.5,116.3C60.6,116.3,60.6,116.3,60.5,116.3L60.5,116.3z M60.4,110.7c-0.2,0-0.3-0.1-0.3-0.3
					c0,0,0,0,0,0v-2.8c0-0.2,0.1-0.3,0.3-0.3c0.2,0,0.3,0.1,0.3,0.3c0,0,0,0,0,0v2.8C60.7,110.6,60.6,110.7,60.4,110.7
					C60.4,110.7,60.4,110.7,60.4,110.7L60.4,110.7z M60.4,105.1c-0.2,0-0.3-0.1-0.3-0.3l0,0V102c0-0.2,0.1-0.3,0.3-0.3
					c0.2,0,0.3,0.1,0.3,0.3c0,0,0,0,0,0v2.8C60.7,105,60.6,105.1,60.4,105.1C60.4,105.1,60.4,105.1,60.4,105.1L60.4,105.1z
					 M60.4,99.5c-0.2,0-0.3-0.1-0.3-0.3l0,0v-2.8c0-0.2,0.1-0.3,0.3-0.3c0.1,0,0.3,0.1,0.3,0.3v2.8C60.7,99.4,60.6,99.5,60.4,99.5
					C60.4,99.5,60.4,99.5,60.4,99.5L60.4,99.5z M60.4,93.9c-0.2,0-0.3-0.1-0.3-0.3c0,0,0,0,0,0v-2.8c0-0.2,0.1-0.3,0.3-0.3
					c0.2,0,0.3,0.1,0.3,0.3c0,0,0,0,0,0v2.8C60.7,93.8,60.6,93.9,60.4,93.9C60.4,93.9,60.4,93.9,60.4,93.9L60.4,93.9z M60.4,88.3
					c-0.2,0-0.3-0.1-0.3-0.3c0,0,0,0,0,0v-2.8c0-0.2,0.1-0.3,0.3-0.3c0.2,0,0.3,0.1,0.3,0.3c0,0,0,0,0,0V88
					C60.7,88.2,60.6,88.3,60.4,88.3C60.4,88.3,60.4,88.3,60.4,88.3L60.4,88.3z M60.5,82.7L60.5,82.7c-0.2,0-0.3-0.2-0.3-0.3
					c0,0,0,0,0,0c0.1-0.9,0.2-1.9,0.4-2.8c0-0.2,0.2-0.3,0.3-0.2c0.2,0,0.3,0.2,0.2,0.3c0,0,0,0,0,0c-0.2,0.9-0.3,1.8-0.4,2.7
					C60.8,82.6,60.7,82.7,60.5,82.7L60.5,82.7z M61.7,77.3C61.6,77.3,61.6,77.2,61.7,77.3c-0.2-0.1-0.3-0.2-0.3-0.4c0,0,0,0,0,0
					c0.3-0.9,0.7-1.8,1.1-2.6c0.1-0.1,0.2-0.2,0.4-0.1c0.1,0.1,0.2,0.2,0.1,0.4l0,0c-0.4,0.8-0.8,1.7-1.1,2.6
					C61.9,77.2,61.8,77.3,61.7,77.3L61.7,77.3z M64.1,72.2c-0.1,0-0.1,0-0.2,0c-0.1-0.1-0.2-0.3-0.1-0.4c0,0,0,0,0,0
					c0.5-0.8,1.1-1.6,1.6-2.3c0.1-0.1,0.3-0.1,0.4,0c0.1,0.1,0.1,0.3,0,0.4c-0.6,0.7-1.1,1.5-1.6,2.2C64.3,72.2,64.2,72.2,64.1,72.2
					L64.1,72.2z M67.6,67.9c-0.2,0-0.3-0.1-0.3-0.3c0-0.1,0-0.1,0.1-0.2c0.7-0.7,1.4-1.3,2.1-1.9c0.1-0.1,0.3-0.1,0.4,0.1
					c0.1,0.1,0.1,0.3,0,0.4c-0.7,0.6-1.4,1.2-2.1,1.8C67.8,67.9,67.7,67.9,67.6,67.9L67.6,67.9z"/>
				<path id="Path_52071" fill="#701218" d="M77.5,132.5c-0.2,0-0.3-0.1-0.3-0.3c0,0,0,0,0-0.1c0,0,0-0.1,0-0.1
					c0-0.2,0.2-0.3,0.3-0.3c0.5,0.1,0.9,0.1,1.4,0.1l0,0.6L77.5,132.5L77.5,132.5z"/>
				<path id="Path_52072" fill="#701218" d="M68.8,132.5h-2.9c-0.2,0-0.3-0.1-0.3-0.3c0-0.2,0.1-0.3,0.3-0.3c0,0,0,0,0,0h2.9
					c0.2,0,0.3,0.1,0.3,0.3C69.1,132.4,69,132.5,68.8,132.5C68.8,132.5,68.8,132.5,68.8,132.5z M63,132.5H60c-0.2,0-0.3-0.1-0.3-0.3
					c0-0.2,0.1-0.3,0.3-0.3c0,0,0,0,0,0H63c0.2,0,0.3,0.1,0.3,0.3C63.3,132.4,63.1,132.5,63,132.5C63,132.5,63,132.5,63,132.5
					L63,132.5z M57.1,132.5h-2.9c-0.2,0-0.3-0.1-0.3-0.3c0-0.1,0.1-0.3,0.3-0.3h2.9c0.2,0,0.3,0.1,0.3,0.3
					C57.4,132.4,57.3,132.5,57.1,132.5z M51.3,132.5h-2.9c-0.2,0-0.3-0.1-0.3-0.3c0-0.2,0.1-0.3,0.3-0.3c0,0,0,0,0,0h2.9
					c0.2,0,0.3,0.1,0.3,0.3C51.6,132.4,51.4,132.5,51.3,132.5z M45.5,132.5h-2.9c-0.2,0-0.3-0.1-0.3-0.3c0-0.2,0.1-0.3,0.3-0.3
					c0,0,0,0,0,0h2.9c0.2,0,0.3,0.1,0.3,0.3C45.8,132.4,45.7,132.5,45.5,132.5C45.5,132.5,45.5,132.5,45.5,132.5z M39.6,132.5h-2.9
					c-0.2,0-0.3-0.1-0.3-0.3c0-0.2,0.1-0.3,0.3-0.3c0,0,0,0,0,0h2.9c0.2,0,0.3,0.1,0.3,0.3C40,132.4,39.8,132.5,39.6,132.5
					C39.7,132.5,39.7,132.5,39.6,132.5L39.6,132.5z M33.8,132.5h-2.9c-0.2,0-0.3-0.1-0.3-0.3c0-0.2,0.1-0.3,0.3-0.3c0,0,0,0,0,0h2.9
					c0.2,0,0.3,0.1,0.3,0.3C34.1,132.4,34,132.5,33.8,132.5C33.8,132.5,33.8,132.5,33.8,132.5z M28,132.5h-2.9
					c-0.2,0-0.3-0.1-0.3-0.3c0-0.2,0.1-0.3,0.3-0.3c0,0,0,0,0,0H28c0.2,0,0.3,0.1,0.3,0.3C28.3,132.4,28.2,132.5,28,132.5
					C28,132.5,28,132.5,28,132.5z M22.2,132.5h-2.9c-0.2,0-0.3-0.1-0.3-0.3c0-0.2,0.1-0.3,0.3-0.3c0,0,0,0,0,0h2.9
					c0.2,0,0.3,0.1,0.3,0.3C22.5,132.4,22.3,132.5,22.2,132.5C22.2,132.5,22.2,132.5,22.2,132.5L22.2,132.5z M71.7,132.5
					c-0.2,0-0.3-0.1-0.3-0.3c0-0.2,0.1-0.3,0.3-0.3l2.9,0l0,0c0.2,0,0.3,0.1,0.3,0.3c0,0.2-0.1,0.3-0.3,0.3L71.7,132.5L71.7,132.5z
					 M16.3,132.4L16.3,132.4c-1-0.1-2-0.2-2.9-0.5c-0.2,0-0.2-0.2-0.2-0.4c0-0.1,0.2-0.2,0.3-0.2c0.9,0.2,1.9,0.4,2.8,0.5
					c0.2,0,0.3,0.2,0.3,0.3C16.6,132.3,16.5,132.4,16.3,132.4L16.3,132.4z M10.7,131c0,0-0.1,0-0.1,0c-0.9-0.4-1.8-0.8-2.7-1.3
					c-0.1-0.1-0.2-0.3-0.1-0.4s0.3-0.2,0.4-0.1c0.8,0.5,1.7,0.9,2.6,1.2c0.1,0.1,0.2,0.2,0.2,0.4C10.9,131,10.8,131,10.7,131
					L10.7,131z M5.6,128.2c-0.1,0-0.1,0-0.2-0.1c-0.8-0.6-1.5-1.3-2.2-2c-0.1-0.1-0.1-0.3,0-0.4c0.1-0.1,0.3-0.1,0.4,0
					c0.7,0.7,1.4,1.4,2.1,1.9c0.1,0.1,0.1,0.3,0,0.4C5.8,128.1,5.7,128.2,5.6,128.2L5.6,128.2z M1.7,123.9c-0.1,0-0.2,0-0.2-0.1
					c-0.5-0.8-1-1.7-1.4-2.6c-0.1-0.1,0-0.3,0.2-0.4c0.1-0.1,0.3,0,0.4,0.1c0.4,0.9,0.9,1.7,1.4,2.5c0.1,0.1,0.1,0.3-0.1,0.4
					C1.8,123.9,1.7,123.9,1.7,123.9L1.7,123.9z M-0.7,118.6c-0.1,0-0.2-0.1-0.3-0.2c-0.2-1-0.4-1.9-0.5-2.9c0-0.2,0.1-0.3,0.3-0.3
					s0.3,0.1,0.3,0.3c0.1,1,0.2,1.9,0.5,2.8C-0.4,118.4-0.5,118.6-0.7,118.6C-0.7,118.6-0.7,118.6-0.7,118.6L-0.7,118.6z
					 M-1.3,112.8c-0.2,0-0.3-0.1-0.3-0.3l0,0v-2.9c0-0.2,0.1-0.3,0.3-0.3c0.2,0,0.3,0.1,0.3,0.3l0,0v2.9
					C-1,112.7-1.1,112.8-1.3,112.8L-1.3,112.8z M-1.3,107c-0.2,0-0.3-0.1-0.3-0.3l0,0v-2.9c0-0.2,0.1-0.3,0.3-0.3
					c0.2,0,0.3,0.1,0.3,0.3l0,0v2.9C-1,106.9-1.1,107-1.3,107L-1.3,107z M-1.3,101.2c-0.2,0-0.3-0.1-0.3-0.3l0,0V98
					c0-0.2,0.1-0.3,0.3-0.3c0.2,0,0.3,0.1,0.3,0.3l0,0v2.9C-1,101-1.1,101.2-1.3,101.2L-1.3,101.2z M-1.3,95.3
					c-0.2,0-0.3-0.1-0.3-0.3l0,0v-2.9c0-0.2,0.1-0.3,0.3-0.3c0.2,0,0.3,0.1,0.3,0.3l0,0v2.9C-1,95.2-1.1,95.3-1.3,95.3L-1.3,95.3z
					 M-1.3,89.5c-0.2,0-0.3-0.1-0.3-0.3l0,0v-2.9c0-0.2,0.1-0.3,0.3-0.3c0.2,0,0.3,0.1,0.3,0.3l0,0v2.9C-1,89.4-1.1,89.5-1.3,89.5
					C-1.3,89.5-1.3,89.5-1.3,89.5L-1.3,89.5z M-1.2,83.7L-1.2,83.7c-0.2,0-0.3-0.1-0.3-0.3c0,0,0,0,0,0c0-1,0.2-2,0.3-2.9
					c0-0.2,0.2-0.3,0.3-0.2c0.2,0,0.3,0.2,0.2,0.3l0,0c-0.2,0.9-0.3,1.9-0.3,2.9C-1,83.6-1.1,83.7-1.2,83.7L-1.2,83.7z M-0.2,78
					C-0.3,78-0.3,78-0.2,78c-0.2-0.1-0.3-0.2-0.3-0.4c0.3-0.9,0.6-1.9,1-2.8c0.1-0.1,0.2-0.2,0.4-0.1c0.1,0.1,0.2,0.2,0.1,0.4l0,0
					c-0.4,0.9-0.7,1.8-1,2.7C0,77.9-0.1,78-0.2,78L-0.2,78z M2.1,72.7c-0.1,0-0.1,0-0.1,0c-0.1-0.1-0.2-0.3-0.1-0.4c0,0,0,0,0,0
					c0.5-0.8,1.1-1.6,1.7-2.4c0.1-0.1,0.3-0.1,0.4,0c0.1,0.1,0.1,0.3,0,0.4c-0.6,0.8-1.1,1.5-1.6,2.4C2.3,72.6,2.2,72.7,2.1,72.7
					L2.1,72.7z M5.7,68.1c-0.2,0-0.3-0.1-0.3-0.3c0-0.1,0-0.1,0.1-0.2c0.7-0.7,1.4-1.4,2.2-2c0.1-0.1,0.3-0.1,0.4,0
					c0.1,0.1,0.1,0.3,0,0.4c-0.7,0.6-1.5,1.2-2.1,1.9C5.9,68.1,5.8,68.1,5.7,68.1L5.7,68.1z"/>
				<path id="Path_52073" fill="#701218" d="M10.2,64.4c-0.2,0-0.3-0.1-0.3-0.3c0-0.1,0-0.2,0.1-0.2c0.4-0.3,0.8-0.6,1-0.8l-0.1-1.3
					c0-0.2,0.1-0.3,0.2-0.3c0.2,0,0.3,0.1,0.3,0.2c0,0,0,0,0,0l0.2,1.6l-0.1,0.1c-0.2,0.2-0.6,0.5-1.1,0.9
					C10.4,64.3,10.3,64.4,10.2,64.4z"/>
				<path id="Path_52074" fill="#701218" d="M10.9,59.2c-0.1,0-0.3-0.1-0.3-0.3l-0.3-2.9c0-0.2,0.1-0.3,0.3-0.3
					c0.1,0,0.3,0.1,0.3,0.2l0.3,2.9C11.2,59,11.1,59.2,10.9,59.2L10.9,59.2z M10.2,53.5c-0.1,0-0.3-0.1-0.3-0.3
					c-0.1-0.9-0.2-1.9-0.3-2.9c0-0.2,0.1-0.3,0.2-0.3c0.2,0,0.3,0.1,0.3,0.2c0,0,0,0,0,0c0.1,1,0.2,1.9,0.3,2.9
					C10.5,53.3,10.4,53.5,10.2,53.5L10.2,53.5z M9.6,47.8c-0.1,0-0.3-0.1-0.3-0.3c-0.1-0.9-0.2-1.9-0.3-2.9c0-0.2,0.1-0.3,0.3-0.3
					c0.2,0,0.3,0.1,0.3,0.3c0.1,1,0.2,1.9,0.3,2.9C9.9,47.6,9.8,47.8,9.6,47.8C9.7,47.8,9.7,47.8,9.6,47.8L9.6,47.8z M9.1,42.1
					c-0.1,0-0.3-0.1-0.3-0.3c-0.1-0.9-0.2-1.9-0.3-2.9c0-0.2,0.1-0.3,0.3-0.3s0.3,0.1,0.3,0.3c0.1,1,0.2,1.9,0.3,2.9
					C9.4,41.9,9.2,42.1,9.1,42.1L9.1,42.1z M8.5,36.4c-0.1,0-0.3-0.1-0.3-0.3c-0.1-1-0.2-1.9-0.2-2.9c0-0.2,0.1-0.3,0.3-0.3
					c0.2,0,0.3,0.1,0.3,0.3c0,0,0,0,0,0c0.1,1,0.2,1.9,0.2,2.9C8.8,36.2,8.7,36.4,8.5,36.4C8.5,36.4,8.5,36.4,8.5,36.4L8.5,36.4z
					 M8.1,30.7c-0.1,0-0.3-0.1-0.3-0.3c-0.1-1-0.1-1.9-0.2-2.9c0-0.2,0.1-0.3,0.3-0.3c0.1,0,0.3,0.1,0.3,0.3
					c0.1,0.9,0.1,1.9,0.2,2.9C8.4,30.5,8.2,30.6,8.1,30.7C8.1,30.7,8.1,30.7,8.1,30.7L8.1,30.7z M7.7,24.9c-0.2,0-0.3-0.1-0.3-0.3
					c-0.1-1-0.1-1.9-0.2-2.9c0-0.2,0.1-0.3,0.3-0.3c0.2,0,0.3,0.1,0.3,0.3c0,0,0,0,0,0c0,0.9,0.1,1.9,0.2,2.9
					C8,24.8,7.9,24.9,7.7,24.9L7.7,24.9z M7.4,19.2c-0.2,0-0.3-0.1-0.3-0.3C7.1,18,7,17,7,16.1c0-0.2,0.1-0.3,0.3-0.3
					c0.2,0,0.3,0.1,0.3,0.3c0,0.9,0,1.9,0.1,2.9C7.7,19.1,7.6,19.2,7.4,19.2C7.4,19.2,7.4,19.2,7.4,19.2L7.4,19.2z M7.3,13.5
					c-0.2,0-0.3-0.1-0.3-0.3v-0.7c0-0.7,0-1.5,0-2.2C7,10.1,7.1,10,7.3,10l0,0c0.2,0,0.3,0.1,0.3,0.3c0,0,0,0,0,0c0,0.7,0,1.4,0,2.2
					v0.7C7.6,13.3,7.4,13.5,7.3,13.5C7.3,13.5,7.3,13.5,7.3,13.5L7.3,13.5z M7.4,7.7L7.4,7.7c-0.2,0-0.3-0.1-0.3-0.3c0,0,0,0,0,0
					c0-1,0.1-2,0.2-2.9c0-0.2,0.2-0.3,0.3-0.3c0.2,0,0.3,0.2,0.3,0.3C7.8,5.5,7.7,6.5,7.7,7.5C7.7,7.6,7.5,7.7,7.4,7.7L7.4,7.7z
					 M62.3,7.3C62.3,7.3,62.3,7.3,62.3,7.3l-2.9-0.7c-0.2,0-0.2-0.2-0.2-0.3c0-0.2,0.2-0.2,0.3-0.2l2.8,0.7c0.2,0,0.2,0.2,0.2,0.3
					C62.6,7.2,62.5,7.3,62.3,7.3z M56.8,5.9C56.7,5.9,56.7,5.9,56.8,5.9l-2.8-0.7c-0.2,0-0.2-0.2-0.2-0.3c0-0.2,0.2-0.2,0.3-0.2
					l2.8,0.7c0.2,0,0.2,0.2,0.2,0.3C57,5.8,56.9,5.9,56.8,5.9L56.8,5.9z M51.2,4.5C51.2,4.5,51.1,4.5,51.2,4.5l-2.9-0.7
					c-0.2,0-0.2-0.2-0.2-0.4c0-0.1,0.2-0.2,0.3-0.2l2.8,0.7c0.2,0,0.2,0.2,0.2,0.3C51.4,4.4,51.3,4.5,51.2,4.5L51.2,4.5z M45.6,3.1
					C45.6,3.1,45.6,3.1,45.6,3.1l-2.9-0.7c-0.2,0-0.3-0.2-0.2-0.3s0.2-0.3,0.3-0.2c0,0,0,0,0,0l2.8,0.7c0.2,0,0.2,0.2,0.2,0.3
					C45.9,3,45.8,3.1,45.6,3.1L45.6,3.1z M7.9,2C7.9,2,7.9,2,7.9,2C7.7,2,7.6,1.8,7.6,1.7c0.1-1,0.3-1.9,0.6-2.8
					c0-0.2,0.2-0.2,0.3-0.2c0.2,0,0.2,0.2,0.2,0.3c0,0,0,0,0,0C8.5-0.1,8.3,0.8,8.2,1.8C8.2,1.9,8.1,2,7.9,2L7.9,2z M40.1,1.7
					C40,1.7,40,1.7,40.1,1.7L37.2,1C37.1,1,37,0.8,37,0.7s0.2-0.3,0.3-0.2c0,0,0,0,0,0l2.8,0.7c0.2,0,0.2,0.2,0.2,0.3
					C40.3,1.6,40.2,1.7,40.1,1.7L40.1,1.7z M34.5,0.3C34.5,0.3,34.4,0.3,34.5,0.3c-1-0.2-1.9-0.5-2.9-0.7c-0.2,0-0.3-0.2-0.2-0.3
					s0.2-0.3,0.3-0.2c0,0,0,0,0,0c0.9,0.2,1.8,0.4,2.8,0.7c0.2,0,0.2,0.2,0.2,0.3C34.7,0.2,34.6,0.3,34.5,0.3z M28.9-1
					C28.9-1,28.9-1,28.9-1c-1-0.2-2-0.5-2.9-0.7c-0.2,0-0.2-0.2-0.2-0.4c0-0.1,0.2-0.2,0.3-0.2C27.1-2,28-1.8,29-1.6
					c0.2,0,0.2,0.2,0.2,0.3C29.2-1.1,29-1,28.9-1L28.9-1z M23.3-2.3C23.3-2.3,23.3-2.3,23.3-2.3c-1-0.2-2-0.4-2.9-0.6
					c-0.2,0-0.3-0.2-0.2-0.3c0-0.2,0.2-0.3,0.3-0.2c0,0,0,0,0,0c0.9,0.2,1.8,0.4,2.8,0.6c0.2,0,0.2,0.2,0.2,0.3
					C23.6-2.4,23.5-2.3,23.3-2.3L23.3-2.3z M9.7-3.4c-0.1,0-0.1,0-0.2-0.1C9.4-3.5,9.3-3.7,9.4-3.9c0,0,0,0,0,0
					c0.5-0.9,1.5-1.4,2.5-1.3l0.2,0c0.2,0,0.3,0.2,0.3,0.3c0,0.2-0.2,0.3-0.3,0.3l-0.2,0c-0.8,0-1.6,0.4-2,1.1
					C9.8-3.4,9.8-3.4,9.7-3.4z M17.7-3.6C17.7-3.6,17.7-3.6,17.7-3.6c-1.1-0.2-2.1-0.4-2.9-0.6c-0.2,0-0.3-0.2-0.2-0.3
					c0-0.1,0.2-0.2,0.3-0.2c0.8,0.2,1.8,0.3,2.8,0.6C17.9-4.1,18-4,18-3.8C18-3.7,17.9-3.6,17.7-3.6L17.7-3.6z"/>
				<path id="Path_52075" fill="#701218" d="M67.1,9.6c-0.1,0-0.2-0.1-0.3-0.2l-0.6-1.2L65,7.9c-0.2,0-0.2-0.2-0.2-0.3
					c0-0.2,0.2-0.2,0.3-0.2l1.5,0.4l0.7,1.4c0.1,0.1,0,0.3-0.1,0.4C67.2,9.6,67.2,9.6,67.1,9.6z"/>
				<path id="Path_52076" fill="#701218" d="M72.6,59.3c-0.1,0-0.3-0.1-0.3-0.3L72,56.3c0-0.2,0.1-0.3,0.3-0.3c0,0,0,0,0,0
					c0.2,0,0.3,0.1,0.3,0.2c0,0,0,0,0,0l0.3,2.8C72.9,59.1,72.8,59.3,72.6,59.3C72.6,59.3,72.6,59.3,72.6,59.3L72.6,59.3z M72,53.7
					c-0.1,0-0.3-0.1-0.3-0.3c-0.1-0.9-0.2-1.8-0.3-2.8c0-0.2,0.1-0.3,0.2-0.3s0.3,0.1,0.3,0.2c0,0,0,0,0,0c0.1,0.9,0.2,1.9,0.3,2.8
					C72.3,53.6,72.1,53.7,72,53.7C72,53.7,72,53.7,72,53.7L72,53.7z M71.4,48.2c-0.1,0-0.3-0.1-0.3-0.3c-0.1-0.9-0.2-1.8-0.3-2.8
					c0-0.2,0.1-0.3,0.3-0.3c0.1,0,0.3,0.1,0.3,0.2c0.1,0.9,0.2,1.9,0.3,2.8C71.7,48,71.5,48.1,71.4,48.2
					C71.4,48.2,71.4,48.2,71.4,48.2L71.4,48.2z M70.8,42.6c-0.1,0-0.3-0.1-0.3-0.3c-0.1-0.9-0.2-1.9-0.3-2.8c0-0.2,0.1-0.3,0.3-0.3
					c0.1,0,0.3,0.1,0.3,0.2c0.1,0.9,0.2,1.9,0.3,2.8C71.1,42.4,71,42.6,70.8,42.6L70.8,42.6z M70.3,37c-0.1,0-0.3-0.1-0.3-0.3
					c-0.1-0.9-0.2-1.9-0.2-2.8c0-0.2,0.1-0.3,0.3-0.3c0.2,0,0.3,0.1,0.3,0.3c0,0,0,0,0,0c0.1,0.9,0.2,1.9,0.2,2.8
					C70.6,36.9,70.5,37,70.3,37C70.3,37,70.3,37,70.3,37L70.3,37z M69.8,31.5c-0.1,0-0.3-0.1-0.3-0.3c-0.1-0.9-0.1-1.9-0.2-2.8
					c0-0.2,0.1-0.3,0.3-0.3c0.1,0,0.3,0.1,0.3,0.3c0.1,0.9,0.1,1.9,0.2,2.8C70.1,31.3,70,31.4,69.8,31.5
					C69.8,31.5,69.8,31.5,69.8,31.5L69.8,31.5z M69.4,25.9c-0.2,0-0.3-0.1-0.3-0.3c-0.1-0.9-0.1-1.9-0.2-2.8c0-0.2,0.1-0.3,0.3-0.3
					c0.2,0,0.3,0.1,0.3,0.3c0,0,0,0,0,0c0,0.9,0.1,1.9,0.2,2.8C69.7,25.7,69.6,25.9,69.4,25.9L69.4,25.9z M69.1,20.3
					c-0.2,0-0.3-0.1-0.3-0.3c0-0.9-0.1-1.9-0.1-2.8c0-0.2,0.1-0.3,0.3-0.3c0.2,0,0.3,0.1,0.3,0.3c0,0.9,0.1,1.8,0.1,2.8
					C69.4,20.1,69.3,20.3,69.1,20.3C69.2,20.3,69.2,20.3,69.1,20.3L69.1,20.3z M69,14.7c-0.2,0-0.3-0.1-0.3-0.3c0-0.5,0-1,0-1.5
					l-0.5-1c-0.1-0.1,0-0.3,0.1-0.4c0.1-0.1,0.3,0,0.4,0.1c0,0,0,0,0,0l0.6,1.1v0.1c0,0.5,0,1.1,0,1.6C69.3,14.6,69.1,14.7,69,14.7
					C69,14.7,69,14.7,69,14.7L69,14.7z"/>
			</g>
			<path id="Path_52077" opacity="0.5" fill="#2E4354" enable-background="new    " d="M131.4,308.1c1.3-1,2.3-1.9,2.8-2.3
				c-2.3-22.6-8.1-74.3,0.5-73.5c6,0.6,45.6,11.2,69.9,17.8v41.8c0,11.5-9.3,20.8-20.8,20.8h-40.1c-4.6,0-9-1.5-12.7-4.3
				C131.1,308.3,131.3,308.2,131.4,308.1z"/>
			<path id="Path_52078" fill="#2E4354" d="M212.5,379.8c-8.9-2-15.3-10-15.3-19.2v-31.9c0-8,3.6-15.6,9.9-20.7
				c1.3-1,2.3-1.9,2.8-2.3c-1.4-13.8-4.1-38.5-4.1-55.4c10.4,2.8,17.8,4.9,17.8,4.9C221.2,258.3,233.3,360.9,212.5,379.8z"/>
			<g id="Group_19051" transform="translate(274.375 130.402) rotate(-7)">
				<path id="Path_52079" d="M3.6,426.8L28.1,0.4c0.2-3.5,2.1-6,4.3-5.7c2.2,0.3,3.7,3.4,3.5,6.9L11.3,428L3.6,426.8z"/>
				<path id="Path_52080" d="M9,427.8L7.6,443c-0.1,0.9-0.8,1.5-1.7,1.5c-0.9-0.1-1.5-0.8-1.5-1.7c0,0,0-0.1,0-0.1l1.4-15.3L9,427.8
					z"/>
				<path id="Path_52081" d="M-0.3,426.9l15.5,1.5c0.4,0,0.7-0.2,0.7-0.6l0,0c0-0.4-0.2-0.7-0.6-0.7l-15.5-1.5
					c-0.4,0-0.7,0.2-0.7,0.6c0,0,0,0,0,0l0,0C-0.9,426.6-0.7,426.9-0.3,426.9C-0.3,426.9-0.3,426.9-0.3,426.9z"/>
			</g>
			<path id="Path_52082" fill="#E9A58E" d="M308.7,323.9c0-7.6,6.2-13.8,13.8-13.8s13.8,6.2,13.8,13.8c0,7.6-6.2,13.8-13.8,13.8
				S308.7,331.5,308.7,323.9L308.7,323.9z"/>
			<g id="Group_19053" transform="translate(104.357 220.912)">
				<path id="Path_52083" fill="#83276C" d="M18.7,35.1c-3.1-0.7-6.2-1.2-9.3-1.5C7.1,25.5,4.8,17.5,2.5,9.4
					C2.1,7.9,2.9,6.3,4.4,5.7c41.1-15.8,86-14.5,126,4.4c1.5,0.7,1.6,2.7,1.1,4.2l-4.7,13.2c-2,1-3.9,2.3-5.5,3.9
					c-3.3,3.1-5.8,6.9-7.4,11.1c-27.5-12-58.2-14.2-87.1-6.3C24.1,35.8,21.4,35.4,18.7,35.1z"/>
				<g id="Group_19052">
					<path id="Path_52084" fill="#7792AA" d="M122.9,29.9c1.9-1.7,3.9-3.1,6.2-4.2l4.1-11.4c0.5-1.5-0.2-3.2-1.6-3.8
						c-40-18.9-84.9-20.9-126-5.2C4,5.9,3.7,7.9,4.2,9.5C5.4,14,6.7,18.5,8,23c1.9,1.2,3.7,2.6,5.3,4.3c3.1,3.3,5.3,7.3,6.6,11.6
						c31-10.8,65-9.6,95.2,3.4C116.6,37.6,119.3,33.3,122.9,29.9z"/>
					<path id="Path_52085" fill="#7792AA" d="M-1.1,21.4c2,9.6,9.9,17.5,17.7,17.8S29.2,32,27.2,22.5S17.3,4.9,9.4,4.6
						S-3.1,11.8-1.1,21.4z"/>
				</g>
				<path id="Path_52086" fill="#BDD8E6" d="M135.9,26.6C133.3,36,124.9,43.3,117,43s-12-8.1-9.4-17.5s11.1-16.7,18.9-16.4
					S138.6,17.2,135.9,26.6z"/>
				<path id="Path_52087" fill="#3B1130" d="M96.9,21.8c2.7-9.6,11.5-17.2,19.6-16.9c1,0,2,0.2,3,0.5c-1.7-1.3-3.9-2-6-2.1
					c-8.1-0.3-16.9,7.3-19.6,16.9c-2.4,8.4,0.6,15.6,6.8,17.5C96.6,34.7,95,28.6,96.9,21.8z"/>
				<path id="Path_52088" fill="#3B1130" d="M88.8,19.5C91.5,9.8,100.1,2,108.2,2.1c1,0,2,0.1,2.9,0.4c-1.7-1.3-3.8-1.9-6-1.9
					c-8-0.1-16.7,7.7-19.4,17.4c-2.3,8.4,0.6,15.5,6.7,17.3C88.5,32.4,86.8,26.4,88.8,19.5z"/>
				<path id="Path_52089" fill="#3B1130" d="M22.9,23.9c-3.7-9.3-1.3-20.4,5.4-24.7c0.8-0.5,1.7-1,2.7-1.3c-2.2-0.1-4.3,0.5-6.1,1.7
					c-6.7,4.4-9.1,15.4-5.4,24.7c3.2,8.1,10,12.2,16.1,10.3C30.5,34.4,25.5,30.5,22.9,23.9z"/>
				<path id="Path_52090" fill="#3B1130" d="M14.9,26.5c-3.8-9.4-1.7-20.7,4.7-25.4c0.8-0.6,1.7-1,2.6-1.4c-2.1,0-4.2,0.7-5.9,1.9
					c-6.4,4.6-8.5,16-4.7,25.4c3.3,8.2,10,12.2,15.8,10C22.5,37.1,17.6,33.2,14.9,26.5z"/>
				<path id="Path_52091" fill="#7792AA" d="M119.3,37.7c-3.6,0.2-6.9-1.8-8.5-5c-3.8-7.8,3-17.4,9.4-24.2c0.2-0.2,0.4-0.5,0.5-0.5
					c0.2-0.4,0.7-0.5,1.1-0.2c0.4,0.2,0.5,0.7,0.2,1.1c-0.2,0.3-0.4,0.5-0.7,0.8c-11,11.5-11,18.5-9.1,22.4
					c2.2,4.4,6.9,4.7,10.6,3.6c5.6-1.7,10.8-7.1,9.9-14.2c-0.6-4.7-2.8-7.4-5.9-7.2c-4,0.2-8.4,4.9-8.6,12.2c0,0.4-0.4,0.8-0.8,0.8
					c0,0,0,0,0,0c-0.4,0-0.8-0.4-0.8-0.8c0,0,0,0,0,0c0.1-3.5,1.2-7,3.3-9.8c1.6-2.2,4.1-3.7,6.8-3.9c4.7-0.2,7,4.3,7.5,8.6
					c1,8-4.8,14-11,15.9C122,37.5,120.6,37.7,119.3,37.7z M120.6,8C120.6,8,120.6,8.1,120.6,8L120.6,8z"/>
			</g>
			<path id="Path_52092" fill="#D57872" d="M134.9,318.8c5.4-2.8,36.5-2.8,41.9,0c5.9,3,5.4,6.6,3.9,29.2
				c-1.5,22.2-19.3,20.4-24.8,20.3c-5.5,0.2-23.3,1.9-24.8-20.3C129.5,325.4,129,321.8,134.9,318.8z"/>
			<path id="Path_52093" fill="#D1C38E" d="M181.7,327.8c-3.1,9.5-13.5,16.4-25.8,16.4s-22.7-7-25.8-16.4c0.2-5.4,1.5-7.3,4.8-9
				c5.4-2.8,36.5-2.8,41.9,0C180.2,320.5,181.5,322.4,181.7,327.8z"/>
			<path id="Path_52094" fill="#9F6148" d="M151.1,356.1c0.9-0.7,1.6-1.6,2-2.6c0.3-1.8,1.3-36.5,1.3-36.5c-1.1-1-2.6-1.6-4.1-1.6
				l0,0c-1.5,0-3,0.5-4.2,1.5c0,0,0.9,34.7,1.3,36.5c0.4,1.1,1.1,2,2,2.6c0.3,0.2,0.6,0.3,0.9,0.3
				C150.5,356.4,150.8,356.3,151.1,356.1z"/>
			<path id="Path_52095" fill="#FFFFFF" d="M148.9,353.2c0-0.8,0.6-1.6,1.5-1.6c0.8,0,1.6,0.6,1.6,1.5c0,0.8-0.6,1.6-1.5,1.6
				c0,0,0,0-0.1,0C149.6,354.7,148.9,354,148.9,353.2z"/>
			<g id="Group_19054" transform="translate(147.853 340.646)">
				<path id="Path_52096" fill="#FFFFFF" d="M-1.6,2.1v-6.3c0-0.5,0.5-1,1-0.9h6.1c0.5,0,1,0.4,1,0.9v6.3c0,0.5-0.4,1-1,0.9h-6.1
					C-1.1,3-1.5,2.6-1.6,2.1z M-0.6-4.6c-0.2,0-0.4,0.2-0.4,0.4v6.3c0,0.2,0.2,0.4,0.4,0.4h6.1c0.2,0,0.4-0.2,0.4-0.4v-6.3
					c0-0.2-0.2-0.4-0.4-0.4H-0.6z"/>
			</g>
			<g id="Group_19055" transform="translate(151.59 344.655)">
				<rect id="Rectangle_16096" x="-1.6" y="-5.2" fill="#FFFFFF" width="0.6" height="3.9"/>
			</g>
			<path id="Rectangle_16097" fill="#D57872" d="M215.8,364.6h-2.6c-5,0-9.1-4.1-9.1-9.1l0,0V323c0-5,4.1-9.1,9.1-9.1l0,0h2.6
				c5,0,9.1,4.1,9.1,9.1v32.5C224.9,360.6,220.9,364.6,215.8,364.6z"/>
			<path id="Path_52097" fill="#D1C38E" d="M224.9,320.1v8.7c-0.6,0.3-1.2,0.5-1.9,0.5h-8.9c-2.3,0-4.2-1.9-4.2-4.2v-7
				c0-2.3,1.9-4.2,4.2-4.2h4.6C222.1,313.9,224.9,316.7,224.9,320.1z"/>
			<path id="Path_52098" fill="#D1C38E" d="M143.2,306.3h40.1c11.5,0,20.8-9.3,20.8-20.8v-54.8c0,0-21-17.1-40.9-17.1
				c-7.3,0.1-14.6,0.8-21.8,2c-11,1.8-19.1,11.3-19.1,22.5v47.4C122.3,297,131.7,306.3,143.2,306.3z"/>
			<path id="Path_52099" fill="#D1C38E" d="M212.7,220.8c2.7,0.7-18.5-10.5-48.3-7.3c-4.3,7.4,10.4,8.6,13.9,8.3s25.1-2.9,25.8-2.8
				C207,219.5,209.9,220.1,212.7,220.8z"/>
			<g id="Group_19058" transform="translate(180.725 251.738)">
				<path id="Path_52100" opacity="0.49" fill="#C74354" enable-background="new    " d="M4,38.8c1.4-0.1,2.8-0.3,4.2-0.8
					C8.1,48.1,7.9,56.3,7.8,57.4c-0.4,2.3-3,4.3-3,4.3c-0.4,0.3-0.9,0.5-1.4,0.5c-0.5-0.1-1-0.2-1.4-0.5c0,0-2.6-2-3-4.3
					c-0.1-1-0.3-8.7-0.3-18.3C0.4,39.3,2.2,39.2,4,38.8z"/>
				<path id="Path_52101" fill="#B36C40" d="M4.4,60.3c0,0,2-1.5,2.4-3.3C7.2,54.7,8.4-1.9,8.4-1.9S6.5-5.2,3.5-5.2H3.3
					c-1.8,0-3.5,0.6-4.8,1.7c0,0,1.1,58.2,1.5,60.5c0.3,1.7,2.4,3.3,2.4,3.3c0.3,0.2,0.7,0.4,1.1,0.4C3.7,60.6,4.1,60.5,4.4,60.3z"
					/>
				<g id="Group_19056" transform="translate(0.257 39.869)">
					<path id="Path_52102" fill="#FFFFFF" d="M-1.6,3.8V-4c0-0.6,0.5-1.2,1.2-1.2h7.2C7.5-5.2,8-4.7,8-4v7.8C8,4.5,7.5,5,6.8,5h-7.2
						C-1,5-1.6,4.5-1.6,3.8z M-0.4-4.5c-0.3,0-0.5,0.2-0.5,0.5l0,0v7.8c0,0.3,0.2,0.5,0.5,0.5l0,0h7.2c0.3,0,0.5-0.2,0.5-0.5V-4
						c0-0.3-0.2-0.5-0.5-0.5H-0.4z"/>
				</g>
				<g id="Group_19057" transform="translate(4.715 44.843)">
					<rect id="Rectangle_16098" x="-1.6" y="-5.2" fill="#FFFFFF" width="0.7" height="4.8"/>
				</g>
				<path id="Path_52103" d="M2.9,39.6c0-0.4,0.3-0.7,0.7-0.7c0.4,0,0.7,0.3,0.7,0.7c0,0.4-0.3,0.7-0.7,0.7c0,0,0,0,0,0
					C3.2,40.2,2.9,39.9,2.9,39.6C2.9,39.6,2.9,39.6,2.9,39.6z"/>
			</g>
			<g id="Group_19061" transform="translate(134.917 251.738)">
				<path id="Path_52104" opacity="0.49" fill="#C74354" enable-background="new    " d="M4,38.8c1.4-0.1,2.8-0.3,4.2-0.8
					C8.1,48.1,7.9,56.3,7.8,57.4c-0.4,2.3-3,4.3-3,4.3c-0.4,0.3-0.9,0.5-1.4,0.5c-0.5-0.1-1-0.2-1.4-0.5c0,0-2.6-2-3-4.3
					c-0.1-1-0.3-8.7-0.3-18.3C0.4,39.3,2.2,39.2,4,38.8z"/>
				<path id="Path_52105" fill="#B36C40" d="M4.4,60.3c0,0,2-1.5,2.4-3.3C7.2,54.7,8.4-1.9,8.4-1.9S6.5-5.2,3.5-5.2H3.3
					c-1.8,0-3.5,0.6-4.8,1.7c0,0,1.1,58.2,1.5,60.5c0.3,1.7,2.4,3.3,2.4,3.3c0.3,0.2,0.7,0.4,1.1,0.4C3.7,60.6,4.1,60.5,4.4,60.3z"
					/>
				<g id="Group_19059" transform="translate(0.257 39.869)">
					<path id="Path_52106" fill="#FFFFFF" d="M-1.6,3.8V-4c0-0.6,0.5-1.2,1.2-1.2h7.2C7.5-5.2,8-4.7,8-4v7.8C8,4.5,7.5,5,6.8,5h-7.2
						C-1,5-1.6,4.5-1.6,3.8z M-0.4-4.5c-0.3,0-0.5,0.2-0.5,0.5l0,0v7.8c0,0.3,0.2,0.5,0.5,0.5l0,0h7.2c0.3,0,0.5-0.2,0.5-0.5l0,0V-4
						c0-0.3-0.2-0.5-0.5-0.5l0,0H-0.4z"/>
				</g>
				<g id="Group_19060" transform="translate(4.715 44.843)">
					<rect id="Rectangle_16099" x="-1.6" y="-5.2" fill="#FFFFFF" width="0.7" height="4.8"/>
				</g>
				<path id="Path_52107" d="M2.9,39.6c0-0.4,0.3-0.7,0.7-0.7c0.4,0,0.7,0.3,0.7,0.7c0,0.4-0.3,0.7-0.7,0.7c0,0,0,0,0,0
					C3.2,40.2,2.9,39.9,2.9,39.6L2.9,39.6z"/>
			</g>
			<path id="Path_52108" fill="#D1C38E" d="M204.1,230.6c1.3-0.3-0.7-8.8,11.8-8.7l-2.6-0.7l-16.7-5l-14.9,1.3l0,2.7l9.2,10.5
				l4.7,0.9C195.7,231.6,203.2,230.8,204.1,230.6z"/>
			<path id="Path_52109" fill="#B36C40" d="M189.1,249.8c0,0-2.7-32.5,8.1-34.4c-4.6-1.3-9.3-2-14.1-2.1c0,0-4,3.7-4,35
				C181.8,250.8,185.8,251.4,189.1,249.8z"/>
			<path id="Path_52110" fill="#B36C40" d="M143.4,249.8c0,0-2.7-33.7,8.1-35.6c-6.6-2.1-14.6,2.4-14.6,2.4s-3.4,0.4-3.4,31.6
				C136.1,250.8,140.1,251.4,143.4,249.8z"/>
		</g>
	</g>
	<g id="Group_19080" transform="translate(233.548 -12.734) rotate(3)">
		<path id="Path_52130" fill="#FFFFFF" d="M387.3,125c0,0,97-13,157.2-18.2c60.2-5.2,56.9,5.2,62.4,6.5
			c5.6,1.3,15.6,152.2,15.6,152.2s-41.3-14.3-79.2-9.1c-37.9,5.2-136.1,24.7-136.1,24.7S426.3,188.8,387.3,125z"/>
	</g>
	<g id="Group_19081" transform="translate(653.772 164.206) rotate(-13)">
		
			<linearGradient id="Path_34493_1_" gradientUnits="userSpaceOnUse" x1="-94.3748" y1="572.7305" x2="-99.1978" y2="569.4315" gradientTransform="matrix(24.4126 5.7836 5.6361 -25.0513 -812.8246 14891.0518)">
			<stop  offset="0" style="stop-color:#7792AA"/>
			<stop  offset="1" style="stop-color:#2E4354"/>
		</linearGradient>
		<path id="Path_34493" fill="url(#Path_34493_1_)" d="M81,29.9c4.8,0.9,9.6-1.1,12.5-5l-8.4-1.4c-3.4,1.2-7.1-0.6-8.3-4.1
			c-1.2-3.4,0.6-7.1,4.1-8.3c1.9-0.7,4-0.4,5.7,0.7l8.7,1.4C93.1,6.6,85.9,2.8,79.2,5c-6.7,2.2-10.5,9.4-8.3,16.1
			C72.3,25.7,76.3,29.1,81,29.9L81,29.9z"/>
		
			<linearGradient id="Path_34494_1_" gradientUnits="userSpaceOnUse" x1="-72.7836" y1="567.0987" x2="-73.8936" y2="566.4067" gradientTransform="matrix(106.0748 27.5476 24.4893 -119.3219 -6034.9146 69700.1563)">
			<stop  offset="0" style="stop-color:#7792AA"/>
			<stop  offset="1" style="stop-color:#2E4354"/>
		</linearGradient>
		<path id="Path_34494" fill="url(#Path_34494_1_)" d="M74.6,68c0.4-2.2,1-4.4,1.7-6.5c16.3,8.4,36.1,5.9,49.8-6.2l-5-3.6
			c-12.4,11.1-29,11-42.4,3.8c0.5-1,1-2,1.5-3c12.2,6.6,26.9,6.8,38.2-3.3l-4.1-4.3c-9.1,8.1-20.8,7.3-30.7,2.2
			c0.7-0.9,1.4-1.8,2.1-2.7l0.1,0l0.1,0.1l0,0c8.6,4.1,18.2,4.1,25.9-2.8l-3-5.3c-4,4.7-12.3,6.4-19.8,2.9
			c12.1-3.2,19.3-15.6,16-27.7S89.3-7.9,77.2-4.7C65.2-1.4,58,11,61.2,23.1c0.8,2.8,2,5.4,3.8,7.8c-17.6-1.4-36.9,5.8-47.9,22.1
			l5.3,3.6C35.1,37.8,59.6,31.2,80,40.9c-6.5,8.4-10.7,18.3-12.2,28.8l-0.4,2.8l2.7,0.8c19.4,5.8,32.7,23.6,32.7,43.8h6.4
			c0-11.4-3.7-22.4-10.6-31.4C92.5,77.5,84.1,71.4,74.6,68z M67.1,14.6c1.4-8.8,9.7-14.8,18.6-13.4C93.4,2.5,99.2,9.1,99.3,17
			l-15.7-2.5c-1.5-0.3-3,0.6-3.3,2.2c-0.3,1.5,0.6,3,2.2,3.3c0.1,0,0.2,0,0.3,0l15.7,2.5c-2.9,8.4-12.2,12.9-20.6,10
			C70.3,29.9,65.8,22.4,67.1,14.6L67.1,14.6z"/>
		
			<linearGradient id="Path_34495_1_" gradientUnits="userSpaceOnUse" x1="-73.443" y1="568.8854" x2="-74.655" y2="567.7854" gradientTransform="matrix(97.1964 17.3222 22.4395 -75.0306 -5490.4189 43989.9336)">
			<stop  offset="0" style="stop-color:#7792AA"/>
			<stop  offset="1" style="stop-color:#2E4354"/>
		</linearGradient>
		<path id="Path_34495" fill="url(#Path_34495_1_)" d="M65,75.5c-0.6-0.1-1.1-0.6-1.1-1.1c0.5-10,3.3-19.7,8.2-28.4l2.2-3.7l-4.2-1
			c-8.2-2-16.9-1.5-24.8,1.5c-8.1,3-15.1,8.5-20,15.7l5.3,3.6c7.5-11.1,20.6-17,33.8-15.3c-0.5,1-1,2-1.4,3.1
			c-11.7-1-23,4.4-29.6,14.1l5.3,3.6c2.8-4.1,6.7-7.3,11.2-9.3c-1,4-1.7,8.1-2.1,12.1c-10,4.4-21.7,2-29.2-6L14,68.8
			c8.7,9.2,22,12.5,34,8.4c0.2,1.1,0.5,2.2,0.8,3.3c-13.2,4.4-27.7,0.7-37.3-9.4l-4.7,4.4c11.6,12.3,29.5,16.5,45.3,10.6
			c0.9,0.9,1.8,1.8,2.9,2.5c-17.5,7.3-37.7,3-50.7-10.8l-4.7,4.4c16.5,17.5,42.8,21.4,63.7,9.5c11.6,2.9,19.8,13.3,19.8,25.2h6.4
			c0-15.4-10.9-28.7-26-31.7c-6.2-1.1-9.8-5.5-9.5-12c0.4-5.8,1.4-11.5,3.1-17c1.1-0.1,2.3-0.2,3.5-0.2c-1.8,5.8-2.9,11.8-3.2,17.8
			c-0.2,3.8,2.5,7.1,6.2,7.8C80.7,85.3,93,100.1,93,117h6.4c0-9.9-3.6-19.4-10-27C83.2,82.6,74.6,77.5,65,75.5z"/>
	</g>
</g>
</svg>
