<svg xmlns="http://www.w3.org/2000/svg" xmlns:xlink="http://www.w3.org/1999/xlink" width="1920" height="487" viewBox="0 0 1920 487">
  <defs>
    <clipPath id="clip-path">
      <rect id="Rectangle_16350" data-name="Rectangle 16350" width="1920" height="487" transform="translate(0 2753)" fill="#fff" stroke="#707070" stroke-width="1"/>
    </clipPath>
  </defs>
  <g id="Mask_Group_55" data-name="Mask Group 55" transform="translate(0 -2753)" clip-path="url(#clip-path)">
    <g id="Group_19021" data-name="Group 19021" transform="translate(-373.114 2262.143)" opacity="0.812">
      <path id="Path_35988" data-name="Path 35988" d="M2063.676,605.968l-50.911,24.182-64.013,17.07-31.3,18.492-23.212-8.73-23.772-8.041L1843.9,636.007l-56.548-2-41.023-4.558-28-18.232-37.117-20.187-25.4-16.279L1612.842,546.1,1592,541.538l-14.326,6.512-42.325,22.139-24.745,22.14-15.179,57.852L2011.1,735.8l52.572-20.837Z" transform="translate(230.293 133.818)" fill="#fae6c4" fill-rule="evenodd"/>
      <path id="Path_35990" data-name="Path 35990" d="M374.178,648.6l35.686-5.564L458.325,632.7l46.872-.8,69.117-5.563,85.8-15.9,69.117-10.333L1095.963,534.6l207.623,57.249,46.871-1.591s62.357,3.849,61.172.8,90.3-17.244,90.3-17.244l37.749,2.393,24.731,14.978,40.35,20.186,13.016-4.558L1633.389,599l15.62-18.883,26.032-20.838,25.381-26.047,4.556-12.373,14.318,2.6,14.968,14.326L1759,546.9l35.145,23.442,37.747,42.326,55.969,14.977,97.123,38.418,46.4,11.447,38.77.636,44.489,22.256,36.226,7.631,15.253-.636,41.947-10.174,31.779-15.261,54.133-34.657V749.053l-74.73,26.475L2048.7,768.575l-133.466-18.759-259.5-44.334-225.353-28.017L726.51,656.8l-353.4,61.6v-67.69Z" transform="translate(0 129.247)" fill="#e6dcbd" fill-rule="evenodd"/>
      <path id="Path_35991" data-name="Path 35991" d="M374.2,727.487l58.629-23.47,37.971-5.335,27.121-19.2,28.208-25.606,29.291-7.469,49.906,10.67,45.565,5.334,31.462-18.137,37.761-42.983,38.8-28.616L808.7,571.4l40.739-6.36,52.378-30.523,26.512-1.273L991.7,501.452l30.392-28.616,14.873-6.994,22.633-19.077,16.812,2.543,14.227,1.908,18.106-5.723,8.406-.635,20.694,27.343,21.339,13.354,27.158,22.258,23.925,24.8s96.27,60.48,100.745,61.894,51.041,27.934,51.041,27.934l48.159-4.135,61.234,6.233,53.2-17.608,29.19,18.057,31.869,28.005,36.615,22.672,54.922,16,97.9,11.872,66.82,13.779,75.441,20.136-416.865,44.005-168.127-29.674s-149.107-5.89-142.276-5.364-291.4-2.689-291.4-2.689L746.8,783.189,596.97,803.083,373.114,785.317V729.875Z" transform="translate(-26.478 127)" fill="#b7bec7" fill-rule="evenodd"/>
      <path id="Path_35992" data-name="Path 35992" d="M373.114,737.113l107.159-6.756,38.663-8.479,24.892,11.128s29.129-1.59,31.777-1.059,21.715,4.239,24.363,3.179,46.607-17.487,46.607-17.487l42.371-4.239,16.418-3.181L729.2,722.938l14.3-1.059,39.965-39.451,61.609-25.179,48.595-32.124,44.254-27.782,24.3,4.341,45.124,12.154,24.01-1.258,42.5,4.174,150.237,31,58,15.23,27.779,5.8,20.482,8.981,53.9,26.453,104.231-6.037,72.2,7.224,32.766,11.113,74.418-2.222,21.658-14.448,22.693,3.477,54.841,3.473,52.066-.7,52.757-13.891,31.24-2.778,34.71,6.945c3.471.7,89.551,8.335,89.551,8.335l61.889,28.969,41.709-6.755,25.818,4.769,46.476,8.346,39.722-1.192,50.977-14.308v64.386l-39.854,8.345-70.706.4L2077.35,787.342l-108.441-13.91-73.089,16.692-429,19.872-127.111,13.513S844.475,763.627,841.6,776.61,660.352,822.2,660.352,822.2l-287.238,8.461Z" transform="translate(0 129.335)" fill="#b7bec7" fill-rule="evenodd"/>
      <path id="Path_35995" data-name="Path 35995" d="M373.114,887.6l97.614-43.454L688.3,883.891l341.339-15.74,42.348-5.521,141.817,18.664,117.67,33.969,71-5.335,62.811-17.336,51.887,13.336,23.213-4,25.945-7.335,27.308-15.336,84.659-20,83.975,12.669,71.776-11.19,99.678-9.334,58.716-24.672,84.657,12,78.514,12,128.339,20.446,56.988-19.713v71.282l-74.566,50.175L373.114,953.129Z" transform="translate(0 23.343)" fill="#cecabf" fill-rule="evenodd"/>
    </g>
  </g>
</svg>
