<?xml version="1.0" encoding="utf-8"?>
<!-- Generator: Adobe Illustrator 24.1.2, SVG Export Plug-In . SVG Version: 6.00 Build 0)  -->
<svg version="1.1" id="Слой_1" xmlns="http://www.w3.org/2000/svg" xmlns:xlink="http://www.w3.org/1999/xlink" x="0px" y="0px"
	 viewBox="0 0 159.2 131" enable-background="new 0 0 159.2 131" xml:space="preserve">
<g>
	<path fill="#4D6982" d="M70.9,0H3.2C1.4,0,0,1.9,0,4.3v122.4c0,2.5,1.4,4.3,3.2,4.3h67.7c1,0,1.8-0.5,2.4-1.4
		c0.5-0.8,0.8-1.8,0.8-2.9V4.3C74.2,1.9,72.8,0,70.9,0z M72.2,126.7c0,0.7-0.2,1.4-0.5,1.8c-0.2,0.2-0.4,0.5-0.8,0.5H3.2
		c-0.7,0-1.2-1-1.2-2.3V4.3C2,3,2.5,2,3.2,2h67.7c0.7,0,1.2,1,1.2,2.3V126.7z"/>
	<g>
		<rect x="10.2" y="21.7" fill="#4D6982" width="31" height="2"/>
		<rect x="10.2" y="12.3" fill="#4D6982" width="31" height="2"/>
		<rect x="10.2" y="31.2" fill="#4D6982" width="31" height="2"/>
		<rect x="10.2" y="40.7" fill="#4D6982" width="30.2" height="2"/>
		<rect x="10.2" y="50.1" fill="#4D6982" width="54.6" height="2"/>
		<rect x="10.2" y="59.6" fill="#4D6982" width="54.6" height="2"/>
		<rect x="10.2" y="69" fill="#4D6982" width="54.6" height="2"/>
		<rect x="10.2" y="78.5" fill="#4D6982" width="54.6" height="2"/>
		<rect x="10.2" y="87.9" fill="#4D6982" width="54.6" height="2"/>
		<rect x="10.2" y="97.4" fill="#4D6982" width="54.6" height="2"/>
		<rect x="10.2" y="106.8" fill="#4D6982" width="54.6" height="2"/>
		<rect x="10.2" y="116.3" fill="#4D6982" width="54.6" height="2"/>
	</g>
</g>
<g>
	<path fill="#4D6982" d="M156,0H88.3c-1.8,0-3.2,1.9-3.2,4.3v122.4c0,2.5,1.4,4.3,3.2,4.3H156c0.7,0,1.4-0.3,2-0.9
		c0.8-0.8,1.2-2,1.2-3.5V4.3C159.2,1.9,157.8,0,156,0z M157.2,126.7c0,0.9-0.2,1.6-0.7,2c-0.2,0.2-0.4,0.3-0.6,0.3H88.3
		c-0.7,0-1.2-1-1.2-2.3V4.3C87.1,3,87.6,2,88.3,2H156c0.7,0,1.2,1,1.2,2.3V126.7z"/>
	<g>
		<rect x="118.9" y="21.7" fill="#4D6982" width="31" height="2"/>
		<rect x="118.9" y="12.3" fill="#4D6982" width="31" height="2"/>
		<rect x="118.9" y="31.2" fill="#4D6982" width="31" height="2"/>
		<rect x="119.3" y="40.7" fill="#4D6982" width="30.6" height="2"/>
		<rect x="95.3" y="50.1" fill="#4D6982" width="54.6" height="2"/>
		<rect x="95.3" y="59.6" fill="#4D6982" width="54.6" height="2"/>
		<rect x="95.3" y="69" fill="#4D6982" width="54.6" height="2"/>
		<rect x="95.3" y="78.5" fill="#4D6982" width="54.6" height="2"/>
		<rect x="95.3" y="87.9" fill="#4D6982" width="54.6" height="2"/>
		<rect x="95.3" y="97.4" fill="#4D6982" width="54.6" height="2"/>
		<rect x="95.3" y="106.8" fill="#4D6982" width="54.6" height="2"/>
		<rect x="95.3" y="116.3" fill="#4D6982" width="54.6" height="2"/>
	</g>
</g>
<g id="Material_icons-02-41" transform="translate(1493.695 107.259)">
	<path id="Path_32693" fill="#29CB97" d="M-1435.3-86.5L-1447-73l11.7,13.4l3.5-4l-5.8-6.6h31.8v-5.7h-31.7l5.7-6.5L-1435.3-86.5z"
		/>
	<path id="Path_34211" fill="#29CB97" d="M-1392.6-98.9l11.7,13.4l-11.7,13.4l-3.5-4l5.8-6.6h-31.8v-5.7h31.7l-5.7-6.5L-1392.6-98.9
		z"/>
</g>
</svg>
