<?xml version="1.0" encoding="utf-8"?>
<!-- Generator: Adobe Illustrator 24.1.2, SVG Export Plug-In . SVG Version: 6.00 Build 0)  -->
<svg version="1.1" id="Group_15899" xmlns="http://www.w3.org/2000/svg" xmlns:xlink="http://www.w3.org/1999/xlink" x="0px"
	 y="0px" width="111.3px" height="107.8px" viewBox="0 0 111.3 107.8" enable-background="new 0 0 111.3 107.8"
	 xml:space="preserve">
<linearGradient id="Path_34493_1_" gradientUnits="userSpaceOnUse" x1="29.9142" y1="79.5913" x2="34.7372" y2="76.2923" gradientTransform="matrix(22.0552 0 0 -22.6314 -646.6766 1803.882)">
	<stop  offset="0" style="stop-color:#7792AA"/>
	<stop  offset="1" style="stop-color:#2E4354"/>
</linearGradient>
<path id="Path_34493" fill="url(#Path_34493_1_)" d="M39.6,31.1c-4.2,0.8-8.5-0.9-11-4.4l7.4-1.2c3,1,6.3-0.6,7.3-3.6
	c1-3-0.6-6.3-3.6-7.3c-1.7-0.6-3.5-0.3-5,0.6l-7.6,1.2c1.9-5.9,8.3-9.2,14.2-7.3c5.9,1.9,9.2,8.3,7.3,14.2
	C47.3,27.4,43.8,30.4,39.6,31.1L39.6,31.1z"/>
<linearGradient id="Path_34494_1_" gradientUnits="userSpaceOnUse" x1="31.6074" y1="78.0066" x2="32.7174" y2="77.3146" gradientTransform="matrix(95.8881 0 0 -107.8021 -3036.4189 8438.5273)">
	<stop  offset="0" style="stop-color:#7792AA"/>
	<stop  offset="1" style="stop-color:#2E4354"/>
</linearGradient>
<path id="Path_34494" fill="url(#Path_34494_1_)" d="M45.3,64.6c-0.4-1.9-0.9-3.8-1.5-5.7C29.5,66.3,12,64,0,53.3L3.8,49
	c10.5,9.3,25.6,11.2,38,4.5c-0.4-0.9-0.9-1.8-1.3-2.7C29.2,57,15.3,55.3,5.8,46.8l3.8-4.2c7.7,6.8,18.8,8.2,27.9,3.5
	c-0.6-0.8-1.2-1.6-1.8-2.4l-0.1,0l-0.1,0.1l0,0c-7.9,3.8-17.4,2.5-23.9-3.4l3.8-4.2c3.5,4.1,10.8,6.1,17.4,3
	C22,36.3,15.7,25.4,18.6,14.7C21.4,4.1,32.3-2.2,43,0.6c10.6,2.8,16.9,13.8,14.1,24.4c-0.7,2.5-1.8,4.8-3.3,6.8
	c15.5-1.2,32.5,5.1,42.1,19.5l-4.7,3.2C80,38.1,58.5,32.2,40.6,40.8c5.8,7.4,9.5,16.1,10.7,25.3l0.3,2.4l-2.3,0.7
	c-17,5.1-28.7,20.7-28.8,38.5h-5.7c0-10,3.3-19.7,9.3-27.7C29.6,73,36.9,67.6,45.3,64.6z M51.9,17.6c-1.3-7.8-8.6-13-16.3-11.8
	c-6.8,1.1-11.9,7-12,13.9l13.9-2.2c1.3-0.2,2.6,0.7,2.8,2c0.2,1.3-0.7,2.6-2,2.8l-13.9,2.2C27,32,35.1,36,42.5,33.4
	C49.1,31.1,53,24.5,51.9,17.6L51.9,17.6z"/>
<linearGradient id="Path_34495_1_" gradientUnits="userSpaceOnUse" x1="31.2616" y1="78.5215" x2="32.4736" y2="77.4215" gradientTransform="matrix(87.8129 0 0 -67.7929 -2754.5447 5357.8228)">
	<stop  offset="0" style="stop-color:#7792AA"/>
	<stop  offset="1" style="stop-color:#2E4354"/>
</linearGradient>
<path id="Path_34495" fill="url(#Path_34495_1_)" d="M53.7,71.2c0.5-0.1,1-0.5,1-1c-0.4-8.8-2.9-17.3-7.3-25l-1.9-3.3l3.7-0.9
	c7.3-1.8,14.9-1.3,21.9,1.3c7.2,2.7,13.3,7.5,17.6,13.9L84,59.4c-6.6-9.8-18.1-15-29.8-13.5c0.4,0.9,0.8,1.8,1.2,2.7
	c10.3-0.9,20.3,3.9,26.1,12.4l-4.7,3.2c-2.4-3.6-5.9-6.5-9.9-8.2c0.9,3.5,1.5,7.1,1.9,10.7c8.8,3.8,19.1,1.7,25.7-5.3l4.1,3.9
	c-7.7,8.1-19.3,11-29.9,7.4c-0.2,1-0.4,2-0.7,2.9c11.6,3.8,24.4,0.6,32.8-8.3l4.1,3.9c-10.2,10.8-25.9,14.5-39.9,9.4
	c-0.8,0.8-1.6,1.6-2.6,2.2c15.4,6.4,33.2,2.6,44.6-9.5l4.1,3.9c-14.5,15.4-37.7,18.8-56.1,8.4C45,88.1,37.8,97.3,37.8,107.8h-5.7
	c0-13.6,9.6-25.2,22.9-27.9c5.5-0.9,8.6-4.9,8.3-10.6c-0.3-5.1-1.3-10.1-2.8-14.9c-1-0.1-2-0.2-3-0.2c1.6,5.1,2.6,10.4,2.9,15.7
	c0.1,3.3-2.2,6.3-5.5,6.9c-14.9,3.1-25.7,16.1-25.7,31h-5.7c0-8.7,3.2-17.1,8.8-23.7C37.8,77.5,45.3,72.9,53.7,71.2z"/>
</svg>
