<?xml version="1.0" encoding="utf-8"?>
<!-- Generator: Adobe Illustrator 24.1.2, SVG Export Plug-In . SVG Version: 6.00 Build 0)  -->
<svg version="1.1" id="Слой_1" xmlns="http://www.w3.org/2000/svg" xmlns:xlink="http://www.w3.org/1999/xlink" x="0px" y="0px"
	 viewBox="0 0 300 200" enable-background="new 0 0 300 200" xml:space="preserve">
<g>
	<rect fill="none" width="300" height="200"/>
	<g>
		<rect x="0" y="33" fill="#D1C38E" width="300" height="134"/>
	</g>
</g>
<g id="Group_19854" transform="translate(7546.988 9892.277)">
	<g id="Group_19848" transform="translate(-7435.716 -9892.277)">
		<g id="Group_13494">
			<path id="Path_35571" fill="#D1C38E" d="M70,16.8L69.3,8c-1.3-1.8-3.4-2.8-5.6-2.7c-4.1,0.3-7,5-6.6,10.4s4.1,9.6,8.1,9.3
				c2.8-0.2,5.1-2.6,6.1-5.8C70.6,18.6,70.1,17.7,70,16.8z"/>
			<path id="Path_35572" fill="#D1C38E" d="M53.6,20.8c-0.2,1.4,1.1,2.8,3.1,3.1l4.5,0.8c2,0.3,3.7-0.5,4-1.9l2.2-12.7
				c0.2-1.4-1.1-2.8-3.1-3.1l-4.5-0.8c-2-0.3-3.7,0.5-4,1.9L53.6,20.8z"/>
			<path id="Path_35573" fill="#E9D6B8" d="M65,27c2.6,1.3,3.9,1.1,1.9,1.8c-1.1,1.1-13.5-1.4-14-3c-0.1-0.3,5-0.7,5.1-0.9
				c0.5-2.2,0.6-4.5,0.2-6.7c0-0.2,0.2-0.3,0.4-0.3c0.9,0.1,1.9,0.2,2.9,0.3c0.2,0,2,0.6,1.5,1.4C62.5,22.1,62.3,25.6,65,27z"/>
			<path id="Path_35574" fill="#E9D6B8" d="M66.3,19.7c0.1-0.1,0.1-0.2,0.1-0.3c0,0,0-0.1,0-0.1c0.1-0.1,0.1-0.2,0.2-0.3
				c0,0,0-0.1,0-0.1c0-0.1,0.1-0.2,0.1-0.3c0,0,0-0.1,0.1-0.1c0-0.1,0.1-0.2,0.1-0.2c0-0.1,0-0.1,0.1-0.2c0-0.1,0.1-0.2,0.1-0.3
				c0-0.1,0-0.2,0.1-0.2s0-0.1,0.1-0.2s0-0.1,0.1-0.2s0-0.1,0-0.2s0-0.1,0-0.2v0c0.2-2.4,0.1-4.9-0.4-7.3C67,9.2,66.7,9,66.4,9.1
				c-2.2,0.1-8.9-0.7-7.6,5.6l0,0c0,0,0.1,0.5,0.1,0.8l0,0.1c0,0.2,0.1,0.5,0.1,0.7c0,0,0,0,0,0c0.1,0.2,0.1,0.5,0.2,0.7
				c0,0,0,0,0,0c0.8,2.9,2.3,5,4.1,4.9c1.2-0.1,2.2-0.8,2.8-1.9l0,0c0,0,0,0,0,0C66.2,20,66.2,19.9,66.3,19.7
				C66.3,19.8,66.3,19.7,66.3,19.7z"/>
			<path id="Path_35575" fill="#E2C59C" d="M90.5,27.6c0,0,0.5,0.3,0.7-0.1c0.3-0.7,0.5-1.5,0.6-2.4c0.1-0.5-0.1-3.1-0.1-3.1
				c-0.4,0.5-0.5,1.1-0.5,1.8C91.2,25.2,90.9,26.4,90.5,27.6z"/>
			<path id="Path_35576" fill="#E2C59C" d="M90.6,27.3c0.4-1,0.4-2.2-0.2-3.2c-0.3-0.6-0.3-1.3,0-1.9c0.4,0.9,0.7,1.7,0.9,2.7
				c0.2,0.5,0.2,1.1,0.2,1.7C91.4,28.2,89.4,29.4,90.6,27.3z"/>
			<path id="Path_35577" fill="#E9D6B8" d="M65.1,170.1c-1.2-0.4-2.5-0.8-3.8-1c-1.6-0.3-2.8-0.3-3.4-0.9c-1-1-0.3-4.2-0.8-4
				c-2.3,0.5-3.1,5.9-1.8,6.6s8.9,0.4,9.5,0.4S65.3,169.9,65.1,170.1z"/>
			<path id="Path_35578" fill="#E9D6B8" d="M48.5,109.6c0.3-1.3,0.6-2.7,1-4c1.1-1.9,2-2.9,2.8-2.8c2.7,0.5,5.2,11.2-3.6,37
				c-0.4,1.3-6.2,23.7-6.3,23.2C41.4,156.3,43.8,129.6,48.5,109.6z"/>
			<path id="Path_35579" fill="#E9D6B8" d="M51.4,70.4c2.2-0.4,2.2,0.9,3.7,4.1c2.9,6.2,4.5,15.3,3.2,25
				c-1.5,11.3-4.6,21.2-8.2,27.4c-2.1-5.3-3.1-11.7-3.9-18.8C43.7,86,44.7,71.5,51.4,70.4z"/>
			<path id="Path_35580" fill="#E2C59C" d="M53.6,95.7c-2.8-0.7-5.6-1-8.5-1c0.2,3.7,0.5,7.8,1,12.2c3.2-3.5,9.5-1.6,10.9,0.2
				c0.5-2.5,0.9-5,1.3-7.6c0.1-0.8,0.2-1.5,0.2-2.3C56.9,96.7,55.3,96.2,53.6,95.7z"/>
			<path id="Path_35581" fill="#E9D6B8" d="M38.7,41.1c3.2,3,6.2,16.4,6.2,16.4s-0.4,5.3-7.6-11.5C35.2,40.9,37.9,40.4,38.7,41.1z"
				/>
			<path id="Path_35582" fill="#E9D6B8" d="M72,36.7c2.3,2,4.1,8.4,5.5,12.5c0.5,1.3,0.6,2.7,0.3,4c0,0-1.2,5.2-6.6-9.6
				C69.9,39.9,71.1,36,72,36.7z"/>
			<path id="Path_35583" fill="#E9D6B8" d="M75.8,52.9c0.4-5.3,10.8-18.8,10.8-18.8s5.3-3.9-5.2,16.1C78.3,56.3,75.7,54.2,75.8,52.9
				z"/>
			<path id="Path_35584" fill="#E9D6B8" d="M90.6,26.3l0.4,0.3l0.2,1.7c-0.4,1.3-1,2.6-1.7,3.8c-0.7,0.9-2,5.3-2.3,5.8
				s-2.9,0.3-2.9,0.3s2.4-4.1,3.2-5.8c0.8-1.7,1.1-4.5,1.4-5.2c0.5-1.2,0.7-1.8,0.7-1.8s0.6,0.4-0.1,2.2C89.3,28,90,27.9,90,27.9
				L90.6,26.3z"/>
			<path id="Path_35585" fill="#E9D6B8" d="M64.7,79.2c-2.7,5.5-4.6,13.9-4.5,23c0.2,10.7,1.7,20.1,3.9,26.1c2-4.8,3-10.8,4.5-17.3
				C73.1,91,66.1,76.3,64.7,79.2z"/>
			<path id="Path_35586" fill="#E2C59C" d="M69.2,100.6c0.7-3.6,0.2-9.8-1.9-11.7c-0.5-0.6-0.8-0.3-1.8,0c-1.8,0.6-3.7,2.5-5,5.5
				c-0.1,2-0.2,4.1-0.1,6.3c0,2.4,0.1,2.7,0.2,4.9C61.4,104.9,64.4,101.4,69.2,100.6z"/>
			<path id="Path_35587" fill="#E9D6B8" d="M64.1,111.5c-1.1-0.5-3,0.8-4.4,3.5c-2.6,5.2-3.5,12.4-3.9,21.3
				c-0.5,9.4-0.5,16.4-0.4,22.2c0.1,5.7-2.3,13.7,2,13c-0.5-7.9,0.8-19.5,3.1-25.6C68.4,125,67.3,113.2,64.1,111.5z"/>
			<path id="Path_35588" fill="#D3A09D" d="M66.8,45.6l-16.7-1.2l-0.8-19.2L69,28.3L66.8,45.6z"/>
			<path id="Path_35589" fill="#D3A09D" d="M42.7,101.7c9.5-0.8,19.1-1.6,28.6-2.4c1.1,0.1-5-17.8-4.4-54
				c-5.6-0.5-11.2-0.9-16.8-1.4C50.9,51.1,35.9,63,42.7,101.7z"/>
			<path id="Path_35590" fill="#D3A09D" d="M40.8,43.9L50,32.4l2.3-5.4c-0.2-0.5-0.5-0.9-1-1.3l-0.3-0.2c-1.2-0.9-2.9-0.6-3.7,0.6
				c0,0,0,0,0,0L36.9,40.8L40.8,43.9z"/>
			<path id="Path_35591" fill="#D3A09D" d="M73.2,50.6l-5-12.6l-1.8-8.7c0.3-0.4,0.8-0.7,1.3-0.9l0.4-0.1c1.4-0.4,2.9,0.4,3.3,1.8
				l5.8,17.3L73.2,50.6z"/>
			<path id="Path_35592" fill="#E9D6B8" d="M44.9,61c-0.1,0.3-0.4,0.5-0.7,0.4c0,0,0,0,0,0l-0.7-0.2c-0.3-0.1-0.5-0.4-0.4-0.7l1-3.3
				c0.1-0.3,0.4-0.5,0.7-0.4c0,0,0,0,0,0l0.7,0.2c0.3,0.1,0.5,0.4,0.4,0.7L44.9,61z"/>
			<path id="Path_35593" fill="#D57872" d="M42.1,165.3c-1.7,3.6-3.9,6.1-4.8,5.7s-0.3-3.7,1.4-7.3s3.9-6.1,4.8-5.7
				S43.8,161.7,42.1,165.3z"/>
			<path id="Path_35594" fill="#E9D6B8" d="M42.6,163.1c-0.9,2.8-2.8,4.8-3.7,4.4s-0.6-2.9,0.7-5.4c1.7-3.3,2.4-4.2,2.5-6.6
				C42.3,153.4,45.9,152.6,42.6,163.1z"/>
			<path id="Path_35595" fill="#E9D6B8" d="M55.6,167c0,0.1,0,0.1,0.1,0.1l0,0h0.2c0.1,0,0.1,0,0.1-0.1l0,0c0-0.1,0-0.1-0.1-0.1
				h-0.2C55.6,166.9,55.6,166.9,55.6,167C55.6,167,55.6,167,55.6,167z"/>
			<path id="Path_35596" fill="#D57872" d="M63.5,169.6c0.4,1.8-5.1,1.1-6.5,0.6c-0.7-0.2-1.5-0.4-2.2-0.6c-0.1,0-0.1,0-0.2,0
				c0,0,0,0.1,0,0.1c0,1-0.4,2.3,1.1,2.3h9.9C73.7,172,63.5,169.5,63.5,169.6z"/>
			<path id="Path_35597" fill="#E9D6B8" d="M90.6,28.3c0.3-0.7,0.4-1.4,0.4-2.2c-0.1-0.5-1.1-2.9-1.1-2.9c-0.2,0.6-0.1,1.3,0.1,1.8
				C90.4,26.2,90.6,27.2,90.6,28.3z"/>
			<path id="Path_35598" fill="#E2C59C" d="M89.9,27.9c0,0-0.4,0.1-0.6-0.1c0,0.1,0,0.3,0,0.4c0,0.3-0.2,2-0.2,2
				c0.2-0.5,0.4-1,0.6-1.5c0.2-0.4,0.3-0.7,0.4-1.1c0-0.1,0-0.2,0-0.2L89.9,27.9z"/>
			<path id="Path_35599" fill="#E2C59C" d="M89.5,27.5c0.5-1.3,0.3-1.8,0.2-2.1c-0.1,0.3-0.3,0.8-0.6,1.4c-0.1,0.4-0.3,0.9-0.3,1.4
				c0.3,0.4,0.5,0.8,0.5,1.3c0,0.2,0.4-0.9,0.5-1.6C89.7,27.9,89.3,27.9,89.5,27.5z"/>
			<path id="Path_35600" fill="#D1C38E" d="M62.3,17.7c-0.8-0.5-1.3-1.4-1.4-2.4l-0.7-8.8c-0.1-0.1-0.1-0.2-0.2-0.2l-0.2,0
				c-2-0.3-3.7,0.5-4,1.9l-2.2,12.7c-0.1,1.2,0.7,2.3,1.9,2.7c0.2,0,0.5,0,0.7,0C59,23.3,61.3,21,62.3,17.7z"/>
		</g>
	</g>
	<g id="Group_19849" transform="translate(-7532.819 -9813.394)">
		<g id="Group_13496" transform="translate(0 10.26)">
			<path id="Path_35601" fill="#0E6C75" d="M44.6,53.3c-1.8,0-3.5-0.6-4.9-1.8c-2.4-2.1-3.5-5.9-3.1-11.2c0.2-3.6,1.7-7.2,3.2-11.1
				c2.5-6.5,5.4-13.8,3.9-23.6l2.8-0.4c1.6,10.5-1.5,18.5-4,25c-1.5,3.8-2.8,7.1-3,10.3c-0.3,4.3,0.5,7.4,2.2,8.9
				c1,0.9,2.4,1.2,3.7,1l0.6,2.8C45.4,53.3,45,53.3,44.6,53.3z"/>
		</g>
		<g id="Group_13499" transform="translate(10.869 68.205)">
			<rect id="Rectangle_12868" x="54.9" y="5.3" fill="#B7BEC7" width="4.8" height="17.1"/>
			<g id="Group_13498" transform="translate(0.947 13.292)">
				<path id="Path_35604" fill="#B7BEC7" d="M54,5.3l2.3,4l-19.7,7c0,0-1.3-1.4,3.5-4.2C44.7,9.6,49.3,7.3,54,5.3z"/>
				<path id="Path_35605" fill="#B7BEC7" d="M58.7,5.3l-2.3,4l19.7,7c0,0,1.3-1.4-3.5-4.2C68,9.6,63.4,7.3,58.7,5.3z"/>
			</g>
			<path id="Path_35606" fill="#001F46" d="M39.9,31.2c0,0.9-0.7,1.7-1.7,1.7c-0.9,0-1.7-0.7-1.7-1.7c0-0.9,0.7-1.7,1.7-1.7
				C39.1,29.5,39.9,30.2,39.9,31.2C39.9,31.2,39.9,31.2,39.9,31.2z"/>
			<path id="Path_35607" fill="#001F46" d="M78,31.2c0,0.9-0.7,1.7-1.7,1.7c-0.9,0-1.7-0.7-1.7-1.7c0-0.9,0.7-1.7,1.7-1.7
				C77.2,29.5,78,30.2,78,31.2z"/>
		</g>
		<rect id="Rectangle_12869" x="66.4" y="67.2" fill="#367082" width="3.5" height="6.1"/>
		<path id="Path_35610" fill="#367082" d="M72.5,64c0,1.9-1.5,3.4-3.4,3.4l0,0h-1.9c-1.9,0-3.4-1.5-3.4-3.4c0,0,0,0,0,0l0,0
			c0-1.9,1.5-3.4,3.4-3.4c0,0,0,0,0,0h1.9C71,60.5,72.5,62.1,72.5,64C72.5,64,72.5,64,72.5,64z"/>
		<path id="Path_35611" fill="#B4D0BE" d="M94.2,60.8c0.1-0.4,0.1-2.9,0.1-3.4c0-2.8-1.8-5-4-5H45.9c-2.2,0-4,2.2-4,5
			c0,0.4,0,3,0.1,3.4H94.2z"/>
		<path id="Path_35612" fill="#367082" d="M41.5,62.2c0,0.8,0.5,1.5,1.1,1.5h51.1c0.6,0,1.1-0.7,1.1-1.5l0,0c0-0.8-0.5-1.5-1.1-1.5
			H42.6C42,60.7,41.5,61.3,41.5,62.2z"/>
		<g id="Group_13500" transform="translate(5.041)">
			<path id="Path_35613" fill="#B4D0BE" d="M38.9,35.1c1.1,0.1,8.1,0.2,9.3,0.2c7.6,0.1,14.2-1.3,14.6-3.2
				c1.5-7.8,1.6-15.8,0.2-23.6c-0.3-1.9-7-3.3-14.8-3.2c-1.2,0-8.3,0.1-9.5,0.2C41.1,15.2,41.2,25.4,38.9,35.1z"/>
			<path id="Path_35614" fill="#367082" d="M37.9,5.5c-0.9,0-1.5,0.4-1.3,0.9c2.1,9.1,2.2,18.7,0.2,27.8c-0.1,0.5,0.5,0.9,1.3,0.9
				l0,0c0.8,0,1.6-0.4,1.7-0.9c2-9.2,1.9-18.7-0.2-27.9C39.5,5.9,38.7,5.5,37.9,5.5L37.9,5.5z"/>
			<path id="Path_35615" fill="#5A867C" d="M37.5,35.1c0.7,0.1,1.3,0.1,2,0.1c1.8-0.1,3.4-1.5,3.7-3.3c1.4-7.7,1.4-15.6-0.1-23.3
				c-0.4-1.8-1.9-3.2-3.8-3.3c-0.7,0-1.4,0.1-2,0.1C39.7,15.2,39.8,25.4,37.5,35.1z"/>
		</g>
	</g>
	<g id="Group_19850" transform="translate(-7524.115 -9866.609)">
		<path id="Path_35617" fill="#4D6882" d="M59,30.3c0,0-6.5,2.3-0.3,21s10.4,16.4,10.4,16.4l5.2-0.5l9.9-11.8l-5.3-4.7l-1.1,0.4
			c-0.8-0.3-1.4-1-1.5-1.9c-0.2-1.3-2.3-4.5-6.5-14.8C67.4,28.8,60.2,29.8,59,30.3z"/>
		<path id="Path_35618" fill="#E2C59C" d="M82.4,56.4c0,0,10.4,11.9,17.4,17.9c3.4,2.9,6.1,1.9,2,3.3c-1.5,0.5-16.1-4.8-24-9.3
			c-5.3-3-3.7-6.6-0.8-8.6C80.2,57.6,82.4,56.4,82.4,56.4z"/>
		<path id="Path_35619" fill="#7792AA" d="M71.8,52.7l3.3-2.1l1.4-0.8c0.3,0.6,0.8,1.1,1.4,1.4l-2.7,1.1l-3,1.9L69,57.9L71.8,52.7z"
			/>
		<path id="Path_35620" fill="#7792AA" d="M71,83.9l-24.3-0.5c0,0-9.6-25-10.1-33.9c-0.3-5.1,2.7-16.4,8-18.9c2.1-1,4.3-1.7,6.6-2.1
			c5.8-0.5,11.7,0.3,17.1,2.2C68.2,30.7,78.1,35.9,71,83.9z"/>
		<path id="Path_35621" fill="#445E77" d="M111,155.8c0,0-2.4,3.6-3.6,1.4c-3.6-6.7-6.9-27.9-7.1-36.6c-0.3-11.6-0.8-18.7-0.8-18.7
			l11.7-4.2L111,155.8z"/>
		<path id="Path_35622" fill="#415B74" d="M70.1,83.6l41.1,14.1l-10.8,6c0,0-42.4,7.4-43.2-8.3C56.7,82.2,70.1,83.6,70.1,83.6z"/>
		<path id="Path_35623" fill="#4D6882" d="M96.4,156.1c0,0-2.1,2-3.3-0.3c-3.6-6.7-9.6-24.5-9.8-33.2c-0.2-6.6,0.3-13.2,1.6-19.7
			l11.9-4.1L96.4,156.1z"/>
		<path id="Path_35624" fill="#4D6882" d="M57.4,84.1l39.2,14.8l-10.7,5.8c0,0-39.8,7.4-40.6-8.3S57.4,84.1,57.4,84.1z"/>
		<path id="Path_35625" fill="#4D6882" d="M44.6,97.3c-0.1,1.1,0.5,4.7,1.7,6.2c3.7,4.5,12.5,3,19.5,3c0.4,0,2.3-5.5,2.3-5.5
			l2.9-17.9l-24.6,0.4C45.6,88.1,44.9,92.7,44.6,97.3z"/>
		<path id="Path_35626" fill="#E9D6B8" d="M84.5,72.7l9-1.6c0,0,1.4-0.2,1.5,0.8c0.1,1.3-0.1,5.5-0.1,5.5l-1.6-1l-2.3,1.4l-2.7-3.6
			c-0.8,0.1-1.7,0.1-2.5,0C85.3,74.1,84.5,72.7,84.5,72.7z"/>
		<path id="Path_35627" fill="#E9D6B8" d="M62.4,70.1l23.8,2.6c0,0-12.8,6.5-18.6,6.6c-3.8,0-7.6-0.5-11.4-1.3L62.4,70.1z"/>
		<path id="Path_35628" fill="#4D6882" d="M50.7,45.4l11.9,22.5l-0.7,1.8l1.8,0.3L58.2,79l-8.7-2L38.8,51.8c0,0-3.8-10.7,3.9-17.7
			C44.7,32.3,49.6,43.6,50.7,45.4z"/>
		<path id="Path_35629" fill="#7792AA" d="M53.7,75.6c0,0,5.6-4.3,8.5-6.7l-0.3,0.8l1.8,0.3l-1.9,3l-3.4,3.9l-1.9-0.7l0.7-1.4
			L53.7,75.6z"/>
		<path id="Path_35630" fill="#194866" d="M100.2,159.7c0.1,0.4,0.1,0.8,0,1.3c0,0-3.7,0.6-4.9,0.2c-0.5-0.2-0.9-0.5-1.3-0.8
			c-0.1-0.1-0.2-0.4-0.3-0.5c-0.1-0.1-0.2,0.1-0.4,0c-0.2-0.2-0.4-0.3-0.6-0.5c-0.2-1.1-0.2-2.2,0.1-3.2c0,0,3.1-1.5,3.7-0.5
			C98.1,158,99.8,159,100.2,159.7z"/>
		<path id="Path_35631" fill="#163F59" d="M107.1,156.8l0.5,3.3h2.8c0,0,0.2-0.5,0.4-0.5c0.2,0,0.5,0.5,0.7,0.5h7.1
			c0.1-0.3,0.1-0.6,0-0.9c-0.3-0.2-0.5-0.4-0.9-0.4c-1.4-0.5-5.8-1.6-6.8-3.1C110.2,154.5,107.1,156.8,107.1,156.8z"/>
		
			<rect id="Rectangle_12870" x="50.8" y="25.4" transform="matrix(0.4023 -0.9155 0.9155 0.4023 5.585 65.4479)" fill="#AEBDDC" width="4.3" height="6.1"/>
		<g id="Group_13504" transform="translate(6.383)">
			<g id="Group_13503">
				<path id="Path_35632" d="M54.3,12.1c0.3,1.6-0.8,3.1-2.5,3.4l-11,1.7c-1.6,0.3-3.1-0.8-3.4-2.5l0,0c-0.3-1.6,0.8-3.1,2.5-3.4
					l11-1.7C52.6,9.4,54.1,10.5,54.3,12.1L54.3,12.1z"/>
				<path id="Path_35633" d="M53.1,17.5c0.5,3-1.6,5.8-4.5,6.2l-5.7,0.9c-3,0.5-5.8-1.6-6.2-4.5l0,0c-0.5-3,1.6-5.8,4.5-6.2l5.7-0.9
					C49.8,12.5,52.6,14.5,53.1,17.5L53.1,17.5z"/>
				<path id="Path_35634" fill="#E9D6B8" d="M58.8,25.4L56.1,8.6c-0.4-2.7-2.2,0.3-4.9,0.8l-2.6,0.4c-2.7,0.4-4.5,2.9-4.1,5.6
					l1.9,12L58.8,25.4z"/>
				<path id="Path_35635" fill="#E9D6B8" d="M47.3,18.8c0.2,1.2-0.6,2.3-1.8,2.5c0,0,0,0,0,0l0,0c-1.2,0.2-2.3-0.6-2.5-1.8
					c0,0,0,0,0,0l0,0c-0.2-1.2,0.6-2.3,1.8-2.5c0,0,0,0,0,0l0,0C46,16.8,47.1,17.6,47.3,18.8C47.3,18.8,47.3,18.8,47.3,18.8
					L47.3,18.8z"/>
				<path id="Path_35636" fill="#E9D6B8" d="M56.5,20.4c0.1,0.7,0.7,1.1,1.4,1l1-0.2c0.7-0.1,1.1-0.8,1-1.4c0,0-3.2-6-3.8-5.9
					c-0.3,0.4-0.4,0.9-0.3,1.3L56.5,20.4z"/>
				<path id="Path_35637" d="M51.8,25.6c-4.9,0.8-5.6-0.6-6-2.3c-0.3,1.9-0.4,3.9-0.4,5.8l0.2,1.5c0.5,3,3.9,4.9,7.6,4.3l6.8-1.1
					l-1.2-7.5l-0.3-1.8L51.8,25.6z"/>
				<path id="Path_35638" d="M58.1,21.4L54.3,22c-1.8,0.3-3,1.9-2.7,3.7c0,0.3,0.1,0.6,0.3,0.9l7-1.1L58.1,21.4z"/>
				<path id="Path_35639" fill="#E9D6B8" d="M53.7,25.5l0.2,1.1c0,0.3,0.3,0.5,0.6,0.5l3.1-0.5c0.3,0,0.5-0.3,0.5-0.6l-0.2-1.1
					L53.7,25.5z"/>
				<path id="Path_35640" d="M54,5.9L44,7.4c-1.1,0.2-1.8,1.2-1.6,2.2l0.6,3.9l11.9-1.9L54,5.9z"/>
				<path id="Path_35641" d="M59.2,8c0.3,1.6-0.7,3.2-2.3,3.7l-6.2,1.2c-1.6,0.2-3-1-3.1-2.5c0-0.1,0-0.1,0-0.2l0,0
					c-0.3-1.6,0.7-3.2,2.3-3.7l6.2-1.2c1.6-0.2,3,1,3.1,2.5C59.2,7.9,59.2,7.9,59.2,8L59.2,8z"/>
			</g>
			
				<rect id="Rectangle_12871" x="44.5" y="11.7" transform="matrix(0.9878 -0.1555 0.1555 0.9878 -1.821 7.3162)" width="2.7" height="7.2"/>
			<path id="Path_53183" d="M44.3,8.8l7.9-1.2l1.3,8.3l-7.9,1.2L44.3,8.8z"/>
			<path id="Path_35642" fill="#E9D6B8" d="M47.5,16.9c-0.3-2.2,1.2-4.3,3.4-4.6c0,0,0,0,0,0l2.1-0.3c2.2-0.3,3.7,1.3,4,3.5l0,0
				c0.3,2.2-1.2,4.3-3.4,4.6c0,0,0,0,0,0l-1.5,0.2C49.9,20.7,47.8,19.2,47.5,16.9C47.5,16.9,47.5,16.9,47.5,16.9L47.5,16.9z"/>
		</g>
	</g>
	<g id="Group_19851" transform="translate(-7475.787 -9820.444)">
		<path id="Path_35643" fill="#B4C0C7" d="M36.5,31.4C36.5,31.4,36.5,31.4,36.5,31.4v-1.2h48.3v1.2c0,0,0,0,0,0l-0.1,0.2
			c-0.6,1-1.7,1.2-3,1.2H39.7c-1.3,0-2.4-0.2-3-1.2L36.5,31.4z"/>
		<path id="Path_35644" fill="#D6E3EB" d="M48.2,31.6C48.2,31.6,48.2,31.6,48.2,31.6l-0.1,0.2c-0.2,0.3-0.4,0.5-0.7,0.6H40
			c-1.2,0-2.3-0.1-2.9-1L37,31.3c0,0,0,0,0,0l0-0.6h11.2V31.6z"/>
		<g id="Group_13506" transform="translate(18.187 25.192)">
			<rect id="Rectangle_12873" x="36.5" y="5.3" fill="#8599A4" width="24.1" height="0.8"/>
		</g>
		<g id="Group_13507" transform="translate(11.934)">
			<path id="Path_35645" fill="#D7DFE2" d="M36.5,30.2l6.3-23.7c0.2-0.6,0.8-1.1,1.4-1.1h33.9c0.5,0,0.9,0.3,0.9,0.8
				c0,0.1,0,0.2-0.1,0.3l-6.3,23.7H36.5z"/>
			<path id="Path_35646" fill="#B4C0C7" d="M55.7,17.7c-0.3,0.8,0.1,1.8,1,2.1c0.2,0.1,0.4,0.1,0.7,0.1c1.3-0.1,2.4-1,2.8-2.2
				c0.3-0.8-0.1-1.8-1-2.1c-0.2-0.1-0.4-0.1-0.6-0.1C57.2,15.6,56.1,16.5,55.7,17.7z"/>
		</g>
	</g>
	<g id="Group_19852" transform="translate(-7546.988 -9792.915)">
		<path id="Path_35649" fill="#B7BEC7" d="M269.8,88.2h5l-8.3-80.3h-7.3L269.8,88.2z"/>
		<path id="Path_35650" fill="#8A939F" d="M259.7,11.6l3.2,24.3l3.8-26.2l-0.2-1.8h-6.4L259.7,11.6z"/>
		<path id="Path_35653" fill="#B7BEC7" d="M41.6,88.2h-5l8.3-80.3h7.3L41.6,88.2z"/>
		<path id="Path_35654" fill="#8A939F" d="M51.6,11.6l-9.8,24.8l2.8-26.7l0.2-1.8h6.4L51.6,11.6z"/>
		<rect id="Rectangle_12874" x="37.8" y="5.3" fill="#88919D" width="154.4" height="4.7"/>
		
			<radialGradient id="Rectangle_12875_1_" cx="-5.4849" cy="114.6755" r="34.432" gradientTransform="matrix(-4.7767 0 0 -4.694 -81.8352 478.0873)" gradientUnits="userSpaceOnUse">
			<stop  offset="0" style="stop-color:#8A939F"/>
			<stop  offset="2.000000e-03" style="stop-color:#B7BEC7"/>
			<stop  offset="1" style="stop-color:#8A939F"/>
		</radialGradient>
		<rect id="Rectangle_12875" x="95.6" y="5.3" fill="url(#Rectangle_12875_1_)" width="176.9" height="4.7"/>
	</g>
	<g id="Group_19853" transform="translate(-7414.71 -9860.384)">
		<path id="Path_35655" fill="#161711" d="M54.4,141.7l-0.8,4.2h-4.3c0,0-0.2-0.6-0.6-0.6c-0.3,0-0.7,0.6-1.1,0.6H36.6
			c0,0-0.2-0.9,0-1.2c0.4-0.3,0.8-0.5,1.3-0.6c2.2-0.6,8.6-2.6,9.7-4.7C49,136.9,54.4,141.7,54.4,141.7z"/>
		<path id="Path_35656" fill="#64321B" d="M53.1,89c0,0,1.2,6.9,2.3,15.7c0.8,6.5,0.8,24.9-0.4,37.7c-0.1,0.8-8.2-1.6-8.2-1.6
			s-3-35.9-3.7-43.9S48.2,84,53.1,89z"/>
		<path id="Path_35657" fill="#161711" d="M66.9,134.1c-0.3-0.4-0.1-1.4-0.1-1.4s5.7-0.6,7.5-0.2c0.7,0.2,1.4,0.6,2,1
			c0.1,0.1,0.3,0.5,0.5,0.6c0.2,0.1,0.3-0.1,0.5,0c0.3,0.2,0.6,0.4,0.9,0.6c0.5,2.6-0.2,3.6-0.2,3.6s-4.7,1.4-5.7,0.5
			C69.6,136.4,67.6,135,66.9,134.1z"/>
		<path id="Path_35658" fill="#773B20" d="M67.3,95c0,0-4.5-2.6-3.4,4.4c2.8,17,5.3,29.5,6.5,35.2c0.5,2.2,1.2,1.8,1.2,1.8l5.2,0.8
			l2.6-1.8L74.5,97L67.3,95z"/>
		<g id="Group_13511" transform="translate(8.465)">
			<path id="Path_35659" fill="#64321B" d="M38.3,96.1c0.7,0.9,23.9,12.6,24.9,12.6h19.1c1.1,0,8.8-1.1,10.5-6.2c1.8-5.4,0-15,0-15
				c0-1.1-0.8-2-1.9-2H67.1c-1.1,0-3.2,0.9-3.2,2l-23.1-0.7C40.8,86.7,33.2,89.5,38.3,96.1z"/>
			<path id="Path_35660" fill="#5A2710" d="M82.1,101.8H60.3c-0.2,0-19.1-5.1-19.3-5.2l2.3,7.3c0,1.1,18.8,4.8,19.9,4.8h19.1
				c1.1,0,8.8-1.1,10.5-6.2c0.5-1.9,0.8-3.8,0.8-5.7C90.8,100.8,83.3,101.8,82.1,101.8z"/>
			<path id="Path_35661" fill="#E9D6B8" d="M74,33l-1-4.7c0,0-3.6,0.3-4.3-1.5c-1.4-3.6-0.2-9.3,0.6-10.9c2.4-4.6,3.5-12.5,14.9-6.2
				c4.3,2.4-2.4,14.1-2.9,16.6c-0.2,1.9,0.1,3.8,1,5.4l-2.7,1.8L74,33z"/>
			<path id="Path_35662" fill="#E9D6B8" d="M55.2,65l19.6,7c0,0-23.1,1.7-23.2,0.3C51.1,64.9,55.2,65,55.2,65z"/>
			<path id="Path_35663" fill="#B7BEC7" d="M94.5,37.5c0,0,3.9,1.8,6.7,16.9s1,14.4,1,14.4l-0.5,3.4l-7.3,0.6l-3.9-13L94.5,37.5z"/>
			<path id="Path_35664" fill="#8A939F" d="M94.7,37.6l-9.6-4l-2.6-2.3l-10.2-0.2l-1.8,2.7l-7.9,3.1c0,0-2,2.8-0.3,13.2
				c1.9,11.5,0,41.3,0,41.3l32.3,0.5C94.6,91.9,91.9,43.2,94.7,37.6z"/>
			<path id="Path_35665" fill="#B7BEC7" d="M65.1,36.9c0,0-1.8-1.8-6.1,3.1c-7.4,8.4-11,18.8-11.7,20.8s-1.6,7,1.4,10.3
				c2.3,2.6,4.5,1.6,4.5,1.6l7.1-5.5L58,66.1L56.4,66c0,0,3.6-7.2,7.4-13.6S65.1,36.9,65.1,36.9z"/>
			<path id="Path_35666" fill="#69493B" d="M72.5,17.3c0,0,1.3-0.7,1.5,0.2s-0.5,2.9-1.1,3.1s-0.8,2.6-0.8,2.6l1.6,2.7h8.1
				c0,0,2.5-1,2.7-2.6s2.2-13.1,2.2-13.1L81,7.4c-1.6-0.7-3.3-1.4-5.1-1.9c-3.2-0.8-3.9,0.7-3.8,1.5S71.2,8,70,8s-2.9,0.9-2.2,1.5
				c0.3,0.2-1,0.9-0.5,1.8c0.7,1.2,3.2,1.6,3.4,3.6C70.7,15.8,71.1,18.7,72.5,17.3z"/>
		</g>
		<g id="Group_13515" transform="translate(20.388 103.043)">
			<path id="Path_35667" fill="#5A867C" d="M37,12.9c-0.1-0.4-0.1-2.7-0.1-3c0-2.5,1.6-4.5,3.6-4.5h40.3c2,0,3.6,2,3.6,4.5
				c0,0.4,0,2.7-0.1,3H37z"/>
			<path id="Path_35668" fill="#2C5B6A" d="M84.8,14.1c0,0.8-0.4,1.4-1,1.4H37.5c-0.6,0-1-0.6-1-1.4l0,0c0-0.8,0.4-1.4,1-1.4h46.2
				C84.3,12.7,84.8,13.3,84.8,14.1z"/>
			<g id="Group_13514" transform="translate(8.893 19.02)">
				<rect id="Rectangle_12876" x="53.1" y="5.3" fill="#B7BEC7" width="4.3" height="15.5"/>
				<g id="Group_13513" transform="translate(0.745 12.029)">
					<path id="Path_35671" fill="#B7BEC7" d="M56.6,5.3l-2.1,3.6l17.8,6.4c0,0,1.2-1.3-3.2-3.8C65,9.2,60.9,7.1,56.6,5.3z"/>
					<path id="Path_35672" fill="#B7BEC7" d="M52.4,5.3l2.1,3.6l-17.8,6.4c0,0-1.2-1.3,3.2-3.8C43.9,9.2,48.1,7.1,52.4,5.3z"/>
				</g>
				<path id="Path_35673" fill="#2E4354" d="M71,28.7c0,0.8,0.7,1.5,1.5,1.5s1.5-0.7,1.5-1.5s-0.7-1.5-1.5-1.5S71,27.9,71,28.7
					L71,28.7z"/>
				<path id="Path_35674" fill="#2E4354" d="M36.5,28.7c0,0.8,0.7,1.5,1.5,1.5s1.5-0.7,1.5-1.5s-0.7-1.5-1.5-1.5
					S36.5,27.9,36.5,28.7L36.5,28.7z"/>
			</g>
			<rect id="Rectangle_12877" x="62.6" y="18.6" fill="#2C5B6A" width="3.2" height="5.6"/>
			<path id="Path_35677" fill="#2C5B6A" d="M60.2,15.7c0,1.7,1.4,3.1,3.1,3.1l0,0h1.7c1.7,0,3.1-1.4,3.1-3.1v0l0,0
				c0-1.7-1.4-3.1-3.1-3.1l0,0h-1.7C61.6,12.6,60.2,14,60.2,15.7L60.2,15.7z"/>
			<path id="Path_35678" fill="#B4D0BE" d="M43.6,12.9c-0.1-0.4-0.1-2.7-0.1-3c0-2.5,1.6-4.5,3.6-4.5h40.3c2,0,3.6,2,3.6,4.5
				c0,0.4,0,2.7-0.1,3H43.6z"/>
			<path id="Path_35679" fill="#367082" d="M91.3,14.1c0,0.8-0.4,1.4-1,1.4H44.1c-0.6,0-1-0.6-1-1.4l0,0c0-0.8,0.4-1.4,1-1.4h46.2
				C90.9,12.7,91.3,13.3,91.3,14.1z"/>
		</g>
		<g id="Group_13516" transform="translate(26.665 46.774)">
			<path id="Path_35680" fill="#5A867C" d="M80.1,32.1c0,1.1-0.9,2-2,2c0,0,0,0,0,0H40c-1.2,0-2.2-0.9-2.4-2
				c-1.5-8.2-1.5-16.6,0-24.9c0.2-1.1,1.2-2,2.4-2h38c1.1,0,2,0.9,2,2c0,0,0,0,0,0C80,15.6,80,23.8,80.1,32.1z"/>
			<path id="Path_35681" fill="#B4D0BE" d="M82.3,32.1c0,1.1-0.9,2-2,2l0,0h-38c-1.2,0-2.1-0.9-2.4-2c-1.4-8.2-1.4-16.6,0-24.9
				c0.2-1.1,1.2-2,2.4-2h38c1.1,0,2,0.9,2,2V32.1z"/>
		</g>
		<path id="Path_35682" fill="#0E6C75" d="M74.3,118.6c5.9-21.1-5.3-42.1-0.5-63.2c0.3-0.8-0.2-1.7-1-1.9c-0.2-0.1-0.4-0.1-0.5-0.1
			h-0.7c-1.2,0.1-2.2,0.9-2.5,2c-4.8,21.1,6.4,42.1,0.5,63.2H74.3z"/>
		<path id="Path_35683" fill="#0E6C75" d="M107.6,118.6c5.9-21.1-5.3-42.1-0.5-63.2c0.3-0.8-0.2-1.7-1-1.9c-0.2-0.1-0.4-0.1-0.5-0.1
			h-0.7c-1.2,0.1-2.2,0.9-2.5,2c-4.8,21.1,6.4,42.1,0.5,63.2H107.6z"/>
	</g>
</g>
</svg>
