<svg xmlns="http://www.w3.org/2000/svg" width="269.989" height="269.989" viewBox="0 0 269.989 269.989">
  <g id="Group_19109" data-name="Group 19109" transform="translate(269.989 152.403) rotate(135)">
    <path id="Path_42543" data-name="Path 42543" d="M144.1,27.322q-7.813,11.9-9.846,23.284l0,.022a107.147,107.147,0,0,1-2.775,12.485,85.043,85.043,0,0,1,18.262,26.564c7.8,20.606-10.211,30.191-19.466,7.331-2.95-8.953-3.628-16.016-3.314-21.361a95.127,95.127,0,0,1-11.095,18.935q-1.989,2.646-4.18,5.182a77.2,77.2,0,0,1,17,24.527c7.072,18.692-9.262,27.386-17.657,6.65-5.808-17.624-1.908-27.182-.184-30.222q-13.4,15.14-33.982,26.262v0Q67.274,132.26,54.731,146.4q-1.694,1.909-3.44,3.98A72.109,72.109,0,0,1,63.057,172.84c4.448,16.633-10.836,22.9-14.36,3.68-1.773-13.254.7-22.074,1.819-25.211q-.97,1.163-1.958,2.376l.138.052s-.191.178-.577.49q-10,12.348-21.629,29.684a1.619,1.619,0,0,1-1.452.713c-.365,3.5-1.971,12.372-9.027,23.35-11.353,15.913-22.53,3.748-11.443-9.425a72.142,72.142,0,0,1,19.141-14.794,1.621,1.621,0,0,1,.092-1.649q8.674-12.928,16.468-23.127a63.313,63.313,0,0,1-16.1,5c-19.389,2.472-18.049-13.993-.851-14.8A72.221,72.221,0,0,1,45.3,152.566q3.606-4.465,7.007-8.3A115.319,115.319,0,0,1,69.923,127.6c-4.394,1.881-13.345,4.75-26.152,4.171C22.244,129.651,28.36,110.6,47.06,114.111A73.454,73.454,0,0,1,72.6,125.76q1.379-.89,2.709-1.622l.012-.007h0a124.705,124.705,0,0,0,27.822-20.038c-5.062,2.189-15.547,5.607-30.617,4.923-25.075-2.469-17.952-24.663,3.831-20.571a85.559,85.559,0,0,1,29.226,13.2,97.479,97.479,0,0,0,7.682-9A94.67,94.67,0,0,0,131.05,50.115c0-.03.01-.059.016-.089q2.156-12.06,10.313-24.479,1.495-2.276,3.191-4.565c-4.911,3.449-14.105,7.609-29.92,7.651-26.25-1.675-22.609-23.127.87-22.168a90.741,90.741,0,0,1,32.98,9.52A154.718,154.718,0,0,1,163.577.421a1.623,1.623,0,0,1,2.182,2.4Q151.987,15.311,144.1,27.322Z" transform="translate(0 0)" fill="#29cb97" fill-rule="evenodd"/>
    <path id="Path_42544" data-name="Path 42544" d="M18.251,22.2C-8,20.523-4.357-.926,19.122.031a90.8,90.8,0,0,1,33.865,9.977S45.3,22.129,18.251,22.2Z" transform="translate(76.866 45.525)" fill="#29cb97" fill-rule="evenodd"/>
    <path id="Path_42545" data-name="Path 42545" d="M17.339,26.393C22.485,45.641,4.8,52.9.719,30.649-1.881,11.2,3.41,0,3.41,0A83.506,83.506,0,0,1,17.339,26.393Z" transform="translate(71.502 124.691)" fill="#29cb97" fill-rule="evenodd"/>
  </g>
</svg>
