<svg xmlns="http://www.w3.org/2000/svg" width="55" height="55" viewBox="0 0 55 55">
  <g id="Group_20818" data-name="Group 20818" transform="translate(7236.229 9053.833)">
    <circle id="Ellipse_2090" data-name="Ellipse 2090" cx="27.5" cy="27.5" r="27.5" transform="translate(-7236.229 -9053.833)" fill="#e4b62c"/>
    <g id="Group_20811" data-name="Group 20811" transform="translate(-7222.228 -9041.695)">
      <path id="Path_54770" data-name="Path 54770" d="M205.589,470.276H182.742a1.884,1.884,0,0,1-1.883-1.883v-16.8a.627.627,0,1,1,1.255,0v16.8a.628.628,0,0,0,.628.628h22.848a.629.629,0,0,0,.628-.628V440.022a.629.629,0,0,0-.628-.627h-12.7a.628.628,0,1,1,0-1.256h12.7a1.885,1.885,0,0,1,1.883,1.883v28.372A1.884,1.884,0,0,1,205.589,470.276Z" transform="translate(-180.859 -438.139)" fill="#fff"/>
      <path id="Path_54771" data-name="Path 54771" d="M192.665,439.906a8.515,8.515,0,0,0-1.276.1.628.628,0,0,0,.19,1.242,7.09,7.09,0,0,1,6.512,11.574,6.3,6.3,0,0,0-3.278-2.742,3.06,3.06,0,0,0,.928-2.2v-.612a3.075,3.075,0,1,0-6.151,0v.612a3.065,3.065,0,0,0,.926,2.2,6.307,6.307,0,0,0-3.283,2.754,7.085,7.085,0,0,1-1.563-3.393.627.627,0,0,0-1.238.207,8.349,8.349,0,1,0,8.232-9.738Zm-1.82,7.972v-.612a1.821,1.821,0,0,1,3.642,0v.612a1.821,1.821,0,0,1-3.642,0Zm-2.68,5.869a5.021,5.021,0,0,1,9-.01,7.1,7.1,0,0,1-9,.01Z" transform="translate(-179.359 -437.396)" fill="#fff"/>
      <path id="Path_54772" data-name="Path 54772" d="M197.131,456.978h-8.914a.628.628,0,1,1,0-1.256h8.914a.628.628,0,0,1,0,1.256Z" transform="translate(-178.027 -430.74)" fill="#fff"/>
      <path id="Path_54773" data-name="Path 54773" d="M186.33,454.5a.631.631,0,1,1,.443-.185A.633.633,0,0,1,186.33,454.5Z" transform="translate(-178.821 -431.781)" fill="#fff"/>
      <path id="Path_54774" data-name="Path 54774" d="M186.33,456.978a.628.628,0,0,1,0-1.256.627.627,0,0,1,.443,1.071A.633.633,0,0,1,186.33,456.978Z" transform="translate(-178.821 -430.74)" fill="#fff"/>
      <path id="Path_54775" data-name="Path 54775" d="M197.131,454.5h-8.914a.628.628,0,1,1,0-1.256h8.914a.628.628,0,0,1,0,1.256Z" transform="translate(-178.027 -431.781)" fill="#fff"/>
      <path id="Path_54776" data-name="Path 54776" d="M184.516,444.6a.627.627,0,0,1-.445-.185l-1.142-1.142a.628.628,0,1,1,.888-.888l.7.7,2.043-2.044a.628.628,0,0,1,.888.888l-2.488,2.488A.626.626,0,0,1,184.516,444.6Z" transform="translate(-180.065 -436.995)" fill="#fff"/>
      <path id="Path_54777" data-name="Path 54777" d="M186.005,448.433a5.147,5.147,0,1,1,5.148-5.146A5.152,5.152,0,0,1,186.005,448.433Zm0-9.038a3.892,3.892,0,1,0,3.892,3.892A3.9,3.9,0,0,0,186.005,439.4Z" transform="translate(-180.859 -438.139)" fill="#fff"/>
    </g>
  </g>
</svg>
