<svg xmlns="http://www.w3.org/2000/svg" width="42.383" height="40.606" viewBox="0 0 42.383 40.606">
  <g id="Group_21035" data-name="Group 21035" transform="translate(-967.778 -521.701)">
    <g id="Group_14920" data-name="Group 14920" transform="translate(974.051 533.866)">
      <path id="Path_42822" data-name="Path 42822" d="M20.229,15H16.846a.846.846,0,1,0,0,1.692h3.383a.846.846,0,1,0,0-1.692Z" transform="translate(-16 -15)" fill="#2e4354"/>
      <path id="Path_42823" data-name="Path 42823" d="M26.846,15a.846.846,0,1,0,0,1.692h3.383a.846.846,0,1,0,0-1.692Z" transform="translate(-17.541 -15)" fill="#2e4354"/>
      <path id="Path_42824" data-name="Path 42824" d="M20.229,21H16.846a.846.846,0,1,0,0,1.692h3.383a.846.846,0,1,0,0-1.692Z" transform="translate(-16 -15.926)" fill="#2e4354"/>
      <path id="Path_42825" data-name="Path 42825" d="M30.229,21H26.846a.846.846,0,1,0,0,1.692h3.383a.846.846,0,1,0,0-1.692Z" transform="translate(-17.541 -15.926)" fill="#2e4354"/>
      <path id="Path_42826" data-name="Path 42826" d="M20.229,27H16.846a.846.846,0,1,0,0,1.692h3.383a.846.846,0,1,0,0-1.692Z" transform="translate(-16 -16.852)" fill="#2e4354"/>
      <path id="Path_42827" data-name="Path 42827" d="M30.229,27H26.846a.846.846,0,1,0,0,1.692h3.383a.846.846,0,1,0,0-1.692Z" transform="translate(-17.541 -16.852)" fill="#2e4354"/>
    </g>
    <path id="Path_42828" data-name="Path 42828" d="M33.454,7.888H29.111V5.305a.865.865,0,0,0-.869-.861H23.03V1.861a.869.869,0,0,0-1.737,0V4.444H16.081a.865.865,0,0,0-.869.861V7.888H10.869A.865.865,0,0,0,10,8.749v31a.865.865,0,0,0,.869.861H33.454a.865.865,0,0,0,.869-.861v-31A.865.865,0,0,0,33.454,7.888Zm-16.5-1.722H27.374V7.888H16.949Zm1.737,32.718V32h6.949v6.888Zm13.9,0H27.374V31.135a.865.865,0,0,0-.869-.861H17.818a.865.865,0,0,0-.869.861v7.749H11.737V9.61H32.586Z" transform="translate(958.278 521.201)" fill="#2e4354" stroke="#2e4354" stroke-width="1"/>
    <path id="Path_42829" data-name="Path 42829" d="M13.437,4a6.2,6.2,0,0,0-6.2,6.2v1.239H6V22.591H20.873V11.437H19.634V10.2A6.2,6.2,0,0,0,13.437,4ZM9.718,10.2a3.718,3.718,0,0,1,7.437,0v1.239H9.718Zm8.676,9.915H8.479v-6.2h9.915Z" transform="translate(989.288 539.609)" fill="#2e4354"/>
  </g>
</svg>
