<svg id="Material_icons-08-78" data-name="Material icons-08-78" xmlns="http://www.w3.org/2000/svg" width="43.636" height="40" viewBox="0 0 43.636 40">
  <path id="Path_33927" data-name="Path 33927" d="M31.288,24.2a9.213,9.213,0,0,0-9.2-9.2H9.2A9.213,9.213,0,0,0,0,24.2v5.521H31.288Zm-3.681,1.84H3.681V24.2A5.528,5.528,0,0,1,9.2,18.681H22.086A5.528,5.528,0,0,1,27.607,24.2Z" transform="translate(0 10.276)" fill="#2e4354"/>
  <path id="Path_33928" data-name="Path 33928" d="M12.282,5a8.282,8.282,0,1,0,8.282,8.282A8.292,8.292,0,0,0,12.282,5Zm0,12.883a4.6,4.6,0,1,1,4.6-4.6A4.605,4.605,0,0,1,12.282,17.883Z" transform="translate(3.219 2.211)" fill="#2e4354"/>
  <path id="Path_33929" data-name="Path 33929" d="M29.523,6.485,31.012,5l-2.6-2.6L26.92,3.882a7.277,7.277,0,0,0-1.877-.78V1H21.362V3.1a7.33,7.33,0,0,0-1.877.78L18,2.4,15.393,5l1.489,1.489a7.277,7.277,0,0,0-.78,1.877H14v3.681h2.1a7.331,7.331,0,0,0,.78,1.877L15.4,15.413l2.6,2.6,1.489-1.489a7.277,7.277,0,0,0,1.877.78v2.1h3.681V17.3a7.331,7.331,0,0,0,1.877-.78l1.489,1.489,2.6-2.6-1.489-1.491a7.276,7.276,0,0,0,.78-1.877h2.1V8.362H30.3A7.326,7.326,0,0,0,29.523,6.485Zm-10,3.718A3.681,3.681,0,1,1,23.2,13.883,3.683,3.683,0,0,1,19.521,10.2Z" transform="translate(11.232 -1)" fill="#2e4354"/>
</svg>
