<svg xmlns="http://www.w3.org/2000/svg" width="32" height="35.495" viewBox="0 0 32 35.495">
  <g id="Group_14918" data-name="Group 14918" transform="translate(6521.917 -4815.505)">
    <g id="Material_icons-07-85" data-name="Material icons-07-85" transform="translate(-6521.917 4815.505)">
      <path id="Path_33704" data-name="Path 33704" d="M12.213,10.213V2.918H22.426V13.131h2.918V0H8.691L2,6.691V32.1H12.213V29.18H4.918V10.213ZM9.295,3.522V7.295H5.522Z" transform="translate(-2)" fill="#4d6882"/>
    </g>
    <path id="Path_42803" data-name="Path 42803" d="M20.213,10A10.213,10.213,0,1,0,30.426,20.213,10.226,10.226,0,0,0,20.213,10Zm0,17.508a7.295,7.295,0,1,1,7.295-7.3A7.3,7.3,0,0,1,20.213,27.508Z" transform="translate(-6520.343 4820.574)" fill="#4d6882"/>
    <path id="Path_42804" data-name="Path 42804" d="M18.918,13H16v6.44l3.345,3.345,2.063-2.063-2.491-2.491Z" transform="translate(-6517.61 4821.951)" fill="#4d6882"/>
  </g>
</svg>
