<?xml version="1.0" encoding="utf-8"?>
<!-- Generator: Adobe Illustrator 24.1.2, SVG Export Plug-In . SVG Version: 6.00 Build 0)  -->
<svg version="1.1" id="Слой_1" xmlns="http://www.w3.org/2000/svg" xmlns:xlink="http://www.w3.org/1999/xlink" x="0px" y="0px"
	 viewBox="0 0 300 200" enable-background="new 0 0 300 200" xml:space="preserve">
<g>
	<rect fill="none" width="300" height="200"/>
	<g>
		<rect x="0" y="33" fill="#D1C38E" width="300" height="134"/>
	</g>
</g>
<g id="Board2" transform="translate(19.5)">
	<g id="Group_67">
		<g id="Rectangle_Copy_88" transform="translate(15.787)">
			<path id="Mask-11" fill="#B7BEC7" d="M40.7,14.1H190c3,0,5.5,2.5,5.5,5.5v161.6c0,3-2.5,5.5-5.5,5.5H40.7c-3,0-5.5-2.5-5.5-5.5
				V19.6C35.2,16.6,37.7,14.1,40.7,14.1z"/>
			<g>
				<defs>
					<path id="SVGID_1_" d="M40.7,14.1H190c3,0,5.5,2.5,5.5,5.5v161.6c0,3-2.5,5.5-5.5,5.5H40.7c-3,0-5.5-2.5-5.5-5.5V19.6
						C35.2,16.6,37.7,14.1,40.7,14.1z"/>
				</defs>
				<clipPath id="SVGID_2_">
					<use xlink:href="#SVGID_1_"  overflow="visible"/>
				</clipPath>
				<g id="Rectangle_Copy_88-2" clip-path="url(#SVGID_2_)">
					<path id="Rectangle_Copy_88-3" fill="#B7BEC7" d="M34.4,14.1h162v26.1h-162V14.1z"/>
					<circle id="Oval" fill="#1A4E87" cx="41.7" cy="21.4" r="1.4"/>
					<circle id="Oval_Copy_36" fill="#1A4E87" cx="48.8" cy="21.4" r="1.4"/>
					<circle id="Oval_Copy_37" fill="#1A4E87" cx="55.9" cy="21.4" r="1.4"/>
				</g>
			</g>
		</g>
		<g id="Group_66" transform="translate(0 14.698)">
			<g id="Group_65" transform="translate(87.101)">
				<path id="Rectangle" fill="#FBFBFB" d="M36.3,14.1h15.5l1.1,15H35.2L36.3,14.1z"/>
				<path id="Rectangle_Copy_78" fill="#4D6882" d="M51.5,14.1h15.8l3,15H52.6L51.5,14.1z"/>
				<path id="Rectangle_Copy_79" fill="#BDD8E6" d="M67.1,14.1h14.2l6.5,15H70.1L67.1,14.1z"/>
				<path id="Rectangle_Copy_80" fill="#4D6882" d="M80.9,14.1h13.9l10.3,15H87.5L80.9,14.1z"/>
				<path id="Rectangle_Copy_81" fill="#BDD8E6" d="M94.5,14.1h15.8l12.2,15h-17.7L94.5,14.1z"/>
				<path id="Rectangle_Copy_82" fill="#4D6882" d="M110.1,14.1h14.2l15.8,15h-17.7L110.1,14.1z"/>
				<path id="Rectangle-2" fill="#E6E1E1" d="M35.2,28.8h17.7l0,0v8.3c0,4.9-4,8.8-8.8,8.8l0,0l0,0c-4.9,0-8.8-4-8.8-8.8
					c0,0,0,0,0,0V28.8L35.2,28.8z"/>
				<path id="Rectangle_Copy_83" fill="#2E4354" d="M52.6,29.1h17.7l0,0v8.3c0,4.9-4,8.8-8.8,8.8l0,0l0,0c-4.9,0-8.8-4-8.8-8.8
					c0,0,0,0,0,0V29.1L52.6,29.1z"/>
				<path id="Rectangle_Copy_84" fill="#7792AA" d="M70.1,29.1h17.7l0,0v8.3c0,4.9-4,8.8-8.8,8.8l0,0l0,0c-4.9,0-8.8-4-8.8-8.8
					c0,0,0,0,0,0V29.1L70.1,29.1z"/>
				<path id="Rectangle_Copy_85" fill="#2E4354" d="M87.5,29.1h17.7l0,0v8.3c0,4.9-4,8.8-8.8,8.8l0,0l0,0c-4.9,0-8.8-4-8.8-8.8
					c0,0,0,0,0,0V29.1L87.5,29.1z"/>
				<path id="Rectangle_Copy_86" fill="#7792AA" d="M104.9,29.1h17.4l0.1,8.3c0.1,4.2-4.5,8.8-8.7,8.8l0,0c-4.2,0-8.8-4.6-8.8-8.8
					V29.1z"/>
				<path id="Rectangle_Copy_87" fill="#2E4354" d="M122.3,29.1H140l0,0v8.3c0,4.9-4,8.8-8.8,8.8l0,0l0,0c-4.9,0-8.8-4-8.8-8.8
					c0,0,0,0,0,0V29.1L122.3,29.1z"/>
			</g>
			<g id="Group_65_Copy">
				<path id="Rectangle-3" fill="#BDD8E6" d="M138.9,14.1h-15.5l-1.1,15H140L138.9,14.1z"/>
				<path id="Rectangle_Copy_78-2" fill="#4D6882" d="M123.7,14.1h-15.8l-3,15h17.7L123.7,14.1z"/>
				<path id="Rectangle_Copy_79-2" fill="#BDD8E6" d="M108.2,14.1H94l-6.5,15h17.7L108.2,14.1z"/>
				<path id="Rectangle_Copy_80-2" fill="#4D6882" d="M94.3,14.1H80.4l-10.3,15h17.7L94.3,14.1z"/>
				<path id="Rectangle_Copy_81-2" fill="#BDD8E6" d="M80.7,14.1H64.9l-12.2,15h17.7L80.7,14.1z"/>
				<path id="Rectangle_Copy_82-2" fill="#4D6882" d="M65.2,14.1H51l-15.8,15h17.7L65.2,14.1z"/>
				<path id="Rectangle-4" fill="#7792AA" d="M122.3,29.1H140l0,0v8.3c0,4.9-4,8.8-8.8,8.8l0,0l0,0c-4.9,0-8.8-4-8.8-8.8
					c0,0,0,0,0,0V29.1L122.3,29.1z"/>
				<path id="Rectangle_Copy_83-2" fill="#2E4354" d="M104.9,29.1h17.7l0,0v8.3c0,4.9-4,8.8-8.8,8.8l0,0l0,0c-4.9,0-8.8-4-8.8-8.8
					c0,0,0,0,0,0V29.1L104.9,29.1z"/>
				<path id="Rectangle_Copy_84-2" fill="#7792AA" d="M87.5,29.1h17.7l0,0v8.3c0,4.9-4,8.8-8.8,8.8l0,0l0,0c-4.9,0-8.8-4-8.8-8.8
					c0,0,0,0,0,0V29.1L87.5,29.1z"/>
				<path id="Rectangle_Copy_85-2" fill="#2E4354" d="M70.1,29.1h17.7l0,0v8.3c0,4.9-4,8.8-8.8,8.8l0,0l0,0c-4.9,0-8.8-4-8.8-8.8
					c0,0,0,0,0,0V29.1L70.1,29.1z"/>
				<path id="Rectangle_Copy_86-2" fill="#7792AA" d="M52.6,29.1h17.7l0,0v8.3c0,4.9-4,8.8-8.8,8.8l0,0l0,0c-4.9,0-8.8-4-8.8-8.8
					c0,0,0,0,0,0V29.1L52.6,29.1z"/>
				<path id="Rectangle_Copy_87-2" fill="#2E4354" d="M35.2,29.1h17.7l0,0v8.3c0,4.9-4,8.8-8.8,8.8l0,0l0,0c-4.9,0-8.8-4-8.8-8.8
					c0,0,0,0,0,0V29.1L35.2,29.1z"/>
			</g>
		</g>
	</g>
	<g id="Group_73" transform="translate(11.976 14.698)">
		<g transform="matrix(1, 0, 0, 1, -31.48, -14.7)">
			<path id="Rectangle_Copy_89-3" fill="#FFFFFF" d="M154.1,103.1h82.7c5,0,9,4,9,9v47.1c0,5-4,9-9,9h-82.7c-5,0-9-4-9-9v-47.1
				C145.1,107.1,149.1,103.1,154.1,103.1z"/>
		</g>
		<g id="Group_80" transform="translate(0 74.308)">
			<g transform="matrix(1, 0, 0, 1, -31.48, -89.01)">
				<path id="Rectangle_Copy_89-4" fill="#FFFFFF" d="M75.7,103.1h52c5,0,9,4,9,9v47.1c0,5-4,9-9,9h-52c-5,0-9-4-9-9v-47.1
					C66.7,107.1,70.7,103.1,75.7,103.1z"/>
			</g>
			<g id="Path_290" transform="translate(16.059 13.609)">
				<path id="Mask-12" fill="#E4B62C" d="M54.1,14.1C64.6,14.1,73,22.6,73,33s-8.5,18.9-18.9,18.9S35.2,43.5,35.2,33
					S43.7,14.1,54.1,14.1C54.1,14.1,54.1,14.1,54.1,14.1z"/>
				<g>
					<defs>
						<circle id="SVGID_3_" cx="54.1" cy="33" r="18.9"/>
					</defs>
					<clipPath id="SVGID_4_">
						<use xlink:href="#SVGID_3_"  overflow="visible"/>
					</clipPath>
					<g id="Path_290-2" clip-path="url(#SVGID_4_)">
						<path id="Path_291" fill="#1A4E87" d="M54.1,33l14,13.5c0,0,9.5-9.6,8.5-12.3c-1-2.7-9.2-4.2-9.2-4.2L54.1,33z"/>
						<path id="Path_290-3" fill="#D3A09D" d="M54.1,14.1V33h18.9l4.3-9.5l-15-14.9L54.1,14.1z"/>
					</g>
				</g>
			</g>
		</g>
		<path id="Path_620" fill="none" stroke="#1A4E87" stroke-width="0.5" stroke-miterlimit="10" d="M199.3,14.1H39"/>
		<g id="Group_13" transform="translate(100.976 87.645)">
			<path id="Rectangle_Copy_11" fill="#BEDCFF" d="M35.2,51.5V20.9c0-0.5,0.4-1,1-1h3.4c0.5,0,1,0.4,1,1v30.6c0,0.5-0.4,1-1,1h-3.4
				C35.7,52.5,35.2,52,35.2,51.5z"/>
			<path id="Rectangle_Copy_22" fill="#7792AA" d="M35.2,51.5V28.9c0-0.5,0.4-1,1-1h3.4c0.5,0,1,0.4,1,1v22.6c0,0.5-0.4,1-1,1h-3.4
				C35.7,52.5,35.2,52,35.2,51.5z"/>
			<path id="Rectangle_Copy_12" fill="#BEDCFF" d="M45.9,51.5V28.9c0-0.5,0.4-1,1-1h3.4c0.5,0,1,0.4,1,1v22.6c0,0.5-0.4,1-1,1h-3.4
				C46.3,52.5,45.9,52,45.9,51.5z"/>
			<path id="Rectangle_Copy_21" fill="#7792AA" d="M45.9,51.5v-14c0-0.5,0.4-1,1-1h3.4c0.5,0,1,0.4,1,1v14c0,0.5-0.4,1-1,1h-3.4
				C46.3,52.5,45.9,52,45.9,51.5z"/>
			<path id="Rectangle_Copy_13" fill="#BEDCFF" d="M56.5,51.5V18.3c0-0.5,0.4-1,1-1h3.4c0.5,0,1,0.4,1,1v33.2c0,0.5-0.4,1-1,1h-3.4
				C56.9,52.5,56.5,52,56.5,51.5z"/>
			<path id="Rectangle_Copy_20" fill="#7792AA" d="M56.5,51.5V28.9c0-0.5,0.4-1,1-1h3.4c0.5,0,1,0.4,1,1v22.6c0,0.5-0.4,1-1,1h-3.4
				C56.9,52.5,56.5,52,56.5,51.5z"/>
			<path id="Rectangle_Copy_14" fill="#BEDCFF" d="M67.1,51.5V25.2c0-0.5,0.4-1,1-1h3.4c0.5,0,1,0.4,1,1v26.3c0,0.5-0.4,1-1,1h-3.4
				C67.6,52.5,67.1,52,67.1,51.5z"/>
			<path id="Rectangle_Copy_19" fill="#7792AA" d="M67.1,51.5V34.3c0-0.5,0.4-1,1-1h3.4c0.5,0,1,0.4,1,1v17.2c0,0.5-0.4,1-1,1h-3.4
				C67.6,52.5,67.1,52,67.1,51.5z"/>
			<path id="Rectangle_Copy_15" fill="#BEDCFF" d="M77.8,51.5V34.3c0-0.5,0.4-1,1-1h3.4c0.5,0,1,0.4,1,1v17.2c0,0.5-0.4,1-1,1h-3.4
				C78.2,52.5,77.8,52,77.8,51.5z"/>
			<path id="Rectangle_Copy_18" fill="#7792AA" d="M77.8,51.5V41.2c0-0.5,0.4-1,1-1h3.4c0.5,0,1,0.4,1,1v10.3c0,0.5-0.4,1-1,1h-3.4
				C78.2,52.5,77.8,52,77.8,51.5z"/>
			<path id="Rectangle_Copy_16" fill="#BEDCFF" d="M88.4,51.5V15.1c0-0.5,0.4-1,1-1h3.4c0.5,0,1,0.4,1,1v36.4c0,0.5-0.4,1-1,1h-3.4
				C88.9,52.5,88.4,52,88.4,51.5z"/>
			<path id="Rectangle_Copy_17" fill="#7792AA" d="M88.4,51.5V25.2c0-0.5,0.4-1,1-1h3.4c0.5,0,1,0.4,1,1v26.3c0,0.5-0.4,1-1,1h-3.4
				C88.9,52.5,88.4,52,88.4,51.5z"/>
		</g>
	</g>
	<g id="Group_72" transform="translate(90.367 54.166)">
		<g transform="matrix(1, 0, 0, 1, -109.87, -54.17)">
			<path id="Rectangle_Copy_90-2" fill="#FFFFFF" d="M152.6,68.3h85.7c4.1,0,7.5,3.4,7.5,7.5V88c0,4.1-3.4,7.5-7.5,7.5h-85.7
				c-4.1,0-7.5-3.4-7.5-7.5V75.8C145.1,71.6,148.4,68.3,152.6,68.3z"/>
		</g>
		<g id="Group_70" transform="translate(22.32 7.077)">
			<g id="Rectangle-5">
				<path fill="#75CC96" d="M37.7,14.1H48c1.4,0,2.5,1.1,2.5,2.5v10.2c0,1.4-1.1,2.5-2.5,2.5H37.7c-1.4,0-2.5-1.1-2.5-2.5V16.6
					C35.2,15.2,36.3,14.1,37.7,14.1z"/>
				<path fill="none" stroke="#75CC96" stroke-width="0.5" stroke-miterlimit="10" d="M37.7,14.3H48c1.2,0,2.3,1,2.3,2.2v10.2
					c0,1.2-1,2.3-2.3,2.3H37.7c-1.2,0-2.3-1-2.3-2.3V16.6C35.5,15.4,36.5,14.3,37.7,14.3z"/>
			</g>
			<g id="Group_69" transform="translate(20.959 1.942)">
				<path id="Path_117" fill="none" stroke="#75CC96" stroke-width="3.5" stroke-linecap="round" stroke-miterlimit="10" d="
					M35.2,14.1h44.2"/>
				<path id="Path_117_Copy" fill="none" stroke="#75CC96" stroke-width="3.5" stroke-linecap="round" stroke-miterlimit="10" d="
					M35.2,19.9h31.6"/>
				<path id="Path_117_Copy_2" fill="none" stroke="#75CC96" stroke-width="3.5" stroke-linecap="round" stroke-miterlimit="10" d="
					M35.2,25.7h25.4"/>
			</g>
		</g>
	</g>
	<g id="Group_74" transform="translate(0 54.166)">
		<g transform="matrix(1, 0, 0, 1, -19.5, -54.17)">
			<path id="Rectangle_Copy_91-2" fill="#FFFFFF" d="M62.2,68.3h66.9c4.1,0,7.5,3.4,7.5,7.5V88c0,4.1-3.4,7.5-7.5,7.5H62.2
				c-4.1,0-7.5-3.4-7.5-7.5V75.8C54.7,71.6,58.1,68.3,62.2,68.3z"/>
		</g>
		<g id="Group_20" transform="translate(8.166 5.988)">
			<g transform="matrix(1, 0, 0, 1, -27.67, -60.15)">
				<path id="Mask-13" fill="#7792AA" d="M70.8,74.2c4.4,0,7.9,3.5,7.9,7.9S75.1,90,70.8,90c-4.4,0-7.9-3.5-7.9-7.9
					S66.4,74.2,70.8,74.2C70.8,74.2,70.8,74.2,70.8,74.2z"/>
			</g>
			<g id="Group_20-2">
				<g id="Group_20-3" transform="translate(-6.765 2.282)">
					<g id="Path_376" transform="translate(17.855 9.088)">
						<path id="Mask-14" fill="#FFD3C8" d="M37.6,14.4c0,0,1.8,4.5,1.8,5.9c0,0.2-0.7,0.1-0.7,0.3L36.1,20l-0.9-5.5l1.5-0.5
							L37.6,14.4z"/>
						<g>
							<defs>
								<path id="SVGID_5_" d="M37.6,14.4c0,0,1.8,4.5,1.8,5.9c0,0.2-0.7,0.1-0.7,0.3L36.1,20l-0.9-5.5l1.5-0.5L37.6,14.4z"/>
							</defs>
							<clipPath id="SVGID_6_">
								<use xlink:href="#SVGID_5_"  overflow="visible"/>
							</clipPath>
							<g id="Path_376-2" transform="translate(0 0)" clip-path="url(#SVGID_6_)">
								<path id="Path_376-3" fill="#F1B2A2" d="M36.8,14.5c-0.1,1.1,0.1,2.3,0.4,3.3c0.2,0.3,0.8,0.4,1.2,0.6
									c0.4,0.3,0.8,0.7,1,1.1l-3.2-1.1L36.8,14.5z"/>
							</g>
						</g>
					</g>
					<g id="Path_366" transform="translate(8.836 5.605)">
						<path id="Mask-15" fill="#FF9378" d="M35.2,17.3l2.4,1.3c0.2,0.7,0.3,1.5,0.2,2.3c-0.2,0.9-1.9,2-1.6,3.1
							c1.2-0.4,2.4-0.4,3.6,0c1.5,0.7,3.1,2.2,4.6,1.9c0,0-0.6-5.8-0.1-7.5l2.3-0.5c0,0-0.9-2.8-3.1-3.4c-0.9-0.3-1.8-0.4-2.7-0.4
							C38.5,13.9,36.2,15.2,35.2,17.3z"/>
						<g>
							<defs>
								<path id="SVGID_7_" d="M35.2,17.3l2.4,1.3c0.2,0.7,0.3,1.5,0.2,2.3c-0.2,0.9-1.9,2-1.6,3.1c1.2-0.4,2.4-0.4,3.6,0
									c1.5,0.7,3.1,2.2,4.6,1.9c0,0-0.6-5.8-0.1-7.5l2.3-0.5c0,0-0.9-2.8-3.1-3.4c-0.9-0.3-1.8-0.4-2.7-0.4
									C38.5,13.9,36.2,15.2,35.2,17.3z"/>
							</defs>
							<clipPath id="SVGID_8_">
								<use xlink:href="#SVGID_7_"  overflow="visible"/>
							</clipPath>
							<g id="Path_366-2" transform="translate(0 0)" clip-path="url(#SVGID_8_)">
								<path id="Path_366-3" fill="#DF775D" d="M37.6,18.6c0,0,0.5,2.2,1.8,2.4c0.7,0.2,1.4-0.1,1.8-0.6c0.3,0.6,1,1,1.6,1
									c0,0-0.1,1.4-1.1,0.9S40,22,40.3,22.5c0.4,1.2,1.5,2.1,2.7,2.4c2.3,0.7,3.3-0.5,3.3-0.5l-1.6,2.2l-9-1.7l-0.4-2.8L37.6,18.6
									z"/>
							</g>
						</g>
					</g>
					<path id="Path_369" fill="none" stroke="#301913" stroke-width="0.2" stroke-miterlimit="10" d="M53.1,23l0.3,1.2"/>
					<g id="Group_19" transform="translate(10.891 0)">
						<g id="Path_33" transform="translate(1.91 1.17)">
							<path id="Mask-16" fill="#FFD3C8" d="M39.2,14.9c0,0,1.1,2.8-0.6,3c0,0-0.9,0.4-0.8,0.5c0.3,0.1,0.7,0.2,1,0.3
								c-0.3,0.7-1.1,1.2-1.9,1.2c-0.8,0-1.5-0.5-1.7-1.2c0,0,0.3,0,0.4-0.1c0.4,0,0.6-0.1,0.6-0.2c0-0.5,0-0.9-0.1-1.4
								c-0.2-0.4-0.4-0.8-0.6-1.2c0,0,0.7-0.9,1.3-1.5c0.6-0.6,1.6-0.2,1.6-0.2c0.2,0.1,0.4,0.2,0.6,0.3
								C39.1,14.6,39.1,14.7,39.2,14.9z"/>
							<g>
								<defs>
									<path id="SVGID_9_" d="M39.2,14.9c0,0,1.1,2.8-0.6,3c0,0-0.9,0.4-0.8,0.5c0.3,0.1,0.7,0.2,1,0.3c-0.3,0.7-1.1,1.2-1.9,1.2
										c-0.8,0-1.5-0.5-1.7-1.2c0,0,0.3,0,0.4-0.1c0.4,0,0.6-0.1,0.6-0.2c0-0.5,0-0.9-0.1-1.4c-0.2-0.4-0.4-0.8-0.6-1.2
										c0,0,0.7-0.9,1.3-1.5c0.6-0.6,1.6-0.2,1.6-0.2c0.2,0.1,0.4,0.2,0.6,0.3C39.1,14.6,39.1,14.7,39.2,14.9z"/>
								</defs>
								<clipPath id="SVGID_10_">
									<use xlink:href="#SVGID_9_"  overflow="visible"/>
								</clipPath>
								<g id="Path_33-2" transform="translate(0 0)" clip-path="url(#SVGID_10_)">
									<path id="Path_33-3" fill="#F1B2A2" d="M37.6,17.8c-0.3-0.1-0.5-0.2-0.7-0.5c0,0,0.2,1,0.9,1
										C38.4,18.3,37.6,17.8,37.6,17.8z"/>
								</g>
							</g>
						</g>
						<path id="Path_8" fill="#061537" d="M40.7,15.7c-0.5,0.8-1.4,1.3-2.4,1.2c0,0-0.3-0.2-0.4,0.1s0.1,0.4,0.3,0.5l0,2
							c0,0-0.2,0-0.6,0c-0.2,0-0.4,0-0.7-0.1l0.1-0.5l-0.4,0.4c-0.5-0.2-0.9-0.5-1.4-0.7c0.6-0.5,1.1-1,1.4-1.7
							c0.4-0.9,0.9-2.6,2.4-2.8c1.1-0.2,2.3,0.5,2.5,1.6c0,0.1,0,0.1,0,0.2c0.2,1.2,0.4,3.5,1,3.6c0,0-1.4,0-1.5,0
							c-0.1,0-0.2-0.4-0.2-0.4l-0.2,0.5l-0.8,0L39.6,19c0,0,1.5,0,1.5-2.6c-0.1-0.1-0.2-0.2-0.3-0.4C40.7,16,40.7,15.9,40.7,15.7z"
							/>
					</g>
					<g id="Group_18" transform="translate(1.045 6.65) rotate(9)">
						<g id="Path_357" transform="translate(0 0)">
							<path id="Mask-17" fill="#FFD3C8" d="M41.3,11.6c0,0-0.7-1-1.5-0.9c-1.1-0.1-2.1-0.6-2.8-1.4c-0.1-0.2,0-0.2,0.1-0.2
								c0,0,0.1,0,0.1,0c0-0.1,0-0.2,0.1-0.2c0,0,0,0,0,0c0.1,0,0.4,0.3,0.4,0.3s-0.2-0.7-0.2-0.7c0,0,0.3,0,0.4,0.3
								c0,0.2,0.2,0.4,0.4,0.4c0.1-0.1,0.2,0,0.5,0.3c0.3,0.2,0.6,0.2,0.9,0.1c0-0.1-0.7-0.5-0.9-0.7c-0.2-0.1-0.1-0.6,0.2-0.4
								c0.4,0.2,0.8,0.5,1.3,0.6c0.5,0,1.2,0.7,1.5,1.1v0c0,0,1.2,1,1.9,1.4c0.7,0.5,1.4,0.8,1.4,0.8l0-3.3l2.5,0.9
								c0,0,0.2,3.8-1,4.8c-0.1,0.1-0.3,0.1-0.5,0.1C44.6,15.1,41.3,11.6,41.3,11.6z"/>
							<g>
								<defs>
									<path id="SVGID_11_" d="M41.3,11.6c0,0-0.7-1-1.5-0.9c-1.1-0.1-2.1-0.6-2.8-1.4c-0.1-0.2,0-0.2,0.1-0.2c0,0,0.1,0,0.1,0
										c0-0.1,0-0.2,0.1-0.2c0,0,0,0,0,0c0.1,0,0.4,0.3,0.4,0.3s-0.2-0.7-0.2-0.7c0,0,0.3,0,0.4,0.3c0,0.2,0.2,0.4,0.4,0.4
										c0.1-0.1,0.2,0,0.5,0.3c0.3,0.2,0.6,0.2,0.9,0.1c0-0.1-0.7-0.5-0.9-0.7c-0.2-0.1-0.1-0.6,0.2-0.4c0.4,0.2,0.8,0.5,1.3,0.6
										c0.5,0,1.2,0.7,1.5,1.1v0c0,0,1.2,1,1.9,1.4c0.7,0.5,1.4,0.8,1.4,0.8l0-3.3l2.5,0.9c0,0,0.2,3.8-1,4.8
										c-0.1,0.1-0.3,0.1-0.5,0.1C44.6,15.1,41.3,11.6,41.3,11.6z"/>
								</defs>
								<clipPath id="SVGID_12_">
									<use xlink:href="#SVGID_11_"  overflow="visible"/>
								</clipPath>
								<g id="Path_357-2" transform="translate(0 0)" clip-path="url(#SVGID_12_)">
									<path id="Path_357-3" fill="#F1B2A2" d="M40.2,10.7c0,0,0.6-0.1,1.6,0.9s3.4,4.2,5.4,2.9s-0.6,1.4-0.6,1.4l-4.7-1.3
										L40.2,10.7z"/>
									<path id="Path_377" fill="#F1B2A2" d="M45.7,13.1l0-4l-1.1-0.5l0.3,3.8L45.7,13.1z"/>
								</g>
							</g>
						</g>
						<path id="Path_360" fill="none" stroke="#99776C" stroke-width="0.5" stroke-miterlimit="10" d="M40.7,9.9
							c-0.6-0.3-0.7-0.1-1.4-0.1s-0.7-0.5-0.9-0.7c-0.2-0.1-0.2,0-0.2,0s-0.1,0.5,0.8,1.2"/>
						<path id="Path_361" fill="none" stroke="#99776C" stroke-width="0.5" stroke-miterlimit="10" d="M37.2,9.1l1.4,0.8"/>
						<path id="Path_362" fill="none" stroke="#99776C" stroke-width="0.5" stroke-miterlimit="10" d="M37.7,9.1
							c0,0,0.2,0.2,0.3,0.2c0.1,0.1,0.2,0.1,0.3,0.2"/>
					</g>
					<rect id="Rectangle-6" x="50.9" y="23.5" fill="#4D6882" width="3.7" height="6.5"/>
					
						<rect id="Rectangle_Copy_23" x="51.1" y="23.8" fill="none" stroke="#FFFFFF" stroke-width="0.2" stroke-miterlimit="10" width="3.3" height="5.9"/>
					<g id="Path_358" transform="translate(15.014 11.085)">
						<path id="Mask-18" fill="#FFD3C8" d="M42.2,18.6c-1,1.1-4.1-0.5-5.3-1.4c0,0-1.5-0.5-1.6-0.9s0.1-0.4,0.1-0.4s-0.1-0.3,0-0.4
							c0,0-0.1-0.4,0-0.4c0,0-0.1-0.5,0.6-0.5c0,0-0.1,0.3,0.1,0.4s0.8,0.2,0.8,0.1s-0.4-0.6-0.2-0.8c0.2-0.3,0.3,0.4,0.6,0.6
							c0.4,0.3,0.7,0.8,0.6,1.3c0,0,0,0.4,1.7,0.5c0.8-0.1,1.6,0.1,2.3,0.5C42.2,17.4,42.7,18.1,42.2,18.6z"/>
						<g>
							<defs>
								<path id="SVGID_13_" d="M42.2,18.6c-1,1.1-4.1-0.5-5.3-1.4c0,0-1.5-0.5-1.6-0.9s0.1-0.4,0.1-0.4s-0.1-0.3,0-0.4
									c0,0-0.1-0.4,0-0.4c0,0-0.1-0.5,0.6-0.5c0,0-0.1,0.3,0.1,0.4s0.8,0.2,0.8,0.1s-0.4-0.6-0.2-0.8c0.2-0.3,0.3,0.4,0.6,0.6
									c0.4,0.3,0.7,0.8,0.6,1.3c0,0,0,0.4,1.7,0.5c0.8-0.1,1.6,0.1,2.3,0.5C42.2,17.4,42.7,18.1,42.2,18.6z"/>
							</defs>
							<clipPath id="SVGID_14_">
								<use xlink:href="#SVGID_13_"  overflow="visible"/>
							</clipPath>
							<g id="Path_358-2" transform="translate(0 0)" clip-path="url(#SVGID_14_)">
								<path id="Path_358-3" fill="#F1B2A2" d="M36.8,17.2c0,0,4.2,2.1,5.6,1.1c1.4-1-0.4,1.5-0.4,1.5l-5.6-1.5L36.8,17.2z"/>
							</g>
						</g>
					</g>
					<path id="Path_348" fill="none" stroke="#301913" stroke-width="0.2" stroke-miterlimit="10" d="M46.5,24.2l0.1-0.8"/>
					<path id="Path_367" fill="none" stroke="#99776C" stroke-width="0.5" stroke-miterlimit="10" d="M40.8,23.4c0,0,1,1.1,1.4,1.5
						c1.3,1.2,2.1,1.6,2.3,2.6"/>
					<path id="Path_368" fill="none" stroke="#99776C" stroke-width="0.5" stroke-miterlimit="10" d="M43.6,26.2
						c0.4,0,0.7,0.1,1,0.4"/>
					<path id="Path_355" fill="none" stroke="#99776C" stroke-width="0.5" stroke-miterlimit="10" d="M52.8,27.2
						c0.5,0.3,1,0.5,1.6,0.4c1.1,0,2.3,0.2,2.8,1"/>
					<path id="Path_373" fill="none" stroke="#99776C" stroke-width="0.2" stroke-miterlimit="10" d="M50.3,26.1
						c0,0,0.1,0.2,0.4,0.2"/>
					<path id="Path_374" fill="none" stroke="#99776C" stroke-width="0.2" stroke-miterlimit="10" d="M50.3,26.6
						c0.1,0.1,0.2,0.2,0.4,0.2"/>
					<path id="Path_375" fill="none" stroke="#99776C" stroke-width="0.2" stroke-miterlimit="10" d="M50.3,27
						c0.1,0.1,0.2,0.2,0.4,0.2"/>
				</g>
			</g>
		</g>
		<g id="Group_5" transform="translate(32.118 10.622)">
			<g id="_148839" transform="translate(0 0)">
				<path id="Path" fill="#E4B62C" d="M38.8,14.3l0.7,1.5c0.1,0.1,0.2,0.2,0.3,0.2l1.6,0.2c0.2,0,0.3,0.2,0.3,0.4
					c0,0.1,0,0.1-0.1,0.2L40.4,18c-0.1,0.1-0.1,0.2-0.1,0.3l0.3,1.6c0,0.2-0.1,0.4-0.3,0.4c-0.1,0-0.2,0-0.2,0l-1.5-0.8
					c-0.1-0.1-0.2-0.1-0.3,0l-1.5,0.8c-0.2,0.1-0.4,0-0.5-0.1c0-0.1,0-0.1,0-0.2l0.3-1.6c0-0.1,0-0.2-0.1-0.3l-1.2-1.2
					c-0.1-0.1-0.1-0.4,0-0.5c0.1-0.1,0.1-0.1,0.2-0.1l1.6-0.2c0.1,0,0.2-0.1,0.3-0.2l0.7-1.5c0.1-0.2,0.3-0.2,0.5-0.2
					C38.7,14.2,38.8,14.2,38.8,14.3z"/>
			</g>
			<g id="_148839_copy" transform="translate(7.893 0)">
				<path id="Path-2" fill="#E4B62C" d="M38.8,14.3l0.7,1.5c0.1,0.1,0.2,0.2,0.3,0.2l1.6,0.2c0.2,0,0.3,0.2,0.3,0.4
					c0,0.1,0,0.1-0.1,0.2L40.4,18c-0.1,0.1-0.1,0.2-0.1,0.3l0.3,1.6c0,0.2-0.1,0.4-0.3,0.4c-0.1,0-0.2,0-0.2,0l-1.5-0.8
					c-0.1-0.1-0.2-0.1-0.3,0l-1.5,0.8c-0.2,0.1-0.4,0-0.5-0.1c0-0.1,0-0.1,0-0.2l0.3-1.6c0-0.1,0-0.2-0.1-0.3l-1.2-1.2
					c-0.1-0.1-0.1-0.4,0-0.5c0.1-0.1,0.1-0.1,0.2-0.1l1.6-0.2c0.1,0,0.2-0.1,0.3-0.2l0.7-1.5c0.1-0.2,0.3-0.2,0.5-0.2
					C38.7,14.2,38.8,14.2,38.8,14.3z"/>
			</g>
			<g id="_148839_copy_3" transform="translate(15.787 0)">
				<path id="Path-3" fill="#E4B62C" d="M38.8,14.3l0.7,1.5c0.1,0.1,0.2,0.2,0.3,0.2l1.6,0.2c0.2,0,0.3,0.2,0.3,0.4
					c0,0.1,0,0.1-0.1,0.2L40.4,18c-0.1,0.1-0.1,0.2-0.1,0.3l0.3,1.6c0,0.2-0.1,0.4-0.3,0.4c-0.1,0-0.2,0-0.2,0l-1.5-0.8
					c-0.1-0.1-0.2-0.1-0.3,0l-1.5,0.8c-0.2,0.1-0.4,0-0.5-0.1c0-0.1,0-0.1,0-0.2l0.3-1.6c0-0.1,0-0.2-0.1-0.3l-1.2-1.2
					c-0.1-0.1-0.1-0.4,0-0.5c0.1-0.1,0.1-0.1,0.2-0.1l1.6-0.2c0.1,0,0.2-0.1,0.3-0.2l0.7-1.5c0.1-0.2,0.3-0.2,0.5-0.2
					C38.7,14.2,38.8,14.2,38.8,14.3z"/>
			</g>
			<g id="_148839_copy_2" transform="translate(23.68 0)">
				<path id="Path-4" fill="#E4B62C" d="M38.8,14.3l0.7,1.5c0.1,0.1,0.2,0.2,0.3,0.2l1.6,0.2c0.2,0,0.3,0.2,0.3,0.4
					c0,0.1,0,0.1-0.1,0.2L40.4,18c-0.1,0.1-0.1,0.2-0.1,0.3l0.3,1.6c0,0.2-0.1,0.4-0.3,0.4c-0.1,0-0.2,0-0.2,0l-1.5-0.8
					c-0.1-0.1-0.2-0.1-0.3,0l-1.5,0.8c-0.2,0.1-0.4,0-0.5-0.1c0-0.1,0-0.1,0-0.2l0.3-1.6c0-0.1,0-0.2-0.1-0.3l-1.2-1.2
					c-0.1-0.1-0.1-0.4,0-0.5c0.1-0.1,0.1-0.1,0.2-0.1l1.6-0.2c0.1,0,0.2-0.1,0.3-0.2l0.7-1.5c0.1-0.2,0.3-0.2,0.5-0.2
					C38.7,14.2,38.8,14.2,38.8,14.3z"/>
			</g>
			<g id="_148839_copy_4" transform="translate(31.574 0)">
				<path id="Path-5" fill="#E4B62C" d="M38.8,14.3l0.7,1.5c0.1,0.1,0.2,0.2,0.3,0.2l1.6,0.2c0.2,0,0.3,0.2,0.3,0.4
					c0,0.1,0,0.1-0.1,0.2L40.4,18c-0.1,0.1-0.1,0.2-0.1,0.3l0.3,1.6c0,0.2-0.1,0.4-0.3,0.4c-0.1,0-0.2,0-0.2,0l-1.5-0.8
					c-0.1-0.1-0.2-0.1-0.3,0l-1.5,0.8c-0.2,0.1-0.4,0-0.5-0.1c0-0.1,0-0.1,0-0.2l0.3-1.6c0-0.1,0-0.2-0.1-0.3l-1.2-1.2
					c-0.1-0.1-0.1-0.4,0-0.5c0.1-0.1,0.1-0.1,0.2-0.1l1.6-0.2c0.1,0,0.2-0.1,0.3-0.2l0.7-1.5c0.1-0.2,0.3-0.2,0.5-0.2
					C38.7,14.2,38.8,14.2,38.8,14.3z"/>
			</g>
		</g>
	</g>
</g>
</svg>
