<svg id="Group_20844" data-name="Group 20844" xmlns="http://www.w3.org/2000/svg" width="90.003" height="90.003" viewBox="0 0 90.003 90.003">
  <circle id="Ellipse_2091" data-name="Ellipse 2091" cx="45.002" cy="45.002" r="45.002" transform="translate(0 0)" fill="#4d6882"/>
  <g id="Group_20822" data-name="Group 20822" transform="translate(23.027 20.011)">
    <path id="Path_54770" data-name="Path 54770" d="M221.113,490.449h-37.19a3.067,3.067,0,0,1-3.064-3.064V460.038a1.021,1.021,0,1,1,2.042,0v27.347a1.023,1.023,0,0,0,1.022,1.022h37.19a1.024,1.024,0,0,0,1.022-1.022V441.2a1.023,1.023,0,0,0-1.022-1.02H200.44a1.022,1.022,0,0,1,0-2.044h20.673a3.068,3.068,0,0,1,3.064,3.064v46.182A3.067,3.067,0,0,1,221.113,490.449Z" transform="translate(-180.859 -438.139)" fill="#fff"/>
    <path id="Path_54771" data-name="Path 54771" d="M197.838,439.906a13.855,13.855,0,0,0-2.077.157,1.022,1.022,0,0,0,.31,2.021,11.54,11.54,0,0,1,10.6,18.839,10.254,10.254,0,0,0-5.335-4.463,4.982,4.982,0,0,0,1.51-3.578v-1a5.006,5.006,0,1,0-10.012,0v1a4.989,4.989,0,0,0,1.508,3.578A10.267,10.267,0,0,0,189,460.942a11.532,11.532,0,0,1-2.544-5.523,1.021,1.021,0,0,0-2.014.338,13.589,13.589,0,1,0,13.4-15.851Zm-2.963,12.976v-1a2.964,2.964,0,0,1,5.927,0v1a2.964,2.964,0,0,1-5.927,0Zm-4.362,9.554a8.174,8.174,0,0,1,14.641-.016,11.565,11.565,0,0,1-14.641.016Z" transform="translate(-176.18 -435.82)" fill="#fff"/>
    <path id="Path_54772" data-name="Path 54772" d="M203.121,457.767h-14.51a1.022,1.022,0,1,1,0-2.044h14.51a1.022,1.022,0,0,1,0,2.044Z" transform="translate(-172.025 -415.059)" fill="#fff"/>
    <path id="Path_54773" data-name="Path 54773" d="M186.724,455.292a1.026,1.026,0,1,1,.722-.3A1.031,1.031,0,0,1,186.724,455.292Z" transform="translate(-174.502 -418.306)" fill="#fff"/>
    <path id="Path_54774" data-name="Path 54774" d="M186.724,457.767a1.022,1.022,0,0,1,0-2.044,1.02,1.02,0,0,1,.722,1.744A1.031,1.031,0,0,1,186.724,457.767Z" transform="translate(-174.502 -415.059)" fill="#fff"/>
    <path id="Path_54775" data-name="Path 54775" d="M203.121,455.292h-14.51a1.022,1.022,0,0,1,0-2.044h14.51a1.022,1.022,0,0,1,0,2.044Z" transform="translate(-172.025 -418.306)" fill="#fff"/>
    <path id="Path_54776" data-name="Path 54776" d="M185.628,446.952a1.021,1.021,0,0,1-.724-.3l-1.859-1.859a1.022,1.022,0,1,1,1.445-1.445l1.138,1.138,3.326-3.328A1.022,1.022,0,0,1,190.4,442.6l-4.049,4.049A1.02,1.02,0,0,1,185.628,446.952Z" transform="translate(-178.382 -434.57)" fill="#fff"/>
    <path id="Path_54777" data-name="Path 54777" d="M189.235,454.894a8.378,8.378,0,1,1,8.379-8.377A8.386,8.386,0,0,1,189.235,454.894Zm0-14.711a6.334,6.334,0,1,0,6.334,6.334A6.341,6.341,0,0,0,189.235,440.183Z" transform="translate(-180.859 -438.139)" fill="#fff"/>
  </g>
</svg>
