<svg id="Group_20841" data-name="Group 20841" xmlns="http://www.w3.org/2000/svg" xmlns:xlink="http://www.w3.org/1999/xlink" width="90.003" height="90.003" viewBox="0 0 90.003 90.003">
  <defs>
    <clipPath id="clip-path">
      <rect id="Rectangle_16407" data-name="Rectangle 16407" width="49.807" height="49.807" fill="none"/>
    </clipPath>
  </defs>
  <circle id="Ellipse_2094" data-name="Ellipse 2094" cx="45.002" cy="45.002" r="45.002" fill="#4d6882"/>
  <g id="Group_20823" data-name="Group 20823" transform="translate(21.271 22.604)">
    <g id="Group_20640" data-name="Group 20640">
      <g id="Group_20639" data-name="Group 20639" clip-path="url(#clip-path)">
        <path id="Path_54780" data-name="Path 54780" d="M422.207,473.881a2.477,2.477,0,0,0-2.387-1.73h-1.1V445.356a.837.837,0,0,0-.837-.837H406.164v-4.186a.839.839,0,0,0-.84-.837H373.509a.837.837,0,0,0-.837.837v43.538a.837.837,0,0,0,.837.837h27.664L400.755,486a2.511,2.511,0,0,0,3.867,2.81l4.389-3.2a.84.84,0,0,1,.994,0l4.4,3.2A2.513,2.513,0,0,0,418.269,486l-1.681-5.18a.828.828,0,0,1,.308-.927l4.406-3.2a2.479,2.479,0,0,0,.907-2.815Zm-5.16-27.687v25.957h-2.671a.819.819,0,0,1-.259-.044.847.847,0,0,1-.534-.534L411.9,466.4a2.513,2.513,0,0,0-4.773,0l-.962,2.96v-8.092h6.7a.837.837,0,0,0,0-1.674h-6.7v-3.349h6.7a.837.837,0,0,0,0-1.674h-6.7v-3.349h6.7a.838.838,0,0,0,0-1.677h-6.7v-3.349Zm-42.7,36.841V441.17h30.141v30.98h-5.282a2.511,2.511,0,0,0-1.48,4.544l4.4,3.2a.83.83,0,0,1,.308.932l-.717,2.209Zm45.967-7.692-4.4,3.2a2.5,2.5,0,0,0-.916,2.8l1.684,5.173a.836.836,0,0,1-1.288.939l-4.4-3.2a2.531,2.531,0,0,0-2.958,0l-4.394,3.2a.837.837,0,0,1-1.29-.939l1.681-5.171a2.5,2.5,0,0,0-.916-2.808l-4.4-3.194a.837.837,0,0,1,.495-1.517h5.442a2.347,2.347,0,0,0,1.011-.22l.016-.009.014,0,.032-.021a2.492,2.492,0,0,0,1.316-1.48l1.681-5.173a.838.838,0,0,1,1.591,0l1.684,5.178a2.513,2.513,0,0,0,2.384,1.73h5.444a.837.837,0,0,1,.495,1.517Zm0,0" transform="translate(-372.579 -439.495)" fill="#fff"/>
      </g>
    </g>
    <path id="Path_54781" data-name="Path 54781" d="M376.405,444.066h18.42a.837.837,0,1,0,0-1.674h-18.42a.837.837,0,1,0,0,1.674Zm0,0" transform="translate(-368.777 -435.694)" fill="#fff"/>
    <path id="Path_54782" data-name="Path 54782" d="M376.405,446.963h18.42a.837.837,0,1,0,0-1.674h-18.42a.837.837,0,1,0,0,1.674Zm0,0" transform="translate(-368.777 -431.891)" fill="#fff"/>
    <path id="Path_54783" data-name="Path 54783" d="M376.405,449.859h18.42a.837.837,0,1,0,0-1.674h-18.42a.837.837,0,1,0,0,1.674Zm0,0" transform="translate(-368.777 -428.09)" fill="#fff"/>
    <path id="Path_54784" data-name="Path 54784" d="M395.663,451.918a.838.838,0,0,0-.837-.837h-18.42a.838.838,0,0,0,0,1.677h18.42a.839.839,0,0,0,.837-.84Zm0,0" transform="translate(-368.777 -424.288)" fill="#fff"/>
  </g>
</svg>
