<svg xmlns="http://www.w3.org/2000/svg" width="55" height="55" viewBox="0 0 55 55">
  <g id="Group_20815" data-name="Group 20815" transform="translate(7523.683 9048.74)">
    <circle id="Ellipse_2089" data-name="Ellipse 2089" cx="27.5" cy="27.5" r="27.5" transform="translate(-7523.683 -9048.74)" fill="#e4b62c"/>
    <path id="Path_56693" data-name="Path 56693" d="M62.933,446.55l-3.217,3.22-1.263-1.265a.978.978,0,1,0-1.383,1.383l1.955,1.954a.971.971,0,0,0,.691.288.985.985,0,0,0,.692-.286l3.909-3.911a.979.979,0,0,0-1.384-1.384Z" transform="translate(-7561.012 -9471.75)" fill="#fff"/>
    <path id="Path_56694" data-name="Path 56694" d="M62.933,452.053l-3.217,3.22-1.263-1.262a.977.977,0,0,0-1.383,1.381l1.955,1.955a.98.98,0,0,0,1.383,0l3.909-3.911a.979.979,0,0,0-1.384-1.384Z" transform="translate(-7561.012 -9469.465)" fill="#fff"/>
    <path id="Path_56695" data-name="Path 56695" d="M63.662,448.619a.978.978,0,0,0,.978.978H68.55a.978.978,0,0,0,0-1.955H64.64A.978.978,0,0,0,63.662,448.619Z" transform="translate(-7558.152 -9471.171)" fill="#fff"/>
    <path id="Path_56696" data-name="Path 56696" d="M68.55,453.144H64.64a.978.978,0,1,0,0,1.955H68.55a.978.978,0,1,0,0-1.955Z" transform="translate(-7558.152 -9468.884)" fill="#fff"/>
    <path id="Path_56697" data-name="Path 56697" d="M70.65,439.953H68.528a2.94,2.94,0,0,0-5.532,0H60.875a.975.975,0,0,0-.978.972v.971H55.986a1.953,1.953,0,0,0-1.955,1.943v23.313a1.953,1.953,0,0,0,1.955,1.943H75.538a1.951,1.951,0,0,0,1.954-1.943V443.839a1.952,1.952,0,0,0-1.954-1.943H71.627v-.971A.975.975,0,0,0,70.65,439.953Zm-8.8,1.943h1.954a.975.975,0,0,0,.978-.971.978.978,0,0,1,1.955,0,.975.975,0,0,0,.978.971h1.955v1.943h-7.82Zm13.686,1.943v23.313H55.986V443.839H59.9v.971a.974.974,0,0,0,.978.97H70.65a.974.974,0,0,0,.978-.97v-.971Z" transform="translate(-7562.187 -9475.132)" fill="#fff"/>
  </g>
</svg>
