<svg id="Material_icons-07-84" data-name="Material icons-07-84" xmlns="http://www.w3.org/2000/svg" width="38.333" height="40" viewBox="0 0 38.333 40">
  <path id="Path_33702" data-name="Path 33702" d="M1,36.667H12.667V33.333H4.333V11.667h8.333V3.333H24.333V15h3.333V0H8.643L1,7.643ZM9.333,4.023v4.31H5.023Z" transform="translate(-1)" fill="#2e4354"/>
  <path id="Path_33703" data-name="Path 33703" d="M19.827,11.007a10.828,10.828,0,1,0,7.437,18.7,10.045,10.045,0,0,0,1.19-1.322l-2.66-2.008a7.518,7.518,0,1,1,1.068-7.045H23.923L28.96,26,34,19.329H30.353A10.843,10.843,0,0,0,19.827,11.007Z" transform="translate(4.333 7.338)" fill="#2e4354"/>
</svg>
