<svg xmlns="http://www.w3.org/2000/svg" width="48.261" height="40" viewBox="0 0 48.261 40">
  <g id="Material_icons-08-04" data-name="Material icons-08-04" transform="translate(22)">
    <path id="Path_33731" data-name="Path 33731" d="M14.549,6.966l.9.272a12.982,12.982,0,0,1,2.431,1.016L18.7,8.7l3.166-1.923,2.839,2.873L22.8,12.86l.446.835a13.254,13.254,0,0,1,1,2.458l.27.907,3.584.908V22.03l-3.591.91-.268.908a13.161,13.161,0,0,1-1,2.458l-.444.833,1.9,3.209-2.839,2.873-3.169-1.926-.824.45a12.925,12.925,0,0,1-2.427,1.015l-.9.273-.9,3.634H9.994V40h6.227l1.073-4.351c.436-.16.864-.342,1.284-.537l3.8,2.308,6.47-6.552-2.277-3.844c.194-.425.372-.86.53-1.3l4.3-1.091V15.364L27.1,14.278q-.239-.667-.53-1.3L28.847,9.13l-6.47-6.552-3.8,2.306c-.421-.2-.851-.377-1.284-.538L16.222,0H10V3.333h3.656Z" transform="translate(-5.135)" fill="#2e4354"/>
    <path id="Path_33732" data-name="Path 33732" d="M11,20.167v3.291A8.228,8.228,0,1,0,11,7v3.291a4.937,4.937,0,0,1,0,9.873Z" transform="translate(-4.662 4.77)" fill="#2e4354"/>
    <ellipse id="Ellipse_514" data-name="Ellipse 514" cx="3.291" cy="3.291" rx="3.291" ry="3.291" transform="translate(-5.377)" fill="#2e4354"/>
    <ellipse id="Ellipse_1790" data-name="Ellipse 1790" cx="3.291" cy="3.291" rx="3.291" ry="3.291" transform="translate(-18.711)" fill="#2e4354"/>
    <path id="Path_33733" data-name="Path 33733" d="M5.286,36.266h6.582V21.456H15.16V8.291A3.292,3.292,0,0,0,11.868,5L8.577,8.291,5.286,5A3.292,3.292,0,0,0,2,8.291V21.456H5.286Z" transform="translate(-10.673 3.728)" fill="#2e4354"/>
    <path id="Path_42813" data-name="Path 42813" d="M5.286,36.266h6.582V21.456H15.16V8.291A3.292,3.292,0,0,0,11.868,5L8.577,8.291,5.286,5A3.292,3.292,0,0,0,2,8.291V21.456H5.286Z" transform="translate(-23.995 3.728)" fill="#2e4354"/>
  </g>
</svg>
