<svg xmlns="http://www.w3.org/2000/svg" width="40" height="40" viewBox="0 0 40 40">
  <path id="Shape" d="M12.067,40a6.1,6.1,0,0,1-4.525-2.02,5.947,5.947,0,0,1,.8-8.706l2.129,2.576a2.5,2.5,0,0,0-1.007,2.756,2.662,2.662,0,1,0,4.713-2.238c-.02-.027-.525-.637-1.362-1.648C9.976,27.293,3.333,19.266,1.482,16.94A6.707,6.707,0,0,1,0,12.8,5.813,5.813,0,0,1,.937,9.612a6.086,6.086,0,0,1,2.48-2.154C6.842,5.7,9.481,4.336,11.407,3.337,17.843,0,17.843,0,19.316,0h.042a5.742,5.742,0,0,1,3.413,10.365L9.779,17.775,7.563,15.068A2.576,2.576,0,0,0,8.6,12.26,2.608,2.608,0,0,0,6.02,10.235a2.725,2.725,0,0,0-2.384,1.53,2.781,2.781,0,0,0,.491,3.026c2.292,2.934,11.67,14.265,12.539,15.3a5.982,5.982,0,0,1,1.377,3.247l1.147-.723c2.727-1.72,8.4-5.3,9.5-6a2.638,2.638,0,0,0,1.235-1.838,2.334,2.334,0,0,0-.609-1.894l-.5-.57c.2-.431.418-.884.629-1.288a7.087,7.087,0,0,0,2.144-.664l.6.717a5.28,5.28,0,0,1,1.146,3.338,5.939,5.939,0,0,1-2.486,4.829L15.135,39.15A6.086,6.086,0,0,1,12.067,40ZM19.382,3.363a2.438,2.438,0,0,0-1.015.224L9.62,8.063a6,6,0,0,1,2.425,4.553L20.54,7.8a2.356,2.356,0,0,0,.913-3.186A2.3,2.3,0,0,0,19.382,3.363ZM18.2,28.032h0l-1.074-1.3,5.748-3.362-.415,1.015-.6,1.508-3.656,2.14Zm-2.462-2.984h0l-1.074-1.3,8.009-4.68,1.113,1.279-8.046,4.7ZM24.012,25v0a56.325,56.325,0,0,1,6.162-11.655,33.1,33.1,0,0,0-4.436,4.639c-1.965-3.272-.2-6.5,1.622-8.632a4.178,4.178,0,0,0,1,2.458,8.354,8.354,0,0,1,.325-3.918,20.446,20.446,0,0,1,3.521-2.933,3.788,3.788,0,0,0,.437,2.268,7.225,7.225,0,0,1,.868-3.067A12.461,12.461,0,0,1,40,1.667a16.655,16.655,0,0,1-1.706,6.007,8.671,8.671,0,0,1-2.985,1.388,6.853,6.853,0,0,0,1.214.1A7.718,7.718,0,0,0,37.8,9.06a28.5,28.5,0,0,1-1.664,3.794,9.366,9.366,0,0,1-3.672,1.375,5.156,5.156,0,0,0,1.8.3,3.14,3.14,0,0,0,1-.132,13.55,13.55,0,0,1-2.808,3.436A5.962,5.962,0,0,1,28.6,19.41c-.058,0-.116,0-.174,0A45.819,45.819,0,0,0,26.2,24.078L24.014,25ZM13.265,22.043h0l-1.075-1.3,7.917-4.631,1.113,1.28-7.954,4.651Z" fill="#2e4354"/>
</svg>
