<svg xmlns="http://www.w3.org/2000/svg" id="prefix__Material_icons-06-55" width="32" height="31.219" data-name="Material icons-06-55" viewBox="0 0 32 31.219">
    <defs>
        <style>
            .prefix__cls-1{fill:#4d6882}
        </style>
    </defs>
    <path id="prefix__Path_33435" d="M24.839.586l-2.691 2.691L19.456.586l-7.68 7.68 1.9 1.9 5.777-5.777.789.789L6 19.425v4.594h4.594L29.433 5.18zm0 3.805l.789.789-.789.789-.789-.789zm-1.9 3.48L18 12.808l-.789-.789 4.937-4.937zM9.48 21.328h-.789v-.789l6.617-6.615.789.787z" class="prefix__cls-1" data-name="Path 33435" transform="translate(1.778 -.586)"/>
    <path id="prefix__Path_33436" d="M24 12.691h5.333v13.457H2.667V12.691h6.666V10H0v18.839h32V10h-8z" class="prefix__cls-1" data-name="Path 33436" transform="translate(0 2.38)"/>
    <path id="prefix__Rectangle_12083" d="M0 0H13.456V2.691H0z" class="prefix__cls-1" data-name="Rectangle 12083" transform="translate(4.037 24.49)"/>
    <path id="prefix__Rectangle_12084" d="M0 0H8.074V2.691H0z" class="prefix__cls-1" data-name="Rectangle 12084" transform="translate(19.889 24.49)"/>
    <path id="prefix__Rectangle_12085" d="M0 0H2.691V2.691H0z" class="prefix__cls-1" data-name="Rectangle 12085" transform="translate(25.272 19.202)"/>
</svg>
