<svg id="Group_20831" data-name="Group 20831" xmlns="http://www.w3.org/2000/svg" width="90.003" height="90.003" viewBox="0 0 90.003 90.003">
  <ellipse id="Ellipse_2098" data-name="Ellipse 2098" cx="45.002" cy="45.002" rx="45.002" ry="45.002" transform="translate(0 0)" fill="#4d6882"/>
  <g id="Group_20825" data-name="Group 20825" transform="translate(19.275 14.05)">
    <path id="Path_54467" data-name="Path 54467" d="M86.068,381.584a5.121,5.121,0,0,0-4.135,2.1,5.114,5.114,0,0,0-8.27,0,5.11,5.11,0,0,0-7.286-1.016V368.709a5.121,5.121,0,0,0-10.241,0v36.1A8.873,8.873,0,0,0,65,413.675H82.324a8.873,8.873,0,0,0,8.865-8.865V386.7a5.126,5.126,0,0,0-5.121-5.121Zm3.152,23.227a6.9,6.9,0,0,1-6.9,6.9H65a6.9,6.9,0,0,1-6.893-6.9v-36.1a3.15,3.15,0,1,1,6.3,0v19.968a.985.985,0,0,0,1.969,0V386.7a3.15,3.15,0,0,1,6.3,0v1.971a.985.985,0,0,0,1.969,0V386.7a3.15,3.15,0,0,1,6.3,0v1.971a.986.986,0,0,0,1.971,0V386.7a3.15,3.15,0,0,1,6.3,0v18.106Zm0,0" transform="translate(-44.318 -351.771)" fill="#fff"/>
    <path id="Path_54468" data-name="Path 54468" d="M73.7,372.094a8.987,8.987,0,0,1-1.775,5.388.985.985,0,0,0,1.583,1.173,11.029,11.029,0,1,0-17.732,0,.984.984,0,1,0,1.58-1.173A9.059,9.059,0,1,1,73.7,372.094Zm0,0" transform="translate(-47.702 -355.157)" fill="#fff"/>
    <path id="Path_54469" data-name="Path 54469" d="M60.451,384.868a15.044,15.044,0,0,1-7.394-12.913,14.816,14.816,0,0,1,3.159-9.2.985.985,0,0,0-1.555-1.211,16.948,16.948,0,0,0-1.267,18.944,17.051,17.051,0,0,0,6.057,6.074,1,1,0,0,0,.5.136.985.985,0,0,0,.5-1.833Zm0,0" transform="translate(-51.088 -355.017)" fill="#fff"/>
    <path id="Path_54470" data-name="Path 54470" d="M55.3,363.669a14.816,14.816,0,0,1,9.2-3.159,14.969,14.969,0,0,1,11.073,25.041.985.985,0,1,0,1.456,1.325,16.939,16.939,0,0,0-22.936-24.763.985.985,0,0,0,1.211,1.555Zm0,0" transform="translate(-47.564 -358.541)" fill="#fff"/>
  </g>
</svg>
