<svg xmlns="http://www.w3.org/2000/svg" width="38.838" height="32.236" viewBox="0 0 38.838 32.236">
  <g id="Group_20458" data-name="Group 20458" transform="translate(-1447 -98.9)">
    <g id="Group_12930" data-name="Group 12930" transform="translate(1448 99.9)">
      <path id="Path_34147" data-name="Path 34147" d="M296.388,214.736H280.524c-.3,0-.524-.332-.524-.775V185.275c0-.443.224-.775.524-.775h15.864c.3,0,.524.332.524.775v28.685C296.912,214.4,296.688,214.736,296.388,214.736Z" transform="translate(-280 -184.5)" fill="none" stroke="#4d6982" stroke-linecap="square" stroke-miterlimit="10" stroke-width="2"/>
    </g>
    <g id="Group_12931" data-name="Group 12931" transform="translate(1467.936 99.9)">
      <path id="Path_34147-2" data-name="Path 34147" d="M296.379,214.736H280.524c-.3,0-.523-.332-.523-.775V185.275c0-.443.224-.775.523-.775h15.855c.3,0,.523.332.523.775v28.685C296.9,214.4,296.678,214.736,296.379,214.736Z" transform="translate(-280 -184.5)" fill="none" stroke="#4d6982" stroke-miterlimit="10" stroke-width="2"/>
    </g>
    <path id="Path_34207" data-name="Path 34207" d="M0,0H7.258" transform="translate(1450.157 104.995)" fill="none" stroke="#4d6982" stroke-width="0.7"/>
    <path id="Path_34208" data-name="Path 34208" d="M7.258,0H0" transform="translate(1475.63 104.995)" fill="none" stroke="#4d6982" stroke-width="0.7"/>
    <path id="Path_34209" data-name="Path 34209" d="M0,0H7.258" transform="translate(1450.157 102.779)" fill="none" stroke="#4d6982" stroke-width="0.7"/>
    <path id="Path_34210" data-name="Path 34210" d="M7.258,0H0" transform="translate(1475.63 102.779)" fill="none" stroke="#4d6982" stroke-width="0.7"/>
    <line id="Line_192" data-name="Line 192" x2="7.258" transform="translate(1450.157 107.21)" fill="none" stroke="#4d6982" stroke-width="0.7"/>
    <line id="Line_193" data-name="Line 193" x1="7.258" transform="translate(1475.63 107.21)" fill="none" stroke="#4d6982" stroke-width="0.7"/>
    <line id="Line_194" data-name="Line 194" x2="7.079" transform="translate(1450.157 109.425)" fill="none" stroke="#4d6982" stroke-width="0.7"/>
    <line id="Line_195" data-name="Line 195" x1="7.179" transform="translate(1475.708 109.425)" fill="none" stroke="#4d6982" stroke-width="0.7"/>
    <line id="Line_196" data-name="Line 196" x2="12.795" transform="translate(1450.157 111.64)" fill="none" stroke="#4d6982" stroke-width="0.7"/>
    <line id="Line_197" data-name="Line 197" x1="12.795" transform="translate(1470.093 111.64)" fill="none" stroke="#4d6982" stroke-width="0.7"/>
    <line id="Line_198" data-name="Line 198" x2="12.795" transform="translate(1450.157 113.855)" fill="none" stroke="#4d6982" stroke-width="0.7"/>
    <line id="Line_199" data-name="Line 199" x1="12.795" transform="translate(1470.093 113.855)" fill="none" stroke="#4d6982" stroke-width="0.7"/>
    <line id="Line_200" data-name="Line 200" x2="12.795" transform="translate(1450.157 116.07)" fill="none" stroke="#4d6982" stroke-width="0.7"/>
    <line id="Line_201" data-name="Line 201" x1="12.795" transform="translate(1470.093 116.07)" fill="none" stroke="#4d6982" stroke-width="0.7"/>
    <line id="Line_202" data-name="Line 202" x2="12.795" transform="translate(1450.157 118.285)" fill="none" stroke="#4d6982" stroke-width="0.7"/>
    <line id="Line_203" data-name="Line 203" x1="12.795" transform="translate(1470.093 118.285)" fill="none" stroke="#4d6982" stroke-width="0.7"/>
    <line id="Line_204" data-name="Line 204" x2="12.795" transform="translate(1450.157 120.5)" fill="none" stroke="#4d6982" stroke-width="0.7"/>
    <line id="Line_205" data-name="Line 205" x1="12.795" transform="translate(1470.093 120.5)" fill="none" stroke="#4d6982" stroke-width="0.7"/>
    <line id="Line_206" data-name="Line 206" x2="12.795" transform="translate(1450.157 122.715)" fill="none" stroke="#4d6982" stroke-width="0.7"/>
    <line id="Line_207" data-name="Line 207" x1="12.795" transform="translate(1470.093 122.715)" fill="none" stroke="#4d6982" stroke-width="0.7"/>
    <line id="Line_208" data-name="Line 208" x2="12.795" transform="translate(1450.157 124.93)" fill="none" stroke="#4d6982" stroke-width="0.7"/>
    <line id="Line_209" data-name="Line 209" x1="12.795" transform="translate(1470.093 124.93)" fill="none" stroke="#4d6982" stroke-width="0.7"/>
    <line id="Line_210" data-name="Line 210" x2="12.795" transform="translate(1450.157 127.145)" fill="none" stroke="#4d6982" stroke-width="0.7"/>
    <line id="Line_211" data-name="Line 211" x1="12.795" transform="translate(1470.093 127.145)" fill="none" stroke="#4d6982" stroke-width="0.7"/>
    <g id="Material_icons-02-41" data-name="Material icons-02-41" transform="translate(1458.707 101.625)">
      <path id="Path_32693" data-name="Path 32693" d="M4.334,3.293,1.586,6.44,4.334,9.588l.822-.941L3.8,7.091h7.46V5.76H3.824L5.156,4.234Z" transform="translate(-1.586 -0.376)" fill="#4d6982"/>
      <path id="Path_34211" data-name="Path 34211" d="M8.51,3.293,11.258,6.44,8.51,9.589l-.822-.941L9.046,7.091H1.586V5.76H9.02L7.687,4.234Z" transform="translate(4.247 -3.293)" fill="#4d6982"/>
    </g>
  </g>
</svg>
