<svg xmlns="http://www.w3.org/2000/svg" width="27.507" height="32" viewBox="0 0 27.507 32">
  <g id="Group_14917" data-name="Group 14917" transform="translate(12362.391 -4747.505)">
    <path id="Material_icons-07-08" data-name="Material icons-07-08" d="M29.507,21.3V1.375H21.255V4.126H19.879V0H11.627V4.126H10.252V1.375H2V21.3L15.753,32ZM4.751,4.126H7.5V6.877h6.877V2.751h2.751V6.877h6.877V4.126h2.751V19.958l-11,8.557-11-8.557Z" transform="translate(-12364.391 4747.505)" fill="#4d6882"/>
    <path id="Path_42802" data-name="Path 42802" d="M11.782,4A4.823,4.823,0,0,0,6.964,8.818v.964H6v8.672H17.563V9.782H16.6V8.818A4.823,4.823,0,0,0,11.782,4ZM8.891,8.818a2.891,2.891,0,0,1,5.782,0v.964H8.891Zm6.745,7.709H7.927V11.709h7.709Z" transform="translate(-12360.223 4751.51)" fill="#4d6882"/>
  </g>
</svg>
