<svg id="Material_icons-07-84" data-name="Material icons-07-84" xmlns="http://www.w3.org/2000/svg" width="30.667" height="32" viewBox="0 0 30.667 32">
  <path id="Path_33702" data-name="Path 33702" d="M1,29.292h9.478V26.629H3.708V9.32h6.77V2.663h9.478v9.32h2.708V0H7.209L1,6.106ZM7.77,3.214V6.657h-3.5Z" transform="translate(-1)" fill="#4d6882"/>
  <path id="Path_33703" data-name="Path 33703" d="M17.8,11.007A8.8,8.8,0,1,0,23.837,26.2a8.16,8.16,0,0,0,.967-1.074l-2.161-1.632a6.108,6.108,0,1,1,.868-5.723H21.123l4.092,5.416,4.094-5.416H26.347A8.809,8.809,0,0,0,17.8,11.007Z" transform="translate(1.357 3.401)" fill="#4d6882"/>
</svg>
