<svg id="Group_19199" data-name="Group 19199" xmlns="http://www.w3.org/2000/svg" xmlns:xlink="http://www.w3.org/1999/xlink" width="1244.869" height="566" viewBox="0 0 1244.869 566">
  <defs>
    <clipPath id="clip-path">
      <rect id="Rectangle_16110" data-name="Rectangle 16110" width="566" height="1244.869" transform="translate(0 566) rotate(-90)" fill="none"/>
    </clipPath>
    <linearGradient id="linear-gradient" x1="0.505" y1="0.774" x2="0.488" y2="-0.103" gradientUnits="objectBoundingBox">
      <stop offset="0" stop-color="#fff"/>
      <stop offset="0.077" stop-color="#fff3e3"/>
      <stop offset="0.168" stop-color="#f4ebd1"/>
      <stop offset="0.251" stop-color="#f2e5bf"/>
      <stop offset="0.315" stop-color="#e6dcbd"/>
      <stop offset="0.493" stop-color="#bdd8e6"/>
      <stop offset="1" stop-color="#bdd8e6"/>
    </linearGradient>
    <linearGradient id="linear-gradient-2" x1="0.798" y1="-0.093" x2="-0.22" y2="2.662" gradientUnits="objectBoundingBox">
      <stop offset="0.065" stop-color="#f8e9ac"/>
      <stop offset="0.351" stop-color="#fbca8d"/>
      <stop offset="0.72" stop-color="#e4b934"/>
      <stop offset="0.971" stop-color="#be9fcf"/>
    </linearGradient>
    <linearGradient id="linear-gradient-3" x1="0.755" y1="-0.388" x2="-0.287" y2="3.614" xlink:href="#linear-gradient-2"/>
    <linearGradient id="linear-gradient-4" x1="6.302" y1="-0.492" x2="6.598" y2="-1.688" gradientUnits="objectBoundingBox">
      <stop offset="0" stop-color="#d8aa21"/>
      <stop offset="0.004" stop-color="#ed5632"/>
      <stop offset="0.995" stop-color="#ff7252"/>
      <stop offset="1" stop-color="#ff7252"/>
    </linearGradient>
    <linearGradient id="linear-gradient-5" x1="7.952" y1="1.207" x2="10.387" y2="2.434" gradientUnits="objectBoundingBox">
      <stop offset="0" stop-color="#0e755d"/>
      <stop offset="0.183" stop-color="#0e755d"/>
      <stop offset="1" stop-color="#29cb97"/>
    </linearGradient>
  </defs>
  <g id="Group_19198" data-name="Group 19198" transform="translate(0 0)" clip-path="url(#clip-path)">
    <rect id="Rectangle_16107" data-name="Rectangle 16107" width="960.425" height="543.692" transform="translate(-69.787 22.01)" fill="#fff"/>
    <rect id="Rectangle_16108" data-name="Rectangle 16108" width="960.458" height="544.188" transform="translate(-69.819 21.812)" fill="none"/>
    <path id="Path_52580" data-name="Path 52580" d="M0,0H1153.224V545.365H0Z" transform="translate(-0.381 0)" fill="url(#linear-gradient)"/>
    <path id="Path_52233" data-name="Path 52233" d="M556.635,462.4l-139.85-91.73-103.76,33.083L251.371,342.1l-28.07,6.516-80.2-60.652L-156.9,482.2l277.447,86.967,381.956-39.1,79.7-34.587Z" transform="translate(359.066 51.843)" fill="url(#linear-gradient-2)"/>
    <g id="Group_19111" data-name="Group 19111" transform="translate(114.902 108.201)">
      <path id="Path_52234" data-name="Path 52234" d="M427.345,234.847c2.049,1.336,3.425,3.985,2.6,6.287H291.678a13.144,13.144,0,0,1,12.093-8.092c5.242-.111,10.275,2.129,14.647,5.022a7.539,7.539,0,0,1-2.187-2.936,3.241,3.241,0,0,1,2.321-4.373,22.485,22.485,0,0,1,20.944,6.182A26.2,26.2,0,0,1,327.4,222.15c-1.079-3.395-1.295-7.513,1.132-10.119,2.765-2.966,7.5-2.593,11.478-1.785a117.816,117.816,0,0,1,37.927,14.925c5.619,3.44,11.219,7.688,13.63,13.82C397.318,235.422,414.288,226.326,427.345,234.847Z" transform="translate(-164.493 -75.921)" fill="#606060" style="mix-blend-mode: screen;isolation: isolate"/>
      <path id="Path_52235" data-name="Path 52235" d="M535.152,133.964c2.548,1.662,4.258,4.954,3.232,7.818H366.461c2.315-6.093,8.518-9.923,15.036-10.061s12.776,2.647,18.212,6.244a9.387,9.387,0,0,1-2.72-3.651,4.03,4.03,0,0,1,2.886-5.438,27.961,27.961,0,0,1,26.042,7.687,32.568,32.568,0,0,1-15.038-18.386c-1.342-4.221-1.611-9.343,1.409-12.582,3.437-3.688,9.33-3.225,14.271-2.22a146.5,146.5,0,0,1,47.159,18.558c6.988,4.276,13.951,9.56,16.948,17.184C497.816,134.68,518.916,123.369,535.152,133.964Z" transform="translate(-366.461 -102.66)" fill="#606060" style="mix-blend-mode: screen;isolation: isolate"/>
      <path id="Path_52236" data-name="Path 52236" d="M343.411,302.423a3.347,3.347,0,0,0-4.081-5.132,1.549,1.549,0,0,0,1.417-1.515,3.693,3.693,0,0,0-.731-2.136,13.2,13.2,0,0,0-23.831,3.536c.626-.717-.2-1.786-1.025-2.271a7.8,7.8,0,0,0-6.444-.926c-2.114.75-5.038,3.32-3.208,6.313a158.877,158.877,0,0,0-23.121,2Z" transform="translate(-66.852 -56.46)" fill="#606060" style="mix-blend-mode: screen;isolation: isolate"/>
    </g>
    <path id="Path_52237" data-name="Path 52237" d="M-24.178,109.339c5.59,17.021,9.408,36.555,4.656,54.022-6.372,23.412-25.77,35.385-43.915,41.29-22.658,7.373-46.136,9.161-68.978,15.443s-48.8,19.6-64.574,42.5-21.671,62.28-14.865,92.026c19.112,83.532,104.052,48.138,136.967,75.037,9,7.355,14.865,35.4-9.621,41.663a84.708,84.708,0,0,0-16.723,6.373c-10.212,5.1-19.53,19.969-20.639,34.435-1.454,18.971,19.165,40.52,33.445,42.473,31.056,4.248,54.15,2.125,82.02-8.495,138.423-52.738,167.167,94.936,191.115,115.741,62.178,54.022,146.7,51.39,215.19,13.295S521.969,556.936,547.09,463.822,569.707,266,544.775,172.791c-10.624-39.721-25.6-78.32-48.579-107.3-20.291-25.6-45.842-42.507-71.773-56.344-128.98-68.834-278.044-67.9-406.533,2.542-16.3,8.935-33.937,19.136-50.92,12.868-7.621-2.813-14.547-8.84-22.384-10.236C-82.664,9.466-64.429,35.885-56.1,47A217.35,217.35,0,0,1-24.178,109.339Z" transform="translate(1070.098 -36.759)" fill="#fff"/>
    <path id="Path_52240" data-name="Path 52240" d="M302.33,273.775a3.613,3.613,0,0,1,1.657,4.01h-88.16a8.378,8.378,0,0,1,7.71-5.159,16.679,16.679,0,0,1,9.339,3.2,4.805,4.805,0,0,1-1.395-1.872,2.066,2.066,0,0,1,1.48-2.788,14.337,14.337,0,0,1,13.354,3.941,16.7,16.7,0,0,1-7.712-9.428c-.687-2.165-.826-4.791.722-6.452,1.762-1.891,4.785-1.654,7.318-1.139a75.129,75.129,0,0,1,24.182,9.516c3.583,2.192,7.153,4.9,8.69,8.812C283.183,274.143,294,268.342,302.33,273.775Z" transform="translate(171.257 44.287)" fill="#606060" style="mix-blend-mode: screen;isolation: isolate"/>
    <g id="Group_19133" data-name="Group 19133" transform="translate(-111.077 -12.579)">
      <g id="Group_19113" data-name="Group 19113" transform="translate(430.15 375.941)">
        <path id="Path_52241" data-name="Path 52241" d="M464.434,424.735,411.7,351.123,390.648,340.6,369.595,306.01l-13.534,42.105s8.9-6.926-35.447,19.749S178.69,454.814,178.69,454.814Z" transform="translate(-178.69 -306.01)" fill="#69493b"/>
        <path id="Path_52242" data-name="Path 52242" d="M417.978,306.01l-13.534,42.105L254.569,433.83Z" transform="translate(-227.073 -306.01)" fill="#5f4033"/>
      </g>
      <g id="Group_19114" data-name="Group 19114" transform="translate(0 0)">
        <path id="Path_52243" data-name="Path 52243" d="M901.813,583.313c-2.655-2.742-231.358-80.3-235.087-81.115C647.949,498.065,257.174,30.4,257.174,30.4L221.043,358.335l23.363,109.923s-16.712-8.355-20.61-9.47c-22.283,6.128-42.893,16.712-57.989,19.662-5.069.99-12.3-.06-12.9,5.072a11.981,11.981,0,0,0,.68,4.241,23.233,23.233,0,0,1-6.229,21.934,125.623,125.623,0,0,1,4.3,27c.4,8.224.094,16.9,4.027,24.132,7.42,13.642,25.721,15.887,41.239,16.5l192.7,7.582c60.5,2.38,121.147,4.758,181.548.55,13.126-.914,26.965-2.4,37.561-10.205,14.492-10.669,124.778,46.4,121.46,28.714S914.326,596.246,901.813,583.313Z" transform="translate(-147.358 1.064)" fill="#69493b"/>
        <path id="Path_52244" data-name="Path 52244" d="M266.4,205l-22.559-4.512,34.59,102.266,142.8,158.487L361.335,592.2l16.542,9.023L545.3,624.781l160.4-82.206L398.93,201.221l-73.685-33.083-85.715-120.3-15.24,95.508Z" transform="translate(-46.798 5.422)" fill="#e6dcbd"/>
        <path id="Path_52245" data-name="Path 52245" d="M607.64,18.76,703.88,209.737l-138.3-45.218L514.447,33.679,524.933,5.226Z" transform="translate(-407.639 -5.226)" fill="#e6dcbd"/>
        <path id="Path_52246" data-name="Path 52246" d="M598.335,132.674l-.069,177.593,33.607-165.959Z" transform="translate(-440.393 26.62)" fill="#5f4033"/>
        <path id="Path_52247" data-name="Path 52247" d="M601.551,169.975,566.139,454.323l70-182.082Z" transform="translate(-404.508 35.94)" fill="#5f4033"/>
      </g>
      <g id="Group_19122" data-name="Group 19122" transform="translate(903.717 469.641)">
        <g id="Group_19118" data-name="Group 19118" transform="translate(58.838)">
          <g id="Group_19115" data-name="Group 19115" transform="translate(75.423 28.288)">
            <path id="Path_52248" data-name="Path 52248" d="M-98.829,403.61l4.507,38.291-8.487.058Z" transform="translate(124.076 -403.61)" fill="#4d6882"/>
            <path id="Path_52249" data-name="Path 52249" d="M-81.814,403.727l4.506,38.291-8.487.058Z" transform="translate(85.795 -403.581)" fill="#4d6882"/>
            <path id="Path_52250" data-name="Path 52250" d="M-95.663,414.649l2.852,24.23-5.371.037Z" transform="translate(116.781 -400.852)" fill="#4d6882"/>
            <path id="Path_52251" data-name="Path 52251" d="M-90.144,419.879l4.367,18.03-8.487.058Z" transform="translate(104.848 -399.545)" fill="#4d6882"/>
            <path id="Path_52252" data-name="Path 52252" d="M-87.17,408.488l2.9,32-5.371.037Z" transform="translate(97.552 -402.391)" fill="#4d6882"/>
          </g>
          <g id="Group_19116" data-name="Group 19116" transform="translate(102.062 38.265)">
            <path id="Path_52253" data-name="Path 52253" d="M-120.143,411.593l4.507,38.291-8.487.058Z" transform="translate(145.39 -411.593)" fill="#4d6882"/>
            <path id="Path_52254" data-name="Path 52254" d="M-103.128,411.709-98.622,450l-8.487.058Z" transform="translate(107.109 -411.563)" fill="#4d6882"/>
            <path id="Path_52255" data-name="Path 52255" d="M-116.977,422.631l2.852,24.23-5.371.037Z" transform="translate(138.094 -408.834)" fill="#4d6882"/>
            <path id="Path_52256" data-name="Path 52256" d="M-111.457,427.861l4.367,18.031-8.487.058Z" transform="translate(126.161 -407.528)" fill="#4d6882"/>
            <path id="Path_52257" data-name="Path 52257" d="M-108.484,416.471l2.905,32-5.371.037Z" transform="translate(118.866 -410.374)" fill="#4d6882"/>
          </g>
          <g id="Group_19117" data-name="Group 19117">
            <path id="Path_52258" data-name="Path 52258" d="M-76.015,395.69l4.574,48.157-8.487.058Z" transform="translate(148.018 -377.302)" fill="#4d6882"/>
            <path id="Path_52259" data-name="Path 52259" d="M-58.932,403.7l4.506,38.291-8.487.058Z" transform="translate(109.737 -375.3)" fill="#4d6882"/>
            <path id="Path_52260" data-name="Path 52260" d="M-48.211,409.832l4.455,30.719-8.487.058Z" transform="translate(85.731 -373.768)" fill="#4d6882"/>
            <path id="Path_52261" data-name="Path 52261" d="M-37.835,397.055l4.749,46.779-8.487.058Z" transform="translate(61.725 -376.96)" fill="#4d6882"/>
            <path id="Path_52262" data-name="Path 52262" d="M-26.356,380.978l12,66.923-21.527.148Z" transform="translate(35.883 -380.978)" fill="#4d6882"/>
            <path id="Path_52263" data-name="Path 52263" d="M-72.781,414.622l2.852,24.23-5.371.037Z" transform="translate(140.722 -372.571)" fill="#4d6882"/>
            <path id="Path_52264" data-name="Path 52264" d="M-54.049,414.627l2.852,24.23-5.371.037Z" transform="translate(98.577 -372.57)" fill="#4d6882"/>
            <path id="Path_52265" data-name="Path 52265" d="M-43.142,414.7l2.852,24.23-5.371.037Z" transform="translate(74.038 -372.551)" fill="#4d6882"/>
            <path id="Path_52266" data-name="Path 52266" d="M-67.262,419.852l4.367,18.03-8.487.058Z" transform="translate(128.789 -371.264)" fill="#4d6882"/>
            <path id="Path_52267" data-name="Path 52267" d="M-64.288,408.462l2.9,32-5.371.037Z" transform="translate(121.494 -374.11)" fill="#4d6882"/>
          </g>
        </g>
        <g id="Group_19121" data-name="Group 19121" transform="translate(0 19.08)">
          <g id="Group_19119" data-name="Group 19119" transform="translate(33.414 9.9)">
            <path id="Path_52268" data-name="Path 52268" d="M-18.143,404.164l4.507,38.291-8.487.058Z" transform="translate(43.39 -404.164)" fill="#4d6882"/>
            <path id="Path_52269" data-name="Path 52269" d="M-1.128,404.281l4.506,38.291-8.487.058Z" transform="translate(5.109 -404.135)" fill="#4d6882"/>
            <path id="Path_52270" data-name="Path 52270" d="M-14.977,415.2l2.852,24.23-5.371.037Z" transform="translate(36.094 -401.406)" fill="#4d6882"/>
            <path id="Path_52271" data-name="Path 52271" d="M-9.457,420.433l4.367,18.03-8.487.058Z" transform="translate(24.161 -400.099)" fill="#4d6882"/>
            <path id="Path_52272" data-name="Path 52272" d="M-6.483,409.042l2.9,32-5.371.037Z" transform="translate(16.866 -402.945)" fill="#4d6882"/>
          </g>
          <g id="Group_19120" data-name="Group 19120">
            <path id="Path_52273" data-name="Path 52273" d="M4.671,396.243,9.246,444.4l-8.487.058Z" transform="translate(25.322 -396.243)" fill="#4d6882"/>
            <path id="Path_52274" data-name="Path 52274" d="M21.754,404.254l4.506,38.291-8.487.058Z" transform="translate(-12.959 -394.242)" fill="#4d6882"/>
            <path id="Path_52275" data-name="Path 52275" d="M7.905,415.176l2.852,24.23-5.371.037Z" transform="translate(18.027 -391.512)" fill="#4d6882"/>
            <path id="Path_52276" data-name="Path 52276" d="M26.637,415.18l2.852,24.23-5.371.037Z" transform="translate(-24.118 -391.511)" fill="#4d6882"/>
            <path id="Path_52277" data-name="Path 52277" d="M13.425,420.406l4.367,18.03-8.487.058Z" transform="translate(6.093 -390.206)" fill="#4d6882"/>
            <path id="Path_52278" data-name="Path 52278" d="M16.4,409.015l2.9,32-5.371.037Z" transform="translate(-1.202 -393.052)" fill="#4d6882"/>
          </g>
        </g>
      </g>
      <path id="Path_52279" data-name="Path 52279" d="M101.054,413.033-148.6,453.638,18.338,549.889l103.77-42.11Z" transform="translate(1002.85 96.673)" fill="#fff"/>
      <g id="Group_19124" data-name="Group 19124" transform="translate(612.032 381.953)">
        <g id="Group_19123" data-name="Group 19123">
          <path id="Path_52280" data-name="Path 52280" d="M283.426,310.02l-22.055,35.088L234.3,377.188s-20.552,24.061-26.566,31.078-106.768,64.161-106.768,64.161L234.8,479.946l67.168-76.692v-41.6l-3.508-22.556Z" transform="translate(-100.969 -310.02)" fill="#69493b"/>
          <path id="Path_52281" data-name="Path 52281" d="M104.865,410.271,92.835,383.7l-11.027-6.516L71.281,356.136l-17.043-5.514L46.72,338.091l-10.025-4.511L21.657,310.02,31.682,342.6,17.647,367.163l5.514,9.023,1.5,8.02,8.521,13.033L15.14,377.188l3.007,14.536L4.113,413.78l-21.554,26.567-9.524,39.6L200.1,515.535Z" transform="translate(160.8 -310.02)" fill="#e6dcbd"/>
        </g>
        <path id="Path_52282" data-name="Path 52282" d="M64.874,339.3,125.025,440.55,90.94,390.425l-28.07-45.113Z" transform="translate(123.597 -302.705)" fill="#69493b"/>
        <path id="Path_52283" data-name="Path 52283" d="M90.639,388.6l62.692,91.825L80.908,392.075Z" transform="translate(72.745 -290.386)" fill="#69493b"/>
      </g>
      <g id="Group_19132" data-name="Group 19132" transform="translate(545.329 446.043)">
        <g id="Group_19128" data-name="Group 19128" transform="translate(58.838)">
          <g id="Group_19127" data-name="Group 19127">
            <path id="Path_52294" data-name="Path 52294" d="M197.124,365.608l4.574,48.158-8.487.058Z" transform="translate(-125.122 -342.22)" fill="#2e4354"/>
            <path id="Path_52295" data-name="Path 52295" d="M214.207,373.619l4.507,38.291-8.487.058Z" transform="translate(-163.403 -345.219)" fill="#2e4354"/>
            <path id="Path_52296" data-name="Path 52296" d="M224.929,379.751l4.455,30.718-8.487.058Z" transform="translate(-187.408 -343.687)" fill="#2e4354"/>
            <path id="Path_52297" data-name="Path 52297" d="M235.3,366.974l4.748,46.779-8.487.058Z" transform="translate(-211.414 -346.879)" fill="#2e4354"/>
            <path id="Path_52298" data-name="Path 52298" d="M246.784,350.9l12,66.923-21.526.148Z" transform="translate(-237.256 -350.896)" fill="#2e4354"/>
            <path id="Path_52299" data-name="Path 52299" d="M200.358,384.541l2.852,24.23-5.371.037Z" transform="translate(-132.417 -342.49)" fill="#2e4354"/>
            <path id="Path_52300" data-name="Path 52300" d="M219.09,384.545l2.852,24.23-5.371.037Z" transform="translate(-174.562 -342.489)" fill="#2e4354"/>
            <path id="Path_52301" data-name="Path 52301" d="M230,384.62l2.852,24.23-5.371.037Z" transform="translate(-199.101 -342.47)" fill="#2e4354"/>
            <path id="Path_52302" data-name="Path 52302" d="M205.878,389.771l4.367,18.03-8.487.058Z" transform="translate(-144.351 -341.183)" fill="#2e4354"/>
            <path id="Path_52303" data-name="Path 52303" d="M208.852,378.38l2.9,32-5.371.037Z" transform="translate(-151.646 -344.029)" fill="#2e4354"/>
          </g>
        </g>
        <g id="Group_19131" data-name="Group 19131" transform="translate(0 19.08)">
          <g id="Group_19129" data-name="Group 19129" transform="translate(33.414 9.9)">
            <path id="Path_52304" data-name="Path 52304" d="M255,374.083l4.507,38.291-8.487.058Z" transform="translate(-229.75 -374.083)" fill="#2e4354"/>
            <path id="Path_52305" data-name="Path 52305" d="M272.012,374.2l4.506,38.291-8.487.058Z" transform="translate(-268.031 -374.053)" fill="#2e4354"/>
            <path id="Path_52306" data-name="Path 52306" d="M258.163,385.121l2.852,24.23-5.371.037Z" transform="translate(-237.045 -371.324)" fill="#2e4354"/>
            <path id="Path_52307" data-name="Path 52307" d="M263.682,390.351l4.367,18.031-8.487.058Z" transform="translate(-248.978 -370.018)" fill="#2e4354"/>
            <path id="Path_52308" data-name="Path 52308" d="M266.656,378.961l2.9,32L264.19,411Z" transform="translate(-256.274 -372.864)" fill="#2e4354"/>
          </g>
          <g id="Group_19130" data-name="Group 19130">
            <path id="Path_52309" data-name="Path 52309" d="M277.811,366.162l4.574,48.158-8.487.058Z" transform="translate(-247.817 -366.162)" fill="#2e4354"/>
            <path id="Path_52310" data-name="Path 52310" d="M294.894,374.173l4.506,38.291-8.487.058Z" transform="translate(-286.099 -364.16)" fill="#2e4354"/>
            <path id="Path_52311" data-name="Path 52311" d="M281.045,385.095l2.852,24.23-5.37.037Z" transform="translate(-255.113 -361.431)" fill="#2e4354"/>
            <path id="Path_52312" data-name="Path 52312" d="M299.777,385.1l2.852,24.23-5.371.037Z" transform="translate(-297.258 -361.43)" fill="#2e4354"/>
            <path id="Path_52313" data-name="Path 52313" d="M286.564,390.325l4.367,18.03-8.487.058Z" transform="translate(-267.046 -360.124)" fill="#2e4354"/>
            <path id="Path_52314" data-name="Path 52314" d="M289.538,378.934l2.9,32-5.371.037Z" transform="translate(-274.342 -362.97)" fill="#2e4354"/>
          </g>
        </g>
      </g>
    </g>
    <g id="Group_19134" data-name="Group 19134" transform="translate(-178.403 465.648)">
      <path id="Path_52315" data-name="Path 52315" d="M456.47,455.736c-31.874,7.938-63.843,15.895-96.441,19.94-5.306.659-10.748,1.206-15.953-.019-5.026-1.184-9.509-3.945-14.03-6.439-16.35-9.024-34.186-14.965-51.907-20.857l-122.19-40.625c-2.365,13.19,1.655,26.565,3.367,39.855s.317,28.572-9.936,37.2C198.531,502.81,252.7,496,305.05,495.612c71.849-.54,144.024,11.469,215.274,2.2,19.039-2.476,38.034-6.472,57.222-5.823,8.6.291,17.146,1.515,25.745,1.617a14.741,14.741,0,0,0,5.881-.789c2.953-1.23,277.063,6.444,277.063,6.444l-108.88-72.355,23.683-38.261S471.674,451.95,456.47,455.736Z" transform="translate(-42.38 -386.647)" fill="url(#linear-gradient-3)"/>
      <path id="Path_52316" data-name="Path 52316" d="M35.359,388.647,11.7,426.952l103.408,72.314s241.432,29.52,161.194-9.392C208.81,457.144,35.359,388.647,35.359,388.647Z" transform="translate(723.297 -386.647)" fill="#fff"/>
    </g>
    <path id="Path_52317" data-name="Path 52317" d="M565.671,322.659a61.994,61.994,0,0,0-8.147,10.419" transform="translate(-517.347 60.512)" fill="none" stroke="#fff" stroke-linecap="round" stroke-linejoin="round" stroke-width="0.439"/>
    <path id="Path_52318" data-name="Path 52318" d="M575.335,345.73c-2.232-1.377-3.758-3.625-5.217-5.806-1.886-2.82-3.776-5.646-5.382-8.634" transform="translate(-536.025 62.669)" fill="none" stroke="#fff" stroke-linecap="round" stroke-linejoin="round" stroke-width="0.439"/>
    <path id="Path_52319" data-name="Path 52319" d="M568.078,351.02c-5.972,6.794-10.038,15.093-16.038,21.863" transform="translate(-512.9 67.599)" fill="none" stroke="#fff" stroke-linecap="round" stroke-linejoin="round" stroke-width="0.439"/>
    <path id="Path_52320" data-name="Path 52320" d="M582.043,389.546A69.755,69.755,0,0,1,565.08,365.62" transform="translate(-543.163 71.247)" fill="none" stroke="#fff" stroke-linecap="round" stroke-linejoin="round" stroke-width="0.439"/>
    <path id="Path_52321" data-name="Path 52321" d="M570.178,381.8q-14.577,17.089-28.353,34.839" transform="translate(-502.233 75.291)" fill="none" stroke="#fff" stroke-linecap="round" stroke-linejoin="round" stroke-width="0.439"/>
    <path id="Path_52322" data-name="Path 52322" d="M587.931,432.783c-10.261-6.643-17.2-17.218-23.838-27.483" transform="translate(-547.819 81.162)" fill="none" stroke="#fff" stroke-linecap="round" stroke-linejoin="round" stroke-width="0.439"/>
    <path id="Path_52323" data-name="Path 52323" d="M569.229,414.989c-3.788,6.137-7.6,12.306-12.367,17.718s-10.58,10.079-17.375,12.5" transform="translate(-498.361 83.583)" fill="none" stroke="#fff" stroke-linecap="round" stroke-linejoin="round" stroke-width="0.439"/>
    <g id="Group_19171" data-name="Group 19171" transform="translate(59.063 132.569)">
      <g id="Group_19166" data-name="Group 19166">
        <g id="Group_19136" data-name="Group 19136" transform="translate(28.519 198.17)">
          <path id="Path_52324" data-name="Path 52324" d="M525.033,287.177a4.274,4.274,0,0,1,.212,2.255,4.326,4.326,0,0,1-2.244,2.5,5.168,5.168,0,0,1-1.831.839,12.385,12.385,0,0,1-2.4-.129c-2.861-.091-5.486,2.446-8.262,1.39A2.573,2.573,0,0,1,509,292.656c-.461-1.139.176-2.344.82-3.257a19.855,19.855,0,0,1,4.708-4.984C518.064,281.956,523.163,281.53,525.033,287.177Z" transform="translate(-503.728 -280.214)" fill="#c7c1ad"/>
          <g id="Group_19135" data-name="Group 19135">
            <path id="Path_52325" data-name="Path 52325" d="M524.046,281.4a9.033,9.033,0,0,1,4.24,2.019,5.211,5.211,0,0,1,1.692,4.6,4.1,4.1,0,0,1-4.1,3.022,9.525,9.525,0,0,0-2.115.1,6.955,6.955,0,0,0-2.108,1.2,8.225,8.225,0,0,1-6.454,1.594,6.425,6.425,0,0,1-4.775-5.254C509.345,279.63,518.65,280.144,524.046,281.4Z" transform="translate(-510.341 -280.709)" fill="#eae4cd"/>
            <path id="Path_52326" data-name="Path 52326" d="M523.947,287.216a3.948,3.948,0,0,1-1.15.532l-5.5,1.857a3.088,3.088,0,0,1-1.852.221,3.186,3.186,0,0,1-1.621-1.439,3.242,3.242,0,0,1-.611-2.351c.245-1.056,1.286-1.485,2.137-1.965.767-.431,1.464-1.007,2.262-1.367a8.241,8.241,0,0,1,5.712-.244C525.038,283.223,525.348,286.156,523.947,287.216Z" transform="translate(-508.637 -280.373)" fill="#eae7da"/>
          </g>
        </g>
        <g id="Group_19138" data-name="Group 19138" transform="translate(150.39 329.63)">
          <path id="Path_52327" data-name="Path 52327" d="M427.087,398.228a7.19,7.19,0,0,1,.144,4.343c-.782,2.32-3.122,3.68-5.279,4.833a13.137,13.137,0,0,1-4.136,1.639c-1.737.261-3.5-.182-5.252-.224-6.263-.145-12.385,4.773-18.319,2.768a4.869,4.869,0,0,1-3.111-2.625c-.846-2.191.722-4.52,2.267-6.288a45.991,45.991,0,0,1,11.041-9.658C412.556,388.242,423.8,387.363,427.087,398.228Z" transform="translate(-380.371 -384.95)" fill="#c7c1ad"/>
          <g id="Group_19137" data-name="Group 19137">
            <path id="Path_52328" data-name="Path 52328" d="M424.908,387.165c3.236.657,6.513,1.682,9.008,3.846s4.033,5.7,3.05,8.848c-1.177,3.772-5.471,5.758-9.419,5.869a23.871,23.871,0,0,0-4.655.216,17.533,17.533,0,0,0-4.8,2.341c-4.331,2.537-9.463,4.13-14.383,3.142S394.3,406.361,394,401.351C392.924,383.909,413.257,384.8,424.908,387.165Z" transform="translate(-393.957 -385.888)" fill="#eae4cd"/>
            <path id="Path_52329" data-name="Path 52329" d="M423.5,398.36a10.065,10.065,0,0,1-2.6,1.039l-12.339,3.641a7.822,7.822,0,0,1-4.095.445,6.059,6.059,0,0,1-3.347-2.755,5.4,5.4,0,0,1-1-4.525c.689-2.037,3.033-2.873,4.971-3.808,1.744-.841,3.355-1.957,5.158-2.662,3.25-1.269,9.158-1.877,12.561-.53C426.466,390.654,426.725,396.3,423.5,398.36Z" transform="translate(-389.91 -385.25)" fill="#eae7da"/>
          </g>
        </g>
        <g id="Group_19140" data-name="Group 19140" transform="translate(131.608 303.702)">
          <path id="Path_52330" data-name="Path 52330" d="M442.188,373.352a6.275,6.275,0,0,1,.354,2.578,3.883,3.883,0,0,1-1.867,2.677,3.64,3.64,0,0,1-1.609.826,9.483,9.483,0,0,1-2.2-.318c-2.613-.306-4.825,2.392-7.427.995a3.178,3.178,0,0,1-1.471-1.664,4.455,4.455,0,0,1,.516-3.646,17.438,17.438,0,0,1,3.936-5.333C435.471,366.925,440.085,366.8,442.188,373.352Z" transform="translate(-422.729 -364.467)" fill="#c7c1ad"/>
          <g id="Group_19139" data-name="Group 19139">
            <path id="Path_52331" data-name="Path 52331" d="M441.332,366.364a9.176,9.176,0,0,1,4.006,2.595,7.626,7.626,0,0,1,1.866,5.349,3.312,3.312,0,0,1-3.518,3.146,6.888,6.888,0,0,0-1.92-.035,5.063,5.063,0,0,0-1.835,1.217,5.814,5.814,0,0,1-5.767,1.356,8.284,8.284,0,0,1-4.721-6.312C427.816,363.309,436.329,364.552,441.332,366.364Z" transform="translate(-429.24 -365.143)" fill="#eae4cd"/>
            <path id="Path_52332" data-name="Path 52332" d="M441.791,373.022a2.773,2.773,0,0,1-1.01.525l-4.882,1.722a2.21,2.21,0,0,1-1.672.12,3.94,3.94,0,0,1-1.579-1.75,4.8,4.8,0,0,1-.722-2.716c.148-1.182,1.066-1.6,1.807-2.081a22.059,22.059,0,0,1,1.965-1.4,6.074,6.074,0,0,1,5.186.127C442.5,368.561,442.992,371.918,441.791,373.022Z" transform="translate(-427.8 -364.698)" fill="#eae7da"/>
          </g>
        </g>
        <g id="Group_19165" data-name="Group 19165">
          <g id="Group_19141" data-name="Group 19141" transform="translate(0 106.84)" opacity="0.16" style="mix-blend-mode: multiply;isolation: isolate">
            <path id="Path_52333" data-name="Path 52333" d="M374.057,247.669c.549.48,1.015.9,1.419,1.271l-12.736-14.2,1.724-.05,12.3,13.729a7.626,7.626,0,0,1,.93-.372,3.909,3.909,0,0,1,2.243-.18,7.322,7.322,0,0,1,2.4,1.149c1.622,1.1,3.825,3.037,4.013,4.27.36.135.717.281,1.07.435,3.323.312,8.375.785,13.3,1.227l-4.681-7.069a2.576,2.576,0,0,1-1.936.049c-2.236-.581-5.139-2.9-4.3-4.052a16.031,16.031,0,0,1,3.5-.142l-3.241-4.908,1.855.125,3.237,4.913c.3.029.486.05.486.05,1.863.631,7.555,3.3,8.754,4.48,0,0,1.025.67,2.5,1.615.994.486,2.225,1.092,3.617,1.787,1.094-3.435,1.816-6.814,3.046-10.25a7.587,7.587,0,0,1,1.82-5.711,5.021,5.021,0,0,1,2.327-2.229l-1.431-1.454c-.606.168-1.251.306-1.909.43a6.371,6.371,0,0,1-2.44.078,10.674,10.674,0,0,1-3.8-1.779,37.415,37.415,0,0,1-6.564-5.713l0,0a60.263,60.263,0,0,1-5.589-6.034,14.148,14.148,0,0,1-8.563-2.921,4.39,4.39,0,0,1-.9-1.03,18.854,18.854,0,0,1-4.493-3.516c-.862-1.121-1.416-2.2-.967-3.035s2.024-1.266,3.951-.817a22.187,22.187,0,0,1,5.368,2.52c4.593,2.492,8.075-2.031,13.24,1.609a10.046,10.046,0,0,1,7.4,1.894,21.75,21.75,0,0,1,4.921,7,6.5,6.5,0,0,1,.417,1.437c.616.422.83.987.457,1.42a1.269,1.269,0,0,1-.479.329c-.006.03-.01.061-.018.091l0,0a6.716,6.716,0,0,1,.522.666,15.129,15.129,0,0,1,2.571,2.718l4.513,3.616c.386-.085.779-.164,1.18-.23.349-1.2,2.893-1.877,4.177-2.712,5.4-3.48,13.046-3.135,21.6-.5l-1.791-1.552a4.6,4.6,0,0,1-.474-.366c-2.124-1.9.22-4.137,5.246-5,4.806-.82,10.291-.091,12.6,1.621l.024-.005,63.858,57.04a4.315,4.315,0,0,1,.45.362c1.995,1.876-.222,4.137-4.939,5.053s-10.156.14-12.186-1.741l-.015-.015h-.005l-2.27-2.037a62.8,62.8,0,0,1-6.279.555c8.743,7.593,10.486,16.522,13.956,21.328,2.815,3.9,7.858,8.023,12.254,11.071l.074-.085c18.543,8.077,42,31.67,42.789,33.928.2.581-.287.972-1.157,1.234l5.394,5.511a.87.87,0,0,0,.522-.606c3.931,3.511,17.039,37.551,16.53,38.981l-.385,1-2.547-1.017-7.451-2.967a1.721,1.721,0,0,0-.859-1.039c-.533-.212-1.409.136-2.134-.151l-4.023-1.6c-1.112-.441-14.147-4.93-14.147-4.93l1.512-2.189,17.258-2.462c-.584-.038-19.793-28.272-19.793-28.272l-34.348-22.973q-.362-.231-.7-.473c-3.238-1.981-6.722-4.167-9.357-5.532-10.893-5.627-24.55-13.964-33.07-21.749-.787.237-1.549.465-2.274.681a8.849,8.849,0,0,0-5.3,4.295,68,68,0,0,1,20.877,21.483c.146.21-.119.415-.646.609,1.164,1.334,2.346,2.665,3.418,3.862a.962.962,0,0,0,.052-.627c4.232,4.54,7,6.128,9.99,10.46a.4.4,0,0,1,.085.212,10.291,10.291,0,0,1,1.87,5.686l-.055,1.12-10.564-3.2a2.364,2.364,0,0,0-1.121-1.022c-.561-.17-1.274.3-2.039.067l-4.246-1.282c-1.484-.447-11.068-3.981-11.068-3.981s-5.273-1.959-4.846-2.181a9.34,9.34,0,0,1,2.429.086c2.1.265,6.2.732,9.961.877-.059-.081.06-.059.23-.06a1.142,1.142,0,0,1,.466.084q.731.021,1.431.021c-.035-.065.079-.045.239-.045a1.112,1.112,0,0,1,.345.041c.485-.007.951-.022,1.394-.049-.076-.094.044-.07.221-.071a1.248,1.248,0,0,1,.313.034c.047,0,.1-.006.145-.011-1.572-2.08-3.182-2.816-7.752-6.506a7.1,7.1,0,0,0,1.426.651c-.955-.817-1.947-1.685-2.955-2.572l-.5.043-28.992-21.545a11.83,11.83,0,0,1-1.676-1.472c-.312-.19-.542-.33-.631-.387-5.627-3.606-6.044-5.3-6.023-8.612.08-5.823,3.986-12.039,9.754-16.3a11.088,11.088,0,0,1-1.671-1.029c-2.961-2.223-6.519-4.923-10.294-7.855a12.141,12.141,0,0,1-4.481,4.377,3.409,3.409,0,0,1-1.719.369c-1.65.1-4.267-.366-8.327-2.266-.681-.319-4.637-3.13-9.465-6.623-.186-.006-.37-.012-.566-.024-.789-.044-7.842-1.87-15.721-3.96l46.2,69.124-1.7-.1-46.616-69.588c-8.889-2.365-18.2-4.889-20.392-5.482-.143-.008-.215-.008-.215-.008a6.145,6.145,0,0,1-.976-.046l50.525,56.922-1.591.075-51.058-57.428a27.4,27.4,0,0,1-3.371-1.155s-4.421-2.286-5.709-3.95C371.372,249.374,373.021,246.764,374.057,247.669ZM572.2,358.342c-.125.23.091.609.316.907a8.386,8.386,0,0,0,1.386,1.407A13.441,13.441,0,0,0,572.2,358.342ZM425.387,232.3c.122,0,.244.006.367.011-.07-.042-.13-.082-.185-.124-.085.019-.171.034-.256.052Zm-16.1,23.4c-2.616-1.907-4.706-3.433-5.724-4.178-1.561-.929-3.791-2.262-5.587-3.376l4.606,6.974C404.976,255.329,407.285,255.529,409.285,255.7Zm-29.312-3.681c.194.025.381.046.56.064a3.746,3.746,0,0,1-.229-1.18,1.3,1.3,0,0,0-.916-1.159,1.655,1.655,0,0,0-1.34.08l-.028.013Z" transform="translate(-362.739 -207.637)" fill="#463db4"/>
          </g>
          <g id="Group_19164" data-name="Group 19164" transform="translate(62.378)">
            <g id="Group_19162" data-name="Group 19162">
              <g id="Group_19146" data-name="Group 19146" transform="translate(0 46.609)">
                <g id="Group_19144" data-name="Group 19144">
                  <g id="Group_19142" data-name="Group 19142" transform="translate(9.236)">
                    <path id="Path_52334" data-name="Path 52334" d="M465.215,161.074s18.883,4.236,6.2,26.621c-6.028,10.64-14.986,22.456-28.565,30.5-5.617,3.327-12.4-2.986-14.271-7.817s8.053-15.872,18.6-34.418C453.945,164.071,463.233,160.529,465.215,161.074Z" transform="translate(-396.7 -159.054)" fill="#f2aeae"/>
                    <path id="Path_52335" data-name="Path 52335" d="M501.364,203.868s.38-9.014-9.135-8.768c-3.738.1-37.776-7.161-37.776-7.161l-2.1,6.407s36.376,17.069,38.6,17.2C501.644,212.152,501.692,204.512,501.364,203.868Z" transform="translate(-452.348 -152.328)" fill="#f2aeae"/>
                    <path id="Path_52336" data-name="Path 52336" d="M472.018,180.755c-2.35,11.993-9.932,22.193-17.3,31.938a1.992,1.992,0,0,1-3.433.41l-23.064-17.482c5.379-7.354,9.85-14.521,15.23-21.875,2.77-3.787,5.871-9.513,9.846-12C466.466,153.493,474.266,169.278,472.018,180.755Z" transform="translate(-393.139 -159.447)" fill="#d6a81e"/>
                  </g>
                  <g id="Group_19143" data-name="Group 19143" transform="translate(0 27.4)">
                    <path id="Path_52337" data-name="Path 52337" d="M492,189.207c-1.362-.342-.254-.46-2.017-7.512-.4-1.619-4.964,3.237-4.857,4.993-.021,3,3.238,7.018,3.238,7.018,1.509,1.34,4.313,2.958,6.454,2.745a26.762,26.762,0,0,1,6.549,1.145c.859.234,1.484-.656.915-3.543l-2.609-1.879c-1.482-.741-2.346-2.1-4.2-2.963C494.76,188.878,492.99,189.455,492,189.207Z" transform="translate(-485.121 -181.37)" fill="#f2aeae"/>
                  </g>
                </g>
                <line id="Line_483" data-name="Line 483" x2="11.054" y2="140.739" transform="translate(4.455 4.379)" fill="none" stroke="#151852" stroke-miterlimit="10" stroke-width="1.458"/>
                <g id="Group_19145" data-name="Group 19145" transform="translate(4.726 27.717)">
                  <path id="Path_52338" data-name="Path 52338" d="M496.517,183.774a3.056,3.056,0,0,0-1.865-2.014,4.127,4.127,0,0,0-2.942.421,8.082,8.082,0,0,0-3.71,2.606c-.329.486-.477,1.291.053,1.541a1.183,1.183,0,0,0,1.007-.181l1.386-.729c.545-.286,1.239-.566,1.734-.2.612.451.344,1.406.016,2.092a10.311,10.311,0,0,0-.942,2.52,3.455,3.455,0,0,0,.439,2.591c.63.9,1.865.821,2.918,1.144C497.528,194.456,497.528,187.542,496.517,183.774Z" transform="translate(-487.703 -181.624)" fill="#f2aeae"/>
                </g>
              </g>
              <path id="Path_52339" data-name="Path 52339" d="M436.25,155.18c-16.465-.54-31.748,16.022-31.729,26.595.024,13.9,9.213,26.488,20.724,34.279s25.172,11.623,38.567,15.333" transform="translate(-345.695 -113.908)" fill="none" stroke="#151852" stroke-miterlimit="10" stroke-width="1.458"/>
              <path id="Path_52340" data-name="Path 52340" d="M378.385,151.9c-2.91,2.051-8.083,3.727-8.1,7.287-.009,1.944,7.915,5.077,8.744,6.834a206.652,206.652,0,0,0,19.383,32.834c4.2,5.813,8.77,11.526,11.241,18.261,3.206,8.74,2.652,18.634,6.623,27.055a7.706,7.706,0,0,0,3.042,3.73c1.522.809,3.352.666,5.068.5,5.238-.5,10.6-1.031,15.351-3.3s8.839-6.658,9.23-11.906a21.448,21.448,0,0,0-.916-6.778C441.726,201.3,414.553,126.4,378.385,151.9Z" transform="translate(-288.1 -116.028)" fill="#4d6882"/>
              <g id="Group_19150" data-name="Group 19150" transform="translate(95.48 113.997)">
                <path id="Path_52341" data-name="Path 52341" d="M384.029,350.173l-21.593-42.645,19.433-2.7,10.8,47.5Z" transform="translate(-317.429 -190.509)" fill="#f2c9b1"/>
                <path id="Path_52342" data-name="Path 52342" d="M380.35,275.46c17.084,14.624,27.236,58.079,26.271,62.258-1.08,4.678-16.555,2.878-16.555,2.878l-24.732-42.024a9.518,9.518,0,0,1-1.032-8.105c1.187-3.568,3.28-5.9,6.584-6.371Z" transform="translate(-333.184 -197.847)" fill="#2c595d"/>
                <path id="Path_52343" data-name="Path 52343" d="M419.861,227.278c7.558,14.575.616,33.816.832,43.6.3,13.82,10.65,29.024,12.664,28.738-4.7,3.06-6.917,7.125-11.619,10.185-.511.334,1.439,13.28-3.5,11.408-3.357-1.274-9.514-12.9-14.087-18.033-10.891-12.229-23.21-31.55-24.388-47.837-.667-9.22,4.665-39.122,18.147-38.758C411.76,216.949,407.852,204.116,419.861,227.278Z" transform="translate(-379.712 -213.363)" fill="#2c595d"/>
                <g id="Group_19149" data-name="Group 19149" transform="translate(36.944 147.789)">
                  <g id="Group_19147" data-name="Group 19147" transform="translate(0 13.92)">
                    <path id="Path_52344" data-name="Path 52344" d="M400.809,353.3l-.236,1.7a24.716,24.716,0,0,1-4.846,11.609h0l-4.032-.021-7.5-5.469s.421-1.452-.212-1.915c-.535-.39-2.064.255-2.791-.275l-4.027-2.937-15.046-10.975s.9-1.953,1.749-2.241a8.588,8.588,0,0,1,3.095.6c4.752,1.621,18.573,5.954,23.481,3.273C396.412,343.386,400.809,353.3,400.809,353.3Z" transform="translate(-362.119 -342.744)" fill="#69493b"/>
                    <path id="Path_52345" data-name="Path 52345" d="M367.53,342.978a7.362,7.362,0,0,0-1.345,1.981l15.046,10.975,4.027,2.937c.727.53,2.256-.115,2.791.275.634.462.212,1.915.212,1.915l10.073,7.347,1.459-1.856Z" transform="translate(-366.185 -342.686)" fill="#deffff"/>
                  </g>
                  <path id="Path_52346" data-name="Path 52346" d="M372.386,357.181c-5.722-2.219-10.373-4.689-8.924-6.861,2.159-3.238.54-9.177-1.8-18.713,1,2.376,5.218,4.858,8.637,5.4,2.652.419,6.093-.361,7.018-1.979,2.16,6.478,2.506,21.019.72,25.191C377.135,362.323,372.386,357.181,372.386,357.181Z" transform="translate(-339.924 -331.607)" fill="#69493b"/>
                </g>
              </g>
              <g id="Group_19155" data-name="Group 19155" transform="translate(51.189 116.493)">
                <path id="Path_52353" data-name="Path 52353" d="M447.919,310.522l-13.057.265c-2.637-4.591-5.234-15.882-7.824-23.82,5.176-.217,14.154-1.6,18.152-1.636C445.541,293.976,447.919,310.522,447.919,310.522Z" transform="translate(-409.132 -197.877)" fill="#f2c3a7"/>
                <g id="Group_19153" data-name="Group 19153" transform="translate(2.054 103.366)">
                  <g id="Group_19151" data-name="Group 19151" transform="translate(0 9.864)">
                    <path id="Path_52354" data-name="Path 52354" d="M464.3,312.041l.022,1.716a24.709,24.709,0,0,1-3.045,12.206h0l-3.99.585-8.237-4.278s.2-1.5-.5-1.861c-.586-.3-2,.562-2.8.147l-4.423-2.3-16.526-8.585s.6-2.069,1.391-2.48a8.615,8.615,0,0,1,3.148.124c4.942.889,19.258,3.092,23.708-.3C458.463,302.9,464.3,312.041,464.3,312.041Z" transform="translate(-424.806 -305.954)" fill="#69493b"/>
                    <path id="Path_52355" data-name="Path 52355" d="M428.276,307.2a7.357,7.357,0,0,0-1.032,2.162l16.526,8.585,4.423,2.3c.8.415,2.214-.452,2.8-.147.7.361.5,1.861.5,1.861l11.064,5.748,1.162-2.055Z" transform="translate(-427.244 -305.643)" fill="#deffff"/>
                  </g>
                  <path id="Path_52356" data-name="Path 52356" d="M438.862,316.034c-5.992-1.332-10.133-2.586-10.138-5.2-.009-3.982-1.44-5.218-3.96-12.056,1.351,2.2,7.378,3.6,10.8,2.7,4.355-1.146,5.447-1.68,6.118-3.42,1.26,8.278,3.42,11.156,3.24,19.074C444.866,319.427,438.862,316.034,438.862,316.034Z" transform="translate(-405.357 -298.062)" fill="#69493b"/>
                </g>
                <path id="Path_52363" data-name="Path 52363" d="M451.134,256.324c14.7,17.014,11.679,41.452,11.6,45.74-.04,2.212-17.706,4.325-17.706,4.325l-17.036-38.936a9.517,9.517,0,0,1,.193-8.168c1.709-3.351,4.126-5.346,7.463-5.314Z" transform="translate(-424.419 -205.713)" fill="#2c595d"/>
                <path id="Path_52364" data-name="Path 52364" d="M462.45,252.017c-8.774,4.326-21.7,9.157-30.874,12.542s-15.027,14.044-20.1,18.667c-4.508-3.338-11.509-.771-16.017-4.11a58.836,58.836,0,0,1-3.765-5.374c-3.778-6.477-2.677-9.578.54-15.655,7.662-14.472,24.772-30.518,39.625-37.3,8.409-3.842,32.43-10.536,39.188,1.136C476.989,232.177,478.608,244.053,462.45,252.017Z" transform="translate(-389.309 -215.361)" fill="#2c595d"/>
              </g>
              <path id="Path_52367" data-name="Path 52367" d="M392.687,179.842c-.162,15.22,12.1,44.39,18.977,60.7,2.781,6.6,13.7,4.961,18.382,4.365,24.815-3.156,33.8-8.1,33.8-8.1l-18.8-48.919c-7.522-16.563-13.592-21.723-21.486-27.691C412.824,152.079,392.91,158.962,392.687,179.842Z" transform="translate(-330.934 -113.48)" fill="#e4b62c"/>
              <g id="Group_19159" data-name="Group 19159" transform="translate(48.064)">
                <g id="Group_19158" data-name="Group 19158">
                  <path id="Path_52368" data-name="Path 52368" d="M444.654,150.25l-.982-2.812-7.608,6.927.629,3.773a18.87,18.87,0,0,0,4.749-2.33A9.673,9.673,0,0,0,444.654,150.25Z" transform="translate(-414.026 -115.839)" fill="#f2947a"/>
                  <g id="Group_19156" data-name="Group 19156" transform="translate(9.973 13.081)">
                    <path id="Path_52369" data-name="Path 52369" d="M446.016,160.257a6.63,6.63,0,0,1-3.792.149c-5.981-5-5.791-23.024-5.791-23.024l6-4.76,10.141,2.976,3.611,11.035a9.415,9.415,0,0,1-1.706,8.784h0A18.383,18.383,0,0,1,446.016,160.257Z" transform="translate(-436.433 -132.622)" fill="#f2b18b"/>
                  </g>
                  <g id="Group_19157" data-name="Group 19157" transform="translate(9.973 13.081)">
                    <path id="Path_52370" data-name="Path 52370" d="M446.016,160.257a6.63,6.63,0,0,1-3.792.149c-5.981-5-5.791-23.024-5.791-23.024l6-4.76,10.141,2.976,3.611,11.035a9.415,9.415,0,0,1-1.706,8.784h0A18.383,18.383,0,0,1,446.016,160.257Z" transform="translate(-436.433 -132.622)" fill="#f2c2c2"/>
                  </g>
                  <path id="Path_52371" data-name="Path 52371" d="M444.828,161.181l-4.015-11.493a9.674,9.674,0,0,1-3.212,5.558,18.869,18.869,0,0,1-4.75,2.33l1.4,8.394Z" transform="translate(-410.186 -115.277)" fill="#f2c2c2"/>
                  <path id="Path_52372" data-name="Path 52372" d="M458.26,143.6c-1-1.745-1.96-6.144-3.783-5.3-1.33.617-6.053,2.149-7.66,2.6-3.832,1.069-11.08,1.476-12.707-4.353-.814-2.916,1.312-6.217,2.895-7.464a8.061,8.061,0,0,1,5.521-1.617c4.631.3,11.134,1.99,13.24.917,3.542-1.8,7.9-.646,8.74,2.558.895,3.422.548,9.044-.219,12.767a18.607,18.607,0,0,1-2.428,6.073h0Z" transform="translate(-431.739 -120.834)" fill="#151852"/>
                  <path id="Path_52373" data-name="Path 52373" d="M450.622,126.815c-1.226-1.644-2.247-3.662-4.161-4.4a5,5,0,0,0-5.443,1.725,8.336,8.336,0,0,0-1.57,5.577c.029,2.49,1.9,6.312,3.583,8.145,3.976,4.328,7.9-.442,12.294-1.76,3.3-.989,11.2.079,10.475-4.242C463.912,120.562,454.259,131.692,450.622,126.815Z" transform="translate(-439.447 -122.156)" fill="#151852"/>
                  <path id="Path_52374" data-name="Path 52374" d="M455.6,153.458c-.339,2.443-2.706,4.345-4.688,5.812a20.592,20.592,0,0,1-6.718,3,5.656,5.656,0,0,1-3.038.255c-1.436-.4-2.346-1.79-3.021-3.121a25.471,25.471,0,0,1-2.88-9.18c1.191,1.446,1.087-.35,2.942-.622s5.24.917,7.086,1.244c6.341,1.119,5.648-10.814,7.211-10.069C454.4,141.688,455.72,151.729,455.6,153.458Z" transform="translate(-423.971 -117.511)" fill="#151852"/>
                  <path id="Path_52375" data-name="Path 52375" d="M440.059,139.863a3.289,3.289,0,0,0-3.63,1.894c-.766,1.467-.381,3,.86,3.42a3.291,3.291,0,0,0,3.63-1.895C441.684,141.815,441.3,140.284,440.059,139.863Z" transform="translate(-410.649 -117.759)" fill="#f2c2c2"/>
                </g>
                <path id="Path_52376" data-name="Path 52376" d="M450.613,156.819S439,179.338,432.847,177.657c-1.757-.48-2.4-2.409-2.51-4.678a16.531,16.531,0,0,1,6.1-13.26l3.812-2.651Z" transform="translate(-412.808 -113.495)" fill="#f2c2c2"/>
              </g>
              <path id="Path_52377" data-name="Path 52377" d="M408.685,156.058c-10.309,2.346-16.849,13.481-16.832,24.054.025,13.9,9.214,26.49,20.725,34.28s25.171,11.621,38.566,15.333" transform="translate(-317.194 -113.685)" fill="none" stroke="#151852" stroke-miterlimit="10" stroke-width="1.458"/>
              <g id="Group_19161" data-name="Group 19161" transform="translate(22.43 50.513)">
                <line id="Line_484" data-name="Line 484" x1="11.571" y2="167.084" transform="translate(0 6.954)" fill="none" stroke="#151852" stroke-miterlimit="10" stroke-width="1.458"/>
                <g id="Group_19160" data-name="Group 19160" transform="translate(2.836)">
                  <path id="Path_52378" data-name="Path 52378" d="M450.457,164.173s20.058,2.189,7.136,24.437c-6.141,10.574-20.073,36.282-33.738,44.182-5.652,3.268-8.95-4.972-6.962-11.685,1.472-4.966,4.476-22.126,17.4-40.276C442.235,169.689,448.481,163.607,450.457,164.173Z" transform="translate(-383.817 -162.18)" fill="#f2c2c2"/>
                  <path id="Path_52379" data-name="Path 52379" d="M477.435,226.391a44.723,44.723,0,0,0-5.094-17.021c-4.8-8.714-20.987-27.16-20.987-27.16l-6.173,4.938s17.813,36.379,19.382,37.966C472.093,232.729,477.248,227.089,477.435,226.391Z" transform="translate(-435.404 -157.663)" fill="#f2c2c2"/>
                  <path id="Path_52380" data-name="Path 52380" d="M457.215,181.713c-2.476,11.966-10.168,22.085-17.642,31.752a1.993,1.993,0,0,1-3.438.372c-7.625-5.908-12.506-7.562-20.132-13.471a94.31,94.31,0,0,1,13.922-25.359c2.89-3.7,5.942-7.5,9.945-9.945C453.129,156.954,459.586,170.261,457.215,181.713Z" transform="translate(-379.197 -162.571)" fill="url(#linear-gradient-4)"/>
                  <path id="Path_52381" data-name="Path 52381" d="M465.255,170.087c-.612-.08-2.215.879-2.083,1.482.064.29-.347.707-1.111.879a2.68,2.68,0,0,0-1.712,1.945c-.116.409-2.582,2.242-2.732,2.638-.555,1.482.787,3.566,1.25,4.26,2.64,3.958,5.679,5.926,9.63,11.605.347.5,6.3,12.1,8.518,15.926,1.176,2.025,2.9-3.81,3.148-4.013,1.067-.867,4.571-5.533,3.888-6.728-1.975-3.456-10.9-13.74-11.358-14.815-.37-.864-1.642-5.081-2.716-7.53C469.094,173.72,467.385,170.366,465.255,170.087Z" transform="translate(-457.484 -160.694)" fill="#f2c2c2"/>
                </g>
              </g>
            </g>
            <g id="Group_19163" data-name="Group 19163" transform="translate(115.297 20.992)">
              <path id="Path_52382" data-name="Path 52382" d="M372.924,139.8c6.456-1.772,12.437-.682,13.795,2.411l.033-.01L417.9,246.456l-24.284,7.255L362.647,150.06a3.467,3.467,0,0,1-.261-.661C361.441,145.956,366.159,141.659,372.924,139.8Z" transform="translate(-362.265 -138.952)" fill="#7792aa"/>
              <path id="Path_52383" data-name="Path 52383" d="M362.105,232.878c.946,3.442,7.2,4.727,13.962,2.87s11.484-6.154,10.539-9.6-7.2-4.728-13.962-2.87S361.16,229.436,362.105,232.878Z" transform="translate(-330.742 -118.093)" fill="#4d6882"/>
            </g>
          </g>
        </g>
      </g>
    </g>
    <g id="Group_19197" data-name="Group 19197" transform="translate(-47.964 337.332)">
      <g id="Group_19191" data-name="Group 19191">
        <g id="Group_19172" data-name="Group 19172" transform="translate(14.802 17.665)">
          <path id="Path_52391" data-name="Path 52391" d="M634.371,441.052A302.044,302.044,0,0,1,577.3,300.117l-1.2.159a303.267,303.267,0,0,0,57.305,141.5Z" transform="translate(-576.093 -300.117)" fill="#75cc96"/>
        </g>
        <g id="Group_19190" data-name="Group 19190">
          <g id="Group_19173" data-name="Group 19173" transform="translate(20.107 24.987)">
            <path id="Path_52392" data-name="Path 52392" d="M611.8,310.923a11.514,11.514,0,0,1,2.66-3.69,4.662,4.662,0,0,1,4.228-1.1,4.283,4.283,0,0,1,2.622,4.418,11.305,11.305,0,0,1-2.057,5.224c-1.2,1.9-8.608,12.2-11.475,10.9C605.211,325.5,610.831,312.808,611.8,310.923Z" transform="translate(-607.111 -305.975)" fill="#75cc96"/>
          </g>
          <g id="Group_19174" data-name="Group 19174" transform="translate(23.675 38.892)">
            <path id="Path_52393" data-name="Path 52393" d="M609.348,321.24a11.6,11.6,0,0,1,3.148-3.3,4.6,4.6,0,0,1,4.32-.5c1.666.806,2.312,2.927,1.942,4.77a11.473,11.473,0,0,1-2.777,4.911c-1.455,1.721-10.23,10.938-12.862,9.23C600.764,334.824,608.126,322.982,609.348,321.24Z" transform="translate(-602.657 -317.1)" fill="#75cc96"/>
          </g>
          <g id="Group_19175" data-name="Group 19175" transform="translate(27.335 53.937)">
            <path id="Path_52394" data-name="Path 52394" d="M607.194,331.965A11.615,11.615,0,0,1,611,329.449a4.485,4.485,0,0,1,4.278.5c1.414,1.176,1.537,3.407.748,5.132a11.65,11.65,0,0,1-3.83,4.186c-1.8,1.356-12.422,8.392-14.556,6.109C595.734,343.335,605.608,333.394,607.194,331.965Z" transform="translate(-597.399 -329.138)" fill="#75cc96"/>
          </g>
          <g id="Group_19176" data-name="Group 19176" transform="translate(44.322 95.607)">
            <path id="Path_52395" data-name="Path 52395" d="M593.6,365.3a11.634,11.634,0,0,1,3.808-2.515,4.479,4.479,0,0,1,4.277.5c1.415,1.175,1.539,3.407.749,5.132a11.673,11.673,0,0,1-3.83,4.186c-1.806,1.356-12.424,8.39-14.557,6.109C582.142,376.674,592.016,366.734,593.6,365.3Z" transform="translate(-583.807 -362.477)" fill="#75cc96"/>
          </g>
          <g id="Group_19177" data-name="Group 19177" transform="translate(36.748 83.569)">
            <path id="Path_52396" data-name="Path 52396" d="M600.926,355.023a8.964,8.964,0,0,1,2.933-1.937,3.455,3.455,0,0,1,3.3.385,3.379,3.379,0,0,1,.576,3.953,8.978,8.978,0,0,1-2.95,3.226c-1.391,1.044-9.571,6.466-11.215,4.707C592.1,363.784,599.7,356.126,600.926,355.023Z" transform="translate(-593.379 -352.846)" fill="#75cc96"/>
          </g>
          <g id="Group_19178" data-name="Group 19178" transform="translate(36.591 130.065)">
            <path id="Path_52397" data-name="Path 52397" d="M597.471,397.378a8.66,8.66,0,0,1-3.456.355,3.283,3.283,0,0,1-2.645-1.9A3.565,3.565,0,0,1,592.786,392a8.913,8.913,0,0,1,4.092-1.5c1.7-.281,11.345-1.286,11.907,1.07C609.289,393.678,599.054,396.965,597.471,397.378Z" transform="translate(-591.214 -390.047)" fill="#75cc96"/>
          </g>
          <g id="Group_19179" data-name="Group 19179" transform="translate(30.708 118.018)">
            <path id="Path_52398" data-name="Path 52398" d="M603.321,389.132a8.822,8.822,0,0,1-3.338,1.047,3.342,3.342,0,0,1-3.007-1.309,3.486,3.486,0,0,1,.6-4,9.008,9.008,0,0,1,3.727-2.291c1.62-.619,10.933-3.557,11.978-1.385C614.216,383.139,604.8,388.411,603.321,389.132Z" transform="translate(-596.574 -380.408)" fill="#75cc96"/>
          </g>
          <g id="Group_19180" data-name="Group 19180" transform="translate(52.301 113.157)">
            <path id="Path_52399" data-name="Path 52399" d="M587.7,380.061a8.916,8.916,0,0,1,2.219-2.718,3.574,3.574,0,0,1,3.3-.649,3.308,3.308,0,0,1,1.8,3.531,8.769,8.769,0,0,1-1.831,3.93c-1.012,1.407-7.194,9-9.33,7.857C581.942,390.986,586.869,381.468,587.7,380.061Z" transform="translate(-583.417 -376.519)" fill="#75cc96"/>
          </g>
          <g id="Group_19181" data-name="Group 19181" transform="translate(31.131 67.304)">
            <path id="Path_52400" data-name="Path 52400" d="M604.953,342.252a9.931,9.931,0,0,1,3.257-2.152,3.831,3.831,0,0,1,3.658.429,3.751,3.751,0,0,1,.64,4.388,9.972,9.972,0,0,1-3.276,3.58c-1.544,1.16-10.625,7.178-12.45,5.226C595.15,351.976,603.6,343.474,604.953,342.252Z" transform="translate(-596.574 -339.833)" fill="#75cc96"/>
          </g>
          <g id="Group_19182" data-name="Group 19182" transform="translate(10.557)">
            <path id="Path_52401" data-name="Path 52401" d="M618.862,293.851a10.759,10.759,0,0,1,.111-4.445,4.737,4.737,0,0,1,2.932-3.271,4.393,4.393,0,0,1,4.769,2.039,10.532,10.532,0,0,1,1.286,5.327c.085,2.191-.206,14.593-3.383,15.173C621.734,309.192,619.138,295.9,618.862,293.851Z" transform="translate(-618.685 -285.984)" fill="#75cc96"/>
          </g>
          <g id="Group_19183" data-name="Group 19183" transform="translate(0 22.17)">
            <path id="Path_52402" data-name="Path 52402" d="M623.273,313.125A10.269,10.269,0,0,1,620.208,310a4.4,4.4,0,0,1-.136-4.272,4.743,4.743,0,0,1,4.99-1.9,10.5,10.5,0,0,1,4.728,2.761c1.615,1.444,10.181,10.146,8.229,12.744C636.273,321.654,624.929,314.34,623.273,313.125Z" transform="translate(-619.579 -303.721)" fill="#75cc96"/>
          </g>
          <g id="Group_19184" data-name="Group 19184" transform="translate(1.435 41.462)">
            <path id="Path_52403" data-name="Path 52403" d="M621.586,328.535a10.4,10.4,0,0,1-3.717-2.345,4.3,4.3,0,0,1-1.092-4.1,4.783,4.783,0,0,1,4.483-2.935,10.758,10.758,0,0,1,5.273,1.63c1.914,1.04,12.3,7.568,10.96,10.505C636.3,333.921,623.489,329.345,621.586,328.535Z" transform="translate(-616.614 -319.157)" fill="#75cc96"/>
          </g>
          <g id="Group_19185" data-name="Group 19185" transform="translate(3.262 57.354)">
            <path id="Path_52404" data-name="Path 52404" d="M620.122,341.08a10.608,10.608,0,0,1-4.153-1.527,4.241,4.241,0,0,1-1.922-3.757,4.779,4.779,0,0,1,3.825-3.751,11.025,11.025,0,0,1,5.542.521c2.1.624,13.7,4.871,12.986,7.99C635.757,343.348,622.168,341.484,620.122,341.08Z" transform="translate(-614.029 -331.872)" fill="#75cc96"/>
          </g>
          <g id="Group_19186" data-name="Group 19186" transform="translate(6.944 72.746)">
            <path id="Path_52405" data-name="Path 52405" d="M617.445,353.255a10.812,10.812,0,0,1-4.35-.941,4.225,4.225,0,0,1-2.437-3.438c-.062-1.86,1.5-3.547,3.288-4.213a11.218,11.218,0,0,1,5.594-.241c2.182.33,14.327,2.936,14.046,6.107C633.336,353.365,619.538,353.374,617.445,353.255Z" transform="translate(-610.656 -344.186)" fill="#75cc96"/>
          </g>
          <g id="Group_19187" data-name="Group 19187" transform="translate(11.694 86.464)">
            <path id="Path_52406" data-name="Path 52406" d="M613.645,364.23a10.784,10.784,0,0,1-4.349-.94,4.227,4.227,0,0,1-2.437-3.44c-.062-1.86,1.5-3.547,3.289-4.213a11.231,11.231,0,0,1,5.594-.24c2.182.329,14.327,2.936,14.046,6.107C629.534,364.34,615.738,364.349,613.645,364.23Z" transform="translate(-606.856 -355.162)" fill="#75cc96"/>
          </g>
          <g id="Group_19188" data-name="Group 19188" transform="translate(17.259 98.064)">
            <path id="Path_52407" data-name="Path 52407" d="M609.192,373.511a10.784,10.784,0,0,1-4.349-.94,4.224,4.224,0,0,1-2.437-3.438c-.062-1.861,1.5-3.548,3.289-4.215a11.23,11.23,0,0,1,5.594-.24c2.182.329,14.327,2.936,14.046,6.107C625.081,373.621,611.285,373.63,609.192,373.511Z" transform="translate(-602.403 -364.443)" fill="#75cc96"/>
          </g>
          <g id="Group_19189" data-name="Group 19189" transform="translate(21.111 108.568)">
            <path id="Path_52408" data-name="Path 52408" d="M609.356,384.562a11.509,11.509,0,0,1-4.28,1.535,4.355,4.355,0,0,1-3.977-1.534c-1.062-1.5-.625-3.712.562-5.208a11.694,11.694,0,0,1,4.717-3.165c2.07-.889,14.006-5.188,15.482-2.433C623.182,376.221,611.235,383.549,609.356,384.562Z" transform="translate(-600.497 -372.848)" fill="#75cc96"/>
          </g>
        </g>
      </g>
      <g id="Group_19193" data-name="Group 19193" transform="translate(145.449 104.506)">
        <path id="Path_52409" data-name="Path 52409" d="M516.739,465.314c12.053-30.217,15.467-63.191,16.033-95.717-28.241,19.157-53.154,43.99-69.057,74.185-12.66,24.039-19.33,51.613-17.294,78.814.235,3.142.155,16.562,3.336,18.086,3.386,1.622,32.709-22.61,42.1-33.614A149.792,149.792,0,0,0,516.739,465.314Z" transform="translate(-442.618 -369.597)" fill="#0e6c75"/>
        <g id="Group_19192" data-name="Group 19192" transform="translate(0 22.85)">
          <path id="Path_52410" data-name="Path 52410" d="M457.913,540.273a393.064,393.064,0,0,0,75.34-152.394" transform="translate(-457.913 -387.879)" fill="none" stroke="#fff" stroke-linecap="round" stroke-linejoin="round" stroke-width="0.439"/>
          <path id="Path_52411" data-name="Path 52411" d="M471.591,406.29a133.336,133.336,0,0,1-20.2,17.521" transform="translate(-388.106 -383.279)" fill="none" stroke="#fff" stroke-linecap="round" stroke-linejoin="round" stroke-width="0.439"/>
          <path id="Path_52412" data-name="Path 52412" d="M478.1,435.96a64.32,64.32,0,0,1-6.613-28.843" transform="translate(-419.726 -383.072)" fill="none" stroke="#fff" stroke-linecap="round" stroke-linejoin="round" stroke-width="0.439"/>
          <path id="Path_52413" data-name="Path 52413" d="M487.969,434.319a111.374,111.374,0,0,1-31.328,22.989" transform="translate(-411.04 -376.275)" fill="none" stroke="#fff" stroke-linecap="round" stroke-linejoin="round" stroke-width="0.439"/>
          <path id="Path_52414" data-name="Path 52414" d="M493.03,450.458a105.075,105.075,0,0,1-15.81-35.3" transform="translate(-441.821 -381.062)" fill="none" stroke="#fff" stroke-linecap="round" stroke-linejoin="round" stroke-width="0.439"/>
          <path id="Path_52415" data-name="Path 52415" d="M498.443,462.473a103.378,103.378,0,0,1-29.1,13.414" transform="translate(-437.394 -369.24)" fill="none" stroke="#fff" stroke-linecap="round" stroke-linejoin="round" stroke-width="0.439"/>
          <path id="Path_52416" data-name="Path 52416" d="M499.478,472.257a86.059,86.059,0,0,1-11.546-38.226" transform="translate(-461.659 -376.347)" fill="none" stroke="#fff" stroke-linecap="round" stroke-linejoin="round" stroke-width="0.439"/>
          <path id="Path_52417" data-name="Path 52417" d="M515.387,483.505a106.945,106.945,0,0,1-23.194,9.517c-6.639-7.91-7.44-23.964-9.963-33.979" transform="translate(-470.44 -370.097)" fill="none" stroke="#fff" stroke-linecap="round" stroke-linejoin="round" stroke-width="0.439"/>
        </g>
      </g>
      <g id="Group_19194" data-name="Group 19194" transform="translate(58.457 24.643)">
        <path id="Path_52418" data-name="Path 52418" d="M569.417,549.339l12.294-1.394s39.545-155.216,3.82-172.177c0,0,2.3-68.71-17.637-70.045s-21.644,55.433-21.644,55.433S514.286,392.448,569.417,549.339Z" transform="translate(-537.034 -305.7)" fill="url(#linear-gradient-5)"/>
        <path id="Path_52419" data-name="Path 52419" d="M559.305,305.719S550.054,462,567.171,549.687" transform="translate(-528.446 -305.696)" fill="none" stroke="#fff" stroke-linecap="round" stroke-linejoin="round" stroke-width="0.439"/>
      </g>
      <g id="Group_19196" data-name="Group 19196" transform="translate(4.044 101.883)">
        <path id="Path_52420" data-name="Path 52420" d="M628.083,438.743c-16.527-28.021-40.522-50.9-65.9-71.244-2.126,34.06,2.275,68.96,16.43,100.012,11.27,24.72,29,46.868,51.762,61.9,2.63,1.737,13.195,10.01,16.347,8.427,3.355-1.686,2.126-39.706-.832-53.866A149.753,149.753,0,0,0,628.083,438.743Z" transform="translate(-561.674 -367.499)" fill="#2c595d"/>
        <g id="Group_19195" data-name="Group 19195" transform="translate(9.517 25.699)">
          <path id="Path_52421" data-name="Path 52421" d="M638.6,540.891a393.049,393.049,0,0,0-74.45-152.831" transform="translate(-564.147 -388.06)" fill="none" stroke="#fff" stroke-linecap="round" stroke-linejoin="round" stroke-width="0.439"/>
          <path id="Path_52422" data-name="Path 52422" d="M603.863,394.17a133.292,133.292,0,0,1,1.5,26.693" transform="translate(-580.678 -386.533)" fill="none" stroke="#fff" stroke-linecap="round" stroke-linejoin="round" stroke-width="0.439"/>
          <path id="Path_52423" data-name="Path 52423" d="M625.407,427.168a64.323,64.323,0,0,1-26.861-12.416" transform="translate(-593.951 -381.391)" fill="none" stroke="#fff" stroke-linecap="round" stroke-linejoin="round" stroke-width="0.439"/>
          <path id="Path_52424" data-name="Path 52424" d="M586.177,415.467a111.393,111.393,0,0,1-.984,38.845" transform="translate(-539.29 -381.212)" fill="none" stroke="#fff" stroke-linecap="round" stroke-linejoin="round" stroke-width="0.439"/>
          <path id="Path_52425" data-name="Path 52425" d="M629.2,439.119a105.068,105.068,0,0,1-37.591-9.089" transform="translate(-589.068 -377.573)" fill="none" stroke="#fff" stroke-linecap="round" stroke-linejoin="round" stroke-width="0.439"/>
          <path id="Path_52426" data-name="Path 52426" d="M578.9,442.742a103.313,103.313,0,0,1-7.19,31.222" transform="translate(-513.892 -374.397)" fill="none" stroke="#fff" stroke-linecap="round" stroke-linejoin="round" stroke-width="0.439"/>
          <path id="Path_52427" data-name="Path 52427" d="M618.682,461.6a86.056,86.056,0,0,1-37.3-14.253" transform="translate(-565.773 -373.246)" fill="none" stroke="#fff" stroke-linecap="round" stroke-linejoin="round" stroke-width="0.439"/>
          <path id="Path_52428" data-name="Path 52428" d="M606.454,462.809a106.974,106.974,0,0,1-6.663,24.167c-10.319.412-23.508-8.775-32.973-12.907" transform="translate(-535.343 -369.383)" fill="none" stroke="#fff" stroke-linecap="round" stroke-linejoin="round" stroke-width="0.439"/>
        </g>
      </g>
    </g>
  </g>
</svg>
