<?xml version="1.0" encoding="utf-8"?>
<!-- Generator: Adobe Illustrator 24.1.2, SVG Export Plug-In . SVG Version: 6.00 Build 0)  -->
<svg version="1.1" id="Group_19199" xmlns="http://www.w3.org/2000/svg" xmlns:xlink="http://www.w3.org/1999/xlink" x="0px"
	 y="0px" viewBox="0 0 1920 566" style="enable-background:new 0 0 1920 566;" xml:space="preserve">
<style type="text/css">
	.st0{fill:none;}
	.st1{fill:#FFFFFF;}
	.st2{fill:url(#SVGID_1_);}
	.st3{fill:url(#SVGID_2_);}
	.st4{fill:#606060;}
	.st5{fill:#69493B;}
	.st6{fill:#5F4033;}
	.st7{fill:#E6DCBD;}
	.st8{fill:#4D6882;}
	.st9{fill:#2E4354;}
	.st10{fill:url(#SVGID_3_);}
	.st11{fill:#C7C1AD;}
	.st12{fill:#EAE4CD;}
	.st13{fill:#EAE7DA;}
	.st14{opacity:0.16;}
	.st15{fill:#463DB4;}
	.st16{fill:#F2AEAE;}
	.st17{fill:#D6A81E;}
	.st18{fill:#151852;}
	.st19{fill:#F2C9B1;}
	.st20{fill:#2C595D;}
	.st21{fill:#DEFFFF;}
	.st22{fill:#F2C3A7;}
	.st23{fill:#E4B62C;}
	.st24{fill:#F2947A;}
	.st25{fill:#F2B18B;}
	.st26{fill:#F2C2C2;}
	.st27{fill:url(#Path_52380_1_);}
	.st28{fill:#7792AA;}
	.st29{fill:#75CC96;}
	.st30{fill:#0E6C75;}
	.st31{fill:url(#SVGID_4_);}
	.st32{display:none;fill:#FFFFFF;}
</style>
<rect class="st0" width="1244.9" height="566"/>
<path class="st1" d="M890.6,22v543.7H0V428.8c-0.1,0.1-0.2,0.2-0.4,0.3V421c0.1,0,0.3-0.1,0.4-0.1V22H890.6z"/>
<path class="st0" d="M890.6,21.8V566H0V428.8c-0.1,0.1-0.2,0.2-0.4,0.3V421c0.1,0,0.3-0.1,0.4-0.1V21.8H890.6z"/>
<linearGradient id="SVGID_1_" gradientUnits="userSpaceOnUse" x1="579.3779" y1="120.0896" x2="569.9104" y2="608.5011">
	<stop  offset="0" style="stop-color:#FFFFFF"/>
	<stop  offset="7.700000e-02" style="stop-color:#FFF3E3"/>
	<stop  offset="0.168" style="stop-color:#F4EBD1"/>
	<stop  offset="0.251" style="stop-color:#F2E5BF"/>
	<stop  offset="0.315" style="stop-color:#E6DCBD"/>
	<stop  offset="0.493" style="stop-color:#BDD8E6"/>
	<stop  offset="1" style="stop-color:#BDD8E6"/>
</linearGradient>
<path class="st2" d="M1152.8,0v545.4H0V428.8c-0.1,0.1-0.2,0.2-0.4,0.3V421c0.1,0,0.3-0.1,0.4-0.1V0H1152.8z"/>
<linearGradient id="SVGID_2_" gradientUnits="userSpaceOnUse" x1="647.6685" y1="746.2183" x2="272.6531" y2="-268.6806">
	<stop  offset="6.500000e-02" style="stop-color:#F8E9AC"/>
	<stop  offset="0.351" style="stop-color:#FBCA8D"/>
	<stop  offset="0.72" style="stop-color:#E4B934"/>
	<stop  offset="0.971" style="stop-color:#BE9FCF"/>
</linearGradient>
<polygon class="st3" points="941.3,547.3 898.2,566 304.1,566 303.2,565.7 238.3,545.4 223.7,540.8 218.2,539.1 202.2,534 
	237.1,511.4 354.4,435.5 419.9,393.1 502.2,339.8 582.4,400.5 610.4,393.9 642.9,426.4 672.1,455.6 678.3,453.6 689.2,450.2 
	690.5,449.7 702,446.1 707.5,444.3 711.5,443 742,433.3 775.8,422.5 858.2,476.5 865.3,481.2 874.6,487.3 876.5,488.5 888.6,496.4 
	889.6,497.1 889.6,497.1 890.6,497.8 895.8,501.2 896.3,501.5 900.3,504.2 904.8,507.1 907.3,508.8 910.1,510.6 910.4,510.8 
	911.7,511.6 915,513.8 915,513.8 915.7,514.2 917.6,516.7 917.6,516.7 919.9,519.7 919.9,519.7 922.2,522.6 922.2,522.6 923,523.7 
	939.8,545.4 "/>
<g id="Group_19111" transform="translate(114.902 108.201)">
	<path id="Path_52234" class="st4" d="M262.9,158.9c2,1.3,3.4,4,2.6,6.3H127.2c2-4.9,6.8-8.1,12.1-8.1c5.2-0.1,10.3,2.1,14.6,5
		c-1-0.8-1.7-1.8-2.2-2.9c-0.7-1.7,0.1-3.5,1.8-4.2c0.2-0.1,0.3-0.1,0.5-0.2c7.6-1.7,15.5,0.6,20.9,6.2c-5.7-3.2-10.1-8.5-12.1-14.8
		c-1.1-3.4-1.3-7.5,1.1-10.1c2.8-3,7.5-2.6,11.5-1.8c13.4,2.7,26.2,7.8,37.9,14.9c5.6,3.4,11.2,7.7,13.6,13.8
		C232.8,159.5,249.8,150.4,262.9,158.9z"/>
	<path id="Path_52235" class="st4" d="M168.7,31.3c2.5,1.7,4.3,5,3.2,7.8H0c2.3-6.1,8.5-9.9,15-10.1s12.8,2.6,18.2,6.2
		c-1.2-1-2.1-2.2-2.7-3.7c-0.8-2.1,0.2-4.4,2.2-5.2c0.2-0.1,0.4-0.1,0.6-0.2c9.4-2.1,19.3,0.8,26,7.7c-7.1-4-12.5-10.6-15-18.4
		c-1.3-4.2-1.6-9.3,1.4-12.6c3.4-3.7,9.3-3.2,14.3-2.2c16.7,3.4,32.6,9.7,47.2,18.6c7,4.3,14,9.6,16.9,17.2
		C131.4,32,152.5,20.7,168.7,31.3z"/>
	<path id="Path_52236" class="st4" d="M276.6,246c1.2-1.4,1-3.5-0.4-4.7c-1-0.9-2.5-1-3.7-0.4c0.8-0.1,1.4-0.7,1.4-1.5
		c0-0.8-0.3-1.5-0.7-2.1c-3.9-6.1-12.1-7.9-18.2-4c-2.7,1.7-4.7,4.4-5.6,7.6c0.6-0.7-0.2-1.8-1-2.3c-1.9-1.2-4.3-1.6-6.4-0.9
		c-2.1,0.8-5,3.3-3.2,6.3c-7.7,0.1-15.5,0.8-23.1,2L276.6,246z"/>
</g>
<path id="Path_52240" class="st4" d="M473.6,318.1c1.4,0.8,2.1,2.5,1.7,4h-88.2c1.3-3.1,4.3-5.1,7.7-5.2c3.4,0.1,6.6,1.2,9.3,3.2
	c-0.6-0.5-1.1-1.1-1.4-1.9c-0.4-1.1,0.1-2.3,1.1-2.7c0.1,0,0.2-0.1,0.3-0.1c4.8-1.1,9.9,0.4,13.4,3.9c-3.7-2.1-6.4-5.4-7.7-9.4
	c-0.7-2.2-0.8-4.8,0.7-6.5c1.8-1.9,4.8-1.7,7.3-1.1c8.6,1.7,16.7,5,24.2,9.5c3.6,2.2,7.2,4.9,8.7,8.8
	C454.4,318.4,465.3,312.6,473.6,318.1z"/>
<g id="Group_19133" transform="translate(-111.077 -12.579)">
	<g id="Group_19113" transform="translate(430.15 375.941)">
		<path id="Path_52241" class="st5" d="M285.7,118.7L233,45.1L212,34.6L190.9,0l-13.5,42.1c0,0,8.9-6.9-35.4,19.7S0,148.8,0,148.8
			L285.7,118.7z"/>
		<path id="Path_52242" class="st6" d="M190.9,0l-13.5,42.1L27.5,127.8L190.9,0z"/>
	</g>
	<g id="Group_19114" transform="translate(0 0)">
		<path class="st5" d="M486.2,578.6c-0.4-0.1-0.7-0.2-1.1-0.3c-11.5-3.2-20.3-4.5-23.8-2c-1,0.7-1.9,1.4-3,2
			c-0.2,0.1-0.3,0.2-0.5,0.3H146.5c-0.2,0.8-0.4,1.6-0.6,2.4c-0.2,0-0.3,0.1-0.5,0.1c0.2-0.8,0.4-1.7,0.6-2.5h-35V441.4
			c-0.1,0.1-0.2,0.2-0.4,0.3v-8.1c0.1,0,0.3-0.1,0.4-0.1V33c0.3,0.4,0.7,0.9,1.2,1.4c0,0.1,0.1,0.1,0.2,0.2
			c8.1,9.7,34.4,41.1,70,83.4c17.3,20.6,36.8,43.7,57.5,68.1c6.6,7.8,13.4,15.8,20.2,23.9c1.6,1.9,3.2,3.8,4.8,5.6
			c0.5,0.5,0.9,1.1,1.3,1.6c1.5,1.8,3,3.6,4.6,5.4c2.4,2.9,4.9,5.8,7.3,8.7c0.9,1.1,1.8,2.2,2.8,3.3c0.7,0.8,1.3,1.6,2,2.3
			c2.5,3,5.1,6,7.7,9c0.6,0.7,1.2,1.4,1.8,2.2c0,0.1,0.1,0.1,0.2,0.2c1.7,2,3.4,4,5.1,6c2.1,2.5,4.2,4.9,6.3,7.4
			c3.2,3.8,6.4,7.5,9.6,11.3c0,0,0,0,0,0c0.3,0.4,0.6,0.7,0.9,1.1c0.2,0.3,0.5,0.6,0.8,0.9c4.5,5.3,9,10.6,13.5,15.8
			c4.1,4.8,8.2,9.6,12.3,14.4c10.2,11.9,20.3,23.7,30.2,35.2c2.3,2.7,4.6,5.3,6.8,7.9c4.9,5.6,9.6,11.2,14.4,16.7l0,0
			c27.3,31.5,52.4,60.2,73,83.2c9.9,11.1,18.8,20.8,26.4,28.9c1.5,1.6,3,3.2,4.4,4.7c0.5,0.5,1,1,1.4,1.5
			c11.8,12.3,19.4,19.6,21.7,20.1c0.6,0.1,7.8,2.5,19.4,6.4c0,0,0,0,0,0c2.1,0.7,4.3,1.5,6.7,2.3c0.5,0.2,1.1,0.4,1.6,0.5h0
			c0.6,0.2,1.1,0.4,1.7,0.6h0.2c0.4,0.1,0.7,0.3,1.1,0.5h0c19.3,6.5,45.5,15.4,72.7,24.7c7.9,2.7,15.8,5.4,23.8,8.1l0,0
			c3.1,1.1,6.2,2.1,9.3,3.2c8.4,2.9,16.6,5.7,24.5,8.4c23.7,8.2,44.6,15.5,58.1,20.3c0.3,0.1,0.6,0.2,0.8,0.3H486.2z"/>
		<path class="st7" d="M658.9,548l-2.9,1.5l-16.5,8.4l-39.7,20.3l-0.6,0.3h-276l0.1-0.3l9.3-20.3l2.1-4.6l1.6-3.5l11.9-25.9
			l11.8-25.7l6-13.2l8.4-18.4l-71.1-79l0,0l-2.9-3.3h0l-1.6-1.8l-2.5-2.7l-2.9-3.2l-15.7-17.4h0l0,0l0,0l-19.8-21.9l-0.6-0.6
			l-0.8-0.9l-8.6-9.6l-1.6-1.8l-7.8-8.7c0,0,0,0,0,0c0,0,0,0,0,0l-6.8-7.6l-9.3-27.4l-1.3-3.7l-7-20.7L197,205.9v0l22.6,4.5
			l-27.2-39.9h0l-14.9-21.8l4.9-30.8l10.3-64.7l66.8,93.7l9.2,12.9l9.7,13.7l2.8,1.3l10.9,4.9l0.7,0.3l9.9,4.5l0.6,0.3l3.1,1.4
			l1.4,0.6l3.2,1.4l1,0.5l0.2,0.1l0.6,0.3l2,0.9l1.4,0.6l0.9,0.4l0.6,0.3l0.2,0.1l10.4,4.7c0,0,0,0,0,0l2.3,1l1.5,0.7l19.9,8.9
			l7.3,8.1l31.5,35l4.3,4.8l3.8,4.2l24.4,27.2l60,66.7l12.6,14l35,38.9l21.5,23.9l11.7,13l0.2,0.2l38.6,42.9l2.7,3l1.8,2l4.4,4.9
			l8.3,9.2l4.5,5l0.7,0.8l2.1,2.4l13.4,14.9l17.1,19.1L658.9,548z"/>
		<polygon class="st7" points="296.2,204.5 295.3,204.2 295.2,204.2 295.2,204.2 294.9,204.1 293.7,203.7 293.7,203.7 293.5,203.6 
			239.9,186.1 192.4,170.5 192.4,170.5 158.3,159.4 157.9,159.3 157.9,159.3 111.1,39.4 111.1,16.9 112.7,12.6 194.2,12.6 200,13.5 
			210.5,34.4 210.6,34.6 266.9,146.3 273.8,159.9 281.3,174.8 294.8,201.6 294.9,201.9 295.5,203.1 295.6,203.2 295.7,203.5 		"/>
		<path id="Path_52246" class="st6" d="M157.9,159.3l-0.1,177.6l33.6-166L157.9,159.3z"/>
		<path id="Path_52247" class="st6" d="M197,205.9l-35.4,284.3l70-182.1L197,205.9z"/>
	</g>
	<g id="Group_19122" transform="translate(903.717 469.641)">
		<g id="Group_19118" transform="translate(58.838)">
			<g id="Group_19115" transform="translate(75.423 28.288)">
				<path id="Path_52248" class="st8" d="M25.2,0l4.5,38.3l-8.5,0.1L25.2,0z"/>
				<path id="Path_52249" class="st8" d="M4,0.1l4.5,38.3L0,38.5L4,0.1z"/>
				<path id="Path_52250" class="st8" d="M21.1,13.8L24,38l-5.4,0L21.1,13.8z"/>
				<path id="Path_52251" class="st8" d="M14.7,20.3l4.4,18l-8.5,0.1L14.7,20.3z"/>
				<path id="Path_52252" class="st8" d="M10.4,6.1l2.9,32l-5.4,0L10.4,6.1z"/>
			</g>
			<g id="Group_19116" transform="translate(102.062 38.265)">
				<path id="Path_52253" class="st8" d="M25.2,0l4.5,38.3l-8.5,0.1L25.2,0z"/>
				<path id="Path_52254" class="st8" d="M4,0.1l4.5,38.3L0,38.5L4,0.1z"/>
				<path id="Path_52255" class="st8" d="M21.1,13.8L24,38l-5.4,0L21.1,13.8z"/>
				<path id="Path_52256" class="st8" d="M14.7,20.3l4.4,18l-8.5,0.1L14.7,20.3z"/>
				<path id="Path_52257" class="st8" d="M10.4,6.1l2.9,32l-5.4,0L10.4,6.1z"/>
			</g>
			<g id="Group_19117">
				<path id="Path_52258" class="st8" d="M72,18.4l4.6,48.2l-8.5,0.1L72,18.4z"/>
				<path id="Path_52259" class="st8" d="M50.8,28.4l4.5,38.3l-8.5,0.1L50.8,28.4z"/>
				<path id="Path_52260" class="st8" d="M37.5,36.1L42,66.8l-8.5,0.1L37.5,36.1z"/>
				<path id="Path_52261" class="st8" d="M23.9,20.1l4.7,46.8l-8.5,0.1L23.9,20.1z"/>
				<path id="Path_52262" class="st8" d="M9.5,0l12,66.9L0,67.1L9.5,0z"/>
				<path id="Path_52263" class="st8" d="M67.9,42.1l2.9,24.2l-5.4,0L67.9,42.1z"/>
				<path id="Path_52264" class="st8" d="M44.5,42.1l2.9,24.2l-5.4,0L44.5,42.1z"/>
				<path id="Path_52265" class="st8" d="M30.9,42.1l2.9,24.2l-5.4,0L30.9,42.1z"/>
				<path id="Path_52266" class="st8" d="M61.5,48.6l4.4,18l-8.5,0.1L61.5,48.6z"/>
				<path id="Path_52267" class="st8" d="M57.2,34.4l2.9,32l-5.4,0L57.2,34.4z"/>
			</g>
		</g>
		<g id="Group_19121" transform="translate(0 19.08)">
			<g id="Group_19119" transform="translate(33.414 9.9)">
				<path id="Path_52268" class="st8" d="M25.2,0l4.5,38.3l-8.5,0.1L25.2,0z"/>
				<path id="Path_52269" class="st8" d="M4,0.1l4.5,38.3L0,38.5L4,0.1z"/>
				<path id="Path_52270" class="st8" d="M21.1,13.8L24,38l-5.4,0L21.1,13.8z"/>
				<path id="Path_52271" class="st8" d="M14.7,20.3l4.4,18l-8.5,0.1L14.7,20.3z"/>
				<path id="Path_52272" class="st8" d="M10.4,6.1l2.9,32l-5.4,0L10.4,6.1z"/>
			</g>
			<g id="Group_19120">
				<path id="Path_52273" class="st8" d="M30,0l4.6,48.2l-8.5,0.1L30,0z"/>
				<path id="Path_52274" class="st8" d="M8.8,10l4.5,38.3l-8.5,0.1L8.8,10z"/>
				<path id="Path_52275" class="st8" d="M25.9,23.7l2.9,24.2l-5.4,0L25.9,23.7z"/>
				<path id="Path_52276" class="st8" d="M2.5,23.7l2.9,24.2l-5.4,0L2.5,23.7z"/>
				<path id="Path_52277" class="st8" d="M19.5,30.2l4.4,18l-8.5,0.1L19.5,30.2z"/>
				<path id="Path_52278" class="st8" d="M15.2,16l2.9,32l-5.4,0L15.2,16z"/>
			</g>
		</g>
	</g>
	<polygon class="st1" points="1119.2,578.6 903.3,578.6 902.8,578.3 898.4,575.8 867.5,557.9 854.2,550.3 860.3,549.3 928.4,538.2 
		936.8,536.9 937.2,536.8 938.3,536.6 945.1,535.5 945.4,535.5 948.2,535 950.2,534.7 955.4,533.8 956,533.8 958.8,533.3 960.7,533 
		963.1,532.6 966.3,532.1 982.8,529.4 983.3,529.3 990.3,528.2 991.8,527.9 995.3,527.4 997.3,527 1001.7,526.3 1003,526.1 
		1005.6,525.7 1008.7,525.2 1010.6,524.9 1016.4,523.9 1018.2,523.6 1021.2,523.2 1021.5,523.1 1023,522.9 1025.1,522.5 
		1029.4,521.8 1031.6,521.5 1031.8,521.4 1037.6,520.5 1039.7,520.2 1044.5,519.4 1047.2,518.9 1049.7,518.5 1058.5,517.1 
		1059.7,516.9 1061.3,516.6 1065.3,516 1067.8,515.6 1069.5,515.3 1069.9,515.2 1075,514.4 1075,514.4 1089.4,512.1 1090.3,511.9 
		1103.9,509.7 1108.9,532.1 1114.6,557.9 	"/>
	<g id="Group_19124" transform="translate(612.032 381.953)">
		<g id="Group_19123">
			<path id="Path_52280" class="st5" d="M182.5,0l-22.1,35.1l-27.1,32.1c0,0-20.6,24.1-26.6,31.1S0,162.4,0,162.4l133.8,7.5
				L201,93.2V51.6l-3.5-22.6L182.5,0z"/>
			<polygon class="st7" points="352.9,196.6 304.2,196.6 302.3,196.3 286.4,193.8 221.8,183.7 220.8,183.5 172.5,176 133.8,169.9 
				143.4,130.3 147.2,125.5 160.2,109.6 164.9,103.8 166,102 177.3,84.3 178.9,81.7 175.9,67.2 188.2,80.8 194,87.2 189.5,80.4 
				185.5,74.2 184,66.2 178.4,57.1 186.6,42.8 189.3,38.1 192.5,32.6 182.5,0 197.5,23.6 207.5,28.1 215,40.6 232.1,46.1 241,63.9 
				242.6,67.2 253.6,73.7 265.7,100.3 294.1,131.7 294.4,132 298.4,136.5 303.4,142 305.2,144 308.7,147.9 309.2,148.4 315.2,155 
				316.4,156.3 334.2,176 352.6,196.3 			"/>
		</g>
		<path id="Path_52282" class="st5" d="M188.5,36.6l60.2,101.3l-34.1-50.1l-28.1-45.1L188.5,36.6z"/>
		<path id="Path_52283" class="st5" d="M163.4,98.2l62.7,91.8l-72.4-88.3L163.4,98.2z"/>
	</g>
	<g id="Group_19132" transform="translate(545.329 446.043)">
		<g id="Group_19128" transform="translate(58.838)">
			<g id="Group_19127">
				<path id="Path_52294" class="st9" d="M72,23.4l4.6,48.2l-8.5,0.1L72,23.4z"/>
				<path id="Path_52295" class="st9" d="M50.8,28.4l4.5,38.3l-8.5,0.1L50.8,28.4z"/>
				<path id="Path_52296" class="st9" d="M37.5,36.1L42,66.8l-8.5,0.1L37.5,36.1z"/>
				<path id="Path_52297" class="st9" d="M23.9,20.1l4.7,46.8l-8.5,0.1L23.9,20.1z"/>
				<path id="Path_52298" class="st9" d="M9.5,0l12,66.9L0,67.1L9.5,0z"/>
				<path id="Path_52299" class="st9" d="M67.9,42.1l2.9,24.2l-5.4,0L67.9,42.1z"/>
				<path id="Path_52300" class="st9" d="M44.5,42.1l2.9,24.2l-5.4,0L44.5,42.1z"/>
				<path id="Path_52301" class="st9" d="M30.9,42.1l2.9,24.2l-5.4,0L30.9,42.1z"/>
				<path id="Path_52302" class="st9" d="M61.5,48.6l4.4,18l-8.5,0.1L61.5,48.6z"/>
				<path id="Path_52303" class="st9" d="M57.2,34.4l2.9,32l-5.4,0L57.2,34.4z"/>
			</g>
		</g>
		<g id="Group_19131" transform="translate(0 19.08)">
			<g id="Group_19129" transform="translate(33.414 9.9)">
				<path id="Path_52304" class="st9" d="M25.3,0l4.5,38.3l-8.5,0.1L25.3,0z"/>
				<path id="Path_52305" class="st9" d="M4,0.1l4.5,38.3L0,38.5L4,0.1z"/>
				<path id="Path_52306" class="st9" d="M21.1,13.8L24,38l-5.4,0L21.1,13.8z"/>
				<path id="Path_52307" class="st9" d="M14.7,20.3l4.4,18l-8.5,0.1L14.7,20.3z"/>
				<path id="Path_52308" class="st9" d="M10.4,6.1l2.9,32l-5.4,0L10.4,6.1z"/>
			</g>
			<g id="Group_19130">
				<path id="Path_52309" class="st9" d="M30,0l4.6,48.2l-8.5,0.1L30,0z"/>
				<path id="Path_52310" class="st9" d="M8.8,10l4.5,38.3l-8.5,0.1L8.8,10z"/>
				<path id="Path_52311" class="st9" d="M25.9,23.7l2.9,24.2l-5.4,0L25.9,23.7z"/>
				<path id="Path_52312" class="st9" d="M2.5,23.7l2.9,24.2l-5.4,0L2.5,23.7z"/>
				<path id="Path_52313" class="st9" d="M19.5,30.2l4.4,18l-8.5,0.1L19.5,30.2z"/>
				<path id="Path_52314" class="st9" d="M15.2,16l2.9,32l-5.4,0L15.2,16z"/>
			</g>
		</g>
	</g>
</g>
<g id="Group_19134" transform="translate(-178.403 465.648)">
	<linearGradient id="SVGID_3_" gradientUnits="userSpaceOnUse" x1="539.1935" y1="243.5733" x2="337.1513" y2="-532.4084">
		<stop  offset="6.500000e-02" style="stop-color:#F8E9AC"/>
		<stop  offset="0.351" style="stop-color:#FBCA8D"/>
		<stop  offset="0.72" style="stop-color:#E4B934"/>
		<stop  offset="0.971" style="stop-color:#BE9FCF"/>
	</linearGradient>
	<path class="st10" d="M825.4,100.4H213.9c-0.2,0.8-0.4,1.6-0.6,2.4c-0.2,0-0.3,0.1-0.5,0.1c0.2-0.8,0.4-1.7,0.6-2.5h-35V42.6
		l13.5,4.5l0.5,0.1l2.8,0.9l9.4,3.1v0l13.9,4.6l0.5,0.2l8.4,2.8l0.5,0.2l7.9,2.6c4,1.3,8.1,2.7,12.2,4.1c11.7,4,23.3,8.4,34.3,13.9
		c0.8,0.4,1.7,0.9,2.5,1.3c1,0.5,1.9,1,2.9,1.6c4.5,2.5,9,5.3,14,6.4c2.9,0.7,5.9,0.8,9,0.7c0.2,0,0.3,0,0.5,0
		c1.8-0.1,3.6-0.3,5.4-0.5h0c0.2,0,0.4-0.1,0.6-0.1c0.2,0,0.3,0,0.5-0.1c8.9-1.1,17.7-2.5,26.5-4.1c8.6-1.6,17.1-3.3,25.6-5.2
		c9-2,17.9-4.1,26.9-6.3c2.4-0.6,4.7-1.2,7.1-1.8c3.5-0.9,6.9-1.7,10.4-2.6c6.8-1.7,75.8-15.2,150.4-29.6c0,0,0,0,0,0
		c13.8-2.7,27.8-5.4,41.5-8c0,0,0,0,0,0c2.4-0.5,4.7-0.9,7.1-1.4c1.4-0.3,2.8-0.5,4.2-0.8c0.3,0,0.5-0.1,0.7-0.1
		c2.3-0.5,4.6-0.9,7-1.3c0.3-0.1,0.6-0.1,0.9-0.2c1.4-0.3,2.7-0.5,4-0.8c0,0,0,0,0.1,0c1.4-0.3,2.9-0.5,4.3-0.8
		c0.9-0.2,1.8-0.4,2.7-0.5c0.8-0.2,1.7-0.3,2.5-0.5c0.2,0,0.5-0.1,0.7-0.1c2-0.4,3.9-0.8,5.9-1.1c0.4-0.1,0.8-0.2,1.2-0.2
		c1.9-0.4,3.8-0.7,5.7-1.1c0.6-0.1,1.3-0.3,1.9-0.4c1-0.2,2.1-0.4,3.1-0.6c0.6-0.1,1.2-0.2,1.8-0.3c0.6-0.1,1.2-0.2,1.8-0.3
		c1.5-0.3,3.1-0.6,4.6-0.9c0.7-0.1,1.3-0.3,2-0.4c0.3,0,0.5-0.1,0.8-0.1c1.6-0.3,3.3-0.6,4.8-1h0c1.8-0.3,3.5-0.7,5.2-1
		c3.6-0.7,7-1.4,10.5-2c1.3-0.2,2.5-0.5,3.7-0.7c1.6-0.3,3.2-0.6,4.7-0.9c1.4-0.3,2.8-0.5,4.1-0.8c0.2,0,0.4-0.1,0.6-0.1
		c1.8-0.3,3.5-0.7,5.3-1c0.7-0.1,1.4-0.3,2.1-0.4c2-0.4,4-0.8,5.9-1.1c0,0,0.1,0,0.1,0c1.7-0.3,3.3-0.6,4.9-0.9
		c1-0.2,1.9-0.4,2.8-0.5c1.5-0.3,3-0.6,4.5-0.9c0.3-0.1,0.6-0.1,0.9-0.2c4.9-1,9.4-1.8,13.2-2.5c0.8-0.2,1.6-0.3,2.4-0.5
		C753.6,3,758.7,2,758.7,2l-11.3,18.2l-1,1.6l-4.7,7.6l-0.7,1.2l-0.8,1.3v0l0,0l-1.4,2.3l-3.8,6.1l0,0l47.6,31.7h0l0,0l11.7,7.8
		l30.6,20.3L825.4,100.4z"/>
	<path class="st1" d="M993.6,100.4H820.9l-0.4-0.3l-29.1-20.3L780,71.8h0l-45-31.5l0,0l3.8-6.2l1.4-2.2l0.9-1.4l0.7-1.1v0l4.7-7.6
		l1-1.6L758.7,2c0,0,6.6,2.6,17.7,7c0.7,0.3,1.5,0.6,2.2,0.9c12.1,4.8,28.9,11.5,48,19.3c6,2.4,12.3,5,18.8,7.6
		c6.6,2.7,13.4,5.5,20.2,8.3c3.1,1.3,6.2,2.5,9.3,3.8c17.6,7.3,35.6,14.8,52.7,22.1c6.8,2.9,13.5,5.8,20,8.6
		c17,7.4,32.6,14.4,45.3,20.3C993.2,100.2,993.4,100.3,993.6,100.4z"/>
</g>
<path class="st1" d="M40.2,393.8c0,0-0.1,0-0.1,0c-0.1-0.1-0.1-0.2-0.1-0.3c2.3-3.8,5.1-7.3,8.2-10.5c0.1-0.1,0.2-0.1,0.3,0
	c0.1,0.1,0.1,0.2,0,0.3c-3.1,3.2-5.8,6.6-8.1,10.4C40.3,393.8,40.3,393.8,40.2,393.8z"/>
<path class="st1" d="M39.3,408.6c0,0-0.1,0-0.1,0c-2.3-1.4-3.9-3.8-5.3-5.9c-1.9-2.8-3.8-5.7-5.4-8.7c-0.1-0.1,0-0.2,0.1-0.3
	c0.1-0.1,0.2,0,0.3,0.1c1.6,3,3.5,5.8,5.4,8.6c1.4,2,2.9,4.4,5.1,5.7c0.1,0.1,0.1,0.2,0.1,0.3C39.5,408.6,39.4,408.6,39.3,408.6z"/>
<path class="st1" d="M39.1,440.7c-0.1,0-0.1,0-0.1-0.1c-0.1-0.1-0.1-0.2,0-0.3c3-3.4,5.6-7.3,8.1-11c2.5-3.7,5-7.5,8-10.9
	c0.1-0.1,0.2-0.1,0.3,0c0.1,0.1,0.1,0.2,0,0.3c-3,3.4-5.5,7.2-7.9,10.8c-2.5,3.7-5.1,7.6-8.1,11C39.3,440.7,39.2,440.7,39.1,440.7z"
	/>
<path class="st1" d="M38.9,461c-0.1,0-0.1,0-0.1-0.1c-7.4-6.7-13.1-14.8-17-24c0-0.1,0-0.2,0.1-0.3c0.1,0,0.2,0,0.3,0.1
	c3.9,9.1,9.6,17.1,16.9,23.9c0.1,0.1,0.1,0.2,0,0.3C39,461,38.9,461,38.9,461z"/>
<path class="st1" d="M39.6,492.1c0,0-0.1,0-0.1,0c-0.1-0.1-0.1-0.2,0-0.3c9.1-11.8,18.7-23.5,28.4-34.8c0.1-0.1,0.2-0.1,0.3,0
	c0.1,0.1,0.1,0.2,0,0.3c-9.7,11.3-19.2,23.1-28.3,34.8C39.7,492.1,39.7,492.1,39.6,492.1z"/>
<path class="st1" d="M40.1,514.2c0,0-0.1,0-0.1,0c-10.5-6.8-17.6-17.8-23.9-27.5c-0.1-0.1,0-0.2,0.1-0.3c0.1-0.1,0.2,0,0.3,0.1
	c6.3,9.7,13.4,20.7,23.8,27.4c0.1,0.1,0.1,0.2,0.1,0.3C40.3,514.1,40.2,514.2,40.1,514.2z"/>
<path class="st1" d="M41.1,529c-0.1,0-0.2-0.1-0.2-0.1c0-0.1,0-0.2,0.1-0.3c6.1-2.2,11.9-6.4,17.3-12.4c4.8-5.4,8.6-11.7,12.3-17.7
	c0.1-0.1,0.2-0.1,0.3-0.1c0.1,0.1,0.1,0.2,0.1,0.3c-3.7,6-7.6,12.3-12.4,17.7C53.3,522.6,47.4,526.8,41.1,529
	C41.2,529,41.2,529,41.1,529z"/>
<g id="Group_19171" transform="translate(59.063 132.569)">
	<g id="Group_19166">
		<g id="Group_19136" transform="translate(28.519 198.17)">
			<path id="Path_52324" class="st11" d="M21.3,7c0.3,0.7,0.3,1.5,0.2,2.3c-0.4,1.1-1.2,2-2.2,2.5c-0.5,0.4-1.2,0.7-1.8,0.8
				c-0.8,0-1.6,0-2.4-0.1c-2.9-0.1-5.5,2.4-8.3,1.4c-0.7-0.2-1.2-0.7-1.5-1.4c-0.5-1.1,0.2-2.3,0.8-3.3c1.3-1.9,2.9-3.6,4.7-5
				C14.3,1.7,19.4,1.3,21.3,7z"/>
			<g id="Group_19135">
				<path id="Path_52325" class="st12" d="M13.7,0.7c1.6,0.3,3,1,4.2,2c1.3,1.2,1.9,2.9,1.7,4.6c-0.5,1.8-2.2,3.1-4.1,3
					c-0.7,0-1.4,0-2.1,0.1c-0.8,0.3-1.5,0.7-2.1,1.2c-1.8,1.4-4.2,2-6.5,1.6C2.4,12.6,0.5,10.5,0.1,8C-1-1.1,8.3-0.6,13.7,0.7z"/>
				<path id="Path_52326" class="st13" d="M15.3,6.8c-0.4,0.2-0.7,0.4-1.2,0.5L8.7,9.2C8.1,9.5,7.4,9.6,6.8,9.5
					C6.1,9.2,5.5,8.7,5.2,8C4.7,7.3,4.5,6.5,4.6,5.7c0.2-1.1,1.3-1.5,2.1-2c0.8-0.4,1.5-1,2.3-1.4c1.8-0.8,3.8-0.8,5.7-0.2
					C16.4,2.9,16.7,5.8,15.3,6.8z"/>
			</g>
		</g>
		<g id="Group_19138" transform="translate(150.39 329.63)">
			<path id="Path_52327" class="st11" d="M46.7,13.3c0.5,1.4,0.5,2.9,0.1,4.3c-0.8,2.3-3.1,3.7-5.3,4.8c-1.3,0.8-2.7,1.3-4.1,1.6
				c-1.7,0.3-3.5-0.2-5.3-0.2c-6.3-0.1-12.4,4.8-18.3,2.8c-1.4-0.4-2.5-1.3-3.1-2.6c-0.8-2.2,0.7-4.5,2.3-6.3
				c3.1-3.8,6.9-7.1,11-9.7C32.2,3.3,43.4,2.4,46.7,13.3z"/>
			<g id="Group_19137">
				<path id="Path_52328" class="st12" d="M31,1.3c3.2,0.7,6.5,1.7,9,3.8s4,5.7,3,8.8c-1.2,3.8-5.5,5.8-9.4,5.9
					c-1.6-0.1-3.1,0-4.7,0.2c-1.7,0.5-3.3,1.3-4.8,2.3c-4.3,2.5-9.5,4.1-14.4,3.1S0.3,20.5,0,15.5C-1-2,19.3-1.1,31,1.3z"/>
				<path id="Path_52329" class="st13" d="M33.6,13.1c-0.8,0.5-1.7,0.8-2.6,1l-12.3,3.6c-1.3,0.5-2.7,0.7-4.1,0.4
					c-1.4-0.5-2.6-1.5-3.3-2.8c-1-1.3-1.4-2.9-1-4.5c0.7-2,3-2.9,5-3.8c1.7-0.8,3.4-2,5.2-2.7c3.3-1.3,9.2-1.9,12.6-0.5
					C36.6,5.4,36.8,11,33.6,13.1z"/>
			</g>
		</g>
		<g id="Group_19140" transform="translate(131.608 303.702)">
			<path id="Path_52330" class="st11" d="M19.5,8.9c0.3,0.8,0.4,1.7,0.4,2.6c-0.2,1.1-0.9,2.1-1.9,2.7c-0.5,0.4-1,0.7-1.6,0.8
				c-0.7,0-1.5-0.1-2.2-0.3c-2.6-0.3-4.8,2.4-7.4,1c-0.7-0.4-1.2-1-1.5-1.7c-0.4-1.2-0.2-2.6,0.5-3.6c1-2,2.3-3.8,3.9-5.3
				C12.7,2.5,17.4,2.3,19.5,8.9z"/>
			<g id="Group_19139">
				<path id="Path_52331" class="st12" d="M12.1,1.2c1.5,0.5,2.9,1.4,4,2.6c1.3,1.5,2,3.4,1.9,5.3c-0.1,1.8-1.6,3.2-3.5,3.1
					c0,0,0,0-0.1,0c-0.6-0.1-1.3-0.1-1.9,0c-0.7,0.3-1.3,0.7-1.8,1.2c-1.5,1.5-3.7,2-5.8,1.4c-2.5-1.2-4.3-3.5-4.7-6.3
					C-1.4-1.8,7.1-0.6,12.1,1.2z"/>
				<path id="Path_52332" class="st13" d="M14,8.3c-0.3,0.2-0.6,0.4-1,0.5l-4.9,1.7c-0.5,0.3-1.1,0.3-1.7,0.1
					c-0.7-0.4-1.2-1-1.6-1.8C4.3,8.1,4.1,7.2,4.1,6.2C4.3,5,5.2,4.6,5.9,4.1c0.6-0.5,1.3-1,2-1.4c1.7-0.7,3.6-0.7,5.2,0.1
					C14.7,3.9,15.2,7.2,14,8.3z"/>
			</g>
		</g>
		<g id="Group_19165">
			<g id="Group_19141" transform="translate(0 106.84)" class="st14">
				<path id="Path_52333" class="st15" d="M232.6,184.4L232.6,184.4c0-0.1-0.1-0.2-0.1-0.4c-0.5-2-2-6.1-3.8-10.8v0
					c-0.7-1.9-1.5-3.9-2.3-5.9v0c-1-2.5-2.1-5-3.1-7.4c-1.6-3.7-3.2-7.2-4.6-9.7c-1-1.9-1.9-3.3-2.5-3.9c-0.1,0.3-0.3,0.5-0.5,0.6
					l-2.6-2.7l0,0l-2.8-2.8c0.5-0.2,0.8-0.3,1-0.6v0c0.2-0.2,0.2-0.4,0.1-0.7c-0.1-0.3-0.6-1-1.4-1.9l0,0c-1.2-1.4-3-3.3-5.4-5.6
					c-8.5-8.3-23.4-20.9-36-26.4l-0.1,0.1c-4.4-3-9.4-7.2-12.3-11.1c-1.7-2.4-3-5.8-5-9.6c-2-3.8-4.6-7.9-9-11.7
					c1.9-0.1,3.9-0.2,5.8-0.5c0.2,0,0.4,0,0.5-0.1l2.3,2h0l0,0c2,1.9,7.5,2.7,12.2,1.7c1.7-0.3,3-0.8,4-1.4c1.8-1.1,2.2-2.4,0.9-3.6
					c-0.1-0.1-0.3-0.3-0.5-0.4l-4.5-4.1l-9-8.1l-26-23.2l-24.3-21.7l0,0c-2-1.5-6.6-2.3-10.9-1.8c-0.5,0-1,0.1-1.5,0.2l-0.2,0
					c-5,0.9-7.4,3.1-5.2,5c0.2,0.1,0.3,0.3,0.5,0.4l1.8,1.5c-5.4-1.7-10.4-2.4-14.8-1.9c-0.5,0.1-1,0.1-1.4,0.2
					c-2,0.4-3.8,1.1-5.4,2.1c-1.3,0.8-3.8,1.5-4.2,2.7c-0.4,0.1-0.8,0.1-1.2,0.2l-4.5-3.6c-0.7-1-1.6-1.9-2.6-2.7
					c-0.2-0.2-0.3-0.5-0.5-0.7c0,0,0-0.1,0-0.1c0.2-0.1,0.3-0.2,0.5-0.3c0.4-0.4,0.2-1-0.5-1.4c-0.1-0.5-0.2-1-0.4-1.4
					c-1.2-2.6-2.8-5-4.9-7c-1.3-1-2.8-1.6-4.3-1.8h0c-1-0.2-2.1-0.2-3.1-0.1c-5.2-3.6-8.6,0.9-13.2-1.6c-1.7-1.1-3.5-1.9-5.4-2.5
					C21.9,0.1,21.5,0,21.2,0c-1.4-0.1-2.5,0.3-2.9,1c-0.5,0.8,0.1,1.9,1,3c0.4,0.4,0.8,0.8,1.2,1.2c1,0.9,2.1,1.7,3.3,2.3
					c0.3,0.4,0.5,0.7,0.9,1c2.5,1.9,5.5,2.9,8.6,2.9c1.7,2.1,3.6,4.2,5.6,6c2,2.2,4.2,4.1,6.6,5.7c1.1,0.8,2.4,1.4,3.8,1.8
					c0.6,0.1,1.2,0.1,1.8,0l0,0c0.2,0,0.4-0.1,0.7-0.1c0.7-0.1,1.3-0.3,1.9-0.4L55,26c-1,0.5-1.8,1.3-2.3,2.2
					c-0.2,0.2-0.3,0.4-0.4,0.5c0,0,0,0,0,0c-1.1,1.5-1.6,3.3-1.4,5.2c-1.2,3.4-2,6.8-3,10.3c-1.4-0.7-2.6-1.3-3.6-1.8
					c-1.5-0.9-2.5-1.6-2.5-1.6c-1.2-1.2-6.9-3.8-8.8-4.5c0,0-0.2,0-0.5,0l-3.2-4.9l-1.8-0.1l3.2,4.9c-1.2-0.1-2.3,0-3.5,0.1
					c-0.8,1.1,2.1,3.5,4.3,4c0.6,0.2,1.3,0.2,1.9,0l4.7,7.1c-4.9-0.4-10-0.9-13.3-1.2c-0.3-0.1-0.7-0.3-1.1-0.4
					c-0.2-1.2-2.4-3.2-4-4.3c-0.7-0.5-1.5-0.9-2.4-1.1c-0.3-0.1-0.7-0.1-1-0.1c-0.4,0-0.8,0.1-1.2,0.3c-0.3,0.1-0.6,0.2-0.9,0.4
					L1.7,27.1l-1.7,0l12.7,14.2c-0.4-0.4-0.9-0.8-1.4-1.3c-1-0.9-2.7,1.7-1.8,2.7c1.3,1.7,5.7,4,5.7,4c0,0,0.1,0,0.2,0.1
					c1.1,0.4,2.1,0.8,3.2,1.1L50.8,84l18.8,21.2l1.6-0.1L51.3,82.7L20.7,48.2c0.3,0,0.7,0,1,0c0,0,0.1,0,0.2,0
					c2.2,0.6,11.5,3.1,20.4,5.5l12.8,19.1l29.1,43.5l0.9,1.4l3.8,5.6l1.7,0.1l-4.9-7.4v0l-1.3-2L55.7,71.3L44.4,54.3
					c7.9,2.1,14.9,3.9,15.7,4c0.2,0,0.4,0,0.6,0c3.2,2.3,5.9,4.3,7.7,5.5c0,0,0,0,0,0c0,0,0,0,0,0c0.9,0.6,1.5,1,1.8,1.1
					c2.3,1.1,4.1,1.7,5.6,2c0.5,0.1,1,0.2,1.5,0.2c0.5,0,0.9,0,1.2,0c0.6,0,1.2-0.1,1.7-0.4c1.9-1,3.4-2.5,4.5-4.4
					c1.1,0.8,2.1,1.6,3.1,2.4c0.5,0.4,0.9,0.7,1.4,1.1c2.1,1.6,4.1,3.1,5.8,4.4c0.5,0.4,1.1,0.7,1.7,1c-4,2.9-7,6.8-8.6,10.8l0,0
					c-0.3,0.8-0.6,1.7-0.8,2.5c-0.2,1-0.3,2-0.4,2.9c0,1.3,0.1,2.4,0.5,3.4v0c0.7,1.5,2.2,3,5.5,5.1c0.1,0.1,0.3,0.2,0.6,0.4
					c0.5,0.5,1.1,1,1.7,1.5l12.3,9.2l0,0l0,0h0l16.6,12.4l0.5,0c1,0.9,2,1.8,3,2.6c-0.5-0.2-1-0.4-1.4-0.6c2.5,2,4.1,3.2,5.3,4.1
					c1,0.8,1.7,1.5,2.4,2.4c0,0-0.1,0-0.1,0c-0.1,0-0.2,0-0.3,0c-0.2,0-0.3,0-0.2,0.1c-0.5,0-0.9,0-1.4,0c-0.1,0-0.2,0-0.3,0
					c-0.2,0-0.3,0-0.2,0c-0.5,0-0.9,0-1.4,0c-0.2-0.1-0.3-0.1-0.5-0.1c-0.2,0-0.3,0-0.2,0.1c-1,0-2-0.1-3-0.2
					c-1.2-0.1-2.3-0.2-3.3-0.3h0c-1.4-0.1-2.7-0.3-3.6-0.4c-0.8-0.1-1.6-0.2-2.4-0.1c0,0,0,0,0,0.1c0.1,0.1,0.7,0.4,1.5,0.8l0,0
					c1.4,0.6,3.3,1.3,3.3,1.3s5.2,1.9,8.5,3.1h0c1.2,0.4,2.1,0.8,2.5,0.9l2.3,0.7h0l2,0.6c0.8,0.2,1.5-0.2,2-0.1
					c0.5,0.2,0.9,0.6,1.1,1l10.6,3.2l0-1.1c0-2-0.7-4-1.9-5.7c0-0.1,0-0.2-0.1-0.2c-0.2-0.3-0.5-0.7-0.7-1c-1.8-2.4-3.6-4-5.8-6
					c-0.7-0.7-1.5-1.4-2.3-2.2c-0.4-0.4-0.8-0.8-1.2-1.3c0,0.1,0,0.3,0,0.4c0,0,0,0,0,0c0,0.1,0,0.2-0.1,0.3
					c-0.2-0.2-0.4-0.5-0.7-0.8c-0.9-1-1.8-2-2.7-3.1c0.5-0.2,0.8-0.4,0.6-0.6c-5.3-8.6-12.4-16-20.9-21.5c1.1-2.1,3-3.6,5.3-4.3
					c0.7-0.2,1.5-0.4,2.3-0.7c1.5,1.3,3.1,2.7,4.8,4c1.6,1.2,3.2,2.5,5,3.7c4.7,3.3,9.8,6.5,14.9,9.4c1.2,0.7,2.3,1.3,3.5,2
					c1.7,0.9,3.4,1.8,5,2.7c2.6,1.4,6.1,3.5,9.4,5.5c0.2,0.2,0.5,0.3,0.7,0.5l34.3,23c0,0,15.9,23.3,19.2,27.6
					c0.3,0.4,0.5,0.7,0.6,0.7l-0.6,0.1l-12.2,1.7h0l-4.5,0.6l-0.7,1l-0.8,1.2c0,0,2.1,0.7,4.6,1.6h0c3.9,1.3,8.9,3.1,9.5,3.3l4,1.6
					c0.7,0.3,1.6-0.1,2.1,0.2c0.4,0.2,0.7,0.6,0.9,1l7.5,3l2.2,0.9l0.3,0.1l0.4-1C232.7,185.2,232.7,184.9,232.6,184.4z M17.2,44.4
					l-1.4-1.6l-0.6-0.6l0,0c0.2-0.1,0.4-0.2,0.6-0.2c0.2,0,0.5,0,0.7,0.1c0.5,0.1,0.9,0.6,0.9,1.2c0,0.4,0.1,0.8,0.2,1.2
					C17.6,44.4,17.4,44.4,17.2,44.4z M39.8,47.5l-4.6-7c1.8,1.1,4,2.5,5.6,3.4c1,0.8,3.1,2.3,5.7,4.2C44.5,47.9,42.2,47.7,39.8,47.5
					z M62.8,24.6c0.1,0,0.1,0.1,0.2,0.1c-0.1,0-0.3,0-0.4,0l-0.1-0.1C62.7,24.6,62.7,24.6,62.8,24.6z M209.8,151.6
					c-0.2-0.3-0.4-0.7-0.3-0.9c0.6,0.7,1.2,1.5,1.7,2.3C210.6,152.6,210.2,152.1,209.8,151.6z"/>
			</g>
			<g id="Group_19164" transform="translate(62.378)">
				<g id="Group_19162">
					<g id="Group_19146" transform="translate(0 46.609)">
						<g id="Group_19144">
							<g id="Group_19142" transform="translate(9.236)">
								<path id="Path_52334" class="st16" d="M68.5,2c0,0,18.9,4.2,6.2,26.6c-6,10.6-15,22.5-28.6,30.5c-5.6,3.3-12.4-3-14.3-7.8
									s8.1-15.9,18.6-34.4C57.2,5,66.5,1.5,68.5,2z"/>
								<path id="Path_52335" class="st16" d="M49,51.5c0,0,0.4-9-9.1-8.8c-3.7,0.1-37.8-7.2-37.8-7.2L0,42c0,0,36.4,17.1,38.6,17.2
									C49.3,59.8,49.3,52.2,49,51.5z"/>
								<path id="Path_52336" class="st17" d="M78.9,21.3c-2.4,12-9.9,22.2-17.3,31.9c-0.4,1-1.6,1.5-2.6,1.1
									c-0.3-0.1-0.6-0.4-0.8-0.6L35.1,36.2c5.4-7.4,9.9-14.5,15.2-21.9c2.8-3.8,5.9-9.5,9.8-12C73.3-6,81.1,9.8,78.9,21.3z"/>
							</g>
							<g id="Group_19143" transform="translate(0 27.4)">
								<path id="Path_52337" class="st16" d="M6.9,7.8c-1.4-0.3-0.3-0.5-2-7.5c-0.4-1.6-5,3.2-4.9,5c0,3,3.2,7,3.2,7
									c1.5,1.3,4.3,3,6.5,2.7c2.2,0.1,4.4,0.5,6.5,1.1c0.9,0.2,1.5-0.7,0.9-3.5l-2.6-1.9c-1.5-0.7-2.3-2.1-4.2-3
									C9.6,7.5,7.9,8.1,6.9,7.8z"/>
							</g>
						</g>
						
							<rect x="9.3" y="4.2" transform="matrix(0.9969 -7.830320e-02 7.830320e-02 0.9969 -5.8224 1.0111)" class="st18" width="1.5" height="141.2"/>
						<g id="Group_19145" transform="translate(4.726 27.717)">
							<path id="Path_52338" class="st16" d="M8.8,2.2c-0.3-0.9-1-1.7-1.9-2C6-0.1,4.9,0.1,4,0.6C2.5,1.1,1.3,2,0.3,3.2
								C0,3.6-0.2,4.5,0.4,4.7c0.3,0.1,0.7,0,1-0.2l1.4-0.7C3.3,3.5,4,3.2,4.5,3.6C5.1,4,4.8,5,4.5,5.7C4.1,6.5,3.8,7.3,3.6,8.2
								C3.4,9.1,3.5,10,4,10.8c0.6,0.9,1.9,0.8,2.9,1.1C9.8,12.8,9.8,5.9,8.8,2.2z"/>
						</g>
					</g>
					<path class="st18" d="M117.9,118.2c-13.3-3.7-27.1-7.5-38.8-15.4c-13.2-8.9-21-21.9-21-34.9c0-5.2,3.5-11.8,9.1-17.3
						c6.9-6.7,15.4-10.3,23.4-10.1l0,1.5c-7.6-0.3-15.7,3.3-22.3,9.7c-5.4,5.2-8.7,11.4-8.7,16.2c0,12.5,7.6,25,20.4,33.7
						c11.5,7.8,25.2,11.6,38.4,15.2L117.9,118.2z"/>
					<path id="Path_52340" class="st8" d="M90.3,35.9c-2.9,2.1-8.1,3.7-8.1,7.3c0,1.9,7.9,5.1,8.7,6.8c5.4,11.5,11.9,22.5,19.4,32.8
						c4.2,5.8,8.8,11.5,11.2,18.3c3.2,8.7,2.7,18.6,6.6,27.1c0.6,1.5,1.7,2.8,3,3.7c1.5,0.8,3.4,0.7,5.1,0.5
						c5.2-0.5,10.6-1,15.4-3.3s8.8-6.7,9.2-11.9c0.1-2.3-0.3-4.6-0.9-6.8C153.6,85.3,126.5,10.4,90.3,35.9z"/>
					<g id="Group_19150" transform="translate(95.48 113.997)">
						<path id="Path_52341" class="st19" d="M66.6,159.7L45,117l19.4-2.7l10.8,47.5L66.6,159.7z"/>
						<path id="Path_52342" class="st20" d="M47.2,77.6c17.1,14.6,27.2,58.1,26.3,62.3c-1.1,4.7-16.6,2.9-16.6,2.9l-24.7-42
							c-1.5-2.4-1.9-5.4-1-8.1c1.2-3.6,3.3-5.9,6.6-6.4L47.2,77.6z"/>
						<path id="Path_52343" class="st20" d="M40.1,13.9c7.6,14.6,0.6,33.8,0.8,43.6c0.3,13.8,10.6,29,12.7,28.7
							c-4.7,3.1-6.9,7.1-11.6,10.2c-0.5,0.3,1.4,13.3-3.5,11.4c-3.4-1.3-9.5-12.9-14.1-18C13.5,77.6,1.2,58.3,0.1,42
							C-0.6,32.8,4.7,2.9,18.2,3.2C32,3.6,28.1-9.2,40.1,13.9z"/>
						<g id="Group_19149" transform="translate(36.944 147.789)">
							<g id="Group_19147" transform="translate(0 13.92)">
								<path id="Path_52344" class="st5" d="M38.7,10.6l-0.2,1.7c-0.6,4.2-2.3,8.2-4.8,11.6l0,0l-4,0l-7.5-5.5c0,0,0.4-1.5-0.2-1.9
									c-0.5-0.4-2.1,0.3-2.8-0.3l-4-2.9L0,2.3c0,0,0.9-2,1.7-2.2c1.1,0,2.1,0.2,3.1,0.6c4.8,1.6,18.6,6,23.5,3.3
									C34.3,0.6,38.7,10.6,38.7,10.6z"/>
								<path id="Path_52345" class="st21" d="M1.3,0.3c-0.6,0.6-1,1.3-1.3,2l15,11l4,2.9c0.7,0.5,2.3-0.1,2.8,0.3
									c0.6,0.5,0.2,1.9,0.2,1.9l10.1,7.3l1.5-1.9L1.3,0.3z"/>
							</g>
							<path id="Path_52346" class="st5" d="M32.5,25.6c-5.7-2.2-10.4-4.7-8.9-6.9c2.2-3.2,0.5-9.2-1.8-18.7c1,2.4,5.2,4.9,8.6,5.4
								c2.7,0.4,6.1-0.4,7-2c2.2,6.5,2.5,21,0.7,25.2C37.2,30.7,32.5,25.6,32.5,25.6z"/>
						</g>
					</g>
					<g id="Group_19155" transform="translate(51.189 116.493)">
						<path id="Path_52353" class="st22" d="M38.8,112.6l-13.1,0.3c-2.6-4.6-5.2-15.9-7.8-23.8c5.2-0.2,14.2-1.6,18.2-1.6
							C36.4,96.1,38.8,112.6,38.8,112.6z"/>
						<g id="Group_19153" transform="translate(2.054 103.366)">
							<g id="Group_19151" transform="translate(0 9.864)">
								<path id="Path_52354" class="st5" d="M39.5,6.1l0,1.7c0.1,4.3-1,8.5-3,12.2l0,0l-4,0.6l-8.2-4.3c0,0,0.2-1.5-0.5-1.9
									c-0.6-0.3-2,0.6-2.8,0.1l-4.4-2.3L0,3.7c0,0,0.6-2.1,1.4-2.5c1-0.2,2.1-0.1,3.1,0.1c4.9,0.9,19.3,3.1,23.7-0.3
									C33.7-3.1,39.5,6.1,39.5,6.1z"/>
								<path id="Path_52355" class="st21" d="M1,1.6C0.6,2.2,0.2,2.9,0,3.7l16.5,8.6l4.4,2.3c0.8,0.4,2.2-0.5,2.8-0.1
									c0.7,0.4,0.5,1.9,0.5,1.9l11.1,5.7l1.2-2.1L1,1.6z"/>
							</g>
							<path id="Path_52356" class="st5" d="M33.5,18c-6-1.3-10.1-2.6-10.1-5.2c0-4-1.4-5.2-4-12.1c1.4,2.2,7.4,3.6,10.8,2.7
								c4.4-1.1,5.4-1.7,6.1-3.4c1.3,8.3,3.4,11.2,3.2,19.1C39.5,21.4,33.5,18,33.5,18z"/>
						</g>
						<path id="Path_52363" class="st20" d="M26.7,50.6c14.7,17,11.7,41.5,11.6,45.7c0,2.2-17.7,4.3-17.7,4.3l-17-38.9
							c-1.2-2.6-1.1-5.6,0.2-8.2c1.7-3.4,4.1-5.3,7.5-5.3L26.7,50.6z"/>
						<path id="Path_52364" class="st20" d="M73.1,36.7c-8.8,4.3-21.7,9.2-30.9,12.5s-15,14-20.1,18.7c-4.5-3.3-11.5-0.8-16-4.1
							c-1.4-1.7-2.6-3.5-3.8-5.4c-3.8-6.5-2.7-9.6,0.5-15.7c7.7-14.5,24.8-30.5,39.6-37.3C51,1.6,75-5.1,81.7,6.6
							C87.7,16.8,89.3,28.7,73.1,36.7z"/>
					</g>
					<path id="Path_52367" class="st23" d="M61.8,66.4c-0.2,15.2,12.1,44.4,19,60.7c2.8,6.6,13.7,5,18.4,4.4
						c24.8-3.2,33.8-8.1,33.8-8.1l-18.8-48.9c-7.5-16.6-13.6-21.7-21.5-27.7C81.9,38.6,62,45.5,61.8,66.4z"/>
					<g id="Group_19159" transform="translate(48.064)">
						<g id="Group_19158">
							<path id="Path_52368" class="st24" d="M30.6,34.4l-1-2.8L22,38.5l0.6,3.8c1.7-0.5,3.3-1.3,4.7-2.3
								C29.1,38.5,30.2,36.6,30.6,34.4z"/>
							<g id="Group_19156" transform="translate(9.973 13.081)">
								<path id="Path_52369" class="st25" d="M9.6,27.6c-1.2,0.4-2.5,0.5-3.8,0.1c-6-5-5.8-23-5.8-23L6,0l10.1,3l3.6,11
									c0.9,3,0.3,6.3-1.7,8.8l0,0C15.7,25.1,12.8,26.8,9.6,27.6z"/>
							</g>
							<g id="Group_19157" transform="translate(9.973 13.081)">
								<path id="Path_52370" class="st26" d="M9.6,27.6c-1.2,0.4-2.5,0.5-3.8,0.1c-6-5-5.8-23-5.8-23L6,0l10.1,3l3.6,11
									c0.9,3,0.3,6.3-1.7,8.8l0,0C15.7,25.1,12.8,26.8,9.6,27.6z"/>
							</g>
							<path id="Path_52371" class="st26" d="M34.6,45.9l-4-11.5c-0.4,2.2-1.5,4.1-3.2,5.6c-1.5,1-3.1,1.8-4.8,2.3l1.4,8.4
								L34.6,45.9z"/>
							<path id="Path_52372" class="st18" d="M26.5,22.8c-1-1.7-2-6.1-3.8-5.3c-1.3,0.6-6.1,2.1-7.7,2.6C11.2,21.1,4,21.5,2.4,15.7
								c-0.8-2.9,1.3-6.2,2.9-7.5C6.8,7,8.8,6.5,10.8,6.6c4.6,0.3,11.1,2,13.2,0.9c3.5-1.8,7.9-0.6,8.7,2.6c0.9,3.4,0.5,9-0.2,12.8
								c-0.4,2.2-1.3,4.2-2.4,6.1l0,0L26.5,22.8z"/>
							<path id="Path_52373" class="st18" d="M11.2,4.7C9.9,3,8.9,1,7,0.3C5-0.4,2.8,0.3,1.6,2C0.4,3.6-0.2,5.6,0,7.6
								c0,2.5,1.9,6.3,3.6,8.1c4,4.3,7.9-0.4,12.3-1.8c3.3-1,11.2,0.1,10.5-4.2C24.5-1.6,14.8,9.5,11.2,4.7z"/>
							<path id="Path_52374" class="st18" d="M31.6,35.9c-0.3,2.4-2.7,4.3-4.7,5.8c-2,1.4-4.3,2.4-6.7,3c-1,0.4-2,0.4-3,0.3
								c-1.4-0.4-2.3-1.8-3-3.1c-1.5-2.8-2.5-6-2.9-9.2c1.2,1.4,1.1-0.4,2.9-0.6s5.2,0.9,7.1,1.2c6.3,1.1,5.6-10.8,7.2-10.1
								C30.4,24.2,31.7,34.2,31.6,35.9z"/>
							<path id="Path_52375" class="st26" d="M29.4,22.1c-1.5-0.3-3,0.5-3.6,1.9c-0.8,1.5-0.4,3,0.9,3.4c1.5,0.3,3-0.5,3.6-1.9
								C31,24.1,30.7,22.5,29.4,22.1z"/>
						</g>
						<path id="Path_52376" class="st26" d="M37.8,43.3c0,0-11.6,22.5-17.8,20.8c-1.8-0.5-2.4-2.4-2.5-4.7c-0.1-5.1,2.1-10,6.1-13.3
							l3.8-2.7L37.8,43.3z"/>
					</g>
					<path class="st18" d="M133.8,116.7c-13.3-3.7-27.1-7.5-38.8-15.4c-13.2-8.9-21-21.9-21-34.9c0-10.1,6.1-22.2,17.4-24.8l0.3,1.4
						c-10.6,2.4-16.3,13.8-16.3,23.3c0,12.5,7.7,25,20.4,33.7c11.5,7.8,25.2,11.6,38.4,15.2L133.8,116.7z"/>
					<g id="Group_19161" transform="translate(22.43 50.513)">
						
							<rect x="-78" y="89.8" transform="matrix(6.967579e-02 -0.9976 0.9976 6.967579e-02 -84.8938 89.9622)" class="st18" width="167.5" height="1.5"/>
						<g id="Group_19160" transform="translate(2.836)">
							<path id="Path_52378" class="st26" d="M66.6,2c0,0,20.1,2.2,7.1,24.4C67.6,37,53.7,62.7,40,70.6c-5.7,3.3-9-5-7-11.7
								c1.5-5,4.5-22.1,17.4-40.3C58.4,7.5,64.7,1.4,66.6,2z"/>
							<path id="Path_52379" class="st26" d="M42,68.7c-0.5-6-2.3-11.7-5.1-17C32.1,43,16,24.5,16,24.5l-6.2,4.9
								c0,0,17.8,36.4,19.4,38C36.7,75.1,41.8,69.4,42,68.7z"/>
							
								<linearGradient id="Path_52380_1_" gradientUnits="userSpaceOnUse" x1="438.0222" y1="130.6768" x2="438.3182" y2="131.8728" gradientTransform="matrix(41.6946 0 0 -52.0883 -18181.666 6713.6724)">
								<stop  offset="0" style="stop-color:#D8AA21"/>
								<stop  offset="4.000000e-03" style="stop-color:#ED5632"/>
								<stop  offset="0.995" style="stop-color:#FF7252"/>
								<stop  offset="1" style="stop-color:#FF7252"/>
							</linearGradient>
							<path id="Path_52380" class="st27" d="M78,19.1c-2.5,12-10.2,22.1-17.6,31.8c-0.4,1-1.6,1.5-2.6,1c-0.3-0.1-0.6-0.4-0.8-0.7
								c-7.6-5.9-12.5-7.6-20.1-13.5c3.3-9.1,8-17.7,13.9-25.4c2.9-3.7,5.9-7.5,9.9-9.9C73.9-5.6,80.4,7.7,78,19.1z"/>
							<path id="Path_52381" class="st26" d="M7.8,9.4c-0.6-0.1-2.2,0.9-2.1,1.5c0.1,0.3-0.3,0.7-1.1,0.9c-0.9,0.3-1.5,1-1.7,1.9
								c-0.1,0.4-2.6,2.2-2.7,2.6c-0.6,1.5,0.8,3.6,1.3,4.3c2.6,4,5.7,5.9,9.6,11.6c0.3,0.5,6.3,12.1,8.5,15.9c1.2,2,2.9-3.8,3.1-4
								c1.1-0.9,4.6-5.5,3.9-6.7c-2-3.5-10.9-13.7-11.4-14.8c-0.4-0.9-1.6-5.1-2.7-7.5C11.6,13,9.9,9.7,7.8,9.4z"/>
						</g>
					</g>
				</g>
				<g id="Group_19163" transform="translate(115.297 20.992)">
					<path id="Path_52382" class="st28" d="M10.7,0.8c6.5-1.8,12.4-0.7,13.8,2.4l0,0l31.1,104.3l-24.3,7.3L0.4,11.1
						c-0.1-0.2-0.2-0.4-0.3-0.7C-0.8,7,3.9,2.7,10.7,0.8z"/>
					<path id="Path_52383" class="st8" d="M31.4,114.8c0.9,3.4,7.2,4.7,14,2.9s11.5-6.2,10.5-9.6s-7.2-4.7-14-2.9
						S30.4,111.3,31.4,114.8z"/>
				</g>
			</g>
		</g>
	</g>
</g>
<g id="Group_19197" transform="translate(-47.964 337.332)">
	<g id="Group_19191">
		<g id="Group_19172" transform="translate(14.802 17.665)">
			<path class="st29" d="M58.3,140.9l-1,0.7c-4.5-6-8.7-12.2-12.7-18.5c0,0,0,0,0,0c-1.8-2.9-3.6-5.7-5.3-8.7
				c-0.3-0.5-0.6-0.9-0.8-1.4c-1.8-3.1-3.6-6.3-5.3-9.5v-2.6c1.4,2.7,2.9,5.5,4.4,8.1c0.4,0.7,0.8,1.3,1.2,2
				c1.8,3.2,3.7,6.3,5.6,9.4C48.7,127.5,53.3,134.3,58.3,140.9z"/>
		</g>
		<g id="Group_19190">
			<g id="Group_19176" transform="translate(44.322 95.607)">
				<path class="st29" d="M18.6,5.9c-0.9,1.6-2.1,3-3.6,4c-0.1,0.1-0.2,0.1-0.2,0.2c-1.3,1-7.2,4.9-11.2,6.2V9.4
					c2.4-3,5.3-5.9,6.2-6.6c1.1-1.1,2.4-1.9,3.8-2.5c1-0.4,2.1-0.4,3.1-0.1c0.4,0.1,0.8,0.3,1.2,0.6C19.3,2,19.4,4.2,18.6,5.9z"/>
			</g>
			<g id="Group_19177" transform="translate(36.748 83.569)">
				<path class="st29" d="M14.4,4.6c-0.7,1.3-1.7,2.4-3,3.2c0,0-0.1,0.1-0.2,0.1C11.1,8,11,8.1,10.8,8.2V0.1C11,0.1,11.1,0,11.2,0
					c0.9-0.2,1.8,0,2.6,0.6C14.8,1.7,15,3.3,14.4,4.6z"/>
			</g>
			<g id="Group_19178" transform="translate(36.591 130.065)">
				<path class="st29" d="M17.5,2.1c-0.5,1.1-3.4,2.5-6.1,3.5V0c2.1,0,4.1,0.1,5.3,0.6c0.5,0.2,0.8,0.5,0.9,0.9
					C17.6,1.7,17.6,1.9,17.5,2.1z"/>
			</g>
			<g id="Group_19180" transform="translate(52.301 113.157)">
				<path id="Path_52399" class="st29" d="M4.3,3.5c0.6-1,1.3-2,2.2-2.7c0.9-0.8,2.2-1,3.3-0.6c1.3,0.6,2,2.1,1.8,3.5
					c-0.3,1.4-0.9,2.8-1.8,3.9c-1,1.4-7.2,9-9.3,7.9C-1.5,14.5,3.5,4.9,4.3,3.5z"/>
			</g>
		</g>
	</g>
	<g id="Group_19193" transform="translate(145.449 104.506)">
		<path class="st30" d="M90.2,0c-0.6,32.5-4,65.5-16,95.7c-1,2.6-2.1,5.2-3.3,7.8c-0.8,1.8-1.6,3.5-2.5,5.2
			c-2.6,5.2-5.6,10.3-8.8,15.1c-0.1,0.1-0.1,0.2-0.2,0.3H4.8c0-0.1,0-0.2,0-0.3c0.9-6.4,2.3-12.8,4-19c0.1-0.4,0.2-0.9,0.4-1.3
			c2.9-10.2,7-20,11.9-29.3C37,44,61.9,19.2,90.2,0z"/>
		<g id="Group_19192" transform="translate(0 22.85)">
			<path class="st1" d="M75.6,0.1c-3.3,13.6-7.4,27-12.2,40.2c-0.1,0.2-0.1,0.3-0.2,0.5c-1.5,4-3,8.1-4.6,12c0,0.1-0.1,0.2-0.1,0.3
				c-2.2,5.5-4.5,10.9-7,16.3c0,0,0,0.1,0,0.1c-1.7,3.7-3.4,7.3-5.2,10.9c0,0,0,0.1,0,0.1c0,0.1,0,0.1-0.1,0.2
				c-0.1,0.2-0.2,0.3-0.3,0.5c-1.5,3-3,5.9-4.5,8.9c-2,3.7-4,7.3-6,11c0,0.1-0.1,0.2-0.2,0.3h-0.6c0.1-0.1,0.1-0.2,0.2-0.3
				c1-1.7,1.9-3.4,2.9-5.1c0.1-0.2,0.2-0.3,0.3-0.5c1-1.8,1.9-3.5,2.9-5.3h0c1.7-3.1,3.3-6.3,4.8-9.5c1.9-3.7,3.7-7.5,5.4-11.3
				c0.1-0.1,0.1-0.3,0.2-0.5c2.4-5.3,4.8-10.7,6.9-16.2c0.1-0.2,0.2-0.4,0.2-0.6c6.8-17,12.5-34.5,16.8-52.2c0-0.1,0.2-0.2,0.3-0.2
				C75.5-0.2,75.6-0.1,75.6,0.1z"/>
			<path class="st1" d="M63.3,40.8c-0.1,0-0.1,0-0.2-0.1c-0.1-0.1,0-0.2,0.1-0.3c7.3-5.1,14.1-11,20.2-17.5c0.1-0.1,0.2-0.1,0.3,0
				c0.1,0.1,0.1,0.2,0,0.3c-6.1,6.5-12.9,12.4-20.2,17.5C63.4,40.7,63.3,40.8,63.3,40.8z"/>
			<path class="st1" d="M58.4,53.1c-0.1,0-0.2,0-0.2-0.1c-4.4-9-6.7-19-6.6-28.9c0-0.1,0.1-0.2,0.2-0.2c0,0,0,0,0,0
				c0.1,0,0.2,0.1,0.2,0.2c-0.1,9.9,2.2,19.9,6.6,28.7C58.6,52.9,58.6,53,58.4,53.1C58.4,53.1,58.4,53.1,58.4,53.1z"/>
			<path class="st1" d="M45.6,81.3c-0.1,0-0.2,0-0.2-0.1c-0.1-0.1,0-0.2,0.1-0.3c11.7-5.8,22.2-13.5,31.3-22.9
				c0.1-0.1,0.2-0.1,0.3,0c0.1,0.1,0.1,0.2,0,0.3C68,67.7,57.5,75.4,45.6,81.3C45.7,81.2,45.6,81.3,45.6,81.3z"/>
			<path class="st1" d="M51.2,69.6c-0.1,0-0.1,0-0.2-0.1c-7.5-10.8-12.8-22.7-15.8-35.4c0-0.1,0-0.2,0.2-0.3c0.1,0,0.2,0,0.3,0.2
				c3,12.7,8.4,24.5,15.8,35.2c0.1,0.1,0,0.2-0.1,0.3C51.3,69.6,51.3,69.6,51.2,69.6z"/>
			<path class="st1" d="M61.2,93.4c-4.3,2.9-8.8,5.4-13.5,7.6c-0.2,0.1-0.4,0.2-0.6,0.3H46c0.2-0.1,0.5-0.2,0.7-0.3
				c5-2.3,9.7-4.9,14.3-8c0.1-0.1,0.2,0,0.3,0.1C61.3,93.2,61.3,93.4,61.2,93.4z"/>
			<path class="st1" d="M37.8,96.1c-0.1,0-0.1,0-0.2-0.1c-6.8-11.6-10.8-24.9-11.6-38.3c0-0.1,0.1-0.2,0.2-0.2
				c0.1,0,0.2,0.1,0.2,0.2C27.3,71,31.3,84.2,38,95.8c0.1,0.1,0,0.2-0.1,0.3C37.9,96.1,37.9,96.1,37.8,96.1z"/>
			<path class="st1" d="M14.3,101c0,0.1,0,0.2,0,0.3H14c0-0.1,0-0.2,0-0.3c-0.2-0.9-0.3-1.8-0.5-2.6c-0.6-3.4-1.2-6.6-1.9-9.4
				c0-0.1,0-0.2,0.2-0.3c0.1,0,0.2,0,0.3,0.2c0.7,2.8,1.3,6,1.9,9.4C14,99.2,14.2,100.1,14.3,101z"/>
		</g>
	</g>
	<g id="Group_19194" transform="translate(58.457 24.643)">
		<linearGradient id="SVGID_4_" gradientUnits="userSpaceOnUse" x1="709.8293" y1="-235.2725" x2="974.7783" y2="-368.7806">
			<stop  offset="0" style="stop-color:#0E755D"/>
			<stop  offset="0.183" style="stop-color:#0E755D"/>
			<stop  offset="1" style="stop-color:#29CB97"/>
		</linearGradient>
		<path class="st31" d="M55.3,76.1c-1.9-2.7-4.1-4.7-6.8-6c0,0,0.3-8.8-0.2-20.1C47.3,29.6,43.7,1.2,31.1,0c-0.1,0-0.2,0-0.2,0
			c-0.1,0-0.1,0-0.2,0C10.9-0.9,9.2,55.5,9.2,55.5s-4,3.9-6.7,15.7c-0.6,2.8-1.2,6-1.7,9.8c-0.3,2.6-0.5,5.4-0.7,8.6
			C0,92.8,0,96.4,0,100.4c0.1,4,0.3,8.4,0.7,13.1c0.1,0.9,0.1,1.7,0.2,2.6c0,0,0,0,0,0c0.5,5.8,1.3,12.1,2.3,18.9
			c0.8,5.3,1.8,10.9,3,16.8c1.9,9.6,4.3,20,7.4,31.5c0.8,3,1.6,6,2.5,9.1c0.1,0.3,0.2,0.5,0.2,0.8c1,3.4,2,6.9,3,10.4
			c0,0.1,0,0.2,0.1,0.3h5.1c-0.2,0.8-0.4,1.7-0.6,2.5c0.2,0,0.3-0.1,0.5-0.1c0.2-0.8,0.4-1.6,0.6-2.4h28.1c0-0.1,0-0.2,0.1-0.3
			c1.2-6.4,2.5-13.2,3.7-20.3c0.8-4.5,1.5-9.2,2.2-13.9C64.4,132.7,66.7,92.4,55.3,76.1z"/>
		<path class="st1" d="M33.2,203.7c0,0.1,0,0.2,0,0.3h-0.4c0-0.1,0-0.2,0-0.3c-0.7-6.6-1.3-13.4-1.8-20.3c-0.6-7.8-1-15.8-1.4-23.7
			c-0.1-2.5-0.2-5.1-0.3-7.6c0-0.2,0-0.4,0-0.5c-0.7-17.8-1-35.7-1-52.5c0-0.2,0-0.4,0-0.6c0-19,0.2-36.7,0.6-51.7
			c0-0.2,0-0.3,0-0.5C29.6,18.8,30.6,0.5,30.6,0c0-0.1,0.1-0.2,0.2-0.2c0.1,0,0.2,0.1,0.2,0.2v0c0,0.6-0.7,12.4-1.4,31.1
			c0,0.2,0,0.5,0,0.7c-0.4,12.8-0.8,28.7-1,46.3c0,0.2,0,0.4,0,0.6c-0.1,15.9-0.1,33.3,0.3,51c0,0.2,0,0.3,0,0.5
			c0.2,7.2,0.4,14.4,0.7,21.6c0,0.1,0,0.3,0,0.4c0.1,2.5,0.2,5.1,0.3,7.6c0.4,7.9,0.8,15.8,1.4,23.6C32,190.3,32.5,197.1,33.2,203.7
			z"/>
	</g>
	<g id="Group_19196" transform="translate(4.044 101.883)">
		<path class="st20" d="M85.7,126.8h-6.3c-0.2,0.8-0.4,1.6-0.6,2.4c-0.2,0-0.3,0.1-0.5,0.1c0.2-0.8,0.4-1.7,0.6-2.5h-35V40.5
			c4.9,5.5,9.5,11.3,13.8,17.3c3.1,4.3,6,8.8,8.7,13.4c1.3,2.1,2.5,4.3,3.7,6.5v0c4.8,9,8.7,18.5,11.5,28.4c1,3.4,1.9,6.9,2.6,10.3
			c0.5,2.6,1,6.1,1.5,10C85.7,126.6,85.7,126.7,85.7,126.8z"/>
		<g id="Group_19195" transform="translate(9.517 25.699)">
			<path class="st1" d="M58.4,101.1h-0.5c0-0.1-0.1-0.2-0.1-0.3c-1.6-4.1-3.3-8.2-5.1-12.2c-0.1-0.2-0.1-0.3-0.2-0.5
				c-1.1-2.6-2.3-5.1-3.4-7.6c-2.9-6.3-6-12.5-9.2-18.7c-0.1-0.2-0.2-0.3-0.2-0.5c-1.7-3.3-3.5-6.5-5.3-9.7v-1c2,3.5,4,7.1,5.9,10.8
				c0,0,0,0.1,0.1,0.1c1.9,3.5,3.7,7.1,5.4,10.7c0,0,0,0.1,0,0.1c0.1,0.2,0.2,0.4,0.3,0.7v0c1.2,2.5,2.4,5,3.5,7.4
				c2.9,6.2,5.5,12.5,8,18.8v0c0.1,0.2,0.1,0.3,0.2,0.5c0.2,0.3,0.3,0.7,0.4,1C58.4,100.9,58.4,101,58.4,101.1z"/>
			<path class="st1" d="M45.9,73.3C45.9,73.3,45.9,73.3,45.9,73.3c-0.2,0-0.2-0.1-0.2-0.3c2.6-12.8,2.9-25.8,1-38.8
				c0-0.1,0.1-0.2,0.2-0.3c0.1,0,0.2,0.1,0.2,0.2c2,13,1.6,26.1-1,38.9C46.1,73.2,46,73.3,45.9,73.3z"/>
			<path class="st1" d="M40.4,61.6c0,0.1-0.1,0.2-0.2,0.2h0c-0.1,0-0.1,0-0.2,0c-1.8-0.1-3.7-0.3-5.5-0.5v-0.4
				c1.8,0.2,3.5,0.3,5.3,0.4c0.2,0,0.3,0,0.5,0c0.1,0,0.1,0,0.1,0.1C40.3,61.4,40.3,61.5,40.4,61.6C40.4,61.5,40.4,61.5,40.4,61.6z"
				/>
			<path class="st1" d="M57.8,99.8C57.8,99.8,57.8,99.8,57.8,99.8c-0.2-0.1-0.2-0.2-0.2-0.3c4-10,6.4-20.4,7.2-31.2
				c0-0.1,0.1-0.2,0.2-0.2c0.1,0,0.2,0.1,0.2,0.2C64.5,79.1,62,89.6,58,99.6C58,99.7,57.9,99.8,57.8,99.8z"/>
			<path class="st1" d="M53.1,88.4c0,0.1-0.1,0.2-0.2,0.2h0c0,0-0.1,0-0.2,0c-6.3-0.8-12.4-2.4-18.3-4.5v-0.5
				c5.8,2.2,11.9,3.7,18.1,4.5c0.1,0,0.3,0,0.4,0.1C53.1,88.2,53.1,88.3,53.1,88.4z"/>
			<path class="st1" d="M69.3,103.5c0.2-0.8,0.4-1.6,0.6-2.4c0-0.1,0.1-0.2,0.1-0.3c0.6-2.4,1-4.9,1.4-7.3c0-0.1-0.1-0.2-0.2-0.3
				s-0.2,0.1-0.3,0.2c-0.4,2.5-0.8,4.9-1.4,7.4c0,0.1,0,0.2-0.1,0.3c-0.2,0.8-0.4,1.7-0.6,2.5C69,103.6,69.1,103.5,69.3,103.5z"/>
		</g>
	</g>
</g>
<path class="st32" d="M1920,0v566h-699.3c-26.4-43.9-70.1-89.8-157-56.7c-27.9,10.6-51,12.7-82,8.5c-14.3-2-34.9-23.5-33.4-42.5
	c1.1-14.5,10.4-29.3,20.6-34.4c5.3-2.7,10.9-4.8,16.7-6.4c24.5-6.3,18.6-34.3,9.6-41.7c-32.9-26.9-117.9,8.5-137-75
	c-6.8-29.8-0.9-69.1,14.9-92c15.8-22.9,41.7-36.2,64.6-42.5c22.9-6.3,46.3-8.1,69-15.4c18.2-5.9,37.5-17.9,43.9-41.3
	c4.8-17.5,0.9-37-4.7-54c-7.2-22.4-18-43.4-31.9-62.3c-2-2.7-4.7-6.4-7.1-10.2H1920z"/>
<path class="st32" d="M1220.7,566H0V0h1006.9c2.4,3.9,5.1,7.5,7.1,10.2c13.9,18.9,24.7,40,31.9,62.3c5.6,17,9.4,36.5,4.7,54
	c-6.4,23.4-25.8,35.4-43.9,41.3c-22.7,7.4-46.1,9.2-69,15.4c-0.7,0.2-1.3,0.4-2,0.6c-0.3,0.1-0.6,0.2-1,0.3c-0.5,0.1-1,0.3-1.5,0.5
	c-0.2,0.1-0.4,0.1-0.6,0.2c-0.5,0.1-1,0.3-1.5,0.5c-1.5,0.5-2.9,1-4.4,1.5c-0.7,0.3-1.5,0.5-2.2,0.8c-0.6,0.2-1.3,0.5-1.9,0.7
	c-0.1,0-0.2,0.1-0.3,0.1c-0.7,0.3-1.5,0.6-2.2,0.9c-0.7,0.3-1.3,0.6-2,0.9c-0.1,0-0.1,0.1-0.2,0.1c-0.7,0.3-1.5,0.7-2.2,1
	c-0.7,0.3-1.5,0.7-2.2,1c-0.6,0.3-1.2,0.6-1.7,0.9c-0.1,0.1-0.3,0.1-0.4,0.2c-0.1,0.1-0.3,0.1-0.4,0.2c0,0-0.1,0-0.1,0.1
	c-0.5,0.3-1.1,0.6-1.7,0.9c0,0,0,0,0,0c-0.7,0.4-1.4,0.8-2.1,1.2c0,0,0,0,0,0c-0.7,0.4-1.4,0.8-2.1,1.2c0,0-0.1,0-0.1,0.1
	c-0.7,0.4-1.3,0.8-2,1.2c-0.7,0.4-1.4,0.9-2.1,1.3c-0.6,0.4-1.1,0.8-1.7,1.1c-0.4,0.3-0.8,0.5-1.2,0.8c-0.1,0-0.1,0.1-0.1,0.1
	c0,0-0.1,0.1-0.2,0.1c-0.4,0.3-0.9,0.6-1.3,0.9c-0.5,0.4-1,0.7-1.4,1.1c-0.4,0.3-0.7,0.5-1.1,0.8c0,0-0.1,0.1-0.2,0.1
	c-0.1,0.1-0.1,0.1-0.2,0.2c-0.4,0.3-0.8,0.6-1.2,0.9c0,0,0,0,0,0c-0.5,0.4-0.9,0.8-1.4,1.1c-0.8,0.7-1.6,1.4-2.4,2.1
	c-0.5,0.5-1,0.9-1.6,1.4c-0.6,0.6-1.2,1.1-1.9,1.7c-0.4,0.4-0.8,0.8-1.2,1.2c-0.3,0.2-0.5,0.5-0.7,0.7c-0.5,0.5-1.1,1.1-1.6,1.6
	c0,0-0.1,0-0.1,0.1c-0.6,0.6-1.2,1.3-1.7,1.9c-0.6,0.6-1.1,1.3-1.7,2c-0.5,0.6-1,1.2-1.5,1.8c0,0,0,0,0,0c-0.1,0.1-0.2,0.3-0.3,0.4
	c-0.4,0.6-0.9,1.1-1.3,1.7c-0.1,0.1-0.1,0.2-0.2,0.3c-0.5,0.7-1,1.3-1.4,2c-15.8,22.9-21.7,62.3-14.9,92c0.2,1,0.4,1.9,0.7,2.8
	c0.2,0.6,0.3,1.2,0.5,1.8c0,0,0,0.1,0,0.1c0,0.1,0,0.2,0.1,0.3c0.1,0.5,0.3,0.9,0.4,1.3c0.1,0.3,0.2,0.6,0.3,1
	c0.1,0.3,0.2,0.6,0.3,1c0.2,0.6,0.4,1.2,0.6,1.8c0.2,0.6,0.4,1.2,0.6,1.8c0.2,0.6,0.4,1.2,0.7,1.8c0.2,0.5,0.4,1,0.6,1.5
	c0.2,0.5,0.4,1,0.6,1.5c0.3,0.8,0.7,1.6,1,2.3c0.1,0.3,0.2,0.5,0.4,0.8c0.1,0.3,0.3,0.5,0.4,0.8c0.1,0.2,0.2,0.4,0.3,0.6
	c0,0,0,0.1,0,0.1c0.2,0.4,0.4,0.8,0.6,1.2c0,0.1,0.1,0.1,0.1,0.1c0.3,0.5,0.6,1.1,0.9,1.6c0.3,0.5,0.6,1,0.9,1.5
	c0.3,0.6,0.7,1.2,1,1.7c0.2,0.3,0.3,0.5,0.5,0.8c0.2,0.3,0.3,0.5,0.5,0.8c0.3,0.5,0.7,1,1,1.5c0.3,0.4,0.6,0.8,0.8,1.2
	c0,0,0,0.1,0.1,0.1c0.1,0.2,0.3,0.4,0.4,0.6c0.6,0.8,1.3,1.6,1.9,2.4c0.4,0.4,0.7,0.9,1.1,1.3c0,0,0,0,0,0c0.4,0.4,0.7,0.8,1.1,1.2
	c0,0,0.1,0.1,0.1,0.1c0.4,0.4,0.8,0.8,1.1,1.2c0.7,0.7,1.5,1.4,2.2,2.1c0.1,0.1,0.2,0.2,0.3,0.3c0,0,0.1,0,0.1,0.1
	c0.4,0.3,0.7,0.6,1.1,0.9c0.4,0.3,0.8,0.7,1.3,1c0.8,0.7,1.7,1.3,2.5,1.9c0.5,0.3,0.9,0.6,1.3,0.9c0.1,0.1,0.2,0.2,0.3,0.2
	c0.3,0.2,0.6,0.4,1,0.6c0,0,0.1,0,0.1,0.1c0.4,0.3,0.9,0.6,1.3,0.8c0.5,0.3,0.9,0.6,1.4,0.8c0,0,0,0,0.1,0c0.5,0.3,1,0.6,1.5,0.8
	c0,0,0,0,0.1,0c0.5,0.3,1,0.5,1.5,0.8c0,0,0,0,0.1,0c0.5,0.3,1,0.5,1.5,0.7c0.6,0.3,1.2,0.6,1.9,0.9c0.5,0.2,1,0.5,1.5,0.7
	c1,0.4,1.9,0.8,2.9,1.2c0.3,0.1,0.6,0.2,0.9,0.3c0.8,0.3,1.6,0.6,2.5,0.9c0.4,0.1,0.8,0.3,1.2,0.4c0.4,0.1,0.8,0.3,1.3,0.4
	c0.5,0.1,1,0.3,1.6,0.5c0.1,0,0.2,0.1,0.3,0.1c0.6,0.2,1.3,0.4,1.9,0.5c0.3,0.1,0.5,0.1,0.8,0.2c0.3,0.1,0.5,0.1,0.8,0.2
	c0.5,0.1,1,0.3,1.5,0.4c0.6,0.1,1.2,0.3,1.8,0.4c0.5,0.1,1,0.2,1.5,0.3c0.9,0.2,1.7,0.3,2.6,0.5c0.5,0.1,1,0.2,1.5,0.3
	c0.5,0.1,1,0.2,1.5,0.3c0.3,0.1,0.6,0.1,0.9,0.2c1.2,0.2,2.5,0.4,3.7,0.6c1,0.1,1.9,0.3,2.9,0.4c0.8,0.1,1.7,0.2,2.5,0.3
	c0.8,0.1,1.6,0.2,2.3,0.3c1,0.1,1.9,0.2,2.9,0.3c0.4,0,0.9,0.1,1.3,0.1c0.9,0.1,1.7,0.2,2.6,0.3c2.2,0.2,4.3,0.4,6.4,0.7
	c0.8,0.1,1.7,0.2,2.5,0.3c0.5,0,1,0.1,1.5,0.1c0.1,0,0.2,0,0.2,0c0.3,0,0.6,0.1,0.9,0.1c0.8,0.1,1.6,0.2,2.5,0.3
	c0.8,0.1,1.6,0.2,2.4,0.3c0.4,0.1,0.9,0.1,1.3,0.2c0.4,0,0.8,0.1,1.2,0.2c0.6,0.1,1.2,0.2,1.8,0.3c0.5,0.1,1.1,0.2,1.6,0.2
	c0.1,0,0.1,0,0.2,0c0.6,0.1,1.2,0.2,1.8,0.3c0.6,0.1,1.2,0.2,1.8,0.3c0.4,0.1,0.8,0.1,1.2,0.2c0.7,0.1,1.3,0.3,2,0.4
	c0.5,0.1,1,0.2,1.4,0.3c0.9,0.2,1.9,0.4,2.8,0.7c0.3,0.1,0.6,0.1,0.9,0.2c0.2,0.1,0.5,0.1,0.7,0.2c0.4,0.1,0.7,0.2,1.1,0.3
	c0.5,0.1,0.9,0.3,1.4,0.4c0.6,0.2,1.2,0.4,1.8,0.6c0.6,0.2,1.2,0.4,1.7,0.6c0.2,0.1,0.4,0.2,0.6,0.2c0.2,0.1,0.4,0.2,0.6,0.2
	c0.2,0.1,0.4,0.2,0.7,0.3c0.4,0.2,0.8,0.4,1.3,0.6c0.1,0,0.1,0,0.2,0.1c0.3,0.1,0.5,0.2,0.8,0.4c0.2,0.1,0.5,0.2,0.7,0.3
	c0.3,0.2,0.7,0.4,1,0.5c0.3,0.1,0.5,0.3,0.8,0.4s0.5,0.3,0.7,0.4c0.1,0.1,0.3,0.2,0.4,0.2l0.4,0.2c0.2,0.1,0.3,0.2,0.5,0.3
	c0.3,0.2,0.5,0.3,0.8,0.5c0.1,0.1,0.3,0.2,0.4,0.3c0,0,0,0,0.1,0c0,0,0.1,0,0.1,0.1c0.2,0.1,0.3,0.3,0.5,0.4c0.5,0.3,0.9,0.7,1.3,1
	c9,7.3,14.9,35.4-9.6,41.7c-5.8,1.5-11.4,3.7-16.7,6.4c-10.2,5.1-19.5,20-20.6,34.4c0,0.6-0.1,1.3-0.1,1.9c0,0.3,0,0.7,0,1v0.1
	c0,0.2,0,0.4,0,0.6c0,0.3,0,0.6,0.1,0.9c0,0.2,0,0.4,0.1,0.6c0,0.2,0,0.4,0.1,0.5c0.1,0.7,0.2,1.4,0.4,2.2c0.1,0.3,0.1,0.7,0.2,1
	c0.1,0.3,0.2,0.7,0.3,1c0.1,0.3,0.2,0.6,0.3,0.9c0,0,0,0.1,0,0.1c0.2,0.5,0.3,1.1,0.5,1.6c0,0.1,0.1,0.2,0.1,0.3
	c0.2,0.5,0.4,1,0.6,1.6c0.2,0.6,0.5,1.1,0.8,1.7c0.1,0.3,0.3,0.6,0.4,0.8c0.4,0.8,0.8,1.6,1.2,2.4c0,0,0.1,0.1,0.1,0.1c0,0,0,0,0,0
	v0c0.3,0.5,0.6,1,0.9,1.5c0,0,0,0,0,0c0.3,0.5,0.6,0.9,0.9,1.4c0.3,0.5,0.7,1,1,1.5c0.3,0.5,0.7,0.9,1,1.4c0.4,0.6,0.8,1.1,1.3,1.7
	c0.2,0.2,0.3,0.4,0.5,0.6c0.1,0.1,0.1,0.2,0.2,0.2c0.7,0.9,1.5,1.7,2.3,2.5c0.3,0.3,0.7,0.7,1,1c0.4,0.4,0.8,0.8,1.2,1.1
	c0,0,0,0,0,0c0.4,0.3,0.8,0.7,1.1,1c0.4,0.3,0.7,0.7,1.1,1c1.2,1,2.4,2,3.7,2.8c0.4,0.3,0.7,0.5,1.1,0.7c0.4,0.3,0.8,0.5,1.2,0.8
	c0.4,0.2,0.7,0.4,1.1,0.6c0.4,0.2,0.9,0.5,1.3,0.7c0.1,0,0.1,0.1,0.2,0.1c0.2,0.1,0.4,0.2,0.6,0.3c0.2,0.1,0.4,0.2,0.6,0.3
	c0.4,0.2,0.7,0.3,1.1,0.5c0,0,0,0,0,0c0.6,0.3,1.2,0.5,1.9,0.6c0.3,0.1,0.6,0.2,0.9,0.3s0.6,0.2,0.9,0.2c0.2,0,0.4,0.1,0.6,0.1
	c0.2,0,0.4,0.1,0.6,0.1c0.1,0,0.2,0,0.2,0c1.4,0.2,2.8,0.4,4.2,0.5c1,0.1,2.1,0.2,3.1,0.3c1,0.1,2,0.2,3,0.3c0.3,0,0.6,0.1,1,0.1
	c1,0.1,2,0.2,3,0.3c0.7,0,1.3,0.1,2,0.1h0c0.9,0.1,1.8,0.1,2.7,0.2c0.2,0,0.3,0,0.4,0c0.8,0,1.7,0.1,2.5,0.1c0.3,0,0.7,0,1,0
	c0.5,0,1.1,0,1.6,0c1,0,2,0,2.9,0c1.2,0,2.4,0,3.6,0c0.6,0,1.2,0,1.7,0c1.1,0,2.3-0.1,3.4-0.1c1.9-0.1,3.7-0.3,5.6-0.4
	c0.8-0.1,1.5-0.2,2.3-0.2c0.6-0.1,1.1-0.1,1.6-0.2c0.3,0,0.7-0.1,1-0.1c0.4-0.1,0.8-0.1,1.2-0.2c0.9-0.1,1.8-0.3,2.7-0.4
	c0.5-0.1,1.1-0.2,1.6-0.3c0.4-0.1,0.8-0.1,1.2-0.2c0,0,0.1,0,0.1,0c0.7-0.1,1.4-0.3,2.1-0.4c0.5-0.1,1-0.2,1.5-0.3
	c1.1-0.2,2.2-0.5,3.3-0.7c0.5-0.1,1.1-0.3,1.6-0.4c0.6-0.1,1.1-0.3,1.6-0.4c0.5-0.1,1.1-0.3,1.7-0.4c0.6-0.2,1.1-0.3,1.6-0.5
	c1.1-0.3,2.2-0.7,3.3-1c0.8-0.2,1.6-0.5,2.3-0.7c0.3-0.1,0.7-0.2,1-0.3c0.9-0.3,1.7-0.6,2.6-0.9c1-0.3,1.9-0.7,2.9-1
	c1-0.3,1.9-0.7,2.9-1.1c1.3-0.5,2.6-1,3.9-1.4c1-0.3,1.9-0.7,2.9-1c0.5-0.2,1-0.3,1.4-0.5c0.5-0.2,0.9-0.3,1.4-0.5
	c0.6-0.2,1.3-0.4,1.9-0.6c1.2-0.4,2.5-0.8,3.7-1.1c0.8-0.2,1.5-0.4,2.3-0.7c0.6-0.2,1.3-0.3,1.9-0.5c0.4-0.1,0.9-0.2,1.3-0.3
	c0.6-0.2,1.2-0.3,1.8-0.5c0.6-0.1,1.2-0.3,1.8-0.4c1.2-0.3,2.3-0.5,3.5-0.8c1.2-0.3,2.3-0.5,3.4-0.7c1.1-0.2,2.3-0.4,3.4-0.6
	c2.3-0.4,4.5-0.7,6.6-0.9c1.1-0.1,2.2-0.2,3.2-0.3c0.5,0,1.1-0.1,1.6-0.1c0.4,0,0.8-0.1,1.2-0.1c0.8-0.1,1.6-0.1,2.4-0.1
	c0.7,0,1.3-0.1,2-0.1c0.5,0,0.9,0,1.4,0c0.8,0,1.6,0,2.4,0h0c1.6,0,3.2,0,4.8,0.1c0.6,0,1.2,0.1,1.8,0.1c0.3,0,0.6,0,0.9,0.1
	c0.1,0,0.1,0,0.2,0c0.6,0,1.2,0.1,1.8,0.1c0.8,0.1,1.5,0.1,2.3,0.2c0.7,0.1,1.4,0.2,2.1,0.3c0.2,0,0.3,0,0.5,0.1
	c0.4,0.1,0.8,0.1,1.2,0.2c0.1,0,0.1,0,0.2,0c0.2,0,0.4,0,0.6,0.1c0.2,0,0.4,0.1,0.6,0.1c0,0,0.1,0,0.1,0c0.5,0.1,0.9,0.1,1.3,0.2h0
	c0.7,0.1,1.4,0.3,2.1,0.4c0.1,0,0.2,0,0.3,0.1c0.5,0.1,1.1,0.2,1.6,0.3c0.6,0.1,1.2,0.3,1.8,0.4c0.3,0.1,0.6,0.1,0.8,0.2
	c0.1,0,0.2,0,0.2,0.1c0,0,0.1,0,0.1,0c0.5,0.1,1,0.2,1.4,0.4c0.6,0.2,1.2,0.3,1.8,0.5c0.3,0.1,0.5,0.1,0.8,0.2c0.1,0,0.1,0,0.2,0.1
	c0.4,0.1,0.8,0.2,1.2,0.4c0.5,0.2,1,0.3,1.5,0.5c0.4,0.1,0.7,0.2,1.1,0.4c0,0,0,0,0.1,0c0.1,0,0.3,0.1,0.4,0.1
	c0.1,0,0.2,0.1,0.4,0.1c0.4,0.2,0.9,0.3,1.3,0.5c0.1,0,0.3,0.1,0.4,0.2c0.1,0,0.2,0.1,0.3,0.1c0,0,0,0,0.1,0
	c0.2,0.1,0.3,0.1,0.5,0.2c0.5,0.2,1,0.4,1.4,0.6l1,0.4c0,0,0,0,0.1,0c0,0,0.1,0,0.1,0c0.8,0.3,1.6,0.7,2.4,1c0.1,0,0.1,0.1,0.2,0.1
	c0.2,0.1,0.4,0.2,0.6,0.3c0.6,0.3,1.1,0.5,1.7,0.8c0.1,0,0.1,0,0.2,0.1c0.5,0.2,1,0.5,1.4,0.7c0.2,0.1,0.4,0.2,0.6,0.3
	c0.5,0.2,0.9,0.5,1.4,0.7c0.5,0.3,1,0.6,1.5,0.8c0.3,0.2,0.6,0.3,0.8,0.5c0.4,0.2,0.8,0.4,1.1,0.6c0.5,0.3,1,0.6,1.5,0.9
	c0.2,0.1,0.4,0.2,0.6,0.3c0,0,0,0,0.1,0c0.1,0.1,0.2,0.1,0.4,0.2c0.7,0.4,1.3,0.8,2,1.3c0.4,0.3,0.8,0.5,1.2,0.8
	c0.5,0.3,1,0.7,1.5,1c0.7,0.5,1.3,0.9,1.9,1.4c0.4,0.3,0.8,0.6,1.2,0.9c0.1,0.1,0.2,0.2,0.3,0.2c0.1,0.1,0.3,0.2,0.4,0.3
	c0.5,0.4,1,0.8,1.4,1.1c0.3,0.2,0.6,0.4,0.8,0.7c0.3,0.2,0.5,0.4,0.8,0.7c0.5,0.5,1.1,0.9,1.6,1.4c0.5,0.4,1.1,0.9,1.6,1.4
	c0.5,0.5,1,0.9,1.6,1.4c0.5,0.4,0.9,0.9,1.4,1.3c0.6,0.5,1.1,1.1,1.7,1.6c0.3,0.3,0.5,0.5,0.8,0.8c0.5,0.5,1.1,1.1,1.6,1.6
	c0.3,0.3,0.5,0.5,0.8,0.8c0.4,0.5,0.9,0.9,1.3,1.4c0.3,0.4,0.7,0.7,1,1.1c0.3,0.4,0.6,0.7,1,1.1c0.4,0.5,0.9,1,1.3,1.5
	c0.5,0.6,1,1.2,1.6,1.8c0.5,0.5,0.9,1.1,1.3,1.6c1.1,1.3,2.1,2.6,3.2,4c0.4,0.5,0.8,1,1.2,1.5c1.9,2.5,3.8,5.1,5.5,7.7
	c0.3,0.5,0.7,1,1,1.5c0.7,1.1,1.4,2.1,2.1,3.2c0.3,0.5,0.7,1,1,1.6c0.7,1.1,1.3,2.1,2,3.1c0,0,0,0,0,0
	C1219.4,563.9,1220,565,1220.7,566z"/>
</svg>
