<?xml version="1.0" encoding="utf-8"?>
<!-- Generator: Adobe Illustrator 24.1.2, SVG Export Plug-In . SVG Version: 6.00 Build 0)  -->
<svg version="1.1" id="Слой_1" xmlns="http://www.w3.org/2000/svg" xmlns:xlink="http://www.w3.org/1999/xlink" x="0px" y="0px"
	 viewBox="0 0 1920 805" enable-background="new 0 0 1920 805" xml:space="preserve">
<pattern  y="805" width="997" height="997" patternUnits="userSpaceOnUse" id="pattern" viewBox="0 -997 997 997" overflow="visible">
	<g>
		<rect y="-997" fill="none" width="997" height="997"/>
	</g>
</pattern>
<g id="Mask_Group_45" transform="translate(-1 -76)">
	<g id="Group_20563">
		<g id="Group_15892">
			
				<linearGradient id="SVGID_1_" gradientUnits="userSpaceOnUse" x1="910.2123" y1="528.2461" x2="911.5646" y2="529.2629" gradientTransform="matrix(1919.817 0 0 -885.427 -1748043.125 468743.875)">
				<stop  offset="0" style="stop-color:#6F97BE"/>
				<stop  offset="6.600000e-02" style="stop-color:#709FCB"/>
				<stop  offset="0.159" style="stop-color:#6591BC"/>
				<stop  offset="0.25" style="stop-color:#729CC4"/>
				<stop  offset="0.316" style="stop-color:#74A0C9"/>
				<stop  offset="0.465" style="stop-color:#6084A7"/>
				<stop  offset="0.554" style="stop-color:#5D82A5"/>
				<stop  offset="0.673" style="stop-color:#6990B5"/>
				<stop  offset="0.852" style="stop-color:#CEA478"/>
				<stop  offset="0.887" style="stop-color:#E2A86C"/>
				<stop  offset="1" style="stop-color:#FEC55E"/>
			</linearGradient>
			<path fill="url(#SVGID_1_)" d="M1,76v805h1920V76H1z M987.6,593c-0.6,0-0.6-1,0-1C988.2,592,988.2,593,987.6,593z"/>
			<g id="Graphics" transform="translate(-52.651 85.217)" opacity="0.485">
				<g id="Layer_7" transform="translate(0 281.158)">
					<path fill="#7792AA" d="M53.7-0.5v515.2h1920V-0.5H53.7z M1040.2,226.6c-0.6,0-0.6-1,0-1
						C1040.9,225.6,1040.9,226.6,1040.2,226.6z"/>
					
						<linearGradient id="SVGID_2_" gradientUnits="userSpaceOnUse" x1="962.8062" y1="162.8108" x2="963.8074" y2="162.8108" gradientTransform="matrix(1078.0933 0 0 -516.5081 -1037510.1875 84350.125)">
						<stop  offset="0.506" style="stop-color:#FEC55E"/>
						<stop  offset="0.526" style="stop-color:#E4B165"/>
						<stop  offset="0.564" style="stop-color:#B99071"/>
						<stop  offset="0.605" style="stop-color:#93747C"/>
						<stop  offset="0.649" style="stop-color:#735B85"/>
						<stop  offset="0.696" style="stop-color:#59488D"/>
						<stop  offset="0.748" style="stop-color:#443892"/>
						<stop  offset="0.806" style="stop-color:#362E96"/>
						<stop  offset="0.878" style="stop-color:#2E2799"/>
						<stop  offset="1" style="stop-color:#2C269A"/>
					</linearGradient>
					<path opacity="0.1" fill="url(#SVGID_2_)" enable-background="new    " d="M860.9-0.6C860.9-0.6,860.9-0.5,860.9-0.6
						c5.8,8.5,14.8,15.4,23.8,20.9c6.6,4,13.3,7.7,20.2,10.9h0c5.5,2.6,11,5,16.7,7.2c18.2,7,37.2,11.7,56.6,13.9
						c5.1,0.6,19.9,1.1,37,2.9c18.6,1.9,40,5.3,55,11.8h0c0,0,0,0,0,0l0,0h0c8.1,3.5,14.4,7.9,17.3,13.4c2.7,5,2.7,10.9-1.1,17.9
						c0,0,0,0,0,0l0,0c-0.8,1.4-1.7,2.9-2.8,4.4c-2.3,3.2-5.1,5.7-8.3,7.8c-6.7,4.2-14.9,6.3-23,7.5c-1.7,0.3-3.4,0.5-5.1,0.6
						c-15.2,1.6-30.5,2-45.8,1.7c-9.1-0.2-18.2-0.6-27.3-1.2c-19-1.2-38.1-3-57.1-4.3c-3.3-0.2-6.5-0.5-9.8-0.7
						c-2.1-0.1-4.3-0.3-6.4-0.4c-15.8-0.8-31.5-1.2-47.2-1.1h0c-4.9,0-9.9,0.1-14.8,0.2h0c-7.6,0.2-15.2,0.4-22.8,0.8h0
						c-13.8,0.6-27.7,1.6-41.5,2.8h0c-65,5.6-129.6,17-193.9,29.9h0c-23.1,4.6-46.1,9.4-69.1,14.2c-9.6,2-21,6.4-25.2,14.1v0
						c-1.3,2.3-1.9,4.9-1.6,7.8c0.5,4.9,3.4,8.5,7.3,11.1l0,0c5.2,3.5,12.2,5.4,18.5,6.5c9.4,1.7,18.8,3.3,28.2,5.1
						c11.9,2.2,23.8,4.4,35.7,6.8h0c34.3,6.8,68.4,14.7,101.7,25.3c0.9,0.3,1.8,0.5,2.6,0.8c0,0,0,0,0,0c0.2,0.1,0.3,0.1,0.5,0.2
						c1.9,0.6,4,1.2,6,1.8c2,0.6,4,1.2,6.1,1.8c2.7,0.8,5.5,1.5,8.3,2.3h0c2,0.6,4.1,1.1,6.1,1.7c2.1,0.6,4.3,1.3,6.5,1.9
						c1.8,0.6,3.7,1.1,5.5,1.7h0c2.3,0.8,4.7,1.5,7,2.4c21.6,7.7,41.7,18.8,48.8,38.9c1,2.8,1.6,5.7,1.8,8.6
						c0.4,6.6-1.3,13.3-5.9,17.9c-2.6,2.7-5.9,4.5-9.2,6.3L712,350.1l-49.4,27c-15,8.2-30.1,16.5-42.6,28.2
						c-12.4,11.7-22.1,27.3-23.1,44.3c-1.7,30.3,24.6,55.7,53.9,65h598.7c6.7-4,13.3-8.3,19.7-12.8c7.1-5,14-10.4,20.6-16
						c21.6-18.5,40.2-40.2,58.7-61.8c5.6-6.5,11.2-13.1,16.7-19.7l0,0c11.8-14.2,23.3-28.7,33.6-44.1c2.1-3.1,4.1-6.3,6.1-9.5
						c18.7-30.4,36.2-66.3,42-102.2c0.4-2.6,0.8-5.2,1.1-7.7c0.1-1.1,0.3-2.3,0.4-3.4c0.3-2.8,0.5-5.5,0.8-8.3
						c2.7-29.2,3.9-60.4,13.1-87.9c4.4-13.1,11.8-25,19.8-36.3c25.3-35.6,57.7-66.9,80.8-103.4c0.4-0.7,0.9-1.3,1.3-2c0,0,0,0,0,0
						H860.9z M1040.2,226.6c-0.6,0-0.6-1,0-1C1040.9,225.6,1040.9,226.6,1040.2,226.6z"/>
					<linearGradient id="SVGID_3_" gradientUnits="userSpaceOnUse" x1="53.651" y1="68.805" x2="810.5693" y2="68.805">
						<stop  offset="0" style="stop-color:#2C269A"/>
						<stop  offset="8.400000e-02" style="stop-color:#5251AE"/>
						<stop  offset="0.172" style="stop-color:#7377C0"/>
						<stop  offset="0.268" style="stop-color:#9098CF"/>
						<stop  offset="0.37" style="stop-color:#A8B2DC"/>
						<stop  offset="0.481" style="stop-color:#BAC7E5"/>
						<stop  offset="0.606" style="stop-color:#C7D5EC"/>
						<stop  offset="0.757" style="stop-color:#CEDEF0"/>
						<stop  offset="1" style="stop-color:#D1E1F2"/>
					</linearGradient>
					<path opacity="0.1" fill="url(#SVGID_3_)" enable-background="new    " d="M808.4,63.8c-3.8,2.8-11.2,3.4-17.8,3.7l-69,3.8h0
						l-139,7.8l-100.8,5.6c-7.5,0.4-15,0.8-22.5,1c-28.6,1-57.4,1.1-86.1,1c0,0,0,0,0,0h0c-23.6-0.1-47.2-0.3-70.6-0.1h0
						c-2.8,0-5.7,0-8.5,0.1c-18.1,0.2-36.2,0.6-54,1.5c-4.2,0.2-8.3,0.5-12.5,0.9c-60.7,6-124.1,32.3-173.9,49V-0.5h305.8
						c8.3,0.4,16.6,0.8,24.9,1.2h0c16.3,0.8,32.5,1.7,48.8,2.7c0,0,0,0,0,0c41.5,2.4,83,5.2,124.4,8h0c11.7,0.8,23.4,1.6,35.1,2.3
						c6.1,0.4,12.1,0.8,18.2,1.3c18.5,1.3,36.8,3,54.4,6.1h0c3.8,0.7,7.5,1.4,11.1,2.1c34.7,7.4,64.4,21,101.1,25.3
						c8.4,1,17.3,1.5,24.4,4C809.1,54.9,813.4,60.2,808.4,63.8z"/>
					<linearGradient id="SVGID_4_" gradientUnits="userSpaceOnUse" x1="53.651" y1="292.2534" x2="427.8552" y2="292.2534">
						<stop  offset="0" style="stop-color:#2C269A"/>
						<stop  offset="0.148" style="stop-color:#624F8A"/>
						<stop  offset="0.297" style="stop-color:#91727D"/>
						<stop  offset="0.446" style="stop-color:#B89071"/>
						<stop  offset="0.592" style="stop-color:#D6A769"/>
						<stop  offset="0.735" style="stop-color:#ECB762"/>
						<stop  offset="0.873" style="stop-color:#F9C15F"/>
						<stop  offset="1" style="stop-color:#FEC55E"/>
					</linearGradient>
					<path opacity="0.1" fill="url(#SVGID_4_)" enable-background="new    " d="M426,254.6c-12,25.9-47.1,28.7-75.7,27.8l-119.9-3.9
						c-1,0-2,0-3,0c-14.3,0-31.3,3.4-33.9,17c-2.7,14,13,23.8,25.9,30c2.7,1.3,5.4,2.8,8,4.5c7.8,5.1,14.6,12.1,15.4,19.9
						c0,0.1,0,0.2,0,0.3c0.2,2.2-0.1,4.5-1,6.9c-4.7-0.1-9.3-0.1-14,0h0c-13.3,0.2-26.6,1-39.8,2.6c-23.2,2.7-46.1,7.4-68.6,14.2
						c-22.2,6.7-44,15.4-65.8,24.2V217.9c57-0.9,115.7-27.3,173.9-30.9c12.3-0.8,24.6-0.5,36.8,1.3c13.3,1.9,26.3,5.5,39.1,9.6
						c4.8,1.5,9.6,3.1,14.3,4.7l95.8,31.9c2.2,0.7,4.5,1.6,6.6,2.7c3.7,1.9,6.7,4.5,7.5,8.5C428.3,248.8,427.3,251.9,426,254.6z"/>
					<g id="Group_12971" transform="translate(53.047 331.64)">
						<linearGradient id="SVGID_5_" gradientUnits="userSpaceOnUse" x1="164.3243" y1="49.076" x2="96.4172" y2="150.051">
							<stop  offset="0" style="stop-color:#4076BF"/>
							<stop  offset="0.648" style="stop-color:#305E94"/>
							<stop  offset="1" style="stop-color:#1D4961"/>
						</linearGradient>
						<path fill="url(#SVGID_5_)" d="M295.4,145.8L271.1,183H0.6V-0.1l134.4,28l24.3,5c0,0,0,0,0,0l16.9,3.5l5.7,1.2l8.7,1.8l8,1.7
							l10.4,2.1h0l3.9,0.8l18.3,3.8l59.8,12.5l-10.7,31.4l0,0l-0.1,0.2l3.5,12.3L295.4,145.8z"/>
						<path id="Path_34519" opacity="0.1" fill="#030108" enable-background="new    " d="M280.5,91.7l-87.3,2.3l-69.9-7l61.5-3.8
							L280.5,91.7z"/>
					</g>
					<path fill="#244E7E" d="M1973.7,1.5v513.2h-1247c21.7-26.3,41.6-54.2,64.1-79.8c28.5-32.4,60.8-60.5,95.9-84.7
						c43.9-30.3,92.3-54.4,143.1-73c0,0,0,0,0,0c34.6-12.6,70.2-22.7,106.4-30.4h0c17.1-3.6,34.3-6.7,51.5-9.3
						c8.1-1.2,16.1-2.3,24.2-3.3c4.6-0.6,9.2-1.1,13.8-1.6c8.4-0.9,16.8-1.7,25.1-2.4c32.8-2.6,67.6-4.3,95.9-20.2
						c3.1-1.7,6.1-3.6,9-5.8c24.8-17.8,38.9-46.5,53.4-73.4c8.1-15,16.6-29.8,26.1-44c13.9-20.8,29.7-40.2,48.7-56.4
						c5.2-4.5,10.6-8.6,16.3-12.4c9.6-6.5,19.7-12,30.4-16.5H1973.7z"/>
					
						<linearGradient id="SVGID_6_" gradientUnits="userSpaceOnUse" x1="963.1627" y1="162.8103" x2="964.163" y2="162.8103" gradientTransform="matrix(1862.8239 0 0 -517.9063 -1794092.25 84577.5078)">
						<stop  offset="0" style="stop-color:#2E609B"/>
						<stop  offset="0.119" style="stop-color:#2B66A2"/>
						<stop  offset="0.491" style="stop-color:#3A78B7"/>
						<stop  offset="0.736" style="stop-color:#4071BF"/>
						<stop  offset="1" style="stop-color:#233676"/>
					</linearGradient>
					<path fill="url(#SVGID_6_)" d="M1973.6,1.5v-2h-675.4c-1.6,0.4-3.1,0.8-4.6,1.3c-1.4,0.4-2.7,0.8-4.1,1.2
						c-0.3,0.1-0.6,0.2-0.8,0.2c-1.1,0.3-2.1,0.6-3.1,1c-0.6,0.2-1.2,0.4-1.8,0.6c-2.6,0.8-5.1,1.7-7.6,2.6
						c-0.8,0.3-1.7,0.6-2.5,0.9c-0.4,0.1-0.7,0.3-1.1,0.4c-1,0.3-1.9,0.7-2.9,1.1c0,0-0.1,0-0.1,0c-1.1,0.4-2.2,0.8-3.2,1.2
						c-1.3,0.5-2.5,1-3.8,1.5c-0.6,0.2-1.2,0.5-1.7,0.7c-1.1,0.5-2.3,0.9-3.4,1.4c-1.5,0.6-2.9,1.3-4.4,1.9c-1.5,0.7-2.9,1.3-4.4,2
						c-1.1,0.5-2.2,1-3.2,1.5c-0.3,0.1-0.6,0.3-0.9,0.4c-0.2,0.1-0.4,0.2-0.6,0.3c-0.4,0.2-0.8,0.4-1.2,0.6
						c-0.9,0.4-1.7,0.8-2.6,1.3c-0.1,0-0.2,0.1-0.3,0.2c-0.3,0.1-0.6,0.3-0.8,0.4c-0.9,0.5-1.9,0.9-2.8,1.4
						c-0.3,0.1-0.5,0.2-0.7,0.4c-1.4,0.7-2.7,1.4-4.1,2.2c-1.4,0.8-2.8,1.5-4.2,2.3c-0.4,0.2-0.8,0.5-1.2,0.7
						c-0.7,0.4-1.4,0.8-2.2,1.2c-1.9,1.1-3.7,2.2-5.6,3.3c-0.2,0.1-0.3,0.2-0.5,0.3c-0.6,0.4-1.1,0.7-1.7,1.1
						c-1.4,0.9-2.9,1.8-4.3,2.7c-0.2,0.1-0.4,0.3-0.6,0.4c-1.2,0.8-2.4,1.6-3.7,2.4c-2.1,1.4-4.2,2.8-6.2,4.2c0,0,0,0,0,0
						c-0.7,0.5-1.4,0.9-2,1.4c-0.7,0.5-1.4,1-2,1.4c-0.5,0.4-1.1,0.8-1.6,1.1c-2.2,1.6-4.4,3.3-6.6,4.9c-0.5,0.4-1,0.8-1.5,1.2
						c-1,0.8-2,1.6-3,2.4c0,0,0,0,0,0c-0.1,0-0.1,0.1-0.2,0.2c-0.9,0.7-1.7,1.4-2.6,2.1c-0.6,0.5-1.3,1-1.9,1.5
						c-1.2,1-2.4,1.9-3.5,2.9c-1.3,1.1-2.6,2.2-3.8,3.3c-1.2,1-2.4,2.1-3.6,3.1l-1.3,1.2c-7.3,6.5-14.2,13.1-20.8,19.9
						c-1.1,1.1-2.1,2.2-3.2,3.3c-1.1,1.1-2.1,2.2-3.2,3.4c-1.1,1.1-2.1,2.2-3.1,3.4c-1,1.1-2.1,2.3-3.1,3.4c-0.9,1-1.9,2.1-2.8,3.1
						c-1.3,1.5-2.6,3-3.9,4.5c-0.6,0.7-1.2,1.4-1.8,2.1v0c-1.2,1.3-2.3,2.7-3.5,4c-1.7,2-3.4,4-5.1,6c-1.2,1.5-2.4,2.9-3.6,4.4
						c-2.1,2.5-4.1,5.1-6.2,7.6c-0.1,0.2-0.3,0.3-0.4,0.5h0v0c0,0,0,0,0,0c-0.4,0.4-0.7,0.9-1.1,1.3c-0.2,0.2-0.4,0.5-0.6,0.7
						c-1.2,1.5-2.4,3-3.7,4.5c-0.6,0.7-1.2,1.5-1.8,2.2c-0.6,0.7-1.3,1.5-1.9,2.2c-0.6,0.7-1.3,1.5-1.9,2.2
						c-0.6,0.7-1.3,1.5-1.9,2.2c-0.6,0.7-1.3,1.5-1.9,2.2c-0.6,0.7-1.3,1.5-1.9,2.2c-1.3,1.5-2.6,2.9-3.9,4.4
						c-0.7,0.7-1.3,1.5-2,2.2c-0.7,0.7-1.3,1.4-2,2.1l-0.1,0.1c-0.7,0.7-1.4,1.4-2.1,2.1c-2.1,2.1-4.2,4.2-6.5,6.3
						c-0.4,0.3-0.7,0.7-1.1,1c-0.8,0.8-1.7,1.5-2.6,2.3c-1.3,1.2-2.7,2.4-4.1,3.5c-0.4,0.3-0.8,0.7-1.2,1c-0.4,0.4-0.9,0.7-1.4,1.1
						c-0.9,0.7-1.8,1.5-2.8,2.2c-0.5,0.4-0.9,0.7-1.4,1.1c-0.5,0.4-1,0.7-1.4,1.1c-0.7,0.5-1.5,1.1-2.2,1.6
						c-0.5,0.4-1.1,0.8-1.6,1.1c-0.2,0.2-0.5,0.3-0.7,0.5c0,0,0,0,0,0c-0.4,0.3-0.8,0.6-1.3,0.9c-0.5,0.3-1.1,0.7-1.6,1
						c-0.8,0.5-1.7,1.1-2.6,1.6c-0.9,0.5-1.7,1.1-2.6,1.6l0,0h0c-0.4,0.2-0.7,0.4-1.1,0.6c-0.3,0.1-0.5,0.3-0.8,0.4
						c-0.3,0.2-0.5,0.3-0.8,0.5c-0.7,0.4-1.3,0.7-2,1.1c-0.3,0.1-0.6,0.3-0.9,0.5c-0.2,0.1-0.4,0.2-0.6,0.3c-0.1,0-0.2,0.1-0.3,0.1
						c-0.5,0.3-0.9,0.5-1.4,0.8c-0.1,0-0.1,0.1-0.2,0.1c-0.3,0.1-0.5,0.3-0.8,0.4c-0.3,0.1-0.5,0.3-0.8,0.4c0,0-0.1,0-0.2,0.1
						c-1.1,0.5-2.1,1.1-3.2,1.6c-1,0.5-1.9,0.9-2.9,1.3c-0.1,0-0.2,0.1-0.3,0.2c-0.1,0.1-0.3,0.1-0.4,0.2c-0.9,0.4-1.9,0.8-2.8,1.2
						c-0.8,0.3-1.6,0.7-2.4,1c-0.3,0.1-0.6,0.2-0.9,0.3c-0.2,0.1-0.4,0.2-0.6,0.3c-0.2,0.1-0.4,0.1-0.6,0.2
						c-0.4,0.2-0.8,0.3-1.2,0.5l-0.9,0.4c-0.5,0.2-1,0.4-1.5,0.5c-0.5,0.2-1,0.4-1.5,0.5c-0.2,0.1-0.5,0.2-0.7,0.3
						c-1,0.4-2,0.7-3.1,1.1c-0.1,0-0.1,0-0.2,0c-0.2,0.1-0.3,0.1-0.5,0.2c-0.9,0.3-1.9,0.6-2.8,0.9c-1.1,0.4-2.3,0.7-3.5,1.1
						c-0.8,0.2-1.5,0.5-2.3,0.7c-2.4,0.7-4.7,1.3-7.1,1.9c-1.5,0.4-3.1,0.8-4.6,1.1c-0.1,0-0.1,0-0.2,0.1c-1.5,0.3-3,0.7-4.5,1
						c0,0,0,0,0,0c-4.3,0.9-8.6,1.7-12.9,2.5c-0.8,0.1-1.5,0.3-2.3,0.4c-1.8,0.3-3.7,0.6-5.5,0.9c-1.5,0.2-3.1,0.5-4.6,0.7
						c-2,0.3-3.9,0.5-5.9,0.8c-1.4,0.2-2.8,0.3-4.2,0.5c-0.3,0-0.6,0.1-0.9,0.1c-1.5,0.2-2.9,0.3-4.4,0.5c-1.6,0.2-3.1,0.3-4.7,0.5
						h0c-0.2,0-0.4,0-0.6,0.1c-1.7,0.2-3.5,0.3-5.2,0.5c-5,0.5-10.1,0.8-15.1,1.2c0,0,0,0,0,0c-6,0.4-12,0.8-18,1.1
						c-2,0.1-4,0.2-6,0.3c-3.6,0.2-7.3,0.4-10.9,0.6c-4.4,0.2-8.7,0.5-13,0.7c-2.6,0.1-5.1,0.3-7.7,0.4c-2.1,0.1-4.2,0.2-6.3,0.4
						c-2.9,0.2-5.8,0.3-8.8,0.5c-2.1,0.1-4.1,0.3-6.2,0.4c-1.7,0.1-3.5,0.2-5.2,0.3c-3.3,0.2-6.5,0.4-9.8,0.7
						c-2.2,0.2-4.5,0.3-6.7,0.5c-1.5,0.1-3.1,0.2-4.6,0.4c-2,0.2-4.1,0.3-6.1,0.5c-1.3,0.1-2.6,0.2-3.9,0.3
						c-1.8,0.1-3.5,0.3-5.3,0.4c-5.4,0.5-10.8,0.9-16.1,1.5c-2.4,0.2-4.8,0.5-7.2,0.7c-5,0.5-9.9,1-14.9,1.5
						c-2.3,0.2-4.5,0.5-6.8,0.7c-2.3,0.3-4.7,0.5-7.1,0.8c-4.1,0.5-8.1,0.9-12.2,1.4c-2,0.2-4.1,0.5-6.1,0.7c-2,0.2-4.1,0.5-6.1,0.8
						c-8.3,1-16.6,2.1-24.8,3.3h0c-2.3,0.3-4.7,0.7-7,1c-1.6,0.2-3.1,0.4-4.7,0.7c-2,0.3-4,0.6-6.1,0.9c-1.5,0.2-3,0.4-4.5,0.7
						c-4.5,0.7-9.1,1.4-13.6,2.1c-2,0.3-4,0.6-6,1c-8.5,1.4-16.9,2.8-25.3,4.3c-3.1,0.5-6.2,1.1-9.3,1.6c0,0-0.1,0-0.1,0
						c-3.5,0.6-7.1,1.3-10.6,2c-3.4,0.6-6.8,1.3-10.2,1.9c-0.3,0.1-0.7,0.1-1,0.2c-2.9,0.6-5.9,1.1-8.8,1.7c-1,0.2-2,0.4-3,0.6
						c-2.4,0.5-4.8,1-7.2,1.5c-3.3,0.7-6.5,1.4-9.8,2.1c-1.2,0.3-2.4,0.5-3.6,0.8c-0.2,0-0.4,0.1-0.6,0.1c-2.8,0.6-5.6,1.2-8.4,1.8
						c-3.5,0.8-6.9,1.5-10.4,2.3c-3.5,0.8-6.9,1.6-10.3,2.4c0,0-0.1,0-0.1,0c-3.4,0.8-6.8,1.6-10.2,2.5c-3.4,0.8-6.8,1.7-10.2,2.5
						c-10.2,2.6-20.4,5.2-30.5,8c-3.3,0.9-6.5,1.8-9.8,2.7c-0.8,0.2-1.5,0.4-2.3,0.6c-2.6,0.7-5.2,1.5-7.7,2.2l-0.5,0.1
						c-2.9,0.8-5.7,1.7-8.6,2.5c-0.3,0.1-0.7,0.2-1,0.3c0,0-0.1,0-0.1,0c-6.4,1.9-12.8,3.9-19.2,5.9c-2.5,0.8-5,1.6-7.5,2.4
						c0,0-0.1,0-0.1,0c-1.3,0.4-2.6,0.8-3.8,1.2c-2.1,0.7-4.1,1.3-6.2,2c-0.9,0.3-1.9,0.6-2.8,0.9c-2.1,0.7-4.2,1.4-6.3,2.1
						c-0.9,0.3-1.8,0.6-2.7,0.9c-0.2,0.1-0.5,0.2-0.7,0.3c-2.4,0.8-4.8,1.7-7.2,2.5c-2.7,1-5.5,1.9-8.2,2.9
						c-1.6,0.6-3.3,1.2-4.9,1.8c-2.3,0.8-4.6,1.7-7,2.6c-2.3,0.9-4.7,1.7-7,2.6c-0.8,0.3-1.6,0.6-2.4,0.9c-2.3,0.9-4.7,1.8-7,2.7
						c-0.4,0.2-0.8,0.3-1.2,0.5c-2.1,0.8-4.2,1.7-6.3,2.5c-0.4,0.2-0.8,0.3-1.1,0.5c-0.9,0.4-1.8,0.7-2.7,1.1
						c-2.1,0.8-4.2,1.7-6.3,2.6c-0.5,0.2-0.9,0.4-1.3,0.5c-2.5,1-4.9,2.1-7.4,3.1c-2.8,1.2-5.7,2.4-8.5,3.6c-1,0.4-1.9,0.8-2.9,1.2
						c-2.3,1-4.5,2-6.7,3c-0.3,0.2-0.7,0.3-1.1,0.5c-2.6,1.2-5.3,2.4-7.9,3.6c0,0-0.1,0-0.1,0c-0.8,0.4-1.6,0.7-2.4,1.1
						c-2.8,1.3-5.6,2.6-8.4,3.9c-1.6,0.8-3.3,1.5-4.9,2.3c0,0-0.1,0-0.1,0c-1.6,0.8-3.1,1.5-4.7,2.3c-5.3,2.6-10.5,5.2-15.7,7.8
						c-0.9,0.4-1.8,0.9-2.6,1.3c-1.7,0.9-3.4,1.7-5,2.6c-2.1,1.1-4.1,2.2-6.2,3.3h0c-1.4,0.8-2.8,1.5-4.2,2.3
						c-1.6,0.8-3.1,1.7-4.7,2.6c-1.2,0.7-2.4,1.3-3.6,2c-0.5,0.3-1,0.6-1.5,0.8c-4.5,2.5-8.9,5.1-13.4,7.7
						c-4.6,2.7-9.1,5.4-13.5,8.1c-3,1.8-5.9,3.7-8.8,5.5c-4.3,2.7-8.6,5.5-12.8,8.3c-2.8,1.9-5.6,3.8-8.4,5.7c-1,0.7-2,1.4-3,2.1
						c-1.5,1.1-3.1,2.1-4.6,3.2c-1.8,1.2-3.5,2.5-5.3,3.8c-2.8,2-5.5,4-8.2,6c-0.4,0.3-0.9,0.6-1.3,1c-1,0.8-1.9,1.5-2.8,2.3
						c0,0,0,0-0.1,0c-17.1,14.2-22.6,29.1-29.8,43.9c-5.6,11.6-12.2,23.3-26,34.6h699.3c203.9-8.3,21.8-48.4,63.8-63.3
						c80.4-28.6,170.6-42.7,256.9-62.6c89-20.5,175.9-47.9,245.4-89.7c25.7-15.5,48.8-32.7,71.3-50.4c4.7-3.7,9.4-7.4,14.1-11.2
						c3.6-2.9,7.3-5.8,10.9-8.7c0.3-0.2,0.6-0.5,0.9-0.7c1.7-1.4,3.4-2.7,5.1-4.1c37.8-30,76.3-59.3,125.3-81
						c21.6-9.5,44.3-17.2,67.8-23.7c3.4-0.9,6.9-1.8,10.3-2.7h0c0.3-0.1,0.6-0.1,0.9-0.2c5.5-1.4,11.1-2.7,16.7-4
						c17.7-4,35.9-7.4,54.3-10.5c16.5-2.7,33.2-5.1,50-7.4c2.7-0.3,5.4-0.7,8-1c4.4-0.6,8.9-1.2,13.3-1.7
						c26.3-3.3,52.7-6.3,79.1-9.7h0c10.2-1.3,20.3-2.6,30.4-4c5.6-0.8,11.1-1.6,16.7-2.4c7.6-1.1,15.3-2.3,22.8-3.6V52.6L1973.6,1.5
						z M1040.2,225.6c0.6,0,0.6,1,0,1C1039.6,226.6,1039.6,225.6,1040.2,225.6z"/>
					
						<linearGradient id="SVGID_7_" gradientUnits="userSpaceOnUse" x1="963.0191" y1="162.8108" x2="964.0192" y2="162.8108" gradientTransform="matrix(1439.5248 0 0 -516.505 -1386220 84349.6328)">
						<stop  offset="0" style="stop-color:#4D6882"/>
						<stop  offset="0.264" style="stop-color:#26609A"/>
						<stop  offset="0.509" style="stop-color:#2B61A1"/>
						<stop  offset="0.881" style="stop-color:#4D6882"/>
						<stop  offset="1" style="stop-color:#8A939F"/>
					</linearGradient>
					<path fill="url(#SVGID_7_)" d="M1298.2-0.5c-1.6,0.4-3.1,0.8-4.6,1.3c-1.4,0.4-2.7,0.8-4.1,1.2c-0.3,0.1-0.6,0.2-0.8,0.2
						c-1.1,0.3-2.1,0.6-3.1,1c-0.6,0.2-1.2,0.4-1.8,0.6c-2.6,0.8-5.1,1.7-7.6,2.6c-0.8,0.3-1.7,0.6-2.5,0.9
						c-0.4,0.1-0.7,0.3-1.1,0.4c-1,0.3-1.9,0.7-2.9,1.1c0,0-0.1,0-0.1,0c-1.1,0.4-2.2,0.8-3.2,1.2c-1.3,0.5-2.5,1-3.8,1.5
						c-0.6,0.2-1.2,0.5-1.7,0.7c-1.1,0.5-2.3,0.9-3.4,1.4c-1.5,0.6-2.9,1.3-4.4,1.9c-1.5,0.7-2.9,1.3-4.4,2c-1.1,0.5-2.2,1-3.2,1.5
						c-0.3,0.1-0.6,0.3-0.9,0.4c-0.2,0.1-0.4,0.2-0.6,0.3c-0.4,0.2-0.8,0.4-1.2,0.6c-0.9,0.4-1.7,0.8-2.6,1.3
						c-0.1,0-0.2,0.1-0.3,0.2c-0.3,0.1-0.6,0.3-0.8,0.4c-0.9,0.5-1.9,0.9-2.8,1.4c-0.3,0.1-0.5,0.2-0.7,0.4
						c-1.4,0.7-2.7,1.4-4.1,2.2c-1.4,0.8-2.8,1.5-4.2,2.3c-0.4,0.2-0.8,0.5-1.2,0.7c-0.7,0.4-1.4,0.8-2.2,1.2
						c-1.9,1.1-3.7,2.2-5.6,3.3c-0.2,0.1-0.3,0.2-0.5,0.3c-0.6,0.4-1.1,0.7-1.7,1.1c-1.4,0.9-2.9,1.8-4.3,2.7
						c-0.2,0.1-0.4,0.3-0.6,0.4c-1.2,0.8-2.4,1.6-3.7,2.4c-2.1,1.4-4.2,2.8-6.2,4.2c0,0,0,0,0,0c-0.7,0.5-1.4,0.9-2,1.4
						c-0.7,0.5-1.4,1-2,1.4c-0.5,0.4-1.1,0.8-1.6,1.1c-2.2,1.6-4.4,3.3-6.6,4.9c-0.5,0.4-1,0.8-1.5,1.2c-1,0.8-2,1.6-3,2.4
						c0,0,0,0,0,0c-0.1,0-0.1,0.1-0.2,0.2c-0.9,0.7-1.7,1.4-2.6,2.1c-0.6,0.5-1.3,1-1.9,1.5c-1.2,1-2.4,1.9-3.5,2.9
						c-1.3,1.1-2.6,2.2-3.8,3.3c-1.2,1-2.4,2.1-3.6,3.1l-1.3,1.2c-7.3,6.5-14.2,13.1-20.8,19.9c-1.1,1.1-2.1,2.2-3.2,3.3
						c-1.1,1.1-2.1,2.2-3.2,3.4c-1.1,1.1-2.1,2.2-3.1,3.4c-1,1.1-2.1,2.3-3.1,3.4c-0.9,1-1.9,2.1-2.8,3.1c-1.3,1.5-2.6,3-3.9,4.5
						c-0.6,0.7-1.2,1.4-1.8,2.1v0c-1.2,1.3-2.3,2.7-3.5,4c-1.7,2-3.4,4-5.1,6c-1.2,1.5-2.4,2.9-3.6,4.4c-2.1,2.5-4.1,5.1-6.2,7.6
						c-0.1,0.2-0.3,0.3-0.4,0.5v0h0v0c0,0,0,0,0,0c-0.4,0.4-0.7,0.9-1.1,1.3c-0.2,0.3-0.4,0.5-0.6,0.8c-1.2,1.5-2.4,3-3.7,4.5
						c-0.6,0.7-1.2,1.5-1.8,2.2c-0.6,0.7-1.3,1.5-1.9,2.2c-0.6,0.7-1.3,1.5-1.9,2.2c-0.6,0.7-1.3,1.5-1.9,2.2
						c-0.6,0.7-1.3,1.5-1.9,2.2c-0.6,0.7-1.3,1.5-1.9,2.2c-1.3,1.5-2.6,2.9-3.9,4.4c-0.7,0.7-1.3,1.5-2,2.2c-0.7,0.7-1.3,1.4-2,2.1
						l-0.1,0.1c-0.7,0.7-1.4,1.4-2.1,2.1c-2.1,2.1-4.2,4.2-6.5,6.3c-0.4,0.3-0.7,0.7-1.1,1c-0.8,0.8-1.7,1.5-2.6,2.3
						c-1.3,1.2-2.7,2.4-4.1,3.5c-0.4,0.3-0.8,0.7-1.2,1c-0.4,0.4-0.9,0.7-1.4,1.1c-1.4,1.1-2.8,2.2-4.2,3.2c-0.5,0.4-1,0.7-1.4,1.1
						c-0.7,0.5-1.5,1.1-2.2,1.6c-0.5,0.4-1.1,0.8-1.6,1.1c-0.2,0.1-0.4,0.3-0.6,0.4c0,0,0,0,0,0c-0.5,0.3-0.9,0.6-1.4,0.9
						c-0.5,0.3-1.1,0.7-1.6,1c-1.7,1.1-3.4,2.2-5.2,3.2h0c-0.4,0.2-0.7,0.4-1.1,0.7c-0.3,0.1-0.5,0.3-0.8,0.4
						c-0.9,0.5-1.8,1-2.7,1.5c-0.3,0.1-0.6,0.3-0.9,0.5c-0.3,0.2-0.6,0.3-0.9,0.5c-0.5,0.3-0.9,0.5-1.4,0.8c-0.1,0-0.1,0.1-0.2,0.1
						c-0.3,0.1-0.5,0.3-0.8,0.4c-0.3,0.1-0.5,0.3-0.8,0.4c0,0-0.1,0-0.2,0.1c-1.1,0.5-2.1,1.1-3.2,1.6c-1,0.4-1.9,0.9-2.9,1.3
						c-0.1,0-0.2,0.1-0.3,0.1c-1.9,0.8-3.8,1.6-5.7,2.4c-0.3,0.1-0.6,0.2-0.9,0.3c-0.4,0.2-0.8,0.3-1.2,0.5
						c-0.4,0.2-0.8,0.3-1.2,0.5c-0.8,0.3-1.6,0.6-2.4,0.9c-0.5,0.2-1,0.4-1.5,0.5c-0.2,0.1-0.5,0.2-0.7,0.3
						c-1.1,0.4-2.2,0.8-3.3,1.1c-0.2,0.1-0.3,0.1-0.5,0.2c-0.9,0.3-1.9,0.6-2.8,0.9c-1.1,0.4-2.3,0.7-3.5,1.1
						c-0.8,0.2-1.5,0.5-2.3,0.7c-2.4,0.7-4.7,1.3-7.1,1.9c-1.5,0.4-3.1,0.8-4.6,1.1c-0.1,0-0.1,0-0.2,0.1c-1.5,0.3-3,0.7-4.5,1
						c0,0,0,0,0,0c-4.3,0.9-8.6,1.7-12.9,2.5c-0.8,0.1-1.5,0.3-2.3,0.4c-1.8,0.3-3.7,0.6-5.5,0.9c-1.5,0.2-3.1,0.5-4.6,0.7
						c-2,0.3-3.9,0.5-5.9,0.8c-1.4,0.2-2.8,0.3-4.2,0.5c-0.3,0-0.6,0.1-0.9,0.1c-1.5,0.2-2.9,0.3-4.4,0.5c-1.6,0.2-3.1,0.3-4.7,0.5
						h0c-0.2,0-0.4,0-0.6,0.1c-1.7,0.2-3.5,0.3-5.2,0.5c-5,0.5-10.1,0.8-15.1,1.2c0,0,0,0,0,0c-6,0.4-12,0.8-18,1.1
						c-2,0.1-4,0.2-6,0.3c-3.6,0.2-7.3,0.4-10.9,0.6c-4.4,0.2-8.7,0.5-13,0.7c-2.6,0.1-5.1,0.3-7.7,0.4c-2.1,0.1-4.2,0.2-6.3,0.4
						c-2.9,0.2-5.8,0.3-8.8,0.5c-2.1,0.1-4.1,0.3-6.2,0.4c-1.7,0.1-3.5,0.2-5.2,0.3c-3.3,0.2-6.5,0.4-9.8,0.7
						c-2.2,0.2-4.5,0.3-6.7,0.5c-1.5,0.1-3.1,0.2-4.6,0.4c-2,0.2-4.1,0.3-6.1,0.5c-1.3,0.1-2.6,0.2-3.9,0.3
						c-1.8,0.1-3.5,0.3-5.3,0.4c-5.4,0.5-10.8,0.9-16.1,1.5c-2.4,0.2-4.8,0.5-7.2,0.7c-5,0.5-9.9,1-14.9,1.5
						c-2.3,0.2-4.5,0.5-6.8,0.7c-2.3,0.3-4.7,0.5-7.1,0.8c-4.1,0.5-8.1,0.9-12.2,1.4c-2,0.2-4.1,0.5-6.1,0.7c-2,0.2-4.1,0.5-6.1,0.8
						c-8.3,1-16.6,2.1-24.8,3.3h0c-2.3,0.3-4.7,0.7-7,1c-1.6,0.2-3.1,0.4-4.7,0.7c-2,0.3-4,0.6-6.1,0.9c-1.5,0.2-3,0.4-4.5,0.7
						c-4.5,0.7-9.1,1.4-13.6,2.1c-2,0.3-4,0.6-6,1c-8.5,1.4-16.9,2.8-25.3,4.3c-3.1,0.5-6.2,1.1-9.3,1.6c0,0-0.1,0-0.1,0
						c-3.5,0.6-7.1,1.3-10.6,2c-3.4,0.6-6.8,1.3-10.2,1.9c-0.3,0.1-0.7,0.1-1,0.2c-2.9,0.6-5.9,1.1-8.8,1.7c-1,0.2-2,0.4-3,0.6
						c-2.4,0.5-4.8,1-7.2,1.5c-3.3,0.7-6.5,1.4-9.8,2.1c-1.2,0.3-2.4,0.5-3.6,0.8c-0.2,0-0.4,0.1-0.6,0.1c-2.8,0.6-5.6,1.2-8.4,1.8
						c-3.5,0.8-6.9,1.5-10.4,2.3c-3.5,0.8-6.9,1.6-10.3,2.4c0,0-0.1,0-0.1,0c-3.4,0.8-6.8,1.6-10.2,2.5c-3.4,0.8-6.8,1.7-10.2,2.5
						c-10.2,2.6-20.4,5.2-30.5,8c-3.3,0.9-6.5,1.8-9.8,2.7c-0.8,0.2-1.5,0.4-2.3,0.6c-2.6,0.7-5.2,1.5-7.7,2.2l-0.5,0.1
						c-2.9,0.8-5.7,1.7-8.6,2.5c-0.3,0.1-0.7,0.2-1,0.3c0,0-0.1,0-0.1,0c-6.4,1.9-12.8,3.9-19.2,5.9c-2.5,0.8-5,1.6-7.5,2.4
						c0,0-0.1,0-0.1,0c-1.3,0.4-2.6,0.8-3.8,1.2c-2.1,0.7-4.1,1.3-6.2,2c-0.9,0.3-1.9,0.6-2.8,0.9c-2.1,0.7-4.2,1.4-6.3,2.1
						c-0.9,0.3-1.8,0.6-2.7,0.9c-0.2,0.1-0.5,0.2-0.7,0.3c-2.4,0.8-4.8,1.7-7.2,2.5c-2.7,1-5.5,1.9-8.2,2.9
						c-1.6,0.6-3.3,1.2-4.9,1.8c-2.3,0.8-4.6,1.7-7,2.6c-2.3,0.9-4.7,1.7-7,2.6c-0.8,0.3-1.6,0.6-2.4,0.9c-2.3,0.9-4.7,1.8-7,2.7
						c-0.4,0.2-0.8,0.3-1.2,0.5c-2.1,0.8-4.2,1.7-6.3,2.5c-0.4,0.2-0.8,0.3-1.1,0.5c-0.9,0.4-1.8,0.7-2.7,1.1
						c-2.1,0.8-4.2,1.7-6.3,2.6c-0.5,0.2-0.9,0.4-1.3,0.5c-2.5,1-4.9,2.1-7.4,3.1c-2.8,1.2-5.7,2.4-8.5,3.6c-1,0.4-1.9,0.8-2.9,1.2
						c-2.3,1-4.5,2-6.7,3c-0.3,0.2-0.7,0.3-1.1,0.5c-2.6,1.2-5.3,2.4-7.9,3.6c0,0-0.1,0-0.1,0c-0.8,0.4-1.6,0.7-2.4,1.1
						c-2.8,1.3-5.6,2.6-8.4,3.9c-1.6,0.8-3.3,1.5-4.9,2.3c0,0-0.1,0-0.1,0c-1.6,0.8-3.1,1.5-4.7,2.3c-5.3,2.6-10.5,5.2-15.7,7.8
						c-0.9,0.4-1.8,0.9-2.6,1.3c-1.7,0.9-3.4,1.7-5,2.6c-2.1,1.1-4.1,2.2-6.2,3.3h0c-1.4,0.8-2.8,1.5-4.2,2.3
						c-1.6,0.8-3.1,1.7-4.7,2.6c-1.2,0.7-2.4,1.3-3.6,2c-0.5,0.3-1,0.6-1.5,0.8c-4.5,2.5-8.9,5.1-13.4,7.7
						c-4.6,2.7-9.1,5.4-13.5,8.1c-3,1.8-5.9,3.7-8.8,5.5c-4.3,2.7-8.6,5.5-12.8,8.3c-2.8,1.9-5.6,3.8-8.4,5.7c-1,0.7-2,1.4-3,2.1
						c-1.5,1.1-3.1,2.1-4.6,3.2c-1.8,1.2-3.5,2.5-5.3,3.8c-2.8,2-5.5,4-8.2,6c-0.4,0.3-0.9,0.6-1.3,1c-2.2,1.6-4.4,3.3-6.5,5
						c0,0-0.1,0.1-0.1,0.1c-1.4,1.1-2.9,2.2-4.3,3.3c-1.1,0.8-2.1,1.7-3.2,2.5c-1.1,0.8-2.1,1.7-3.2,2.5c-1.1,0.8-2.1,1.7-3.2,2.5
						c-1,0.8-2.1,1.7-3.1,2.5c-0.6,0.5-1.3,1-1.9,1.5c-1.5,1.2-3,2.4-4.4,3.6c-13.5,11.1-26.7,22.4-40.1,33.6
						c-1.7,1.4-3.4,2.8-5.1,4.2c-0.2,0.2-0.4,0.4-0.7,0.5c-1.9,1.6-3.8,3.1-5.7,4.7c0,0,0,0-0.1,0.1c-1.9,1.6-3.8,3.2-5.8,4.7
						c-0.2,0.1-0.3,0.3-0.5,0.4c-1.6,1.3-3.3,2.6-4.9,4c-0.5,0.4-1,0.8-1.5,1.2c-1.5,1.2-3.1,2.4-4.6,3.6c-0.1,0.1-0.1,0.1-0.2,0.2
						h152.8c11.6-9.6,23.5-19.2,35.8-28.4c24.3-18.1,50.4-34.9,78.2-50.5c62-34.7,131.8-63.1,206.5-85.7
						c73.7-22.3,152.1-39,232.3-50.6c61-8.8,122.9-14.7,184.6-17.9c23-1.2,46.8-2.2,69.8-4.5c0,0,0,0,0,0c32.5-3.2,63.7-9,90.1-21.5
						c5.8-2.7,11.3-5.7,16.3-8.9h0c4.7-2.9,9.1-6.1,13.3-9.3c1.5-1.2,2.9-2.3,4.3-3.5c0.7-0.6,1.4-1.1,2-1.7
						c17.8-15.2,31.5-32.9,45.5-49.9c4.7-5.8,9.6-11.5,14.6-17.3l0,0c3.2-3.7,6.5-7.4,9.8-11.1c20.8-22.8,44.5-44.7,73.9-62.7
						c15.2-9.2,31.9-17.6,49.5-25.6c20.5-9.3,42.1-17.9,63.4-26.4c5.1-2.1,10.3-4.1,15.3-6.1c0.7-0.3,1.3-0.5,1.9-0.8h0
						c10.8-4.4,21.5-8.7,31.9-13.2c8.1-3.5,16.3-7,24.5-10.4h0c3.7-1.5,7.5-3.1,11.2-4.6c1.4-0.6,2.8-1.1,4.3-1.7
						c0.8-0.3,1.6-0.6,2.4-0.9v0c0.4-0.2,0.8-0.3,1.2-0.5c0.1,0,0.3-0.1,0.4-0.1c1.3-0.5,2.6-1,3.9-1.5H1298.2z M1040.2,225.6
						c0.6,0,0.6,1,0,1C1039.6,226.6,1039.6,225.6,1040.2,225.6z"/>
					<linearGradient id="SVGID_8_" gradientUnits="userSpaceOnUse" x1="69.8911" y1="257.04" x2="1509.5156" y2="257.04">
						<stop  offset="0.506" style="stop-color:#FEC55E"/>
						<stop  offset="0.526" style="stop-color:#E4B165"/>
						<stop  offset="0.564" style="stop-color:#B99071"/>
						<stop  offset="0.605" style="stop-color:#93747C"/>
						<stop  offset="0.649" style="stop-color:#735B85"/>
						<stop  offset="0.696" style="stop-color:#59488D"/>
						<stop  offset="0.748" style="stop-color:#443892"/>
						<stop  offset="0.806" style="stop-color:#362E96"/>
						<stop  offset="0.878" style="stop-color:#2E2799"/>
						<stop  offset="1" style="stop-color:#2C269A"/>
					</linearGradient>
					<path opacity="0.1" fill="url(#SVGID_8_)" enable-background="new    " d="M1509.5-0.5c-1.3,0.5-2.6,1-3.9,1.5
						c-0.1,0-0.3,0.1-0.4,0.1c-0.4,0.2-0.8,0.3-1.2,0.5c-0.8,0.3-1.6,0.6-2.4,0.9c-1.4,0.5-2.8,1.1-4.3,1.7c-3.8,1.5-7.5,3-11.2,4.6
						h-174.6c-24.8,6.7-48.7,16.4-71.2,28.9c-5,2.8-9.8,5.7-14.5,8.6c-1.1,0.7-2.1,1.3-3.2,2h0c-0.9,0.6-1.7,1.1-2.6,1.7
						c-36.9,24.4-65.4,54-90.6,84.3c-1.1,1.3-2.1,2.5-3.1,3.8c-3.9,4.8-7.8,9.6-11.8,14.4v0l0,0c-8.8,10.6-17.9,21.2-28.5,30.9
						c-9.2,8.5-19.3,16.3-31.3,23c-3.2,1.8-6.5,3.5-9.9,5.1c-35.8,16.9-80.4,21.5-125,24.1h0c-11.2,0.7-22.4,1.2-33.4,1.8
						c-0.5,0-1,0-1.5,0.1c-53.4,2.8-107.1,7.6-160.1,14.5c-134.9,17.7-265.7,49.5-378.7,98.1c-21.4,9.2-42.1,19-62.1,29.4
						c-21.9,11.4-42.9,23.5-62.9,36.5h0c-3.2,2.1-6.4,4.2-9.6,6.3c-9.6,6.4-19,13.1-28.2,19.9c-16.4,12.3-31.9,25-47.2,37.9
						c-13.8,11.6-27.4,23.2-41.4,34.6H69.9c0.1,0,0.1-0.1,0.2-0.2c1.6-1.2,3.1-2.4,4.6-3.6c0.5-0.4,1-0.8,1.5-1.2
						c1.6-1.3,3.3-2.6,4.9-4c0.2-0.1,0.3-0.3,0.5-0.4c1.9-1.6,3.9-3.2,5.8-4.7c0,0,0.1,0,0.1-0.1c1.9-1.6,3.8-3.1,5.7-4.7
						c0.2-0.2,0.4-0.4,0.7-0.5c1.7-1.4,3.4-2.8,5.1-4.2c13.4-11.2,26.6-22.5,40.1-33.6c1.5-1.2,3-2.4,4.4-3.6c0.6-0.5,1.3-1,1.9-1.5
						c1-0.9,2.1-1.7,3.1-2.5c1.1-0.8,2.1-1.7,3.2-2.5c1.1-0.8,2.1-1.7,3.2-2.5c1.1-0.8,2.1-1.7,3.2-2.5c1.4-1.1,2.9-2.2,4.3-3.3
						c0,0,0.1-0.1,0.1-0.1c2.2-1.7,4.3-3.3,6.5-5c0.4-0.3,0.9-0.6,1.3-1c2.7-2,5.4-4,8.2-6c1.7-1.3,3.5-2.5,5.3-3.8
						c1.5-1.1,3-2.1,4.6-3.2c1-0.7,2-1.4,3-2.1c2.8-1.9,5.6-3.8,8.4-5.7c4.2-2.8,8.5-5.6,12.8-8.3c2.9-1.8,5.8-3.7,8.8-5.5
						c4.5-2.7,9-5.5,13.5-8.1c4.4-2.6,8.9-5.1,13.3-7.7c0.5-0.3,1-0.5,1.5-0.8c1.2-0.7,2.4-1.3,3.6-2c1.6-0.9,3.1-1.7,4.7-2.6
						c1.4-0.8,2.8-1.5,4.1-2.3h0c2.1-1.1,4.1-2.2,6.2-3.3c1.7-0.9,3.3-1.7,5-2.6c0.9-0.4,1.8-0.9,2.6-1.3c5.2-2.7,10.4-5.3,15.7-7.8
						c1.6-0.8,3.1-1.5,4.7-2.3c0,0,0.1,0,0.1,0c1.6-0.8,3.3-1.6,4.9-2.3c2.8-1.3,5.6-2.6,8.4-3.9c0.8-0.4,1.6-0.8,2.4-1.1
						c0,0,0.1,0,0.1,0c2.6-1.2,5.3-2.4,7.9-3.6c0.4-0.2,0.7-0.3,1.1-0.5c2.2-1,4.5-2,6.7-3c1-0.4,1.9-0.8,2.9-1.2
						c2.8-1.2,5.6-2.4,8.5-3.6c2.5-1,4.9-2.1,7.4-3.1c0.5-0.2,0.9-0.4,1.3-0.5c2.1-0.9,4.2-1.7,6.3-2.6c0.9-0.4,1.8-0.7,2.7-1.1
						c0.4-0.2,0.7-0.3,1.1-0.5c2.1-0.8,4.2-1.7,6.3-2.5c0.4-0.2,0.8-0.3,1.2-0.5c2.3-0.9,4.7-1.8,7-2.7c0.8-0.3,1.6-0.6,2.4-0.9
						c2.3-0.9,4.6-1.8,7-2.6c2.3-0.9,4.6-1.7,6.9-2.6c1.6-0.6,3.3-1.2,4.9-1.8c2.7-1,5.5-2,8.2-2.9c2.4-0.9,4.8-1.7,7.2-2.5
						c0.2-0.1,0.5-0.2,0.7-0.3c0.9-0.3,1.8-0.6,2.7-0.9c2.1-0.7,4.2-1.4,6.3-2.1c0.9-0.3,1.9-0.6,2.8-0.9c2-0.7,4.1-1.4,6.2-2
						c1.3-0.4,2.6-0.8,3.8-1.2c0,0,0.1,0,0.1,0c2.5-0.8,5-1.6,7.5-2.4c6.4-2,12.7-4,19.2-5.9c0,0,0.1,0,0.1,0c0.3-0.1,0.7-0.2,1-0.3
						c2.9-0.9,5.7-1.7,8.6-2.5l0.5-0.1c2.6-0.8,5.1-1.5,7.7-2.2c0.8-0.2,1.5-0.4,2.3-0.6c3.3-0.9,6.5-1.8,9.8-2.7
						c10.1-2.8,20.2-5.4,30.5-8c3.4-0.9,6.8-1.7,10.2-2.5s6.8-1.7,10.2-2.5c0,0,0.1,0,0.1,0c3.4-0.8,6.9-1.6,10.3-2.4
						c3.5-0.8,6.9-1.6,10.4-2.3c2.8-0.6,5.6-1.2,8.4-1.8c0.2,0,0.4-0.1,0.6-0.1c1.2-0.3,2.4-0.5,3.6-0.8c3.3-0.7,6.5-1.4,9.8-2.1
						c2.4-0.5,4.8-1,7.2-1.5c1-0.2,2-0.4,3-0.6c2.9-0.6,5.8-1.2,8.8-1.7c0.3-0.1,0.7-0.1,1-0.2c3.4-0.7,6.8-1.3,10.2-1.9
						c3.5-0.7,7.1-1.3,10.6-2c0,0,0.1,0,0.1,0c3.1-0.6,6.2-1.1,9.3-1.6c8.4-1.5,16.9-2.9,25.3-4.3c2-0.3,4-0.7,6-1
						c4.5-0.7,9.1-1.4,13.6-2.1c1.5-0.2,3-0.5,4.5-0.7c2-0.3,4-0.6,6.1-0.9c1.6-0.2,3.1-0.5,4.7-0.7c2.3-0.3,4.7-0.7,7-1h0
						c8.3-1.1,16.5-2.2,24.8-3.3c2-0.3,4.1-0.5,6.1-0.8c2-0.3,4.1-0.5,6.1-0.7c4.1-0.5,8.1-1,12.2-1.4c2.4-0.3,4.7-0.5,7.1-0.8
						c2.3-0.2,4.5-0.5,6.8-0.7c5-0.5,9.9-1,14.9-1.5c2.4-0.2,4.8-0.5,7.2-0.7c5.4-0.5,10.7-1,16.1-1.5c1.8-0.1,3.6-0.3,5.3-0.4
						c1.3-0.1,2.6-0.2,3.9-0.3c2.1-0.2,4.1-0.3,6.1-0.5c1.6-0.1,3.1-0.2,4.6-0.4c2.2-0.2,4.5-0.3,6.7-0.5c3.3-0.2,6.5-0.5,9.8-0.7
						c1.7-0.1,3.5-0.2,5.2-0.3c2.1-0.1,4.1-0.3,6.2-0.4c2.9-0.2,5.8-0.4,8.8-0.5c2.1-0.1,4.2-0.2,6.3-0.4c2.6-0.1,5.1-0.3,7.6-0.4
						c4.3-0.2,8.7-0.4,13-0.7c3.6-0.2,7.2-0.4,10.9-0.6c2-0.1,4-0.2,6-0.3c6-0.3,12-0.7,18-1.1c0,0,0,0,0,0
						c5.1-0.3,10.1-0.7,15.1-1.2c1.7-0.2,3.5-0.3,5.2-0.5c0.2,0,0.4,0,0.6-0.1h0c1.6-0.2,3.1-0.3,4.7-0.5c1.5-0.1,2.9-0.3,4.4-0.5
						c0.3,0,0.6-0.1,0.9-0.1c1.4-0.2,2.8-0.3,4.2-0.5c2-0.2,4-0.5,5.9-0.8c1.5-0.2,3.1-0.4,4.6-0.7c1.8-0.3,3.7-0.6,5.5-0.9
						c0.8-0.1,1.5-0.3,2.3-0.4c4.4-0.7,8.7-1.6,12.9-2.5c0,0,0,0,0,0c1.5-0.3,3-0.7,4.5-1c0.1,0,0.1,0,0.2-0.1
						c1.5-0.4,3.1-0.7,4.6-1.1c2.4-0.6,4.8-1.2,7.1-1.9c0.8-0.2,1.6-0.5,2.3-0.7c1.2-0.3,2.3-0.7,3.5-1.1c0.9-0.3,1.9-0.6,2.8-0.9
						c0.2,0,0.3-0.1,0.5-0.2c0.1,0,0.1,0,0.2,0c1-0.3,2.1-0.7,3.1-1.1c0.2-0.1,0.5-0.2,0.7-0.3c1-0.3,2-0.7,3-1.1
						c0.9-0.3,1.8-0.7,2.7-1c0.2-0.1,0.4-0.2,0.6-0.3c0.3-0.1,0.6-0.2,0.9-0.3c0.8-0.3,1.6-0.7,2.4-1c1-0.4,1.9-0.8,2.8-1.2
						c0.1-0.1,0.3-0.1,0.4-0.2v0c0.1,0,0.2-0.1,0.3-0.1c1-0.4,1.9-0.9,2.9-1.3c1.1-0.5,2.2-1,3.2-1.6c0.1,0,0.1,0,0.2-0.1
						c0.3-0.1,0.6-0.3,0.8-0.4c0.3-0.1,0.5-0.3,0.8-0.4v0c0.1,0,0.1-0.1,0.2-0.1c0.5-0.3,1-0.5,1.4-0.8v0c0.1,0,0.2-0.1,0.3-0.1
						c0.2-0.1,0.4-0.2,0.6-0.3c0.3-0.1,0.6-0.3,0.9-0.5c0.7-0.4,1.3-0.7,2-1.1c0.3-0.2,0.5-0.3,0.8-0.5c0.3-0.1,0.5-0.3,0.8-0.4
						c0.4-0.2,0.7-0.4,1.1-0.6h0l0,0c0.9-0.5,1.8-1,2.6-1.6c0.9-0.5,1.7-1.1,2.6-1.6c0.5-0.3,1.1-0.7,1.6-1c0.4-0.3,0.8-0.6,1.3-0.9
						c0,0,0,0,0,0c0.2-0.2,0.5-0.3,0.7-0.5c0.6-0.4,1.1-0.8,1.6-1.1c0.8-0.5,1.5-1,2.2-1.6c1-0.7,1.9-1.4,2.8-2.1
						c0.9-0.7,1.9-1.4,2.8-2.2c0.5-0.4,0.9-0.7,1.4-1.1c0.4-0.3,0.8-0.6,1.2-1c1.4-1.1,2.8-2.3,4.1-3.5c0.9-0.8,1.7-1.5,2.6-2.3
						c0.4-0.3,0.7-0.7,1.1-1c2.2-2,4.4-4.1,6.5-6.3c0.7-0.7,1.4-1.4,2.1-2.1l0.1-0.1c0.7-0.7,1.4-1.4,2-2.1c0.7-0.7,1.4-1.4,2-2.2
						c1.3-1.5,2.7-2.9,4-4.4c0.7-0.7,1.3-1.5,1.9-2.2c0.7-0.7,1.3-1.5,1.9-2.2c0.6-0.7,1.3-1.5,1.9-2.2c0.6-0.7,1.3-1.5,1.9-2.2
						c0.6-0.8,1.3-1.5,1.9-2.2c0.6-0.8,1.2-1.5,1.9-2.2c1.2-1.5,2.5-3,3.7-4.5c0.2-0.3,0.4-0.5,0.6-0.7c0.4-0.4,0.7-0.9,1.1-1.3
						c0,0,0,0,0,0h0c0.1-0.2,0.2-0.3,0.4-0.5c2.1-2.5,4.1-5.1,6.2-7.6c1.2-1.5,2.4-2.9,3.6-4.4c1.7-2,3.4-4,5.1-6
						c1.1-1.3,2.3-2.7,3.5-4v0c0.6-0.7,1.2-1.4,1.9-2.1c1.3-1.5,2.6-3,3.9-4.5c0.9-1,1.9-2.1,2.8-3.1c1-1.1,2.1-2.3,3.1-3.4
						c1-1.1,2.1-2.3,3.1-3.4c1.1-1.1,2.1-2.2,3.2-3.4c1.1-1.1,2.1-2.2,3.2-3.3c6.6-6.8,13.5-13.5,20.8-19.9l1.3-1.2
						c1.2-1.1,2.4-2.1,3.6-3.1c1.3-1.1,2.6-2.2,3.9-3.3c1.2-1,2.3-2,3.5-2.9c0.6-0.5,1.3-1,1.9-1.5c0.9-0.7,1.7-1.4,2.6-2.1
						c0.1-0.1,0.1-0.1,0.2-0.2c0,0,0,0,0,0c1-0.8,2-1.6,3-2.4c0.5-0.4,1-0.8,1.5-1.2c2.2-1.7,4.4-3.3,6.6-4.9
						c0.5-0.4,1.1-0.8,1.6-1.1c0.7-0.5,1.4-1,2-1.4s1.4-1,2-1.4c0,0,0,0,0,0c2.1-1.4,4.1-2.8,6.2-4.2c1.2-0.8,2.4-1.6,3.7-2.4
						c0.2-0.1,0.4-0.3,0.6-0.4c1.4-0.9,2.9-1.8,4.3-2.7c0.6-0.4,1.1-0.7,1.7-1.1c0.2-0.1,0.3-0.2,0.5-0.3c1.8-1.1,3.7-2.2,5.6-3.3
						c0.7-0.4,1.4-0.8,2.2-1.2c0.4-0.2,0.8-0.5,1.2-0.7c1.4-0.8,2.8-1.5,4.2-2.3c1.4-0.7,2.7-1.5,4.1-2.2c0.2-0.1,0.5-0.3,0.7-0.4
						c0.9-0.5,1.9-1,2.8-1.4c0.3-0.1,0.5-0.3,0.8-0.4c0.1,0,0.2-0.1,0.3-0.2c0.9-0.4,1.7-0.8,2.6-1.3c0.4-0.2,0.8-0.4,1.2-0.6
						c0.2-0.1,0.4-0.2,0.6-0.3c0.3-0.1,0.6-0.3,0.9-0.4c1.1-0.5,2.1-1,3.2-1.5c1.5-0.7,2.9-1.3,4.4-2c1.5-0.7,2.9-1.3,4.4-1.9
						c1.1-0.5,2.3-0.9,3.4-1.4c0.6-0.2,1.2-0.5,1.7-0.7c1.3-0.5,2.5-1,3.8-1.5c1.1-0.4,2.1-0.8,3.2-1.2c0,0,0.1,0,0.1,0
						c1-0.4,2-0.7,2.9-1.1c0.4-0.2,0.7-0.3,1.1-0.4c0.9-0.3,1.7-0.6,2.5-0.9c2.5-0.9,5-1.7,7.6-2.6c0.6-0.2,1.2-0.4,1.8-0.6
						c1-0.3,2.1-0.7,3.1-1c0.3-0.1,0.5-0.2,0.8-0.2c1.4-0.4,2.7-0.8,4.1-1.2c1.6-0.5,3.1-0.9,4.6-1.3H1509.5z"/>
					<linearGradient id="SVGID_9_" gradientUnits="userSpaceOnUse" x1="53.651" y1="257.04" x2="1483.861" y2="257.04">
						<stop  offset="0" style="stop-color:#FEC55E"/>
						<stop  offset="0.255" style="stop-color:#FBC35E"/>
						<stop  offset="0.4" style="stop-color:#F3BC61"/>
						<stop  offset="0.518" style="stop-color:#E5B265"/>
						<stop  offset="0.621" style="stop-color:#D1A36A"/>
						<stop  offset="0.714" style="stop-color:#B89071"/>
						<stop  offset="0.8" style="stop-color:#98787B"/>
						<stop  offset="0.881" style="stop-color:#725B85"/>
						<stop  offset="0.956" style="stop-color:#483B91"/>
						<stop  offset="1" style="stop-color:#2C269A"/>
					</linearGradient>
					<path opacity="0.2" fill="url(#SVGID_9_)" enable-background="new    " d="M1483.9-0.5c-7.9,3-15.7,6.1-23.4,9.3h-174.6
						c-20.8,5.6-40.9,13.3-60.1,23c-0.8,0.4-1.5,0.8-2.3,1.2c-1.9,1-3.7,1.9-5.6,3c-1.1,0.6-2.1,1.2-3.2,1.8
						c-10.8,6-20.9,12.5-30.5,19.4c0,0,0,0,0,0c-22.7,16.3-42.2,34.6-59.7,53.6v0c-6.9,7.4-13.4,15-19.8,22.6v0h0v0
						c-0.7,0.8-1.3,1.6-2,2.3c-0.7,0.8-1.3,1.6-2,2.4c-9.4,11.5-18.8,23.3-29.3,34.4h0c-5.8,6.1-11.9,12-18.7,17.6c0,0,0,0,0,0
						c0,0,0,0-0.1,0.1c0,0,0,0,0,0c-2.4,2-4.9,3.9-7.4,5.8c-7.8,5.7-16.3,11-25.9,15.5c-28.9,13.6-63.6,19.3-99.4,22.3c0,0,0,0,0,0
						c-19.6,1.7-39.5,2.6-59,3.6c-0.5,0-1,0-1.5,0.1c-47.2,2.5-94.5,6.5-141.4,12.2h0c-141.5,17.2-279.2,49.7-397.3,100.5
						c-18.8,8.1-37,16.6-54.7,25.6c-25.6,13-49.9,27-73,42c-1.2,0.8-2.3,1.5-3.5,2.3c-7.9,5.2-15.7,10.6-23.3,16.1c0,0,0,0-0.1,0
						c-1.2,0.9-2.4,1.8-3.6,2.7c0,0-0.1,0.1-0.1,0.1c-1.5,1.1-3,2.2-4.4,3.3c-31.2,23.3-59,48.4-88.7,72.5H53.7v-7.5
						c30.5-24.6,58.9-50.5,90.9-74.3c30.3-22.6,63.5-43.2,99-61.8c13.9-7.3,28.2-14.3,42.8-21c40.1-18.4,82.7-34.5,127.1-48.6
						c0,0,0.1,0,0.1,0c87.3-27.6,181.7-47.2,278-59.5c12.9-1.7,25.9-3.2,38.9-4.6c38.4-4.2,77.1-7.2,115.6-9.2
						c24.3-1.3,49.3-2.3,73.5-4.9h0c15.5-1.6,30.7-3.9,45.1-7.2c0,0,0,0,0,0c14.6-3.4,28.5-7.8,41.2-13.8
						c10.8-5.1,20.2-11,28.7-17.6c8.8-6.8,16.6-14.1,23.8-21.8h0c10.4-11,19.6-22.7,28.9-34c1.1-1.4,2.2-2.7,3.4-4.1
						c1.9-2.3,3.8-4.6,5.8-6.9c0,0,0,0,0,0c0,0,0,0,0,0c7.6-8.8,15.4-17.6,23.7-26.1c22.8-23.4,48.9-45.3,81-63.3
						c4.7-2.6,9.4-5.1,14.2-7.4c2.9-1.4,5.8-2.8,8.8-4.2c0.5-0.2,0.9-0.4,1.4-0.6c5.9-2.7,11.9-5.1,18-7.4c9.4-3.6,19-6.7,28.8-9.3
						H1483.9z"/>
					<linearGradient id="SVGID_10_" gradientUnits="userSpaceOnUse" x1="53.651" y1="255.135" x2="1463.7111" y2="255.135">
						<stop  offset="0" style="stop-color:#FEC55E"/>
						<stop  offset="0.255" style="stop-color:#FBC35E"/>
						<stop  offset="0.4" style="stop-color:#F3BC61"/>
						<stop  offset="0.518" style="stop-color:#E5B265"/>
						<stop  offset="0.621" style="stop-color:#D1A36A"/>
						<stop  offset="0.714" style="stop-color:#B89071"/>
						<stop  offset="0.8" style="stop-color:#98787B"/>
						<stop  offset="0.881" style="stop-color:#725B85"/>
						<stop  offset="0.956" style="stop-color:#483B91"/>
						<stop  offset="1" style="stop-color:#2C269A"/>
					</linearGradient>
					<path opacity="0.2" fill="url(#SVGID_10_)" enable-background="new    " d="M1463.7-0.5c-7.9,3-15.7,6.1-23.4,9.3h-174.6
						c-13.6,3.7-26.9,8.3-39.9,13.7c-0.6,0.2-1.2,0.5-1.7,0.7h0c-2.5,1.1-5.1,2.2-7.6,3.3h0c-7.4,3.4-14.8,7.1-22,11.1
						c-28.8,16.1-52.7,35.3-73.7,56l0,0c-8.3,8.1-16.2,16.5-23.7,25v0c0,0,0,0,0,0l0,0c-1.9,2.2-3.8,4.4-5.7,6.5
						c-3.7,4.3-7.3,8.5-10.8,12.8c-6.9,8.4-13.8,17-21.1,25.4c-7,8-14.5,15.9-22.8,23.2c-10.7,9.4-22.9,17.9-37.5,24.8
						c-4.2,2-8.6,3.8-13.1,5.5c0,0,0,0,0,0c-20.3,7.6-42.8,12-66.2,14.8h0c-25.9,3.1-52.9,4.3-79.1,5.6c-0.5,0-1,0-1.5,0.1
						c-42.3,2.2-84.7,5.7-126.8,10.5c-87,9.9-172.8,25.5-253.8,47.6c0,0-0.1,0-0.1,0c-55.4,15.1-108.5,33.2-158.1,54.6
						c-16.7,7.2-33,14.7-48.8,22.6c-41.2,20.5-79.4,43.6-114,69.4c-29.5,22.1-56.1,45.8-84,68.7v-20.3
						c23.2-19.4,45.9-39.2,70.7-57.7c32-23.8,67.1-45.4,104.8-64.8c12.1-6.2,24.4-12.2,37-18c122.9-56.3,269-91.7,419.2-109.9
						c8.3-1,16.6-2,24.9-2.8c38.4-4.2,77.1-7.2,115.6-9.2c31.1-1.6,63.3-2.9,93.6-7.4l0,0c23.8-3.6,46.4-9.1,66.3-18.5
						c12.5-5.9,23.2-12.9,32.7-20.7c2.5-2.1,5-4.2,7.3-6.3c7.4-6.8,14.2-13.9,20.5-21.2c7.2-8.3,14-16.8,20.9-25.1
						c4-4.8,8-9.7,12.2-14.5c3.2-3.7,6.4-7.3,9.7-10.9c0,0,0,0,0,0c0,0,0,0,0,0v0c8.7-9.6,17.9-18.9,27.7-28
						c0.3-0.3,0.6-0.6,0.9-0.8c18.5-17,39.3-32.7,63.4-46.2c10.7-5.9,21.8-11.3,33.1-15.9c3.5-1.5,7-2.8,10.6-4.1h0
						c0.3-0.1,0.6-0.2,0.9-0.3c8.8-3.2,17.6-6.1,26.7-8.5H1463.7z"/>
					<linearGradient id="SVGID_11_" gradientUnits="userSpaceOnUse" x1="53.651" y1="245.19" x2="1439.901" y2="245.19">
						<stop  offset="0" style="stop-color:#FEC55E"/>
						<stop  offset="0.255" style="stop-color:#FBC35E"/>
						<stop  offset="0.4" style="stop-color:#F3BC61"/>
						<stop  offset="0.518" style="stop-color:#E5B265"/>
						<stop  offset="0.621" style="stop-color:#D1A36A"/>
						<stop  offset="0.714" style="stop-color:#B89071"/>
						<stop  offset="0.8" style="stop-color:#98787B"/>
						<stop  offset="0.881" style="stop-color:#725B85"/>
						<stop  offset="0.956" style="stop-color:#483B91"/>
						<stop  offset="1" style="stop-color:#2C269A"/>
					</linearGradient>
					<path opacity="0.2" fill="url(#SVGID_11_)" enable-background="new    " d="M1439.9-0.5c-2.8,1-5.5,2.1-8.3,3.2
						c-1.5,0.6-3,1.2-4.5,1.8c-3.5,1.4-7.1,2.9-10.6,4.3h-174.6c-5.4,1.5-10.8,3.1-16.1,4.8c-0.4,0.1-0.8,0.3-1.2,0.4
						c-3.2,1-6.3,2.2-9.5,3.3c-15.3,5.6-30.1,12.4-44.4,20.3c-19.7,11-37.1,23.5-52.9,36.9c-0.3,0.3-0.6,0.5-0.9,0.8
						c-10.1,8.6-19.5,17.6-28.3,26.8c0,0,0,0,0,0h0v0c-3.5,3.6-6.9,7.3-10.3,11c-7.5,8.2-14.6,16.5-21.5,24.9
						c-4,4.8-7.9,9.7-11.9,14.6c-6.2,7.4-12.5,14.8-19.4,21.9c-2.2,2.3-4.5,4.6-6.9,6.8c-12.1,11.5-26,21.9-43.2,30
						c-3.4,1.6-7,3.1-10.5,4.5c0,0,0,0,0,0c-7.7,3-15.8,5.5-24.1,7.7h0c-6.8,1.8-13.8,3.3-20.9,4.5l0,0
						c-32.8,5.9-68.5,7.3-102.8,9.1c-0.5,0-1,0-1.5,0.1c-36.5,1.9-73,4.7-109.4,8.6c-27.7,2.9-55.2,6.4-82.5,10.5c0,0-0.1,0-0.1,0
						c-72.1,10.7-142.7,25.6-209.7,45c0,0-0.1,0-0.1,0c-47.7,13.8-93.6,30-136.8,48.6c-14.2,6.1-28.1,12.5-41.8,19.1
						c-43.9,21.4-84.5,45.7-121,72.9c-21.1,15.7-40.6,32.3-60.2,48.8v-20.5c15.2-12.8,30.6-25.5,46.9-37.6
						c33.9-25.3,71.4-48,111.7-68.3c0,0,0,0,0,0c5.1-2.6,10.3-5.1,15.5-7.6h0c4.8-2.3,9.6-4.6,14.5-6.8c0.2-0.1,0.4-0.2,0.5-0.3
						c127.5-58.3,279.8-94.2,435.9-111.7c0,0,0,0,0,0c2.5-0.3,5.1-0.6,7.6-0.8c38.4-4.2,77.1-7.2,115.6-9.2
						c39.3-2,80.5-3.5,117.3-11.8c15.1-3.4,29.5-8,42.7-14.2c21.8-10.3,38.3-24.2,52.5-39.3c6.1-6.5,11.8-13.1,17.3-19.8
						c3.9-4.7,7.8-9.5,11.6-14.2c2.9-3.6,5.9-7.1,8.9-10.7c4.5-5.3,9.2-10.6,14-15.8v0c4.6-5.1,9.4-10.1,14.4-15h0v0c0,0,0,0,0,0
						l0,0c2.3-2.3,4.6-4.5,6.9-6.7c5.3-5.1,10.8-10.1,16.5-14.9c4.2-3.6,8.6-7.1,13-10.6c0.5-0.4,1-0.8,1.5-1.1
						c11.9-9.1,24.8-17.7,38.7-25.5c17.7-9.8,36.4-18,55.7-24.3c4.1-1.3,8.2-2.6,12.3-3.7h0c0.2-0.1,0.3-0.1,0.4-0.1
						c0.9-0.3,1.9-0.5,2.8-0.8H1439.9z"/>
				</g>
				<g id="Layer_9" transform="translate(52.802)">
					<path id="Path_34496" opacity="0.2" fill="#FFFFFF" enable-background="new    " d="M1167,73.4c-2.1,0.7-5.5,0.3-8.3,0.3
						c-7.9,0-15.8,0-23.8,0h-84c-4.3,0-8.6-0.1-12.9,0c-4.1,0.1-7.5,1.6-10-2.4c-2.4-3.9-1.5-10.2,0.8-14c2.9-4.7,8.1-7.6,13.7-7.4
						c-0.5-1.9-0.1-4,1.2-5.5c1.3-1.5,2.8-2.8,4.5-3.8c9.5-6.3,15.6-8.6,27.2-7.9c5.2,0.3,12.7-1.1,16.9,3c3.5,3.4,3.5,8.6,10,8.5
						c2.9,0,5.6-1.4,8.5-2c7.7-1.4,15.9,4.6,16.8,12.4c7.3-2.2,15.2-3,22.7-1.2c7.4,1.9,14.3,6.6,17.7,13.5
						C1169.8,71,1169,72.7,1167,73.4z"/>
					<path id="Path_34497" opacity="0.2" fill="#FFFFFF" enable-background="new    " d="M754.5,286.9c-16.1,0-32.3,0-48.4,0.8
						c-2.2,0.1-5.1-0.5-5.1-2.7l6.4-3.1l2.5-1.2c4.9-2.4,10.7-4.9,15.7-2.6c7.7-5.4,15.9-11,25.3-11.3c1.4-0.1,2.8,0.1,4.1,0.7
						C760.6,270.7,756.2,282.3,754.5,286.9L754.5,286.9z"/>
					<path id="Path_34498" opacity="0.2" fill="#FFFFFF" enable-background="new    " d="M1439.9,31c4.2-0.4-4.7-13.7-6-14.7
						c-5.4-3.9-12.5-3.1-18.1,0.1c0.7-6.4-3.1-12.4-9.2-14.5c-4.7-1.5-9.8-0.3-14.4,1.5c-7.2,2.8-13.9,7-19.5,12.4
						c-0.1-7.6-1.5-14.8-10.2-16.2c-6.4-1-12.2,1.1-17.2,4.8c-4.9,3.7-10.5,6.3-15,10.7c-2.1-1.8-4.8-2.6-7.5-2.2
						c-2.7,0.4-5.3,1.3-7.6,2.7c-3.1,1.8-6.8,6.9-9.8,7.9c-3.2,1.1-6.6-2.6-10.2-0.4c-4.4,2.7-2.2,8.7,2.4,9.2c2,0.2,5.1-1,7.4-1.1
						c4.7-0.1,9.4,0,14,0h118.4L1439.9,31z"/>
					<path id="Path_34499" opacity="0.2" fill="#FFFFFF" enable-background="new    " d="M944.7,96.6c3.5-0.4-3.9-11.3-5-12.1
						c-4.5-3.2-10.3-2.6-14.9,0.1c0.6-5.3-2.6-10.2-7.6-12c-3.9-1.2-8.1-0.2-11.9,1.3c-6,2.3-11.4,5.8-16.1,10.2
						c-0.1-6.3-1.2-12.2-8.4-13.3c-5.1-0.7-10.2,0.8-14.2,4c-4,3-8.7,5.2-12.3,8.8c-1.7-1.5-4-2.1-6.2-1.9c-2.2,0.3-4.3,1-6.2,2.2
						c-2.6,1.5-5.6,5.7-8.1,6.5c-2.6,0.9-5.4-2.1-8.4-0.3c-3.6,2.2-1.8,7.2,2,7.6c1.7,0.2,4.2-0.9,6.1-0.9c3.9-0.1,7.7,0,11.6,0
						h97.7L944.7,96.6z"/>
					<path id="Path_34500" opacity="0.2" fill="#FFFFFF" enable-background="new    " d="M1182.3,111.2c-6.8,0.1-13.6,0.4-20.3-0.6
						c-8.7-1.3-16.9-4.7-25.5-6.4c-8.6-1.6-18.3-1.2-25.1,4.3c-17.4-6.4-38.9,1.6-47.9,17.8c-8.9-13.8-29.2-16.7-43.9-9.4
						c-14.7,7.2-24.2,22.2-29.5,37.7c-13.1-28.8-56.5-29.8-67.1,1.8c-2.4-4.7-8.9-6-13.8-4.1s-8.6,6-12.1,10
						c-1.8-10.6-14.6-16.5-25.1-14.3c-10.5,2.2-18.9,10.2-25.7,18.5c-2.9-10.3-14.8-16.4-25.4-15.1c-10.7,1.2-19.9,8.3-26.6,16.7
						c-3,3.7-5.6,7.9-9.5,10.6c-5.4,3.9-12.4,4.5-19,5c-16.1,1.2-32.1,1.9-48.2,2.2c-11.9,0.2-27.4-2.7-38.1,2.8
						c14.2,12.2,32.8,16.1,50.8,18.9c30.9,4.7,63.1,4,93.8,9.5c12.5,2.2,23.3,11.8,34.7,18c12.5,6.9,25.6,12.7,39.1,17.3
						c15.1,5.2,30.8,8.2,46.8,8.9c8.3,0.3,16.7-1.8,24.8-1.4c7.6,0.4,14.6,3.9,22.3,5.4c22.1,4.4,45.1,0.1,66.7-6.3
						c19.2-5.7,38.6-13.9,53.8-27.2c12.6-11.1,21.1-25.9,33.1-37.6c11.7-11.3,24-21.9,36.8-31.9c12.7-9.9,24.8-24.4,22.1-40.3
						c-0.6-3.6-2.2-7.3-5.3-9.1c-2-1-4.1-1.5-6.3-1.6C1189.2,111.2,1185.7,111.2,1182.3,111.2z"/>
					<path id="Path_34501" opacity="0.2" fill="#FFFFFF" enable-background="new    " d="M1195,131.5c-8.6-1.6-18.3-1.2-25.1,4.3
						c-17.4-6.4-38.9,1.6-47.9,17.8c-8.9-13.8-29.2-16.7-43.9-9.4c-14.7,7.2-24.2,22.2-29.5,37.7c-13.1-28.8-56.5-29.8-67.1,1.8
						c-2.4-4.7-8.9-6-13.8-4.1c-4.9,1.9-8.6,6-12.1,10c-1.8-10.6-14.6-16.5-25.1-14.3c-10.5,2.2-18.9,10.2-25.7,18.5
						c-2.9-10.3-14.8-16.4-25.4-15.1c-10.7,1.2-19.9,8.3-26.6,16.7c-3,3.7-5.6,7.9-9.5,10.6c-5.4,3.9-12.4,4.5-19,5
						c-12,0.9-24,1.5-36,1.9c12.1,0.9,24,2.1,35.8,4.2c12.5,2.2,23.3,11.8,34.7,18c5.3,2.9,10.7,5.6,16.1,8.1
						c2.6,0.4,5.2,0.8,7.7,1.2c7.8,1.4,14.9,5.6,21.9,10.1c13,3.9,26.5,6.2,40.1,6.8c8.3,0.3,16.7-1.8,24.8-1.4
						c7.6,0.4,14.6,3.9,22.3,5.4c22.1,4.4,45.1,0.1,66.7-6.3c19.2-5.7,38.6-13.9,53.8-27.2c12.6-11.1,21.1-25.9,33.1-37.6
						c11.7-11.3,24-21.9,36.8-31.9c9.6-7.4,18.8-17.5,21.6-28.7C1200.8,132.9,1197.9,132.1,1195,131.5z"/>
					<path id="Path_34502" opacity="0.2" fill="#FFFFFF" enable-background="new    " d="M1771.1,44.3c-2.2-1.6-22.8-7.5-22.9-1.9
						c0.1-6.6-5.7-12.2-12.1-13.6c-6.4-1.3-13.2,0.9-18.7,4.5c1.2-4.3-3.6-8.3-8.1-8.4c-4.5-0.2-8.7,2-13,3.2
						c-1,0.3-2.1,0.5-3.2,0.5c-1.3-0.1-2.5-0.4-3.7-0.8c-5.2-1.3-11-1-15.3,2.1s-6.7,9.2-4.4,14c-2.8,0.6-4.8,3.1-4.8,5.9
						c0.2,9.4,15.1,5.9,20.6,6.5c9.8,1,19.7,1.8,29.5,2.3c11.6,0.5,23.6,1.3,35.1,0.7c14.3-0.7,28.2-2.4,42.5,0c1,0.3,2.1,0.3,3.1,0
						c1-0.3,1.7-1.3,1.5-2.4c-0.4-0.8-1.1-1.4-1.9-1.6c-5.7-1.9-12.6,0.3-17.4-3.3c-2.5-2-3.8-5.2-6.2-7.3
						C1771.5,44.6,1771.3,44.4,1771.1,44.3z"/>
					<path id="Path_34503" opacity="0.2" fill="#FFFFFF" enable-background="new    " d="M1771.1,44.3c-2.2-1.6-22.8-7.5-22.9-1.9
						c0.1-6.6-5.7-12.2-12.1-13.6c-6.4-1.3-13.2,0.9-18.7,4.5c1.2-4.3-3.6-8.3-8.1-8.4c-4.5-0.2-8.7,2-13,3.2
						c-1,0.3-2.1,0.5-3.2,0.5c-1.3-0.1-2.5-0.4-3.7-0.8c-5.2-1.3-11-1-15.3,2.1s-6.7,9.2-4.4,14c-2.8,0.6-4.8,3.1-4.8,5.9
						c0.2,9.4,15.1,5.9,20.6,6.5c9.8,1,19.7,1.8,29.5,2.3c11.6,0.5,23.6,1.3,35.1,0.7c14.3-0.7,28.2-2.4,42.5,0c1,0.3,2.1,0.3,3.1,0
						c1-0.3,1.7-1.3,1.5-2.4c-0.4-0.8-1.1-1.4-1.9-1.6c-5.7-1.9-12.6,0.3-17.4-3.3c-2.5-2-3.8-5.2-6.2-7.3
						C1771.5,44.6,1771.3,44.4,1771.1,44.3z"/>
					<path id="Path_34504" opacity="0.2" fill="#FFFFFF" enable-background="new    " d="M1722.9,59.2c3.7-0.2,7.4-0.4,11-0.7
						c0,0-0.1-0.1-0.1-0.1c-2.2-1.6-22.8-7.5-22.9-1.9c0.1-6.6-5.7-12.2-12.1-13.6c-6.4-1.3-13.2,0.9-18.7,4.5
						c1.2-4.3-3.6-8.3-8.1-8.4c-4.5-0.2-8.7,2-13,3.2c-1,0.3-2.1,0.5-3.2,0.5c-1.3-0.1-2.5-0.4-3.7-0.8c-3.4-0.9-6.9-1-10.3-0.1
						c0.1,0.7,0.4,1.4,0.7,2.1c-2.8,0.6-4.8,3.1-4.8,5.9c0.2,9.4,15.1,5.9,20.6,6.5c9.8,1,19.7,1.8,29.5,2.3
						C1699.4,59,1711.5,59.8,1722.9,59.2z"/>
					<path id="Path_34505" opacity="0.2" fill="#FFFFFF" enable-background="new    " d="M1920.8,115.4c0-3.7-34.5,4.6-37.1,4.2
						c-5-0.8-6.5-5.2-9.4-8.8c-3.7-4.6-8.5-8.3-13.9-10.8c-8.7-3.8-18.6-4.2-27.6-0.9c-5,1.8-9.5,4.7-14,7.5
						c-4,2.5-9.2,7.4-13.7,8.7c-5.8,1.7-3.2,0.6-6.8-3.2c-4.6-5.1-11.2-8-18.1-7.9c-7.3,0-14.5,1-21.4,3.1c-8.3,2.4-7.1,2.9-7.9-4.8
						c-0.3-2.8-1.8-5.6-4.4-6.7c-1.4-0.5-2.8-0.7-4.3-0.6c-4.1-0.1-8.2-0.2-12.2,0.9s-7.7,3.5-9.4,7.2c-2.1-5.4-8.2-8.1-13.6-6.1
						c-1.8,0.7-3.4,1.9-4.6,3.4c-2.9-10-13.3-15.7-23.3-12.8c-3.2,0.9-6.2,2.7-8.5,5.2c-7.3,7.7-6,17.3-6.1,26.8
						c-0.1,8.9-4.8,17.7-10.8,24.2c-4.3,4.7-9.6,8.5-14,13.1c-10.7,11.1-16.2,26.1-15.3,41.4c0.7,11.8,5.3,23,10.7,33.6
						c15.2,29.8,38.7,56.8,69.8,69.1c35.4,14,76.9,7.8,111.2,24.5c9.9,4.8,18.9,11.4,28.8,16c14.8,6.8,31.2,9.1,47.3,10.7
						c7.3,0.7,14.7,1.3,21.8-0.3c2.4-0.6,4.7-1.3,6.9-2.3L1920.8,115.4z"/>
					<path id="Path_34506" opacity="0.2" fill="#FFFFFF" enable-background="new    " d="M1920.8,349.6V167.4
						c-4.7,2-9.2,4.4-13.4,7.3c-4,2.5-9.2,7.4-13.7,8.7c-5.8,1.7-3.2,0.6-6.8-3.2c-4.6-5.1-11.2-8-18.1-7.9c-7.3,0-14.5,1-21.4,3.1
						c-8.3,2.4-7.1,2.9-7.9-4.8c-0.3-2.8-1.8-5.6-4.4-6.7c-1.4-0.5-2.8-0.7-4.3-0.6c-4.1-0.1-8.2-0.2-12.2,0.9s-7.7,3.5-9.4,7.2
						c-2.1-5.4-8.2-8.1-13.6-6.1c-1.8,0.7-3.4,1.9-4.6,3.4c-2.9-10-13.3-15.7-23.3-12.8c-3.2,0.9-6.2,2.7-8.5,5.2
						c-7.3,7.7-6,17.3-6.1,26.8c-0.1,8.9-4.8,17.7-10.8,24.2c-4.3,4.7-9.6,8.5-14,13.1c-10.7,11.1-16.2,26.1-15.3,41.4
						c0.7,11.8,5.3,23,10.7,33.6c1.3,2.5,2.6,5,4,7.5c29.6,5.9,61.3,4.8,88.5,18c9.9,4.8,18.9,11.4,28.8,16
						c14.8,6.8,31.2,9.1,47.3,10.7c7.3,0.7,14.7,1.3,21.8-0.3C1916.3,351.4,1918.6,350.6,1920.8,349.6z"/>
					<path id="Path_34508" opacity="4.000000e-02" fill="#FFFFFF" enable-background="new    " d="M393.8,68.4
						c19.5-7.5,39.7-13,60.3-16.4c-49.7,46.1-110.4,78.7-176.3,94.9l85.2-13.4c30.9-4.9,62-9.8,91.3-20.8
						c31.7-11.9,60.6-30.6,92.7-41.4c36.9-12.4,76.5-13.7,115.4-14.9l147.3-4.6c-16.1-15.1-39.5-19-61.4-22.1
						c-40-5.7-84.4-7-123.2-17.7c-42.1-11.6-59.5-19.4-99-0.6C482.8,32,436.7,45.8,393.8,68.4z"/>
					<path opacity="4.000000e-02" fill="#FFFFFF" enable-background="new    " d="M199.5,126c-8.1,8.5-16.4,16.8-24.8,25
						c-36.5,35.7-75.5,68.8-116.6,99.1L57,230.7c-17.3,16.4-34.3,33-51.1,49.9c-1.7,1.7-3.4,3.4-5,5.1v-88.9
						c42.8-24.3,87.1-45.7,132.7-64.1l-27.6,31l68.8-27.7L199.5,126z"/>
				</g>
				<g id="Layer_6" transform="translate(52.796 13.49)">
					<g id="Group_12972">
						<path fill="#264E9A" d="M1920.8,320.3l-26.8-9.9l-6.5-2.4l-104.5-38.8l-5.4-2h0l-9.8-3.6l-0.2-0.3l-0.3-0.4l-32.9-57l0,0
							L1666,86.9l0,0l-15.8-27.5l-36,3.8l-55.3,5.8L1530,13.9h0l-45.2-14.3l-0.4-0.1v31.2l-40.8,21.6H1405l0,0l-105.7,96l-86.5-74.4
							l0,0l-35.9,23.9l-3.8,2.5l-17.9,11.9v28.8l0,0l-133.5,112.1l-16.6,14l0,0l-15.7,13.2l-14.8-13.2l0,0h0l-22-19.6l0,0
							l-27.7-24.6l-43.5-38.7l-2.4,2.5v0l0,0l-27.5,28.4l-1.1,1.1v0l-43.4,44.8l-4,6l-2.1,3.1l-28.2,42.3l-28.9,43.2
							c-0.1,0.2-0.2,0.4-0.3,0.5l-3.2,4.8c0,0.1-0.1,0.1-0.1,0.2c0,0,0,0.1-0.1,0.1l-0.3,0.5v0c0,0,0,0,0,0
							c-2.7,0.2-5.5,0.2-8.2,0.1c-0.6,0-1.1,0-1.7-0.1c-1.1-0.1-2.2-0.2-3.3-0.3h0c-0.9-0.1-1.8-0.2-2.8-0.3
							c-0.5-0.1-1.1-0.1-1.6-0.2c-0.3,0-0.6-0.1-0.9-0.1c-0.8-0.1-1.6-0.3-2.5-0.4c-0.6-0.1-1.2-0.2-1.8-0.4c-0.5-0.1-1-0.2-1.4-0.3
							c-0.3-0.1-0.7-0.2-1-0.2c-0.6-0.2-1.3-0.3-1.9-0.5c-0.7-0.2-1.4-0.4-2-0.5c-0.7-0.2-1.3-0.4-2-0.5c-0.7-0.2-1.4-0.4-2-0.6
							c-0.5-0.2-1.1-0.3-1.6-0.5c-0.5-0.2-1.1-0.4-1.6-0.6c-1.1-0.4-2.2-0.8-3.3-1.2c-1.1-0.4-2.2-0.8-3.2-1.3
							c-0.5-0.2-1.1-0.5-1.6-0.7c-0.5-0.2-1.1-0.5-1.6-0.7c-0.5-0.2-1.1-0.5-1.6-0.7c-1.1-0.5-2.1-1-3.2-1.5
							c-1.2-0.6-2.4-1.2-3.5-1.8c-0.9-0.5-1.8-1-2.8-1.5c-1-0.5-1.9-1-2.8-1.6c-0.5-0.3-1.1-0.6-1.6-0.9c-1.6-1-3.2-1.9-4.8-2.9
							c-1.3-0.8-2.6-1.7-3.8-2.5h0c-0.8-0.5-1.6-1.1-2.4-1.6c-0.8-0.5-1.6-1.1-2.4-1.7c-0.8-0.5-1.6-1.1-2.4-1.7
							c-0.8-0.6-1.6-1.1-2.3-1.7c-2.1-1.5-4.2-3.1-6.2-4.8c-0.9-0.7-1.8-1.5-2.8-2.2c-0.6-0.5-1.2-1-1.8-1.5
							c-0.7-0.6-1.4-1.2-2.1-1.8c-0.5-0.4-1-0.8-1.5-1.3c-0.5-0.4-1-0.8-1.5-1.3c-2.6-2.2-5.1-4.5-7.5-6.8c-0.8-0.7-1.6-1.5-2.3-2.2
							c-2.8-2.6-5.5-5.3-8.1-8c-0.5-0.5-1-1-1.5-1.5c-0.9-0.9-1.8-1.8-2.6-2.7c-0.6-0.7-1.3-1.4-1.9-2c-0.4-0.4-0.8-0.9-1.2-1.3
							c-0.1-0.1-0.2-0.2-0.2-0.2c-0.7-0.8-1.5-1.6-2.2-2.3c-1.2-1.3-2.4-2.6-3.5-3.9c-0.3-0.3-0.6-0.7-0.9-1
							c-0.4-0.4-0.7-0.8-1.1-1.2c-0.1-0.1-0.2-0.2-0.3-0.4c-1.8-2-3.4-3.9-5-5.8c-0.4-0.5-0.8-0.9-1.2-1.4c-0.2-0.2-0.4-0.5-0.6-0.7
							c-0.3-0.4-0.6-0.7-0.9-1c-0.2-0.3-0.5-0.6-0.7-0.9c-0.1-0.1-0.1-0.1-0.2-0.2c-0.4-0.5-0.8-1-1.2-1.4c-0.2-0.3-0.4-0.5-0.6-0.8
							c-0.2-0.3-0.4-0.5-0.6-0.8c-0.4-0.5-0.8-1-1.2-1.5c-0.4-0.5-0.8-0.9-1.1-1.4c-0.4-0.5-0.7-0.9-1.1-1.4
							c-0.2-0.2-0.4-0.5-0.5-0.7c-0.1-0.1-0.2-0.2-0.3-0.3c-0.1-0.1-0.2-0.2-0.3-0.3c-0.1-0.1-0.2-0.3-0.3-0.4h0
							c-0.1-0.2-0.2-0.3-0.4-0.5c-1.3-1.7-2.5-3.3-3.6-4.8c-0.2-0.3-0.4-0.5-0.5-0.7c-0.1-0.1-0.2-0.3-0.3-0.4
							c-1.7-2.3-3.1-4.2-4.1-5.7c-0.1-0.2-0.3-0.4-0.4-0.5c-0.2-0.2-0.3-0.4-0.4-0.6c-0.1-0.1-0.2-0.3-0.3-0.4
							c-0.1-0.1-0.2-0.2-0.2-0.3v0c-0.3-0.4-0.5-0.8-0.7-1c-0.3-0.5-0.5-0.7-0.5-0.7c0,0,0,0,0,0l-44.4,15.7h0l-25.1,8.8l-8.7,3.1h0
							l-109.2,38.4L380.4,271l-1-3l-0.3-0.9l-9.9-30h-76.9l-31.2,25.2l-6,4.9h0l-25.2,20.4H121.7L0.9,395.9V505h1920L1920.8,320.3
							L1920.8,320.3z M987.4,494.3c-0.6,0-0.6-1,0-1C988.1,493.3,988.1,494.3,987.4,494.3z"/>
						
							<linearGradient id="Path_34528_1_" gradientUnits="userSpaceOnUse" x1="909.3389" y1="431.0413" x2="909.0968" y2="429.9892" gradientTransform="matrix(426.947 0 0 -505.549 -386683.5625 217887.1875)">
							<stop  offset="0" style="stop-color:#1D3A61"/>
							<stop  offset="0.761" style="stop-color:#23538B"/>
							<stop  offset="1" style="stop-color:#26579A"/>
						</linearGradient>
						<path id="Path_34528" fill="url(#Path_34528_1_)" d="M1496.5,505l196.9-89.9l27.6-179.3l-91.3-136.8l-15.6-35.8l-55.3,5.8
							L1530,13.9l-45.7-14.4v31.2l-40.9,21.6H1405l-105.7,96l-5.7,356.7H1496.5z"/>
						<path id="Path_34529" opacity="0.1" fill="#061729" enable-background="new    " d="M1484.3-0.5l55,173.5l64,37.7l-81.1,48.7
							l130.3,153c0,0,4.8,81.3-289.6,85.2l75.4-172.2l26-113.6l-59.4,17.1V52.3h38.4l40.9-21.6L1484.3-0.5z"/>
						
							<linearGradient id="Path_34530_1_" gradientUnits="userSpaceOnUse" x1="908.0535" y1="431.9713" x2="908.6826" y2="430.66" gradientTransform="matrix(318.5255 0 0 -251.816 -288756.5313 108961.4141)">
							<stop  offset="0" style="stop-color:#FEC55E"/>
							<stop  offset="0.34" style="stop-color:#B79BA1"/>
							<stop  offset="0.422" style="stop-color:#4E639B"/>
							<stop  offset="1" style="stop-color:#26459A"/>
						</linearGradient>
						<path id="Path_34530" fill="url(#Path_34530_1_)" d="M774.1,365.5c12.2-21.3,9.5-38.7-1.9-52.9l-32.9,49.3
							c-73.6,4.5-145.1-94.4-155-108.7l0,0l-26.4,28.3l7.2,28.8L523,330.7l24,56.4L463.2,505h41.7l19.3-29.1
							C524.2,475.9,719.5,461.5,774.1,365.5z"/>
						<linearGradient id="SVGID_12_" gradientUnits="userSpaceOnUse" x1="0.855" y1="371.043" x2="369.195" y2="371.043">
							<stop  offset="0" style="stop-color:#1D3A61"/>
							<stop  offset="0.399" style="stop-color:#1D3F61"/>
							<stop  offset="0.856" style="stop-color:#23538B"/>
							<stop  offset="1" style="stop-color:#26579A"/>
						</linearGradient>
						<polygon fill="url(#SVGID_12_)" points="369.2,237.1 333,267.1 331.5,268.3 331.5,268.3 312.8,283.9 291.1,301.9 323.5,351.1 
							323.5,351.1 320.4,354.4 257.5,421.4 250.7,465.7 244.6,505 0.9,505 0.9,395.9 121.7,287.5 229.8,287.5 255.1,267.1 
							255.1,267.1 261.1,262.3 292.3,237.1 						"/>
						
							<linearGradient id="Path_34532_1_" gradientUnits="userSpaceOnUse" x1="906.02" y1="431.1875" x2="907.0213" y2="431.1875" gradientTransform="matrix(188.39 0 0 -253.522 -170289.4844 109693.7578)">
							<stop  offset="0" style="stop-color:#1D4461"/>
							<stop  offset="0.384" style="stop-color:#2B4067"/>
							<stop  offset="1" style="stop-color:#26459A"/>
						</linearGradient>
						<path id="Path_34532" fill="url(#Path_34532_1_)" d="M463.2,505L547,387.1l-24-56.4l42.1-20.4l-7.2-28.8l26.4-28.3
							c-0.8-1.1-1.2-1.7-1.2-1.7l-187.5,66L452.5,505L463.2,505z"/>
						
							<linearGradient id="Path_34533_1_" gradientUnits="userSpaceOnUse" x1="908.4155" y1="430.9039" x2="909.4168" y2="430.9039" gradientTransform="matrix(373.3311 0 0 -318.254 -338634.8438 137482.75)">
							<stop  offset="0" style="stop-color:#1D3561"/>
							<stop  offset="0.761" style="stop-color:#234F8B"/>
							<stop  offset="1" style="stop-color:#265C9A"/>
						</linearGradient>
						<path id="Path_34533" fill="url(#Path_34533_1_)" d="M524.2,475.9L504.9,505h362.3l-2.9-96.3L833,323.5l45.7-58.8v-77.9
							l-72.1,74.3l-62.8,94.1c-1.4,2.2-2.9,4.5-4.5,6.7C662.5,472.5,524.2,475.9,524.2,475.9z"/>
						
							<linearGradient id="SVGID_13_" gradientUnits="userSpaceOnUse" x1="907.0814" y1="431.7603" x2="908.0826" y2="431.7603" gradientTransform="matrix(241.224 0 0 -179.718 -217945.5469 78010.2344)">
							<stop  offset="0" style="stop-color:#1D3561"/>
							<stop  offset="0.761" style="stop-color:#23478B"/>
							<stop  offset="1" style="stop-color:#265C9A"/>
						</linearGradient>
						<path fill="url(#SVGID_13_)" d="M1101.1,501.5l-67.8-50.5l-12.9-9.6l-1.7-1.3h0l-12-9l-0.9-0.7h0l-12-9l-1.6-1.2l-13-9.7
							l-30.3-22.5l-84.4-62.8v83.4l2.3,75.3l0.1,4.4l0.1,2.5l0.1,2.2l0.1,2.8l0.1,3.5l0.1,2l0.1,1.8l0,1.8h238.6L1101.1,501.5z
							 M987.4,494.3c-0.6,0-0.6-1,0-1C988.1,493.3,988.1,494.3,987.4,494.3z"/>
						
							<linearGradient id="Path_34535_1_" gradientUnits="userSpaceOnUse" x1="907.4041" y1="430.145" x2="907.8062" y2="431.1192" gradientTransform="matrix(244.8229 0 0 -431.141 -221098.7813 185944.375)">
							<stop  offset="0" style="stop-color:#1D3561"/>
							<stop  offset="0.761" style="stop-color:#23478B"/>
							<stop  offset="1" style="stop-color:#264E9A"/>
						</linearGradient>
						<path id="Path_34535" fill="url(#Path_34535_1_)" d="M1155.1,112.3l57.7-38.4l21.6,139.2l-60.1,24L1159,505h-53.2L989.2,280.4
							l165.8-139.3V112.3z"/>
						
							<linearGradient id="Path_34536_1_" gradientUnits="userSpaceOnUse" x1="908.5301" y1="430.9235" x2="909.1354" y2="429.9451" gradientTransform="matrix(395.5769 0 0 -505.55 -357954.375 217887.625)">
							<stop  offset="0" style="stop-color:#FEC55E"/>
							<stop  offset="0.26" style="stop-color:#BAA5A9"/>
							<stop  offset="0.422" style="stop-color:#4E5D9B"/>
							<stop  offset="1" style="stop-color:#264A9A"/>
						</linearGradient>
						<path id="Path_34536" fill="url(#Path_34536_1_)" d="M1603.3,210.7l-81.1,48.7l36.6,37.7l93.7,115.2c0,0-87.7-18.2-203.2,92.7
							h396.1l-90.7-150.3l25.2-31.5l-12-59.7L1647.3,49.6l-163-50.2l55,173.5L1603.3,210.7z"/>
						
							<linearGradient id="Path_34537_1_" gradientUnits="userSpaceOnUse" x1="905.279" y1="431.765" x2="906.2576" y2="430.7034" gradientTransform="matrix(152.791 0 0 -237.61 -136493.4219 102858.9375)">
							<stop  offset="0" style="stop-color:#1D2F61"/>
							<stop  offset="0.761" style="stop-color:#233B8B"/>
							<stop  offset="1" style="stop-color:#26459A"/>
						</linearGradient>
						<path id="Path_34537" fill="url(#Path_34537_1_)" d="M1864,365.5c0,0,19.2,101,56.9,135.6V320.3l-153-56.8l4.8,24
							C1772.7,287.5,1817.1,305.5,1864,365.5z"/>
						
							<linearGradient id="Path_34538_1_" gradientUnits="userSpaceOnUse" x1="906.2268" y1="431.5267" x2="907.5797" y2="430.491" gradientTransform="matrix(207.66 0 0 -267.922 -187992.5 115875.5859)">
							<stop  offset="0" style="stop-color:#FEC55E"/>
							<stop  offset="0.26" style="stop-color:#BEAAAE"/>
							<stop  offset="0.422" style="stop-color:#4E6F9B"/>
							<stop  offset="1" style="stop-color:#244990"/>
						</linearGradient>
						<path id="Path_34538" fill="url(#Path_34538_1_)" d="M369.2,237.1l-78.1,64.8l32.4,49.2l-66.1,70.3L244.6,505h207.9
							l-56.9-187.5L369.2,237.1z"/>
						
							<linearGradient id="Path_34539_1_" gradientUnits="userSpaceOnUse" x1="907.0906" y1="431.3044" x2="907.9271" y2="430.3718" gradientTransform="matrix(241.2251 0 0 -320.732 -217946.5469 138546.5469)">
							<stop  offset="0" style="stop-color:#FEC55E"/>
							<stop  offset="0.26" style="stop-color:#B5ABAD"/>
							<stop  offset="0.422" style="stop-color:#4E749B"/>
							<stop  offset="1" style="stop-color:#26609A"/>
						</linearGradient>
						<path id="Path_34539" fill="url(#Path_34539_1_)" d="M924.6,222.9l-43.5-38.7l-2.4,80.4l-14.4,60.6L1030.7,505h75.1
							L989.2,280.3L924.6,222.9z"/>
						<path id="Path_34540" opacity="0.2" fill="#FFFFFF" enable-background="new    " d="M881.1,184.3l28.8,68.1l14.7,18.5
							l-20.7,21.6h25.2L1056,408.9l-66.7-128.6L881.1,184.3z"/>
						<path id="Path_34541" opacity="0.1" fill="#030108" enable-background="new    " d="M989.2,280.3l46.6,89.8l58,111.8
							l-31.3-145.8l-34.8-9l39.6-4.8L989.2,280.3z"/>
						
							<linearGradient id="Path_34542_1_" gradientUnits="userSpaceOnUse" x1="907.3015" y1="431.0162" x2="907.7776" y2="430.0829" gradientTransform="matrix(249.2771 0 0 -431.1429 -224986.375 185945.2031)">
							<stop  offset="0" style="stop-color:#FEC55E"/>
							<stop  offset="0.26" style="stop-color:#BCB0B2"/>
							<stop  offset="0.422" style="stop-color:#4E6F9B"/>
							<stop  offset="1" style="stop-color:#26539A"/>
						</linearGradient>
						<path id="Path_34542" fill="url(#Path_34542_1_)" d="M1212.7,73.9l86.5,74.4l39.6,115.2l69.7,145.5l-22.8,96.1H1159
							l15.3-267.9l60.1-24L1212.7,73.9z"/>
						<path id="Path_34543" opacity="0.2" fill="#030108" enable-background="new    " d="M1234.4,213.1l-60.1,24l-5.3,92.5
							l-15.9-104.8L1234.4,213.1z"/>
						<path id="Path_34544" opacity="0.1" fill="#030108" enable-background="new    " d="M796.7,345.9l-14.6,47.6h14.6V433
							l21.6-43.6l-18.1-8.4l18.1-17.3l-18.1-0.9l9.1-58.5L796.7,345.9z"/>
						<path id="Path_34545" opacity="0.1" fill="#030108" enable-background="new    " d="M1369.5,127.3l-6.6,93l9.6-18.6l3,120.6
							l8.4-133.8L1369.5,127.3z"/>
						<path id="Path_34546" opacity="0.1" fill="#030108" enable-background="new    " d="M220.8,331.6l85.9-64.2l-46.3,50.4
							c0,0,22.8-16.7,15-4.1s-70.3,110.8-70.3,110.8l46.3-89.9L220.8,331.6z"/>
					</g>
				</g>
				<g id="Layer_8" transform="translate(1338.585 180.941)">
					<path id="Path_34559" fill="#1E1D61" d="M498.9,101.9l7.8-58.5l7.8,58.5H498.9z"/>
					<path id="Path_34560" fill="#1E1D61" d="M510.9,101.9l9.6-71.9l9.6,71.9H510.9z"/>
					<path id="Path_34561" fill="#1E1D61" d="M525.8,101.9l8.5-63.9l8.5,63.9H525.8z"/>
					<path id="Path_34562" fill="#1E1D61" d="M535.5,101.9l6.7-50l6.7,50H535.5z"/>
					<path id="Path_34563" fill="#1E1D61" d="M556.7,101.9l6.7-50l6.7,50H556.7z"/>
					<path id="Path_34564" fill="#1E1D61" d="M577.9,101.9l6.7-50l6.7,50H577.9z"/>
					<path id="Path_34565" fill="#1E1D61" d="M599.2,101.9l6.7-50l6.7,50H599.2z"/>
					<polygon fill="#111B36" points="188.1,614.8 68.9,614.8 78.8,570.8 86.9,534.6 98.5,519.7 90.3,519.6 131.3,337.6 133.3,328.9 
						133.4,328.2 137.2,311.6 139.3,324.1 139.9,327.8 141.5,337.6 154.8,416.7 146.7,417.5 158.6,438.8 174.1,531 					"/>
					<polygon fill="#111B36" points="282.2,614.8 155.2,614.8 174.1,531 182,495.7 199,473.4 187.2,472.5 217.6,337.6 218.4,334 
						221.7,319.5 227.9,291.9 232.2,317.7 233.8,327 235.6,337.6 240.8,368.5 234.4,369.8 245.3,395.6 267.3,526.5 260.6,527.8 
						271.2,549.7 274.6,569.7 					"/>
					<polygon fill="#111B36" points="86.2,614.8 1,614.8 25.4,506.3 26.7,504.5 26.7,504.5 40.3,484.5 30.6,483.5 49.8,398.2 
						60.2,460.4 76,554.1 69.9,554.4 77.8,565 78.8,570.8 					"/>
					<polygon fill="#111B36" points="408.6,614.8 267.1,614.8 274.6,569.7 284.2,511.3 300.9,488.1 288.1,487.7 312.9,337.6 
						319.8,295.9 321.5,291.7 321.5,291.7 323.9,285.9 333.3,263 325.1,264 328.1,245.6 328.1,245.6 332.4,219.4 334.5,207 
						334.7,205.5 349.1,118.6 360.3,212.5 363.8,241.2 363.8,241.4 364.2,244.4 364.2,244.5 365.1,252.6 365.1,252.6 366.8,266.3 
						375.3,337.6 379,368.3 369.7,368.4 382.3,395.6 386.4,429.5 403,568.1 					"/>
					<polygon fill="#111B36" points="536.7,614.8 395.3,614.8 403,568.1 433.8,381.5 441.1,337.6 451.9,271.7 468.7,235.9 
						457.7,236.7 464.7,194.7 475.1,131.4 475.1,131.4 477.2,118.6 478.8,131.8 478.8,131.8 483.3,169.2 486,191.9 489.6,221.5 
						489.6,221.6 503.5,337.6 504.4,345.1 494,346.5 507.7,372.7 511.5,404.7 531.1,568.1 					"/>
					<polygon fill="#111B36" points="635.1,366.2 635.1,614.8 523.4,614.8 531.1,568.1 565.1,362.5 569.2,337.6 582.7,255.6 
						589.6,243.5 595.4,233.3 586.6,233.2 586.4,233.2 586.5,232.8 595.5,178.2 596.8,170.2 601.8,140.5 605.4,118.6 608.3,142.9 
						611.7,171.8 612.2,175.8 626.8,297 616.9,297.5 629.4,319.2 630.6,329.2 631.6,337.6 					"/>
					<polygon fill="#111B36" points="595.4,614.8 476.8,614.8 511.5,404.7 515,383.8 526.8,365.4 518.2,364.3 522.6,337.6 
						530.6,289.5 545.5,199.1 555.6,283.5 548,283.4 558,303.6 562.1,337.6 565.1,362.5 					"/>
					<polygon fill="#111B36" points="461.8,614.8 355.8,614.8 386.4,429.5 397.9,359.9 407.1,337.6 410.9,328.2 403.1,328.4 
						417.2,242.9 428.5,337.6 433.8,381.5 					"/>
					<path id="Path_34578" fill="#1E1D61" d="M546.1,101.9l7.8-58.5l7.8,58.5H546.1z"/>
				</g>
			</g>
		</g>
		<pattern  id="SVGID_14_" xlink:href="#pattern" patternTransform="matrix(1 0 0 -1 -724.266 -19504.4863)">
		</pattern>
		<path fill="url(#SVGID_14_)" d="M174.9,143.5v573h998.2v-573H174.9z M987.6,593c-0.6,0-0.6-1,0-1C988.2,592,988.2,593,987.6,593z"
			/>
	</g>
</g>
<rect display="none" width="1920" height="805"/>
</svg>
