<?xml version="1.0" encoding="utf-8"?>
<!-- Generator: Adobe Illustrator 24.1.2, SVG Export Plug-In . SVG Version: 6.00 Build 0)  -->
<svg version="1.1" id="Слой_1" xmlns="http://www.w3.org/2000/svg" xmlns:xlink="http://www.w3.org/1999/xlink" x="0px" y="0px"
	 width="231.7px" height="205px" viewBox="0 0 231.7 205" enable-background="new 0 0 231.7 205" xml:space="preserve">
<g>
	<defs>
		<rect id="SVGID_1_" width="231.7" height="204.5"/>
	</defs>
	<clipPath id="SVGID_2_">
		<use xlink:href="#SVGID_1_"  overflow="visible"/>
	</clipPath>
	<g clip-path="url(#SVGID_2_)">
		<rect x="26.5" y="0.5" fill="none" width="216" height="204"/>
		<g id="Mask_Group_50">
			<g id="Group_20452" transform="translate(132.442 2014.837)">
				<path id="Path_50404" fill="#0E6C75" d="M64.3-1880.3c-14-6.8-34-8.3-54.2-30.5c-37.8-41.4-92.7-55.4-122.7-1.3
					s-18.1,104.2,39.7,117c42.4,9.4,61.1-11.2,84.8,0.1c44.1,21.1,77.3,3.7,82.1-29.4S82.8-1871.2,64.3-1880.3z"/>
			</g>
		</g>
		<g id="Group_20391" transform="translate(61.199 1995.228)">
			<path id="Path_44088" fill="#E4B62C" d="M75.7-1873.1c8.1,0.6,17-2.3,2.5-8.1s-8.3,1.4-4.6,2.1s10.4-0.2,16.4-3
				c5.2-2.4,12.2-10.8-9.2-9.7s-4.1,5.3,0.7,5.3s15.7-16.1,11.3-20.5s-15-1.4-18.7,8.8s7.1-8.1,0.5-12.9c-4.1-3-11.1,2.5-10.1,13.8
				s2.8-1.4-0.9-4.4s-6.9,1.4-6.2,8.8S57.9-1874.5,75.7-1873.1z"/>
			<path id="Path_44089" fill="#E4B62C" d="M50.1-1911.6c4.1-0.4,7.7-1.9,14.3-8.3c6.9-6.7,3.9-12.7-5.3-7.1s-4.4,7.6-1.8,5.8
				s11-19.3,7.4-23.7c-2.3-2.8-9.4-0.5-12,6.7s5.6-3.3,0-12.9c-5.3-9-14.7-2.1-15,4.1s-2.8,12.7,1.2,15.7s-2.3-12.2-7.8-12.2
				s-5.3,6.9-2.8,10.8s4.8,7.6,11.1,10.1s-6.2-6.4-10.6-3.9S31-1909.8,50.1-1911.6z"/>
			<path id="Path_44090" fill="#29CB97" d="M66.5-1874.9c4.5,1.7,7.3-2.4,3.2-5.8s-5.4-1.6-5.6,0.3s4.7-1.1,4.8-4.1
				c0.2-2.9-4.5-6.2-7.3-3.1c-2.2,2.5-0.7,5.3,0,3.9s-2.1-8.5-3.5-6.9s-0.8,6.4,1.4,10.4C60.7-1878.2,64.4-1875.7,66.5-1874.9z"/>
			<path id="Path_44091" fill="#29CB97" d="M52.9-1911.5c4.2-2.4,2.5-6.5-0.9-5.4c-1.3,0.5-5.4,3.3-4.5,4.5c1.1,1.5,3.4-3.3,0-6.4
				c-2.2-2-5.9,1.2-5,4c1,3.2,2.2,2.7,1.5,1.4s-8-3.5-7.6-1.5s2.7,4.1,7.1,4.8C46.7-1909.6,50-1910,52.9-1911.5z"/>
			<path id="Path_44092" fill="none" stroke="#75CC96" stroke-width="5.128" stroke-miterlimit="10" d="M61.2-1881.6
				c0,0-9.3-1-11.7,18.3s7.9,33.5,4.1,56"/>
			<path id="Path_44093" fill="none" stroke="#75CC96" stroke-width="5.128" stroke-miterlimit="10" d="M47.5-1912.4
				c-3.5,8.3-5.4,17.2-5.7,26.3c-0.3,14.5,18.7,35.6,19.7,53.2s-3.8,23.5-9.3,33.2"/>
		</g>
	</g>
</g>
</svg>
