<?xml version="1.0" encoding="utf-8"?>
<!-- Generator: Adobe Illustrator 24.1.2, SVG Export Plug-In . SVG Version: 6.00 Build 0)  -->
<svg version="1.1" id="Слой_1" xmlns="http://www.w3.org/2000/svg" xmlns:xlink="http://www.w3.org/1999/xlink" x="0px" y="0px"
	 width="1962px" height="230px" viewBox="0 0 1962 230" style="enable-background:new 0 0 1962 230;" xml:space="preserve">
<style type="text/css">
	.st0{opacity:0.3;}
	.st1{fill:#FFFFFF;}
	.st2{opacity:0.2;}
	.st3{display:none;fill:#FFE13C;}
	.st4{fill:#FFE13C;}
</style>
<g id="Group_18749" transform="translate(1052.057 1135.614)" class="st0">
	<path id="Path_49840" class="st1" d="M324.9-993.3c-5.5,0-10.9,1.5-15.6,4.3c-2.4-11.9-14.1-19.5-25.9-17.1
		c-10.2,2.1-17.5,11.1-17.5,21.5c0,0.4,0,0.8,0,1.1c-13.8-4.2-28.4,3.6-32.6,17.4c-4.2,13.8,3.6,28.4,17.4,32.6
		c2.5,0.7,5,1.1,7.6,1.1H325c16.9,0,30.5-13.6,30.5-30.5S341.8-993.3,324.9-993.3C325-993.3,324.9-993.3,324.9-993.3L324.9-993.3z"
		/>
</g>
<g id="Group_18751" transform="translate(1052.057 1135.614)" class="st2">
	<path id="Path_49849" class="st1" d="M810-1065c-7.9,0-15.7,2.1-22.5,6.2c-3.5-17.1-20.3-28.1-37.4-24.6c-14.7,3-25.2,16-25.3,31
		c0,0.5,0,1.1,0,1.6c-19.9-6.1-41,5.2-47,25.1c-6.1,19.9,5.2,41,25.1,47c3.6,1.1,7.2,1.6,11,1.6h96c24.3,0,44-19.7,44-43.9
		C853.9-1045.3,834.3-1065,810-1065L810-1065z"/>
</g>
<g id="Group_18748" transform="translate(-487.943 1217.614)" class="st0">
	<path id="Path_49839" class="st1" d="M595.8-1195c-6.5,0-12.8,1.7-18.4,5.1c-2.9-14-16.6-23-30.6-20.2
		c-12.1,2.5-20.7,13.1-20.7,25.4c0,0.4,0,0.9,0,1.3c-16.3-5-33.5,4.2-38.5,20.5s4.2,33.5,20.5,38.5c2.9,0.9,5.9,1.3,9,1.3h78.6
		c19.9,0,36-16.1,36-36S615.7-1195,595.8-1195L595.8-1195z"/>
</g>
<path id="Path_49864" class="st3" d="M1918.6,0.1v55.4c0,0-13.4,6.1-25.3,5.2c-55.5-4.4-59.9-60.6-59.9-60.6L1918.6,0.1z"/>
<circle id="Path_49864-2" class="st4" cx="1896.4" cy="-2.8" r="63.1"/>
<g id="Group_18750" transform="translate(1657.057 1130.614)">
	<path id="Path_49841" class="st1" d="M219-1103.1c-5.4,0-10.7,1.5-15.4,4.2c-2.4-11.7-13.9-19.2-25.6-16.8
		c-10.1,2.1-17.3,10.9-17.3,21.2c0,0.4,0,0.7,0,1.1c-13.6-4.1-28,3.5-32.2,17.2c-4.1,13.6,3.5,28,17.2,32.2c2.4,0.7,5,1.1,7.5,1.1
		h65.7c16.6,0,30.1-13.5,30.1-30.1C249.1-1089.6,235.6-1103.1,219-1103.1L219-1103.1z"/>
</g>
</svg>
