<svg xmlns="http://www.w3.org/2000/svg" width="43.999" height="48" viewBox="0 0 43.999 48">
  <path id="Shape" d="M24.3,48h0c-4.418,0-9.413-3.2-14.064-9.023a50.532,50.532,0,0,1-5.648-8.931A48.229,48.229,0,0,1,.935,20.258,25.05,25.05,0,0,1,.339,9.59,9.477,9.477,0,0,1,5.179,2.644L10.867,0,18.95,15.78,13.5,18.462c-.632,1.478,1.005,5.671,2.954,8.869,1.441,2.365,2.8,3.814,3.64,3.875.178-.114,5.29-2.631,5.342-2.656l8.221,15.864-1.488.729c-1.634.8-4.1,2.008-4.22,2.063A8.737,8.737,0,0,1,24.3,48ZM9.04,5.192,6.994,6.2a5.979,5.979,0,0,0-2.964,4.733,20.222,20.222,0,0,0,.626,7.731,50.8,50.8,0,0,0,8.027,16.871,30.538,30.538,0,0,0,5.711,6.106,9.72,9.72,0,0,0,5.735,2.4,5.165,5.165,0,0,0,2.162-.465l1.942-.948L23.69,33.858l-2.052,1a3.247,3.247,0,0,1-1.438.331c-1.854,0-4.013-1.476-6.082-4.156a24.484,24.484,0,0,1-4.187-8.525A11.328,11.328,0,0,1,9.6,17.925a3.883,3.883,0,0,1,1.929-2.942l2.014-.995ZM43.193,26h0l-3.679-1.1a15.449,15.449,0,0,0-10.4-19.222L30.212,2A19.277,19.277,0,0,1,43.193,26Zm-6.372-1.9h0l-3.589-1.07a8.9,8.9,0,0,0-5.99-11.066l1.072-3.592A12.644,12.644,0,0,1,36.821,24.1Zm-6.283-1.87h0L24.7,20.49l1.738-5.832a6.087,6.087,0,0,1,4.1,7.571Z" transform="translate(-0.003)" fill="#0e6c75"/>
</svg>
