<?xml version="1.0" encoding="utf-8"?>
<!-- Generator: Adobe Illustrator 24.1.2, SVG Export Plug-In . SVG Version: 6.00 Build 0)  -->
<svg version="1.1" id="Слой_1" xmlns="http://www.w3.org/2000/svg" xmlns:xlink="http://www.w3.org/1999/xlink" x="0px" y="0px"
	 viewBox="0 0 958.5 645.5" enable-background="new 0 0 958.5 645.5" xml:space="preserve">
<g id="Mask_Group_44">
	<g id="Group_13231" transform="translate(149.91 3801)">
		<linearGradient id="SVGID_1_" gradientUnits="userSpaceOnUse" x1="189.254" y1="-3097.6465" x2="380.1123" y2="-3730.9209">
			<stop  offset="0" style="stop-color:#0E6C75"/>
			<stop  offset="0.172" style="stop-color:#2E4354"/>
			<stop  offset="0.557" style="stop-color:#4D6882"/>
			<stop  offset="1" style="stop-color:#7792AA;stop-opacity:0.827"/>
		</linearGradient>
		<path fill="url(#SVGID_1_)" d="M563.3-3584.1v428.6h-39.1l-249.8,0H172.1l-68.6,0H86.6l-43.2,0h-193.4c0,0,53.3-79.3,147.8-282.6
			c86.5-186,166.2-91.5,333.2-196.3c30.7-19.3,63.6-22.7,94.7-18c2.9,0.4,5.8,0.9,8.7,1.5c1.6,0.3,3.1,0.6,4.7,1
			c12.2,2.8,23.9,6.6,35.1,11.1c0,0,0,0,0,0c1.8,0.7,3.6,1.5,5.4,2.2c0.5,0.2,1,0.4,1.5,0.7c4.7,2.1,9.2,4.2,13.7,6.4
			c0.9,0.4,1.8,0.9,2.7,1.3c4.3,2.2,8.4,4.4,12.4,6.7c2.3,1.3,4.4,2.6,6.6,3.8c0.8,0.5,1.5,0.9,2.3,1.4c1.1,0.7,2.2,1.4,3.3,2.1
			c2.7,1.7,5.4,3.4,7.9,5.1c0.4,0.3,0.9,0.6,1.3,0.8c1.6,1.1,3.1,2.1,4.6,3.1C553-3593.4,563.3-3584.1,563.3-3584.1z"/>
		<path id="Path_39521" fill="#AF6A2B" d="M331.4-3558.9h5.3v8.5h2.9v-8.5h6.8l-7.5-39.7L331.4-3558.9z"/>
		<path id="Path_39522" fill="#AF6A2B" d="M623.2-3658.9h5.3v8.5h2.9v-8.5h6.8l-7.5-39.7L623.2-3658.9z"/>
		<path id="Path_39523" fill="#AF6A2B" d="M643.7-3665.6h8.2v13.2h4.6v-13.2h10.6l-11.7-61.6L643.7-3665.6z"/>
		<linearGradient id="SVGID_2_" gradientUnits="userSpaceOnUse" x1="412.1963" y1="-3050.9114" x2="685.3817" y2="-3718.5496">
			<stop  offset="0" style="stop-color:#0E6C75"/>
			<stop  offset="0.117" style="stop-color:#2E4354"/>
			<stop  offset="0.642" style="stop-color:#7792AA"/>
			<stop  offset="1" style="stop-color:#7792AA"/>
		</linearGradient>
		<path fill="url(#SVGID_2_)" d="M808.6-3584.1v428.6H524.2l-249.8,0c0,0,0,0,0,0h-99.7l-1.5,0h-1l-40.9-1l-27.8-0.6l-1.4,0
			c0,0,0.4-0.6,1.2-2c0-0.1,0.1-0.2,0.1-0.2c0-0.1,0.1-0.1,0.1-0.2c2.5-4.3,8.5-14.8,18-32.3v0c0.3-0.6,0.6-1.1,0.9-1.7l0,0
			c2-3.7,4.2-7.8,6.5-12.1c23.1-43.4,61.1-118,114.3-232.4c9.5-20.4,18.9-37.4,28.3-51.7c21-31.8,42.3-50,65.1-61.7
			c1-0.5,1.9-1,2.9-1.4c18.9-9.1,39-14,60.9-18.4c2.4-0.5,4.7-0.9,7.1-1.4c7.1-1.4,14.4-2.8,22-4.4c6.2-1.3,12.6-2.6,19.2-4.2
			c0,0,0,0,0,0c4.4-1,8.9-2.1,13.5-3.4h0c12.8-3.4,26.1-7.4,40.2-12.8c6.8-2.6,13.7-5.4,20.9-8.6c2.2-1,4.4-2,6.6-3
			c0.4-0.2,0.8-0.4,1.2-0.6c0.4-0.2,0.9-0.4,1.3-0.6c13.9-6.6,28.6-14.6,43.9-24.2c16.9-10.6,34.5-16.4,52.1-18.7
			c1-0.1,2-0.3,2.9-0.4c6.9-0.7,13.7-0.9,20.5-0.7c1.5,0.1,3,0.1,4.6,0.2c51.8,3.3,100.5,31.8,128.2,51.4
			C799.4-3592.4,808.2-3584.5,808.6-3584.1C808.6-3584.1,808.6-3584.1,808.6-3584.1z"/>
		<path id="Path_39525" fill="#8A939F" d="M262.6-3708.6c0,0,10.3,31.1,25.5,36.8c0,0,8.4-1.7,11.7,0c3.3,1.7,2,2.7,2,2.7l3.8,1.9
			l-5.2-1.1c0,0-2.7,1.3-3.5,1.1c-0.8-0.2-0.1,1.3,0.9,2.1c1.1,0.8,17.6,12.6,27.3,12.3c9.7-0.2-3.9,3.1-6.3,2.3
			c-2.4-0.9,5.7,2.9,5.7,2.9s-10.5,2.5-14,0.8s-21.7-6.7-25.4-14.2c0,0-8.9,8.9-12.3,8.9s-7.4-7.8-7.4-7.8l11.6-5.1
			c0,0-18.1-11.7-19.4-14.2l4.9,0.1c0,0-10.9-5.8-8.1-18.4l3.6-0.1c0,0-2.8-4-2.2-8l5.2,6C260.9-3699.8,258.1-3705,262.6-3708.6z"/>
		<path fill="#CF852F" d="M808.6-3438.2v281.6h-0.5l-110,0l-26.7,0h-15.9l-43.5,0h-56.1l-31.1,0l-147.6,0l-102.3,0h-47.2l-1.7,0
			h-15.9l-78.9,0H87.5l-44,0h-10c0,0,3.4-1.9,10-5.5c6.3-3.4,15.6-8.4,27.5-14.5c0.8-0.4,1.7-0.9,2.6-1.3c5.9-3,12.4-6.4,19.4-10
			c10.7-5.5,22.8-11.5,36.1-18c62.7-30.8,152-72.1,255.2-112c5.8-2.3,11.7-4.5,17.6-6.7c40.5-15.4,82.9-30.5,126.6-44.6
			c5.7-1.8,11.4-3.6,17.1-5.4c6-1.9,11.9-3.7,18-5.6c16.7-5.1,33.5-10.1,50.5-14.8c1.2-0.4,2.5-0.7,3.7-1
			c34.4-9.6,69.3-18.3,104.2-25.9c0.8-0.2,1.6-0.4,2.5-0.5c3.3-0.7,6.7-1.4,10-2.1c0.9-0.2,1.8-0.4,2.6-0.6
			c4.1-0.9,8.2-1.7,12.4-2.5c3.5-0.7,6.9-1.4,10.4-2c0.4-0.1,0.8-0.2,1.2-0.2c5.7-1.1,11.4-2.1,17-3.2
			C788.1-3434.9,798.3-3436.6,808.6-3438.2L808.6-3438.2z"/>
		<polyline fill="none" points="43.5,-3155.5 43.5,-3155.6 43.5,-3156.5 43.5,-3161.9 43.5,-3178.4 43.5,-3489.9 271.5,-3489.9 
			423.7,-3489.9 426.9,-3489.9 429.4,-3489.9 431.3,-3489.9 435,-3489.9 437.9,-3489.9 448.9,-3489.9 530.3,-3489.9 563.3,-3489.9 
			618.8,-3489.9 622.5,-3489.9 780.1,-3489.9 808.6,-3489.9 808.6,-3489.9 808.6,-3438.2 808.6,-3409.4 808.6,-3361.6 
			808.6,-3321.6 808.6,-3262.4 808.6,-3260.1 808.6,-3236.9 808.6,-3189.5 808.6,-3160.2 808.6,-3160.2 808.1,-3156.6 808,-3155.5 
			703.1,-3155.5 671.4,-3155.5 611.5,-3155.5 563.3,-3155.5 555.5,-3155.5 		"/>
		<path id="Path_39529" fill="none" stroke="#D6953F" stroke-miterlimit="10" d="M443.1-3274.4c91.4-45.8,186-84.7,283.1-116.6"/>
		<path id="Path_39530" fill="#472E19" d="M737.8-3372.6c0,0-5.2-43-24.5-59c0,0,13.2-3.5,28.6,57.5c0,0-5.2-52.5-16.3-81.2
			c0,0,0.4-3.1,4,4.1c3.6,7.2,12.1,44.9,16.2,78.6l22.1-37.3c0,0-14-9.8-17.9-16c-3.9-6.2,2.4-9.1,5.9-6.5s6.1,4.8,6.1,4.8
			s-15.4-28.2-14.6-34.9s3.6-6.1,6.1-2.4c2.5,3.7,13.5,25.3,14.5,25.6c1.1,0.3-1.2-9-1.2-9s0-6.8,4.9-0.5s4.3,6.3,4.3,6.3
			s-7.3-22.3-5-28.7c2.3-6.4,9.7,7.7,11.7,13l25.9-0.1v85.7L737.8-3372.6z"/>
		<path id="Path_39531" fill="#85351C" d="M775.3-3372.6l11.3-275.1c0,0-13.7-10.3-24.5-13.3c0,0,0.1-4.2,4.1-5.4
			c0,0,10.9,3.1,22.6,7.6l4.8-142.2h15v428.4H775.3z"/>
		<path id="Path_39532" fill="#5C2E23" d="M794.6-3738.3c0,0-39.3-37-70.3-8.7c0,0-20.3,16.5,9.8,18.5c30.1,2,60.5,1.2,60.5,1.2
			V-3738.3z"/>
		<path id="Path_39533" fill="#78351A" d="M786.6-3584.9c0,0-30.1-14.8-42-12.7c-11.9,2-24.6,6.7-16.2,17.1c0,0,7.5,6.8,26.2,3.2
			s32-2.9,32-2.9L786.6-3584.9z"/>
		<path fill="#673C1B" d="M103.5-3180.6v25.1h-83c0,0,0,0,0-0.1c0.7-1.7,4.7-9.8,15.2-6.4c11.7,3.8-14.9-13.9-23.2-10.6
			c0,0,2.5-9.6,25.9,7.7c-2.1-1.8-25.2-21.1-25.9-26.1c-0.7-5.2,2.2-9.4,11.1-4.6c5.5,2.9,13.8,10.6,19.8,17.1
			c3.8,4.1,6.7,7.7,7.3,9.2c-0.1-0.4-2.1-7.1-3.6-9.5c-1.6-2.5,4.9-5.9,11.1,4.8c-0.2-0.6-5.5-12.6-1.6-17.5c4-5.1,8.8,6.1,8.8,6.1
			s10-73.2,23-79.9c0,0-17.1,36.5-17.7,74.7c0,0,12.7-35.6,19.7-39.2c0,0-17.5,27.6-19.6,53.4h0v0c-0.1,1.7-0.2,3.4-0.2,5
			c0,0,1-2.7,2.8-6.4c4-8.4,11.8-22,19.9-21.3c4.7,0.4,3.1,5.4-0.5,11.3v0h0c-5.2,8.5-14.6,18.8-15,19.3
			C78.3-3168.9,91.3-3179,103.5-3180.6z"/>
		<path fill="#3D231F" d="M274.9-3156.5c-0.2,0.3-0.4,0.6-0.6,1c0,0,0,0,0,0h-64.3v0l0.1-1l0.7-12.5l9.1-4.1l1.3-0.6l23.8-10.8
			c0,0,9.4-0.9,22.6,13.2l8.5,8.3C276-3163.1,277.2-3160.6,274.9-3156.5z"/>
		<path fill="#301D10" d="M226-3156.5c0,0.3,0,0.6,0,1c0,0,0,0,0,0H86.6l0,0l0.9-0.9l0,0l2.1-2.1l0.2-0.2l13.7-14.3l18-18.8v0
			l7.1-7.4c0,0,6.1-4.6,12.2,0c6.1,4.6,11.6,8.1,11.6,8.1l22.6-13.3c0,0,3.3-1.8,7.8-1.7c0,0,0.1,0,0.1,0c0.7,0,1.4,0.1,2.1,0.2
			c0,0,0.1,0,0.1,0h0c3.4,0.5,7.2,2.2,10.7,6.2c8.6,9.6,21.6,23.9,24.2,26.7c0.3,0.3,0.4,0.5,0.4,0.5S226.1-3165.1,226-3156.5z"/>
		<path id="Path_39538" fill="#533219" d="M128.6-3199.3l19.8,29.4c0,0-12,0-29.6,9.3c0,0-32,2.8-34.4,1.7L128.6-3199.3z"/>
		<path id="Path_39539" fill="#3B2214" d="M153.4-3191.2l30.4,19.3c0,0,11.1,2.4,12.6-2.2c1.5-4.6-11.5-32.2-11.5-32.2
			c-3.5-0.2-6.9,0.6-9.9,2.3L153.4-3191.2z"/>
		<path fill="#1E100F" d="M227.8-3155.5C227.8-3155.5,227.8-3155.5,227.8-3155.5l-139.8,0l0,0l-0.5-0.9l0,0l-1.2-2.1l-0.1-0.2
			c1.2,0,2.3,0,3.5,0c1.6,0,3.2,0,4.7,0h0.1c2.9,0,5.8-0.1,8.7-0.3c0.1,0,0.2,0,0.2,0c4.9-0.3,9.8-0.7,14.6-1.4c0.1,0,0.3,0,0.4,0
			c0.1,0,0.2,0,0.3,0c0,0,6.3-3.8,15.6-6.6c4.7-1.4,10.1-2.5,15.9-2.8l7.8,4.3c0,0,13.8-5.6,28.8-5.8h0c1.4,0,2.9,0,4.4,0.1
			c0,0,0,0,0,0c0.3,0,0.6,0,0.9,0.1c0,0,6.4-0.3,4.9-5.8c-0.5-1.9-2.2-6.1-4.1-10.7c-0.1-0.1-0.1-0.2-0.1-0.4
			c-3.2-7.6-7.1-16.3-7.8-17.9c0-0.1-0.1-0.1-0.1-0.2c0-0.1-0.1-0.1-0.1-0.1c3.4,0.5,6.7,1.7,9.6,3.5c3.8,2.6,22.4,23.9,26.8,29
			c0.6,0.7,1,1.1,1,1.1c3.4,4.7,5.3,10.3,5.6,16.1C227.8-3156.2,227.8-3155.9,227.8-3155.5z"/>
		
			<linearGradient id="Path_39541_1_" gradientUnits="userSpaceOnUse" x1="-302.4344" y1="-3374.855" x2="-302.1644" y2="-3376.48" gradientTransform="matrix(279.9899 0 0 -80.6772 85161.1172 -275505.4375)">
			<stop  offset="0" style="stop-color:#765C31"/>
			<stop  offset="0.303" style="stop-color:#735830"/>
			<stop  offset="0.549" style="stop-color:#6A4E2E"/>
			<stop  offset="0.774" style="stop-color:#5B3D2C"/>
			<stop  offset="0.782" style="stop-color:#5B3D2C"/>
		</linearGradient>
		<path id="Path_39541" fill="url(#Path_39541_1_)" d="M655.5-3156.5c0,0-7.8-87.2-46.5-80.3c-38.6,6.9-48.9,32.9-64,17.8
			c-15.1-15.1-49.8-9-53.6,12.7c-3.8,21.7-41,24.2-44.4,11.2s-32.6-4.6-32.5,12.3s-22.8,18.4-22.8,12.8c0-5.6-22.3,1.6-14.5,13.4
			L655.5-3156.5z"/>
		<linearGradient id="SVGID_3_" gradientUnits="userSpaceOnUse" x1="839.6451" y1="-3382.2402" x2="587.0521" y2="-3108.9492">
			<stop  offset="0" style="stop-color:#745B3D"/>
			<stop  offset="0.307" style="stop-color:#71573B"/>
			<stop  offset="0.556" style="stop-color:#694D36"/>
			<stop  offset="0.782" style="stop-color:#5C3D2E"/>
		</linearGradient>
		<path fill="url(#SVGID_3_)" d="M524.2-3155.5c0.1-0.2,0.3-0.6,0.5-1c0,0,0,0,0-0.1c2.3-4.1,10.8-16.7,26.3-15
			c5.2,0.6,9.2,0,12.3-1c7.9-2.7,9.7-8.8,9.7-8.8s6.4-13.9-7.2-29.5c-0.9-1-1.7-2.1-2.5-3.3c-0.5-0.7-0.9-1.4-1.3-2.1v0
			c-9.1-15.8-6.3-37.7-6.3-37.7s1-7.4,7.6-13.9c4-3.9,10.1-7.5,19.3-9c24.3-3.8,34.2,6.7,35.3,6.7c1.2,0,14.2,7.8,16.8-6.1
			c0,0-1.3-10.1-5.8-12.2c-4.6-2,9-10.7,9-10.7c0.1-5.6-1.3-11.1-4.1-15.9c-4.6-8.4-2.9-19.7-2.9-19.7s4.6-12.6,18.5-5.9
			c13.9,6.7,16.3-11.9,16.3-11.9s-3.3-7.4-4-16.2c-0.7-9.4,1.4-20.4,13.5-26.1c20.4-9.6,35.4,4.1,38.9,7.8c0.5,0.6,0.8,0.9,0.8,0.9
			s10.6,10,22.1,8.9c1.3-0.1,2.5-0.4,3.8-0.8c0.2-0.1,0.4-0.1,0.5-0.2c1.1-0.4,2.3-1,3.4-1.7c0.6-0.4,1.2-0.8,1.8-1.3
			c0,0,6.1-3.8,8.7-13.6c1.7-6.2,4.3-12,7.8-17.4c0,0,0.4-0.3,1-0.7c2-1.3,6.6-3.9,13-5c8.2-1.5,19.3-0.7,31.4,8.4c0,0,0,0,0,0v47.8
			v40v59.2v2.3v23.2v47.4v29.2v3.7v1.1h0H808H703.1h-31.7h-59.9h-48.2h-7.8H524.2z"/>
		<linearGradient id="SVGID_4_" gradientUnits="userSpaceOnUse" x1="820.09" y1="-3360.6653" x2="638.6444" y2="-3109.3584">
			<stop  offset="0.676" style="stop-color:#55412D"/>
			<stop  offset="0.743" style="stop-color:#5F4A32"/>
			<stop  offset="0.89" style="stop-color:#705A3C"/>
			<stop  offset="1" style="stop-color:#766040"/>
		</linearGradient>
		<path fill="url(#SVGID_4_)" d="M808.6-3361.6v206.1H555.5c0.1-0.2,0.2-0.5,0.3-1c0,0,0-0.1,0-0.1c0.7-1.8,2.6-5.3,7.4-9.3
			c5-4.1,13.1-8.9,26.2-13.2c0,0,6.9,1.3-3.9-12.6c-10.9-13.9-1.7-31.1-1.7-31.1c3.4-5,9.4-7.4,15.3-6.2c10.4,1.9,11.6-0.9,11.6-0.9
			s2.5-2.6-1.7-6.9c-4.2-4.3,4.2-11.6,4.2-11.6s8.5-4.4,20.8,4.9s13.3-3.6,13.3-3.6s0.9-4.9-1.2-7.1c-2-2.2,0.8-7.2,0.8-7.2
			c2.5-2.5,6.3-3.3,9.6-2c5.6,2.3,5.9-5.5,5.9-5.5s-0.6-8.8-5-10.6c-4.4-1.9,0.4-12,0.4-12s5.8-9.1,19.4-1
			c13.7,8.1,11.6-1.9,11.6-1.9s-4.4-5-7.6-11.7c-0.4-0.8-0.7-1.5-1.1-2.3c-1.5-3.6-2.5-7.6-2.2-11.4c0.9-12,3.6-29.6,28.1-22.8
			c0,0,17.2,7.1,27.5,23.1c10.3,15.9,7.4-10.3,7.4-10.3s-4.8-21.9,5.4-31.3c5.3-4.9,13.4-10.1,21.2-11.7c0,0,0,0,0,0s0,0,0,0
			c0,0,0,0,0,0s0,0,0,0s0,0,0,0c2.6-0.5,5.1-0.6,7.5-0.2c0.4,0.1,0.8,0.1,1.1,0.2c0,0,0,0,0,0h0c3.9,0.9,7.4,3.3,10.1,7.8
			c9.8,16.1,10.6,8.5,10.6,8.5S800.6-3366.3,808.6-3361.6z"/>
		<linearGradient id="SVGID_5_" gradientUnits="userSpaceOnUse" x1="776.7258" y1="-3281.8926" x2="711.8533" y2="-3133.5769">
			<stop  offset="0.749" style="stop-color:#6F5738"/>
			<stop  offset="0.76" style="stop-color:#705737"/>
			<stop  offset="0.901" style="stop-color:#836036"/>
			<stop  offset="1" style="stop-color:#8A6436"/>
		</linearGradient>
		<path fill="url(#SVGID_5_)" d="M808.6-3260.1v104.6H671.4l0-1.1l0.3-21.9c0,0-19.9-33.7-5.1-45.4c1-0.8,2.1-1.4,3.4-2
			c0,0,8.7-3.5,21.1,2.3c0,0,0.3-15.2-7.7-20.9c0,0-12.2-8.5-0.8-16.3c1.2-0.8,2.7-1.6,4.4-2.4c18.4-8.3,49,0,49,0l6.7,0.3
			L808.6-3260.1z"/>
		<path fill="#2A1C15" d="M808.6-3321.6v84.7l-73.7-1.6c0,0-4.4-0.1-9.4-0.7c-4.7-0.6-9.8-1.6-12.4-3.4c-5.4-3.7,12.6-7.4,12.6-7.4
			s-29.7-6.1-43.1-10.8c-3.7-1.3-6.1-2.5-6.4-3.4c-1.3-4.3-3.8-3.8-3.8-3.8s-7.6-2,0-7.5c7.6-5.5,22.1-14.5,51.7-0.7
			c0,0-2.9-8.1-10.7-10.5c0,0,0.7-2.6,15,4.7c-1-0.6-28.1-17.5-46.9-23.9c-4.5-1.5-8.5-2.5-11.7-2.4c0,0,3.3-1.2,10.6,0.1
			c9,1.5,24.1,6.7,47,22.2c0,0,2-0.9,0-2.3c-2-1.4-24.3-15.3-26.2-19.9c0,0-0.1-2.5-3.8-3.1c0,0-5.1-2.1,0.6-4.8
			c5.6-2.7,16.7-5.3,27.2,0.9c10.5,6.2,28.7,21.4,35.4,28.4c-0.4-0.5-13-18.3-11.3-24.8c1.7-6.6,7.1-4.9,7.1-4.9s7.7,0,12.7,15.2
			c5,15.2,5.4,14.5,5.4,14.5s-2-44.6-10.4-56.5c-8.5-11.9,2.6-1.7,2.6-1.7s9.8,26.2,10,45.3c0,0,12.1-42.3,18.4-46.8
			c0,0-11.5,24.9-14.7,52.1c0.5-2,1.8-4.2,4.5-4.8c5.5-1.1,0.9,12.5,0.9,12.5s2.9,1.6,4.2-2.5
			C791.1-3293.4,803.7-3321.1,808.6-3321.6z"/>
		<path fill="#9E6434" d="M808.6-3262.4v72.9h0l-65.1-4.9l-10-0.8L709-3197c0,0,1.5-5.9,4.5-14.3c2.8-7.9,6.8-18.2,12-28
			c4.8-9,10.5-17.6,17.2-23.7c1.7-1.5,3.4-2.9,5.1-4C772.7-3283.3,808.6-3262.4,808.6-3262.4z"/>
		<path fill="#302011" d="M808.6-3211.4v55.9H611.5c0.1-0.2,0.2-0.6,0.5-1c0,0,0-0.1,0-0.1c1.2-2,4.6-5.7,14-6.2
			c0,0-5.4-8.3-18.2-6.1c0,0,10.9-6.7,31.9,6.6c1.2,0.5,2.6,0.2,3.6-0.6c1.4-1.5-26-20.5-33.5-21.3c0,0-18.2-3.7-4.1-14.5
			c0,0,11-6.2,23.8,8.1c12.8,14.3,21.1,20.2,21.1,20.2s-0.3-5-3.4-7.8c0,0,2.6-0.2,5.5,1.6c1.7,1.1,3.4,2.9,4.8,5.9
			c0,0,3.7,0.3,3.1-2.6c0,0,1-0.5,3.4,0.8c1.6,0.9-6.4-15.4-18-29.3c-6-7.2-13-13.8-20.1-17.1c0,0,6.6-0.4,17.4,9.8l0,0
			c5.6,5.4,12.4,13.6,20,26.3c-0.4-0.9-17.3-37.2-10.1-51.1c0,0,6.3-6.2,13.6,9.8c1.1,2.3,2.1,5.1,3.2,8.4
			c8.5,26.3,7.2,21.1,7.2,21.1s-2-16.1-0.7-17.4s8.5,0.6,11.4,22.7c0,0,1.8-13.8,7.5-11c1.7,0.8,2.3,2.9,1.5,4.5
			c-0.1,0.1-0.1,0.3-0.2,0.4c-1,1.6-1.9,3.2-2.6,4.9c0.5-0.6,8.9-11,19.6-21.2c8.9-8.4,19.2-16.6,27.7-18.8c0,0,10.4,1,0,13.4
			l-8.1,10.1c0,0,11.3-8.4,12.8-8.4c1.4,0,6.5,2.9-2.3,8.4c0.8-0.3,30.3-10.8,40.4-2.9c0,0,3.4,1.2,1.6-1.8c-1.7-3-9.9-7.3-9.9-7.3
			s-3.5-3.2-0.5-6.5c2.9-3.4,9.1-1.7,9.1-1.7S799.2-3222,808.6-3211.4z"/>
		<path fill="#2B1C10" d="M808.6-3174.7v19.2H703.1c-1.5-0.2-3.3-0.5-5-1.1h0c-3.4-1.1-6.2-3.3-4.7-7.3c3-8.5,30.8,1,30.8,1
			s3.3,2,3.8-2.3c0.4-4.3,4.1-0.7,4.1-0.7c-0.7-1.5,0-3.2,1.4-3.8c0.2-0.1,0.5-0.2,0.7-0.2c3.3-0.9,10.9,8.2,11.9,9.4
			c-1.3-1.9-16.5-23.9-14.2-31.4c0.4-1.4,1-2.4,1.6-3.2c2.9-3.5,7.6-1.3,7.6-1.3s0.9,0.5,2.3,2c2.3,2.5,5.8,7.6,8.2,17.4
			c3.9,15.8,2-11.3,2-11.3s7-3.8,5.8,23.6c0,0,8.4-13.6,17.8-16.8c9.2-3.1-10.8,16.6-11.7,17.5c0.6-0.4,9.7-6.4,14.1-6.9
			c4.5-0.6-6.9,7.7-6.9,7.7s-0.7,2.9,5.4,0c6.1-2.9,11.7-7.5,15.9-9.3C798.3-3174.3,808.6-3174.7,808.6-3174.7z"/>
		<path id="Path_39551" fill="#6F4630" d="M428.6-3507.7l72.8,6.8c0,0,50.4,13.5,60.6,37.9c0,0,7,11.8,0,34.5
			c0,0-9.8,39.5-19.9,61.8h-14.3c0,0,11.1-52.2,11.4-61.9c0,0,2.8-15.9-1.1-18.7c0,0,0-3.7-19-12.9c0,0-34.4-14.8-53.7-14.7
			c0,0-18.7,49.9-26.2,68.2c0,0-16.2,41.6-35.7,76.8h-15.4c0,0,19.5-74.6,22.4-89.9c0,0,10.5-42.6,9.6-49.3
			S428.6-3507.7,428.6-3507.7z"/>
		<path id="Path_39552" fill="#441710" d="M621.5-3539.5v-14.2l1.1-5.2c0,0-0.8-3.4,1.3-4.3c2-0.9,4.5-0.1,4.8,0.8
			c0.4,0.9-0.7,7.2-0.7,7.2s-4.3,28.8-4.1,33.6s-8.8,169.6-8.8,169.6l-0.5,7.4c0,0-0.2,2.3-1.7,2.2s-1.2-2.7-1.2-2.7l0.3-16.6
			L621.5-3539.5z"/>
		<path id="Path_39553" fill="#0B5342" d="M438.4-3662.8c0,0,40.4,11.5,63.9,25.4c23.5,13.8,11.1-4.9,11.1-4.9l4.3-39.3
			c0,0,3.9-13.7-3.8-19.8s-8.5-10.3-29.5-15.9c0,0-10.8-2.6-18.1,3.1c-7.3,5.7-14.7,18.3-14.7,18.3S440.7-3679,438.4-3662.8z"/>
		<path id="Path_39554" fill="#0E755D" d="M429.3-3492.8c0,0-25.5-9-33.3-21c-3.7-12.2,5.1-39.9,5.1-39.9l35.4-102.7l2-6.3
			c0,0,37,10.3,63.9,25.4s-25.7,80.3-25.7,80.3l-8.3,50.4L429.3-3492.8z"/>
		<path id="Path_39555" fill="#0D5D4B" d="M426-3652.8c0,0,2.9-6.4,8.1-4.3s6.1,2,5.7,5.2c-0.4,3.3-12.7,34.6-12.4,36.5
			c0.2,1.8-17.9,27.3-17.9,27.3l-3.8,0.7c0,0-3.3-5.2,1.9-17.9c0,0,3.5-10.7,5.8-16c0,0,6.4-16.2,8.1-19.2L426-3652.8z"/>
		<path id="Path_39556" fill="#FDD8BA" d="M538.3-3664.3c0,0-0.2,5.6-2.1,8.5c-1.3,2.3-1.3,5.1,0,7.4c0,0,2,3.1,1.4,4.7
			c0,0-0.6,1-3.1,0l-1.5,2.5c0,0,0.2,1.1-0.6,1.1s-2-0.6-2.5-0.3c0,0-0.1,0.9,1.1,1.2c0,0,1.7-0.1,1.2,0.8c-0.5,0.9-1.1,0.3-1.1,0.3
			l-0.1,0.7c0,0,0.6,7.4-6.2,2.8l-6,12.6v10.9l-23.4,1.7l-2-18.8l4-4.1c0,0,7-3.3,6.4-13.8l1.2-17.3
			C505-3663.2,517.6-3687.8,538.3-3664.3z"/>
		<path id="Path_39557" fill="#774031" d="M520.8-3661.2c0,0-1.4,11.8,2.4,16.4c0,0,10-2.3,11,2.3c0,0,0.4,1.7-2,1.4l-6.4-0.5
			c0,0,2.2,3.4,5.5,4.4c1.7,2.4,2.2,5.5,1.4,8.3c-1.2,5.2-10.5-0.2-10.5-0.2s-5.1-4.5-5.9-8.2c-0.8-3.7-0.9-18.7,0.8-24.4
			S520.8-3661.2,520.8-3661.2z"/>
		<path id="Path_39558" fill="#774031" d="M502.7-3659.2l0.2,12.2c0,0,0.4,2.4,4.1,2.1c3.6-0.2,4.4-1.8,4.5-4.5
			c0,0,0.9-11.3,0.7-11.3S502.7-3659.2,502.7-3659.2z"/>
		<path id="Path_39559" fill="#F58D74" d="M514.9-3660.1c0,0-6,1-5,7.1s4.7,3.5,4.7,3.5s0.5-2.7,0-4c0,0,2.6-4.5,2.4-5.6
			S514.9-3660.1,514.9-3660.1z"/>
		<path id="Path_39560" fill="#57382A" d="M505-3674.9c0,0-1.9,7.8-5.3,10.2l-5.6,3.7c0,0-2.9,1.7,0.8,2.9
			c7.6,2.1,15.6,2.2,23.3,0.2c0,0,6.3-1.7,8.4-1.9c2.2-0.2,13.3-2.1,17.6-3.9s4.5-2.4,4.5-2.4s0.5-1.1-1.1-1.1s-4.4,0.2-5.7-0.7
			c-1.3-0.9-6.5-5.7-7.7-9.4s-6.4-4.4-6.4-4.4s-7.4-1-13.5,0.6S506.6-3678.2,505-3674.9z"/>
		<path id="Path_39561" fill="#774031" d="M526.6-3658.3c0,0-1.5,1.6,0.3,2c0,0,3.5-1.5,6.4,0.5c0.3,0.4,0.8,0.6,1.3,0.6
			c0.8-0.1,0.6-1.1,0.6-1.1c-0.1-0.6-0.5-1.1-1-1.4C532-3659.4,529-3659.6,526.6-3658.3z"/>
		<path id="Path_39562" fill="#774031" d="M530.6-3651.5c0.6-0.4,1.1-1,1.3-1.7c0.3-1-0.3-1.4-1.2-1c-0.9,0.4-0.9,1.9-0.9,1.9
			S529.8-3651.3,530.6-3651.5z"/>
		<path id="Path_39563" fill="#FAF2C7" d="M518.8-3621.9c0,0-4.7,13.2-14.7,7.4c-9.9-5.7-5.9-18.2-5.9-18.2s-0.8-2-17.4-3.8
			c-3.8-0.4-7.7-0.4-11.5-0.1c-6,0.5-12,2-17.5,4.4c-11.5,5.6-21.9,13.3-30.4,22.9c-13.6,15.4-28.7,34.3-17.4,66.5l21.3-8.5
			c0,0-3.1-10.3,0.3-20.5c0,0,3.6-8.3,28.5-27.3c0,0-3.8,11.8-4.6,14.8c-0.7,3-4.9,20.4-8.5,27.4c0,0-8,24.2-7.9,26.7l-6.1,24.8
			c0,0,44.3,6.7,54.8,5.5l19.5-1c0,0-6.7-6.8-2.5-20.6c0,0,17.4-55.4,19.9-56.6l2.5,0.2c0,0,1,26.2,11.1,42.7
			c10.2,16.5,39.8,9.5,39.8,9.5l10.7-2.5l-1.4-19.8c0,0-20.5,0.7-22.4-0.4s-9.8-0.7-11.8-23.7s-16.5-40.5-16.5-40.5L518.8-3621.9z"
			/>
		<path id="Path_39564" fill="#0C5241" d="M469.3-3636.5c0,0,7-5.5,11.5,0.1s-7.8,51.4-34.9,65.7l3.5-13.5
			C449.5-3584.2,468.8-3606.5,469.3-3636.5z"/>
		<path id="Path_39565" fill="#084537" d="M520.1-3620.9c0,0,9,2.4,10.7,8.3s-0.1,34.3-22.6,62c0,0,12-33.5,13.4-40.2
			C522.4-3594.3,526.4-3603.2,520.1-3620.9z"/>
		<path id="Path_39566" fill="#0A5342" d="M433.2-3530.1c0,0,8.9,6.8,19.8,7l5.3,5.6l30.3,3.1c0,0,0.9,0.2,1.7-2.4
			c0,0-0.3-2.8,1.1-3.3c2.8-1.3,5.9-2.1,9-2.3c0,0,2.7,10.2,1,14.7c0,0-2.5,4-10.2,1.9c-0.9-0.1-1.7-0.8-2-1.6c0,0-0.1-1.4-2.2-1.2
			s-26.6-2.1-26.6-2.1c-1.3-0.3-2.6,0.4-3.2,1.6c0,0-1.3,3-5,1.6l-16-3.2c0,0-3.9-9-4.4-13.6L433.2-3530.1z"/>
		<path id="Path_39567" fill="#FFD176" d="M401.4-3543.5l24.9-9.6l2.3,11.6l-21.2,8.8L401.4-3543.5z"/>
		<path id="Path_39568" fill="#FDD8BA" d="M426.9-3540.8c0,0,8.7,35.4,13.9,36.8l4.5,1.9c0,0-2.1,2.8,1.2,7.3s2.5,7,2.5,7
			c-0.4,0.5-1,0.8-1.6,0.7c-0.8-0.1-1.5-0.6-1.8-1.3c0,0,1,1.5,0.6,2.5s-1.6,2.5-2.7,2.2c-1.2-0.3-1.9-2.2-1.9-2.2s1.2,2.5,0.7,3.4
			c-0.5,0.9-2.4,1.8-3.4,0.2c0,0-0.5,3.5-2.9,1.5c-2.4-2-4.9-8.9-4.8-9.7c0.1-0.8-3.2-10.2-5.4-11.8s-16.2-27.1-16.3-31.1
			L426.9-3540.8z"/>
		<path id="Path_39569" fill="#FFD176" d="M579.4-3549.4l11.6-0.8l1.4,21.4l-11.1,2.8L579.4-3549.4z"/>
		<path id="Path_39570" fill="#FDD8BA" d="M591.2-3546.1c0,0,17.9-0.8,20.9-4c3.1-3.3,10.5-8.8,10.5-8.8s1.4-1.3,1.4-1.4
			c0.1-0.2,3.5,0.1,0.7,4l-1.4,1.5c0,0-0.4,1,0.6,0.7c1-0.2,4.5-1.6,6.3-0.9c0.7,0.2,1.1,1,0.9,1.7c-0.1,0.2-0.2,0.4-0.3,0.5
			c0,0-0.2,0.7,0.2,0.9c0.7,0.6,0.8,1.6,0.2,2.2c0,0,0,0,0,0c-0.4,0.4-0.4,1.1,0,1.5c0,0,0,0,0.1,0.1c0,0,1.4,0.6,0.2,3.8
			c0,0,1.5,1.7-0.9,2.6c-1.8,0.6-3.6,0.9-5.5,1.1c0,0-2.7-0.3-1.1-2.4c0.6-0.5,1.4-0.9,2.3-1c0,0,0.5-0.4-0.2-0.7c0,0-1.9,0.4-2.5,0
			c-0.5-0.4-1.3-1.4,0.2-2.2c0,0,1.6-0.5,0.6-0.9c0,0-2.8-0.1-1.4-2.1c0.5-0.4,1.1-0.7,1.7-0.8c1-0.2-1.3-0.4-1.3-0.4
			c-0.6-0.1-1.1-0.3-1.6-0.6c-0.3-0.3-0.3,12.5-0.3,12.5s-0.8,0.5-9.9,1.8c0,0-18.1,5.6-19.4,5.6S591.2-3546.1,591.2-3546.1z"/>
		<path id="Path_39571" fill="#441710" d="M621.5-3536.7c-2.3,1.7-5.4,2-8,0.6c-6.3-2.7-6.7-7.6-6.7-7.6s-0.4-6.3,4.8-10
			c5.2-3.7,9.3-3.9,9.3-3.9l-3.7,2.9c-1.5,0.5-2.9,1.2-4.2,2.1c0,0-7.1,5.2-2.6,11.6s11,2.5,11,2.5L621.5-3536.7z"/>
		<path id="Path_39572" fill="#441710" d="M428.9-3497.3l0.9,2.3c0,0-1.9,8.7,2.1,7s8.8-8.3,13.2-9.3c0,0-1.2-2.9,0.2-4.9
			c1.4-2,1.8-2.6,1.8-2.6s4.4-0.6,4.6,3.3l-4.7,7.4c0,0-1.1-1.6-1.3-2c-1.8,0.8-3.5,1.9-4.9,3.3c0,0-4.4,4.8-8.1,6.7
			c-3.7,1.9-4.8,0.4-4.8,0.4s-1.7-1.1-0.8-4.8S428-3496.6,428.9-3497.3z"/>
		<path id="Path_39573" fill="#441710" d="M433.8-3483.7c0,0,1.5,2.8,3,3.5c1.5,0.6-111.5,177.9-111.5,177.9s-0.5,1.3-2.4,0.5
			c-1.9-0.8,11.6-20.9,11.6-20.9L433.8-3483.7z"/>
		<path id="Path_39574" fill="#44271E" d="M385.5-3329.9h20.2c0,0-5.1,5.2-5,8.8c0.1,3.6-1.3,6.4,4.7,7.4c6.1,1,8.6,1.7,9,3
			c0.2,1.4,0.2,2.8,0,4.1c0,0-11.5,0.8-11.8,0.8s-9.1-2-9.1-2l-5.7,0.4l-4.3-2.2C383.5-3309.6,384.6-3326.4,385.5-3329.9z"/>
		<path id="Path_39575" fill="#201410" d="M383.5-3309.6c0,0,9.2,0.2,14.9,1.8s16.9,1.1,16.9,1.1l-0.7,3.8l-11-0.4
			c-2-0.2-4-0.6-6-1.2l-2.8-2l-1.7,1.7c0,0-7.2,0.2-8.9-1C382.5-3307,383.5-3309.6,383.5-3309.6z"/>
		<path id="Path_39576" fill="#201410" d="M400.6-3321.1l-5.5-0.2c0,0-1.2,0.8-0.1,1.4c1.1,0.6,5.6,0.4,5.6,0.4
			S401.3-3320.4,400.6-3321.1z"/>
		<path id="Path_39577" fill="#201410" d="M400.6-3316.9c0,0,0.9,0.5,0.3,1c-1.1,1-2.5,1.8-3.9,2.2c-1.7,0.4-1.4-0.9-1.4-0.9
			s0.1-1,1.5-1.3C398.5-3316.3,400.3-3316.4,400.6-3316.9z"/>
		<path id="Path_39578" fill="#201410" d="M400.4-3312.1c1.1-0.7,2-1.7,2.7-2.9c0,0,1.1-1,1.1,0.5s-2.8,3.5-2.8,3.5
			S400-3310.6,400.4-3312.1z"/>
		<path id="Path_39579" fill="#44271E" d="M526.7-3366.8h17.9c0,0-7,8-2.7,14.1c2,1.3,4.4,1.9,6.8,2c4.5,0.3,6.7,0.9,6.8,3.3
			c0.1,2.4,0,3.3,0,3.3s-11.8,0.5-19.4-1.5c-3.9-0.7-7.9-1-12-1C524.1-3346.6,524.6-3361.5,526.7-3366.8z"/>
		<path id="Path_39580" fill="#201410" d="M524.1-3346.6c4.7-0.2,9.4,0.2,14,1.4c0,0,14.4,1.5,18,0.9l-0.6,3.6
			c0,0-13.7,0.1-16.2-1.4s-3.4-1.6-3.4-1.6s-1.2-0.1-2.5,1.6l-9.4-0.4C523.5-3343.7,523.5-3345.2,524.1-3346.6z"/>
		<path id="Path_39581" fill="#201410" d="M536.7-3358.1l3.3-0.9c0,0,2.4-0.2,1,1.7l-4.3,0.9
			C536.7-3356.4,535.1-3357.2,536.7-3358.1z"/>
		<path id="Path_39582" fill="#201410" d="M537.2-3351.7l3.8-2.7c0,0,1.3,0.3,0.7,1.3c-0.6,1-3.2,2.5-3.2,2.5
			S537-3350.2,537.2-3351.7z"/>
		<path id="Path_39583" fill="#201410" d="M543.3-3348.5l0.4-3.3c0,0,0.6-1.3,1.1-0.4c0.6,0.9,0,3.9,0,3.9
			S543.8-3347.4,543.3-3348.5z"/>
	</g>
</g>
</svg>
