<?xml version="1.0" encoding="utf-8"?>
<!-- Generator: Adobe Illustrator 24.1.2, SVG Export Plug-In . SVG Version: 6.00 Build 0)  -->
<svg version="1.1" id="Слой_1" xmlns="http://www.w3.org/2000/svg" xmlns:xlink="http://www.w3.org/1999/xlink" x="0px" y="0px"
	 viewBox="0 0 334.7 448" enable-background="new 0 0 334.7 448" xml:space="preserve">
<g>
	<linearGradient id="SVGID_1_" gradientUnits="userSpaceOnUse" x1="167.4194" y1="447.8341" x2="234.7227" y2="8.2229">
		<stop  offset="0" style="stop-color:#4D6882"/>
		<stop  offset="1" style="stop-color:#B7BEC7"/>
	</linearGradient>
	<path fill="url(#SVGID_1_)" d="M334.7,226.1v222.1H0l2.5-5h0l3.2-6.4l4.4-8.7l10.6-21.2c0.1-0.2,0.2-0.4,0.4-0.7
		c0.3-0.4,0.5-0.8,0.8-1.2c0,0,0,0,0,0c0,0,0,0,0,0c0.1-0.2,0.3-0.4,0.4-0.5c0.1-0.1,0.2-0.2,0.3-0.3c0.1-0.1,0.2-0.2,0.3-0.3
		c0.1-0.1,0.2-0.2,0.3-0.3c0.1-0.1,0.2-0.2,0.3-0.3c0.1-0.1,0.1-0.1,0.2-0.1c0,0,0.1-0.1,0.1-0.1c0.1-0.1,0.1-0.1,0.2-0.2
		c0.1-0.1,0.2-0.1,0.3-0.2c0.1-0.1,0.2-0.1,0.3-0.2c0.1-0.1,0.2-0.1,0.3-0.2c0.1-0.1,0.2-0.1,0.4-0.2c0.1,0,0.2-0.1,0.3-0.1
		c0,0,0.1,0,0.1,0c0,0,0.1,0,0.1,0c0.1,0,0.2,0,0.3-0.1c0.1,0,0.2,0,0.3,0l53.3-5c0.1,0,0.2,0,0.3,0c0.4-0.1,0.9-0.2,1.3-0.4
		c0.1-0.1,0.2-0.1,0.3-0.2c0.1,0,0.2-0.1,0.3-0.1c0,0,0,0,0.1-0.1c0.1-0.1,0.2-0.1,0.2-0.2h0c0.1-0.1,0.3-0.2,0.4-0.3
		c0.1-0.1,0.2-0.2,0.4-0.3c0.1-0.1,0.2-0.1,0.2-0.2c0.1-0.1,0.2-0.2,0.3-0.3l0,0l0,0c0,0,0,0,0,0c0,0,0,0,0,0
		c0.1-0.1,0.1-0.2,0.2-0.3c0-0.1,0.1-0.1,0.1-0.2c0,0,0,0,0-0.1c0.2-0.3,0.4-0.6,0.6-0.9c0.2-0.2,0.3-0.5,0.4-0.7
		c0.1-0.3,0.3-0.5,0.4-0.8c0.1-0.2,0.2-0.4,0.3-0.6c0.1-0.1,0.1-0.2,0.1-0.3c0-0.1,0.1-0.2,0.1-0.3c0-0.1,0.1-0.1,0.1-0.1
		c0,0,0-0.1,0.1-0.1c0.3-0.7,0.5-1.3,0.6-2.1c0-0.1,0-0.1,0.1-0.2c0-0.1,0-0.1,0-0.2c0.1-0.3,0.1-0.6,0.2-0.8
		c0.1-0.4,0.2-0.8,0.2-1.3c0,0,0-0.1,0-0.1c0-0.1,0-0.2,0-0.4c0-0.1,0-0.2,0-0.2c0-0.4,0.1-0.7,0.1-1.1c0-0.2,0-0.4,0-0.5
		c0,0,0,0,0-0.1c0-0.1,0-0.1,0-0.1c0-0.1,0-0.1,0-0.1v-0.1c0-0.6,0-1.2,0-1.8c0-0.2,0-0.3,0-0.5c0-0.1,0-0.3,0-0.4v-0.1
		c0-0.1,0-0.2,0-0.3c0,0,0,0,0,0c0-0.1,0-0.3,0-0.4c0-0.3,0-0.5-0.1-0.8c0-0.3-0.1-0.5-0.1-0.8c0-0.1,0-0.2,0-0.3
		c0-0.1,0-0.2-0.1-0.4c0,0,0-0.1,0-0.1c-0.1-0.3-0.1-0.5-0.2-0.8l-0.8-3.4l-0.4-2l-13.3-58.5c-2-8.6,0.9-18,5.8-20
		c0.5-0.2,1-0.3,1.5-0.4l40.8-3.8l1.5-0.1c0.3,0,0.5-0.1,0.8-0.2c0.2,0,0.3-0.1,0.5-0.1c0.3-0.1,0.6-0.2,0.9-0.4
		c0.1,0,0.1-0.1,0.2-0.1c0.5-0.3,1-0.8,1.5-1.3c0,0,0,0,0,0h0c0.1-0.1,0.2-0.2,0.3-0.4c0,0,0-0.1,0.1-0.1c0.1-0.2,0.3-0.4,0.4-0.5
		c0,0,0.1-0.1,0.1-0.1c0.1-0.2,0.2-0.4,0.4-0.6c0,0,0,0,0,0c0.1-0.2,0.3-0.5,0.4-0.7c0,0,0-0.1,0.1-0.1c0.1-0.3,0.3-0.5,0.4-0.8
		c0.1-0.3,0.3-0.6,0.4-0.9v0c0.1-0.2,0.1-0.3,0.2-0.5c0.1-0.2,0.2-0.4,0.2-0.7c0.1-0.2,0.1-0.4,0.2-0.6c0,0,0,0,0,0
		c0-0.1,0-0.2,0.1-0.2c0.1-0.2,0.1-0.4,0.2-0.6c0-0.2,0.1-0.3,0.1-0.4c0.1-0.2,0.1-0.4,0.1-0.6c0.1-0.4,0.1-0.9,0.2-1.3
		c0-0.3,0.1-0.6,0.1-0.8c0-0.2,0-0.4,0.1-0.6c0-0.2,0-0.4,0-0.6c0-0.1,0-0.2,0-0.3c0-0.1,0-0.1,0-0.2v-0.2c0-0.5,0-1,0-1.5
		c0-0.2,0-0.4,0-0.6c0-0.4,0-0.8-0.1-1.1c0-0.5-0.1-1.1-0.2-1.6c-0.1-0.4-0.1-0.7-0.2-1.1c0-0.3-0.1-0.5-0.2-0.8
		c-0.1-0.3-0.2-0.6-0.3-0.9c-0.3-0.8-0.5-1.7-0.6-2.6c-0.1-0.6-0.2-1.2-0.2-1.7c0-0.5-0.1-1-0.1-1.5c0-0.4,0-0.8,0-1.2
		c0-0.4,0-0.7,0-1.1c0-0.1,0-0.2,0-0.3c0-0.3,0-0.6,0.1-0.9c0.1-0.7,0.1-1.4,0.3-2c0-0.2,0.1-0.4,0.1-0.6c0.1-0.3,0.1-0.5,0.2-0.7
		c0.1-0.3,0.1-0.5,0.2-0.8c0.1-0.3,0.2-0.6,0.3-0.9c0.1-0.3,0.2-0.6,0.3-0.9c0.1-0.3,0.2-0.6,0.4-0.9c0.1-0.2,0.2-0.4,0.3-0.6
		c0.2-0.4,0.4-0.8,0.6-1.1c0.1-0.2,0.2-0.4,0.3-0.5c0.1-0.2,0.2-0.3,0.3-0.5c0.1-0.2,0.2-0.3,0.4-0.5c0.2-0.2,0.4-0.4,0.6-0.6
		c0.1-0.1,0.2-0.2,0.2-0.2c0.4-0.4,0.9-0.7,1.3-1c0.3-0.1,0.5-0.3,0.8-0.4c0.3-0.1,0.6-0.2,0.8-0.2c0.1,0,0.3-0.1,0.4-0.1l1.1-0.1h0
		l36.9-3.5c0.6-0.1,1.1-0.2,1.7-0.5c0.1-0.1,0.3-0.1,0.4-0.2c0.1-0.1,0.3-0.2,0.4-0.2c0,0,0.1-0.1,0.2-0.1c0.1,0,0.1-0.1,0.2-0.1
		c0,0,0,0,0.1,0c0.1,0,0.1-0.1,0.2-0.1c0.1-0.1,0.1-0.1,0.2-0.1c0.1-0.1,0.2-0.2,0.4-0.3c0.1-0.1,0.2-0.2,0.3-0.3
		c0,0,0.1-0.1,0.1-0.1c0.1-0.1,0.1-0.2,0.2-0.3c0,0,0.1-0.1,0.1-0.1c0-0.1,0.1-0.1,0.1-0.2c0,0,0.1-0.1,0.1-0.1
		c0.1-0.2,0.3-0.4,0.4-0.6c0.1-0.1,0.1-0.2,0.2-0.3c0,0,0,0,0.1-0.1c0.1-0.1,0.2-0.3,0.3-0.4c0.1-0.2,0.2-0.3,0.3-0.5
		s0.2-0.4,0.3-0.5c0,0,0,0,0,0c0.1-0.2,0.2-0.4,0.3-0.6c0.1-0.2,0.1-0.3,0.2-0.4c0.1-0.1,0.1-0.2,0.1-0.3c0.1-0.3,0.2-0.6,0.3-0.9
		c0.1-0.3,0.2-0.6,0.3-0.9c0-0.2,0.1-0.3,0.1-0.5c0-0.2,0.1-0.3,0.1-0.5c0-0.2,0.1-0.3,0.1-0.5c0-0.2,0.1-0.4,0.1-0.6
		c0-0.2,0.1-0.4,0.1-0.6c0-0.1,0-0.1,0-0.1c0-0.2,0.1-0.4,0.1-0.6c0.4-3.3,0.1-6.6-0.7-9.8l-4.7-16.8l-3.5-12.2l-0.9-3.3l-4.2-15v0
		L141,79.6c-0.1-0.2-0.1-0.5-0.2-0.7c-0.1-0.5-0.2-1-0.3-1.5c-0.1-0.4-0.1-0.7-0.2-1.1c-0.1-0.4-0.1-0.7-0.1-1.1
		c-0.1-0.5-0.1-1-0.1-1.5c0-0.3,0-0.6,0-0.9c0-0.2,0-0.5,0-0.7v0c0-0.1,0-0.3,0-0.4c0-0.2,0-0.4,0-0.6c0-0.3,0-0.6,0.1-0.8
		c0-0.3,0.1-0.5,0.1-0.8c0,0,0-0.1,0-0.1c0-0.2,0.1-0.4,0.1-0.7c0-0.1,0-0.2,0-0.3l0.1-0.6c0,0,0-0.1,0-0.1c0.1-0.3,0.1-0.5,0.2-0.7
		v0c0.1-0.2,0.1-0.4,0.2-0.6c0.1-0.3,0.1-0.5,0.2-0.8c0-0.1,0-0.1,0.1-0.2c0-0.1,0-0.2,0.1-0.2c0-0.1,0-0.2,0.1-0.2
		c0.1-0.3,0.2-0.6,0.4-1c0.1-0.2,0.2-0.5,0.3-0.7c0-0.1,0.1-0.2,0.1-0.3c0.1-0.2,0.1-0.3,0.2-0.5c0.1-0.2,0.2-0.4,0.3-0.5v0
		c0,0,0-0.1,0.1-0.1c0.1-0.1,0.2-0.3,0.2-0.4c0-0.1,0.1-0.1,0.1-0.1c0.1-0.2,0.2-0.4,0.4-0.5c0.1-0.2,0.3-0.4,0.4-0.5
		c0.1-0.2,0.3-0.3,0.4-0.5c1-1.1,2.3-1.8,3.8-2l16.6-1.6c0.3,0,0.6,0,0.9,0c1.6,0.2,3.1,1.1,4.3,2.8l3,3.9l6.5,8.4l10,12.9
		c1.5,2,3.4,2.9,5.3,2.8l0.1,0l20.9-2c0.3,0,0.6,0,0.9,0c1.8,0.2,3.5,1.5,4.9,3.6l56.8,88.8l4.8,7.5c1.6,2.5,3.7,3.8,5.8,3.6l0.1,0
		l16.5-1.5c0.3,0,0.6,0,0.9,0c1.7,0.2,3.4,1.4,4.7,3.3c0.4,0.5,0.7,1.1,0.9,1.6l16.6,33.5l1,0.1L334.7,226.1z"/>
	<linearGradient id="SVGID_2_" gradientUnits="userSpaceOnUse" x1="0" y1="254.2226" x2="207.8622" y2="254.2226">
		<stop  offset="0" style="stop-color:#2E4354"/>
		<stop  offset="1" style="stop-color:#7792AA"/>
	</linearGradient>
	<path fill="url(#SVGID_2_)" d="M193.2,365.4c-1.1,1.9-2.2,3.9-3.1,5.9c-0.3,0.6-0.6,1.3-0.9,2c-9.2,21.1-10.7,48.8-16.2,70
		c-0.5,1.7-0.9,3.4-1.4,5H0l2.5-5h0l3.2-6.4l4.4-8.7l10.7-21.2c0.1-0.2,0.2-0.4,0.3-0.7c0.3-0.4,0.5-0.8,0.8-1.2c0,0,0,0,0,0
		c0,0,0,0,0,0c0,0,0,0,0,0c0.1-0.2,0.3-0.4,0.4-0.5c0.1-0.1,0.2-0.2,0.3-0.3c0.1-0.1,0.2-0.2,0.3-0.3c0.1-0.1,0.2-0.2,0.3-0.3
		c0.1-0.1,0.2-0.2,0.3-0.2c0.1-0.1,0.1-0.1,0.2-0.1c0,0,0.1-0.1,0.1-0.1c0.1,0,0.1-0.1,0.2-0.2c0.1-0.1,0.2-0.1,0.3-0.2
		c0.1-0.1,0.2-0.1,0.3-0.2c0.1-0.1,0.2-0.1,0.3-0.2c0.1-0.1,0.3-0.1,0.4-0.1c0.1-0.1,0.2-0.1,0.3-0.1c0,0,0.1,0,0.1,0s0.1,0,0.1,0
		c0.1,0,0.2,0,0.3-0.1c0.1,0,0.2,0,0.3,0l53.3-5c0.1,0,0.2,0,0.3,0c0.4-0.1,0.9-0.2,1.3-0.4c0.1-0.1,0.2-0.1,0.3-0.2
		c0.1,0,0.2-0.1,0.3-0.1c0,0,0,0,0.1-0.1c0.1-0.1,0.2-0.1,0.2-0.2h0c0.1-0.1,0.3-0.2,0.4-0.3c0.1-0.1,0.2-0.2,0.4-0.3
		c0.2-0.2,0.4-0.4,0.5-0.5l0,0l0,0c0,0,0,0,0,0c0.1-0.1,0.1-0.2,0.2-0.3c0-0.1,0.1-0.1,0.1-0.2c0,0,0,0,0.1-0.1
		c0.2-0.3,0.4-0.6,0.6-0.9c0.2-0.2,0.3-0.5,0.4-0.7c0.1-0.3,0.3-0.5,0.4-0.8c0.1-0.2,0.2-0.4,0.3-0.6c0.1-0.1,0.1-0.2,0.1-0.3
		c0-0.1,0.1-0.2,0.1-0.3c0-0.1,0.1-0.1,0.1-0.1c0,0,0-0.1,0.1-0.1c0.3-0.7,0.5-1.3,0.6-2.1c0-0.1,0-0.1,0.1-0.2c0,0,0-0.1,0-0.1
		c0,0,0-0.1,0-0.1c0,0,0-0.1,0-0.1c0.1-0.5,0.2-0.9,0.3-1.4c0-0.1,0-0.2,0.1-0.3c0-0.1,0-0.2,0-0.3c0,0,0-0.1,0-0.1
		c0-0.1,0-0.2,0-0.4c0-0.1,0-0.2,0-0.2c0-0.4,0.1-0.7,0.1-1.1c0-0.2,0-0.4,0-0.5c0,0,0,0,0-0.1c0-0.1,0-0.1,0-0.1c0-0.1,0-0.1,0-0.1
		v-0.1c0-0.6,0-1.2,0-1.8c0-0.2,0-0.3,0-0.5v-0.1c0-0.1,0-0.2,0-0.3c0,0,0-0.1,0-0.1c0-0.1,0-0.2,0-0.3c0-0.1,0-0.3,0-0.4
		c0-0.3,0-0.5-0.1-0.8c0-0.3-0.1-0.5-0.1-0.8c0-0.1,0-0.2,0-0.3c0-0.1,0-0.1,0-0.2c0-0.1,0-0.1,0-0.2c0,0,0-0.1,0-0.1
		c-0.1-0.3-0.1-0.5-0.2-0.8l-0.8-3.4l-0.4-2l-13.3-58.5c-2-8.6,0.9-18,5.8-20c0.5-0.2,1-0.3,1.5-0.4l40.8-3.8l1.5-0.1
		c0.3,0,0.5-0.1,0.8-0.2c0.2,0,0.3-0.1,0.5-0.1c0.3-0.1,0.6-0.2,0.9-0.4c0.1,0,0.1-0.1,0.2-0.1c0.5-0.3,1-0.8,1.5-1.3c0,0,0,0,0,0
		c0.1-0.1,0.2-0.2,0.3-0.4c0,0,0-0.1,0.1-0.1c0.1-0.2,0.3-0.4,0.4-0.5c0,0,0.1-0.1,0.1-0.1c0.1-0.2,0.2-0.4,0.4-0.6c0,0,0,0,0,0
		c0.1-0.2,0.3-0.5,0.4-0.7c0,0,0-0.1,0.1-0.1c0.1-0.3,0.3-0.5,0.4-0.8c0.1-0.3,0.3-0.6,0.4-0.9v0h0c0.1-0.2,0.1-0.3,0.2-0.5
		c0.1-0.2,0.2-0.4,0.2-0.7c0.1-0.2,0.1-0.4,0.2-0.6c0-0.1,0-0.2,0.1-0.2c0.1-0.2,0.1-0.4,0.2-0.6c0-0.2,0.1-0.3,0.1-0.4
		c0.1-0.2,0.1-0.4,0.1-0.6c0.1-0.4,0.1-0.9,0.2-1.3c0-0.3,0.1-0.6,0.1-0.8c0-0.2,0-0.4,0.1-0.6c0-0.2,0-0.4,0-0.6c0-0.1,0-0.2,0-0.3
		c0-0.1,0-0.1,0-0.2v-0.2c0-0.5,0-1,0-1.5c0-0.2,0-0.4,0-0.6c0-0.4,0-0.8-0.1-1.1c0-0.5-0.1-1.1-0.2-1.6c-0.1-0.4-0.1-0.7-0.2-1.1
		c0-0.3-0.1-0.5-0.2-0.8c-0.1-0.3-0.2-0.6-0.3-0.9c-0.3-0.8-0.5-1.7-0.6-2.6c-0.1-0.6-0.2-1.2-0.2-1.7c0-0.5-0.1-1-0.1-1.5
		c0-0.4,0-0.8,0-1.2c0-0.4,0-0.7,0-1.1c0-0.1,0-0.2,0-0.3c0-0.3,0-0.6,0.1-0.9c0.1-0.7,0.1-1.4,0.3-2c0-0.2,0.1-0.4,0.1-0.6
		c0.1-0.3,0.1-0.5,0.2-0.7c0.1-0.3,0.1-0.5,0.2-0.8c0.1-0.3,0.2-0.6,0.3-0.9c0.1-0.3,0.2-0.6,0.3-0.9c0.1-0.3,0.2-0.6,0.4-0.9
		c0.1-0.2,0.2-0.4,0.3-0.6c0.2-0.4,0.4-0.8,0.6-1.1c0.1-0.2,0.2-0.4,0.3-0.5c0.1-0.2,0.2-0.3,0.3-0.5c0.1-0.2,0.2-0.3,0.4-0.5
		c0.2-0.2,0.4-0.4,0.6-0.6c0.1-0.1,0.2-0.2,0.2-0.2c0.4-0.4,0.9-0.7,1.3-1c0.3-0.1,0.5-0.3,0.8-0.4c0.3-0.1,0.6-0.2,0.8-0.2
		c0.1,0,0.3-0.1,0.4-0.1l1.1-0.1h0l36.9-3.5c0.6-0.1,1.1-0.2,1.7-0.5c0.1-0.1,0.3-0.1,0.4-0.2c0.1-0.1,0.3-0.2,0.4-0.2
		c0.1-0.1,0.2-0.2,0.3-0.2c0,0,0,0,0.1,0c0.1,0,0.1-0.1,0.2-0.1c0.1-0.1,0.1-0.1,0.2-0.1c0.1-0.1,0.2-0.2,0.4-0.3
		c0.1-0.1,0.2-0.2,0.3-0.3c0,0,0.1-0.1,0.1-0.1c0.1-0.1,0.2-0.2,0.2-0.3c0,0,0.1-0.1,0.1-0.1c0-0.1,0.1-0.1,0.1-0.2
		c0,0,0.1-0.1,0.1-0.1c0.1-0.2,0.3-0.4,0.4-0.6c0.1-0.1,0.1-0.2,0.2-0.3c0,0,0,0,0.1-0.1c0.1-0.2,0.2-0.3,0.3-0.4
		c0.1-0.2,0.2-0.3,0.3-0.5s0.2-0.4,0.3-0.5c0,0,0,0,0,0c0.1-0.2,0.2-0.4,0.3-0.6c0.1-0.2,0.1-0.3,0.2-0.4c0.1-0.1,0.1-0.2,0.1-0.4
		c0.1-0.3,0.2-0.6,0.3-0.9c0.1-0.3,0.2-0.6,0.3-0.9c0-0.2,0.1-0.3,0.1-0.5c0-0.2,0.1-0.3,0.1-0.5c0-0.2,0.1-0.3,0.1-0.5
		c0-0.2,0.1-0.4,0.1-0.6c0-0.2,0.1-0.4,0.1-0.6c0-0.1,0-0.1,0-0.1c0-0.2,0.1-0.4,0.1-0.6c0.4-3.3,0.1-6.6-0.7-9.8l-4.7-16.8
		l-3.5-12.2l-0.9-3.3l-4.2-15v0L141,79.6c-0.1-0.2-0.1-0.5-0.2-0.7c-0.1-0.5-0.2-1-0.3-1.5c-0.1-0.4-0.1-0.7-0.2-1.1
		c-0.1-0.4-0.1-0.7-0.1-1.1c0-0.5-0.1-1-0.1-1.5c0-0.3,0-0.6,0-0.9c0-0.2,0-0.5,0-0.7v0c0-0.1,0-0.3,0-0.4c0-0.2,0-0.4,0-0.6
		c0-0.3,0-0.6,0.1-0.8c0-0.3,0.1-0.5,0.1-0.8c0,0,0-0.1,0-0.1c0-0.2,0.1-0.4,0.1-0.7c0-0.1,0-0.2,0-0.3l0.1-0.6c0,0,0-0.1,0-0.1
		c0.1-0.3,0.1-0.5,0.2-0.7v0c0.1-0.2,0.1-0.4,0.2-0.6c0.1-0.3,0.1-0.5,0.2-0.8c0-0.1,0-0.1,0.1-0.2c0-0.1,0-0.2,0.1-0.2
		c0-0.1,0.1-0.2,0.1-0.2c0.1-0.3,0.2-0.7,0.4-1c0.1-0.2,0.2-0.5,0.3-0.7c0-0.1,0.1-0.2,0.1-0.3c0.1-0.2,0.1-0.3,0.2-0.5
		c0.1-0.2,0.2-0.4,0.3-0.5v0c0,0,0-0.1,0.1-0.1c0.1-0.1,0.2-0.3,0.2-0.4c0-0.1,0.1-0.1,0.1-0.1c0.1-0.2,0.2-0.4,0.4-0.5
		c0.1-0.2,0.3-0.4,0.4-0.5c0.1-0.2,0.3-0.3,0.4-0.5L174,158l4.5,14.8l4.2,13.9l4.7,15.5l10.2,33.3l6.5,21.3
		C204.1,256.8,217.7,324,193.2,365.4z"/>
	
		<linearGradient id="Path_42508_1_" gradientUnits="userSpaceOnUse" x1="-1580.1915" y1="946.8314" x2="-1579.6411" y2="944.8821" gradientTransform="matrix(52.2333 -2.7374 -5.4961 -104.8711 87902.7344 95343.6172)">
		<stop  offset="0" style="stop-color:#1C0045"/>
		<stop  offset="1" style="stop-color:#2E4354"/>
	</linearGradient>
	<path id="Path_42508" fill="url(#Path_42508_1_)" d="M176,348.2l-8.5-22.9l3-17.4L136.8,245l-1.1,0.1c-6,0.6-9.7,12.1-6.9,21.7
		c0.6,2,0.9,4.1,1,6.2c0.2,7.8-3.1,15.1-7.8,15.6l-1.5,0.1L176,348.2z"/>
	
		<linearGradient id="Path_42509_1_" gradientUnits="userSpaceOnUse" x1="-1580.3342" y1="948.3549" x2="-1579.839" y2="946.874" gradientTransform="matrix(56.7469 -2.974 -7.2217 -137.7979 96632.5234 126387.0703)">
		<stop  offset="0" style="stop-color:#1C0045"/>
		<stop  offset="1" style="stop-color:#2E4354"/>
	</linearGradient>
	<path id="Path_42509" fill="url(#Path_42509_1_)" d="M135.1,428.1l-23.2-49.5l3.2-9.4L102,351.6l-0.5-18.8l-23.2-40
		c-4.8,2-7.7,11.4-5.8,20L87,376.7c2.1,9.4-1.5,19.8-7.2,20.4l-2.8,0.3l17.4,21.4L135.1,428.1z"/>
	<linearGradient id="SVGID_3_" gradientUnits="userSpaceOnUse" x1="20.6757" y1="428.0212" x2="35.1594" y2="337.694">
		<stop  offset="0" style="stop-color:#1C0045"/>
		<stop  offset="1" style="stop-color:#2E4354"/>
	</linearGradient>
	<path fill="url(#SVGID_3_)" d="M38,428.4L38,428.4L38,428.4l-15.7,8.3h0l-12.4,6.6l-9.5,5H0l2.5-5h0l3.2-6.4l4.4-8.7l10.7-21.2
		c0.1-0.2,0.2-0.4,0.3-0.7c0.3-0.4,0.5-0.8,0.8-1.2c0,0,0,0,0,0c0,0,0,0,0-0.1c0.1-0.2,0.3-0.4,0.4-0.5c0.1-0.1,0.2-0.2,0.3-0.3
		c0.1-0.1,0.2-0.2,0.3-0.3c0.1-0.1,0.2-0.2,0.3-0.3c0.1-0.1,0.2-0.2,0.3-0.3c0.1-0.1,0.1-0.1,0.2-0.1c0,0,0.1-0.1,0.1-0.1
		c0.1-0.1,0.1-0.1,0.2-0.2c0.1-0.1,0.2-0.1,0.3-0.2c0.1-0.1,0.2-0.1,0.3-0.2c0.1-0.1,0.2-0.1,0.3-0.2l0.1,0.3L38,428.4z"/>
	<linearGradient id="SVGID_4_" gradientUnits="userSpaceOnUse" x1="207.3349" y1="352.1696" x2="249.153" y2="220.6796">
		<stop  offset="0" style="stop-color:#2E4354"/>
		<stop  offset="1" style="stop-color:#7792AA"/>
	</linearGradient>
	<path fill="url(#SVGID_4_)" d="M334.7,226.2v163.2l-0.5-0.4l-7-14.1c-0.3-0.5-0.5-1.1-0.6-1.7c0,0,0-0.1,0-0.1l-0.4-1.8l-14.6-69.7
		c-1.3-6.3-6.5-4.1-6.2,2.5l1.5,28.6c0.3,5.6-3.6,8.5-5.6,4.3l-51-105.2L249,229c-0.2-0.5-0.5-0.9-0.9-1.3l-28.5-28.5l-3-3
		c-0.4-0.5-0.8-1-1-1.6l-4.5-10.7l-20.8-49.3l-2.4-5.7L172.4,92l-5-11.8l-6-14.2c-1.6-3.7-0.2-9,2.4-9.2l1.6-0.2l0.1,0
		c1.9-0.2,3.7,0.8,5.3,2.8l3,3.9l6.5,8.4l9.9,12.9c1.3,1.7,2.8,2.6,4.4,2.8c0.3,0,0.6,0,0.9,0l20.9-2h0.1c2.1-0.2,4.2,1.1,5.9,3.6
		l56.8,88.8l4.8,7.5c1.4,2.2,3.1,3.4,4.9,3.6c0.3,0.1,0.6,0.1,0.9,0l16.5-1.6l0.1,0c2.1-0.2,4.1,1,5.7,3.3c0.4,0.5,0.7,1.1,0.9,1.6
		l16.6,33.5l0,0.1l0.2,0.4H334.7z"/>
</g>
</svg>
