<svg version="1.2" baseProfile="tiny" xmlns="http://www.w3.org/2000/svg" viewBox="0 0 100 100" overflow="visible">
  <circle fill="#E6DCBD" cx="50" cy="50" r="50"/>
  <path fill="#5A867C" d="M42.4 77.9c-2.4 0-4.7-1-6.3-2.8-3.1-3.4-2.8-8.6.6-11.7.2-.1.3-.3.5-.4l3 3.6c-1.3.8-1.8 2.4-1.4 3.8.5 2 2.5 3.2 4.5 2.7s3.2-2.5 2.7-4.5c-.1-.5-.3-.9-.6-1.3 0 0-.7-.9-1.9-2.3-4-4.8-13.2-16-15.8-19.2-1.3-1.6-2-3.7-2.1-5.8 0-1.6.4-3.1 1.3-4.4.9-1.3 2.1-2.3 3.5-3 4.8-2.4 8.5-4.4 11.1-5.8 9-4.7 9-4.7 11-4.7h.1c4.4 0 8 3.6 8 8 0 2.6-1.2 5-3.3 6.5L39.2 46.9l-3.1-3.8c1.3-.9 1.9-2.4 1.5-3.9-.4-1.7-1.9-2.9-3.6-2.8-1.4 0-2.7.9-3.3 2.1-.6 1.4-.4 3.1.7 4.2 3.2 4.1 16.3 19.9 17.5 21.3 1.1 1.3 1.7 2.9 1.9 4.5l1.6-1c3.8-2.4 11.7-7.4 13.3-8.4.9-.6 1.6-1.5 1.7-2.6.1-1-.2-1.9-.8-2.6l-.7-.8.9-1.8c1-.1 2-.5 3-.9l.8 1c1.1 1.3 1.6 3 1.6 4.7 0 2.7-1.3 5.2-3.5 6.7l-22 13.9c-1.3.8-2.8 1.2-4.3 1.2zm10.2-51.1c-.5 0-1 .1-1.4.3L39 33.3c2 1.5 3.3 3.8 3.4 6.4L54.2 33c1.6-.9 2.1-2.9 1.3-4.4-.5-1.2-1.7-1.8-2.9-1.8zM51 61.2l-1.5-1.8 8-4.7-.6 1.4-.8 2.1-5.1 3zM47.5 57L46 55.2l11.2-6.5 1.6 1.8L47.5 57zm11.6 0c2.2-5.7 5.1-11.2 8.6-16.3-2.3 2-4.3 4.1-6.2 6.5-2.7-4.6-.3-9.1 2.3-12 .1 1.3.6 2.5 1.4 3.4-.3-1.8-.1-3.7.5-5.5 1.5-1.5 3.1-2.9 4.9-4.1-.1 1.1.1 2.2.6 3.2.1-1.5.5-3 1.2-4.3 2.6-2 5.8-3.2 9.1-3.5-.3 2.9-1.1 5.8-2.4 8.4-1.3.9-2.7 1.6-4.2 1.9.6.1 1.1.1 1.7.1.6 0 1.2 0 1.8-.1-.6 1.8-1.4 3.6-2.3 5.3-1.6 1-3.3 1.6-5.1 1.9.8.3 1.7.4 2.5.4.5 0 .9 0 1.4-.2-1 1.8-2.4 3.4-3.9 4.8s-3.4 2.1-5.4 2.2h-.2c-1.2 2.1-2.2 4.3-3.1 6.5L59.1 57zm-15-4.1L42.6 51l11-6.5 1.6 1.8-11.1 6.6z"/>
</svg>
