<?xml version="1.0" encoding="utf-8"?>
<!-- Generator: Adobe Illustrator 24.1.2, SVG Export Plug-In . SVG Version: 6.00 Build 0)  -->
<svg version="1.1" id="Слой_1" xmlns="http://www.w3.org/2000/svg" xmlns:xlink="http://www.w3.org/1999/xlink" x="0px" y="0px"
	 viewBox="0 0 760.3 648.6" enable-background="new 0 0 760.3 648.6" xml:space="preserve">
<path fill="none" d="M728.5,528.2c-2.7,6.5-5.6,12.8-8.6,18.9c-10.8,21.4-23.6,39.5-38.4,53.3c-65.5,61-216.6,59.1-359.3,22.5
	c-65.1-16.7-128.5-40.7-181.5-69.2c-4-2.2-8-4.4-11.9-6.6c-10.7-6.1-21-12.4-30.7-18.9c-6.6-4.4-12.9-8.8-18.9-13.4
	c-6.9-5.2-13.3-10.4-19.4-15.7c-2.5-2.2-5-4.4-7.4-6.7c-24.7-23.2-41.6-47.7-47.9-72.8c-5.2-21-5.8-43.1-2.1-65.7
	c2.3-14.2,6.3-28.6,11.9-43.1c0,0,0,0,0,0c0,0,0,0,0,0c5.7-14.9,13-29.9,21.8-44.7c2.5-4.1,5-8.3,7.7-12.4c0.4-0.6,0.8-1.3,1.2-1.9
	c14.7-22.3,32.6-44.2,53.3-65.3c74-75.3,183.4-139.9,306.5-169.8c31.5-7.6,63.8-13,96.7-15.8c31.3-2.6,59.5,0.9,84.8,9.4
	c11.6,3.9,22.7,8.9,33,14.8c22,12.5,41.2,29.2,57.8,49c38.8,46.3,63.2,110,75,177.6C768.8,348.5,759.5,453.6,728.5,528.2z"/>
<g id="Mask_Group_29" transform="translate(-101 -36)">
	<g id="Group_20365" transform="translate(1047 1366)">
		<g id="BG">
			<g id="Group_19900">
				<path fill="#BDD8E6" d="M-217.5-801.8c-2.7,6.5-5.6,12.8-8.6,18.9c-10.8,21.4-23.6,39.5-38.4,53.3
					c-65.5,61-216.6,59.1-359.3,22.5c-65.1-16.7-128.5-40.7-181.5-69.2c-4-2.2-8-4.4-11.9-6.6c-10.7-6.1-21-12.4-30.7-18.9
					c-6.6-4.4-12.9-8.8-18.9-13.4c-6.9-5.2-13.3-10.4-19.4-15.7c-2.5-2.2-5-4.4-7.4-6.7c-24.7-23.2-41.6-47.7-47.9-72.8
					c-5.2-21-5.8-43.1-2.1-65.7c2.3-14.2,6.3-28.6,11.9-43.1c0,0,0,0,0,0c0,0,0,0,0,0c5.7-14.9,13-29.9,21.8-44.7
					c2.5-4.1,5-8.3,7.7-12.4c0.4-0.6,0.8-1.3,1.2-1.9c14.7-22.3,32.6-44.2,53.3-65.3c74-75.3,183.4-139.9,306.5-169.8
					c31.5-7.6,63.8-13,96.7-15.8c31.3-2.6,59.5,0.9,84.8,9.4c11.6,3.9,22.7,8.9,33,14.8c22,12.5,41.2,29.2,57.8,49
					c38.8,46.3,63.2,110,75,177.6C-177.2-981.5-186.5-876.4-217.5-801.8z"/>
			</g>
			<g id="Group_19901">
				<path fill="#B4D0BE" d="M-217.5-801.8c-2.7,6.5-5.6,12.8-8.6,18.9h-591c-10.7-6.1-21-12.4-30.7-18.9
					c-6.6-4.4-12.9-8.8-18.9-13.4c-6.9-5.2-13.3-10.4-19.4-15.7c-2.5-2.2-5-4.4-7.4-6.7c-24.7-23.2-41.6-47.7-47.9-72.8
					c-5.2-21-5.8-43.1-2.1-65.7c2.3-14.2,6.3-28.6,11.9-43.1c0,0,0,0,0,0c0,0,0,0,0,0c5.7-14.9,13-29.9,21.8-44.7
					c2.5-4.1,5-8.3,7.7-12.4c0.4-0.6,0.8-1.3,1.2-1.9h707C-177.2-981.5-186.5-876.4-217.5-801.8z"/>
			</g>
			<g id="Group_19902">
				<path fill="#B7BEC7" d="M-217.5-801.8c-2.7,6.5-5.6,12.8-8.6,18.9c-10.8,21.4-23.6,39.5-38.4,53.3
					c-65.5,61-216.6,59.1-359.3,22.5c-65.1-16.7-128.5-40.7-181.5-69.2c-4-2.2-8-4.4-11.9-6.6c-10.7-6.1-21-12.4-30.7-18.9H-217.5z"
					/>
			</g>
		</g>
		<g id="Graphics" transform="translate(78 -137.319)">
			<g id="Group_19903" transform="translate(290.364 367.355)">
				<path id="Path_53219" fill="#FFFFFF" d="M-913.7-1381.7c13.9-0.1,25.1-11.3,25-25.2c-0.1-13.9-11.3-25.1-25.2-25
					c-1.8,0-3.6,0.2-5.3,0.6c-2.2-18.5-19-31.7-37.5-29.4c-13,1.6-24,10.6-28,23c-11.7-3.8-24.3,2.7-28,14.4c-0.5,1.6-0.9,3.3-1,5
					c-7.1-3.3-15.4-0.2-18.7,6.8c-0.9,1.9-1.3,3.9-1.3,6c-6.6,0.1-11.8,5.5-11.8,12.1c0.1,6.5,5.4,11.8,11.9,11.8L-913.7-1381.7z"/>
			</g>
			<g id="Group_19904" transform="translate(426.264 176.523)">
				<path fill="#E4B62C" d="M-831-1344.1c-1.8,20.7-9.4,39.7-21.3,55.3c-19.6,26-50.7,42.7-85.8,42.7c-59.1,0-107-47.6-107.5-106.6
					c31.5-7.7,63.8-13,96.7-15.8c31.3-2.6,59.5,0.9,84.8,9.4C-852.4-1355-841.4-1350.1-831-1344.1z"/>
			</g>
			<g id="Group_19905" transform="translate(558.407 265.919)">
				<path fill="#FFFFFF" d="M-905.4-1384.5c-4.9,4-11.2,6.3-18,6.3H-1027c-0.8,0-1.6,0-2.4-0.2c-10.2-1.3-17.3-10.6-16-20.8
					c1.3-10.2,10.6-17.3,20.8-16c0-0.3,0-0.6,0-0.9c0-1.5,0.2-3.1,0.6-4.5c2.5-8.8,11.6-14,20.5-11.6c1-6.1,3.6-11.7,7.4-16.2
					c11.6,3.9,22.7,8.9,33,14.8C-941.2-1421.1-922-1404.4-905.4-1384.5z"/>
			</g>
		</g>
	</g>
</g>
<g id="Group_19899" transform="translate(799.425 1295.902)">
	<g id="Group_19859" transform="translate(298.426 439.656)">
		<path fill="#EEE8D3" d="M-586-1461v240.3h-432.7c-6.9-5.2-13.3-10.4-19.4-15.7c-2.5-2.2-5-4.4-7.4-6.7V-1461H-586z"/>
	</g>
	<g id="Group_19860" transform="translate(298.426 439.656)">
		<path fill="#FFFFFF" d="M-586-1461v240.3h-432.7c-6.9-5.2-13.3-10.4-19.4-15.7c-2.5-2.2-5-4.4-7.4-6.7V-1461H-586z"/>
	</g>
	<g id="Group_19861" transform="translate(334.837 467.988)">
		<rect id="Rectangle_16212" x="-1045.5" y="-1461" fill="#D57872" width="226.6" height="168.9"/>
	</g>
	<g id="Group_19862" transform="translate(342.259 462.456)">
		<rect id="Rectangle_16213" x="-1045.5" y="-1461" fill="#BDD8E6" width="211.8" height="157.9"/>
	</g>
	<g id="Group_19863" transform="translate(443.358 460.684)">
		<rect id="Rectangle_16214" x="-1045.5" y="-1461" fill="#D57872" width="9.6" height="169.4"/>
	</g>
	<g id="Group_19864" transform="translate(321.199 626.412)">
		<path id="Path_53186" fill="#B4716D" d="M-790.6-1452.6c0,4.6-3.8,8.4-8.4,8.4c0,0,0,0,0,0h-238.2c-4.6-0.1-8.4-3.8-8.3-8.5
			c0-4.6,3.7-8.3,8.3-8.3H-799C-794.3-1461-790.6-1457.3-790.6-1452.6C-790.6-1452.6-790.6-1452.6-790.6-1452.6z"/>
	</g>
	<g id="Group_19865" transform="translate(278.491 664.184)">
		<path fill="#69493B" d="M-544-1443.7v37.2h-393.2c-4-2.2-8-4.4-11.9-6.6c-10.7-6.1-21-12.4-30.7-18.9c-6.6-4.4-12.9-8.8-18.9-13.4
			c-6.9-5.2-13.3-10.4-19.4-15.7h456.9C-551.8-1461-544-1453.3-544-1443.7z"/>
	</g>
	<g id="Group_19866" transform="translate(614.354 486.87)">
		<rect id="Rectangle_16215" x="-1045.5" y="-1461" fill="#D57872" width="107.9" height="217.2"/>
	</g>
	<g id="Group_19867" transform="translate(282.18 351.525)">
		<path fill="#D57872" d="M-550.3-1434.3v97.6h-495.2v-44.8c2.5-4.1,5-8.3,7.7-12.4c0.4-0.6,0.8-1.3,1.2-1.9
			c14.7-22.3,32.6-44.2,53.3-65.3h406.3C-562.3-1461-550.3-1449-550.3-1434.3z"/>
	</g>
	<g id="Group_19868" transform="translate(226.575 418.674)">
		<path fill="#F9863A" d="M-437-1403.8h-574.8c0,0,0,0,0,0c0,0,0,0,0,0c5.7-14.9,13-29.8,21.8-44.7c2.5-4.1,5-8.3,7.7-12.4h489.1
			L-437-1403.8z"/>
	</g>
	<g id="Group_19869" transform="translate(687.474 487.459)">
		<rect id="Rectangle_16216" x="-1045.5" y="-1461" fill="#D57872" width="34.6" height="207.5"/>
	</g>
	<g id="Group_19870" transform="translate(614.49 486.87)">
		<rect id="Rectangle_16217" x="-1045.5" y="-1461" fill="#D57872" width="34.6" height="207.5"/>
	</g>
	<g id="Group_19873" transform="translate(619.078 598.608)">
		<g id="Group_19871" transform="translate(5.119 4.079)">
			<path id="Path_53190" fill="#FFFFFF" d="M-1009.7-1457.2c0,2.1-1.7,3.8-3.8,3.8c0,0,0,0,0,0h-28.3c-2.1,0-3.8-1.7-3.8-3.8
				c0-2.1,1.7-3.8,3.8-3.8h28.3C-1011.4-1461-1009.7-1459.3-1009.7-1457.2C-1009.7-1457.2-1009.7-1457.2-1009.7-1457.2z"/>
		</g>
		<g id="Group_19872" transform="translate(0 0)">
			<path id="Path_53191" fill="#FFFFFF" d="M-1029.8-1453.1c0,4.3-3.5,7.9-7.9,7.9c-4.3,0-7.9-3.5-7.9-7.9c0-4.3,3.5-7.9,7.9-7.9
				c0,0,0,0,0,0C-1033.3-1461-1029.8-1457.5-1029.8-1453.1C-1029.8-1453.1-1029.8-1453.1-1029.8-1453.1z"/>
		</g>
	</g>
	<g id="Group_19895" transform="translate(227.004 475.654)">
		<g id="Group_19882">
			<g id="Group_19877" transform="translate(0 0.047)">
				<g id="Group_19874" transform="translate(0 0.102)">
					<path fill="#F5E0DF" d="M-998.7-1461v20c0,0.5,0,1.1-0.1,1.6c-0.9,12.2-11.1,21.8-23.5,21.7c-0.6,0-1.2,0-1.8-0.1
						c2.3-14.2,6.3-28.6,11.8-43.1c0,0,0,0,0,0c0,0,0,0,0,0H-998.7z"/>
				</g>
				<g id="Group_19875" transform="translate(46.74 0.052)">
					<path id="Path_53193" fill="#D57872" d="M-998.7-1441c0.1,12.9-10.3,23.5-23.3,23.6c-12.9,0.1-23.5-10.3-23.6-23.3
						c0-0.1,0-0.2,0-0.3v-20h46.9V-1441z"/>
				</g>
				<g id="Group_19876" transform="translate(93.654)">
					<path id="Path_53194" fill="#F5E0DF" d="M-998.7-1441c0,12.9-10.5,23.4-23.4,23.4c-12.9,0-23.4-10.5-23.4-23.4v-20h46.9V-1441z
						"/>
				</g>
			</g>
			<g id="Group_19881" transform="translate(140.486)">
				<g id="Group_19878">
					<path id="Path_53195" fill="#D57872" d="M-998.7-1441c0,12.9-10.5,23.4-23.4,23.4c-12.9,0-23.4-10.5-23.4-23.4v-20h46.9V-1441z
						"/>
				</g>
				<g id="Group_19879" transform="translate(46.839)">
					<path id="Path_53196" fill="#F5E0DF" d="M-998.7-1441c0,12.9-10.5,23.4-23.4,23.4c-12.9,0-23.4-10.5-23.4-23.4c0,0,0,0,0,0v-20
						h46.9V-1441z"/>
				</g>
				<g id="Group_19880" transform="translate(93.7)">
					<path id="Path_53197" fill="#D57872" d="M-998.7-1441c0,12.9-10.5,23.4-23.4,23.4c-12.9,0-23.4-10.5-23.4-23.4v-20h46.9V-1441z
						"/>
				</g>
			</g>
		</g>
		<g id="Group_19891" transform="translate(279.999)">
			<g id="Group_19886" transform="translate(0 0.047)">
				<g id="Group_19883" transform="translate(0 0.102)">
					<path id="Path_53198" fill="#F5E0DF" d="M-998.7-1441c0.1,12.9-10.3,23.5-23.3,23.6c-12.9,0.1-23.5-10.3-23.6-23.3
						c0-0.1,0-0.2,0-0.3v-20h46.9V-1441z"/>
				</g>
				<g id="Group_19884" transform="translate(46.738 0.052)">
					<path id="Path_53199" fill="#D57872" d="M-998.7-1441c0,12.9-10.5,23.4-23.4,23.4c-12.9,0-23.4-10.5-23.4-23.4c0,0,0,0,0,0v-20
						h46.9V-1441z"/>
				</g>
				<g id="Group_19885" transform="translate(93.652)">
					<path id="Path_53200" fill="#F5E0DF" d="M-998.7-1441c0,12.9-10.5,23.4-23.4,23.4s-23.4-10.5-23.4-23.4c0,0,0,0,0,0v-20h46.9
						V-1441z"/>
				</g>
			</g>
			<g id="Group_19890" transform="translate(140.484)">
				<g id="Group_19887">
					<path id="Path_53201" fill="#D57872" d="M-998.7-1441c0,12.9-10.5,23.4-23.4,23.4c-12.9,0-23.4-10.5-23.4-23.4v-20h46.9V-1441z
						"/>
				</g>
				<g id="Group_19888" transform="translate(46.841)">
					<path id="Path_53202" fill="#F5E0DF" d="M-998.7-1441c0,12.9-10.5,23.4-23.4,23.4c-12.9,0-23.4-10.5-23.4-23.4v-20h46.9V-1441z
						"/>
				</g>
				<g id="Group_19889" transform="translate(93.704)">
					<path id="Path_53203" fill="#D57872" d="M-998.7-1441c0.1,12.9-10.3,23.5-23.3,23.6c-12.9,0.1-23.5-10.3-23.6-23.3
						c0-0.1,0-0.2,0-0.3v-20h46.9V-1441z"/>
				</g>
			</g>
		</g>
		<g id="Group_19894" transform="translate(561.069 0.149)">
			<g id="Group_19893">
				<g id="Group_19892">
					<path id="Path_53204" fill="#F5E0DF" d="M-998.7-1441c0.1,12.9-10.3,23.5-23.3,23.6c-12.9,0.1-23.5-10.3-23.6-23.3
						c0-0.1,0-0.2,0-0.3v-20h46.9V-1441z"/>
				</g>
			</g>
		</g>
	</g>
	<g id="Group_19896" transform="translate(578.558 694.61)">
		<path id="Path_53205" fill="#5A3B2E" d="M-867.2-1448.4c0-6.9-5.6-12.6-12.6-12.6c0,0,0,0,0,0h-153.2c-7,0-12.6,5.6-12.6,12.6
			c0,0,0,0,0,0v10.5h178.4V-1448.4z"/>
	</g>
	<g id="Group_19898" transform="translate(227.008 418.477)">
		<path id="Path_53206" fill="#FFECEB" d="M-484.5-1403.7l-49.3-57.1h40.2l56,57.1H-484.5z"/>
		<path id="Path_53207" fill="#D3A09D" d="M-484.5-1403.7l-49.3-57.1h-37.4l39.9,57L-484.5-1403.7z"/>
		<path id="Path_53208" fill="#FFECEB" d="M-578.2-1403.8l-30.7-57.1l37.6,0.2l39.9,57H-578.2z"/>
		<path id="Path_53209" fill="#D3A09D" d="M-578.2-1403.8l-30.7-57.1h-39.4l23.2,57.2L-578.2-1403.8z"/>
		<path id="Path_53210" fill="#FFECEB" d="M-671.9-1403.7l-14.6-57.1l38.2-0.1l23.2,57.2L-671.9-1403.7z"/>
		<path id="Path_53211" fill="#D3A09D" d="M-671.9-1403.7l-14.6-57.1h-38.1l5.9,57.2L-671.9-1403.7z"/>
		<path id="Path_53212" fill="#FFECEB" d="M-765.5-1403.7l2.8-57.1l38.2,0l5.9,57.2H-765.5z"/>
		<path id="Path_53213" fill="#D3A09D" d="M-765.5-1403.7l2.8-57.1l-37-0.2l-11.6,57.2L-765.5-1403.7z"/>
		<g id="Group_19897">
			<path fill="#FFECEB" d="M-951.9-1460.8l-17.2,21h0l-5,6.1v0l-16.3,19.8l-8.3,10.1l-0.1,0.1v0h-13.5c0,0,0,0,0,0
				c5.7-14.9,13-29.8,21.8-44.7c2.5-4.1,5-8.3,7.7-12.4H-951.9z"/>
			<path id="Path_53215" fill="#D3A09D" d="M-998.7-1403.7l46.8-57.1h37.4l-37.3,57L-998.7-1403.7z"/>
			<path id="Path_53216" fill="#FFECEB" d="M-905-1403.8l28.1-57.1l-37.6,0.2l-37.3,57H-905z"/>
			<path id="Path_53217" fill="#D3A09D" d="M-905-1403.8l28.1-57.1h39.4l-20.7,57.2L-905-1403.8z"/>
			<path id="Path_53218" fill="#FFECEB" d="M-811.2-1403.7l11.4-57.3l-37.6,0l-20.7,57.2L-811.2-1403.7z"/>
		</g>
	</g>
</g>
<g id="Group_20389" transform="translate(908.49 1289.771)">
	<g id="Group_20373" transform="translate(696.51 507.532)">
		<g id="Group_20366" transform="translate(65.021 82.553)">
			<path id="Path_53333" fill="#D3673D" d="M-1035.8-1461c5.2,0,9.4,2.7,9.4,6l-0.4,86.2c0,3.3-4.2,6-9.4,6l0,0
				c-5.2,0-9.4-2.7-9.4-6l0.4-86.3C-1045.2-1458.3-1041-1461-1035.8-1461L-1035.8-1461z"/>
		</g>
		<g id="Group_20367" transform="translate(0 42.82)">
			<path id="Path_53334" fill="#819C2A" d="M-980.1-1428.3c0,18.1-14.6,32.7-32.7,32.7c-18.1,0-32.7-14.6-32.7-32.7
				c0-18.1,14.6-32.7,32.7-32.7c0,0,0,0,0,0C-994.8-1461-980.2-1446.4-980.1-1428.3z"/>
		</g>
		<g id="Group_20368" transform="translate(21.723 42.82)">
			<path id="Path_53335" fill="#819C2A" d="M-972.2-1424.3c0,20.3-16.4,36.7-36.7,36.7c-20.3,0-36.7-16.4-36.7-36.7
				c0-20.3,16.4-36.7,36.7-36.7c0,0,0,0,0,0C-988.6-1461-972.2-1444.6-972.2-1424.3z"/>
		</g>
		<g id="Group_20369" transform="translate(58.416)">
			<path id="Path_53336" fill="#819C2A" d="M-986.1-1431.3c0,16.4-13.3,29.7-29.7,29.7s-29.7-13.3-29.7-29.7
				c0-16.4,13.3-29.7,29.7-29.7C-999.5-1461-986.2-1447.7-986.1-1431.3C-986.1-1431.3-986.1-1431.3-986.1-1431.3z"/>
		</g>
		<g id="Group_20370" transform="translate(22.714 3.728)">
			<path id="Path_53337" fill="#819C2A" d="M-980.1-1428.3c0,18.1-14.6,32.7-32.7,32.7s-32.7-14.6-32.7-32.7
				c0-18.1,14.6-32.7,32.7-32.7S-980.1-1446.4-980.1-1428.3L-980.1-1428.3z"/>
		</g>
		<g id="Group_20371" transform="translate(65.265 27.599)">
			<path id="Path_53338" fill="#819C2A" d="M-961.5-1419c0,23.2-18.8,42-42,42c-23.2,0-42-18.8-42-42c0-23.2,18.8-42,42-42
				c0,0,0,0,0,0C-980.3-1461-961.5-1442.2-961.5-1419z"/>
		</g>
		<g id="Group_20372" transform="translate(39.994 173.264)">
			<path id="Path_53339" fill="#819C2A" d="M-975.7-1442.1c-12.6-19.3-38.5-24.7-57.8-12c-4.8,3.1-8.9,7.2-12,12H-975.7z"/>
		</g>
	</g>
	<g id="Group_20388" transform="translate(800.855 407.015)">
		<g id="Group_20374" transform="translate(20.131 199.9)">
			<path id="Path_53340" fill="#AFAFAF" d="M-1026.4-1406.9h-19.1v-51.8c0-1.2,1-2.3,2.3-2.3h14.6c1.2,0,2.3,1,2.3,2.3c0,0,0,0,0,0
				V-1406.9z"/>
		</g>
		<g id="Group_20375" transform="translate(22.384 106.238)">
			<rect id="Rectangle_16221" x="-1045.5" y="-1461" fill="#AFAFAF" width="13.5" height="143.8"/>
		</g>
		<g id="Group_20376" transform="translate(0 222.612)">
			<path id="Path_53341" fill="#B7BEC7" d="M-996.2-1401.4c-0.4-0.4-0.9-0.6-1.4-0.6c-0.5,0-1-0.4-1-1v-40.9
				c0-9.5-7.7-17.2-17.2-17.2c-9.5,0-17.1,7.7-17.2,17.2v40.9c0,0.5-0.4,1-1,1c-0.5,0-1,0.2-1.4,0.6l-10.3,10.3l59.8,0.1
				L-996.2-1401.4z"/>
		</g>
		<g id="Group_20377" transform="translate(23.322)">
			<path id="Path_53342" fill="#E05322" d="M-1034.8-1455.7c0,3-2.4,5.4-5.3,5.4c-3,0-5.4-2.4-5.4-5.3c0-3,2.4-5.4,5.3-5.4
				c0,0,0,0,0,0C-1037.2-1461-1034.8-1458.6-1034.8-1455.7C-1034.8-1455.7-1034.8-1455.7-1034.8-1455.7z"/>
		</g>
		<g id="Group_20378" transform="translate(9.808 9.949)">
			<path id="Path_53343" fill="#F36C35" d="M-1007.2-1441.9c0-10.6-8.6-19.1-19.1-19.1c-10.6,0-19.1,8.6-19.1,19.1v2.6h38.3V-1441.9
				z"/>
		</g>
		<g id="Group_20379" transform="translate(1.362 31.532)">
			<path id="Path_53344" fill="#E05322" d="M-989.6-1461h-55.9c0,2,1.6,3.6,3.6,3.6h48.8C-991.2-1457.4-989.6-1459-989.6-1461z"/>
		</g>
		<g id="Group_20380" transform="translate(5.493 34.819)">
			<path id="Path_53345" fill="#FC8860" d="M-998-1461h-47.6c0,2,1.6,3.6,3.6,3.6l0,0h40.4C-999.6-1457.4-998-1459-998-1461
				L-998-1461L-998-1461z"/>
		</g>
		<g id="Group_20381" transform="translate(10.7 41.213)" opacity="0.8">
			<path id="Path_53346" fill="#F7E5C1" d="M-1045.5-1461v29.9c0,5.6,2.2,10.9,6.1,14.9c4.7,4.7,7.3,11.1,7.3,17.7l0,3.5l10.2-0.1
				v-3.2c0-6.7,2.6-13.1,7.3-17.9c3.9-4,6.1-9.4,6.1-15v-29.8H-1045.5z"/>
		</g>
		<g id="Group_20382" transform="translate(8.026 38.104)">
			<path id="Path_53347" fill="#E05322" d="M-1003.2-1461h-42.3c0,2,1.6,3.6,3.6,3.6h35.2C-1004.8-1457.4-1003.2-1459-1003.2-1461z"
				/>
		</g>
		<g id="Group_20383" transform="translate(23.979 84.277)">
			<rect id="Rectangle_16222" x="-1045.5" y="-1461" fill="#BF593A" width="10.5" height="12.5"/>
		</g>
		<g id="Group_20386" transform="translate(20.813 63.086)">
			<g id="Group_20384">
				<path id="Path_53348" fill="#FFFFFF" d="M-1028.8-1452.7c0-4.6-3.7-8.4-8.4-8.4c-4.6,0-8.4,3.7-8.4,8.4c0,1.4,0.3,2.7,1,3.9
					c0.8,1.3,1.3,2.7,1.4,4.2v4.2c0,3.3,2.6,6.1,5.9,6.1c3.3,0,6.1-2.6,6.1-5.9c0-0.1,0-0.1,0-0.2v-4.3c0.1-1.5,0.6-2.9,1.3-4.2
					C-1029.2-1450-1028.8-1451.3-1028.8-1452.7z"/>
			</g>
			<g id="Group_20385" transform="translate(2.389 21.524)">
				<path id="Path_53349" fill="#D3673D" d="M-1033.6-1460.4c0,3.3-2.6,6-5.9,6.1s-6-2.6-6.1-5.9c0-0.1,0-0.1,0-0.2v-0.6h12V-1460.4
					z"/>
			</g>
		</g>
		<g id="Group_20387" transform="translate(20.181 95.35)">
			<path id="Path_53350" fill="#FC8860" d="M-1028.7-1458c-0.6-0.6-1-1.4-1-2.3v-0.2c0-0.3-0.3-0.6-0.6-0.6c0,0,0,0,0,0h-12.4
				c-0.3,0-0.6,0.3-0.6,0.6v0.2c0,0.9-0.3,1.7-1,2.3l-0.9,0.9c-0.3,0.3-0.4,0.6-0.4,1v9c0,2.5,2,4.5,4.5,4.5h9.2
				c2.5,0,4.5-2,4.5-4.5v-9c0-0.4-0.1-0.7-0.4-0.9L-1028.7-1458z"/>
		</g>
	</g>
</g>
</svg>
