<svg xmlns="http://www.w3.org/2000/svg" width="213.331" height="133.092" viewBox="0 0 213.331 133.092">
  <g id="Group_20568" data-name="Group 20568" transform="translate(-985.359 -1635.123)">
    <path id="Path_53812" data-name="Path 53812" d="M1301.5,1136s12.782-43.7.354-57.453c0,0-4.662-2.743-5.426,3.937s-9.674,21.791-15.31,19.781c0,0-2.316-.4-.311-2.742s18.012-36.545,1.435-57.932c0,0-5.172-6.862-5.829,1.531s-1.758,21.815-10.064,27.045c0,0-5.549,3.267-3.132-2.79s13.3-33.377-5.6-48.433c0,0-7.386-5.345-5.886,5.657s-6.672,23.343-10.232,22.669,12.255-17.86-11.972-37.449c0,0-10.355-8.068-17.238-6.772,0,0-21.344,19.56,2.7,42.413,0,0,.956,2.027-1.522,2.006s-16.043-5.517-19.763-16.83-11.049,9.892-8.231,18.642,8.6,18.7,28.46,28.8c0,0,2.037,3.158-2.316,2.547s-17.541-1.2-26.453-17.683-14.542,11.137-7.269,20.78c25.6,33.944-4.862,23.467-2.227,52.09" transform="translate(-108.598 632.215)" fill="#487c86"/>
    <path id="Path_53813" data-name="Path 53813" d="M1227.649,1135.89s2.1-27.511-13.384-36.54c0,0-5.1-1.161-3.845,5.219s-2.524,22.915-8.306,22.716c0,0-2.25.315-1.091-2.435s5.879-38.956-15.667-53.8c0,0-6.778-4.806-4.922,3.12s4.778,20.616-1.341,27.87c0,0-4.156,4.638-3.705-1.651s2.469-34.656-19.363-42.986c0,0-8.374-2.758-3.764,6.939s.7,23.465-2.781,23.889,6.054-20.051-22.014-31c0,0-11.907-4.4-17.869-1.185,0,0-13.93,24.283,14.929,38.288,0,0,1.475,1.588-.814,2.294s-16.4-.378-23.145-9.711-7.28,12.355-2.118,19.591,13.409,14.708,34.67,18.19c0,0,2.8,2.312-1.387,3.026s-16.515,4.037-29.56-8.536c-11.765-11.338-11.267,7.392-4.109,16.808" transform="translate(-107.598 632.215)" fill="#6ba9a3"/>
  </g>
</svg>
