<svg xmlns="http://www.w3.org/2000/svg" width="32" height="32" viewBox="0 0 32 32">
  <path id="instagram" d="M16,32A16,16,0,0,1,4.687,4.687,16,16,0,1,1,27.314,27.314,15.9,15.9,0,0,1,16,32ZM16,2.667A13.333,13.333,0,1,0,29.334,16,13.349,13.349,0,0,0,16,2.667ZM16,24c-2.144,0-2.431-.009-3.3-.049-2.911-.133-4.52-1.742-4.654-4.653C8.009,18.448,8,18.165,8,16s.009-2.447.048-3.3C8.181,9.792,9.79,8.183,12.7,8.05,13.563,8.009,13.822,8,16,8s2.455.009,3.3.05c2.913.132,4.521,1.74,4.652,4.652.039.868.049,1.154.049,3.3s-.009,2.432-.049,3.3c-.131,2.91-1.739,4.519-4.652,4.653C18.432,23.991,18.145,24,16,24ZM16,9.443c-2.113,0-2.376.006-3.232.045-2.169.1-3.181,1.111-3.28,3.28-.036.821-.047,1.068-.047,3.232s.011,2.411.047,3.232c.1,2.169,1.113,3.18,3.28,3.28.841.039,1.093.047,3.232.047,2.115,0,2.371-.008,3.233-.047,2.168-.1,3.18-1.109,3.281-3.28.037-.848.045-1.1.045-3.232s-.008-2.383-.045-3.232c-.1-2.169-1.112-3.181-3.281-3.279C18.391,9.451,18.139,9.443,16,9.443Zm0,10.665A4.108,4.108,0,1,1,20.108,16,4.113,4.113,0,0,1,16,20.108Zm0-6.774A2.667,2.667,0,1,0,18.668,16,2.67,2.67,0,0,0,16,13.333Zm4.269-.643a.96.96,0,1,1,.962-.96A.961.961,0,0,1,20.269,12.691Z" fill="#d57872

"/>
</svg>
