<svg xmlns="http://www.w3.org/2000/svg" width="32" height="32" viewBox="0 0 32 32">
  <path id="twitter" d="M16,32A16,16,0,0,1,4.687,4.687,16,16,0,1,1,27.314,27.314,15.9,15.9,0,0,1,16,32ZM16,2.667A13.333,13.333,0,1,0,29.334,16,13.349,13.349,0,0,0,16,2.667Zm-2.3,20.5a9.3,9.3,0,0,1-5.03-1.474,6.735,6.735,0,0,0,.784.046,6.558,6.558,0,0,0,4.079-1.408,3.284,3.284,0,0,1-3.067-2.279A3.29,3.29,0,0,0,11.946,18a3.3,3.3,0,0,1-2.633-3.26,3.3,3.3,0,0,0,1.485.41,3.291,3.291,0,0,1-1.016-4.383,9.355,9.355,0,0,0,6.765,3.43A3.284,3.284,0,0,1,22.14,11.2a6.553,6.553,0,0,0,2.085-.8,3.293,3.293,0,0,1-1.444,1.816,6.555,6.555,0,0,0,1.885-.517,6.573,6.573,0,0,1-1.638,1.7,9.677,9.677,0,0,1-2.639,6.987A9,9,0,0,1,13.7,23.168Z" fill="#333"/>
</svg>
