<svg xmlns="http://www.w3.org/2000/svg" width="836.245" height="543.258" viewBox="0 0 836.245 543.258">
  <g id="Group_17060" data-name="Group 17060" transform="translate(-395.743 -277.011)">
    <g id="Group_14132" data-name="Group 14132" transform="translate(395.743 277.011)">
      <path id="Path_38697" data-name="Path 38697" d="M820,789.707c207.509-28.421,249.287,54.873,384.732,23.3s128.726-252.525-19.112-314.131-188.813-143.893-279.2-187.8C498.066,112.735,396.07,847.768,820,789.707Z" transform="translate(-465.383 -277.011)" fill="#bdd8e6" fill-rule="evenodd"/>
      <path id="Path_38698" data-name="Path 38698" d="M1779.772,764.8a184.506,184.506,0,0,0-89.457-78.958c-1.873-.78-3.716-1.567-5.555-2.354a110.875,110.875,0,0,0-40.379,19.078l88.813,64.506Z" transform="translate(-970.079 -463.976)" fill="#fff" fill-rule="evenodd"/>
      <path id="Path_38699" data-name="Path 38699" d="M1906.759,857.732a197.318,197.318,0,0,0-11.289-23.021,197.2,197.2,0,0,1,11.282,23.043Z" transform="translate(-1085.572 -533.536)" fill="#c51c7a" fill-rule="evenodd"/>
      <path id="Path_38700" data-name="Path 38700" d="M1163.546,702.386c.249-4.917,1.79-12.964,9.127-13.859,10.647-1.3,13.243,6.233,13.243,6.233s-.519-35.316,31.681-35.576,40.1,16.1,40.1,16.1.744-48.079,56.536-56.5,75.527,35.725,75.527,35.725,6.233-7.79,17.918-4.933c8.922,2.181,12.812,13.265,12.664,20.65l-6.993-5.078-236.822,40.509S1171.506,704.376,1163.546,702.386Z" transform="translate(-748.909 -433.725)" fill="#efefef" fill-rule="evenodd"/>
      <path id="Path_38701" data-name="Path 38701" d="M1163.546,706.477a22.3,22.3,0,0,1,1.965-8.556,9.363,9.363,0,0,1,2.1-.5c10.647-1.3,13.243,6.232,13.243,6.232a45.861,45.861,0,0,1,1.107-9.387,9.782,9.782,0,0,1,3.957,4.583s-.214-14.8,8.371-25.31c4.448-3.232,10.365-5.4,18.246-5.462,32.2-.26,40.1,16.1,40.1,16.1a49.208,49.208,0,0,1,1.387-9.469,18.925,18.925,0,0,1,3.677,4.665,60.287,60.287,0,0,1,15.682-36.65c8.233-6.906,19.726-12.62,35.79-15.044,55.792-8.42,75.527,35.725,75.527,35.725s6.232-7.79,17.918-4.934c5.365,1.311,8.909,5.841,10.851,10.851l-.116-.084-236.822,40.509S1171.506,708.467,1163.546,706.477Z" transform="translate(-748.909 -437.817)" fill="#fff" fill-rule="evenodd"/>
      <path id="Path_38702" data-name="Path 38702" d="M814.073,608.662c.863-1.967,2.527-6.874-.419-10.429-3.765-4.544-7.011-3.506-7.011-3.506s4.285-29.992-32.329-37.523-50.9,18.177-50.9,18.177,1.817-9.349-11.426-14.023-18.437,1.818-18.437,1.818-.005-83.131-92.2-114.871c-39.74,56.609-58.433,131.59-53.276,202.725q-.21-2.894-.368-5.8c66.98-13.451,217.714-43.468,229-43.468C781.627,601.764,796.518,604.733,814.073,608.662Z" transform="translate(-465.427 -355.801)" fill="#efefef" fill-rule="evenodd"/>
      <path id="Path_38703" data-name="Path 38703" d="M739.992,564.378a40.719,40.719,0,0,0-16.57,14.739,9.966,9.966,0,0,0-.657-5.031,35.452,35.452,0,0,0-6.614,7.887s1.817-9.349-11.426-14.023a24.849,24.849,0,0,0-10.593-1.613,5.254,5.254,0,0,0-.573.574s0-.177-.009-.509c-5.1.66-7.262,3.365-7.262,3.365s-.005-80.547-87.934-113.342C561.482,511.3,543.82,582.362,547.8,650.348h0q-.04-.691-.078-1.382c66.98-13.451,217.714-43.468,229-43.468,4.335,0,16.431,2.31,31.269,5.55a8.018,8.018,0,0,0-1.6-6.225c-3.765-4.544-7.011-3.505-7.011-3.505s4.285-29.993-32.33-37.523C756.105,561.546,747.16,562.265,739.992,564.378Z" transform="translate(-465.431 -359.537)" fill="#fff" fill-rule="evenodd"/>
      <path id="Path_38704" data-name="Path 38704" d="M820.446,986.82c207.509-28.421,249.287,54.873,384.732,23.3,98.484-22.959,121.781-146.026,70.345-235.172l-46.578,2.272-98.676-71.669L893.447,746.055s-101.792-25.967-116.334-25.967c-11.284,0-162.018,30.017-229,43.468C555.126,892.875,640.247,1011.5,820.446,986.82Z" transform="translate(-465.829 -474.124)" fill="#0e755d" fill-rule="evenodd"/>
      <path id="Path_38705" data-name="Path 38705" d="M825.3,1065.122c207.509-28.421,249.287,54.873,384.732,23.3,67.17-15.659,99.352-77.887,96.715-144.159l-49.277-36.281-243.055-29.083L853.459,933.651l-87.293-57.872-207.5,10.747C581.179,996.933,666.151,1086.918,825.3,1065.122Z" transform="translate(-470.682 -552.426)" fill="#0e6c75" fill-rule="evenodd"/>
      <path id="Path_38706" data-name="Path 38706" d="M507.908,909.213s-7.927-46.4-26.918-67.335c0,0-14.475,5.5-19.64.031S455.3,836.6,455.3,836.6l4.655-11.677-9.519,7.973s-14.062-13.315-31.511-16.378-21.51-2.068-23.186-4.8c0,0,16.236-18.189,53.577-7.491s35.849,29.389,35.849,29.389l-.325,4.287,7.895,14.368L479.4,811.322s-21.561-2.362-17.558-17.855,33.262-22.91,40.668-20.247S512.7,797.473,512.7,797.473s-13.294.911-15.039-.453a31.75,31.75,0,0,0-2.923-2.07s-11.119,5.676-7.321,24.371,9.723,30.377,12.6,40.161S511.14,908.66,511.14,908.66Z" transform="translate(-395.743 -505.007)" fill="#75cc96" fill-rule="evenodd"/>
      <path id="Path_38707" data-name="Path 38707" d="M540.836,796.043l-26.083-105.48-7.739-9.746s-19.347-7.668-22.93-20.136.393-14.905-6.826-25.511,0-23.79,0-23.79,8.259,18.631,24.6,25.224S516.834,687.7,516.834,687.7L543.7,796.256Z" transform="translate(-431.762 -430.81)" fill="#75cc96" fill-rule="evenodd"/>
      <path id="Path_38708" data-name="Path 38708" d="M481.9,646.087c-.43-3.091-1.424-6.194-4.639-10.917-7.219-10.605,0-23.79,0-23.79a60.374,60.374,0,0,0,9.264,13.932A107.328,107.328,0,0,1,481.9,646.087Z" transform="translate(-431.762 -430.81)" fill="#b4d0be" fill-rule="evenodd"/>
      <g id="Group_14102" data-name="Group 14102" transform="translate(172.559 272.291)">
        <path id="Path_38709" data-name="Path 38709" d="M742.7,834.616c2.309-4.148,7.268-13.107,11.057-20.294,5.108-9.689,11.873-13.533,11.873-13.533s-.637,5.709,4.1,7.387,15.2-4.927,15.544-14.3-13.947-8.445-13.947-8.445-11.07-6.718-16.685-3.162-6.672,18.3-6.672,18.3-4.292,1.025-4.9,3.085,3.58,14.118,3.58,14.118l-7.574,15.328A39.084,39.084,0,0,1,742.7,834.616Z" transform="translate(-726.224 -781.226)" fill="#b4d0be" fill-rule="evenodd"/>
        <path id="Path_38710" data-name="Path 38710" d="M730.829,910.723l20.435-56.172s-4.444-16.014-2.338-26.441c2.268-6.021,3.259-6.367,7.259-10.1,10.28-8.464,30.179-22.9,49.987-22.549,0,0,1.8,4.253-4.817,11.665s-38.417,41.8-46.434,47.318l-21.91,57.212Z" transform="translate(-722.432 -787.769)" fill="#75cc96" fill-rule="evenodd"/>
        <path id="Path_38711" data-name="Path 38711" d="M778.89,800.789s.384-14.374-10.991-18.524c5.615-3.556,16.685,3.162,16.685,3.162s14.291-.934,13.947,8.444-10.809,15.982-15.544,14.3S778.89,800.789,778.89,800.789Z" transform="translate(-739.483 -781.226)" fill="#75cc96" fill-rule="evenodd"/>
        <path id="Path_38712" data-name="Path 38712" d="M715.279,970.53s26.151-64.949,31.741-74.461S802.9,865.48,821.5,869.187c0,0,2.531,3.389-4.121,7.019s-32.641,23.033-32.641,23.033l-4.791-6.7-.015,7.05s-16.909,13.269-32.976,8.545l-29.583,66.25Z" transform="translate(-715.279 -821.486)" fill="#75cc96" fill-rule="evenodd"/>
        <path id="Path_38713" data-name="Path 38713" d="M830.723,878.357c16.045-6.344,34.229-11.094,43.883-9.171,0,0,2.531,3.389-4.121,7.019-1.353.738-3.508,2.13-6.08,3.878-.255-.189-.51-.386-.762-.6C857.605,874.3,843.246,875.741,830.723,878.357Z" transform="translate(-768.38 -821.486)" fill="#b4d0be" fill-rule="evenodd"/>
      </g>
      <path id="Path_38714" data-name="Path 38714" d="M656.986,457.9a59.092,59.092,0,0,0,6.315-2.282c10.245-4.7,36.285-34.576,43.968-40.98s38.951-15.368,40.232-17.289S749,388.811,749,388.811h2.454l-.32,8,14.194-6.3,1.387,1.708s-45.889,22.731-48.023,25.719-42.9,61.471-42.9,61.471-7.207,2.691-17,6.358l15.833,244.847-82-5.26A222.173,222.173,0,0,0,612.2,756.181l-.11-.007a232.974,232.974,0,0,1-32.908-61.06l.987-210.307c15-43.054,39.046-81.984,71.378-111.046Z" transform="translate(-480.118 -321.513)" fill="#85351c" fill-rule="evenodd"/>
      <path id="Path_38715" data-name="Path 38715" d="M766.958,499.086C754.985,516.247,741.15,536.1,741.15,536.1s-7.207,2.691-17,6.358l0,.077-1.029-.737-1.845-7.515s12.724-4.285,14.671-6.233,13.892-19.605,13.892-19.605l1.3,1.169-4.285,9.218L748.03,520S761.792,497.4,762.9,497.015C763.585,496.771,765.568,498.074,766.958,499.086Z" transform="translate(-545.482 -378.192)" fill="#8d5f50" fill-rule="evenodd"/>
      <path id="Path_38716" data-name="Path 38716" d="M696.819,919.49l-9.609-.616L675.874,787.479l5.437,1.3Z" transform="translate(-524.595 -511.811)" fill="#8d5f50" fill-rule="evenodd"/>
      <path id="Path_38717" data-name="Path 38717" d="M637.46,451.379q4.59-7.072,9.595-13.792L649.1,558.243l-6.232,1.3Z" transform="translate(-506.925 -350.871)" fill="#8d5f50" fill-rule="evenodd"/>
      <path id="Path_38718" data-name="Path 38718" d="M634.422,774.753l-41.8-2.681a222.177,222.177,0,0,0,19.573,30.82l-.11-.007a232.975,232.975,0,0,1-32.908-61.06l.987-210.307a294.524,294.524,0,0,1,26.351-56.205c1.659,49.768,4.611,134.822,4.611,134.822a3.873,3.873,0,0,0,3.635-2.727c.779-2.727.26-14.8.26-14.8L621,591.048Z" transform="translate(-480.118 -368.223)" fill="#85351c" fill-rule="evenodd"/>
      <path id="Path_38719" data-name="Path 38719" d="M738.107,1007.353c-.578-5.272-2.5-22.564-3.375-27.649l5.4,27.779-2.023-.13Zm332.008,21.3c4.023-7.889,13.547-25.127,24.95-35.906,0,0-15.23,19.35-20.042,36.221l-4.908-.315Zm-7.361-.473c-.538-4.149-3.78-13.021-8.406-19.23,0,0,8.774,10.857,12.356,19.483l-3.95-.254ZM853.07,1014.728c-.548-4.468-2.077-13.964-5.759-21.251,0,0,7.02,10.622,9.247,21.475l-3.489-.224Zm3.735.24,4.818.309c-2.528-13.046-11.922-29.486-11.922-29.486,5,9.1,6.638,23.514,7.1,29.177Zm10.2.655L741.933,1007.6l2.075.133,4.123-15.978-7,15.794-19.851-1.274,2.057.132c.927-8.076,2.42-18.324,4.409-22.944a78.162,78.162,0,0,0-7.446,22.749l-70.307-4.51,2.7.173,4.124-15.979-7,15.794-32.143-2.063,4.684.3c.006-.76,0-1.8-.019-3.06a62.505,62.505,0,0,1,14.223-18.554c-5.669,2.808-10.77,8.616-14.409,13.633a108.97,108.97,0,0,0-3.768-23.812s2.023,17.6,1.4,27.264c-1.138,1.746-2.014,3.224-2.571,4.2l-13.135-.843c39.607,75.185,118.444,125.785,242.11,108.847,207.509-28.421,249.287,54.873,384.732,23.3,46.8-10.911,76.621-44.439,89.517-86.186l-28.528-1.831a77.034,77.034,0,0,0,.765-17.251c3.593-5.03,6.256-6.241,6.256-6.241a22.737,22.737,0,0,0-6.383,4.477c-.2-2.465-.521-5.09-.992-7.853a79.584,79.584,0,0,1,.208,8.65,32.251,32.251,0,0,0-4.336,5.834c-2.8,4.785-4.505,9.311-4.514,11.807l-57.754-3.7c.494-5.768,2.37-25.6,5.374-32.578,0,0-8.094,14.712-8.307,32.39l-.824-.053a78.225,78.225,0,0,0-7.661-24.158c2.073,4.815,3.608,15.747,4.523,23.957l-76.108-4.883a41.107,41.107,0,0,1,1.225-10.8c-3.915,5.392-4.048,9-3.8,10.63l-249-15.974a155.323,155.323,0,0,1,.975-17.633A145.351,145.351,0,0,0,888.434,1017h0l-18.775-1.2c4.8-12.591-1.678-24.289-1.678-24.289s3.012,7.063,1.558,14.438a83.353,83.353,0,0,1-2.534,9.681Zm-220.212-14.128c-.578-5.272-2.5-22.564-3.376-27.649l5.4,27.779-2.023-.13Zm482.171,30.933c1.334-5.725,4.465-23.74-3.6-41.756,0,0,11.579,22.188,7.665,42.017l-4.067-.261Zm162.687-5.3c-.333,5.382-1.336,11.52-3.946,15.483l-1.382-.088c-.33-2.109-.034-5.637,2.789-11.033.871-1.664,1.723-3.108,2.539-4.361Zm-574.185-21.1-2.933-.188c.213-17.678,8.308-32.39,8.308-32.39-3,6.98-4.881,26.811-5.374,32.578Zm-6.9-.442c-.915-8.211-2.451-19.141-4.523-23.957a78.226,78.226,0,0,1,7.661,24.159Z" transform="translate(-491.57 -594.907)" fill="#cf862f" fill-rule="evenodd"/>
      <path id="Path_38720" data-name="Path 38720" d="M769.125,1039.958c4.589,0,8.309,2.151,8.309,4.8s-3.72,4.8-8.309,4.8-8.309-2.151-8.309-4.8,3.72-4.8,8.309-4.8Zm-21.833-5.935-143.215-9.188a210.325,210.325,0,0,0,49.582,62.634c.489,0,.979.009,1.47.009,24.154,0,46.207-4.018,63-10.636,4.588,2.84,11.709,4.664,19.7,4.664,13.839,0,25.058-5.464,25.058-12.2,0-5.349-7.065-9.894-16.9-11.542a22.118,22.118,0,0,0,4.433-12.868,21.252,21.252,0,0,0-3.137-10.869Zm-86.768,59.024c12.221-5.229,28.112-8.389,45.486-8.389,38.578,0,69.852,15.578,69.852,34.8,0,5.672-2.725,11.025-7.556,15.756C724.826,1130.286,689.035,1115.172,660.524,1093.048Z" transform="translate(-491.57 -620.988)" fill="#e6dcbd" fill-rule="evenodd"/>
      <path id="Path_38721" data-name="Path 38721" d="M517.345,798.824a13.463,13.463,0,0,1,.372-5.357c4-15.494,33.261-22.91,40.668-20.247s10.188,24.253,10.188,24.253-13.294.911-15.039-.453a31.73,31.73,0,0,0-2.923-2.07s-1.516-9.8-15.748-10.846C524.553,783.346,519.4,793.288,517.345,798.824Z" transform="translate(-451.621 -505.007)" fill="#b4d0be" fill-rule="evenodd"/>
      <path id="Path_38722" data-name="Path 38722" d="M710,373.788l5.5,85.1-3.91.246q-2.641-40.961-5.3-81.921c1.225-1.154,2.453-2.3,3.7-3.428Zm99.9,15.237.039-.977-3.91-.153-.4,9.959,2.137.084c-13.8,7.027-32.654,16.874-34.18,19.011-2.2,3.083-38.34,54.921-42.517,60.913l0,0-.051.073c-1.888.705-8.246,3.081-16.42,6.143l-1.366.511q7.951,122.894,15.894,245.789l3.942.253-15.739-243.4,7.884-2.951q4.163-1.556,8.325-3.113l.347-.5h0l.136-.195c2.579-3.7,40.875-58.635,42.749-61.26,1.831-2.564,46.579-24.743,47.287-25.094.034-.033.775-.389.883-.443l-1.731-3.509-.885.441c-.249.124-5.638,2.795-12.751,6.4Z" transform="translate(-538.587 -321.526)" fill="#8d5f50" fill-rule="evenodd"/>
      <path id="Path_38813" data-name="Path 38813" d="M917.369,397.977s-7.5-4.85-3.982-11.538c0,0,7.2,2.757,3.982,11.538Zm.693.044s8.678-2.129,7.537-9.6C925.6,388.42,917.9,388.67,918.062,398.02Z" transform="translate(-633.411 -327.345)" fill="#0e6c75" fill-rule="evenodd"/>
      <path id="Path_38814" data-name="Path 38814" d="M771.4,1084.53l-7.188-36.364-9.1-4.277c5.944-19.193,17.126-36.527,17.126-36.527-9.875,11.11-17.091,25.061-21.321,34.555l-4.538-2.133c6.165-14.731,24.577-58.228,30.168-65.755a249.447,249.447,0,0,0-32.637,59.962c-.833-8.208-1.792-19.522-1.4-25.036,0,0-3.295,15.346-2.557,27.807l-14.737-6.927c1.159-9.5,3.2-24.032,6.066-38.411,20.589-31.217,45.01-64.137,45.01-64.137-14.855,15.722-30.3,36.693-43.245,55.789,2.313-10.277,5.051-19.935,8.188-26.966,0,0-6.146,11.32-11.921,32.521-7.967,11.96-14.788,22.865-19.648,30.835l-10.367-17-20.263,3.216a263.207,263.207,0,0,1,5.885-29.316c7.5-11.585,14.118-20.123,14.118-20.123a131.858,131.858,0,0,0-12.294,13.116c6.937-25.844,15.54-49.6,15.54-49.6-8.268,15.807-15.361,37.511-20.565,56.12a152.194,152.194,0,0,0-16.854,29.927c-1.22-6.859-2.747-18.227-1.389-26.713,0,0-5.651,16-1.87,29.354l-16.265,2.582c29.257,36.762,70.952,63.737,126.063,73.5Zm-49.722-56.355-9.4-4.419-.485-.8c4.1-7.381,9.373-15.958,15.14-24.883a285.378,285.378,0,0,0-5.253,30.1ZM674,1006.479l-5.955.945a165.014,165.014,0,0,1,10.975-21.558C676.84,994.206,675.138,1001.423,674,1006.479Z" transform="translate(-510.55 -572.655)" fill="#0e6c75" fill-rule="evenodd"/>
      <path id="Path_38815" data-name="Path 38815" d="M744.844,507.351a5.448,5.448,0,0,1-.619.371l.619-.371Zm-4.939-.713q-.952.865-1.873,1.675c-3.735,3.281-7.039,5.8-9.461,6.908a52.749,52.749,0,0,1-5.353,1.976l.016.245-.978.061-.977.062-.155,3.667s-.779.779,4.285-.65c3.26-.919,10.377-6.139,15.034-9.74,2.578-1.993,4.4-3.491,4.4-3.491l-1.406-4.009C742.237,504.487,741.055,505.591,739.905,506.637Z" transform="translate(-545.389 -381.116)" fill="#8d5f50" fill-rule="evenodd"/>
      <path id="Path_38816" data-name="Path 38816" d="M1076.132,747.339c1.084-10.114-13.6-17.86-19.953-4.677C1062.74,744.167,1069.5,745.757,1076.132,747.339Z" transform="translate(-699.524 -487.985)" fill="#efefef" fill-rule="evenodd"/>
      <path id="Path_38817" data-name="Path 38817" d="M1069.589,735.966a10.924,10.924,0,0,1,8.224,10.305q2.25.533,4.487,1.068C1083.062,740.23,1076.038,734.292,1069.589,735.966Z" transform="translate(-705.692 -487.985)" fill="#efefef" fill-rule="evenodd"/>
      <path id="Path_38818" data-name="Path 38818" d="M1656.591,698.209a110.413,110.413,0,0,1,38.178-12.823q-2.257-.945-4.48-1.9a109.056,109.056,0,0,0-33.864,14.554l0,0Z" transform="translate(-975.619 -463.979)" fill="#efefef" fill-rule="evenodd"/>
      <g id="Group_15268" data-name="Group 15268" transform="translate(440.64 55.149)">
        <g id="Group_15272" data-name="Group 15272" transform="translate(268.034 72.153)">
          <g id="Group_15271" data-name="Group 15271" transform="translate(0)">
            <g id="Group_15270" data-name="Group 15270">
              <g id="Group_15269" data-name="Group 15269">
                <path id="Path_44241" data-name="Path 44241" d="M999.306,288.187l-34.46-31.816A36.119,36.119,0,0,1,953.885,236.7l-13.03-67.227,22.531-4.369,14.157,73.054,27.135,41.807Z" transform="translate(-940.855 -165.104)" fill="#f8f5e8"/>
              </g>
            </g>
          </g>
        </g>
        <g id="Group_15276" data-name="Group 15276" transform="translate(103.284 56.745)">
          <g id="Group_15275" data-name="Group 15275">
            <g id="Group_15274" data-name="Group 15274">
              <g id="Group_15273" data-name="Group 15273">
                <path id="Path_44242" data-name="Path 44242" d="M907.993,246.075a12.855,12.855,0,0,1-7.9-2.728l-18.441-22.362,7.245-6.63-23.881-43.047,17.592-13.3,36.85,69.291a12.911,12.911,0,0,1-11.463,18.773Z" transform="translate(-865.015 -158.011)" fill="#e07270"/>
              </g>
            </g>
          </g>
        </g>
        <g id="Group_15279" data-name="Group 15279" transform="translate(0 187.949)">
          <g id="Group_15278" data-name="Group 15278" transform="translate(0 0)">
            <g id="Group_15277" data-name="Group 15277">
              <ellipse id="Ellipse_1821" data-name="Ellipse 1821" cx="21.926" cy="21.926" rx="21.926" ry="21.926" transform="translate(0 42.689) rotate(-76.776)" fill="#f8f5e8"/>
            </g>
          </g>
        </g>
        <g id="Group_15282" data-name="Group 15282" transform="translate(3.184 22.189)">
          <g id="Group_15281" data-name="Group 15281">
            <g id="Group_15280" data-name="Group 15280">
              <path id="Path_44243" data-name="Path 44243" d="M859.42,313.856l-15.654-1A26.519,26.519,0,0,1,818.99,284.7l18.993-117.771a26.517,26.517,0,0,1,28.154-24.773l14.607.932a11.3,11.3,0,0,1,10.56,12l-21,149.185A10.252,10.252,0,0,1,859.42,313.856Z" transform="translate(-818.936 -142.104)" fill="#343c52"/>
            </g>
          </g>
        </g>
        <g id="Group_15285" data-name="Group 15285" transform="translate(41.62 51.147)">
          <g id="Group_15284" data-name="Group 15284">
            <g id="Group_15283" data-name="Group 15283">
              <path id="Path_44244" data-name="Path 44244" d="M907.019,295.543h-70.39L843.185,169.3a13.867,13.867,0,0,1,13.866-13.866h44.294a13.866,13.866,0,0,1,13.794,15.272l-7.495,73.549Z" transform="translate(-836.629 -155.434)" fill="#e07270"/>
            </g>
          </g>
        </g>
        <g id="Group_15288" data-name="Group 15288" transform="translate(1.909 191.256)">
          <g id="Group_15287" data-name="Group 15287">
            <g id="Group_15286" data-name="Group 15286">
              <path id="Path_44245" data-name="Path 44245" d="M858.06,219.931l-.326,91.883L818.349,453.056h9.817L881.61,313.483a13.219,13.219,0,0,0,.789-3.448l6.81-74.531H898.5l14.874,76.308,9.821,141.243h9.817l3.771-141.243-8.331-91.881Z" transform="translate(-818.349 -219.931)" fill="#e6dcbd"/>
            </g>
          </g>
        </g>
        <g id="Group_15291" data-name="Group 15291" transform="translate(1.914 424.38)">
          <g id="Group_15290" data-name="Group 15290">
            <g id="Group_15289" data-name="Group 15289">
              <path id="Path_44246" data-name="Path 44246" d="M837.337,331.685l-9.174-4.439h-9.812V338.2h28.16v-4.347Z" transform="translate(-818.351 -327.246)" fill="#343c52"/>
            </g>
          </g>
        </g>
        <g id="Group_15294" data-name="Group 15294" transform="translate(106.759 424.38)">
          <g id="Group_15293" data-name="Group 15293">
            <g id="Group_15292" data-name="Group 15292">
              <path id="Path_44247" data-name="Path 44247" d="M885.6,331.685l-9.174-4.439h-9.812V338.2h28.16v-4.347Z" transform="translate(-866.615 -327.246)" fill="#343c52"/>
            </g>
          </g>
        </g>
        <g id="Group_15298" data-name="Group 15298" transform="translate(29.505 47.05)">
          <g id="Group_15297" data-name="Group 15297">
            <g id="Group_15296" data-name="Group 15296">
              <g id="Group_15295" data-name="Group 15295">
                <path id="Path_44248" data-name="Path 44248" d="M848.22,254.922c-.282,0-.565,0-.847-.015l-16.321-.576.287-8.19,16.323.576a14.889,14.889,0,0,0,15.491-14.007l4.036-61.631a8.758,8.758,0,0,0-8.742-9.335H836.932v-8.2h21.515a16.958,16.958,0,0,1,16.922,18.067l-4.036,61.629A23.084,23.084,0,0,1,848.22,254.922Z" transform="translate(-831.052 -153.548)" fill="#343c52"/>
              </g>
            </g>
          </g>
        </g>
        <g id="Group_15302" data-name="Group 15302" transform="translate(106.132 49.807)">
          <g id="Group_15301" data-name="Group 15301" transform="translate(0)">
            <g id="Group_15300" data-name="Group 15300">
              <g id="Group_15299" data-name="Group 15299">
                <path id="Path_44249" data-name="Path 44249" d="M872.819,245.877h0l2.25-80.316a8.762,8.762,0,0,0-8.744-9.335V154.9a24.284,24.284,0,0,1,11.783,2.075,10.193,10.193,0,0,1,5.14,9.124L875.96,243.2A2.962,2.962,0,0,1,872.819,245.877Z" transform="translate(-866.326 -154.817)" fill="#343c52"/>
              </g>
            </g>
          </g>
        </g>
        <g id="Group_15306" data-name="Group 15306" transform="translate(15.339 59.584)">
          <g id="Group_15305" data-name="Group 15305">
            <g id="Group_15304" data-name="Group 15304">
              <g id="Group_15303" data-name="Group 15303">
                <path id="Path_44250" data-name="Path 44250" d="M839.307,250.28a14.775,14.775,0,0,1-13.5-20.783l32.661-70.18,14.17,21.445L855.663,214.9l11.359-2.537,9.487,2.537-28.256,32.363A14.754,14.754,0,0,1,839.307,250.28Z" transform="translate(-824.531 -159.318)" fill="#e07270"/>
              </g>
            </g>
          </g>
        </g>
        <g id="Group_15309" data-name="Group 15309" transform="translate(105.046 102.196)">
          <g id="Group_15308" data-name="Group 15308" transform="translate(0)">
            <g id="Group_15307" data-name="Group 15307">
              <path id="Path_44251" data-name="Path 44251" d="M887.945,189.826l-6.617-7.5a9.352,9.352,0,0,0-6.791-3.182l-8.17-.213a.526.526,0,0,0-.3.965l8.222,5.466a2.732,2.732,0,0,1,1.2,2.589h0a6.938,6.938,0,0,0,2.37,6.061l2.841,2.442Z" transform="translate(-865.826 -178.934)" fill="#f9b290"/>
            </g>
          </g>
        </g>
        <g id="Group_15312" data-name="Group 15312" transform="translate(57.83 92.939)">
          <g id="Group_15311" data-name="Group 15311" transform="translate(0)">
            <g id="Group_15310" data-name="Group 15310">
              <path id="Path_44252" data-name="Path 44252" d="M844.091,194.362l2.411-9.7a9.347,9.347,0,0,1,4.555-5.957l7.149-3.96a.526.526,0,0,1,.715.715l-4.773,8.644a2.731,2.731,0,0,0,.128,2.852h0a6.941,6.941,0,0,1,.7,6.471l-1.395,3.476Z" transform="translate(-844.091 -174.672)" fill="#f9b290"/>
            </g>
          </g>
        </g>
        <g id="Group_15315" data-name="Group 15315" transform="translate(174.078 36.941)">
          <g id="Group_15314" data-name="Group 15314" transform="translate(0)">
            <g id="Group_15313" data-name="Group 15313">
              <path id="Path_44253" data-name="Path 44253" d="M938.088,320.649l-15.654-1A26.52,26.52,0,0,1,897.659,291.5l18.993-117.771A26.521,26.521,0,0,1,944.8,148.95l14.607.934a11.3,11.3,0,0,1,10.56,12l-21,149.185A10.255,10.255,0,0,1,938.088,320.649Z" transform="translate(-897.604 -148.895)" fill="#343c52"/>
            </g>
          </g>
        </g>
        <g id="Group_15318" data-name="Group 15318" transform="translate(212.514 65.901)">
          <g id="Group_15317" data-name="Group 15317" transform="translate(0)">
            <g id="Group_15316" data-name="Group 15316">
              <path id="Path_44254" data-name="Path 44254" d="M985.688,302.335H915.3l6.556-126.243a13.865,13.865,0,0,1,13.866-13.866h44.294A13.865,13.865,0,0,1,993.808,177.5l-15.085,73.549Z" transform="translate(-915.297 -162.226)" fill="#f8f5e8"/>
            </g>
          </g>
        </g>
        <g id="Group_15321" data-name="Group 15321" transform="translate(213.995 65.901)">
          <g id="Group_15320" data-name="Group 15320" transform="translate(0)">
            <g id="Group_15319" data-name="Group 15319">
              <path id="Path_44255" data-name="Path 44255" d="M981.015,273.8l-3.091-22.757L993.008,177.5a13.864,13.864,0,0,0-13.794-15.272H934.92a13.865,13.865,0,0,0-13.866,13.866L915.979,273.8Z" transform="translate(-915.979 -162.226)" fill="#f8f5e8"/>
            </g>
          </g>
        </g>
        <g id="Group_15324" data-name="Group 15324" transform="translate(179.361 206.011)">
          <g id="Group_15323" data-name="Group 15323">
            <g id="Group_15322" data-name="Group 15322">
              <path id="Path_44256" data-name="Path 44256" d="M933.188,226.723l-.326,91.881L900.036,445.093h9.817l46.886-124.818a13.233,13.233,0,0,0,.788-3.447l6.81-82.729h9.289L988.5,318.6l16.38,126.489h9.815L1011.909,318.6l-8.331-91.881Z" transform="translate(-900.036 -226.723)" fill="#4d6882"/>
            </g>
          </g>
        </g>
        <g id="Group_15327" data-name="Group 15327" transform="translate(179.365 424.38)">
          <g id="Group_15326" data-name="Group 15326" transform="translate(0)">
            <g id="Group_15325" data-name="Group 15325">
              <path id="Path_44257" data-name="Path 44257" d="M919.023,331.685l-9.174-4.439h-9.811V338.2H928.2v-4.347Z" transform="translate(-900.038 -327.246)" fill="#343c52"/>
            </g>
          </g>
        </g>
        <g id="Group_15330" data-name="Group 15330" transform="translate(284.21 424.38)">
          <g id="Group_15329" data-name="Group 15329" transform="translate(0)">
            <g id="Group_15328" data-name="Group 15328">
              <path id="Path_44258" data-name="Path 44258" d="M967.286,331.685l-9.174-4.439H948.3V338.2h28.16v-4.347Z" transform="translate(-948.301 -327.246)" fill="#343c52"/>
            </g>
          </g>
        </g>
        <g id="Group_15334" data-name="Group 15334" transform="translate(200.398 61.802)">
          <g id="Group_15333" data-name="Group 15333" transform="translate(0)">
            <g id="Group_15332" data-name="Group 15332">
              <g id="Group_15331" data-name="Group 15331">
                <path id="Path_44259" data-name="Path 44259" d="M926.888,261.716c-.282,0-.565,0-.847-.015l-16.321-.578.287-8.19,16.321.576A14.889,14.889,0,0,0,941.821,239.5l4.036-61.631a8.761,8.761,0,0,0-8.741-9.335H915.6v-8.2h21.515a16.961,16.961,0,0,1,16.922,18.067L950,240.038A23.087,23.087,0,0,1,926.888,261.716Z" transform="translate(-909.72 -160.339)" fill="#343c52"/>
              </g>
            </g>
          </g>
        </g>
        <g id="Group_15338" data-name="Group 15338" transform="translate(276.433 64.867)">
          <g id="Group_15337" data-name="Group 15337" transform="translate(0)">
            <g id="Group_15336" data-name="Group 15336">
              <g id="Group_15335" data-name="Group 15335">
                <path id="Path_44260" data-name="Path 44260" d="M944.721,249.5h0l9.337-77.314a8.765,8.765,0,0,0-8.744-9.335v-.8A19.765,19.765,0,0,1,957.1,163.6a10.2,10.2,0,0,1,5.14,9.126l-14.109,74.14A3.249,3.249,0,0,1,944.721,249.5Z" transform="translate(-944.721 -161.75)" fill="#343c52"/>
              </g>
            </g>
          </g>
        </g>
        <g id="Group_15342" data-name="Group 15342" transform="translate(186.233 74.336)">
          <g id="Group_15341" data-name="Group 15341">
            <g id="Group_15340" data-name="Group 15340">
              <g id="Group_15339" data-name="Group 15339">
                <path id="Path_44261" data-name="Path 44261" d="M917.975,257.074a14.775,14.775,0,0,1-13.5-20.783l32.661-70.182,14.17,21.447-16.979,34.136,11.359-2.537,9.487,2.537-28.256,32.361A14.755,14.755,0,0,1,917.975,257.074Z" transform="translate(-903.199 -166.109)" fill="#f8f5e8"/>
              </g>
            </g>
          </g>
        </g>
        <g id="Group_15345" data-name="Group 15345" transform="translate(228.723 107.693)">
          <g id="Group_15344" data-name="Group 15344" transform="translate(0)">
            <g id="Group_15343" data-name="Group 15343">
              <path id="Path_44262" data-name="Path 44262" d="M922.759,201.154l2.411-9.706a9.361,9.361,0,0,1,4.553-5.957l7.149-3.958a.527.527,0,0,1,.717.715l-4.773,8.644a2.731,2.731,0,0,0,.128,2.852h0a6.939,6.939,0,0,1,.7,6.471l-1.395,3.476Z" transform="translate(-922.759 -181.464)" fill="#f9b290"/>
            </g>
          </g>
        </g>
        <g id="Group_15348" data-name="Group 15348" transform="translate(326.486 187.013)">
          <g id="Group_15347" data-name="Group 15347" transform="translate(0)">
            <g id="Group_15346" data-name="Group 15346">
              <path id="Path_44263" data-name="Path 44263" d="M973.134,217.978l8.468,5.32a9.353,9.353,0,0,1,4.238,6.185l1.531,8.029a.525.525,0,0,1-.9.456l-6.724-7.232a2.732,2.732,0,0,0-2.75-.767h0a6.944,6.944,0,0,1-6.365-1.36l-2.87-2.409Z" transform="translate(-967.762 -217.978)" fill="#f9b290"/>
            </g>
          </g>
        </g>
        <g id="Group_15351" data-name="Group 15351" transform="translate(251.543 22.459)">
          <g id="Group_15350" data-name="Group 15350" transform="translate(0 0)">
            <g id="Group_15349" data-name="Group 15349">
              <path id="Rectangle_13737" data-name="Rectangle 13737" d="M0,0H10.412a0,0,0,0,1,0,0V18a0,0,0,0,1,0,0H3.082A3.082,3.082,0,0,1,0,14.921V0A0,0,0,0,1,0,0Z" transform="translate(6.331 0) rotate(20.589)" fill="#e07270"/>
            </g>
          </g>
        </g>
        <g id="Group_15354" data-name="Group 15354" transform="translate(253.337 18.36)">
          <g id="Group_15353" data-name="Group 15353" transform="translate(0)">
            <g id="Group_15352" data-name="Group 15352">
              <path id="Rectangle_13738" data-name="Rectangle 13738" d="M0,0H27.085a0,0,0,0,1,0,0V25.737a5.515,5.515,0,0,1-5.515,5.515H3.087A3.087,3.087,0,0,1,0,28.164V0A0,0,0,0,1,0,0Z" transform="matrix(0.936, 0.352, -0.352, 0.936, 10.989, 0)" fill="#f9b290"/>
            </g>
          </g>
        </g>
        <g id="Group_15357" data-name="Group 15357" transform="translate(256.971 31.554)">
          <g id="Group_15356" data-name="Group 15356" transform="translate(0)">
            <g id="Group_15355" data-name="Group 15355">
              <path id="Path_44264" data-name="Path 44264" d="M941.958,149.513a3.1,3.1,0,1,1-3.1-3.1A3.1,3.1,0,0,1,941.958,149.513Z" transform="translate(-935.762 -146.415)" fill="#f9b290"/>
            </g>
          </g>
        </g>
        <g id="Group_15360" data-name="Group 15360" transform="translate(253.184 7.352)">
          <g id="Group_15359" data-name="Group 15359" transform="translate(0)">
            <g id="Group_15358" data-name="Group 15358">
              <path id="Path_44265" data-name="Path 44265" d="M957.057,146.794a11.519,11.519,0,1,1-11.52-11.52A11.519,11.519,0,0,1,957.057,146.794Z" transform="translate(-934.019 -135.274)" fill="#e07270"/>
            </g>
          </g>
        </g>
        <g id="Group_15363" data-name="Group 15363" transform="translate(266.473 13.888)">
          <g id="Group_15362" data-name="Group 15362" transform="translate(0)">
            <g id="Group_15361" data-name="Group 15361">
              <path id="Path_44266" data-name="Path 44266" d="M953.9,158.428l-7.531-2.476a9.089,9.089,0,0,1-5.781-11.437h0a9.091,9.091,0,0,1,11.44-5.781l7.532,2.476a9.089,9.089,0,0,1,5.781,11.437h0A9.091,9.091,0,0,1,953.9,158.428Z" transform="translate(-940.136 -138.282)" fill="#e07270"/>
            </g>
          </g>
        </g>
        <g id="Group_15366" data-name="Group 15366" transform="translate(249.408 39.325)">
          <g id="Group_15365" data-name="Group 15365" transform="translate(0)">
            <g id="Group_15364" data-name="Group 15364">
              <path id="Path_44267" data-name="Path 44267" d="M951.567,149.992H940.514L932.281,177.2h22.1Z" transform="translate(-932.281 -149.992)" fill="#f9b290"/>
            </g>
          </g>
        </g>
        <g id="Group_15369" data-name="Group 15369" transform="translate(249.408 66.531)">
          <g id="Group_15368" data-name="Group 15368" transform="translate(0)">
            <g id="Group_15367" data-name="Group 15367">
              <path id="Path_44268" data-name="Path 44268" d="M932.281,162.516l6.875,7.807h11.475l3.752-7.807Z" transform="translate(-932.281 -162.516)" fill="#f9b290"/>
            </g>
          </g>
        </g>
        <g id="Group_15372" data-name="Group 15372" transform="translate(101.668 6.266)">
          <g id="Group_15371" data-name="Group 15371" transform="translate(0)">
            <g id="Group_15370" data-name="Group 15370">
              <path id="Path_44269" data-name="Path 44269" d="M864.271,156.917h0l4.975-22.143,3.934.884a8.447,8.447,0,0,1,6.391,10.095l-.387,1.723A12.482,12.482,0,0,1,864.271,156.917Z" transform="translate(-864.271 -134.774)" fill="#343c52"/>
            </g>
          </g>
        </g>
        <g id="Group_15375" data-name="Group 15375" transform="translate(74.971 27.228)">
          <g id="Group_15374" data-name="Group 15374" transform="translate(0)">
            <g id="Group_15373" data-name="Group 15373">
              <path id="Path_44270" data-name="Path 44270" d="M874.14,146.482l-9.161-2.058-13,23.919,23.5,11.872Z" transform="translate(-851.982 -144.424)" fill="#f9b290"/>
            </g>
          </g>
        </g>
        <g id="Group_15378" data-name="Group 15378" transform="translate(82.478 13.766)">
          <g id="Group_15377" data-name="Group 15377" transform="translate(0)">
            <g id="Group_15376" data-name="Group 15376">
              <path id="Rectangle_13739" data-name="Rectangle 13739" d="M0,0H24.746a0,0,0,0,1,0,0V23.514a5.038,5.038,0,0,1-5.038,5.038H2.821A2.821,2.821,0,0,1,0,25.732V0A0,0,0,0,1,0,0Z" transform="translate(6.26 0) rotate(12.665)" fill="#f9b290"/>
            </g>
          </g>
        </g>
        <g id="Group_15381" data-name="Group 15381" transform="translate(83.072 13.501)">
          <g id="Group_15380" data-name="Group 15380" transform="translate(0 0)">
            <g id="Group_15379" data-name="Group 15379">
              <path id="Rectangle_13740" data-name="Rectangle 13740" d="M0,0H3.816a0,0,0,0,1,0,0V18.3a0,0,0,0,1,0,0h-2.4A1.417,1.417,0,0,1,0,16.884V0A0,0,0,0,1,0,0Z" transform="translate(4.01 0) rotate(12.658)" fill="#343c52"/>
            </g>
          </g>
        </g>
        <g id="Group_15384" data-name="Group 15384" transform="translate(86.946 0)">
          <g id="Group_15383" data-name="Group 15383">
            <g id="Group_15382" data-name="Group 15382">
              <path id="Path_44271" data-name="Path 44271" d="M874.577,149.838,857.494,146l1.642-7.306a8.713,8.713,0,0,1,10.412-6.591l8.581,1.927a8.1,8.1,0,0,1,6.128,9.68h0A8.1,8.1,0,0,1,874.577,149.838Z" transform="translate(-857.494 -131.889)" fill="#343c52"/>
            </g>
          </g>
        </g>
        <g id="Group_15387" data-name="Group 15387" transform="translate(88.779 1.257)">
          <g id="Group_15386" data-name="Group 15386">
            <g id="Group_15385" data-name="Group 15385">
              <path id="Path_44272" data-name="Path 44272" d="M858.338,152.944h0l4.6-20.476,3.723.839L862.9,150.057A3.819,3.819,0,0,1,858.338,152.944Z" transform="translate(-858.338 -132.468)" fill="#343c52"/>
            </g>
          </g>
        </g>
        <g id="Group_15390" data-name="Group 15390" transform="translate(86.605 19.647)">
          <g id="Group_15389" data-name="Group 15389">
            <g id="Group_15388" data-name="Group 15388">
              <path id="Path_44273" data-name="Path 44273" d="M857.415,143.407a3.167,3.167,0,1,0,3.784-2.4A3.165,3.165,0,0,0,857.415,143.407Z" transform="translate(-857.337 -140.933)" fill="#f9b290"/>
            </g>
          </g>
        </g>
      </g>
    </g>
  </g>
</svg>
