<?xml version="1.0" encoding="utf-8"?>
<!-- Generator: Adobe Illustrator 24.1.2, SVG Export Plug-In . SVG Version: 6.00 Build 0)  -->
<svg version="1.1" id="Слой_1" xmlns="http://www.w3.org/2000/svg" xmlns:xlink="http://www.w3.org/1999/xlink" x="0px" y="0px"
	 width="80px" height="80px" viewBox="0 0 80 80" style="enable-background:new 0 0 80 80;" xml:space="preserve">
<style type="text/css">
	.st0{fill:#EFEFEF;}
	.st1{fill:#D9D9D9;}
</style>
<g>
	<rect class="st0" width="80" height="80"/>
</g>
<path id="Shape" class="st1" d="M40,64c-13.2,0-24-10.8-24-23.9c0-9.6,5.8-18.4,14.6-22.1c12.2-5.2,26.4,0.6,31.5,12.8
	c5.2,12.2-0.6,26.1-12.8,31.3C46.5,63.4,43.3,64,40,64z M40,20.1c-11,0-20,9-20,20c0,4.6,1.6,9.2,4.6,12.6c0.6-1.2,1.8-2,3.8-2.4
	h0.2c3.2-0.8,6.2-1.4,6.8-3.2c0.4-1,0.2-2-0.4-2.8c-4.4-8.2-3-12.6-1.8-14.6c0.6-1.2,1.6-2,2.8-2.6c1.2-0.6,2.6-1,4-1
	c1.4,0,2.8,0.2,4,0.8s2.2,1.6,2.8,2.6c2,3.4,1.4,8.6-1.8,14.8C44.5,45,44.5,46,44.7,47c0.8,1.6,3.8,2.4,7,3.2h0.2
	c2,0.4,3.2,1.2,3.8,2.4c7-8.6,5.6-21.2-2.8-28.1C49.3,21.7,44.7,20.1,40,20.1z"/>
</svg>
