<?xml version="1.0" encoding="utf-8"?>
<!-- Generator: Adobe Illustrator 24.1.2, SVG Export Plug-In . SVG Version: 6.00 Build 0)  -->
<svg version="1.1" id="Слой_1" xmlns="http://www.w3.org/2000/svg" xmlns:xlink="http://www.w3.org/1999/xlink" x="0px" y="0px"
	 viewBox="0 0 1919.4 78" enable-background="new 0 0 1919.4 78" xml:space="preserve">
<g id="Group_20564" transform="translate(0 -881)">
	
		<linearGradient id="Rectangle_1_" gradientUnits="userSpaceOnUse" x1="660.1563" y1="1147.296" x2="660.1563" y2="1146.8461" gradientTransform="matrix(1920 0 0 -448 -1266540 514499.2813)">
		<stop  offset="0" style="stop-color:#BDD8E6"/>
		<stop  offset="1" style="stop-color:#BDD8E6;stop-opacity:0.608"/>
	</linearGradient>
	<path id="Rectangle" display="none" fill="url(#Rectangle_1_)" d="M0,510.6h1920v448H0V510.6z"/>
	<g id="Group_13002" transform="translate(0.147 381.641)">
		<rect id="Rectangle_9883" x="0" y="501.3" fill="#77A6AA" width="1919.9" height="76"/>
		
			<linearGradient id="Rectangle_9884_1_" gradientUnits="userSpaceOnUse" x1="660.0093" y1="762.8053" x2="660.0093" y2="764.1303" gradientTransform="matrix(1920.267 0 0 -69.955 -1266433.875 53931.918)">
			<stop  offset="0" style="stop-color:#4C1B68;stop-opacity:0"/>
			<stop  offset="1" style="stop-color:#380954"/>
		</linearGradient>
		
			<rect id="Rectangle_9884" x="0" y="501.3" opacity="0.32" fill="url(#Rectangle_9884_1_)" enable-background="new    " width="1920.3" height="70"/>
		
			<linearGradient id="Rectangle_9885_1_" gradientUnits="userSpaceOnUse" x1="660.0092" y1="763.0823" x2="660.0092" y2="764.4073" gradientTransform="matrix(1919.701 0 0 -79.951 -1266060.375 61586.9063)">
			<stop  offset="0" style="stop-color:#4C1B68;stop-opacity:0"/>
			<stop  offset="1" style="stop-color:#380954"/>
		</linearGradient>
		
			<rect id="Rectangle_9885" x="0.1" y="499.4" opacity="0.1" fill="url(#Rectangle_9885_1_)" enable-background="new    " width="1919.7" height="80"/>
		
			<linearGradient id="Ellipse_4_1_" gradientUnits="userSpaceOnUse" x1="658.641" y1="743.0414" x2="658.641" y2="744.3665" gradientTransform="matrix(385.512 0 0 -7.052 -253209.2344 5771.9312)">
			<stop  offset="0" style="stop-color:#FFFFFF;stop-opacity:0"/>
			<stop  offset="1" style="stop-color:#FFFFFF"/>
		</linearGradient>
		<ellipse id="Ellipse_4" fill="url(#Ellipse_4_1_)" cx="704.8" cy="528.6" rx="192.8" ry="3.5"/>
		
			<linearGradient id="Ellipse_7_1_" gradientUnits="userSpaceOnUse" x1="659.5568" y1="750.8191" x2="659.5568" y2="752.1441" gradientTransform="matrix(828.95 0 0 -10.914 -545396.625 8760.1787)">
			<stop  offset="0" style="stop-color:#FFFFFF;stop-opacity:0"/>
			<stop  offset="1" style="stop-color:#FFFFFF"/>
		</linearGradient>
		<ellipse id="Ellipse_7" fill="url(#Ellipse_7_1_)" cx="1343" cy="560.5" rx="414.5" ry="5.5"/>
	</g>
	<g id="Group_15893" transform="translate(2)" display="none">
		
			<linearGradient id="Path_42506_1_" gradientUnits="userSpaceOnUse" x1="657.3162" y1="1147.2659" x2="657.4891" y2="1146.136" gradientTransform="matrix(610.8577 -32.0137 -21.3103 -406.6241 -375530.8125 488152.9063)">
			<stop  offset="0" style="stop-color:#2E4354"/>
			<stop  offset="1" style="stop-color:#B7BEC7"/>
		</linearGradient>
		<path id="Path_42506" display="inline" fill="url(#Path_42506_1_)" d="M1316.6,959.2l37.5-41.6c0.9-0.9,1.8-1.8,2.9-2.5
			c0.1-0.1,0.3-0.2,0.5-0.3c0.2-0.1,0.4-0.2,0.5-0.3c0.3-0.2,0.7-0.4,1-0.5c0.1,0,0.2-0.1,0.3-0.1c0.1,0,0.2-0.1,0.2-0.1
			c0.1,0,0.3-0.1,0.4-0.2c0.2-0.1,0.3-0.1,0.5-0.2c0.2-0.1,0.3-0.1,0.5-0.1l0,0c0.2-0.1,0.4-0.1,0.6-0.2c0.2-0.1,0.4-0.1,0.7-0.1
			c0.2,0,0.4-0.1,0.6-0.1c0.1,0,0.3,0,0.4-0.1c0.2,0,0.3,0,0.5-0.1c0.2,0,0.3,0,0.5,0l95.6-5c1.5-0.1,3-0.4,4.5-0.9
			c0.5-0.2,0.9-0.4,1.3-0.6c0.7-0.3,1.3-0.7,1.9-1.1c0.4-0.3,0.8-0.6,1.1-0.9c2-1.7,3.5-3.9,4.4-6.4c0.2-0.4,0.3-0.9,0.4-1.4
			c0.4-1.6,0.5-3.3,0.4-4.9c0-0.1,0-0.3,0-0.4s0-0.3-0.1-0.4c0,0,0,0,0,0c0-0.3-0.1-0.5-0.1-0.8c-0.1-0.4-0.2-0.9-0.3-1.3
			c0-0.1,0-0.2-0.1-0.2c-0.1-0.4-0.2-0.7-0.4-1.1l-26-63.8c-3.1-7.6,0.6-16.2,8.1-19.3c0.7-0.3,1.5-0.5,2.2-0.7
			c0.9-0.2,1.7-0.3,2.6-0.4l75.8-4c8.1-0.4,14.4-7.3,14-15.5c-0.1-2.2-0.7-4.3-1.7-6.2c-3.8-7.2-1.1-16.2,6.1-20
			c1.9-1,4-1.6,6.2-1.7l68.2-3.6c1,0,2-0.2,2.9-0.4c0.2-0.1,0.5-0.1,0.7-0.2c0.2-0.1,0.5-0.1,0.7-0.2c0.1,0,0.2-0.1,0.3-0.1
			s0.2-0.1,0.3-0.1c0,0,0.1,0,0.1,0c0.2-0.1,0.4-0.2,0.6-0.3c0.2-0.1,0.4-0.2,0.6-0.3c0.2-0.1,0.4-0.2,0.5-0.3c0,0,0.1-0.1,0.1-0.1
			c0.1-0.1,0.3-0.2,0.4-0.3c0.1,0,0.1-0.1,0.2-0.1c0.1-0.1,0.3-0.2,0.4-0.3c0.3-0.2,0.5-0.4,0.7-0.6c0.1-0.1,0.3-0.2,0.4-0.3
			c0,0,0.1,0,0.1-0.1c0.2-0.1,0.3-0.3,0.5-0.4c0.2-0.2,0.3-0.3,0.5-0.5c0.1-0.2,0.3-0.4,0.5-0.5c0,0,0,0,0,0
			c0.2-0.2,0.3-0.4,0.5-0.6c0.1-0.1,0.2-0.3,0.3-0.4c0.1-0.1,0.2-0.2,0.2-0.3c0.4-0.6,0.7-1.2,1-1.8c0.1-0.2,0.1-0.3,0.2-0.5
			c0.1-0.2,0.2-0.3,0.2-0.5c0.1-0.1,0.1-0.3,0.2-0.4c0.1-0.2,0.1-0.4,0.2-0.6s0.1-0.4,0.2-0.6c0,0,0-0.1,0-0.1
			c0-0.2,0.1-0.4,0.1-0.6c0.7-3.3,0.3-6.7-1.3-9.8l-8.5-16.8l-6.2-12.2l-1.7-3.3l-7.6-15l0,0l-47.2-93c-0.9-1.8-1.5-3.9-1.6-5.9
			c0-0.3,0-0.6,0-0.9c0-0.2,0-0.5,0-0.7l0,0c0-0.1,0-0.3,0-0.4c0-0.2,0-0.4,0.1-0.6c0-0.3,0.1-0.6,0.1-0.8c0-0.3,0.1-0.5,0.2-0.8
			c0,0,0-0.1,0-0.1c0.1-0.2,0.1-0.4,0.2-0.7c0-0.1,0-0.2,0.1-0.2l0.2-0.6c0,0,0-0.1,0-0.1c0.1-0.3,0.2-0.5,0.3-0.7l0,0l0,0
			c0.1-0.2,0.2-0.4,0.3-0.6c0.1-0.3,0.3-0.5,0.4-0.8c0.1-0.2,0.2-0.4,0.4-0.6c0.4-0.7,0.9-1.3,1.4-1.9c0.1-0.2,0.3-0.3,0.4-0.4
			c0.2-0.2,0.3-0.4,0.5-0.5c0,0,0,0,0,0c0,0,0.1-0.1,0.1-0.1c0.1-0.1,0.3-0.3,0.4-0.4c0.1-0.1,0.1-0.1,0.2-0.1
			c0.2-0.2,0.4-0.3,0.6-0.5s0.5-0.3,0.7-0.5s0.5-0.3,0.7-0.5c2-1.2,4.4-1.9,6.7-2l29.8-1.6c3.4-0.2,6.7,0.8,9.4,2.8l5.4,3.9
			l11.7,8.4l17.9,12.9c2.7,2,6.1,2.9,9.4,2.8l37.6-2c3.8-0.2,7.6,1.1,10.5,3.6l101.8,88.7l8.6,7.5c2.9,2.5,6.7,3.8,10.5,3.6
			l29.7-1.6c3.7-0.2,7.3,1,10.1,3.3c0.6,0.5,1.2,1,1.7,1.6l29.8,33.5l11.6,0.4l0,0l0,222.3"/>
		
			<linearGradient id="Path_42507_1_" gradientUnits="userSpaceOnUse" x1="656.2464" y1="1146.8339" x2="657.2464" y2="1146.8339" gradientTransform="matrix(379.9543 -19.9126 -20.4212 -389.6592 -224616.625 460722.4063)">
			<stop  offset="0" style="stop-color:#2E4354"/>
			<stop  offset="1" style="stop-color:#7792AA"/>
		</linearGradient>
		<path id="Path_42507" display="inline" fill="url(#Path_42507_1_)" d="M1316.6,959.2l37.5-41.6c0.9-0.9,1.8-1.8,2.9-2.5
			c0.1-0.1,0.3-0.2,0.5-0.3c0.2-0.1,0.4-0.2,0.5-0.3c0.3-0.2,0.7-0.4,1-0.5c0.1,0,0.2-0.1,0.3-0.1c0.1,0,0.2-0.1,0.2-0.1
			c0.1,0,0.3-0.1,0.4-0.2c0.2-0.1,0.3-0.1,0.5-0.2c0.2-0.1,0.3-0.1,0.5-0.1l0,0c0.2-0.1,0.4-0.1,0.6-0.2c0.2-0.1,0.4-0.1,0.7-0.1
			c0.2,0,0.4-0.1,0.6-0.1c0.1,0,0.3,0,0.4-0.1c0.2,0,0.3,0,0.5-0.1c0.2,0,0.3,0,0.5,0l95.6-5c1.5-0.1,3-0.4,4.5-0.9
			c0.5-0.2,0.9-0.4,1.3-0.6c0.7-0.3,1.3-0.7,1.9-1.1c0.4-0.3,0.8-0.6,1.1-0.9c2-1.7,3.5-3.9,4.4-6.4c0.2-0.4,0.3-0.9,0.4-1.4
			c0.4-1.6,0.5-3.3,0.4-4.9c0-0.1,0-0.3,0-0.4s0-0.3-0.1-0.4c0,0,0,0,0,0c0-0.3-0.1-0.5-0.1-0.8c-0.1-0.4-0.2-0.9-0.3-1.3
			c0-0.1,0-0.2-0.1-0.2c-0.1-0.4-0.2-0.7-0.4-1.1l-26-63.8c-3.1-7.6,0.6-16.2,8.1-19.3c0.7-0.3,1.5-0.5,2.2-0.7
			c0.9-0.2,1.7-0.3,2.6-0.4l75.8-4c8.1-0.4,14.4-7.3,14-15.5c-0.1-2.2-0.7-4.3-1.7-6.2c-3.8-7.2-1.1-16.2,6.1-20
			c1.9-1,4-1.6,6.2-1.7l68.2-3.6c1,0,2-0.2,2.9-0.4c0.2-0.1,0.5-0.1,0.7-0.2c0.2-0.1,0.5-0.1,0.7-0.2c0.1,0,0.2-0.1,0.3-0.1
			c0.1,0,0.2-0.1,0.3-0.1c0,0,0.1,0,0.1,0c0.2-0.1,0.4-0.2,0.6-0.3c0.2-0.1,0.4-0.2,0.6-0.3c0.2-0.1,0.4-0.2,0.5-0.3
			c0,0,0.1-0.1,0.1-0.1c0.1-0.1,0.3-0.2,0.4-0.3c0.1,0,0.1-0.1,0.2-0.1c0.1-0.1,0.3-0.2,0.4-0.3c0.3-0.2,0.5-0.4,0.7-0.6
			c0.1-0.1,0.3-0.2,0.4-0.3c0,0,0.1,0,0.1-0.1c0.2-0.1,0.3-0.3,0.5-0.4c0.2-0.2,0.3-0.3,0.5-0.5s0.3-0.4,0.5-0.5c0,0,0,0,0,0
			c0.2-0.2,0.3-0.4,0.5-0.6c0.1-0.1,0.2-0.3,0.3-0.4c0.1-0.1,0.2-0.2,0.2-0.3c0.4-0.6,0.7-1.2,1-1.8c0.1-0.2,0.2-0.3,0.2-0.5
			c0.1-0.2,0.2-0.3,0.2-0.5c0.1-0.1,0.1-0.3,0.2-0.4c0.1-0.2,0.1-0.4,0.2-0.6c0.1-0.2,0.1-0.4,0.2-0.6c0,0,0-0.1,0-0.1
			c0-0.2,0.1-0.4,0.1-0.6c0.7-3.3,0.3-6.7-1.3-9.8l-8.5-16.8l-6.2-12.2l-1.7-3.3l-7.6-15l0,0l-47.2-93c-0.9-1.8-1.5-3.9-1.6-5.9
			c0-0.3,0-0.6,0-0.9c0-0.2,0-0.5,0-0.7l0,0c0-0.1,0-0.3,0-0.4c0-0.2,0-0.4,0.1-0.6c0-0.3,0.1-0.6,0.1-0.8s0.1-0.5,0.2-0.8
			c0,0,0-0.1,0-0.1c0.1-0.2,0.1-0.4,0.2-0.7c0-0.1,0-0.2,0.1-0.2l0.2-0.6c0,0,0-0.1,0-0.1c0.1-0.3,0.2-0.5,0.3-0.7l0,0l0,0l0,0
			c0.1-0.2,0.2-0.4,0.3-0.6c0.1-0.3,0.3-0.5,0.4-0.8c0.1-0.2,0.2-0.4,0.4-0.6c0.4-0.7,0.9-1.3,1.4-1.9c0.1-0.2,0.3-0.3,0.4-0.4
			c0.2-0.2,0.3-0.4,0.5-0.5c0,0,0,0,0,0c0,0,0.1-0.1,0.1-0.1c0.1-0.1,0.3-0.3,0.4-0.4c0.1-0.1,0.1-0.1,0.2-0.1
			c0.2-0.2,0.4-0.3,0.6-0.5c0.2-0.2,0.5-0.3,0.7-0.5c0.2-0.2,0.5-0.3,0.7-0.5l53.4,97.8l8.1,14.8l7.6,13.9l8.5,15.5l18.2,33.3
			l11.6,21.3c0,0,24.5,67.1-19.4,108.5c-24.7,23.3-25.2,58.9-38.9,83.1"/>
		
			<linearGradient id="Path_42508_1_" gradientUnits="userSpaceOnUse" x1="651.7408" y1="1145.2744" x2="652.2908" y2="1143.3264" gradientTransform="matrix(96.192 -5.0412 -5.5815 -106.5008 -54698.0703 126144.3672)">
			<stop  offset="0" style="stop-color:#1C0045"/>
			<stop  offset="1" style="stop-color:#2E4354"/>
		</linearGradient>
		<path id="Path_42508" display="inline" fill="url(#Path_42508_1_)" d="M1632.5,858.9l-15.2-22.9l5.4-17.4l-60.5-62.8l-1.9,0.1
			c-8.2,0.4-14.4,7.4-14,15.5c0.1,2.1,0.7,4.2,1.7,6.2c1,1.9,1.6,4,1.7,6.2c0.4,8.2-5.9,15.1-14,15.5l-2.7,0.1L1632.5,858.9z"/>
		
			<linearGradient id="Path_42509_1_" gradientUnits="userSpaceOnUse" x1="652.2632" y1="1145.9652" x2="652.7583" y2="1144.4851" gradientTransform="matrix(106.7712 -5.5956 -7.3453 -140.1566 -59720.6055 165180.8281)">
			<stop  offset="0" style="stop-color:#1C0045"/>
			<stop  offset="1" style="stop-color:#2E4354"/>
		</linearGradient>
		<path id="Path_42509" display="inline" fill="url(#Path_42509_1_)" d="M1559.2,938.8l-41.7-49.5l5.8-9.4l-23.4-17.6l-1-18.8
			l-41.6-39.9c-8,1.9-12.9,9.8-11,17.8c0.2,0.8,0.4,1.5,0.7,2.2l26,63.8c3.1,7.6-0.6,16.2-8.1,19.3c-1.5,0.6-3.1,1-4.8,1.1l-5,0.3
			l31.2,21.4"/>
		
			<linearGradient id="Path_42510_1_" gradientUnits="userSpaceOnUse" x1="648.8344" y1="1144.4279" x2="649.0924" y2="1142.8188" gradientTransform="matrix(69.3368 -3.6338 -2.2858 -43.6151 -41026.0273 53206.1953)">
			<stop  offset="0" style="stop-color:#1C0045"/>
			<stop  offset="1" style="stop-color:#2E4354"/>
		</linearGradient>
		<path id="Path_42510" display="inline" fill="url(#Path_42510_1_)" d="M1316.6,959.2l37.5-41.6c0.9-0.9,1.8-1.8,2.9-2.5
			c0.1-0.1,0.3-0.2,0.5-0.3c0.2-0.1,0.4-0.2,0.5-0.3c0.3-0.2,0.7-0.4,1-0.5c0.1,0,0.2-0.1,0.3-0.1c0.1,0,0.2-0.1,0.2-0.1
			c0.1,0,0.3-0.1,0.4-0.2c0.2-0.1,0.3-0.1,0.5-0.2c0.2-0.1,0.3-0.1,0.5-0.1l0,0c0.2-0.1,0.4-0.1,0.6-0.2l0.2,0.2l23.3,25.7"/>
		
			<linearGradient id="Path_42511_1_" gradientUnits="userSpaceOnUse" x1="656.1846" y1="1147.4254" x2="656.3785" y2="1146.8154" gradientTransform="matrix(304.609 -15.9639 -18.2646 -348.5097 -177208.4063 410881.5625)">
			<stop  offset="0" style="stop-color:#2E4354"/>
			<stop  offset="1" style="stop-color:#7792AA"/>
		</linearGradient>
		<path id="Path_42511" display="inline" fill="url(#Path_42511_1_)" d="M1914.5,899.7l-12.6-14.1c-0.5-0.5-0.9-1.1-1.1-1.8
			l-26.8-71.5c-2.4-6.3-11.7-4.1-11.1,2.5l2.6,28.6c0.3,3.2-2,6-5.2,6.3c-1.8,0.2-3.7-0.6-4.9-2L1764,742.6l-2.4-2.8
			c-0.4-0.5-1-0.9-1.5-1.3l-51-28.5l-5.3-2.9c-0.7-0.4-1.3-0.9-1.8-1.5l-8.1-10.7l-37.3-49.3l-4.3-5.7l-28.1-37l-9-11.8l-10.7-14.2
			c-1.9-2.5-1.4-6.1,1.1-8.1c0.9-0.7,2-1.1,3.2-1.2l3.1-0.2c3.4-0.2,6.7,0.8,9.4,2.8l5.4,3.9l11.7,8.4l17.9,12.9
			c2.7,2,6.1,2.9,9.4,2.8l37.6-2c3.8-0.2,7.6,1.1,10.5,3.6l101.8,88.7l8.6,7.5c2.9,2.5,6.7,3.8,10.5,3.6l29.7-1.6
			c3.7-0.2,7.3,1,10.1,3.3c0.6,0.5,1.2,1,1.7,1.6l29.8,33.5l0.4,0.4l11,0v164"/>
	</g>
</g>
</svg>
